<svg width="182" height="31" viewBox="0 0 182 31" xmlns="http://www.w3.org/2000/svg">
  <g fill="none" fill-rule="evenodd">
    <path d="M29.019 27.867a20.446 20.446 0 0 1-3.61 1.477 22.85 22.85 0 0 1-3.722.79 31.152 31.152 0 0 1-3.886.235c-2.475 0-4.693-.342-6.655-1.025-1.962-.684-3.664-1.692-5.106-3.025a12.812 12.812 0 0 1-3.24-4.676c-.718-1.784-1.077-3.743-1.077-5.875 0-2.448.423-4.59 1.271-6.43.848-1.838 2.034-3.366 3.558-4.583 1.525-1.217 3.261-2.116 5.21-2.697 1.947-.581 4.002-.871 6.162-.871 3.226 0 6.884.717 10.972 2.153v7.547a30.262 30.262 0 0 0-4.174-2.184c-1.374-.581-2.99-.872-4.85-.872-1.654 0-3.2.328-4.635.984-1.435.657-2.59 1.593-3.466 2.81-.875 1.217-1.312 2.639-1.312 4.266 0 1.435.383 2.751 1.148 3.947.766 1.197 1.829 2.147 3.19 2.851 1.36.704 2.894 1.056 4.603 1.056 1.381 0 2.687-.167 3.917-.502 1.23-.335 2.266-.708 3.107-1.118.841-.41 1.706-.896 2.595-1.456v7.198zM56.212 30h-21.43V1.576h21.081v5.701h-12.51v5.21H55.29v5.721H43.354v6.07h12.858V30zM82.277 1.35v1.846H71.531V30h-2.235V3.196H58.55V1.351h23.727zM93.926 13l-1.17 1.887c-1.571-1.436-2.836-2.154-3.793-2.154-1.887 0-3.903 1.805-6.05 5.414V30h-2.01V11.133h2.01v4.963h.082c2.256-3.555 4.457-5.332 6.604-5.332 1.23 0 2.672.745 4.327 2.235zm17.042 13.72V28.4c-1.737 1.313-3.008 1.97-3.815 1.97-.465 0-.786-.155-.964-.462-.177-.308-.307-.933-.39-1.877-1.982 1.559-3.95 2.338-5.905 2.338-1.422 0-2.625-.465-3.61-1.394-.984-.93-1.476-2.058-1.476-3.384 0-2.051.95-3.668 2.85-4.85 1.9-1.183 4.614-1.863 8.142-2.04v-2.4c0-2.57-1.395-3.856-4.184-3.856-1.777 0-3.698.8-5.762 2.4v-2.072c2.132-1.34 4.163-2.01 6.09-2.01 1.71 0 3.118.421 4.225 1.262 1.107.84 1.661 2.06 1.661 3.66v11.752c0 .642.15.963.451.963.383 0 1.279-.56 2.687-1.681zm-5.168-.451v-5.886c-2.584-.096-4.727.359-6.43 1.364-1.702 1.004-2.553 2.286-2.553 3.845 0 .875.356 1.613 1.067 2.215.71.601 1.6.902 2.666.902 1.722 0 3.472-.813 5.25-2.44zm21.328-14.581v2.235c-1.805-.793-3.439-1.19-4.901-1.19-2.106 0-3.818.732-5.138 2.195-1.319 1.463-1.979 3.363-1.979 5.7 0 2.38.66 4.27 1.98 5.671 1.319 1.402 3.086 2.102 5.3 2.102 1.614 0 3.31-.362 5.087-1.087v2.092c-1.887.643-3.637.964-5.25.964-2.762 0-4.994-.875-6.696-2.625s-2.553-4.047-2.553-6.89c0-2.967.857-5.39 2.573-7.27s3.907-2.82 6.573-2.82c1.463 0 3.13.307 5.004.923zm6.09-10.336V30h-2.009V1.35h2.01zm13.351 9.782l-10.315 8.962L148.169 30H145.4l-11.894-9.905 10.418-8.962h2.645zm18.355 8.736h-14.868a7.929 7.929 0 0 0-.062.985c0 2.105.752 3.89 2.256 5.352 1.504 1.463 3.281 2.194 5.332 2.194 2.393 0 4.73-.936 7.014-2.81v2.277c-2.16 1.668-4.58 2.502-7.26 2.502-2.72 0-4.97-.943-6.747-2.83-1.777-1.887-2.666-4.286-2.666-7.198 0-2.762.82-5.049 2.46-6.86 1.641-1.812 3.706-2.717 6.194-2.717 2.338 0 4.314.817 5.927 2.45 1.613 1.634 2.42 3.852 2.42 6.655zm-14.602-1.62h12.223c-.711-3.678-2.7-5.517-5.968-5.517-1.545 0-2.881.482-4.01 1.446-1.127.964-1.876 2.321-2.245 4.071zm31.705-5.25l-1.169 1.887c-1.572-1.436-2.837-2.154-3.794-2.154-1.886 0-3.903 1.805-6.05 5.414V30h-2.01V11.133h2.01v4.963h.083c2.256-3.555 4.457-5.332 6.603-5.332 1.23 0 2.673.745 4.327 2.235z" fill-opacity=".15" fill="#000"/>
    <path d="M28.019 26.867a20.446 20.446 0 0 1-3.61 1.477 22.85 22.85 0 0 1-3.722.79 31.152 31.152 0 0 1-3.886.235c-2.475 0-4.693-.342-6.655-1.025-1.962-.684-3.664-1.692-5.106-3.025a12.812 12.812 0 0 1-3.24-4.676C1.081 18.86.722 16.9.722 14.768c0-2.448.423-4.59 1.271-6.43.848-1.838 2.034-3.366 3.558-4.583 1.525-1.217 3.261-2.116 5.21-2.697 1.947-.581 4.002-.871 6.162-.871 3.226 0 6.884.717 10.972 2.153v7.547a30.262 30.262 0 0 0-4.174-2.184c-1.374-.581-2.99-.872-4.85-.872-1.654 0-3.2.328-4.635.984-1.435.657-2.59 1.593-3.466 2.81-.875 1.217-1.312 2.639-1.312 4.266 0 1.435.383 2.751 1.148 3.947.766 1.197 1.829 2.147 3.19 2.851 1.36.704 2.894 1.056 4.603 1.056 1.381 0 2.687-.167 3.917-.502 1.23-.335 2.266-.708 3.107-1.118.841-.41 1.706-.896 2.595-1.456v7.198zM55.212 29h-21.43V.576h21.081v5.701h-12.51v5.21H54.29v5.721H42.354v6.07h12.858V29zM81.277.35v1.846H70.531V29h-2.235V2.196H57.55V.351h23.727zM92.926 12l-1.17 1.887c-1.571-1.436-2.836-2.154-3.793-2.154-1.887 0-3.903 1.805-6.05 5.414V29h-2.01V10.133h2.01v4.963h.082c2.256-3.555 4.457-5.332 6.604-5.332 1.23 0 2.672.745 4.327 2.235zm17.042 13.72V27.4c-1.737 1.313-3.008 1.97-3.815 1.97-.465 0-.786-.155-.964-.462-.177-.308-.307-.933-.39-1.877-1.982 1.559-3.95 2.338-5.905 2.338-1.422 0-2.625-.465-3.61-1.394-.984-.93-1.476-2.058-1.476-3.384 0-2.051.95-3.668 2.85-4.85 1.9-1.183 4.614-1.863 8.142-2.04v-2.4c0-2.57-1.395-3.856-4.184-3.856-1.777 0-3.698.8-5.762 2.4v-2.072c2.132-1.34 4.163-2.01 6.09-2.01 1.71 0 3.118.421 4.225 1.262 1.107.84 1.661 2.06 1.661 3.66v11.752c0 .642.15.963.451.963.383 0 1.279-.56 2.687-1.681zm-5.168-.451v-5.886c-2.584-.096-4.727.359-6.43 1.364-1.702 1.004-2.553 2.286-2.553 3.845 0 .875.356 1.613 1.067 2.215.71.601 1.6.902 2.666.902 1.722 0 3.472-.813 5.25-2.44zm21.328-14.581v2.235c-1.805-.793-3.439-1.19-4.901-1.19-2.106 0-3.818.732-5.138 2.195-1.319 1.463-1.979 3.363-1.979 5.7 0 2.38.66 4.27 1.98 5.671 1.319 1.402 3.086 2.102 5.3 2.102 1.614 0 3.31-.362 5.087-1.087v2.092c-1.887.643-3.637.964-5.25.964-2.762 0-4.994-.875-6.696-2.625s-2.553-4.047-2.553-6.89c0-2.967.857-5.39 2.573-7.27s3.907-2.82 6.573-2.82c1.463 0 3.13.307 5.004.923zM132.218.35V29h-2.009V.35h2.01zm13.351 9.782l-10.315 8.962L147.169 29H144.4l-11.894-9.905 10.418-8.962h2.645zm18.355 8.736h-14.868a7.929 7.929 0 0 0-.062.985c0 2.105.752 3.89 2.256 5.352 1.504 1.463 3.281 2.194 5.332 2.194 2.393 0 4.73-.936 7.014-2.81v2.277c-2.16 1.668-4.58 2.502-7.26 2.502-2.72 0-4.97-.943-6.747-2.83-1.777-1.887-2.666-4.286-2.666-7.198 0-2.762.82-5.049 2.46-6.86 1.641-1.812 3.706-2.717 6.194-2.717 2.338 0 4.314.817 5.927 2.45 1.613 1.634 2.42 3.852 2.42 6.655zm-14.602-1.62h12.223c-.711-3.678-2.7-5.517-5.968-5.517-1.545 0-2.881.482-4.01 1.446-1.127.964-1.876 2.321-2.245 4.071zm31.705-5.25l-1.169 1.887c-1.572-1.436-2.837-2.154-3.794-2.154-1.886 0-3.903 1.805-6.05 5.414V29h-2.01V10.133h2.01v4.963h.083c2.256-3.555 4.457-5.332 6.603-5.332 1.23 0 2.673.745 4.327 2.235z" fill="#FFF"/>
  </g>
</svg>