<?xml version="1.0" encoding="UTF-8" standalone="no"?>
<svg width="90px" height="64px" viewBox="0 0 90 64" version="1.1" xmlns="http://www.w3.org/2000/svg" xmlns:xlink="http://www.w3.org/1999/xlink">
    <!-- Generator: Sketch 45.2 (43514) - http://www.bohemiancoding.com/sketch -->
    <title>cloud-complete</title>
    <desc>Created with Sketch.</desc>
    <defs></defs>
    <g id="Page-1" stroke="none" stroke-width="1" fill="none" fill-rule="evenodd">
        <g id="cloud-complete" fill-rule="nonzero" fill="#FFFFFF">
            <path d="M66.74,24.25 L66.84,30.42 L72.84,31.89 C78.6842181,33.374711 82.5190719,38.9656983 81.7995436,44.9524779 C81.0800153,50.9392576 76.0295878,55.4623566 70,55.52 L20,55.52 C14.5134319,55.5368823 9.71416915,51.8304494 8.34354664,46.5178128 C6.97292413,41.2051762 9.38005992,35.6395436 14.19,33 L18.19,30.8 L18.33,26.26 C18.3960381,23.8015343 19.6018373,21.5136512 21.5925822,20.0695774 C23.5833271,18.6255036 26.1325046,18.1895503 28.49,18.89 L34.14,20.54 L37.4,15.64 C40.3659528,11.1508957 45.3895832,8.45308974 50.77,8.46 C59.4634019,8.53762617 66.5560798,15.5283468 66.74,24.25 Z M30.77,11.21 C26.0305402,9.79332539 20.9017712,10.6617228 16.892857,13.5596622 C12.8839428,16.4576017 10.4510247,21.0553505 10.31,26 C3.94032304,29.5278158 -0.0087983265,36.2386408 -3.55271198e-15,43.52 C-2.66453357e-15,54.565695 8.954305,63.52 20,63.52 L70,63.52 C81.045695,63.52 90,54.565695 90,43.52 C89.9894877,34.3201615 83.7043614,26.3141569 74.77,24.12 C74.5732675,11.0059669 63.8855086,0.478524424 50.77,0.48 C42.7226792,0.46366695 35.2127913,4.50023166 30.77,11.21 Z" id="Shape"></path>
            <g id="Group" transform="translate(26.000000, 20.000000)">
                <polygon id="Shape" points="35.5 5.61 13.83 27.29 0.5 13.97 5.34 9.12 13.83 17.6 30.66 0.77"></polygon>
                <polygon id="Shape" points="13.83 27.29 0.5 13.97 5.34 9.12 13.83 17.6 30.66 0.77 35.5 5.61"></polygon>
            </g>
        </g>
    </g>
</svg>