<?xml version="1.0" encoding="UTF-8"?>
<svg width="598px" height="598px" viewBox="0 0 598 598" version="1.1" xmlns="http://www.w3.org/2000/svg" xmlns:xlink="http://www.w3.org/1999/xlink">
    <!-- Generator: Sketch 51 (57462) - http://www.bohemiancoding.com/sketch -->
    <title>yay</title>
    <desc>Created with Sketch.</desc>
    <defs></defs>
    <g id="Page-1" stroke="none" stroke-width="1" fill="none" fill-rule="evenodd">
        <g id="Desktop-Copy-5" transform="translate(-408.000000, -345.000000)">
            <g id="yay" transform="translate(408.000000, 345.000000)">
                <g fill="#A2A2A2" fill-rule="nonzero" id="Shape">
                    <path d="M598,440.526667 L598,158.137778 C598,52.7125926 545.398148,0 440.194444,0 L157.805556,0 C52.6018519,0 0,52.7125926 0,158.137778 L0,440.526667 C0,545.508889 52.6018519,598 157.805556,598 L440.194444,598 C545.398148,598 598,545.508889 598,440.526667 Z M561.123333,158.137778 L561.123333,440.526667 C561.123333,520.924444 520.813704,561.123333 440.194444,561.123333 L157.805556,561.123333 C77.4077778,561.123333 37.2088889,520.924444 37.2088889,440.526667 L37.2088889,158.137778 C37.2088889,77.5185185 77.4077778,37.2088889 157.805556,37.2088889 L440.194444,37.2088889 C520.813704,37.2088889 561.123333,77.5185185 561.123333,158.137778 Z M161.792222,302.654444 C156.255185,302.654444 151.604074,304.647778 147.838889,308.634444 C143.852222,312.621111 141.858889,317.493704 141.858889,323.252222 C142.08037,371.313704 156.91963,407.747407 186.376667,432.553333 L186.708889,432.885556 C213.508148,456.141111 251.713704,467.768889 301.325556,467.768889 C349.165556,467.768889 386.485185,455.698148 413.284444,431.556667 C443.184444,406.307778 458.245185,370.206296 458.466667,323.252222 C458.466667,317.493704 456.473333,312.621111 452.486667,308.634444 C448.5,304.647778 443.738148,302.654444 438.201111,302.654444 L161.792222,302.654444 Z M211.957778,200.994444 C211.957778,189.255926 207.86037,179.289259 199.665556,171.094444 C191.692222,163.342593 181.947037,159.466667 170.43,159.466667 C158.912963,159.466667 149.057037,163.342593 140.862222,171.094444 C132.888889,179.289259 128.902222,189.255926 128.902222,200.994444 C128.902222,212.511481 132.888889,222.145926 140.862222,229.897778 C149.057037,238.092593 158.912963,242.19 170.43,242.19 C181.947037,242.19 191.692222,238.092593 199.665556,229.897778 C207.86037,222.145926 211.957778,212.511481 211.957778,200.994444 Z M398.334444,229.897778 C406.529259,238.092593 416.385185,242.19 427.902222,242.19 C439.419259,242.19 449.053704,238.092593 456.805556,229.897778 C465.221852,222.145926 469.43,212.511481 469.43,200.994444 C469.43,189.255926 465.221852,179.289259 456.805556,171.094444 C449.053704,163.342593 439.419259,159.466667 427.902222,159.466667 C416.385185,159.466667 406.529259,163.342593 398.334444,171.094444 C390.361111,179.289259 386.374444,189.255926 386.374444,200.994444 C386.374444,212.511481 390.361111,222.145926 398.334444,229.897778 Z"></path>
                </g>
                <path d="M215.679688,403 L211.478516,403 L211.478516,380.904297 L203.919922,380.904297 L203.919922,377.300781 L223.238281,377.300781 L223.238281,380.904297 L215.679688,380.904297 L215.679688,403 Z M243.839844,403 L239.691406,403 L239.691406,391.046875 C239.691406,389.546867 239.389651,388.427738 238.786133,387.689453 C238.182614,386.951168 237.224616,386.582031 235.912109,386.582031 C234.177726,386.582031 232.903324,387.100581 232.088867,388.137695 C231.27441,389.17481 230.867188,390.912097 230.867188,393.349609 L230.867188,403 L226.736328,403 L226.736328,375.648438 L230.867188,375.648438 L230.867188,382.591797 C230.867188,383.705084 230.796876,384.894525 230.65625,386.160156 L230.919922,386.160156 C231.482425,385.222652 232.264643,384.496096 233.266602,383.980469 C234.26856,383.464841 235.437493,383.207031 236.773438,383.207031 C241.484399,383.207031 243.839844,385.580054 243.839844,390.326172 L243.839844,403 Z M261.751953,403 L260.925781,400.292969 L260.785156,400.292969 C259.847652,401.476568 258.904302,402.282224 257.955078,402.709961 C257.005855,403.137697 255.787117,403.351562 254.298828,403.351562 C252.388662,403.351562 250.897466,402.835943 249.825195,401.804688 C248.752924,400.773432 248.216797,399.314463 248.216797,397.427734 C248.216797,395.423818 248.96093,393.912114 250.449219,392.892578 C251.937507,391.873042 254.205063,391.316407 257.251953,391.222656 L260.609375,391.117188 L260.609375,390.080078 C260.609375,388.837884 260.319339,387.909183 259.739258,387.293945 C259.159177,386.678708 258.259772,386.371094 257.041016,386.371094 C256.044917,386.371094 255.089848,386.517577 254.175781,386.810547 C253.261714,387.103517 252.382817,387.449217 251.539062,387.847656 L250.203125,384.894531 C251.257818,384.343747 252.412103,383.924806 253.666016,383.637695 C254.919928,383.350585 256.10351,383.207031 257.216797,383.207031 C259.689465,383.207031 261.555658,383.746088 262.81543,384.824219 C264.075202,385.902349 264.705078,387.595692 264.705078,389.904297 L264.705078,403 L261.751953,403 Z M255.599609,400.1875 C257.099617,400.1875 258.303706,399.768559 259.211914,398.930664 C260.120122,398.092769 260.574219,396.917976 260.574219,395.40625 L260.574219,393.71875 L258.078125,393.824219 C256.132803,393.894532 254.717778,394.219724 253.833008,394.799805 C252.948238,395.379886 252.505859,396.267572 252.505859,397.462891 C252.505859,398.330082 252.763669,399.000974 253.279297,399.475586 C253.794924,399.950198 254.568354,400.1875 255.599609,400.1875 Z M287.574219,403 L283.425781,403 L283.425781,391.046875 C283.425781,389.546867 283.124026,388.427738 282.520508,387.689453 C281.916989,386.951168 280.958991,386.582031 279.646484,386.582031 C277.900382,386.582031 276.623051,387.097651 275.814453,388.128906 C275.005855,389.160161 274.601562,390.88866 274.601562,393.314453 L274.601562,403 L270.470703,403 L270.470703,383.558594 L273.705078,383.558594 L274.285156,386.107422 L274.496094,386.107422 C275.082034,385.181636 275.914057,384.466799 276.992188,383.962891 C278.070318,383.458982 279.265618,383.207031 280.578125,383.207031 C285.242211,383.207031 287.574219,385.580054 287.574219,390.326172 L287.574219,403 Z M297.3125,392.734375 L299.650391,389.816406 L305.521484,383.558594 L310.285156,383.558594 L302.462891,391.908203 L310.777344,403 L305.925781,403 L299.685547,394.474609 L297.417969,396.337891 L297.417969,403 L293.322266,403 L293.322266,375.648438 L297.417969,375.648438 L297.417969,388.990234 L297.207031,392.734375 L297.3125,392.734375 Z M330.957031,389.025391 L337.039062,377.300781 L341.609375,377.300781 L333.048828,393.033203 L333.048828,403 L328.830078,403 L328.830078,393.173828 L320.304688,377.300781 L324.875,377.300781 L330.957031,389.025391 Z M360.013672,393.244141 C360.013672,396.419938 359.199227,398.898429 357.570312,400.679688 C355.941398,402.460946 353.673843,403.351562 350.767578,403.351562 C348.951163,403.351562 347.34571,402.94141 345.951172,402.121094 C344.556634,401.300777 343.484379,400.123055 342.734375,398.587891 C341.984371,397.052727 341.609375,395.271495 341.609375,393.244141 C341.609375,390.091781 342.417961,387.630868 344.035156,385.861328 C345.652352,384.091788 347.931626,383.207031 350.873047,383.207031 C353.685561,383.207031 355.912101,384.112296 357.552734,385.922852 C359.193368,387.733407 360.013672,390.173813 360.013672,393.244141 Z M345.863281,393.244141 C345.863281,397.732444 347.521468,399.976562 350.837891,399.976562 C354.119157,399.976562 355.759766,397.732444 355.759766,393.244141 C355.759766,388.802712 354.107438,386.582031 350.802734,386.582031 C349.068351,386.582031 347.811527,387.156244 347.032227,388.304688 C346.252926,389.453131 345.863281,391.099599 345.863281,393.244141 Z M378.470703,403 L377.890625,400.451172 L377.679688,400.451172 C377.105466,401.35352 376.288091,402.062497 375.227539,402.578125 C374.166987,403.093753 372.957038,403.351562 371.597656,403.351562 C369.242176,403.351562 367.484381,402.765631 366.324219,401.59375 C365.164057,400.421869 364.583984,398.646496 364.583984,396.267578 L364.583984,383.558594 L368.75,383.558594 L368.75,395.546875 C368.75,397.035164 369.054684,398.151363 369.664062,398.895508 C370.273441,399.639652 371.228509,400.011719 372.529297,400.011719 C374.263681,400.011719 375.538082,399.493169 376.352539,398.456055 C377.166996,397.41894 377.574219,395.681653 377.574219,393.244141 L377.574219,383.558594 L381.722656,383.558594 L381.722656,403 L378.470703,403 Z M391.179688,395.195312 L388.121094,395.195312 L387.207031,377.300781 L392.076172,377.300781 L391.179688,395.195312 Z M386.996094,400.802734 C386.996094,399.935543 387.224607,399.276369 387.681641,398.825195 C388.138674,398.374021 388.789058,398.148438 389.632812,398.148438 C390.464848,398.148438 391.103513,398.38281 391.548828,398.851562 C391.994143,399.320315 392.216797,399.970699 392.216797,400.802734 C392.216797,401.63477 391.991213,402.293943 391.540039,402.780273 C391.088865,403.266604 390.453129,403.509766 389.632812,403.509766 C388.800777,403.509766 388.153323,403.275393 387.69043,402.806641 C387.227537,402.337888 386.996094,401.669926 386.996094,400.802734 Z" id="Thank-You!" fill="#FFFFFF"></path>
            </g>
        </g>
    </g>
</svg>