<?xml version="1.0" encoding="UTF-8"?>
<svg width="168px" height="137px" viewBox="0 0 168 137" version="1.1" xmlns="http://www.w3.org/2000/svg" xmlns:xlink="http://www.w3.org/1999/xlink">
    <!-- Generator: Sketch 51 (57462) - http://www.bohemiancoding.com/sketch -->
    <title>New York</title>
    <desc>Created with Sketch.</desc>
    <defs></defs>
    <g id="Page-1" stroke="none" stroke-width="1" fill="none" fill-rule="evenodd">
        <g id="A5" transform="translate(-1009.000000, -136.000000)">
            <g id="New-York" transform="translate(1009.000000, 136.000000)">
                <path d="M124.71629,130.999574 L124.455437,131.157327 L124.215123,131.407877 L123.935784,131.612028 L123.453103,131.704824 L123.132685,131.681625 L122.908803,131.818499 L122.767079,132.363675 L122.787619,132.839254 L122.927288,133.767214 L122.888263,134.245113 L122.767079,134.405186 L122.586331,134.539741 L122.405582,134.743892 L122.286452,135.040839 L122.304938,135.24499 L122.506226,136.038395 L124.615646,133.973685 L125.402314,132.591025 L125.137352,131.043652 L124.71629,130.999574 L124.71629,130.999574 Z M141.497167,126.278579 L141.458142,126.188103 L141.478681,126.141705 L141.577272,126.118506 L141.538246,125.937554 L141.176749,126.211302 L139.909454,126.596406 L139.687626,126.710081 L139.568496,126.800557 L139.307642,127.18566 L138.86604,127.505806 L138.740749,127.663559 L138.479895,127.890909 L135.649535,129.275889 L136.189727,129.48004 L138.966685,128.027783 L139.989558,126.983829 L141.497167,126.371375 L141.497167,126.278579 L141.497167,126.278579 Z M150.218293,120.174924 L149.291956,121.012408 L148.289622,121.627181 L148.088334,121.875411 L147.86856,122.12596 L147.081892,122.647937 L146.800499,122.761612 L146.560185,122.965763 L146.100098,123.73597 L145.839245,124.076995 L144.631514,125.009594 L142.762408,125.983952 L142.158543,126.505929 L141.497167,126.756479 L140.911788,126.756479 L141.117184,127.076625 L141.817585,126.823756 L143.688745,125.847078 L145.676981,124.41802 L146.260307,123.851965 L146.560185,123.689572 L147.704243,122.422907 L149.452165,121.216559 L149.733558,121.079685 L149.934847,120.787378 L150.579791,120.198123 L150.540766,120.017171 L150.218293,120.174924 L150.218293,120.174924 Z M166.534975,105.898264 L165.972189,105.988741 L165.567558,106.195212 L165.707228,106.46664 L165.748307,106.647592 L165.347784,106.69399 L165.004772,106.624393 L164.784998,106.740388 L164.764459,107.396919 L164.343396,107.352841 L164.002438,107.691547 L163.396519,108.621826 L162.714604,109.211081 L162.314081,109.438431 L162.094307,109.327076 L161.934098,109.053327 L161.026246,108.143927 L160.726368,108.123048 L160.584644,108.52903 L160.584644,109.120605 L160.685288,109.644902 L159.742519,108.962851 L159.422101,108.870055 L159.280378,109.099725 L159.261892,109.438431 L159.300917,109.596184 L159.081143,109.758577 L158.614894,110.234156 L158.35404,110.324632 L158.193831,110.14368 L158.033622,109.825854 L157.813848,109.668101 L157.532455,109.91633 L157.873413,110.415108 L157.633099,110.84429 L157.170958,111.254912 L156.2857,112.572615 L156.024847,113.069073 L156.043332,113.410098 L156.164516,113.774322 L155.903663,114.136227 L155.4826,114.454053 L155.082078,114.683723 L154.619936,114.727801 L154.153686,114.635005 L153.753164,114.683723 L153.412206,115.159302 L153.210917,115.045627 L152.991143,115.022428 L152.771369,115.068826 L152.549541,115.159302 L152.670725,114.727801 L152.950064,114.249902 L153.291022,113.82072 L153.753164,113.477375 L153.874347,113.273224 L154.055096,112.820844 L154.094121,112.68397 L154.135201,112.298866 L154.215305,112.138793 L154.29541,112.092395 L154.535723,112.071516 L154.640476,112.025118 L155.082078,111.319869 L155.260772,111.210834 L155.342931,111.389466 L155.583245,111.686413 L155.823558,111.869685 L155.844098,111.572738 L155.722914,111.210834 L155.583245,110.937086 L155.562705,110.640139 L155.702374,110.255035 L155.862583,110.097282 L156.304185,109.983607 L156.484934,109.802655 L156.304185,109.758577 L156.123437,109.68898 L155.963228,109.552106 L155.803019,109.350275 L156.85054,107.510594 L157.532455,106.763587 L157.953518,107.239166 L158.193831,107.032695 L158.454685,106.717189 L158.655973,106.327446 L158.694998,105.965542 L158.51425,105.738191 L158.214371,105.670914 L157.893953,105.717312 L157.633099,105.828668 L156.686223,106.740388 L156.445909,107.099972 L156.104951,107.895698 L155.862583,108.257602 L155.001973,108.802778 L154.619936,109.143804 L154.41454,110.006806 L153.352641,110.913887 L152.389332,112.663091 L151.984702,112.978597 L149.53227,114.29862 L146.319872,115.022428 L142.881538,115.996786 L143.062287,116.270534 L143.041747,116.495564 L142.881538,116.634758 L142.620685,116.702035 L142.600145,116.064063 L142.279727,116.019985 L141.858664,116.293733 L141.538246,116.565161 L141.737481,117.040741 L141.618351,117.565038 L141.297933,117.994219 L140.4517,118.562594 L140.229872,118.629872 L140.049123,118.606673 L139.586981,118.469798 L139.387747,118.469798 L138.966685,118.516196 L137.056499,118.267967 L136.635437,118.402521 L136.491659,118.67395 L136.976395,119.13097 L137.157143,118.653071 L137.498101,118.745866 L137.779494,119.13097 L137.800034,119.539272 L137.537126,119.629748 L137.157143,119.560151 L136.756621,119.560151 L136.551224,119.903496 L136.249292,119.743423 L136.029518,119.58335 L136.109622,118.991776 L135.68856,118.720348 L135.166853,118.859542 L134.986105,119.448796 L135.107288,119.743423 L135.54889,120.128526 L135.628995,120.355877 L135.489325,120.51363 L134.906,120.379076 L134.624607,120.423154 L134.645147,120.265401 L134.706766,120.174924 L133.5586,120.151725 L132.515187,120.808257 L132.009912,121.924128 L132.595292,123.306788 L132.313899,123.418144 L131.888728,123.102637 L131.387562,122.603859 L130.906934,122.262834 L130.68716,122.557461 L130.545437,122.965763 L130.586516,123.283589 L131.286917,123.397264 L131.44918,123.73597 L131.387562,124.100194 L131.208867,124.327544 L131.007578,124.19067 L130.767265,123.851965 L130.506411,123.601416 L130.204479,123.73597 L130.124374,124.053796 L130.344148,124.828642 L130.364688,125.190547 L129.799848,124.942317 L129.097393,124.919118 L128.557201,125.213746 L128.475042,125.916675 L127.448061,125.916675 L126.987973,126.461851 L126.505292,128.57064 L126.445727,128.728393 L126.264978,128.934864 L126.184874,129.069418 L126.164334,129.162214 L126.145848,129.410443 L126.145848,129.526438 L125.722732,130.456718 L125.663167,130.728146 L125.884995,131.384678 L126.626476,131.976252 L126.647015,132.591025 L126.987973,132.521428 L127.994415,131.999451 L128.095059,131.885776 L128.294293,131.588829 L128.456556,131.454275 L128.71741,131.384678 L128.916644,131.431076 L129.097393,131.384678 L129.237062,131.022773 L128.916644,130.704947 L128.756435,130.614471 L128.557201,130.568073 L128.516121,130.363922 L128.996749,129.774668 L129.278142,129.549637 L129.719744,129.389564 L130.144914,129.343166 L130.726185,129.389564 L131.167788,129.549637 L131.208867,129.844264 L131.348536,130.002018 L131.387562,130.092494 L131.428641,130.206169 L131.046604,130.343043 L128.557201,132.224481 L128.234728,132.591025 L128.957723,132.544627 L131.627875,130.795423 L135.308577,129.795547 L135.267497,129.593715 L134.686226,129.616914 L133.197103,130.229368 L132.716476,130.069295 L132.737015,129.593715 L133.258722,129.299088 L134.404833,128.981262 L136.43004,127.552204 L138.479895,126.800557 L138.88658,126.505929 L139.527417,125.779801 L140.751578,125.076872 L140.952867,124.895919 L141.176749,124.487617 L141.336958,124.304345 L141.698455,124.19067 L142.661764,124.260267 L143.142391,124.213869 L143.407352,124.007398 L143.347788,123.712771 L143.201956,123.397264 L143.263575,123.102637 L143.507997,122.965763 L143.76885,122.988962 L144.048189,123.056239 L144.290556,123.056239 L144.53087,122.965763 L145.352455,122.466985 L145.553744,122.12596 L145.75914,122.014605 L147.042867,121.580783 L147.44339,121.309355 L147.86856,120.831456 L148.108874,120.717781 L148.65112,120.898733 L148.911973,120.898733 L149.312496,120.694582 L149.552809,120.355877 L149.552809,119.947574 L149.252931,119.516073 L149.973872,119.356 L152.144911,118.358443 L152.629646,118.244768 L152.510516,118.539395 L152.16545,118.836343 L151.222681,119.404718 L151.101497,119.471995 L151.060418,119.58335 L151.140523,119.743423 L151.282246,119.81302 L151.362351,119.743423 L151.421916,119.606549 L151.52256,119.516073 L151.723848,119.427917 L153.592954,117.882864 L154.800685,117.247212 L155.462061,116.472365 L155.642809,116.177738 L155.583245,115.90631 L155.381956,115.658081 L155.260772,115.384332 L155.281312,115.112904 L155.50314,114.955151 L156.043332,114.864675 L156.304185,114.97835 L156.365804,115.293856 L156.224081,115.839033 L156.606118,115.658081 L157.212037,115.001549 L157.852874,114.635005 L158.855207,113.797521 L160.424435,111.846486 L161.591086,111.094839 L162.874813,109.849053 L164.162648,109.076526 L166.253582,106.763587 L166.574,106.510718 L166.814314,106.23929 L166.896472,105.919144 L166.534975,105.898264 L166.534975,105.898264 Z M162.373646,101.495096 L162.634499,101.40462 L162.895352,101.17727 L163.316415,100.564816 L163.622455,100.223791 L163.68202,100.200592 L163.741585,100.133315 L163.782664,99.9987607 L162.233976,100.678491 L161.952583,100.949919 L161.913558,101.335023 L162.094307,101.495096 L162.373646,101.495096 L162.373646,101.495096 Z M62.0437201,36.0855365 L62.2039292,36.1528136 L62.6496391,35.9254635 L63.2699359,35.1088589 L63.6725126,34.7237557 L63.651973,34.6100806 L63.5903541,34.5196045 L63.4506847,34.3850504 L63.3315548,34.3850504 L63.210371,34.5196045 L63.0296223,34.6332796 L62.7893086,34.5428035 L62.6085599,34.8142317 L62.1443642,35.1088589 L61.9636155,35.3570882 L61.9225363,35.5844383 L61.9430759,35.8605063 L62.0437201,36.0855365 L62.0437201,36.0855365 Z M64.0134705,33.7238791 L64.093575,33.9976272 L64.1326003,34.3386524 L64.3338887,34.5660025 L64.4940978,34.4732065 L64.9603474,33.7934761 L65.2807656,33.542927 L65.6422631,33.0882267 L65.9421417,32.5221713 L66.1228904,31.9329169 L66.1639696,31.8633199 L66.1639696,31.7751637 L66.14343,31.6150907 L65.8825767,31.7055668 L65.7223676,31.8865189 L65.4615143,32.4084962 L65.2807656,32.000194 L65.0794772,32.2507431 L64.7795987,33.2042217 L64.6193895,33.0650277 L64.6584148,32.9977506 L64.6789545,32.9745516 L64.6994941,32.9513526 L64.7179798,32.8167985 L64.4735582,32.8840756 L64.2928094,32.9745516 L64.1736796,33.1555038 L64.1141147,33.3851738 L64.0524958,33.3619748 L63.9723912,33.3851738 L63.8512074,33.4083728 L63.7115379,33.4756499 L63.7526172,33.703 L64.0134705,33.7238791 L64.0134705,33.7238791 Z M62.103285,43.9383955 L62.2244688,43.2331461 L62.2244688,42.8921209 L62.0026408,42.9153199 L61.6822226,43.165869 L61.4419089,43.441937 L61.160516,43.8687985 L61.1009511,44.2121436 L61.3412648,45.1401033 L61.9225363,44.3698967 L62.103285,43.9383955 L62.103285,43.9383955 Z M126.184874,120.128526 L126.045204,119.356 L125.219511,116.931705 L125.018223,115.634882 L124.876499,115.112904 L124.59716,114.658204 L124.215123,114.342698 L123.8146,114.092149 L123.494182,113.774322 L123.132685,112.820844 L122.988907,112.616693 L122.867723,112.368463 L122.847184,111.934642 L122.908803,111.663214 L123.069012,111.389466 L123.372998,110.957965 L123.533207,111.52634 L123.473642,112.048317 L123.512668,112.572615 L123.974809,113.115471 L124.777909,113.59105 L125.077788,113.841599 L125.381774,114.226703 L125.80489,115.182501 L126.125309,116.270534 L126.626476,118.67395 L126.68604,119.288723 L126.647015,120.560028 L126.747659,121.831332 L126.505292,123.146715 L126.546371,123.805567 L126.505292,124.260267 L125.823376,126.846955 L125.784351,127.438529 L125.843916,128.071861 L125.965099,128.707514 L126.365622,128.185537 L126.647015,126.278579 L126.907868,125.485174 L127.388496,125.009594 L128.095059,124.64537 L128.83654,124.41802 L129.45889,124.371622 L129.317167,124.123393 L128.916644,123.622295 L128.797514,123.397264 L128.857079,123.102637 L129.076853,122.988962 L129.317167,122.942564 L129.399325,122.784811 L129.399325,122.239635 L129.559535,121.694458 L130.225019,120.379076 L130.385228,120.151725 L130.605002,120.017171 L131.046604,119.903496 L131.087683,119.766622 L131.369076,118.968577 L131.408101,118.653071 L131.327997,118.539395 L131.087683,118.402521 L131.247892,118.154292 L131.307457,118.084695 L131.188327,117.882864 L131.028118,117.655514 L130.948013,117.565038 L130.886395,117.541839 L130.767265,117.497761 L130.68716,117.428164 L130.003191,116.702035 L129.358246,115.973587 L129.198037,115.815834 L129.438351,115.521207 L130.183939,114.683723 L131.147248,113.59105 L132.174229,112.435741 L133.016354,111.482262 L133.277207,111.141237 L132.876685,110.732935 L132.494648,110.301433 L132.094125,109.849053 L131.56831,109.211081 L131.488206,108.668224 L131.268432,107.283244 L131.067143,105.898264 L130.847369,104.536484 L130.625541,103.151504 L130.426307,101.789723 L130.204479,100.404743 L130.003191,99.0429622 L129.559535,96.2962015 L129.358246,94.9135416 L129.138472,93.5517607 L128.916644,92.1691008 L128.71741,90.805 L128.495582,89.4200202 L128.275808,88.0582393 L128.074519,86.6964584 L127.388496,86.1280831 L127.388496,85.5620277 L127.429575,84.404398 L127.48914,82.1587355 L127.614432,77.6650907 L127.692482,75.4171083 L127.93485,66.4530176 L127.953336,65.7245693 L128.175164,65.1585139 L127.754101,64.4347053 L127.248826,63.5461839 L127.248826,62.4581511 L127.187207,61.9593728 L127.148182,61.6415466 L127.088617,61.4373955 L126.967433,60.8226222 L126.786685,59.8714635 L126.546371,58.6465567 L125.94456,55.5796499 L124.556081,48.5689144 L124.235663,46.9565844 L123.935784,45.5252065 L123.693417,44.3026196 L123.512668,43.3491411 L123.393538,42.7575668 L123.352459,42.5302166 L123.233329,41.8968841 L123.027933,41.715932 L122.808159,41.5558589 L122.686975,41.5117809 L122.467201,41.3053098 L121.966034,40.3518312 L121.84485,40.2149572 L121.70518,40.1012821 L121.542917,40.080403 L121.222499,40.080403 L121.08283,40.1244811 L120.941106,40.1708791 L120.817868,40.2613552 L120.717224,40.3518312 L120.63712,40.4631864 L120.577555,40.6232594 L120.557015,40.7833325 L120.577555,41.3285088 L120.557015,41.5117809 L120.435831,41.7832091 L120.255083,42.0314383 L120.055848,42.1915113 L119.994229,42.2355894 L119.934664,42.2355894 L119.875099,42.1683123 L119.673811,41.9200831 L119.513602,41.623136 L119.394472,41.2821108 L119.252749,40.6464584 L119.213723,40.3077531 L119.213723,40.034005 L119.614246,36.881262 L119.614246,36.6539118 L119.534142,36.811665 L119.353393,35.9045844 L119.273288,35.6517154 L119.072,35.4266851 L118.5277,35.0415819 L118.367491,34.7469547 L118.346951,34.4059295 L118.406516,33.8166751 L118.385976,33.4524509 L118.266847,33.1323048 L118.086098,32.8608766 L117.74514,32.4757733 L117.463747,32.000194 L117.262459,31.5014156 L116.921501,29.9795617 L116.903015,29.3903073 L116.841396,29.051602 L116.822911,29.005204 L116.642162,28.8474509 L116.500438,28.9124081 L116.317636,29.2093552 L116.256017,29.5271814 L115.894519,28.3463526 L115.935599,25.2353678 L115.535076,24.2842091 L115.976678,23.8086297 L116.98312,21.7879975 L116.701727,21.4469723 L116.500438,21.1523451 L116.360769,20.7649219 L116.116347,19.9483174 L115.75485,18.9971587 L115.61518,18.7906877 L115.493997,18.6561335 L115.413892,18.5633375 L115.11196,16.9742065 L115.013369,16.6587003 L114.791541,16.7259773 L114.711437,17.2479547 L114.731976,17.9044861 L114.832621,18.4055844 L114.631332,18.0645592 L114.530688,17.677136 L114.512202,17.2711537 L114.571767,16.8860504 L114.571767,16.4777481 L114.391019,16.1158438 L113.906283,15.5242695 L114.169191,15.0904484 L114.21027,14.59167 L114.006927,14.2065668 L113.544786,14.1392897 L113.343497,13.9351385 L113.082644,13.4340403 L112.88341,12.842466 L112.821791,12.4573627 L112.702661,12.4805617 L112.702661,12.2532116 L112.641042,11.9817834 L112.521912,11.7544332 L112.341164,11.529403 L112.581477,11.1674987 L112.560938,10.7336776 L112.300084,9.98435013 L112.281599,9.37189673 L112.441808,9.07726952 L112.682121,9.07726952 L112.963514,9.50877078 L113.082644,9.62244584 L113.224368,9.62244584 L113.283933,9.39509572 L113.224368,9.10046851 L113.103184,8.91951637 L112.963514,8.80584131 L112.641042,8.48801511 L112.501373,8.41841814 L112.441808,8.32794207 L112.421268,7.96603778 L112.501373,7.66909068 L112.622556,7.6018136 L112.741686,7.57861461 L112.86287,7.41854156 L112.982,6.83160705 L112.922435,6.46738287 L112.682121,6.21683375 L112.341164,5.99180353 L112.180954,5.67397733 L112.08031,5.1496801 L112.039231,4.60450378 L112.10085,3.76702015 L111.920101,2.72074559 L111.879022,2.26836524 L111.940641,2.19876826 L112.039231,2.17788917 L112.139875,2.06421411 L112.201494,1.74638791 L112.160415,1.4749597 L112.059771,1.20121159 L111.839997,0.79290932 L111.879022,0.565559194 L111.133433,0.79290932 L109.223248,1.33808564 L107.294577,1.88326196 L105.388499,2.4029194 L103.459828,2.95041562 L101.549642,3.49559194 L99.6209713,4.01756927 L97.7107858,4.56042569 L95.7800607,5.08240302 L93.8760371,5.62757935 L91.945312,6.14955668 L90.0351265,6.67153401 L88.1064553,7.19351134 L86.1777841,7.71316877 L85.855312,7.75956675 L85.2945801,7.9196398 L82.7825835,8.23746599 L82.4375177,8.35114106 L82.1376391,8.55761209 L81.535828,9.23734257 L80.4924148,9.98435013 L80.206914,10.2557783 L79.5065126,11.1860579 L79.2045801,11.438927 L78.2412715,12.0049824 L75.8709983,14.477995 L74.7639123,16.1831209 L72.9749106,18.9275617 L71.0647251,21.8552746 L69.1586476,24.7597884 L68.413059,26.5994685 L67.8708128,27.6643023 L68.2117707,28.0262065 L68.4335987,28.5273048 L68.5732681,29.028403 L68.4541383,29.4807834 L67.3696459,30.6848111 L67.3696459,30.800806 L67.3901855,30.9794383 L67.3901855,31.1603904 L67.3511602,31.3204635 L67.2895413,31.3877406 L66.3426644,32.09067 L66.2830995,32.3180202 L66.14343,32.6335264 L64.0730354,35.6517154 L61.7828668,37.5145945 L58.9093727,41.0106826 L58.8087285,41.4653829 L59.0305565,42.0778363 L59.3304351,42.2147103 L59.7124722,42.2355894 L60.1171029,42.5070176 L60.277312,42.8016448 L60.277312,43.052194 L60.2382867,43.2563451 L60.3183912,43.4836952 L60.49914,43.5973703 L60.6798887,43.5973703 L60.7990185,43.418738 L60.7990185,43.073073 L60.8996627,42.6438917 L62.0437201,41.646335 L62.2840337,41.9873602 L63.0501619,41.646335 L63.3911197,41.8968841 L63.2699359,42.0778363 L63.2309106,42.1915113 L63.2309106,42.5766146 L63.3315548,42.3724635 L63.4712243,42.1915113 L63.6314334,42.0778363 L63.8121821,42.0105592 L63.7711029,42.4165416 L63.6314334,42.8503627 L63.4116594,43.2331461 L62.9495177,43.6437683 L62.6886644,44.0520705 L62.5489949,44.4603728 L62.6886644,44.5740479 L63.9128263,44.2794207 L64.2537841,44.0520705 L64.6789545,43.3932191 L64.9788331,43.1867481 L65.3197909,43.1867481 L65.5005396,43.3932191 L65.5210793,43.7342443 L65.3608702,44.1448665 L65.1000169,44.3930957 L64.4735582,44.6645239 L64.2743238,45.0264282 L64.2127049,45.4811285 L64.2537841,45.8430327 L64.2537841,46.2304559 L64.0319562,46.7547531 L63.3315548,47.7499899 L63.1898314,48.2046902 L62.5695346,47.933262 L62.6496391,47.7267909 L62.709204,47.0934584 L61.8424317,47.840466 L61.6226577,48.1582922 L61.4809342,48.6825894 L61.6411433,48.8635416 L61.9636155,48.9308186 L62.323059,49.1813678 L62.4688904,49.2950428 L62.768769,49.4319169 L62.8899528,49.5455919 L62.990597,49.7497431 L63.0296223,49.9747733 L63.1097268,50.1789244 L63.4712243,50.6777028 L63.8121821,51.4270302 L64.0134705,51.7703753 L63.9333659,52.3805088 L64.0319562,53.0370403 L64.2537841,53.7190907 L64.5146374,54.380262 L64.5988499,53.9232418 L64.7385194,53.6100554 L64.9398078,53.4708615 L65.2212007,53.5636574 L64.6378752,55.0808715 L64.6584148,55.760602 L65.2807656,56.059869 L64.9788331,56.5331285 L64.3934536,57.7371562 L64.0319562,58.0573023 L62.768769,58.6697557 L62.2429545,58.6906348 L61.3618044,58.5560806 L61.0208465,58.6906348 L60.217747,60.0756146 L59.8932209,60.4839169 L58.0467083,62.0730479 L57.4017639,62.8432544 L56.8595177,63.7549748 L56.3172715,65.7918463 L55.7770793,65.569136 L55.4710388,65.545937 L55.4114739,65.9055214 L55.3313693,66.0423955 L54.1688263,66.998194 L52.2175616,67.9493526 L52.137457,68.0653476 L52.0778921,68.3344559 L52.0984317,68.561806 L52.1579966,68.724199 L52.1579966,68.8819521 L52.1189713,69.0837834 L52.137457,69.1742594 L52.1189713,69.2438564 L51.9382226,69.3598514 L51.7574739,69.4271285 L51.5561855,69.4039295 L51.3754368,69.2902544 L51.194688,69.1069824 L51.2152277,68.9933073 L51.2768465,68.6801209 L43.5970793,70.0836599 L42.7344148,70.4919622 L40.4237066,72.0602141 L39.5179089,72.2643652 L38.6347049,72.0370151 L36.966887,70.9675416 L36.8457032,70.9443426 L36.3856155,70.9234635 L36.3239966,70.6079572 L35.7838044,70.4687632 L28.4449949,70.6311562 L26.1342867,71.5823149 L23.0225329,71.7841461 L17.0516627,74.1690025 L15.8891197,75.1456801 L13.8187251,76.0063627 L11.4484519,77.6650907 L10.1400776,78.210267 L10.3208263,78.7090453 L10.8671804,81.318932 L10.9062057,81.6367582 L10.9267454,82.0241814 L10.8856661,82.2956096 L10.8055616,82.5438388 L10.7665363,82.861665 L10.8466408,83.2954861 L10.8671804,83.2954861 L11.7483305,83.6991486 L14.0200135,83.4949975 L14.6608499,84.1329698 L14.6813895,84.7918212 L14.1206577,85.7429798 L14.0590388,86.4505491 L14.2007622,86.6964584 L14.6218246,86.9702065 L14.7409545,87.1302796 L15.1024519,88.4015844 L15.2873086,88.6938917 L15.8480405,89.4896171 L16.0287892,89.8306423 L16.1088938,90.0788715 L16.2300776,90.758602 L16.2896425,91.4893703 L16.1889983,92.0554257 L15.930199,92.4846071 L15.5892411,92.8929093 L14.159683,93.983262 L13.4983069,94.6653123 L13.0772445,95.525995 L12.8328229,96.7068237 L12.5925093,97.275199 L12.2104722,97.5907053 L12.1303676,97.7275793 L11.9290793,98.5905819 L11.7688702,99.0916801 L11.6887656,99.2285542 L11.4484519,99.4280655 L10.1996425,100.156514 L9.89976391,100.880322 L8.95699494,101.857 L8.04914334,102.518171 L7.84990894,102.699123 L7.74926476,102.924154 L7.63013491,103.24198 L7.46787184,103.538927 L6.9276796,103.991307 L6.20468465,105.580438 L5.19824283,106.489839 L4.93738954,106.986297 L4.65599663,107.396919 L3.36816189,108.257602 L2.08443508,109.893131 L1.55862057,110.301433 L1.21766273,110.753814 L0.997888702,110.890688 L1.01842833,110.957965 L1.15809781,111.800088 L1.43949073,113.523773 L1.5791602,114.389096 L1.72499157,115.249778 L2.00433052,116.973463 L2.14605396,117.813267 L2.30626307,118.836343 L3.04774368,118.67395 L5.77951433,118.084695 L8.53593255,117.51864 L11.2882428,116.931705 L14.0200135,116.36101 L16.7723238,115.771756 L19.5040944,115.159302 L22.2605126,114.567728 L24.9922833,113.952955 L27.7425396,113.3637 L30.4763642,112.753567 L33.2101889,112.138793 L35.9624992,111.52634 L38.6963238,110.913887 L41.4280944,110.278234 L44.1598651,109.668101 L46.9142293,109.030128 L49.648054,108.394476 L52.3798246,107.758824 L55.1115953,107.099972 L57.8433659,106.46664 L60.5792445,105.807788 L63.3110152,105.148937 L66.0427858,104.490086 L68.7745565,103.831234 L71.5104351,103.174703 L74.2422057,102.494972 L76.9534368,101.836121 L79.6852074,101.15639 L82.419032,100.47434 L85.1549106,99.7946096 L87.8661417,99.0916801 L90.5979123,98.4073098 L91.0395143,98.2936348 L91.279828,98.2263577 L91.3599325,98.6369798 L91.9268263,98.9084081 L92.606688,99.0661612 L93.0893693,99.2935113 L93.329683,99.7946096 L93.5104317,100.518418 L93.7507454,101.133191 L94.1553761,101.335023 L95.2193288,100.836244 L95.4801821,100.880322 L96.0224283,101.17727 L96.6078078,101.244547 L97.0083305,101.724766 L97.2096189,101.789723 L97.4910118,101.836121 L97.4704722,102.133068 L97.1295143,102.880076 L97.6101417,103.037829 L97.9716391,103.084227 L98.2715177,103.288378 L98.4974536,103.898511 L98.4974536,104.197778 L98.2715177,104.513285 L98.2509781,104.810232 L98.7583069,105.828668 L98.8774368,106.443441 L99.0581855,107.986174 L99.1793693,108.280801 L99.4997875,108.484952 L101.007396,110.619259 L101.348354,111.004363 L101.769417,111.254912 L102.712185,111.278111 L103.038766,111.482262 L103.299619,111.75601 L103.640577,111.957841 L104.141744,111.957841 L105.107106,111.616816 L105.569248,111.779209 L105.869126,111.98104 L106.090954,111.934642 L106.271703,111.779209 L106.472992,111.640015 L106.651686,111.709612 L106.79341,111.911443 L107.054263,112.345264 L107.294577,112.572615 L107.740287,113.115471 L107.960061,113.683846 L110.231744,114.500451 L112.501373,115.293856 L114.773056,116.110461 L117.063224,116.908506 L119.332853,117.722791 L121.625076,118.516196 L123.894705,119.311922 L126.184874,120.128526 L126.184874,120.128526 Z M12.2104722,85.9053728 L12.4302462,86.0376071 L12.771204,86.3786322 L13.1778887,86.6523804 L13.5188465,86.6523804 L14.2603272,84.6549471 L14.2603272,84.2675239 L14.0384992,84.0424937 L13.4983069,83.9543375 L13.1573491,83.8638615 L12.8328229,83.9752166 L12.5103508,84.1561688 L12.1509073,84.2675239 L12.2515514,84.6781461 L12.1509073,85.7197809 L12.2104722,85.9053728 L12.2104722,85.9053728 Z" id="Fill-37" fill="#D6D6D6"></path>
                <path d="M124.71629,130.999574 L124.455437,131.157327 L124.215123,131.407877 L123.935784,131.612028 L123.453103,131.704824 L123.132685,131.681625 L122.908803,131.818499 L122.767079,132.363675 L122.787619,132.839254 L122.927288,133.767214 L122.888263,134.245113 L122.767079,134.405186 L122.586331,134.539741 L122.405582,134.743892 L122.286452,135.040839 L122.304938,135.24499 L122.506226,136.038395 L124.615646,133.973685 L125.402314,132.591025 L125.137352,131.043652 L124.71629,130.999574 L124.71629,130.999574 Z M141.497167,126.278579 L141.458142,126.188103 L141.478681,126.141705 L141.577272,126.118506 L141.538246,125.937554 L141.176749,126.211302 L139.909454,126.596406 L139.687626,126.710081 L139.568496,126.800557 L139.307642,127.18566 L138.86604,127.505806 L138.740749,127.663559 L138.479895,127.890909 L135.649535,129.275889 L136.189727,129.48004 L138.966685,128.027783 L139.989558,126.983829 L141.497167,126.371375 L141.497167,126.278579 L141.497167,126.278579 Z M150.218293,120.174924 L149.291956,121.012408 L148.289622,121.627181 L148.088334,121.875411 L147.86856,122.12596 L147.081892,122.647937 L146.800499,122.761612 L146.560185,122.965763 L146.100098,123.73597 L145.839245,124.076995 L144.631514,125.009594 L142.762408,125.983952 L142.158543,126.505929 L141.497167,126.756479 L140.911788,126.756479 L141.117184,127.076625 L141.817585,126.823756 L143.688745,125.847078 L145.676981,124.41802 L146.260307,123.851965 L146.560185,123.689572 L147.704243,122.422907 L149.452165,121.216559 L149.733558,121.079685 L149.934847,120.787378 L150.579791,120.198123 L150.540766,120.017171 L150.218293,120.174924 L150.218293,120.174924 Z M166.534975,105.898264 L165.972189,105.988741 L165.567558,106.195212 L165.707228,106.46664 L165.748307,106.647592 L165.347784,106.69399 L165.004772,106.624393 L164.784998,106.740388 L164.764459,107.396919 L164.343396,107.352841 L164.002438,107.691547 L163.396519,108.621826 L162.714604,109.211081 L162.314081,109.438431 L162.094307,109.327076 L161.934098,109.053327 L161.026246,108.143927 L160.726368,108.123048 L160.584644,108.52903 L160.584644,109.120605 L160.685288,109.644902 L159.742519,108.962851 L159.422101,108.870055 L159.280378,109.099725 L159.261892,109.438431 L159.300917,109.596184 L159.081143,109.758577 L158.614894,110.234156 L158.35404,110.324632 L158.193831,110.14368 L158.033622,109.825854 L157.813848,109.668101 L157.532455,109.91633 L157.873413,110.415108 L157.633099,110.84429 L157.170958,111.254912 L156.2857,112.572615 L156.024847,113.069073 L156.043332,113.410098 L156.164516,113.774322 L155.903663,114.136227 L155.4826,114.454053 L155.082078,114.683723 L154.619936,114.727801 L154.153686,114.635005 L153.753164,114.683723 L153.412206,115.159302 L153.210917,115.045627 L152.991143,115.022428 L152.771369,115.068826 L152.549541,115.159302 L152.670725,114.727801 L152.950064,114.249902 L153.291022,113.82072 L153.753164,113.477375 L153.874347,113.273224 L154.055096,112.820844 L154.094121,112.68397 L154.135201,112.298866 L154.215305,112.138793 L154.29541,112.092395 L154.535723,112.071516 L154.640476,112.025118 L155.082078,111.319869 L155.260772,111.210834 L155.342931,111.389466 L155.583245,111.686413 L155.823558,111.869685 L155.844098,111.572738 L155.722914,111.210834 L155.583245,110.937086 L155.562705,110.640139 L155.702374,110.255035 L155.862583,110.097282 L156.304185,109.983607 L156.484934,109.802655 L156.304185,109.758577 L156.123437,109.68898 L155.963228,109.552106 L155.803019,109.350275 L156.85054,107.510594 L157.532455,106.763587 L157.953518,107.239166 L158.193831,107.032695 L158.454685,106.717189 L158.655973,106.327446 L158.694998,105.965542 L158.51425,105.738191 L158.214371,105.670914 L157.893953,105.717312 L157.633099,105.828668 L156.686223,106.740388 L156.445909,107.099972 L156.104951,107.895698 L155.862583,108.257602 L155.001973,108.802778 L154.619936,109.143804 L154.41454,110.006806 L153.352641,110.913887 L152.389332,112.663091 L151.984702,112.978597 L149.53227,114.29862 L146.319872,115.022428 L142.881538,115.996786 L143.062287,116.270534 L143.041747,116.495564 L142.881538,116.634758 L142.620685,116.702035 L142.600145,116.064063 L142.279727,116.019985 L141.858664,116.293733 L141.538246,116.565161 L141.737481,117.040741 L141.618351,117.565038 L141.297933,117.994219 L140.4517,118.562594 L140.229872,118.629872 L140.049123,118.606673 L139.586981,118.469798 L139.387747,118.469798 L138.966685,118.516196 L137.056499,118.267967 L136.635437,118.402521 L136.491659,118.67395 L136.976395,119.13097 L137.157143,118.653071 L137.498101,118.745866 L137.779494,119.13097 L137.800034,119.539272 L137.537126,119.629748 L137.157143,119.560151 L136.756621,119.560151 L136.551224,119.903496 L136.249292,119.743423 L136.029518,119.58335 L136.109622,118.991776 L135.68856,118.720348 L135.166853,118.859542 L134.986105,119.448796 L135.107288,119.743423 L135.54889,120.128526 L135.628995,120.355877 L135.489325,120.51363 L134.906,120.379076 L134.624607,120.423154 L134.645147,120.265401 L134.706766,120.174924 L133.5586,120.151725 L132.515187,120.808257 L132.009912,121.924128 L132.595292,123.306788 L132.313899,123.418144 L131.888728,123.102637 L131.387562,122.603859 L130.906934,122.262834 L130.68716,122.557461 L130.545437,122.965763 L130.586516,123.283589 L131.286917,123.397264 L131.44918,123.73597 L131.387562,124.100194 L131.208867,124.327544 L131.007578,124.19067 L130.767265,123.851965 L130.506411,123.601416 L130.204479,123.73597 L130.124374,124.053796 L130.344148,124.828642 L130.364688,125.190547 L129.799848,124.942317 L129.097393,124.919118 L128.557201,125.213746 L128.475042,125.916675 L127.448061,125.916675 L126.987973,126.461851 L126.505292,128.57064 L126.445727,128.728393 L126.264978,128.934864 L126.184874,129.069418 L126.164334,129.162214 L126.145848,129.410443 L126.145848,129.526438 L125.722732,130.456718 L125.663167,130.728146 L125.884995,131.384678 L126.626476,131.976252 L126.647015,132.591025 L126.987973,132.521428 L127.994415,131.999451 L128.095059,131.885776 L128.294293,131.588829 L128.456556,131.454275 L128.71741,131.384678 L128.916644,131.431076 L129.097393,131.384678 L129.237062,131.022773 L128.916644,130.704947 L128.756435,130.614471 L128.557201,130.568073 L128.516121,130.363922 L128.996749,129.774668 L129.278142,129.549637 L129.719744,129.389564 L130.144914,129.343166 L130.726185,129.389564 L131.167788,129.549637 L131.208867,129.844264 L131.348536,130.002018 L131.387562,130.092494 L131.428641,130.206169 L131.046604,130.343043 L128.557201,132.224481 L128.234728,132.591025 L128.957723,132.544627 L131.627875,130.795423 L135.308577,129.795547 L135.267497,129.593715 L134.686226,129.616914 L133.197103,130.229368 L132.716476,130.069295 L132.737015,129.593715 L133.258722,129.299088 L134.404833,128.981262 L136.43004,127.552204 L138.479895,126.800557 L138.88658,126.505929 L139.527417,125.779801 L140.751578,125.076872 L140.952867,124.895919 L141.176749,124.487617 L141.336958,124.304345 L141.698455,124.19067 L142.661764,124.260267 L143.142391,124.213869 L143.407352,124.007398 L143.347788,123.712771 L143.201956,123.397264 L143.263575,123.102637 L143.507997,122.965763 L143.76885,122.988962 L144.048189,123.056239 L144.290556,123.056239 L144.53087,122.965763 L145.352455,122.466985 L145.553744,122.12596 L145.75914,122.014605 L147.042867,121.580783 L147.44339,121.309355 L147.86856,120.831456 L148.108874,120.717781 L148.65112,120.898733 L148.911973,120.898733 L149.312496,120.694582 L149.552809,120.355877 L149.552809,119.947574 L149.252931,119.516073 L149.973872,119.356 L152.144911,118.358443 L152.629646,118.244768 L152.510516,118.539395 L152.16545,118.836343 L151.222681,119.404718 L151.101497,119.471995 L151.060418,119.58335 L151.140523,119.743423 L151.282246,119.81302 L151.362351,119.743423 L151.421916,119.606549 L151.52256,119.516073 L151.723848,119.427917 L153.592954,117.882864 L154.800685,117.247212 L155.462061,116.472365 L155.642809,116.177738 L155.583245,115.90631 L155.381956,115.658081 L155.260772,115.384332 L155.281312,115.112904 L155.50314,114.955151 L156.043332,114.864675 L156.304185,114.97835 L156.365804,115.293856 L156.224081,115.839033 L156.606118,115.658081 L157.212037,115.001549 L157.852874,114.635005 L158.855207,113.797521 L160.424435,111.846486 L161.591086,111.094839 L162.874813,109.849053 L164.162648,109.076526 L166.253582,106.763587 L166.574,106.510718 L166.814314,106.23929 L166.896472,105.919144 L166.534975,105.898264 L166.534975,105.898264 Z M162.373646,101.495096 L162.634499,101.40462 L162.895352,101.17727 L163.316415,100.564816 L163.622455,100.223791 L163.68202,100.200592 L163.741585,100.133315 L163.782664,99.9987607 L162.233976,100.678491 L161.952583,100.949919 L161.913558,101.335023 L162.094307,101.495096 L162.373646,101.495096 L162.373646,101.495096 Z M62.0437201,36.0855365 L62.2039292,36.1528136 L62.6496391,35.9254635 L63.2699359,35.1088589 L63.6725126,34.7237557 L63.651973,34.6100806 L63.5903541,34.5196045 L63.4506847,34.3850504 L63.3315548,34.3850504 L63.210371,34.5196045 L63.0296223,34.6332796 L62.7893086,34.5428035 L62.6085599,34.8142317 L62.1443642,35.1088589 L61.9636155,35.3570882 L61.9225363,35.5844383 L61.9430759,35.8605063 L62.0437201,36.0855365 L62.0437201,36.0855365 Z M64.0134705,33.7238791 L64.093575,33.9976272 L64.1326003,34.3386524 L64.3338887,34.5660025 L64.4940978,34.4732065 L64.9603474,33.7934761 L65.2807656,33.542927 L65.6422631,33.0882267 L65.9421417,32.5221713 L66.1228904,31.9329169 L66.1639696,31.8633199 L66.1639696,31.7751637 L66.14343,31.6150907 L65.8825767,31.7055668 L65.7223676,31.8865189 L65.4615143,32.4084962 L65.2807656,32.000194 L65.0794772,32.2507431 L64.7795987,33.2042217 L64.6193895,33.0650277 L64.6584148,32.9977506 L64.6789545,32.9745516 L64.6994941,32.9513526 L64.7179798,32.8167985 L64.4735582,32.8840756 L64.2928094,32.9745516 L64.1736796,33.1555038 L64.1141147,33.3851738 L64.0524958,33.3619748 L63.9723912,33.3851738 L63.8512074,33.4083728 L63.7115379,33.4756499 L63.7526172,33.703 L64.0134705,33.7238791 L64.0134705,33.7238791 Z M62.103285,43.9383955 L62.2244688,43.2331461 L62.2244688,42.8921209 L62.0026408,42.9153199 L61.6822226,43.165869 L61.4419089,43.441937 L61.160516,43.8687985 L61.1009511,44.2121436 L61.3412648,45.1401033 L61.9225363,44.3698967 L62.103285,43.9383955 L62.103285,43.9383955 Z M126.184874,120.128526 L126.045204,119.356 L125.219511,116.931705 L125.018223,115.634882 L124.876499,115.112904 L124.59716,114.658204 L124.215123,114.342698 L123.8146,114.092149 L123.494182,113.774322 L123.132685,112.820844 L122.988907,112.616693 L122.867723,112.368463 L122.847184,111.934642 L122.908803,111.663214 L123.069012,111.389466 L123.372998,110.957965 L123.533207,111.52634 L123.473642,112.048317 L123.512668,112.572615 L123.974809,113.115471 L124.777909,113.59105 L125.077788,113.841599 L125.381774,114.226703 L125.80489,115.182501 L126.125309,116.270534 L126.626476,118.67395 L126.68604,119.288723 L126.647015,120.560028 L126.747659,121.831332 L126.505292,123.146715 L126.546371,123.805567 L126.505292,124.260267 L125.823376,126.846955 L125.784351,127.438529 L125.843916,128.071861 L125.965099,128.707514 L126.365622,128.185537 L126.647015,126.278579 L126.907868,125.485174 L127.388496,125.009594 L128.095059,124.64537 L128.83654,124.41802 L129.45889,124.371622 L129.317167,124.123393 L128.916644,123.622295 L128.797514,123.397264 L128.857079,123.102637 L129.076853,122.988962 L129.317167,122.942564 L129.399325,122.784811 L129.399325,122.239635 L129.559535,121.694458 L130.225019,120.379076 L130.385228,120.151725 L130.605002,120.017171 L131.046604,119.903496 L131.087683,119.766622 L131.369076,118.968577 L131.408101,118.653071 L131.327997,118.539395 L131.087683,118.402521 L131.247892,118.154292 L131.307457,118.084695 L131.188327,117.882864 L131.028118,117.655514 L130.948013,117.565038 L130.886395,117.541839 L130.767265,117.497761 L130.68716,117.428164 L130.003191,116.702035 L129.358246,115.973587 L129.198037,115.815834 L129.438351,115.521207 L130.183939,114.683723 L131.147248,113.59105 L132.174229,112.435741 L133.016354,111.482262 L133.277207,111.141237 L132.876685,110.732935 L132.494648,110.301433 L132.094125,109.849053 L131.56831,109.211081 L131.488206,108.668224 L131.268432,107.283244 L131.067143,105.898264 L130.847369,104.536484 L130.625541,103.151504 L130.426307,101.789723 L130.204479,100.404743 L130.003191,99.0429622 L129.559535,96.2962015 L129.358246,94.9135416 L129.138472,93.5517607 L128.916644,92.1691008 L128.71741,90.805 L128.495582,89.4200202 L128.275808,88.0582393 L128.074519,86.6964584 L127.388496,86.1280831 L127.388496,85.5620277 L127.429575,84.404398 L127.48914,82.1587355 L127.614432,77.6650907 L127.692482,75.4171083 L127.93485,66.4530176 L127.953336,65.7245693 L128.175164,65.1585139 L127.754101,64.4347053 L127.248826,63.5461839 L127.248826,62.4581511 L127.187207,61.9593728 L127.148182,61.6415466 L127.088617,61.4373955 L126.967433,60.8226222 L126.786685,59.8714635 L126.546371,58.6465567 L125.94456,55.5796499 L124.556081,48.5689144 L124.235663,46.9565844 L123.935784,45.5252065 L123.693417,44.3026196 L123.512668,43.3491411 L123.393538,42.7575668 L123.352459,42.5302166 L123.233329,41.8968841 L123.027933,41.715932 L122.808159,41.5558589 L122.686975,41.5117809 L122.467201,41.3053098 L121.966034,40.3518312 L121.84485,40.2149572 L121.70518,40.1012821 L121.542917,40.080403 L121.222499,40.080403 L121.08283,40.1244811 L120.941106,40.1708791 L120.817868,40.2613552 L120.717224,40.3518312 L120.63712,40.4631864 L120.577555,40.6232594 L120.557015,40.7833325 L120.577555,41.3285088 L120.557015,41.5117809 L120.435831,41.7832091 L120.255083,42.0314383 L120.055848,42.1915113 L119.994229,42.2355894 L119.934664,42.2355894 L119.875099,42.1683123 L119.673811,41.9200831 L119.513602,41.623136 L119.394472,41.2821108 L119.252749,40.6464584 L119.213723,40.3077531 L119.213723,40.034005 L119.614246,36.881262 L119.614246,36.6539118 L119.534142,36.811665 L119.353393,35.9045844 L119.273288,35.6517154 L119.072,35.4266851 L118.5277,35.0415819 L118.367491,34.7469547 L118.346951,34.4059295 L118.406516,33.8166751 L118.385976,33.4524509 L118.266847,33.1323048 L118.086098,32.8608766 L117.74514,32.4757733 L117.463747,32.000194 L117.262459,31.5014156 L116.921501,29.9795617 L116.903015,29.3903073 L116.841396,29.051602 L116.822911,29.005204 L116.642162,28.8474509 L116.500438,28.9124081 L116.317636,29.2093552 L116.256017,29.5271814 L115.894519,28.3463526 L115.935599,25.2353678 L115.535076,24.2842091 L115.976678,23.8086297 L116.98312,21.7879975 L116.701727,21.4469723 L116.500438,21.1523451 L116.360769,20.7649219 L116.116347,19.9483174 L115.75485,18.9971587 L115.61518,18.7906877 L115.493997,18.6561335 L115.413892,18.5633375 L115.11196,16.9742065 L115.013369,16.6587003 L114.791541,16.7259773 L114.711437,17.2479547 L114.731976,17.9044861 L114.832621,18.4055844 L114.631332,18.0645592 L114.530688,17.677136 L114.512202,17.2711537 L114.571767,16.8860504 L114.571767,16.4777481 L114.391019,16.1158438 L113.906283,15.5242695 L114.169191,15.0904484 L114.21027,14.59167 L114.006927,14.2065668 L113.544786,14.1392897 L113.343497,13.9351385 L113.082644,13.4340403 L112.88341,12.842466 L112.821791,12.4573627 L112.702661,12.4805617 L112.702661,12.2532116 L112.641042,11.9817834 L112.521912,11.7544332 L112.341164,11.529403 L112.581477,11.1674987 L112.560938,10.7336776 L112.300084,9.98435013 L112.281599,9.37189673 L112.441808,9.07726952 L112.682121,9.07726952 L112.963514,9.50877078 L113.082644,9.62244584 L113.224368,9.62244584 L113.283933,9.39509572 L113.224368,9.10046851 L113.103184,8.91951637 L112.963514,8.80584131 L112.641042,8.48801511 L112.501373,8.41841814 L112.441808,8.32794207 L112.421268,7.96603778 L112.501373,7.66909068 L112.622556,7.6018136 L112.741686,7.57861461 L112.86287,7.41854156 L112.982,6.83160705 L112.922435,6.46738287 L112.682121,6.21683375 L112.341164,5.99180353 L112.180954,5.67397733 L112.08031,5.1496801 L112.039231,4.60450378 L112.10085,3.76702015 L111.920101,2.72074559 L111.879022,2.26836524 L111.940641,2.19876826 L112.039231,2.17788917 L112.139875,2.06421411 L112.201494,1.74638791 L112.160415,1.4749597 L112.059771,1.20121159 L111.839997,0.79290932 L111.879022,0.565559194 L111.133433,0.79290932 L109.223248,1.33808564 L107.294577,1.88326196 L105.388499,2.4029194 L103.459828,2.95041562 L101.549642,3.49559194 L99.6209713,4.01756927 L97.7107858,4.56042569 L95.7800607,5.08240302 L93.8760371,5.62757935 L91.945312,6.14955668 L90.0351265,6.67153401 L88.1064553,7.19351134 L86.1777841,7.71316877 L85.855312,7.75956675 L85.2945801,7.9196398 L82.7825835,8.23746599 L82.4375177,8.35114106 L82.1376391,8.55761209 L81.535828,9.23734257 L80.4924148,9.98435013 L80.206914,10.2557783 L79.5065126,11.1860579 L79.2045801,11.438927 L78.2412715,12.0049824 L75.8709983,14.477995 L74.7639123,16.1831209 L72.9749106,18.9275617 L71.0647251,21.8552746 L69.1586476,24.7597884 L68.413059,26.5994685 L67.8708128,27.6643023 L68.2117707,28.0262065 L68.4335987,28.5273048 L68.5732681,29.028403 L68.4541383,29.4807834 L67.3696459,30.6848111 L67.3696459,30.800806 L67.3901855,30.9794383 L67.3901855,31.1603904 L67.3511602,31.3204635 L67.2895413,31.3877406 L66.3426644,32.09067 L66.2830995,32.3180202 L66.14343,32.6335264 L64.0730354,35.6517154 L61.7828668,37.5145945 L58.9093727,41.0106826 L58.8087285,41.4653829 L59.0305565,42.0778363 L59.3304351,42.2147103 L59.7124722,42.2355894 L60.1171029,42.5070176 L60.277312,42.8016448 L60.277312,43.052194 L60.2382867,43.2563451 L60.3183912,43.4836952 L60.49914,43.5973703 L60.6798887,43.5973703 L60.7990185,43.418738 L60.7990185,43.073073 L60.8996627,42.6438917 L62.0437201,41.646335 L62.2840337,41.9873602 L63.0501619,41.646335 L63.3911197,41.8968841 L63.2699359,42.0778363 L63.2309106,42.1915113 L63.2309106,42.5766146 L63.3315548,42.3724635 L63.4712243,42.1915113 L63.6314334,42.0778363 L63.8121821,42.0105592 L63.7711029,42.4165416 L63.6314334,42.8503627 L63.4116594,43.2331461 L62.9495177,43.6437683 L62.6886644,44.0520705 L62.5489949,44.4603728 L62.6886644,44.5740479 L63.9128263,44.2794207 L64.2537841,44.0520705 L64.6789545,43.3932191 L64.9788331,43.1867481 L65.3197909,43.1867481 L65.5005396,43.3932191 L65.5210793,43.7342443 L65.3608702,44.1448665 L65.1000169,44.3930957 L64.4735582,44.6645239 L64.2743238,45.0264282 L64.2127049,45.4811285 L64.2537841,45.8430327 L64.2537841,46.2304559 L64.0319562,46.7547531 L63.3315548,47.7499899 L63.1898314,48.2046902 L62.5695346,47.933262 L62.6496391,47.7267909 L62.709204,47.0934584 L61.8424317,47.840466 L61.6226577,48.1582922 L61.4809342,48.6825894 L61.6411433,48.8635416 L61.9636155,48.9308186 L62.323059,49.1813678 L62.4688904,49.2950428 L62.768769,49.4319169 L62.8899528,49.5455919 L62.990597,49.7497431 L63.0296223,49.9747733 L63.1097268,50.1789244 L63.4712243,50.6777028 L63.8121821,51.4270302 L64.0134705,51.7703753 L63.9333659,52.3805088 L64.0319562,53.0370403 L64.2537841,53.7190907 L64.5146374,54.380262 L64.5988499,53.9232418 L64.7385194,53.6100554 L64.9398078,53.4708615 L65.2212007,53.5636574 L64.6378752,55.0808715 L64.6584148,55.760602 L65.2807656,56.059869 L64.9788331,56.5331285 L64.3934536,57.7371562 L64.0319562,58.0573023 L62.768769,58.6697557 L62.2429545,58.6906348 L61.3618044,58.5560806 L61.0208465,58.6906348 L60.217747,60.0756146 L59.8932209,60.4839169 L58.0467083,62.0730479 L57.4017639,62.8432544 L56.8595177,63.7549748 L56.3172715,65.7918463 L55.7770793,65.569136 L55.4710388,65.545937 L55.4114739,65.9055214 L55.3313693,66.0423955 L54.1688263,66.998194 L52.2175616,67.9493526 L52.137457,68.0653476 L52.0778921,68.3344559 L52.0984317,68.561806 L52.1579966,68.724199 L52.1579966,68.8819521 L52.1189713,69.0837834 L52.137457,69.1742594 L52.1189713,69.2438564 L51.9382226,69.3598514 L51.7574739,69.4271285 L51.5561855,69.4039295 L51.3754368,69.2902544 L51.194688,69.1069824 L51.2152277,68.9933073 L51.2768465,68.6801209 L43.5970793,70.0836599 L42.7344148,70.4919622 L40.4237066,72.0602141 L39.5179089,72.2643652 L38.6347049,72.0370151 L36.966887,70.9675416 L36.8457032,70.9443426 L36.3856155,70.9234635 L36.3239966,70.6079572 L35.7838044,70.4687632 L28.4449949,70.6311562 L26.1342867,71.5823149 L23.0225329,71.7841461 L17.0516627,74.1690025 L15.8891197,75.1456801 L13.8187251,76.0063627 L11.4484519,77.6650907 L10.1400776,78.210267 L10.3208263,78.7090453 L10.8671804,81.318932 L10.9062057,81.6367582 L10.9267454,82.0241814 L10.8856661,82.2956096 L10.8055616,82.5438388 L10.7665363,82.861665 L10.8466408,83.2954861 L10.8671804,83.2954861 L11.7483305,83.6991486 L14.0200135,83.4949975 L14.6608499,84.1329698 L14.6813895,84.7918212 L14.1206577,85.7429798 L14.0590388,86.4505491 L14.2007622,86.6964584 L14.6218246,86.9702065 L14.7409545,87.1302796 L15.1024519,88.4015844 L15.2873086,88.6938917 L15.8480405,89.4896171 L16.0287892,89.8306423 L16.1088938,90.0788715 L16.2300776,90.758602 L16.2896425,91.4893703 L16.1889983,92.0554257 L15.930199,92.4846071 L15.5892411,92.8929093 L14.159683,93.983262 L13.4983069,94.6653123 L13.0772445,95.525995 L12.8328229,96.7068237 L12.5925093,97.275199 L12.2104722,97.5907053 L12.1303676,97.7275793 L11.9290793,98.5905819 L11.7688702,99.0916801 L11.6887656,99.2285542 L11.4484519,99.4280655 L10.1996425,100.156514 L9.89976391,100.880322 L8.95699494,101.857 L8.04914334,102.518171 L7.84990894,102.699123 L7.74926476,102.924154 L7.63013491,103.24198 L7.46787184,103.538927 L6.9276796,103.991307 L6.20468465,105.580438 L5.19824283,106.489839 L4.93738954,106.986297 L4.65599663,107.396919 L3.36816189,108.257602 L2.08443508,109.893131 L1.55862057,110.301433 L1.21766273,110.753814 L0.997888702,110.890688 L1.01842833,110.957965 L1.15809781,111.800088 L1.43949073,113.523773 L1.5791602,114.389096 L1.72499157,115.249778 L2.00433052,116.973463 L2.14605396,117.813267 L2.30626307,118.836343 L3.04774368,118.67395 L5.77951433,118.084695 L8.53593255,117.51864 L11.2882428,116.931705 L14.0200135,116.36101 L16.7723238,115.771756 L19.5040944,115.159302 L22.2605126,114.567728 L24.9922833,113.952955 L27.7425396,113.3637 L30.4763642,112.753567 L33.2101889,112.138793 L35.9624992,111.52634 L38.6963238,110.913887 L41.4280944,110.278234 L44.1598651,109.668101 L46.9142293,109.030128 L49.648054,108.394476 L52.3798246,107.758824 L55.1115953,107.099972 L57.8433659,106.46664 L60.5792445,105.807788 L63.3110152,105.148937 L66.0427858,104.490086 L68.7745565,103.831234 L71.5104351,103.174703 L74.2422057,102.494972 L76.9534368,101.836121 L79.6852074,101.15639 L82.419032,100.47434 L85.1549106,99.7946096 L87.8661417,99.0916801 L90.5979123,98.4073098 L91.0395143,98.2936348 L91.279828,98.2263577 L91.3599325,98.6369798 L91.9268263,98.9084081 L92.606688,99.0661612 L93.0893693,99.2935113 L93.329683,99.7946096 L93.5104317,100.518418 L93.7507454,101.133191 L94.1553761,101.335023 L95.2193288,100.836244 L95.4801821,100.880322 L96.0224283,101.17727 L96.6078078,101.244547 L97.0083305,101.724766 L97.2096189,101.789723 L97.4910118,101.836121 L97.4704722,102.133068 L97.1295143,102.880076 L97.6101417,103.037829 L97.9716391,103.084227 L98.2715177,103.288378 L98.4974536,103.898511 L98.4974536,104.197778 L98.2715177,104.513285 L98.2509781,104.810232 L98.7583069,105.828668 L98.8774368,106.443441 L99.0581855,107.986174 L99.1793693,108.280801 L99.4997875,108.484952 L101.007396,110.619259 L101.348354,111.004363 L101.769417,111.254912 L102.712185,111.278111 L103.038766,111.482262 L103.299619,111.75601 L103.640577,111.957841 L104.141744,111.957841 L105.107106,111.616816 L105.569248,111.779209 L105.869126,111.98104 L106.090954,111.934642 L106.271703,111.779209 L106.472992,111.640015 L106.651686,111.709612 L106.79341,111.911443 L107.054263,112.345264 L107.294577,112.572615 L107.740287,113.115471 L107.960061,113.683846 L110.231744,114.500451 L112.501373,115.293856 L114.773056,116.110461 L117.063224,116.908506 L119.332853,117.722791 L121.625076,118.516196 L123.894705,119.311922 L126.184874,120.128526 L126.184874,120.128526 Z M12.2104722,85.9053728 L12.4302462,86.0376071 L12.771204,86.3786322 L13.1778887,86.6523804 L13.5188465,86.6523804 L14.2603272,84.6549471 L14.2603272,84.2675239 L14.0384992,84.0424937 L13.4983069,83.9543375 L13.1573491,83.8638615 L12.8328229,83.9752166 L12.5103508,84.1561688 L12.1509073,84.2675239 L12.2515514,84.6781461 L12.1509073,85.7197809 L12.2104722,85.9053728 L12.2104722,85.9053728 Z" id="Stroke-38" stroke="#F9F9F9" stroke-width="0.25" stroke-linecap="round" stroke-linejoin="round"></path>
            </g>
        </g>
    </g>
</svg>