<?xml version="1.0" encoding="UTF-8"?>
<svg width="39px" height="42px" viewBox="0 0 39 42" version="1.1" xmlns="http://www.w3.org/2000/svg" xmlns:xlink="http://www.w3.org/1999/xlink">
    <!-- Generator: Sketch 51 (57462) - http://www.bohemiancoding.com/sketch -->
    <title>Connecticut</title>
    <desc>Created with Sketch.</desc>
    <defs></defs>
    <g id="Page-1" stroke="none" stroke-width="1" fill="none" fill-rule="evenodd">
        <g id="A5" transform="translate(-1136.000000, -213.000000)">
            <g id="Connecticut" transform="translate(1137.000000, 214.000000)">
                <polygon id="Fill-88" fill="#D6D6D6" points="33.7923744 0.435297229 34.1744115 2.09402519 34.975457 5.4509194 35.3780337 7.13284635 35.7621248 8.8101335 36.1626476 10.4688615 36.965747 13.8257557 37.1670354 14.7119572 37.3868094 15.936864 37.688742 17.7533451 37.4463744 17.9134181 37.3868094 18.1825264 37.3477841 18.6186675 37.5079933 20.1358816 37.5285329 20.748335 36.8856425 21.0429622 36.8445632 20.8388111 37.1464958 20.678738 37.0869309 20.5233048 36.8651029 20.3841108 36.5652243 20.2936348 36.2838314 20.3168338 34.9959966 20.748335 34.8152479 20.8388111 33.7122698 21.9523627 32.5456189 21.2471134 32.3443305 21.4976625 32.3833558 22.2005919 32.264226 22.5880151 31.763059 22.6993703 31.0359562 22.5880151 30.4957639 22.6993703 30.5553288 23.5182947 29.9329781 23.2886247 28.8895649 24.4485743 28.1850556 24.3140202 28.0043069 24.2235441 27.7023744 24.1539471 27.5421653 24.08667 27.4415211 23.880199 27.4415211 23.6783678 27.4620607 23.4278186 27.4209815 23.1563904 27.2422867 22.8803224 27.001973 22.6784912 26.6589612 22.5416171 26.2748702 22.6088942 26.5993963 23.0195164 27.0204587 23.3118237 27.3223912 23.7247657 27.2607723 24.4717733 27.50314 24.5854484 27.5832445 24.6086474 27.3018516 25.1074257 26.8602496 25.1979018 25.9339123 25.0842267 25.5518752 25.2419798 25.1513524 25.5853249 24.8309342 26.0145063 24.6501855 26.4900856 24.510516 26.3764106 24.4304115 26.3555315 24.3687926 26.3091335 24.2845801 26.1745793 24.124371 26.2209773 23.9436223 26.4668866 23.0213929 26.2673753 22.5407656 26.2441763 21.4521653 26.8543098 21.3124958 27.1048589 21.2118516 27.3530882 21.0721821 27.5131612 20.8113288 27.5804383 20.5895008 27.5340403 20.3902664 27.4203652 20.1499528 27.3530882 19.8685599 27.3762872 19.1229713 27.6477154 18.921683 27.7845894 18.6608297 28.1488136 18.5006206 28.1488136 18.2787926 28.0815365 17.091602 28.4666398 16.8122631 28.4179219 16.5904351 28.1488136 16.3891467 27.4667632 16.2700169 27.3530882 16.1282934 27.6036373 16.0297032 27.9423426 16.0091636 28.1024156 15.4278921 29.0999723 15.101312 30.0534509 14.9616425 30.327199 14.7213288 30.4849521 14.158543 30.6914232 13.9798482 30.8932544 13.8175852 31.1670025 13.437602 31.5057078 13.2979325 31.7353778 13.1767487 32.0972821 13.1377234 32.2782343 13.051457 32.4151083 12.8111433 32.6192594 12.4701855 32.8002116 12.3099764 32.7329345 12.1703069 32.5519824 11.9094536 32.4383073 11.7677302 32.5287834 11.2275379 33.2781108 11.1268938 33.3013098 11.0262496 33.2317128 10.946145 33.1644358 10.9071197 33.1412368 10.8455008 33.2781108 10.8455008 33.572738 10.781828 33.6168161 10.7222631 33.7304912 10.5415143 34.1875113 10.4408702 34.3452645 10.2601214 34.3916625 9.9397032 34.2988665 9.75895447 34.2988665 9.59874536 34.4125416 9.43853626 34.7535668 9.29681282 34.8649219 9.03595953 34.978597 8.67651602 35.2291461 8.34993592 35.5469723 8.26983137 35.9088766 8.13016189 35.9993526 7.38868128 36.9087531 7.14631366 37.1129043 6.50547723 37.8599118 6.30008094 37.9295088 5.93858347 37.8831108 5.69826981 38.7020353 5.47849578 38.4955642 5.2176425 39.0198615 4.91570995 39.4072846 4.53572681 39.5418388 4.03045194 39.2936096 3.98937268 39.4281637 3.92980776 39.4745617 3.71003373 39.6787128 3.307457 40.0846952 3.18832715 39.882864 3.02811804 39.6555139 2.94801349 39.5650378 2.8863946 39.5418388 2.76726476 39.4977607 2.6871602 39.4281637 2.00319056 38.7020353 1.35824621 37.9735869 1.1980371 37.8158338 1.43835076 37.5212065 2.18393929 36.6837229 3.14724789 35.5910504 4.17422934 34.4357406 5.01635413 33.482262 5.27720742 33.1412368 4.87668465 32.7329345 4.49464755 32.3014332 4.09412479 31.8490529 3.56831029 31.2110806 3.48820573 30.6682242 3.2684317 29.2832443 3.06714334 27.8982645 2.84736931 26.5364836 2.62554132 25.1515038 2.42630691 23.7897229 2.20447892 22.4047431 2.00319056 21.0429622 1.55953457 18.2962015 1.35824621 16.9135416 1.13847218 15.5517607 0.916644182 14.1691008 0.717409781 12.805 0.495581788 11.4200202 0.275807757 10.0582393 0.0745193929 8.69645844 2.52489713 8.10488413 4.97732884 7.53882872 7.42770658 6.9727733 9.85959865 6.38119899 11.2275379 6.0633728 12.5112648 5.76874559 13.6183508 5.56459446 13.7990995 6.31392191 14.6412243 5.97521662 14.600145 5.29548615 17.3524553 4.54383879 17.8577302 4.56703778 18.1185835 4.54383879 18.2787926 4.49976071 18.6012648 4.18193451 19.6035987 3.93138539 22.5592513 3.13565995 25.5128499 2.34225441 28.4643946 1.57204786 31.4221012 0.776322418 33.6917302 0.117471033"></polygon>
                <polygon id="Stroke-89" stroke="#F9F9F9" stroke-width="0.25" stroke-linecap="round" stroke-linejoin="round" points="33.7923744 0.435297229 34.1744115 2.09402519 34.975457 5.4509194 35.3780337 7.13284635 35.7621248 8.8101335 36.1626476 10.4688615 36.965747 13.8257557 37.1670354 14.7119572 37.3868094 15.936864 37.688742 17.7533451 37.4463744 17.9134181 37.3868094 18.1825264 37.3477841 18.6186675 37.5079933 20.1358816 37.5285329 20.748335 36.8856425 21.0429622 36.8445632 20.8388111 37.1464958 20.678738 37.0869309 20.5233048 36.8651029 20.3841108 36.5652243 20.2936348 36.2838314 20.3168338 34.9959966 20.748335 34.8152479 20.8388111 33.7122698 21.9523627 32.5456189 21.2471134 32.3443305 21.4976625 32.3833558 22.2005919 32.264226 22.5880151 31.763059 22.6993703 31.0359562 22.5880151 30.4957639 22.6993703 30.5553288 23.5182947 29.9329781 23.2886247 28.8895649 24.4485743 28.1850556 24.3140202 28.0043069 24.2235441 27.7023744 24.1539471 27.5421653 24.08667 27.4415211 23.880199 27.4415211 23.6783678 27.4620607 23.4278186 27.4209815 23.1563904 27.2422867 22.8803224 27.001973 22.6784912 26.6589612 22.5416171 26.2748702 22.6088942 26.5993963 23.0195164 27.0204587 23.3118237 27.3223912 23.7247657 27.2607723 24.4717733 27.50314 24.5854484 27.5832445 24.6086474 27.3018516 25.1074257 26.8602496 25.1979018 25.9339123 25.0842267 25.5518752 25.2419798 25.1513524 25.5853249 24.8309342 26.0145063 24.6501855 26.4900856 24.510516 26.3764106 24.4304115 26.3555315 24.3687926 26.3091335 24.2845801 26.1745793 24.124371 26.2209773 23.9436223 26.4668866 23.0213929 26.2673753 22.5407656 26.2441763 21.4521653 26.8543098 21.3124958 27.1048589 21.2118516 27.3530882 21.0721821 27.5131612 20.8113288 27.5804383 20.5895008 27.5340403 20.3902664 27.4203652 20.1499528 27.3530882 19.8685599 27.3762872 19.1229713 27.6477154 18.921683 27.7845894 18.6608297 28.1488136 18.5006206 28.1488136 18.2787926 28.0815365 17.091602 28.4666398 16.8122631 28.4179219 16.5904351 28.1488136 16.3891467 27.4667632 16.2700169 27.3530882 16.1282934 27.6036373 16.0297032 27.9423426 16.0091636 28.1024156 15.4278921 29.0999723 15.101312 30.0534509 14.9616425 30.327199 14.7213288 30.4849521 14.158543 30.6914232 13.9798482 30.8932544 13.8175852 31.1670025 13.437602 31.5057078 13.2979325 31.7353778 13.1767487 32.0972821 13.1377234 32.2782343 13.051457 32.4151083 12.8111433 32.6192594 12.4701855 32.8002116 12.3099764 32.7329345 12.1703069 32.5519824 11.9094536 32.4383073 11.7677302 32.5287834 11.2275379 33.2781108 11.1268938 33.3013098 11.0262496 33.2317128 10.946145 33.1644358 10.9071197 33.1412368 10.8455008 33.2781108 10.8455008 33.572738 10.781828 33.6168161 10.7222631 33.7304912 10.5415143 34.1875113 10.4408702 34.3452645 10.2601214 34.3916625 9.9397032 34.2988665 9.75895447 34.2988665 9.59874536 34.4125416 9.43853626 34.7535668 9.29681282 34.8649219 9.03595953 34.978597 8.67651602 35.2291461 8.34993592 35.5469723 8.26983137 35.9088766 8.13016189 35.9993526 7.38868128 36.9087531 7.14631366 37.1129043 6.50547723 37.8599118 6.30008094 37.9295088 5.93858347 37.8831108 5.69826981 38.7020353 5.47849578 38.4955642 5.2176425 39.0198615 4.91570995 39.4072846 4.53572681 39.5418388 4.03045194 39.2936096 3.98937268 39.4281637 3.92980776 39.4745617 3.71003373 39.6787128 3.307457 40.0846952 3.18832715 39.882864 3.02811804 39.6555139 2.94801349 39.5650378 2.8863946 39.5418388 2.76726476 39.4977607 2.6871602 39.4281637 2.00319056 38.7020353 1.35824621 37.9735869 1.1980371 37.8158338 1.43835076 37.5212065 2.18393929 36.6837229 3.14724789 35.5910504 4.17422934 34.4357406 5.01635413 33.482262 5.27720742 33.1412368 4.87668465 32.7329345 4.49464755 32.3014332 4.09412479 31.8490529 3.56831029 31.2110806 3.48820573 30.6682242 3.2684317 29.2832443 3.06714334 27.8982645 2.84736931 26.5364836 2.62554132 25.1515038 2.42630691 23.7897229 2.20447892 22.4047431 2.00319056 21.0429622 1.55953457 18.2962015 1.35824621 16.9135416 1.13847218 15.5517607 0.916644182 14.1691008 0.717409781 12.805 0.495581788 11.4200202 0.275807757 10.0582393 0.0745193929 8.69645844 2.52489713 8.10488413 4.97732884 7.53882872 7.42770658 6.9727733 9.85959865 6.38119899 11.2275379 6.0633728 12.5112648 5.76874559 13.6183508 5.56459446 13.7990995 6.31392191 14.6412243 5.97521662 14.600145 5.29548615 17.3524553 4.54383879 17.8577302 4.56703778 18.1185835 4.54383879 18.2787926 4.49976071 18.6012648 4.18193451 19.6035987 3.93138539 22.5592513 3.13565995 25.5128499 2.34225441 28.4643946 1.57204786 31.4221012 0.776322418 33.6917302 0.117471033"></polygon>
            </g>
        </g>
    </g>
</svg>