<?xml version="1.0" encoding="UTF-8"?>
<svg width="111px" height="94px" viewBox="0 0 111 94" version="1.1" xmlns="http://www.w3.org/2000/svg" xmlns:xlink="http://www.w3.org/1999/xlink">
    <!-- Generator: Sketch 51 (57462) - http://www.bohemiancoding.com/sketch -->
    <title>South Carolina</title>
    <desc>Created with Sketch.</desc>
    <defs></defs>
    <g id="Page-1" stroke="none" stroke-width="1" fill="none" fill-rule="evenodd">
        <g id="A5" transform="translate(-967.000000, -464.000000)">
            <g id="South-Carolina" transform="translate(967.000000, 464.000000)">
                <path d="M97.4710388,55.5391662 L97.1711602,55.8801914 L97.0109511,56.3557708 L96.9904115,56.9241461 L97.0910556,57.5134005 L97.2512648,57.4670025 L97.4915784,56.1980176 L97.4320135,55.7201184 L97.512118,55.6760403 L97.5326577,55.6296423 L97.512118,55.5855642 L97.4710388,55.5391662 L97.4710388,55.5391662 Z M110.312415,28.145796 L110.152206,27.983403 L109.952971,27.892927 L109.731143,27.892927 L109.710604,27.6910957 L110.25285,27.3732695 L108.523413,26.0114887 L106.798084,24.6729068 L105.050162,23.3343249 L101.591288,20.6548413 L99.8864992,19.3162594 L98.1570624,17.9521587 L96.4296796,16.5926977 L94.7002428,15.251796 L91.2660169,12.5514332 L87.827683,9.82787154 L86.1187858,8.48928967 L84.4139966,7.12750882 L82.7050995,5.76572796 L81.8629747,5.10687657 L81.3967251,5.0395995 L80.7148094,5.0395995 L79.8932243,5.17415365 L79.6529106,5.22055164 L78.9463474,5.35742569 L77.861855,5.56157683 L76.47543,5.81212594 L74.8055582,6.10907305 L72.9610995,6.44777834 L70.9913491,6.78880353 L68.9414941,7.15070781 L66.8916391,7.51261209 L64.9218887,7.87451637 L63.0527825,8.19466247 L61.4034503,8.48928967 L59.9985396,8.74215869 L58.9119933,8.92311083 L58.2300776,9.03446599 L57.9897639,9.08086398 L57.1024519,9.23861713 L56.9217032,9.21773804 L56.7820337,9.08086398 L56.7019292,8.89991184 L56.6608499,8.69576071 L56.2603272,5.56157683 L56.2192479,5.38062469 L56.100118,5.22055164 L54.9355211,3.97476574 L53.4874772,2.42971285 L52.4810354,1.38807809 L52.4009309,1.31848111 L52.3208263,1.29528212 L52.2201821,1.29528212 L52.1010523,1.40895718 L50.5153929,3.22543829 L50.3962631,3.29271537 L50.2709713,3.31591436 L50.1107622,3.20223929 L50.010118,3.08856423 L49.9094739,2.95169018 L49.8499089,2.81481612 L49.8088297,2.70114106 L49.8088297,2.45059194 L49.8293693,2.31603778 L49.9710927,1.70358438 L50.010118,1.54583123 L49.9895784,1.36487909 L49.9710927,1.20480605 L49.9094739,1.07025189 L49.8499089,0.954256927 L49.7698044,0.863780856 L49.6691602,0.773304786 L49.5479764,0.682828715 L49.3692816,0.63643073 L49.0878887,0.63643073 L47.7199494,0.817382872 L46.5758921,0.977455919 L45.1874132,1.16072796 L43.5586206,1.36487909 L41.7737268,1.61310831 L39.8635413,1.86365743 L37.8547656,2.11188665 L35.8459899,2.38331486 L33.8351602,2.65474307 L31.8654098,2.8844131 L30.0353288,3.13496222 L28.3510793,3.33679345 L26.8640101,3.51774559 L25.6193086,3.68013854 L24.6724317,3.7938136 L24.0706206,3.86109068 L23.8693322,3.90516877 L22.2816189,4.08844081 L20.6528263,4.56402015 L20.5521821,4.54082116 L20.4720776,4.49442317 L20.4125126,4.4271461 L20.2707892,4.26939295 L20.2112243,4.17891688 L20.1105801,4.1093199 L19.9709106,4.13251889 L19.8107015,4.22299496 L19.5293086,4.51762217 L19.4101788,4.69857431 L19.3300742,4.87952645 L19.2684553,5.35742569 L19.1678111,5.49429975 L19.007602,5.60797481 L18.2209342,5.74484887 L18.0812648,5.83532494 L17.9415953,6.03715617 L17.8614907,6.17635013 L17.7608465,6.2668262 L17.6006374,6.33410327 L16.7975379,6.49417632 L16.6578685,6.5614534 L15.5898078,7.1739068 L14.9078921,7.71676322 L14.7271433,7.85363728 L14.5463946,7.92323426 L14.301973,7.94643325 L14.1027386,7.99051134 L13.9815548,8.15058438 L13.9425295,8.33153652 L13.9014503,8.67256171 L13.7617808,8.89991184 L13.5604924,9.12494207 L13.0778111,9.53324433 L12.8580371,9.76059446 L12.6772884,9.91834761 L12.5766442,9.96474559 L12.3979494,9.91834761 L12.2973052,9.82787154 L12.1761214,9.60284131 L11.4900978,9.89746851 L5.40420573,13.4376348 L4.99957504,13.5049118 L5.02011467,13.5513098 L5.0406543,13.915534 L4.95849578,14.3006373 L4.81882631,14.6625416 L4.59905228,14.9803678 L4.03626644,15.274995 L3.77541315,15.504665 L2.98874536,16.3885466 L2.78951096,16.7527708 L2.64778752,17.2283501 L2.44855312,18.2259068 L2.28834401,18.703806 L2.04597639,19.0448312 L1.74609781,19.3394584 L1.48524452,19.7013627 L1.36406071,20.1537431 L1.30449578,20.3370151 L1.28395616,20.5643652 L1.30449578,20.8149144 L1.30449578,21.0631436 L1.24493086,21.3368917 L0.942998314,21.9261461 L0.903973019,23.241529 L1.74609781,24.2182065 L3.95616189,25.3526373 L4.73872175,25.6495844 L5.26042833,25.3735164 L5.42474536,25.3967154 L5.50484992,25.8073375 L5.72667791,26.1460428 L6.60782799,26.533466 L7.18909949,27.1459194 L7.69437437,27.4173476 L8.15651602,28.053 L8.55703879,28.4613023 L9.33959865,28.7814484 L10.3665801,28.5540982 L11.8906206,28.3035491 L12.917602,28.8046474 L13.2585599,29.5516549 L13.4803879,30.3450605 L13.9219899,31.2776599 L14.1623035,31.5050101 L15.7315312,33.4792443 L16.0108702,34.1380957 L16.7769983,36.6575063 L16.957747,37.0426096 L17.1384958,37.1562846 L17.5800978,37.6527431 L18.122344,37.7896171 L18.4427622,38.0401662 L18.7426408,38.3324736 L18.9685767,38.6085416 L19.3300742,39.4019471 L19.5703879,39.7870504 L20.1311197,40.0144005 L20.3714334,40.3090277 L20.7123912,41.1047531 L21.0533491,41.7868035 L21.3388499,42.5338111 L21.6592681,42.8284383 L22.0413052,42.8980353 L22.4829073,42.8284383 L22.9039696,43.1694635 L23.3640573,43.7355189 L23.990516,44.3270932 L24.7525363,44.7121965 L25.5145565,44.9627456 L26.4614334,45.4406448 L27.5253862,46.1435743 L28.7721417,47.0738539 L29.4951366,47.7767834 L29.9552243,49.0689673 L30.4009342,49.6164635 L30.6823272,50.249796 L31.1444688,51.0687204 L31.6641214,51.5442997 L32.2474469,51.8412469 L32.7527218,51.999 L33.8556998,52.1567531 L34.3363272,52.3377053 L34.8621417,52.6787305 L36.006199,53.8595592 L36.5279056,54.2678615 L37.5343474,54.7898388 L37.9348702,55.2654181 L37.8547656,55.9474685 L37.9944351,56.0820227 L38.2552884,56.4903249 L37.9143305,56.627199 L37.8958449,56.856869 L38.2552884,57.5574786 L37.9759494,57.8080277 L38.1957234,58.2186499 L39.3233491,59.3298816 L39.5431231,59.4876348 L39.604742,59.3298816 L39.7033322,59.1698086 L39.9456998,59.1466096 L40.2250388,59.2138866 L40.3873019,59.2834836 L40.4263272,59.4876348 L40.1449342,59.7381839 L40.5865363,60.0096121 L40.7878246,60.3274383 L40.767285,60.6475844 L40.4858921,60.9398917 L40.9274941,61.5523451 L41.3280169,61.8724912 L41.7552411,61.9629673 L42.2564081,61.8956902 L42.4371568,62.1207204 L42.757575,63.3015491 L42.9383238,63.6843325 L43.8441214,64.2991058 L45.9350556,64.8442821 L46.9373895,65.2757834 L47.6788702,65.8441587 L48.0403676,66.0251108 L48.5456425,66.0251108 L48.8660607,66.1805441 L49.2275582,66.6375642 L49.5294907,67.2059395 L49.6691602,67.7047179 L49.6486206,68.7672317 L49.7287251,69.358806 L50.0306577,69.5652771 L51.5177268,71.6067884 L51.8586847,72.4025139 L52.0004081,72.8548942 L52.0805126,73.2887154 L52.281801,73.7410957 L52.56114,74.103 L52.7870759,74.5600202 L52.8055616,74.9660025 L52.7049174,75.2165516 L52.7049174,75.5784559 L52.6658921,75.921801 L52.7459966,76.0563552 L52.8671804,76.1027531 L53.0273895,76.2837053 L53.167059,76.4878564 L53.2471636,76.6896877 L53.2677032,77.281262 L53.2081383,77.7568413 L53.2471636,78.2138615 L53.5490961,78.6662418 L53.8695143,78.93767 L54.331656,79.1882191 L54.8328229,79.3459723 L55.5188465,79.3691713 L55.7386206,79.4364484 L55.9583946,79.5756423 L56.159683,79.7333955 L56.5622597,80.1184987 L56.6813895,80.1834559 L56.7820337,80.1625768 L57.3078482,80.366728 L57.4475177,80.4595239 L57.5687015,80.7077531 L57.6693457,81.0278992 L57.8295548,81.2993275 L58.149973,81.3666045 L58.4909309,81.5243577 L58.6716796,82.0254559 L58.7908094,82.9557355 L59.8588702,85.294194 L60.2203676,85.361471 L60.5407858,85.6560982 L60.8016391,86.1571965 L60.9413086,86.76733 L60.9618482,87.1547531 L60.8406644,87.5862544 L60.8016391,87.8808816 L60.8221788,88.2195869 L60.9823879,88.9897935 L60.9618482,89.1962645 L60.8221788,89.7646398 L60.8221788,90.082466 L60.9228229,90.2842972 L61.4630152,91.1728186 L61.4835548,91.2632947 L61.4424755,91.3978489 L61.4630152,91.555602 L61.5636594,91.762073 L61.6868971,91.8734282 L61.9477504,91.9871033 L62.0894739,92.0775793 L62.8720337,92.8709849 L63.0918078,92.9637809 L64.3796425,92.5786776 L64.9013491,92.6250756 L65.8851973,92.9197028 L66.0638921,93.1238539 L66.289828,93.4880781 L66.6698111,93.7363073 L67.1114132,93.8267834 L67.5735548,93.7827053 L67.5920405,93.7827053 L67.3928061,93.374403 L67.3722664,93.0101788 L67.4729106,92.6459547 L68.2944958,91.0591436 L68.4403272,90.4443703 L68.3992479,89.6973627 L68.4793524,89.4676927 L68.9004148,88.7438841 L69.0215987,88.4028589 L69.001059,87.9481587 L68.9620337,87.5630554 L68.9620337,87.2011511 L69.1017032,86.881005 L69.3214772,88.0154358 L68.8408499,90.0383879 L68.7997707,91.1936977 L70.4860742,89.4908917 L71.050914,88.1755088 L71.5335953,87.3357053 L71.492516,87.0178791 L71.0919933,86.4935819 L70.8516796,86.2476725 L70.5456391,86.0435214 L70.1841417,86.0203224 L69.8041585,86.3149496 L68.9004148,85.0436448 L68.6806408,84.8394937 L68.3150354,84.7258186 L68.2554705,84.2943174 L68.3992479,83.5241108 L68.0747218,82.8188615 L67.4729106,81.7981058 L67.010769,80.7773501 L67.0723879,80.0512217 L67.0518482,79.8470705 L66.8320742,79.5524433 L66.3699325,78.7567179 L66.0454064,78.5316877 L66.0248668,78.3484156 L66.4500371,78.2579395 L66.6903508,78.4852897 L66.8505599,78.8448741 L67.1114132,79.1882191 L67.4934503,79.3459723 L67.7933288,79.3227733 L67.8734334,79.4596474 L67.6331197,80.0512217 L67.7543035,80.6845542 L68.1959056,81.7517078 L69.0215987,83.3199597 L70.7695211,84.5448665 L71.1104789,84.6817406 L71.3323069,84.5680655 L71.3528465,83.9996902 L71.2522024,83.705063 L70.9708094,83.2526826 L70.8701653,83.0230126 L70.5661788,80.9815013 L70.609312,80.5708791 L70.7510354,80.1625768 L70.609312,80.0952997 L70.5661788,80.0048237 L70.4265093,80.0744207 L70.3648904,80.1184987 L70.3258651,80.0744207 L70.2252209,79.8470705 L70.83114,79.7797935 L71.050914,80.2762519 L70.9708094,82.5242343 L71.1104789,82.6587884 L71.8540135,82.0950529 L71.8540135,84.0228892 L71.9546577,84.8186146 L72.213457,85.5865013 L72.4763642,85.6560982 L73.2815177,84.9995668 L73.4417268,84.9531688 L73.8032243,84.9531688 L74.0435379,84.8394937 L75.6928702,83.1598866 L75.8736189,82.6587884 L75.4114772,82.4569572 L75.4730961,82.4105592 L75.5511467,82.3896801 L75.5716863,82.3432821 L75.5511467,82.185529 L75.6928702,82.16233 L75.9927487,82.252806 L76.1550118,81.7076297 L76.2145767,80.9583023 L76.1940371,80.3458489 L76.033828,80.389927 L75.9742631,80.6613552 L75.8325396,80.9142242 L75.5511467,81.3434055 L75.3313727,81.7076297 L74.8260978,82.208728 L74.2653659,82.6147103 L73.8627892,82.7747834 L73.8032243,82.4569572 L74.1051568,81.8885819 L74.5652445,81.3225264 L75.4730961,80.6613552 L75.4915818,80.0744207 L75.1506239,79.5524433 L74.5447049,79.4132494 L72.435285,79.6429194 L72.9405599,79.2786952 L73.542371,78.984068 L74.203747,78.8031159 L74.8260978,78.7335189 L74.7870725,78.5084887 L74.4646003,78.4388917 L73.8627892,78.1651436 L73.542371,78.1442645 L73.3020573,78.2347406 L72.8994806,78.4388917 L72.6365734,78.5316877 L70.5867184,78.4852897 L70.2046813,78.8031159 L70.1841417,78.5989647 L70.1451164,78.4180126 L70.2847858,78.0746675 L70.4655346,77.8937154 L71.1720978,77.7568413 L72.8173221,77.7127632 L73.3616223,77.5318111 L73.1808735,77.281262 L73.0206644,77.0098338 L72.8994806,76.6896877 L72.8604553,76.3486625 L73.0206644,76.3045844 L73.2404384,76.6688086 L73.4417268,76.8497607 L74.4050354,77.5318111 L74.704914,77.5550101 L74.9863069,77.5086121 L75.4525565,77.5318111 L75.8325396,77.7127632 L76.0749073,77.9401134 L76.3152209,78.1210655 L76.7157437,78.1210655 L77.0156223,77.8705164 L77.1368061,77.394937 L77.1162664,76.8265617 L76.976597,76.3486625 L77.3175548,76.4878564 L77.4613322,76.7824836 L77.5414368,77.1235088 L77.7221855,77.394937 L78.0631433,77.5967683 L78.2233524,77.4854131 L78.3650759,77.281262 L78.6259292,77.1235088 L80.0328938,75.4647809 L80.2547218,75.2838287 L80.4334165,75.0773577 L80.5546003,74.7850504 L80.5956796,74.5136222 L80.5546003,74.4463451 L80.4149309,74.4208262 L79.2072007,73.5601436 L78.8662428,73.2423174 L79.186661,73.1054433 L79.6713963,73.3327935 L80.515575,74.0589219 L81.1358718,74.4695441 L81.4378044,74.3071511 L81.6986577,73.8988489 L82.1833929,73.6042217 L82.6640202,73.4232695 L83.6273288,72.8108161 L84.7754941,72.3352368 L84.9562428,72.0614887 L84.7344148,71.7877406 L84.173683,71.4931134 L84.1326037,71.3098413 L84.3133524,71.1080101 L84.5536661,71.0848111 L85.1369916,71.1080101 L85.6977234,70.9734559 L85.8990118,70.8133829 L87.0451231,69.474801 L87.3059764,68.8159496 L87.2258718,67.88567 L87.0862024,67.9297481 L87.0862024,68.1130202 L87.0266374,68.1362191 L86.66514,67.9761461 L86.4843912,67.725597 L86.2584553,67.5446448 L85.4368702,67.5191259 L85.0753727,67.2964156 L84.7754941,66.9345113 L84.615285,66.5238892 L84.9747285,66.7721184 L85.3177403,66.9113123 L85.5375143,66.8393955 L85.558054,66.4334131 L85.4368702,65.9578338 L85.0959123,65.2525844 L84.9747285,64.8442821 L85.0959123,64.7306071 L85.9791164,65.1621083 L85.9174975,65.0716322 L85.9174975,64.8442821 L85.9791164,64.616932 L86.1187858,64.5055768 L86.5850354,64.8210831 L86.1988904,65.6840856 L86.0777066,66.2037431 L86.2584553,66.3870151 L86.6856796,66.4542922 L86.9855582,66.7721184 L87.2464115,67.0922645 L87.5072648,67.2059395 L87.9878921,66.9785894 L88.6143508,66.5238892 L89.6967892,65.4567355 L89.9781821,64.8442821 L90.2184958,64.0949547 L90.538914,63.4152242 L91.1058078,63.027801 L91.2064519,62.9141259 L91.2454772,62.6867758 L91.3070961,62.4617456 L91.4673052,62.3248715 L91.648054,62.2343955 L92.6093086,61.3041159 L92.751032,61.0303678 L92.8311366,60.5547884 L92.6093086,60.6684635 L92.4100742,60.8494156 L92.2683508,61.0535668 L92.1882462,61.3273149 L91.8472884,60.8958136 L91.6665396,60.5779874 L91.648054,60.2137632 L91.9869578,58.7383073 L92.2087858,58.285927 L92.5086644,58.0585768 L93.1351231,57.3742065 L93.5171602,57.1514962 L93.7574739,57.4670025 L93.858118,57.6943526 L94.2586408,58.2186499 L94.3983103,58.5132771 L94.6797032,58.1954509 L95.080226,57.8985038 L95.5670152,57.6502746 L96.0681821,57.5134005 L96.6083744,57.2419723 L96.7090185,56.83367 L96.6494536,56.3325718 L96.7295582,55.7665164 L97.0910556,55.2213401 L97.9783676,54.5184106 L98.2577066,54.0405113 L98.2186813,53.4048589 L97.7770793,53.2471058 L97.2512648,53.2239068 L96.9513862,52.8596826 L97.4114739,52.8156045 L97.957828,52.8596826 L98.39943,53.0661537 L98.6397437,53.5394131 L98.7794132,53.4512569 L98.8595177,53.3607809 L98.9601619,53.2239068 L99.0197268,53.0429547 L98.7403879,52.8156045 L98.5185599,52.4977783 L98.4980202,52.2031511 L98.7794132,52.022199 L98.9807015,52.0894761 L99.2415548,52.5650554 L99.4613288,52.7460076 L99.561973,52.2263501 L99.781747,51.8853249 L100.067248,51.5883778 L100.307562,51.2705516 L99.9871433,51.2264736 L99.8228263,51.0895995 L99.5825126,50.5908212 L99.4613288,50.249796 L99.4407892,49.9110907 L99.342199,49.6605416 L98.5390995,49.5932645 L97.957828,49.3659144 L97.4320135,48.9784912 L97.1506206,48.4333149 L97.1115953,47.7976625 L97.1916998,47.117932 L97.3313693,46.4590806 L98.0769578,44.6449194 L98.4384553,44.0765441 L98.900597,43.7146398 L98.9211366,43.8955919 L98.7198482,44.2134181 L98.0974975,45.4406448 L97.736,46.9601788 L97.6764351,47.6863073 L97.7976189,47.9809345 L98.7198482,47.7976625 L99.0402664,47.9113375 L99.342199,48.2778816 L99.5414334,48.797539 L99.7427218,49.8878917 L100.007683,50.272995 L100.147352,50.249796 L100.028223,49.5468665 L100.028223,45.9139043 L100.147352,45.5543199 L99.948118,45.391927 L100.247997,44.0301461 L101.913761,40.0375995 L103.441909,36.3396801 L104.668125,34.1380957 L106.59885,31.414534 L108.665137,29.2802267 L109.531909,28.6654534 L110.433599,28.3940252 L110.312415,28.145796 L110.312415,28.145796 Z" id="Fill-21" fill="#D6D6D6"></path>
                <path d="M97.4710388,55.5391662 L97.1711602,55.8801914 L97.0109511,56.3557708 L96.9904115,56.9241461 L97.0910556,57.5134005 L97.2512648,57.4670025 L97.4915784,56.1980176 L97.4320135,55.7201184 L97.512118,55.6760403 L97.5326577,55.6296423 L97.512118,55.5855642 L97.4710388,55.5391662 L97.4710388,55.5391662 Z M110.312415,28.145796 L110.152206,27.983403 L109.952971,27.892927 L109.731143,27.892927 L109.710604,27.6910957 L110.25285,27.3732695 L108.523413,26.0114887 L106.798084,24.6729068 L105.050162,23.3343249 L101.591288,20.6548413 L99.8864992,19.3162594 L98.1570624,17.9521587 L96.4296796,16.5926977 L94.7002428,15.251796 L91.2660169,12.5514332 L87.827683,9.82787154 L86.1187858,8.48928967 L84.4139966,7.12750882 L82.7050995,5.76572796 L81.8629747,5.10687657 L81.3967251,5.0395995 L80.7148094,5.0395995 L79.8932243,5.17415365 L79.6529106,5.22055164 L78.9463474,5.35742569 L77.861855,5.56157683 L76.47543,5.81212594 L74.8055582,6.10907305 L72.9610995,6.44777834 L70.9913491,6.78880353 L68.9414941,7.15070781 L66.8916391,7.51261209 L64.9218887,7.87451637 L63.0527825,8.19466247 L61.4034503,8.48928967 L59.9985396,8.74215869 L58.9119933,8.92311083 L58.2300776,9.03446599 L57.9897639,9.08086398 L57.1024519,9.23861713 L56.9217032,9.21773804 L56.7820337,9.08086398 L56.7019292,8.89991184 L56.6608499,8.69576071 L56.2603272,5.56157683 L56.2192479,5.38062469 L56.100118,5.22055164 L54.9355211,3.97476574 L53.4874772,2.42971285 L52.4810354,1.38807809 L52.4009309,1.31848111 L52.3208263,1.29528212 L52.2201821,1.29528212 L52.1010523,1.40895718 L50.5153929,3.22543829 L50.3962631,3.29271537 L50.2709713,3.31591436 L50.1107622,3.20223929 L50.010118,3.08856423 L49.9094739,2.95169018 L49.8499089,2.81481612 L49.8088297,2.70114106 L49.8088297,2.45059194 L49.8293693,2.31603778 L49.9710927,1.70358438 L50.010118,1.54583123 L49.9895784,1.36487909 L49.9710927,1.20480605 L49.9094739,1.07025189 L49.8499089,0.954256927 L49.7698044,0.863780856 L49.6691602,0.773304786 L49.5479764,0.682828715 L49.3692816,0.63643073 L49.0878887,0.63643073 L47.7199494,0.817382872 L46.5758921,0.977455919 L45.1874132,1.16072796 L43.5586206,1.36487909 L41.7737268,1.61310831 L39.8635413,1.86365743 L37.8547656,2.11188665 L35.8459899,2.38331486 L33.8351602,2.65474307 L31.8654098,2.8844131 L30.0353288,3.13496222 L28.3510793,3.33679345 L26.8640101,3.51774559 L25.6193086,3.68013854 L24.6724317,3.7938136 L24.0706206,3.86109068 L23.8693322,3.90516877 L22.2816189,4.08844081 L20.6528263,4.56402015 L20.5521821,4.54082116 L20.4720776,4.49442317 L20.4125126,4.4271461 L20.2707892,4.26939295 L20.2112243,4.17891688 L20.1105801,4.1093199 L19.9709106,4.13251889 L19.8107015,4.22299496 L19.5293086,4.51762217 L19.4101788,4.69857431 L19.3300742,4.87952645 L19.2684553,5.35742569 L19.1678111,5.49429975 L19.007602,5.60797481 L18.2209342,5.74484887 L18.0812648,5.83532494 L17.9415953,6.03715617 L17.8614907,6.17635013 L17.7608465,6.2668262 L17.6006374,6.33410327 L16.7975379,6.49417632 L16.6578685,6.5614534 L15.5898078,7.1739068 L14.9078921,7.71676322 L14.7271433,7.85363728 L14.5463946,7.92323426 L14.301973,7.94643325 L14.1027386,7.99051134 L13.9815548,8.15058438 L13.9425295,8.33153652 L13.9014503,8.67256171 L13.7617808,8.89991184 L13.5604924,9.12494207 L13.0778111,9.53324433 L12.8580371,9.76059446 L12.6772884,9.91834761 L12.5766442,9.96474559 L12.3979494,9.91834761 L12.2973052,9.82787154 L12.1761214,9.60284131 L11.4900978,9.89746851 L5.40420573,13.4376348 L4.99957504,13.5049118 L5.02011467,13.5513098 L5.0406543,13.915534 L4.95849578,14.3006373 L4.81882631,14.6625416 L4.59905228,14.9803678 L4.03626644,15.274995 L3.77541315,15.504665 L2.98874536,16.3885466 L2.78951096,16.7527708 L2.64778752,17.2283501 L2.44855312,18.2259068 L2.28834401,18.703806 L2.04597639,19.0448312 L1.74609781,19.3394584 L1.48524452,19.7013627 L1.36406071,20.1537431 L1.30449578,20.3370151 L1.28395616,20.5643652 L1.30449578,20.8149144 L1.30449578,21.0631436 L1.24493086,21.3368917 L0.942998314,21.9261461 L0.903973019,23.241529 L1.74609781,24.2182065 L3.95616189,25.3526373 L4.73872175,25.6495844 L5.26042833,25.3735164 L5.42474536,25.3967154 L5.50484992,25.8073375 L5.72667791,26.1460428 L6.60782799,26.533466 L7.18909949,27.1459194 L7.69437437,27.4173476 L8.15651602,28.053 L8.55703879,28.4613023 L9.33959865,28.7814484 L10.3665801,28.5540982 L11.8906206,28.3035491 L12.917602,28.8046474 L13.2585599,29.5516549 L13.4803879,30.3450605 L13.9219899,31.2776599 L14.1623035,31.5050101 L15.7315312,33.4792443 L16.0108702,34.1380957 L16.7769983,36.6575063 L16.957747,37.0426096 L17.1384958,37.1562846 L17.5800978,37.6527431 L18.122344,37.7896171 L18.4427622,38.0401662 L18.7426408,38.3324736 L18.9685767,38.6085416 L19.3300742,39.4019471 L19.5703879,39.7870504 L20.1311197,40.0144005 L20.3714334,40.3090277 L20.7123912,41.1047531 L21.0533491,41.7868035 L21.3388499,42.5338111 L21.6592681,42.8284383 L22.0413052,42.8980353 L22.4829073,42.8284383 L22.9039696,43.1694635 L23.3640573,43.7355189 L23.990516,44.3270932 L24.7525363,44.7121965 L25.5145565,44.9627456 L26.4614334,45.4406448 L27.5253862,46.1435743 L28.7721417,47.0738539 L29.4951366,47.7767834 L29.9552243,49.0689673 L30.4009342,49.6164635 L30.6823272,50.249796 L31.1444688,51.0687204 L31.6641214,51.5442997 L32.2474469,51.8412469 L32.7527218,51.999 L33.8556998,52.1567531 L34.3363272,52.3377053 L34.8621417,52.6787305 L36.006199,53.8595592 L36.5279056,54.2678615 L37.5343474,54.7898388 L37.9348702,55.2654181 L37.8547656,55.9474685 L37.9944351,56.0820227 L38.2552884,56.4903249 L37.9143305,56.627199 L37.8958449,56.856869 L38.2552884,57.5574786 L37.9759494,57.8080277 L38.1957234,58.2186499 L39.3233491,59.3298816 L39.5431231,59.4876348 L39.604742,59.3298816 L39.7033322,59.1698086 L39.9456998,59.1466096 L40.2250388,59.2138866 L40.3873019,59.2834836 L40.4263272,59.4876348 L40.1449342,59.7381839 L40.5865363,60.0096121 L40.7878246,60.3274383 L40.767285,60.6475844 L40.4858921,60.9398917 L40.9274941,61.5523451 L41.3280169,61.8724912 L41.7552411,61.9629673 L42.2564081,61.8956902 L42.4371568,62.1207204 L42.757575,63.3015491 L42.9383238,63.6843325 L43.8441214,64.2991058 L45.9350556,64.8442821 L46.9373895,65.2757834 L47.6788702,65.8441587 L48.0403676,66.0251108 L48.5456425,66.0251108 L48.8660607,66.1805441 L49.2275582,66.6375642 L49.5294907,67.2059395 L49.6691602,67.7047179 L49.6486206,68.7672317 L49.7287251,69.358806 L50.0306577,69.5652771 L51.5177268,71.6067884 L51.8586847,72.4025139 L52.0004081,72.8548942 L52.0805126,73.2887154 L52.281801,73.7410957 L52.56114,74.103 L52.7870759,74.5600202 L52.8055616,74.9660025 L52.7049174,75.2165516 L52.7049174,75.5784559 L52.6658921,75.921801 L52.7459966,76.0563552 L52.8671804,76.1027531 L53.0273895,76.2837053 L53.167059,76.4878564 L53.2471636,76.6896877 L53.2677032,77.281262 L53.2081383,77.7568413 L53.2471636,78.2138615 L53.5490961,78.6662418 L53.8695143,78.93767 L54.331656,79.1882191 L54.8328229,79.3459723 L55.5188465,79.3691713 L55.7386206,79.4364484 L55.9583946,79.5756423 L56.159683,79.7333955 L56.5622597,80.1184987 L56.6813895,80.1834559 L56.7820337,80.1625768 L57.3078482,80.366728 L57.4475177,80.4595239 L57.5687015,80.7077531 L57.6693457,81.0278992 L57.8295548,81.2993275 L58.149973,81.3666045 L58.4909309,81.5243577 L58.6716796,82.0254559 L58.7908094,82.9557355 L59.8588702,85.294194 L60.2203676,85.361471 L60.5407858,85.6560982 L60.8016391,86.1571965 L60.9413086,86.76733 L60.9618482,87.1547531 L60.8406644,87.5862544 L60.8016391,87.8808816 L60.8221788,88.2195869 L60.9823879,88.9897935 L60.9618482,89.1962645 L60.8221788,89.7646398 L60.8221788,90.082466 L60.9228229,90.2842972 L61.4630152,91.1728186 L61.4835548,91.2632947 L61.4424755,91.3978489 L61.4630152,91.555602 L61.5636594,91.762073 L61.6868971,91.8734282 L61.9477504,91.9871033 L62.0894739,92.0775793 L62.8720337,92.8709849 L63.0918078,92.9637809 L64.3796425,92.5786776 L64.9013491,92.6250756 L65.8851973,92.9197028 L66.0638921,93.1238539 L66.289828,93.4880781 L66.6698111,93.7363073 L67.1114132,93.8267834 L67.5735548,93.7827053 L67.5920405,93.7827053 L67.3928061,93.374403 L67.3722664,93.0101788 L67.4729106,92.6459547 L68.2944958,91.0591436 L68.4403272,90.4443703 L68.3992479,89.6973627 L68.4793524,89.4676927 L68.9004148,88.7438841 L69.0215987,88.4028589 L69.001059,87.9481587 L68.9620337,87.5630554 L68.9620337,87.2011511 L69.1017032,86.881005 L69.3214772,88.0154358 L68.8408499,90.0383879 L68.7997707,91.1936977 L70.4860742,89.4908917 L71.050914,88.1755088 L71.5335953,87.3357053 L71.492516,87.0178791 L71.0919933,86.4935819 L70.8516796,86.2476725 L70.5456391,86.0435214 L70.1841417,86.0203224 L69.8041585,86.3149496 L68.9004148,85.0436448 L68.6806408,84.8394937 L68.3150354,84.7258186 L68.2554705,84.2943174 L68.3992479,83.5241108 L68.0747218,82.8188615 L67.4729106,81.7981058 L67.010769,80.7773501 L67.0723879,80.0512217 L67.0518482,79.8470705 L66.8320742,79.5524433 L66.3699325,78.7567179 L66.0454064,78.5316877 L66.0248668,78.3484156 L66.4500371,78.2579395 L66.6903508,78.4852897 L66.8505599,78.8448741 L67.1114132,79.1882191 L67.4934503,79.3459723 L67.7933288,79.3227733 L67.8734334,79.4596474 L67.6331197,80.0512217 L67.7543035,80.6845542 L68.1959056,81.7517078 L69.0215987,83.3199597 L70.7695211,84.5448665 L71.1104789,84.6817406 L71.3323069,84.5680655 L71.3528465,83.9996902 L71.2522024,83.705063 L70.9708094,83.2526826 L70.8701653,83.0230126 L70.5661788,80.9815013 L70.609312,80.5708791 L70.7510354,80.1625768 L70.609312,80.0952997 L70.5661788,80.0048237 L70.4265093,80.0744207 L70.3648904,80.1184987 L70.3258651,80.0744207 L70.2252209,79.8470705 L70.83114,79.7797935 L71.050914,80.2762519 L70.9708094,82.5242343 L71.1104789,82.6587884 L71.8540135,82.0950529 L71.8540135,84.0228892 L71.9546577,84.8186146 L72.213457,85.5865013 L72.4763642,85.6560982 L73.2815177,84.9995668 L73.4417268,84.9531688 L73.8032243,84.9531688 L74.0435379,84.8394937 L75.6928702,83.1598866 L75.8736189,82.6587884 L75.4114772,82.4569572 L75.4730961,82.4105592 L75.5511467,82.3896801 L75.5716863,82.3432821 L75.5511467,82.185529 L75.6928702,82.16233 L75.9927487,82.252806 L76.1550118,81.7076297 L76.2145767,80.9583023 L76.1940371,80.3458489 L76.033828,80.389927 L75.9742631,80.6613552 L75.8325396,80.9142242 L75.5511467,81.3434055 L75.3313727,81.7076297 L74.8260978,82.208728 L74.2653659,82.6147103 L73.8627892,82.7747834 L73.8032243,82.4569572 L74.1051568,81.8885819 L74.5652445,81.3225264 L75.4730961,80.6613552 L75.4915818,80.0744207 L75.1506239,79.5524433 L74.5447049,79.4132494 L72.435285,79.6429194 L72.9405599,79.2786952 L73.542371,78.984068 L74.203747,78.8031159 L74.8260978,78.7335189 L74.7870725,78.5084887 L74.4646003,78.4388917 L73.8627892,78.1651436 L73.542371,78.1442645 L73.3020573,78.2347406 L72.8994806,78.4388917 L72.6365734,78.5316877 L70.5867184,78.4852897 L70.2046813,78.8031159 L70.1841417,78.5989647 L70.1451164,78.4180126 L70.2847858,78.0746675 L70.4655346,77.8937154 L71.1720978,77.7568413 L72.8173221,77.7127632 L73.3616223,77.5318111 L73.1808735,77.281262 L73.0206644,77.0098338 L72.8994806,76.6896877 L72.8604553,76.3486625 L73.0206644,76.3045844 L73.2404384,76.6688086 L73.4417268,76.8497607 L74.4050354,77.5318111 L74.704914,77.5550101 L74.9863069,77.5086121 L75.4525565,77.5318111 L75.8325396,77.7127632 L76.0749073,77.9401134 L76.3152209,78.1210655 L76.7157437,78.1210655 L77.0156223,77.8705164 L77.1368061,77.394937 L77.1162664,76.8265617 L76.976597,76.3486625 L77.3175548,76.4878564 L77.4613322,76.7824836 L77.5414368,77.1235088 L77.7221855,77.394937 L78.0631433,77.5967683 L78.2233524,77.4854131 L78.3650759,77.281262 L78.6259292,77.1235088 L80.0328938,75.4647809 L80.2547218,75.2838287 L80.4334165,75.0773577 L80.5546003,74.7850504 L80.5956796,74.5136222 L80.5546003,74.4463451 L80.4149309,74.4208262 L79.2072007,73.5601436 L78.8662428,73.2423174 L79.186661,73.1054433 L79.6713963,73.3327935 L80.515575,74.0589219 L81.1358718,74.4695441 L81.4378044,74.3071511 L81.6986577,73.8988489 L82.1833929,73.6042217 L82.6640202,73.4232695 L83.6273288,72.8108161 L84.7754941,72.3352368 L84.9562428,72.0614887 L84.7344148,71.7877406 L84.173683,71.4931134 L84.1326037,71.3098413 L84.3133524,71.1080101 L84.5536661,71.0848111 L85.1369916,71.1080101 L85.6977234,70.9734559 L85.8990118,70.8133829 L87.0451231,69.474801 L87.3059764,68.8159496 L87.2258718,67.88567 L87.0862024,67.9297481 L87.0862024,68.1130202 L87.0266374,68.1362191 L86.66514,67.9761461 L86.4843912,67.725597 L86.2584553,67.5446448 L85.4368702,67.5191259 L85.0753727,67.2964156 L84.7754941,66.9345113 L84.615285,66.5238892 L84.9747285,66.7721184 L85.3177403,66.9113123 L85.5375143,66.8393955 L85.558054,66.4334131 L85.4368702,65.9578338 L85.0959123,65.2525844 L84.9747285,64.8442821 L85.0959123,64.7306071 L85.9791164,65.1621083 L85.9174975,65.0716322 L85.9174975,64.8442821 L85.9791164,64.616932 L86.1187858,64.5055768 L86.5850354,64.8210831 L86.1988904,65.6840856 L86.0777066,66.2037431 L86.2584553,66.3870151 L86.6856796,66.4542922 L86.9855582,66.7721184 L87.2464115,67.0922645 L87.5072648,67.2059395 L87.9878921,66.9785894 L88.6143508,66.5238892 L89.6967892,65.4567355 L89.9781821,64.8442821 L90.2184958,64.0949547 L90.538914,63.4152242 L91.1058078,63.027801 L91.2064519,62.9141259 L91.2454772,62.6867758 L91.3070961,62.4617456 L91.4673052,62.3248715 L91.648054,62.2343955 L92.6093086,61.3041159 L92.751032,61.0303678 L92.8311366,60.5547884 L92.6093086,60.6684635 L92.4100742,60.8494156 L92.2683508,61.0535668 L92.1882462,61.3273149 L91.8472884,60.8958136 L91.6665396,60.5779874 L91.648054,60.2137632 L91.9869578,58.7383073 L92.2087858,58.285927 L92.5086644,58.0585768 L93.1351231,57.3742065 L93.5171602,57.1514962 L93.7574739,57.4670025 L93.858118,57.6943526 L94.2586408,58.2186499 L94.3983103,58.5132771 L94.6797032,58.1954509 L95.080226,57.8985038 L95.5670152,57.6502746 L96.0681821,57.5134005 L96.6083744,57.2419723 L96.7090185,56.83367 L96.6494536,56.3325718 L96.7295582,55.7665164 L97.0910556,55.2213401 L97.9783676,54.5184106 L98.2577066,54.0405113 L98.2186813,53.4048589 L97.7770793,53.2471058 L97.2512648,53.2239068 L96.9513862,52.8596826 L97.4114739,52.8156045 L97.957828,52.8596826 L98.39943,53.0661537 L98.6397437,53.5394131 L98.7794132,53.4512569 L98.8595177,53.3607809 L98.9601619,53.2239068 L99.0197268,53.0429547 L98.7403879,52.8156045 L98.5185599,52.4977783 L98.4980202,52.2031511 L98.7794132,52.022199 L98.9807015,52.0894761 L99.2415548,52.5650554 L99.4613288,52.7460076 L99.561973,52.2263501 L99.781747,51.8853249 L100.067248,51.5883778 L100.307562,51.2705516 L99.9871433,51.2264736 L99.8228263,51.0895995 L99.5825126,50.5908212 L99.4613288,50.249796 L99.4407892,49.9110907 L99.342199,49.6605416 L98.5390995,49.5932645 L97.957828,49.3659144 L97.4320135,48.9784912 L97.1506206,48.4333149 L97.1115953,47.7976625 L97.1916998,47.117932 L97.3313693,46.4590806 L98.0769578,44.6449194 L98.4384553,44.0765441 L98.900597,43.7146398 L98.9211366,43.8955919 L98.7198482,44.2134181 L98.0974975,45.4406448 L97.736,46.9601788 L97.6764351,47.6863073 L97.7976189,47.9809345 L98.7198482,47.7976625 L99.0402664,47.9113375 L99.342199,48.2778816 L99.5414334,48.797539 L99.7427218,49.8878917 L100.007683,50.272995 L100.147352,50.249796 L100.028223,49.5468665 L100.028223,45.9139043 L100.147352,45.5543199 L99.948118,45.391927 L100.247997,44.0301461 L101.913761,40.0375995 L103.441909,36.3396801 L104.668125,34.1380957 L106.59885,31.414534 L108.665137,29.2802267 L109.531909,28.6654534 L110.433599,28.3940252 L110.312415,28.145796 L110.312415,28.145796 Z" id="Stroke-22" stroke="#F9F9F9" stroke-width="0.25" stroke-linecap="round" stroke-linejoin="round"></path>
            </g>
        </g>
    </g>
</svg>