<?xml version="1.0" encoding="UTF-8"?>
<svg width="99px" height="109px" viewBox="0 0 99 109" version="1.1" xmlns="http://www.w3.org/2000/svg" xmlns:xlink="http://www.w3.org/1999/xlink">
    <!-- Generator: Sketch 51 (57462) - http://www.bohemiancoding.com/sketch -->
    <title>West Virginia</title>
    <desc>Created with Sketch.</desc>
    <defs></defs>
    <g id="Page-1" stroke="none" stroke-width="1" fill="none" fill-rule="evenodd">
        <g id="A5" transform="translate(-968.000000, -297.000000)">
            <g id="West-Virginia" transform="translate(969.000000, 298.000000)">
                <polygon id="Fill-3" fill="#D6D6D6" points="59.2822664 23.0833854 61.574489 38.357602 61.634054 38.450398 61.7346981 38.4295189 61.9195548 38.2671259 62.1393288 38.0188967 64.0844317 35.202539 64.2487487 35.112063 65.0723879 34.7501587 65.232597 34.6364836 65.2921619 34.4996096 65.4318314 33.8198791 65.5324755 33.5252519 65.7543035 33.1610277 66.2554705 32.5253753 67.1222428 31.7319698 67.222887 31.6414937 67.2824519 31.5046196 67.4632007 31.0754383 67.8041585 30.6648161 67.8637234 30.5511411 67.9232884 30.437466 67.9643676 30.3029118 68.0033929 30.2124358 68.1245767 29.3935113 68.165656 29.2566373 68.2252209 29.0988841 68.3258651 28.9852091 69.0303744 28.3750756 69.1905835 28.3031587 69.3713322 28.2822796 69.7533693 28.3750756 70.1333524 28.5096297 70.5954941 28.8506549 70.8358078 28.941131 71.0001248 28.941131 71.1808735 28.894733 71.3821619 28.7369798 71.5012917 28.6001058 71.5629106 28.4655516 71.7231197 28.0549295 72.704914 26.3544433 72.9062024 25.9229421 73.0273862 25.4682418 73.0869511 25.3545668 73.1506239 25.2408917 73.2307285 25.1504156 73.3108331 25.0576196 73.4114772 24.9903426 73.7524351 24.8302695 73.8736189 24.7397935 73.9126442 24.6516373 73.8736189 24.5820403 73.7729747 24.4242872 73.7318954 24.3106121 73.7134098 24.150539 73.7318954 23.9695869 73.7729747 23.8350327 73.9927487 23.2434584 74.0543676 22.9720302 74.1139325 22.723801 74.1344722 22.607806 74.1940371 22.494131 74.253602 22.447733 74.3542462 22.447733 74.5349949 22.5614081 74.6150995 22.677403 74.8348735 22.8583552 75.0977808 22.9929093 75.1573457 23.0833854 75.1573457 23.1529824 75.0567015 23.2202594 74.8964924 23.3803325 74.8759528 23.4499295 74.8348735 23.5404055 74.8348735 23.6540806 74.8554132 23.7654358 74.8759528 23.8559118 74.8759528 23.9023098 74.917032 23.9255088 75.0567015 24.083262 75.1162664 24.1296599 75.196371 24.173738 76.0035784 24.4010882 76.4041012 24.6052393 76.5047454 24.6748363 76.6259292 24.7397935 77.1661214 24.8302695 78.8955582 24.7629924 78.9366374 24.6516373 79.5980135 24.2410151 81.1261619 24.1296599 81.6684081 23.4708086 81.727973 23.1297834 81.5883035 23.0161083 81.1467015 22.9488312 81.1467015 22.5150101 81.4671197 22.3108589 81.8676425 22.2203829 82.114118 22.0626297 81.3870152 21.2924232 81.5677639 21.088272 81.7485126 21.020995 82.173683 21.020995 82.3544317 20.951398 82.835059 20.5198967 83.2355818 20.3389446 84.0982462 20.3389446 84.5049309 20.2484685 84.6446003 20.0651965 84.9259933 19.4527431 85.1252277 19.1813149 85.5873693 18.2046373 85.7270388 18.0468841 85.9077875 17.8868111 86.1296155 17.7522569 87.2161619 17.5921839 88.2801147 18.0677632 90.1677066 19.4968212 90.6298482 19.7009723 91.1145835 19.7914484 91.5767251 19.7009723 91.858118 19.4295441 92.0573524 19.2949899 92.6797032 19.339068 92.7803474 19.2253929 92.8399123 18.9771637 93.080226 18.8634887 93.3862664 18.8634887 93.6060405 18.9098866 93.9880776 19.2949899 93.9675379 19.7705693 93.6471197 20.2275894 93.1603305 20.4966977 93.3410793 20.7936448 93.8463541 21.8352796 93.9675379 21.7912015 93.9675379 21.4965743 94.0271029 21.1555491 94.1482867 20.9305189 94.3475211 20.974597 94.5282698 21.2692242 94.5097841 21.5197733 94.40914 21.7007254 94.4296796 21.9048766 94.7500978 22.1995038 95.0499764 22.1322267 95.3909342 21.9257557 95.7565396 21.8144005 95.7976189 22.0185516 95.5326577 22.1554257 95.4320135 22.424534 95.4915784 22.747 95.6969747 23.0833854 95.3108297 23.5612846 95.6353558 23.7886348 96.6582293 24.036864 96.9396223 24.4915642 96.9211366 25.0576196 96.8595177 25.649194 96.9807015 26.1943703 97.3812243 26.6931486 97.4223035 26.6931486 97.4017639 26.8300227 97.3216594 27.2174458 97.0998314 28.5096297 96.900597 29.5071864 96.6397437 30.9849622 96.4589949 31.9361209 96.3788904 32.3444232 96.3172715 32.7318463 96.1180371 32.5926524 95.8571838 32.4580982 94.4892445 31.6646927 93.1418449 30.8712872 91.7780135 30.0732418 90.4100742 29.3030353 89.0462428 28.5096297 87.6967892 27.7162242 86.3288499 26.9204987 84.9855582 26.1270932 84.6035211 25.9229421 84.3406138 26.1502922 84.1393255 26.7395466 84.0777066 27.0550529 84.0777066 27.305602 84.1393255 27.6002292 84.4248263 28.4655516 84.4843912 28.7601788 84.5049309 29.1220831 84.5049309 29.3030353 84.4638516 29.6440605 84.2584553 30.2797128 83.7983676 31.4373426 83.7572884 31.5742166 83.7388027 31.7319698 83.7388027 31.8665239 83.7572884 32.003398 83.7983676 32.140272 83.8373929 32.256267 83.9174975 32.5694534 83.9380371 32.7318463 83.9380371 32.9127985 83.8784722 33.4138967 83.8784722 33.799 83.9174975 33.9567531 83.9585767 34.0936272 84.1187858 34.4996096 84.1598651 34.6364836 84.1783508 34.7965567 84.1598651 34.9079118 84.0777066 35.088864 83.5765396 36.1815365 82.8761383 37.0862972 82.2332479 38.380801 82.0093659 39.0860504 81.9888263 39.2206045 81.9888263 39.3342796 82.0299056 39.4247557 82.0689309 39.5384307 82.0689309 39.6521058 82.0093659 39.923534 81.6067892 40.8097355 81.4876594 40.9698086 81.3274503 41.1530806 81.0255177 41.3549118 80.8057437 41.4477078 80.6455346 41.559063 80.5448904 41.695937 80.4647858 41.9673652 80.343602 42.5566196 80.2244722 42.8303678 80.1423137 42.9881209 80.0026442 43.148194 79.5569342 43.4892191 79.3967251 43.5796952 79.2775953 43.6260932 79.1564115 43.6028942 79.0557673 43.5588161 78.9756627 43.4660202 78.8955582 43.3523451 78.8154536 43.261869 78.7353491 43.215471 78.6347049 43.23867 78.5340607 43.3291461 78.1931029 44.2153476 77.7330152 45.4170554 77.1661214 46.8252343 76.745059 47.959665 76.6444148 48.1174181 76.5458246 48.2542922 76.3856155 48.2310932 75.5619764 47.8251108 74.5349949 47.3008136 73.8325396 46.9597884 73.7318954 46.9829874 73.6333052 47.1198615 72.9863069 48.6417154 72.8671771 48.9363426 72.8260978 49.2077708 72.8260978 49.3655239 72.7870725 49.548796 72.7254536 49.7738262 72.4646003 50.4349975 72.4050354 50.7064257 72.3844958 50.8873778 72.4646003 52.611063 72.4440607 52.7456171 72.3639562 52.8848111 72.2242867 53.0657632 71.9428938 53.3603904 71.764199 53.5900605 71.5834503 53.8846877 71.4622664 54.2697909 71.4027015 54.4971411 71.3821619 54.6989723 71.3410826 55.7220479 71.322597 55.8125239 71.322597 56.063073 71.1808735 57.1511058 71.1213086 57.4898111 71.0206644 57.7844383 70.7372175 58.4456096 70.3551804 59.3526902 69.8129342 60.6703929 69.7328297 60.7817481 69.6321855 60.8745441 69.4719764 60.8954232 68.0834975 60.691272 66.9209545 60.5335189 65.893973 60.3734458 64.8505599 60.2133728 64.7909949 60.1924937 64.7499157 60.1692947 64.7704553 60.0556196 64.8115346 59.8050705 64.8115346 59.6032393 64.7909949 59.5568413 64.7108904 59.4222872 63.624344 57.9468312 63.5442395 57.8540353 63.4620809 57.8076373 63.402516 57.7844383 61.5334098 57.422534 61.3937403 57.445733 61.2930961 57.6034861 61.2129916 57.8540353 61.1513727 58.3992116 61.1719123 58.6961587 61.1924519 58.9235088 61.2335312 59.081262 61.2520169 59.2622141 61.2335312 59.4222872 61.1719123 59.6705164 60.8905194 60.3734458 60.8905194 60.8954232 61.0712681 62.143529 61.0527825 62.326801 60.9911636 62.5286322 60.7303103 63.0970076 60.6707454 63.3916348 60.5906408 64.3242343 60.5310759 64.5051864 60.3297875 64.7093375 59.9682901 64.9575668 59.8881855 65.0712418 59.8491602 65.252194 59.8080809 65.5491411 59.7279764 65.8205693 59.5636594 66.1639144 59.4835548 66.3889446 59.5040944 66.6835718 59.5636594 66.8668438 59.6868971 67.138272 59.748516 67.2728262 59.7875413 67.4097003 59.748516 67.6138514 59.6868971 67.8180025 59.4034503 68.3167809 58.9823879 68.773801 58.8221788 69.0220302 58.4606813 69.7481587 57.6390961 70.9730655 57.5980169 71.1308186 57.5774772 71.2932116 57.6185565 71.5414408 57.7192007 71.812869 57.7192007 72.0170202 57.5179123 73.7894232 57.1933862 74.967932 56.7312445 76.647539 56.2095379 77.6450957 55.2873086 79.3711008 54.5622597 80.6864836 53.9789342 81.8000353 53.2579933 83.1130982 53.2374536 83.2290932 53.1778887 83.9575416 53.1368094 84.1825718 52.7321788 85.5652317 52.2104722 87.3376348 52.1693929 87.6531411 52.2104722 87.7668161 52.2515514 87.8340932 52.2905767 87.8804912 52.6109949 88.1078413 52.8513086 88.2447154 53.5373322 88.4720655 53.6379764 88.5625416 53.7386206 88.7202947 53.7981855 88.9963627 53.7796998 89.1773149 53.7386206 89.335068 53.5578718 89.5832972 53.1778887 89.9684005 52.8513086 90.2421486 52.7321788 90.3558237 52.5925093 90.5367758 52.4117605 90.8337229 52.3501417 91.0587531 52.331656 91.2629043 52.3501417 91.4020982 52.3912209 91.5366524 52.4507858 91.6503275 52.55143 91.7408035 52.8328229 91.8776776 52.9355211 91.9913526 52.9766003 92.3068589 52.9355211 92.4878111 52.8513086 92.6478841 50.5221147 94.8030705 49.9798685 95.575597 49.8792243 95.7101511 49.7600944 95.7797481 49.6594503 95.8029471 49.5382664 95.8029471 49.4376223 95.758869 49.3369781 95.6869521 49.2568735 95.575597 49.1973086 95.4387229 49.176769 95.2809698 49.1377437 95.0304207 49.0966644 94.9167456 49.0576391 94.8030705 48.9569949 94.7125945 48.7372209 94.6917154 48.5749578 94.7125945 48.0902226 94.8726675 47.6095953 95.1672947 46.8064958 95.8029471 45.8596189 96.5522746 44.1342901 98.2295617 44.0541855 98.2991587 43.8939764 98.3896348 43.8097639 98.3896348 43.7296594 98.3687557 43.6700944 98.2991587 43.6084755 98.1854836 43.528371 98.0926877 43.4277268 98.0254106 43.3291366 98.0022116 42.9265599 97.9813325 42.8279696 97.9349345 42.7663508 97.8444584 42.7273255 97.5962292 42.6862462 97.5266322 42.6061417 97.4825542 42.5260371 97.4593552 41.9036863 97.4361562 41.7249916 97.4593552 41.5195953 97.5266322 41.2382024 97.7075844 41.0985329 97.8676574 40.9978887 98.0022116 40.9383238 98.1854836 40.9177841 98.3455567 40.8972445 98.5265088 40.9177841 98.684262 40.9383238 98.844335 40.9978887 99.0044081 41.4189511 99.5704635 41.4600304 99.7305365 41.4600304 99.9555668 41.3778718 100.296592 41.2792816 100.477544 41.1991771 100.635297 39.9339359 101.841645 39.7942664 101.908922 39.6730826 101.908922 39.3095312 101.681572 39.1493221 101.681572 38.9480337 101.751169 38.4057875 102.203549 38.2250388 102.294025 36.0765936 103.041033 34.4868263 104.405134 34.2670523 104.518809 34.2054334 104.49561 34.1458685 104.451531 34.0863035 104.361055 33.9651197 104.177783 33.9055548 104.066428 33.8049106 103.996831 33.6036223 103.859957 32.3568668 103.268383 32.2562226 103.201106 32.0960135 103.064232 31.5743069 102.474977 31.4736627 102.384501 31.3339933 102.317224 31.1532445 102.317224 30.8718516 102.384501 30.7116425 102.542254 30.6315379 102.679128 30.5925126 102.816003 30.5124081 103.33798 30.4507892 103.56533 30.3706847 103.836758 30.1673423 104.224181 30.0050793 104.405134 29.8654098 104.518809 29.0438246 104.790237 28.7213524 104.95031 28.5611433 105.084864 28.4420135 105.221738 27.5341619 106.766791 27.3944924 106.924544 27.252769 107.038219 26.751602 107.172773 25.424742 107.286448 25.1638887 107.24237 24.5620776 106.901345 23.7404924 106.606718 23.6193086 106.539441 23.4139123 106.356169 23.0544688 105.924668 22.9538246 105.834191 22.8531804 105.741395 22.713511 105.674118 22.5923272 105.62772 22.3910388 105.583642 21.9104115 105.606841 21.6290185 105.674118 21.3455717 105.697317 21.2654671 105.674118 20.9840742 105.560443 20.7622462 105.379491 20.6821417 105.289015 20.6020371 105.17534 20.3206442 104.655683 20.2425936 104.542008 20.1419494 104.428332 19.9201214 104.270579 18.7740101 103.655806 18.6733659 103.56533 18.5932614 103.451655 18.5131568 103.314781 18.4926172 103.154708 18.4515379 102.996955 18.4330523 102.247627 18.4125126 102.089874 18.391973 101.932121 18.3324081 101.772048 18.2707892 101.637494 18.2112243 101.523819 18.1311197 101.431023 18.0304755 101.363746 17.1883508 100.955443 17.0877066 100.864967 17.0281417 100.748972 17.007602 100.612098 17.0486813 100.454345 17.0877066 100.34067 17.5498482 99.7978136 17.5498482 99.7746146 17.5703879 99.7073375 17.5703879 99.5704635 17.5909275 99.4127103 17.5498482 99.2317582 17.508769 99.0948841 17.4286644 98.9580101 17.3485599 98.8652141 17.1287858 98.684262 16.7036155 98.5033098 16.4633019 98.5265088 15.8409511 98.797937 15.6006374 98.821136 13.8116358 98.5265088 13.4891636 98.4128338 13.3289545 98.2550806 13.3104688 98.0926877 13.3104688 97.9117355 13.2488499 97.7771814 13.189285 97.6403073 13.0886408 97.5266322 12.8873524 97.3456801 12.1417639 96.7796247 11.9610152 96.7796247 11.860371 96.8469018 11.7802664 96.9164987 11.7207015 96.8701008 11.2400742 96.3017254 10.9997605 96.0975743 10.8190118 96.0070982 10.6382631 95.9398212 9.7509511 95.73567 9.54966273 95.6428741 9.43053288 95.482801 9.27032378 95.0536196 8.80818212 94.1233401 8.76710287 93.9655869 8.7486172 93.8055139 8.54732884 93.5108866 8.22691062 93.1466625 6.65768297 91.8544786 6.59811804 91.7408035 6.51801349 91.6062494 6.41736931 91.3093023 6.17705565 90.3767028 6.11749073 90.1725516 5.99630691 89.9915995 5.79501855 89.6969723 5.65534907 89.5624181 5.51157167 89.4487431 4.54826307 88.9035668 4.42707926 88.7666927 4.38805396 88.6089395 4.40653963 88.5161436 4.60782799 87.9941662 4.64890725 87.8572922 4.64890725 87.745937 4.48869815 87.3817128 4.3469747 87.2239597 4.26687015 87.1334836 2.94001012 86.180005 2.75926138 85.9990529 2.61753794 85.7485038 2.43678921 85.3378816 2.29711973 85.0896524 0.347908938 82.84167 0.187699831 82.5934408 0.146620573 82.4565668 0.146620573 82.2083375 0.187699831 82.1387406 0.247264755 82.0482645 0.567682968 81.6631612 0.709406408 81.438131 0.748431703 81.3012569 0.768971332 81.185262 0.768971332 81.0275088 0.66832715 80.5264106 0.66832715 80.3686574 0.688866779 80.2317834 0.729946037 80.1413073 0.828536256 80.0740302 1.08938954 79.9835542 1.17360202 79.8930781 1.21468128 79.779403 1.19414165 79.6216499 1.17360202 79.4615768 1.13457673 79.3038237 1.07090388 78.9859975 1.02982462 78.3039471 1.02982462 77.9165239 0.970259696 77.6218967 0.849075885 77.2831914 0.327369309 76.4225088 0.226725126 76.1928388 0.20823946 76.1255617 0.187699831 76.0118866 0.167160202 75.2161612 0.126080944 74.8774559 0.107595278 74.6965038 0.126080944 74.7173829 0.929180438 74.967932 1.85551771 74.6965038 3.54592917 73.6502292 5.09050927 73.2210479 5.44995278 72.9913778 5.6758887 72.4021234 5.75599325 71.859267 5.83609781 69.1357053 5.99630691 68.4304559 6.23662057 68.1149496 7.28003373 68.0917506 7.72163575 67.9084786 7.98659696 67.3633023 7.96605734 67.047796 7.8407656 66.6626927 7.70109612 66.2984685 7.44024283 65.7973703 7.4197032 65.481864 7.49980776 65.0248438 7.32111298 64.3010353 7.07874536 63.8254559 6.8384317 63.4612317 6.61865767 62.9624534 6.57757841 62.257204 6.87951096 61.8280227 7.23895447 61.4637985 7.38067791 60.714471 7.57991231 60.1460957 7.6415312 59.8514685 7.60045194 58.6056826 7.8017403 57.6034861 8.24745025 56.3577003 8.7876425 55.1745516 9.368914 54.4971411 9.87213491 54.4043451 10.3157909 54.6316952 10.6772884 54.9031234 11.3797437 55.0840756 11.7207015 55.4042217 11.9815548 55.8357229 12.1417639 56.2904232 12.2424081 56.4272972 12.3225126 56.5850504 12.3861855 56.7892015 12.3430523 56.9469547 12.2629477 57.0606297 12.1623035 57.1279068 12.1212243 57.2183829 12.1212243 57.6266851 12.0411197 57.8308363 12.0226341 57.9677103 12.2218685 58.2855365 12.6470388 58.4224106 13.0681012 58.0813854 13.409059 57.5130101 13.5898078 57.0374307 13.6493727 56.2904232 13.7109916 55.926199 13.910226 55.7220479 14.1916189 55.7893249 14.6126813 56.1535491 14.8776425 56.2231461 15.2596796 55.9934761 15.1980607 55.6547708 14.9372074 55.2209496 14.7174334 54.7453703 14.6763541 53.6573375 14.5531164 53.1353602 14.2532378 52.9520882 14.1115143 52.9080101 13.9307656 52.7920151 13.7500169 52.611063 13.6493727 52.4301108 13.4891636 52.0682065 13.4891636 51.9545315 13.6103474 51.9313325 14.5941956 51.251602 14.7174334 50.9314559 14.6763541 50.2494055 14.4319325 49.1636927 14.4134469 48.7785894 14.5120371 48.2774912 15.3192445 46.7788363 15.4999933 45.7116826 15.900516 45.4866524 16.401683 45.3729773 16.843285 45.0992292 17.007602 45.2801814 17.1678111 45.0992292 17.2684553 45.0296322 17.4101788 45.0528312 17.6094132 45.1665063 17.7901619 44.758204 17.7511366 43.5796952 17.8497268 43.0136398 19.1786408 41.0394055 19.4785194 40.7865365 20.3617234 40.6287834 20.6020371 40.8329345 20.8628904 41.3108338 21.2243879 41.8096121 21.6885835 42.0810403 22.1712648 41.9000882 22.7936155 41.0162065 23.1941383 40.7424584 23.6193086 40.6055844 24.040371 40.3782343 24.4408938 40.0836071 24.7222867 39.7889798 25.202914 38.9491763 25.5253862 38.543194 26.2915143 38.0420957 26.531828 37.5177985 26.8727858 36.4297657 27.415032 35.4762872 29.4238078 32.9800756 30.7116425 31.7783678 30.6911029 31.4837406 30.8122867 30.6184181 30.8122867 30.460665 30.7321821 30.1405189 30.7321821 30.0059647 30.791747 29.8690907 31.0936796 29.4839874 31.1121653 28.894733 30.9724958 28.5096297 30.7116425 28.2126826 30.3070118 27.8739773 30.1468027 27.5306322 30.2659325 27.2383249 30.6726172 26.8300227 30.7321821 26.5121965 30.7321821 25.8997431 30.7527218 25.5819169 30.8328263 25.2176927 30.9314165 24.9207456 31.2333491 24.3106121 31.2538887 24.060063 31.1121653 23.7654358 30.9519562 23.4267305 30.851312 23.1297834 30.8718516 22.654204 31.0936796 22.654204 31.3935582 22.7678791 31.6544115 22.677403 31.734516 22.3572569 31.6749511 22.0881486 31.5537673 21.8584786 31.4942024 21.6543275 31.5537673 21.111471 31.6954907 20.7240479 31.7961349 20.2693476 31.7550556 19.591937 31.5352816 18.3647103 31.514742 17.773136 31.6338718 17.0029295 31.9152648 15.8684987 32.0159089 15.3001234 31.9953693 14.2097708 32.0754739 13.4859622 32.3363272 12.2355365 32.4965363 11.9641083 32.9627858 11.3516549 33.06343 11.1475038 33.1229949 10.1708262 33.1825599 9.98987406 33.0819157 9.60245088 32.841602 8.9459194 32.8231164 8.80904534 32.8025767 8.49121914 32.7614975 8.35666499 32.6423676 8.26618892 32.4965363 8.21979093 32.2973019 8.21979093 32.2171973 7.54006045 32.457511 6.28963476 32.457511 5.58670529 32.3157875 5.17840302 32.0549342 4.67730479 31.4346374 3.77022418 30.6109983 2.88402267 30.3706847 2.40844332 30.4918685 1.77279093 30.8122867 1.38768766 31.3134536 1.09306045 31.8351602 0.956186398 32.2171973 1.11625945 33.0223508 0.206858942 33.3242833 0.0491057935 33.3242833 0.139581864 33.342769 0.139581864 33.342769 0.18365995 33.7248061 2.56851637 34.0863035 4.9510529 34.8483238 9.71612594 35.2324148 12.0986625 35.6144519 14.4835189 35.9759494 16.8660554 36.3559325 19.2717909 36.6763508 21.3388212 37.0173086 23.4035315 37.6643069 27.5538312 40.3755379 27.0109748 43.0682833 26.4657985 45.7795143 25.8997431 48.4763676 25.3545668 51.1875987 24.7861914 53.8782901 24.220136 56.5710354 23.6540806"></polygon>
                <polygon id="Stroke-4" stroke="#F9F9F9" stroke-width="0.25" stroke-linecap="round" stroke-linejoin="round" points="59.2822664 23.0833854 61.574489 38.357602 61.634054 38.450398 61.7346981 38.4295189 61.9195548 38.2671259 62.1393288 38.0188967 64.0844317 35.202539 64.2487487 35.112063 65.0723879 34.7501587 65.232597 34.6364836 65.2921619 34.4996096 65.4318314 33.8198791 65.5324755 33.5252519 65.7543035 33.1610277 66.2554705 32.5253753 67.1222428 31.7319698 67.222887 31.6414937 67.2824519 31.5046196 67.4632007 31.0754383 67.8041585 30.6648161 67.8637234 30.5511411 67.9232884 30.437466 67.9643676 30.3029118 68.0033929 30.2124358 68.1245767 29.3935113 68.165656 29.2566373 68.2252209 29.0988841 68.3258651 28.9852091 69.0303744 28.3750756 69.1905835 28.3031587 69.3713322 28.2822796 69.7533693 28.3750756 70.1333524 28.5096297 70.5954941 28.8506549 70.8358078 28.941131 71.0001248 28.941131 71.1808735 28.894733 71.3821619 28.7369798 71.5012917 28.6001058 71.5629106 28.4655516 71.7231197 28.0549295 72.704914 26.3544433 72.9062024 25.9229421 73.0273862 25.4682418 73.0869511 25.3545668 73.1506239 25.2408917 73.2307285 25.1504156 73.3108331 25.0576196 73.4114772 24.9903426 73.7524351 24.8302695 73.8736189 24.7397935 73.9126442 24.6516373 73.8736189 24.5820403 73.7729747 24.4242872 73.7318954 24.3106121 73.7134098 24.150539 73.7318954 23.9695869 73.7729747 23.8350327 73.9927487 23.2434584 74.0543676 22.9720302 74.1139325 22.723801 74.1344722 22.607806 74.1940371 22.494131 74.253602 22.447733 74.3542462 22.447733 74.5349949 22.5614081 74.6150995 22.677403 74.8348735 22.8583552 75.0977808 22.9929093 75.1573457 23.0833854 75.1573457 23.1529824 75.0567015 23.2202594 74.8964924 23.3803325 74.8759528 23.4499295 74.8348735 23.5404055 74.8348735 23.6540806 74.8554132 23.7654358 74.8759528 23.8559118 74.8759528 23.9023098 74.917032 23.9255088 75.0567015 24.083262 75.1162664 24.1296599 75.196371 24.173738 76.0035784 24.4010882 76.4041012 24.6052393 76.5047454 24.6748363 76.6259292 24.7397935 77.1661214 24.8302695 78.8955582 24.7629924 78.9366374 24.6516373 79.5980135 24.2410151 81.1261619 24.1296599 81.6684081 23.4708086 81.727973 23.1297834 81.5883035 23.0161083 81.1467015 22.9488312 81.1467015 22.5150101 81.4671197 22.3108589 81.8676425 22.2203829 82.114118 22.0626297 81.3870152 21.2924232 81.5677639 21.088272 81.7485126 21.020995 82.173683 21.020995 82.3544317 20.951398 82.835059 20.5198967 83.2355818 20.3389446 84.0982462 20.3389446 84.5049309 20.2484685 84.6446003 20.0651965 84.9259933 19.4527431 85.1252277 19.1813149 85.5873693 18.2046373 85.7270388 18.0468841 85.9077875 17.8868111 86.1296155 17.7522569 87.2161619 17.5921839 88.2801147 18.0677632 90.1677066 19.4968212 90.6298482 19.7009723 91.1145835 19.7914484 91.5767251 19.7009723 91.858118 19.4295441 92.0573524 19.2949899 92.6797032 19.339068 92.7803474 19.2253929 92.8399123 18.9771637 93.080226 18.8634887 93.3862664 18.8634887 93.6060405 18.9098866 93.9880776 19.2949899 93.9675379 19.7705693 93.6471197 20.2275894 93.1603305 20.4966977 93.3410793 20.7936448 93.8463541 21.8352796 93.9675379 21.7912015 93.9675379 21.4965743 94.0271029 21.1555491 94.1482867 20.9305189 94.3475211 20.974597 94.5282698 21.2692242 94.5097841 21.5197733 94.40914 21.7007254 94.4296796 21.9048766 94.7500978 22.1995038 95.0499764 22.1322267 95.3909342 21.9257557 95.7565396 21.8144005 95.7976189 22.0185516 95.5326577 22.1554257 95.4320135 22.424534 95.4915784 22.747 95.6969747 23.0833854 95.3108297 23.5612846 95.6353558 23.7886348 96.6582293 24.036864 96.9396223 24.4915642 96.9211366 25.0576196 96.8595177 25.649194 96.9807015 26.1943703 97.3812243 26.6931486 97.4223035 26.6931486 97.4017639 26.8300227 97.3216594 27.2174458 97.0998314 28.5096297 96.900597 29.5071864 96.6397437 30.9849622 96.4589949 31.9361209 96.3788904 32.3444232 96.3172715 32.7318463 96.1180371 32.5926524 95.8571838 32.4580982 94.4892445 31.6646927 93.1418449 30.8712872 91.7780135 30.0732418 90.4100742 29.3030353 89.0462428 28.5096297 87.6967892 27.7162242 86.3288499 26.9204987 84.9855582 26.1270932 84.6035211 25.9229421 84.3406138 26.1502922 84.1393255 26.7395466 84.0777066 27.0550529 84.0777066 27.305602 84.1393255 27.6002292 84.4248263 28.4655516 84.4843912 28.7601788 84.5049309 29.1220831 84.5049309 29.3030353 84.4638516 29.6440605 84.2584553 30.2797128 83.7983676 31.4373426 83.7572884 31.5742166 83.7388027 31.7319698 83.7388027 31.8665239 83.7572884 32.003398 83.7983676 32.140272 83.8373929 32.256267 83.9174975 32.5694534 83.9380371 32.7318463 83.9380371 32.9127985 83.8784722 33.4138967 83.8784722 33.799 83.9174975 33.9567531 83.9585767 34.0936272 84.1187858 34.4996096 84.1598651 34.6364836 84.1783508 34.7965567 84.1598651 34.9079118 84.0777066 35.088864 83.5765396 36.1815365 82.8761383 37.0862972 82.2332479 38.380801 82.0093659 39.0860504 81.9888263 39.2206045 81.9888263 39.3342796 82.0299056 39.4247557 82.0689309 39.5384307 82.0689309 39.6521058 82.0093659 39.923534 81.6067892 40.8097355 81.4876594 40.9698086 81.3274503 41.1530806 81.0255177 41.3549118 80.8057437 41.4477078 80.6455346 41.559063 80.5448904 41.695937 80.4647858 41.9673652 80.343602 42.5566196 80.2244722 42.8303678 80.1423137 42.9881209 80.0026442 43.148194 79.5569342 43.4892191 79.3967251 43.5796952 79.2775953 43.6260932 79.1564115 43.6028942 79.0557673 43.5588161 78.9756627 43.4660202 78.8955582 43.3523451 78.8154536 43.261869 78.7353491 43.215471 78.6347049 43.23867 78.5340607 43.3291461 78.1931029 44.2153476 77.7330152 45.4170554 77.1661214 46.8252343 76.745059 47.959665 76.6444148 48.1174181 76.5458246 48.2542922 76.3856155 48.2310932 75.5619764 47.8251108 74.5349949 47.3008136 73.8325396 46.9597884 73.7318954 46.9829874 73.6333052 47.1198615 72.9863069 48.6417154 72.8671771 48.9363426 72.8260978 49.2077708 72.8260978 49.3655239 72.7870725 49.548796 72.7254536 49.7738262 72.4646003 50.4349975 72.4050354 50.7064257 72.3844958 50.8873778 72.4646003 52.611063 72.4440607 52.7456171 72.3639562 52.8848111 72.2242867 53.0657632 71.9428938 53.3603904 71.764199 53.5900605 71.5834503 53.8846877 71.4622664 54.2697909 71.4027015 54.4971411 71.3821619 54.6989723 71.3410826 55.7220479 71.322597 55.8125239 71.322597 56.063073 71.1808735 57.1511058 71.1213086 57.4898111 71.0206644 57.7844383 70.7372175 58.4456096 70.3551804 59.3526902 69.8129342 60.6703929 69.7328297 60.7817481 69.6321855 60.8745441 69.4719764 60.8954232 68.0834975 60.691272 66.9209545 60.5335189 65.893973 60.3734458 64.8505599 60.2133728 64.7909949 60.1924937 64.7499157 60.1692947 64.7704553 60.0556196 64.8115346 59.8050705 64.8115346 59.6032393 64.7909949 59.5568413 64.7108904 59.4222872 63.624344 57.9468312 63.5442395 57.8540353 63.4620809 57.8076373 63.402516 57.7844383 61.5334098 57.422534 61.3937403 57.445733 61.2930961 57.6034861 61.2129916 57.8540353 61.1513727 58.3992116 61.1719123 58.6961587 61.1924519 58.9235088 61.2335312 59.081262 61.2520169 59.2622141 61.2335312 59.4222872 61.1719123 59.6705164 60.8905194 60.3734458 60.8905194 60.8954232 61.0712681 62.143529 61.0527825 62.326801 60.9911636 62.5286322 60.7303103 63.0970076 60.6707454 63.3916348 60.5906408 64.3242343 60.5310759 64.5051864 60.3297875 64.7093375 59.9682901 64.9575668 59.8881855 65.0712418 59.8491602 65.252194 59.8080809 65.5491411 59.7279764 65.8205693 59.5636594 66.1639144 59.4835548 66.3889446 59.5040944 66.6835718 59.5636594 66.8668438 59.6868971 67.138272 59.748516 67.2728262 59.7875413 67.4097003 59.748516 67.6138514 59.6868971 67.8180025 59.4034503 68.3167809 58.9823879 68.773801 58.8221788 69.0220302 58.4606813 69.7481587 57.6390961 70.9730655 57.5980169 71.1308186 57.5774772 71.2932116 57.6185565 71.5414408 57.7192007 71.812869 57.7192007 72.0170202 57.5179123 73.7894232 57.1933862 74.967932 56.7312445 76.647539 56.2095379 77.6450957 55.2873086 79.3711008 54.5622597 80.6864836 53.9789342 81.8000353 53.2579933 83.1130982 53.2374536 83.2290932 53.1778887 83.9575416 53.1368094 84.1825718 52.7321788 85.5652317 52.2104722 87.3376348 52.1693929 87.6531411 52.2104722 87.7668161 52.2515514 87.8340932 52.2905767 87.8804912 52.6109949 88.1078413 52.8513086 88.2447154 53.5373322 88.4720655 53.6379764 88.5625416 53.7386206 88.7202947 53.7981855 88.9963627 53.7796998 89.1773149 53.7386206 89.335068 53.5578718 89.5832972 53.1778887 89.9684005 52.8513086 90.2421486 52.7321788 90.3558237 52.5925093 90.5367758 52.4117605 90.8337229 52.3501417 91.0587531 52.331656 91.2629043 52.3501417 91.4020982 52.3912209 91.5366524 52.4507858 91.6503275 52.55143 91.7408035 52.8328229 91.8776776 52.9355211 91.9913526 52.9766003 92.3068589 52.9355211 92.4878111 52.8513086 92.6478841 50.5221147 94.8030705 49.9798685 95.575597 49.8792243 95.7101511 49.7600944 95.7797481 49.6594503 95.8029471 49.5382664 95.8029471 49.4376223 95.758869 49.3369781 95.6869521 49.2568735 95.575597 49.1973086 95.4387229 49.176769 95.2809698 49.1377437 95.0304207 49.0966644 94.9167456 49.0576391 94.8030705 48.9569949 94.7125945 48.7372209 94.6917154 48.5749578 94.7125945 48.0902226 94.8726675 47.6095953 95.1672947 46.8064958 95.8029471 45.8596189 96.5522746 44.1342901 98.2295617 44.0541855 98.2991587 43.8939764 98.3896348 43.8097639 98.3896348 43.7296594 98.3687557 43.6700944 98.2991587 43.6084755 98.1854836 43.528371 98.0926877 43.4277268 98.0254106 43.3291366 98.0022116 42.9265599 97.9813325 42.8279696 97.9349345 42.7663508 97.8444584 42.7273255 97.5962292 42.6862462 97.5266322 42.6061417 97.4825542 42.5260371 97.4593552 41.9036863 97.4361562 41.7249916 97.4593552 41.5195953 97.5266322 41.2382024 97.7075844 41.0985329 97.8676574 40.9978887 98.0022116 40.9383238 98.1854836 40.9177841 98.3455567 40.8972445 98.5265088 40.9177841 98.684262 40.9383238 98.844335 40.9978887 99.0044081 41.4189511 99.5704635 41.4600304 99.7305365 41.4600304 99.9555668 41.3778718 100.296592 41.2792816 100.477544 41.1991771 100.635297 39.9339359 101.841645 39.7942664 101.908922 39.6730826 101.908922 39.3095312 101.681572 39.1493221 101.681572 38.9480337 101.751169 38.4057875 102.203549 38.2250388 102.294025 36.0765936 103.041033 34.4868263 104.405134 34.2670523 104.518809 34.2054334 104.49561 34.1458685 104.451531 34.0863035 104.361055 33.9651197 104.177783 33.9055548 104.066428 33.8049106 103.996831 33.6036223 103.859957 32.3568668 103.268383 32.2562226 103.201106 32.0960135 103.064232 31.5743069 102.474977 31.4736627 102.384501 31.3339933 102.317224 31.1532445 102.317224 30.8718516 102.384501 30.7116425 102.542254 30.6315379 102.679128 30.5925126 102.816003 30.5124081 103.33798 30.4507892 103.56533 30.3706847 103.836758 30.1673423 104.224181 30.0050793 104.405134 29.8654098 104.518809 29.0438246 104.790237 28.7213524 104.95031 28.5611433 105.084864 28.4420135 105.221738 27.5341619 106.766791 27.3944924 106.924544 27.252769 107.038219 26.751602 107.172773 25.424742 107.286448 25.1638887 107.24237 24.5620776 106.901345 23.7404924 106.606718 23.6193086 106.539441 23.4139123 106.356169 23.0544688 105.924668 22.9538246 105.834191 22.8531804 105.741395 22.713511 105.674118 22.5923272 105.62772 22.3910388 105.583642 21.9104115 105.606841 21.6290185 105.674118 21.3455717 105.697317 21.2654671 105.674118 20.9840742 105.560443 20.7622462 105.379491 20.6821417 105.289015 20.6020371 105.17534 20.3206442 104.655683 20.2425936 104.542008 20.1419494 104.428332 19.9201214 104.270579 18.7740101 103.655806 18.6733659 103.56533 18.5932614 103.451655 18.5131568 103.314781 18.4926172 103.154708 18.4515379 102.996955 18.4330523 102.247627 18.4125126 102.089874 18.391973 101.932121 18.3324081 101.772048 18.2707892 101.637494 18.2112243 101.523819 18.1311197 101.431023 18.0304755 101.363746 17.1883508 100.955443 17.0877066 100.864967 17.0281417 100.748972 17.007602 100.612098 17.0486813 100.454345 17.0877066 100.34067 17.5498482 99.7978136 17.5498482 99.7746146 17.5703879 99.7073375 17.5703879 99.5704635 17.5909275 99.4127103 17.5498482 99.2317582 17.508769 99.0948841 17.4286644 98.9580101 17.3485599 98.8652141 17.1287858 98.684262 16.7036155 98.5033098 16.4633019 98.5265088 15.8409511 98.797937 15.6006374 98.821136 13.8116358 98.5265088 13.4891636 98.4128338 13.3289545 98.2550806 13.3104688 98.0926877 13.3104688 97.9117355 13.2488499 97.7771814 13.189285 97.6403073 13.0886408 97.5266322 12.8873524 97.3456801 12.1417639 96.7796247 11.9610152 96.7796247 11.860371 96.8469018 11.7802664 96.9164987 11.7207015 96.8701008 11.2400742 96.3017254 10.9997605 96.0975743 10.8190118 96.0070982 10.6382631 95.9398212 9.7509511 95.73567 9.54966273 95.6428741 9.43053288 95.482801 9.27032378 95.0536196 8.80818212 94.1233401 8.76710287 93.9655869 8.7486172 93.8055139 8.54732884 93.5108866 8.22691062 93.1466625 6.65768297 91.8544786 6.59811804 91.7408035 6.51801349 91.6062494 6.41736931 91.3093023 6.17705565 90.3767028 6.11749073 90.1725516 5.99630691 89.9915995 5.79501855 89.6969723 5.65534907 89.5624181 5.51157167 89.4487431 4.54826307 88.9035668 4.42707926 88.7666927 4.38805396 88.6089395 4.40653963 88.5161436 4.60782799 87.9941662 4.64890725 87.8572922 4.64890725 87.745937 4.48869815 87.3817128 4.3469747 87.2239597 4.26687015 87.1334836 2.94001012 86.180005 2.75926138 85.9990529 2.61753794 85.7485038 2.43678921 85.3378816 2.29711973 85.0896524 0.347908938 82.84167 0.187699831 82.5934408 0.146620573 82.4565668 0.146620573 82.2083375 0.187699831 82.1387406 0.247264755 82.0482645 0.567682968 81.6631612 0.709406408 81.438131 0.748431703 81.3012569 0.768971332 81.185262 0.768971332 81.0275088 0.66832715 80.5264106 0.66832715 80.3686574 0.688866779 80.2317834 0.729946037 80.1413073 0.828536256 80.0740302 1.08938954 79.9835542 1.17360202 79.8930781 1.21468128 79.779403 1.19414165 79.6216499 1.17360202 79.4615768 1.13457673 79.3038237 1.07090388 78.9859975 1.02982462 78.3039471 1.02982462 77.9165239 0.970259696 77.6218967 0.849075885 77.2831914 0.327369309 76.4225088 0.226725126 76.1928388 0.20823946 76.1255617 0.187699831 76.0118866 0.167160202 75.2161612 0.126080944 74.8774559 0.107595278 74.6965038 0.126080944 74.7173829 0.929180438 74.967932 1.85551771 74.6965038 3.54592917 73.6502292 5.09050927 73.2210479 5.44995278 72.9913778 5.6758887 72.4021234 5.75599325 71.859267 5.83609781 69.1357053 5.99630691 68.4304559 6.23662057 68.1149496 7.28003373 68.0917506 7.72163575 67.9084786 7.98659696 67.3633023 7.96605734 67.047796 7.8407656 66.6626927 7.70109612 66.2984685 7.44024283 65.7973703 7.4197032 65.481864 7.49980776 65.0248438 7.32111298 64.3010353 7.07874536 63.8254559 6.8384317 63.4612317 6.61865767 62.9624534 6.57757841 62.257204 6.87951096 61.8280227 7.23895447 61.4637985 7.38067791 60.714471 7.57991231 60.1460957 7.6415312 59.8514685 7.60045194 58.6056826 7.8017403 57.6034861 8.24745025 56.3577003 8.7876425 55.1745516 9.368914 54.4971411 9.87213491 54.4043451 10.3157909 54.6316952 10.6772884 54.9031234 11.3797437 55.0840756 11.7207015 55.4042217 11.9815548 55.8357229 12.1417639 56.2904232 12.2424081 56.4272972 12.3225126 56.5850504 12.3861855 56.7892015 12.3430523 56.9469547 12.2629477 57.0606297 12.1623035 57.1279068 12.1212243 57.2183829 12.1212243 57.6266851 12.0411197 57.8308363 12.0226341 57.9677103 12.2218685 58.2855365 12.6470388 58.4224106 13.0681012 58.0813854 13.409059 57.5130101 13.5898078 57.0374307 13.6493727 56.2904232 13.7109916 55.926199 13.910226 55.7220479 14.1916189 55.7893249 14.6126813 56.1535491 14.8776425 56.2231461 15.2596796 55.9934761 15.1980607 55.6547708 14.9372074 55.2209496 14.7174334 54.7453703 14.6763541 53.6573375 14.5531164 53.1353602 14.2532378 52.9520882 14.1115143 52.9080101 13.9307656 52.7920151 13.7500169 52.611063 13.6493727 52.4301108 13.4891636 52.0682065 13.4891636 51.9545315 13.6103474 51.9313325 14.5941956 51.251602 14.7174334 50.9314559 14.6763541 50.2494055 14.4319325 49.1636927 14.4134469 48.7785894 14.5120371 48.2774912 15.3192445 46.7788363 15.4999933 45.7116826 15.900516 45.4866524 16.401683 45.3729773 16.843285 45.0992292 17.007602 45.2801814 17.1678111 45.0992292 17.2684553 45.0296322 17.4101788 45.0528312 17.6094132 45.1665063 17.7901619 44.758204 17.7511366 43.5796952 17.8497268 43.0136398 19.1786408 41.0394055 19.4785194 40.7865365 20.3617234 40.6287834 20.6020371 40.8329345 20.8628904 41.3108338 21.2243879 41.8096121 21.6885835 42.0810403 22.1712648 41.9000882 22.7936155 41.0162065 23.1941383 40.7424584 23.6193086 40.6055844 24.040371 40.3782343 24.4408938 40.0836071 24.7222867 39.7889798 25.202914 38.9491763 25.5253862 38.543194 26.2915143 38.0420957 26.531828 37.5177985 26.8727858 36.4297657 27.415032 35.4762872 29.4238078 32.9800756 30.7116425 31.7783678 30.6911029 31.4837406 30.8122867 30.6184181 30.8122867 30.460665 30.7321821 30.1405189 30.7321821 30.0059647 30.791747 29.8690907 31.0936796 29.4839874 31.1121653 28.894733 30.9724958 28.5096297 30.7116425 28.2126826 30.3070118 27.8739773 30.1468027 27.5306322 30.2659325 27.2383249 30.6726172 26.8300227 30.7321821 26.5121965 30.7321821 25.8997431 30.7527218 25.5819169 30.8328263 25.2176927 30.9314165 24.9207456 31.2333491 24.3106121 31.2538887 24.060063 31.1121653 23.7654358 30.9519562 23.4267305 30.851312 23.1297834 30.8718516 22.654204 31.0936796 22.654204 31.3935582 22.7678791 31.6544115 22.677403 31.734516 22.3572569 31.6749511 22.0881486 31.5537673 21.8584786 31.4942024 21.6543275 31.5537673 21.111471 31.6954907 20.7240479 31.7961349 20.2693476 31.7550556 19.591937 31.5352816 18.3647103 31.514742 17.773136 31.6338718 17.0029295 31.9152648 15.8684987 32.0159089 15.3001234 31.9953693 14.2097708 32.0754739 13.4859622 32.3363272 12.2355365 32.4965363 11.9641083 32.9627858 11.3516549 33.06343 11.1475038 33.1229949 10.1708262 33.1825599 9.98987406 33.0819157 9.60245088 32.841602 8.9459194 32.8231164 8.80904534 32.8025767 8.49121914 32.7614975 8.35666499 32.6423676 8.26618892 32.4965363 8.21979093 32.2973019 8.21979093 32.2171973 7.54006045 32.457511 6.28963476 32.457511 5.58670529 32.3157875 5.17840302 32.0549342 4.67730479 31.4346374 3.77022418 30.6109983 2.88402267 30.3706847 2.40844332 30.4918685 1.77279093 30.8122867 1.38768766 31.3134536 1.09306045 31.8351602 0.956186398 32.2171973 1.11625945 33.0223508 0.206858942 33.3242833 0.0491057935 33.3242833 0.139581864 33.342769 0.139581864 33.342769 0.18365995 33.7248061 2.56851637 34.0863035 4.9510529 34.8483238 9.71612594 35.2324148 12.0986625 35.6144519 14.4835189 35.9759494 16.8660554 36.3559325 19.2717909 36.6763508 21.3388212 37.0173086 23.4035315 37.6643069 27.5538312 40.3755379 27.0109748 43.0682833 26.4657985 45.7795143 25.8997431 48.4763676 25.3545668 51.1875987 24.7861914 53.8782901 24.220136 56.5710354 23.6540806"></polygon>
            </g>
        </g>
    </g>
</svg>