<?xml version="1.0" encoding="UTF-8"?>
<svg width="118px" height="164px" viewBox="0 0 118 164" version="1.1" xmlns="http://www.w3.org/2000/svg" xmlns:xlink="http://www.w3.org/1999/xlink">
    <!-- Generator: Sketch 51 (57462) - http://www.bohemiancoding.com/sketch -->
    <title>Utah</title>
    <desc>Created with Sketch.</desc>
    <defs></defs>
    <g id="Page-1" stroke="none" stroke-width="1" fill="none" fill-rule="evenodd">
        <g id="A5" transform="translate(-293.000000, -276.000000)">
            <g id="Utah" transform="translate(293.000000, 276.000000)">
                <polygon id="Fill-13" fill="#D6D6D6" points="78.6097875 8.8372796 78.4290388 10.7001587 78.1086206 14.423597 77.9484115 16.3050353 77.7676627 18.1679144 77.6074536 20.0307935 77.4451906 21.9145516 77.2829275 23.7727909 77.1227184 25.63567 76.9419696 27.5171083 76.6194975 31.2614257 76.4387487 33.1243048 76.2785396 35.008063 76.1183305 36.8663023 75.9581214 38.7523804 78.5502226 39.0493275 81.1402698 39.3184358 83.7138853 39.6153829 86.3059865 39.8868111 88.9001417 40.1814383 91.4901889 40.4551864 94.0822901 40.7289345 96.6743912 41.0003627 99.2664924 41.2485919 101.858594 41.5200202 104.452749 41.7705693 107.02431 42.0187985 109.634897 42.2693476 112.206459 42.5198967 114.819099 42.7704458 117.392715 43.020995 117.129808 46.7629924 116.868954 50.5328287 116.306169 58.0446625 116.045315 61.8098589 115.48253 69.3240126 115.221676 73.0938489 114.938229 76.8590453 114.677376 80.6288816 114.116644 88.1639144 113.855791 91.9291108 113.574398 95.6966272 113.311491 99.4641436 112.750759 107.022375 112.487852 110.789892 112.206459 114.578287 111.92712 118.345804 111.666266 122.136519 111.384874 125.927234 111.103481 129.694751 110.840573 133.485466 110.55918 137.276181 110.277788 141.064577 110.016934 144.832093 109.454148 152.413524 109.193295 156.204239 108.913956 159.994955 108.630509 163.78335 105.253794 163.467844 101.879133 163.150018 98.5024182 162.808992 95.1072175 162.467967 91.7325565 162.129262 88.3558415 161.788237 84.9791265 161.449531 81.6044654 161.082987 78.2277504 160.721083 74.8530894 160.356859 71.4763744 159.994955 68.0811737 159.609851 64.7044587 159.224748 61.3297976 158.839645 57.9736223 158.429023 54.5969073 158.041599 51.2222462 157.633297 47.8455312 157.224995 44.4708702 156.819013 41.0941551 156.387511 37.7379798 155.95369 34.3633187 155.522189 30.9866037 155.090688 27.6119427 154.661506 24.2557673 154.209126 20.8790523 153.754426 17.5043912 153.299725 14.1482159 152.821826 10.7715008 152.369446 7.41737943 151.893866 4.04066442 151.415967 0.684489039 150.917189 1.72995616 141.498398 2.27220236 136.777403 2.7959629 132.077287 3.33820911 127.356292 4.9053828 113.262904 5.44762901 108.544229 5.97138954 103.846433 6.51363575 99.1463174 8.08080944 85.0761285 8.62305565 80.3760126 9.14476223 75.7037355 9.6664688 71.0036196 10.210769 66.3290227 10.7324755 61.6289068 12.2996492 47.602796 12.8418954 42.9305189 13.8873626 33.579005 14.4111231 28.9276071 14.9328297 24.2483703 15.4750759 19.5969723 15.9967825 14.9455743 16.518489 10.2709773 17.5639562 0.963541562 21.3617336 1.50639798 25.1800506 2.05389421 28.9983676 2.59907053 32.796145 3.11872796 36.6144621 3.6175063 40.4307251 4.14180353 44.2490422 4.64058186 48.0673592 5.1416801 51.8651366 5.61725945 59.5017707 6.56841814 63.3180337 7.04631738 67.1363508 7.50101763 70.9546678 7.95571788 74.7729848 8.38489924"></polygon>
                <polygon id="Stroke-14" stroke="#F9F9F9" stroke-width="0.25" stroke-linecap="round" stroke-linejoin="round" points="78.6097875 8.8372796 78.4290388 10.7001587 78.1086206 14.423597 77.9484115 16.3050353 77.7676627 18.1679144 77.6074536 20.0307935 77.4451906 21.9145516 77.2829275 23.7727909 77.1227184 25.63567 76.9419696 27.5171083 76.6194975 31.2614257 76.4387487 33.1243048 76.2785396 35.008063 76.1183305 36.8663023 75.9581214 38.7523804 78.5502226 39.0493275 81.1402698 39.3184358 83.7138853 39.6153829 86.3059865 39.8868111 88.9001417 40.1814383 91.4901889 40.4551864 94.0822901 40.7289345 96.6743912 41.0003627 99.2664924 41.2485919 101.858594 41.5200202 104.452749 41.7705693 107.02431 42.0187985 109.634897 42.2693476 112.206459 42.5198967 114.819099 42.7704458 117.392715 43.020995 117.129808 46.7629924 116.868954 50.5328287 116.306169 58.0446625 116.045315 61.8098589 115.48253 69.3240126 115.221676 73.0938489 114.938229 76.8590453 114.677376 80.6288816 114.116644 88.1639144 113.855791 91.9291108 113.574398 95.6966272 113.311491 99.4641436 112.750759 107.022375 112.487852 110.789892 112.206459 114.578287 111.92712 118.345804 111.666266 122.136519 111.384874 125.927234 111.103481 129.694751 110.840573 133.485466 110.55918 137.276181 110.277788 141.064577 110.016934 144.832093 109.454148 152.413524 109.193295 156.204239 108.913956 159.994955 108.630509 163.78335 105.253794 163.467844 101.879133 163.150018 98.5024182 162.808992 95.1072175 162.467967 91.7325565 162.129262 88.3558415 161.788237 84.9791265 161.449531 81.6044654 161.082987 78.2277504 160.721083 74.8530894 160.356859 71.4763744 159.994955 68.0811737 159.609851 64.7044587 159.224748 61.3297976 158.839645 57.9736223 158.429023 54.5969073 158.041599 51.2222462 157.633297 47.8455312 157.224995 44.4708702 156.819013 41.0941551 156.387511 37.7379798 155.95369 34.3633187 155.522189 30.9866037 155.090688 27.6119427 154.661506 24.2557673 154.209126 20.8790523 153.754426 17.5043912 153.299725 14.1482159 152.821826 10.7715008 152.369446 7.41737943 151.893866 4.04066442 151.415967 0.684489039 150.917189 1.72995616 141.498398 2.27220236 136.777403 2.7959629 132.077287 3.33820911 127.356292 4.9053828 113.262904 5.44762901 108.544229 5.97138954 103.846433 6.51363575 99.1463174 8.08080944 85.0761285 8.62305565 80.3760126 9.14476223 75.7037355 9.6664688 71.0036196 10.210769 66.3290227 10.7324755 61.6289068 12.2996492 47.602796 12.8418954 42.9305189 13.8873626 33.579005 14.4111231 28.9276071 14.9328297 24.2483703 15.4750759 19.5969723 15.9967825 14.9455743 16.518489 10.2709773 17.5639562 0.963541562 21.3617336 1.50639798 25.1800506 2.05389421 28.9983676 2.59907053 32.796145 3.11872796 36.6144621 3.6175063 40.4307251 4.14180353 44.2490422 4.64058186 48.0673592 5.1416801 51.8651366 5.61725945 59.5017707 6.56841814 63.3180337 7.04631738 67.1363508 7.50101763 70.9546678 7.95571788 74.7729848 8.38489924"></polygon>
            </g>
        </g>
    </g>
</svg>