<?xml version="1.0" encoding="UTF-8"?>
<svg width="147px" height="92px" viewBox="0 0 147 92" version="1.1" xmlns="http://www.w3.org/2000/svg" xmlns:xlink="http://www.w3.org/1999/xlink">
    <!-- Generator: Sketch 51 (57462) - http://www.bohemiancoding.com/sketch -->
    <title>North Dakota</title>
    <desc>Created with Sketch.</desc>
    <defs></defs>
    <g id="Page-1" stroke="none" stroke-width="1" fill="none" fill-rule="evenodd">
        <g id="A5" transform="translate(-519.000000, -89.000000)">
            <g id="North-Dakota" transform="translate(519.000000, 89.000000)">
                <polygon id="Fill-45" fill="#D6D6D6" points="146.564742 90.119471 142.004944 90.2772242 137.443093 90.418738 132.881241 90.5532922 128.321444 90.6646474 123.759592 90.7783224 119.19774 90.8919975 114.637943 90.9847935 110.057605 91.0520705 105.516293 91.1216675 100.933902 91.1889446 96.3720506 91.2330227 91.812253 91.2562217 87.2504013 91.2794207 82.6885497 91.3026196 73.5463609 91.3026196 68.9845093 91.2794207 64.4206037 91.2562217 59.8587521 91.2121436 55.2989545 91.1448665 50.7165632 91.0984685 46.1547116 91.0079924 41.594914 90.9383955 37.0330624 90.8479194 32.4712108 90.7342443 27.9093592 90.6205693 23.3495616 90.4836952 18.7877099 90.3491411 14.2258583 90.2099471 9.66606071 90.052194 5.10420911 89.8735617 0.542357504 89.6902897 0.684080944 84.0830932 0.844290051 78.4782166 0.983959528 72.8733401 1.30437774 61.6821461 1.44610118 56.1236675 1.60836425 50.5419899 1.74803373 44.9765516 2.0705059 33.8572746 2.21222934 28.3196751 2.37243845 22.7820756 2.51210793 17.2421562 2.67231703 11.7300756 2.81404047 6.21335516 2.97424958 0.722153652 4.15938617 0.768551637 8.30017538 0.926304786 12.4573963 1.08405793 16.5981855 1.22093199 20.7574604 1.35548615 24.8982496 1.4923602 29.0575245 1.60835516 33.1962597 1.69883123 37.3534806 1.8125063 41.4942698 1.90066247 45.6535447 1.96793955 49.7943339 2.03521662 53.3497437 2.1048136 53.9536088 2.1048136 58.092344 2.15121159 62.2516189 2.19992947 66.4108938 2.24400756 70.549629 2.26720655 74.7109578 2.26720655 78.8496931 2.29040554 83.0110219 2.26720655 87.1497572 2.26720655 91.309032 2.24400756 95.4477673 2.19992947 99.6070422 2.17441058 103.745777 2.1048136 107.907106 2.05841562 112.066381 1.99113854 116.205116 1.90066247 120.341798 1.8125063 124.501073 1.72203023 128.641862 1.60835516 131.474277 1.53875819 131.433197 2.24400756 131.593406 2.717267 131.798803 3.15108816 131.878907 3.53619144 131.979551 4.10456675 132.100735 4.37367506 132.219865 4.62422418 132.320509 4.8770932 132.480718 5.87464987 133.08253 7.41970277 133.242739 8.52861461 133.423487 9.00419395 133.885629 9.98319144 134.068432 11.3658514 133.70488 12.479403 133.222199 13.5442368 133.08253 14.7714635 133.565211 16.4278715 133.684341 17.3349521 133.805524 17.8105315 133.805524 18.1306776 133.72542 18.4461839 133.503592 18.9681612 133.423487 19.3323854 133.805524 21.2161436 133.949302 21.6244458 134.049946 22.0791461 133.805524 24.0974584 133.84455 25.3014861 134.008867 26.3895189 134.349825 27.4125945 135.233029 29.5469018 135.473342 30.6140554 135.793761 31.5884131 136.479784 32.3794987 136.218931 33.087068 136.301089 33.7435995 136.820742 35.1517783 136.820742 35.3350504 136.722152 35.5368816 136.761177 35.6737557 136.820742 35.7201537 136.902901 35.7433526 136.941926 35.7874307 136.980951 35.8570277 137.04257 35.9683829 137.523197 36.5344383 137.662867 36.8986625 137.92372 37.9194181 138.205113 38.5109924 138.470074 38.9424937 138.689848 39.4389521 138.831572 40.4852267 139.071885 41.2786322 139.392304 41.5291814 139.472408 41.6637355 139.492948 41.8678866 139.453922 42.0279597 139.373818 42.1648338 139.353278 42.2785088 139.392304 42.9814383 139.373818 43.5498136 139.412843 44.069471 139.614132 44.5450504 139.634671 44.9765516 139.353278 46.4775264 139.353278 47.0667809 139.472408 47.2268539 139.634671 47.407806 139.813366 47.6560353 139.895524 47.9529824 139.854445 51.6741008 139.93455 52.3329521 140.254968 53.7388111 140.335073 54.3512645 140.316587 54.5786146 140.254968 54.8291637 140.195403 55.1237909 140.215943 55.467136 140.515821 56.6665239 140.556901 57.2325793 140.456256 59.1627355 140.515821 59.5478388 140.616465 59.8215869 140.881427 60.2530882 140.961531 60.6405113 140.961531 60.8678615 140.881427 60.8678615 141.000556 60.9351385 141.222384 61.0024156 141.423673 61.1392897 141.643447 61.2065668 141.764631 61.3202418 141.844735 61.501194 141.824196 61.638068 141.764631 61.7726222 141.663987 62.2482015 141.403133 62.6565038 141.343568 62.9534509 141.403133 63.9533275 141.382594 64.2711537 141.323029 64.4729849 141.16282 64.9485642 141.12174 65.2455113 141.201845 65.7257305 141.503777 66.7209673 141.583882 67.3774987 141.524317 68.03867 141.323029 69.0594257 141.382594 69.6927582 141.583882 70.1033804 142.224718 70.9895819 142.366442 71.5556373 142.506111 72.6459899 142.545137 73.2607632 142.426007 73.8708967 142.545137 74.0750479 142.867609 74.4369521 142.990847 74.6643023 143.031926 74.8916524 143.031926 75.1422015 143.070951 75.4368287 143.212675 75.7569748 144.395757 77.6384131 145.077673 78.4109395 145.381659 78.9097179 145.523383 79.5221713 145.523383 81.4291285 145.582948 82.0183829 145.663052 82.3362091 145.743157 82.5844383 146.223784 83.3592846 146.223784 83.5634358 146.184759 83.7907859 146.184759 84.1294912 146.264863 84.2872443 146.425073 85.3799169 146.425073 85.7395013 146.324428 86.5816247 146.104654 87.2381562 146.125194 87.9457254"></polygon>
                <polygon id="Stroke-46" stroke="#F9F9F9" stroke-width="0.25" stroke-linecap="round" stroke-linejoin="round" points="146.564742 90.119471 142.004944 90.2772242 137.443093 90.418738 132.881241 90.5532922 128.321444 90.6646474 123.759592 90.7783224 119.19774 90.8919975 114.637943 90.9847935 110.057605 91.0520705 105.516293 91.1216675 100.933902 91.1889446 96.3720506 91.2330227 91.812253 91.2562217 87.2504013 91.2794207 82.6885497 91.3026196 73.5463609 91.3026196 68.9845093 91.2794207 64.4206037 91.2562217 59.8587521 91.2121436 55.2989545 91.1448665 50.7165632 91.0984685 46.1547116 91.0079924 41.594914 90.9383955 37.0330624 90.8479194 32.4712108 90.7342443 27.9093592 90.6205693 23.3495616 90.4836952 18.7877099 90.3491411 14.2258583 90.2099471 9.66606071 90.052194 5.10420911 89.8735617 0.542357504 89.6902897 0.684080944 84.0830932 0.844290051 78.4782166 0.983959528 72.8733401 1.30437774 61.6821461 1.44610118 56.1236675 1.60836425 50.5419899 1.74803373 44.9765516 2.0705059 33.8572746 2.21222934 28.3196751 2.37243845 22.7820756 2.51210793 17.2421562 2.67231703 11.7300756 2.81404047 6.21335516 2.97424958 0.722153652 4.15938617 0.768551637 8.30017538 0.926304786 12.4573963 1.08405793 16.5981855 1.22093199 20.7574604 1.35548615 24.8982496 1.4923602 29.0575245 1.60835516 33.1962597 1.69883123 37.3534806 1.8125063 41.4942698 1.90066247 45.6535447 1.96793955 49.7943339 2.03521662 53.3497437 2.1048136 53.9536088 2.1048136 58.092344 2.15121159 62.2516189 2.19992947 66.4108938 2.24400756 70.549629 2.26720655 74.7109578 2.26720655 78.8496931 2.29040554 83.0110219 2.26720655 87.1497572 2.26720655 91.309032 2.24400756 95.4477673 2.19992947 99.6070422 2.17441058 103.745777 2.1048136 107.907106 2.05841562 112.066381 1.99113854 116.205116 1.90066247 120.341798 1.8125063 124.501073 1.72203023 128.641862 1.60835516 131.474277 1.53875819 131.433197 2.24400756 131.593406 2.717267 131.798803 3.15108816 131.878907 3.53619144 131.979551 4.10456675 132.100735 4.37367506 132.219865 4.62422418 132.320509 4.8770932 132.480718 5.87464987 133.08253 7.41970277 133.242739 8.52861461 133.423487 9.00419395 133.885629 9.98319144 134.068432 11.3658514 133.70488 12.479403 133.222199 13.5442368 133.08253 14.7714635 133.565211 16.4278715 133.684341 17.3349521 133.805524 17.8105315 133.805524 18.1306776 133.72542 18.4461839 133.503592 18.9681612 133.423487 19.3323854 133.805524 21.2161436 133.949302 21.6244458 134.049946 22.0791461 133.805524 24.0974584 133.84455 25.3014861 134.008867 26.3895189 134.349825 27.4125945 135.233029 29.5469018 135.473342 30.6140554 135.793761 31.5884131 136.479784 32.3794987 136.218931 33.087068 136.301089 33.7435995 136.820742 35.1517783 136.820742 35.3350504 136.722152 35.5368816 136.761177 35.6737557 136.820742 35.7201537 136.902901 35.7433526 136.941926 35.7874307 136.980951 35.8570277 137.04257 35.9683829 137.523197 36.5344383 137.662867 36.8986625 137.92372 37.9194181 138.205113 38.5109924 138.470074 38.9424937 138.689848 39.4389521 138.831572 40.4852267 139.071885 41.2786322 139.392304 41.5291814 139.472408 41.6637355 139.492948 41.8678866 139.453922 42.0279597 139.373818 42.1648338 139.353278 42.2785088 139.392304 42.9814383 139.373818 43.5498136 139.412843 44.069471 139.614132 44.5450504 139.634671 44.9765516 139.353278 46.4775264 139.353278 47.0667809 139.472408 47.2268539 139.634671 47.407806 139.813366 47.6560353 139.895524 47.9529824 139.854445 51.6741008 139.93455 52.3329521 140.254968 53.7388111 140.335073 54.3512645 140.316587 54.5786146 140.254968 54.8291637 140.195403 55.1237909 140.215943 55.467136 140.515821 56.6665239 140.556901 57.2325793 140.456256 59.1627355 140.515821 59.5478388 140.616465 59.8215869 140.881427 60.2530882 140.961531 60.6405113 140.961531 60.8678615 140.881427 60.8678615 141.000556 60.9351385 141.222384 61.0024156 141.423673 61.1392897 141.643447 61.2065668 141.764631 61.3202418 141.844735 61.501194 141.824196 61.638068 141.764631 61.7726222 141.663987 62.2482015 141.403133 62.6565038 141.343568 62.9534509 141.403133 63.9533275 141.382594 64.2711537 141.323029 64.4729849 141.16282 64.9485642 141.12174 65.2455113 141.201845 65.7257305 141.503777 66.7209673 141.583882 67.3774987 141.524317 68.03867 141.323029 69.0594257 141.382594 69.6927582 141.583882 70.1033804 142.224718 70.9895819 142.366442 71.5556373 142.506111 72.6459899 142.545137 73.2607632 142.426007 73.8708967 142.545137 74.0750479 142.867609 74.4369521 142.990847 74.6643023 143.031926 74.8916524 143.031926 75.1422015 143.070951 75.4368287 143.212675 75.7569748 144.395757 77.6384131 145.077673 78.4109395 145.381659 78.9097179 145.523383 79.5221713 145.523383 81.4291285 145.582948 82.0183829 145.663052 82.3362091 145.743157 82.5844383 146.223784 83.3592846 146.223784 83.5634358 146.184759 83.7907859 146.184759 84.1294912 146.264863 84.2872443 146.425073 85.3799169 146.425073 85.7395013 146.324428 86.5816247 146.104654 87.2381562 146.125194 87.9457254"></polygon>
            </g>
        </g>
    </g>
</svg>