<?xml version="1.0" encoding="UTF-8"?>
<svg width="128px" height="121px" viewBox="0 0 128 121" version="1.1" xmlns="http://www.w3.org/2000/svg" xmlns:xlink="http://www.w3.org/1999/xlink">
    <!-- Generator: Sketch 51 (57462) - http://www.bohemiancoding.com/sketch -->
    <title>Louisiana</title>
    <desc>Created with Sketch.</desc>
    <defs></defs>
    <g id="Page-1" stroke="none" stroke-width="1" fill="none" fill-rule="evenodd">
        <g id="A5" transform="translate(-733.000000, -561.000000)">
            <g id="Louisiana" transform="translate(733.000000, 561.000000)">
                <path d="M59.622887,106.015161 L59.0375076,106.015161 L58.3145126,105.880607 L58.293973,105.834209 L57.5524924,105.541902 L56.9075481,104.929448 L56.525511,104.678899 L55.2027589,104.451549 L54.8967184,104.495627 L54.8166138,104.609302 L54.5968398,105.019924 L54.475656,105.156798 L53.9149241,105.405028 L53.4733221,105.495504 L53.0317201,105.676456 L52.5059056,106.26803 L52.5059056,106.699531 L52.9310759,107.061436 L55.4019933,108.058992 L55.6423069,108.309542 L55.9031602,108.400018 L57.3121788,109.309418 L58.2138685,109.03567 L58.5363406,108.991592 L58.6965497,108.901116 L58.735575,108.671446 L58.7150354,108.263144 L58.8156796,107.743486 L59.0970725,107.400141 L59.9227656,106.790008 L60.1035143,106.314428 L59.9433052,106.084758 L59.622887,106.015161 L59.622887,106.015161 Z M79.2710961,120.31734 L79.332715,120.31734 L79.0307825,120.226864 L79.2710961,120.31734 L79.2710961,120.31734 Z M79.332715,120.31734 L80.0372243,120.54237 L80.8608634,120.475093 L80.2980776,120.340539 L79.332715,120.31734 L79.332715,120.31734 Z M81.9679494,120.384617 L81.7830927,120.340539 L81.7029882,120.451894 L81.7420135,120.588768 L81.9042766,120.679244 L82.0870793,120.725642 L82.1281585,120.656045 L82.0685936,120.521491 L81.9679494,120.384617 L81.9679494,120.384617 Z M86.1826813,119.475217 L86.0840911,119.498416 L85.6815143,119.498416 L85.6219494,119.588892 L85.4617403,119.748965 L85.1598078,119.839441 L84.9605734,119.769844 L84.8804688,119.658489 L84.7387454,119.679368 L84.258118,119.953116 L84.1533659,120.110869 L83.5310152,120.361418 L83.5926341,120.54237 L83.9541315,120.498292 L85.7225936,119.839441 L86.1046307,119.612091 L86.3839696,119.363861 L86.4291568,119.294264 L86.2648398,119.40794 L86.1826813,119.475217 L86.1826813,119.475217 Z M91.7715143,119.294264 L91.4901214,119.15971 L90.904742,118.955559 L89.5018853,118.772287 L89.4813457,118.93236 L90.6438887,119.340662 L91.7119494,119.521615 L91.8721585,119.498416 L91.8516189,119.384741 L91.7715143,119.294264 L91.7715143,119.294264 Z M124.343258,97.98367 L124.441848,97.846796 L124.322718,97.960471 L124.12143,98.1878212 L124.14197,98.2087003 L124.343258,97.98367 L124.343258,97.98367 Z M117.209845,89.8593829 L117.331029,89.7689068 L117.250924,89.6297128 L117.230384,89.4951587 L117.310489,89.2678086 L116.708678,89.4951587 L116.308155,89.7225088 L115.946658,90.1308111 L116.006223,90.2676851 L116.207511,90.1540101 L116.447825,90.040335 L116.868887,89.903461 L117.209845,89.8593829 L117.209845,89.8593829 Z M119.781406,103.565348 L120.142904,103.247521 L120.247656,102.771942 L120.206577,102.681466 L120.186037,102.614189 L120.142904,102.567791 L120.04226,102.614189 L119.962155,103.04337 L119.641737,103.361196 L118.859177,103.771819 L119.300779,103.74862 L119.781406,103.565348 L119.781406,103.565348 Z M90.6438887,113.687068 L90.7650725,113.506116 L90.904742,113.257887 L90.8657167,112.986458 L90.6048634,113.144212 L90.4836796,113.826262 L90.5452985,114.255443 L90.5637841,113.916738 L90.6438887,113.687068 L90.6438887,113.687068 Z M121.952445,101.614312 L122.57685,100.614436 L122.656954,100.433484 L122.537825,100.503081 L122.496745,100.547159 L121.629973,101.90894 L121.790182,101.795264 L121.952445,101.614312 L121.952445,101.614312 Z M114.777953,86.4537708 L115.240094,86.2960176 L115.260634,86.2264207 L115.320199,86.0686675 L115.441383,85.9109144 L115.601592,85.8366776 L115.685804,85.8621965 L115.765909,85.9317935 L115.866553,86.0013904 L116.047302,86.0245894 L116.065788,85.9549924 L116.127406,85.7925995 L116.228051,85.6139673 L116.38826,85.5443703 L116.569008,85.5907683 L116.667599,85.7694005 L116.768243,85.9781914 L116.848347,86.1150655 L117.209845,86.5906448 L117.370054,86.6347229 L117.491238,86.2728186 L117.852735,86.3400957 L118.056078,86.0918665 L118.115642,85.6371662 L118.056078,85.159267 L117.891761,85.159267 L117.852735,85.3634181 L117.752091,85.5443703 L117.630907,85.7044433 L117.470698,85.8621965 L117.429619,85.7276423 L117.289949,85.4330151 L117.331029,85.0015139 L116.889427,84.8437607 L116.548469,84.6396096 L116.848347,84.0248363 L117.429619,83.1618338 L117.711012,82.8672065 L118.017052,82.6421763 L117.975973,82.4380252 L117.630907,82.5725793 L117.349514,82.9136045 L116.948992,83.5956549 L116.406745,84.1617103 L116.086327,84.3867406 L115.745369,84.5676927 L115.965143,85.0687909 L115.786449,85.2729421 L115.480408,85.2961411 L115.320199,85.3402191 L115.240094,85.5675693 L114.999781,85.7462015 L114.697848,85.8853955 L114.418509,85.9549924 L114.597204,86.3632947 L114.777953,86.4537708 L114.777953,86.4537708 Z M115.72483,89.9266599 L115.905578,89.604194 L116.186971,88.8595063 L116.326641,88.3352091 L116.207511,88.3352091 L115.885039,88.9963804 L115.685804,89.5160378 L115.601592,89.8129849 L115.420843,90.1540101 L115.219555,90.4927154 L115.340739,90.4486373 L115.72483,89.9266599 L115.72483,89.9266599 Z M116.667599,93.5132242 L116.527929,93.5596222 L116.308155,93.7173753 L116.065788,93.7846524 L115.320199,93.6500982 L115.281174,93.8310504 L116.468364,94.784529 L116.667599,93.5132242 L116.667599,93.5132242 Z M82.8696391,120.294141 L82.7689949,120.407816 L82.7689949,120.521491 L82.7505093,120.632846 L82.8100742,120.632846 L83.0298482,120.428695 L83.0914671,120.203665 L83.0113626,120.203665 L82.8696391,120.294141 L82.8696391,120.294141 Z M123.661342,112.281209 L123.679828,112.508559 L123.860577,112.48536 L123.940681,112.167534 L124.10089,112.077058 L124.622597,112.190733 L124.423363,111.896106 L124.322718,111.849708 L124.10089,111.828829 L124.082405,111.601479 L124.563032,111.555081 L124.281639,111.146778 L124.0023,110.965826 L123.640803,110.942627 L123.24028,111.053982 L123.35941,111.350929 L123.421029,111.487804 L123.119096,111.487804 L122.737059,111.420526 L122.394047,111.214055 L122.231784,110.87303 L121.22945,110.668879 L121.208911,110.467048 L121.469764,110.353373 L121.691592,110.216499 L121.851801,110.012348 L121.970931,109.738599 L121.710078,109.648123 L121.611487,109.399894 L121.490304,109.082068 L121.24999,108.764242 L121.169885,108.854718 L120.948057,109.03567 L120.849467,108.671446 L120.687204,108.467295 L120.526995,108.309542 L120.366786,108.038113 L120.286681,108.128589 L120.062799,108.263144 L120.04226,107.924438 L120.00118,107.629811 L119.941616,107.448859 L119.840971,107.448859 L119.801946,107.379262 L119.781406,107.288786 L119.740327,107.242388 L119.641737,107.265587 L119.479474,107.833962 L119.14057,108.263144 L118.737993,108.513693 L118.438115,108.444096 L118.316931,108.242264 L118.195747,107.676209 L118.035538,107.448859 L117.772631,107.332864 L117.571342,107.379262 L117.370054,107.472058 L116.889427,107.606612 L116.548469,107.787564 L116.36772,107.833962 L116.106867,107.810763 L115.72483,107.562534 L115.521487,107.516136 L115.400304,107.42334 L115.420843,107.219189 L115.542027,106.97096 L115.786449,106.857285 L116.047302,106.834086 L116.246536,106.766809 L116.38826,106.629935 L116.36772,106.472181 L116.065788,106.448982 L115.786449,106.425783 L115.542027,106.516259 L115.361278,106.676332 L115.219555,106.699531 L115.059346,106.585856 L114.858057,106.585856 L114.638283,106.653134 L114.558179,106.585856 L114.057012,106.335307 L113.535305,106.381705 L112.167366,106.880484 L111.846948,106.880484 L111.586094,106.766809 L111.444371,106.472181 L111.565555,106.404904 L111.805868,106.335307 L112.027696,106.107957 L112.027696,105.58598 L111.686739,105.834209 L111.545015,105.632378 L111.606634,105.200877 L111.805868,104.769375 L111.785329,104.542025 L111.364266,104.565224 L110.678243,104.201 L110.27772,104.089645 L110.318799,103.97597 L110.337285,103.952771 L110.437929,103.839096 L110.076432,103.704542 L109.49516,103.839096 L108.913889,103.495751 L108.248405,103.317118 L108.008091,103.157045 L107.845828,102.862418 L107.665079,102.203567 L107.50487,101.864861 L106.76339,101.022738 L106.599073,100.684033 L106.683285,100.660834 L106.903059,100.637635 L106.72231,100.366207 L106.477889,100.252531 L105.896617,100.138856 L106.703825,99.8674282 L108.690007,100.252531 L109.133663,100.004302 L108.468179,99.36633 L108.429153,99.2317758 L108.429153,99.1644987 L108.408614,99.0276247 L107.907447,98.8466725 L108.127221,98.6865995 L108.207325,98.6425214 L107.866368,98.3687733 L107.225531,98.0045491 L106.985218,97.6890428 L107.706159,97.869995 L108.913889,98.5752443 L109.595804,98.6657204 L110.236641,98.6425214 L110.980175,98.7561965 L111.263622,98.9371486 L111.565555,99.2317758 L111.906513,99.456806 L112.327575,99.456806 L112.307035,99.2317758 L111.464911,98.5265264 L111.08082,98.3223753 L111.204057,98.3014962 L111.304702,98.2782972 L111.405346,98.2550982 L111.565555,98.2782972 L111.263622,97.937272 L110.778887,97.960471 L110.25718,98.0741461 L109.776553,98.0509471 L109.474621,97.7563199 L109.275386,97.2552217 L109.295926,96.6891662 L109.616344,96.1695088 L109.836118,96.0767128 L110.357825,96.0999118 L110.577599,96.0558338 L110.840506,95.8725617 L110.959636,95.7124887 L111.165032,95.1464332 L111.464911,94.714932 L111.785329,94.3298287 L111.966078,93.9215264 L111.826408,93.3949093 L112.126287,93.3717103 L112.428219,93.4436272 L112.689073,93.6037003 L112.888307,93.8078514 L113.190239,94.3066297 L113.391528,94.4875819 L113.674975,94.4643829 L113.654435,94.668534 L113.635949,95.1023552 L113.61541,95.3065063 L113.816698,95.0791562 L113.976907,94.4643829 L114.157656,94.2161537 L114.338405,94.2161537 L114.899137,94.3066297 L115.13945,94.3066297 L114.798492,94.1256776 L114.597204,93.8078514 L114.436995,93.4436272 L114.217221,93.125801 L114.317865,92.9216499 L114.478074,92.6966196 L114.679363,92.5133476 L114.979241,92.4460705 L114.878597,92.3091965 L114.839572,92.2164005 L114.759467,92.1236045 L114.617744,92.0586474 L114.759467,91.9681713 L115.219555,91.583068 L114.537639,91.3557179 L114.37743,91.2443627 L114.237761,91.4693929 L114.116577,91.583068 L113.775619,91.7408212 L113.755079,91.5157909 L114.178196,91.1074887 L114.338405,90.8314207 L114.237761,90.5159144 L114.036472,90.4718363 L113.755079,90.6295894 L113.514766,90.8754987 L113.391528,91.1306877 L113.249804,91.1515668 L113.249804,90.9938136 L113.210779,90.9706146 L113.231319,90.9474156 L113.069056,90.8314207 L112.689073,90.3581612 L112.668533,90.1748892 L113.270344,89.6993098 L113.47574,90.1748892 L113.917342,90.017136 L114.137116,89.5392368 L113.716054,88.9963804 L113.370988,88.9267834 L112.728098,89.1309345 L112.428219,89.1309345 L112.107801,88.9731814 L112.146826,88.8595063 L112.368654,88.7458312 L112.528863,88.520801 L112.508324,88.2470529 L112.38714,88.0197028 L112.327575,87.7691537 L112.448759,87.4536474 L112.728098,87.2262972 L113.391528,87.2030982 L113.695514,87.0871033 L113.956368,86.794796 L113.976907,86.5442469 L113.816698,86.3864937 L113.47574,86.2960176 L113.311423,86.3864937 L112.849282,86.8156751 L112.728098,86.9966272 L112.588428,87.0198262 L112.528863,86.9061511 L112.508324,86.885272 L112.467245,86.885272 L112.38714,86.8388741 L112.368654,86.6115239 L112.547349,86.5906448 L112.528863,86.4096927 L112.348115,86.2960176 L111.785329,86.0918665 L111.545015,86.0686675 L111.384806,85.9109144 L111.263622,85.8853955 L111.099305,86.0245894 L111.06028,86.2055416 L111.099305,86.5906448 L111.08082,86.748398 L110.980175,87.0198262 L110.900071,87.2262972 L110.819966,87.4304484 L110.678243,87.6345995 L110.437929,87.8387506 L109.975788,88.0197028 L109.756013,88.1542569 L109.456135,88.497602 L109.355491,88.8827053 L109.435595,89.993937 L109.394516,90.6527884 L109.195282,91.3348388 L108.870755,91.9449723 L108.488718,92.3091965 L107.987551,92.5133476 L107.445305,92.5597456 L106.923599,92.3996725 L106.438863,91.9913703 L105.837052,91.3116398 L105.896617,90.9474156 L106.17801,90.4022393 L106.219089,90.2212872 L106.017801,90.1076121 L105.255781,90.6063904 L104.894283,90.7641436 L104.249339,90.8082217 L103.846762,90.7432645 L103.565369,90.4486373 L103.28603,89.903461 L103.084742,89.3350856 L103.004637,88.8595063 L103.084742,88.3816071 L103.366135,87.9060277 L103.826223,87.5441234 L104.473221,87.4977254 L105.095572,87.7250756 L105.576199,88.1774559 L105.795973,87.9060277 L105.777487,87.6114005 L105.676843,87.3399723 L105.715868,87.0198262 L105.896617,86.8388741 L106.560047,86.5001688 L106.599073,85.7276423 L106.804469,85.3193401 L107.104347,85.0015139 L107.365201,84.4331385 L107.104347,84.2753854 L106.662745,83.7974861 L106.31768,83.686131 L105.715868,83.9575592 L105.635764,84.1849093 L105.777487,84.2962645 L105.976722,84.3658615 L106.056826,84.3426625 L106.056826,84.1849093 L106.17801,84.0944332 L106.299194,84.1385113 L106.379298,84.3194635 L106.338219,84.5676927 L106.237575,84.7068866 L105.937696,85.0015139 L105.816513,85.0687909 L105.455015,85.0479118 L105.315346,85.0687909 L105.315346,85.182466 L105.054492,85.9317935 L104.974388,85.7694005 L104.873744,85.6812443 L104.773099,85.6139673 L104.692995,85.5443703 L104.834718,85.228864 L105.015467,84.4099395 L105.235241,84.0248363 L105.033953,83.616534 L104.853204,83.639733 L104.814179,84.0480353 L104.713535,84.4563375 L104.532786,84.8669597 L104.087076,85.6812443 L104.027511,85.9317935 L103.988486,86.0686675 L103.787197,86.0686675 L103.446239,85.9781914 L103.064202,85.7925995 L102.723245,85.5443703 L102.563035,85.252063 L102.462391,84.7973627 L102.263157,84.6396096 L101.716803,84.5908917 L101.355305,85.6139673 L100.774034,86.5001688 L99.266425,87.9965038 L98.8248229,88.267932 L98.3441956,88.451204 L96.774968,88.7690302 L95.8527386,89.2005315 L95.3063845,89.2446096 L93.8213693,88.9267834 L92.9361113,88.3816071 L91.2313221,88.3816071 L90.2433659,88.0429018 L89.3807015,87.3167733 L88.8589949,86.2496196 L88.8589949,84.8437607 L89.3211366,83.8438841 L90.904742,81.9601259 L91.4510961,81.0066474 L92.1925767,79.4824736 L92.675258,78.805063 L93.1805329,78.3294836 L93.9425531,78.1438917 L95.0249916,78.2111688 L96.1526172,78.4431587 L97.0748465,78.7609849 L98.2230118,79.6912645 L98.4222462,79.7817406 L98.54343,80.0531688 L99.1247015,81.1667204 L99.3670691,81.4613476 L100.433076,81.5750227 L100.693929,81.5054257 L101.114992,81.3244736 L101.375845,81.2571965 L101.897551,81.4149496 L102.784863,82.120199 L103.304516,82.120199 L104.06859,81.7327758 L104.512246,81.7559748 L104.754614,82.2779521 L104.734074,82.5725793 L104.692995,82.7767305 L104.692995,82.9808816 L104.834718,83.2059118 L105.015467,83.317267 L105.496094,83.4355819 L105.676843,83.5492569 L106.038341,83.317267 L106.397784,83.2963879 L107.204992,83.3915038 L107.587029,83.2267909 L107.946472,83.0040806 L108.26689,82.9136045 L108.529798,83.2499899 L108.28743,83.4355819 L108.147761,83.5051788 L107.925933,83.5260579 L108.349049,83.8670831 L109.033019,83.5492569 L109.675909,82.9808816 L109.897737,82.5493804 L109.716988,82.3684282 L109.415056,82.3011511 L109.133663,82.4380252 L108.973454,82.7767305 L108.388074,82.143398 L107.545949,80.347796 L107.024243,79.5056725 L106.964678,78.2575668 L106.804469,77.7611083 L106.056826,76.6475567 L105.857592,76.1719773 L105.816513,75.9237481 L105.795973,75.3785718 L105.756948,75.1280227 L105.676843,74.9238715 L105.235241,74.1513451 L104.532786,73.6989647 L104.148695,72.7895642 L103.746118,72.518136 L102.965612,72.2699068 L102.583575,71.8801637 L101.856472,70.4743048 L102.09884,69.8177733 L101.856472,69.3143552 L101.476489,68.8874937 L101.215636,68.4559924 L101.195096,67.9108161 L101.31628,67.2310856 L101.657238,66.0966549 L101.476489,65.5259597 L101.636698,64.9831033 L102.137865,64.1432997 L102.363801,62.3500176 L102.803349,61.1715088 L103.025177,60.0579572 L103.084742,58.9676045 L102.984098,58.5152242 L102.117325,58.6288992 L101.114992,58.7193753 L100.654904,58.7634534 L99.3465295,58.9003275 L97.2966745,59.1044786 L94.6655481,59.3782267 L91.5312007,59.6960529 L88.0333019,60.0347582 L84.2991973,60.4175416 L80.439801,60.7864055 L76.5804047,61.1483098 L72.8421922,61.4870151 L69.3463474,61.8025214 L66.214054,62.0785894 L63.5582799,62.3291385 L61.5289646,62.4868917 L60.2041585,62.6005668 L59.7420169,62.6446448 L58.6760101,62.7351209 L58.5363406,62.7583199 L60.2246981,60.8977607 L60.0234098,60.1252343 L59.2572816,59.2158338 L58.9368634,58.3783501 L58.9368634,58.081403 L59.1381518,57.5385466 L59.1771771,57.1998413 L59.236742,57.0861662 L59.3189005,56.7428212 L59.3373862,56.4041159 L59.1977167,56.2463627 L58.8772985,56.0422116 L58.4747218,55.5643123 L58.1953828,54.9518589 L58.1953828,54.4762796 L58.5363406,54.2234106 L59.0580472,54.1306146 L60.1651332,54.0865365 L60.6457605,53.9287834 L60.9066138,53.5668791 L61.0257437,53.0657809 L61.1880067,51.0706675 L61.3872411,50.7760403 L61.4283204,50.5022922 L61.4283204,49.9130378 L61.3687555,49.7320856 L61.0257437,49.1149924 L60.78543,48.7786071 L60.6663002,48.5744559 L60.4650118,47.2567531 L60.9456391,46.3032746 L62.4758415,44.8510176 L62.4758415,44.6468665 L62.5744317,44.3081612 L62.5354064,43.5820327 L62.7962597,40.9025491 L62.7757201,40.2900957 L62.835285,39.7681184 L63.4370961,38.2485844 L63.6589241,37.0909547 L63.8396728,36.5225793 L64.1436594,35.977403 L64.5256965,35.6386977 L65.4684654,35.3185516 L65.9100675,35.0888816 L66.3146981,34.6620202 L67.2780067,33.1865642 L67.3971366,32.915136 L67.5778853,32.2562846 L67.7380944,31.9825365 L67.9578685,31.8015844 L68.6438921,31.4837582 L69.4264519,30.7135516 L69.8475143,29.623199 L69.7879494,28.5096474 L69.0259292,27.6698438 L69.0053895,27.4633728 L68.9848499,27.1710655 L69.0464688,26.8555592 L69.2477572,26.5794912 L70.4698651,26.5354131 L71.1558887,24.9230831 L71.7371602,22.9047708 L72.6799292,21.656665 L72.6614435,21.4293149 L72.8421922,21.3156398 L72.8812175,20.8841385 L72.7004688,20.4317582 L72.1582226,20.2484861 L71.3571771,20.1812091 L70.97514,20.044335 L70.7943912,19.8401839 L70.5109444,18.6570353 L69.9481585,18.1396977 L69.2272175,17.8682695 L68.424118,17.4089295 L68.1201315,17.005267 L68.0194874,16.5064887 L67.9578685,15.2583829 L67.9989477,14.9614358 L68.0790523,14.6204106 L68.1201315,14.2353073 L68.040027,13.8942821 L67.8592782,13.666932 L67.2780067,13.3282267 L67.0356391,13.1240756 L66.7357605,12.7134534 L66.5139325,12.2378741 L66.3537234,11.6718186 L66.2530793,11.0106474 L66.4749073,10.558267 L67.0356391,10.3773149 L67.6579899,10.2868388 L68.0585126,10.1267657 L68.3809848,9.44703526 L68.2392614,8.92273804 L67.818199,8.58403275 L66.6741417,8.46803778 L66.3742631,8.24300756 L66.2941585,7.8138262 L66.3742631,6.5865995 L66.6351164,5.08794458 L66.8364047,4.7445995 L67.097258,4.54276826 L67.4176762,4.09038791 L67.6970152,3.52201259 L67.8777639,2.97915617 L67.3971366,2.41078086 L67.097258,2.11383375 L66.7953255,2.02567758 L66.433828,2.00247859 L66.0497369,1.88880353 L65.7293187,1.68465239 L65.5670556,1.41322418 L65.54857,0.390148615 L65.2260978,0.459745592 L61.1880067,0.821649874 L57.1273221,1.18355416 L53.0727993,1.52689924 L49.0326543,1.86560453 L44.9925093,2.20430982 L40.9318246,2.54533501 L36.8731939,2.86548111 L32.8371568,3.18098741 L28.7764722,3.47561461 L24.7178415,3.77024181 L20.6776965,4.06718892 L16.6170118,4.36181612 L12.562489,4.63556423 L8.50180438,4.90699244 L4.46165936,5.18074055 L0.403028668,5.42896977 L0.883655987,16.1608237 L1.06851265,19.7497078 L1.38893086,26.9228363 L1.5696796,30.4862015 L1.7298887,34.0704458 L1.83053288,36.3393073 L1.85107251,36.4065844 L1.91063744,36.4993804 L2.03182125,36.6571335 L2.35223946,36.9100025 L2.51244857,36.9772796 L2.81438111,37.2255088 L2.91297133,37.3623829 L3.43878583,38.3158615 L3.52094435,38.4295365 L3.61953457,38.5200126 L3.74071838,38.5872897 L4.50273862,38.970073 L4.72251265,39.1533451 L5.1846543,39.6544433 L5.52972007,40.0859446 L5.7494941,40.4942469 L5.87067791,40.767995 L5.97132209,41.0626222 L6.17261046,41.4454055 L6.79290725,42.378005 L6.8730118,42.6494332 L7.0948398,43.830262 L7.19548398,44.1921662 L7.2940742,44.4218363 L7.37417875,44.4891134 L7.49536256,44.7164635 L7.53438786,44.8510176 L7.53438786,45.0319698 L7.45633727,45.533068 L7.41525801,45.8068161 L7.43579764,46.6674987 L7.41525801,46.9180479 L7.37417875,47.099 L7.2940742,47.3263501 L7.21396965,47.6418564 L7.21396965,47.8436877 L7.2550489,48.0756776 L7.33515346,48.3703048 L7.41525801,48.5512569 L7.55492749,48.8226851 L7.8198887,49.1637103 L8.46277909,49.8898388 L8.66201349,50.0707909 L8.7831973,50.1403879 L8.92286678,50.207665 L9.48565261,50.3630982 L9.62532209,50.4350151 L9.7465059,50.5022922 L9.82661046,50.6182872 L9.84509612,50.7992393 L9.7855312,50.9569924 L9.72596627,51.0474685 L9.70542664,51.0706675 L9.70542664,51.0938665 L9.46511298,51.2748186 L9.40554806,51.4116927 L9.38500843,51.5462469 L9.44457336,51.796796 L9.50619224,51.93367 L9.5862968,52.0705441 L9.66640135,52.1378212 L9.7855312,52.2050982 L10.071032,52.2746952 L10.1901619,52.3187733 L10.2908061,52.4092494 L10.3914503,52.5902015 L10.4530691,52.8384307 L10.5516594,53.3186499 L10.6132782,53.5668791 L10.7118685,53.7710302 L10.9542361,54.1097355 L11.3342192,54.5203577 L11.6546374,54.7477078 L11.7162563,54.8381839 L11.6957167,54.9286599 L11.4348634,55.3810403 L11.3752985,55.4947154 L11.2951939,55.7684635 L11.2541147,55.9517355 L11.233575,56.1767657 L11.2951939,56.4945919 L11.3752985,56.6732242 L11.4944283,56.8124181 L12.1167791,57.3343955 L12.3817403,57.6290227 L12.4618449,57.7426977 L12.5214098,57.898131 L12.6015143,58.0605239 L12.6425936,58.311073 L12.7226981,58.5152242 L12.8028027,58.6729773 L12.9239865,58.8771285 L12.9630118,59.0372015 L13.1047352,59.853806 L13.1643002,60.0138791 L13.2238651,60.1043552 L13.3039696,60.1948312 L13.3635346,60.2389093 L13.4251535,60.2621083 L13.5853626,60.2621083 L14.0269646,60.1043552 L14.4521349,60.1948312 L14.5918044,60.6959295 L14.5918044,62.0553904 L14.5712648,62.3500176 L14.3679224,62.7815189 L14.3268432,63.1202242 L15.0128668,64.2105768 L15.3538246,64.5307229 L15.4544688,64.7348741 L15.3743642,65.0503804 L15.2141551,65.2104534 L14.5918044,65.4586826 L14.3679224,65.5259597 L14.0454503,65.8693048 L14.2878179,66.5490353 L14.6924486,67.1638086 L14.8731973,67.3888388 L15.0744857,67.7739421 L15.053946,67.9108161 L14.9122226,68.2309622 L14.5918044,68.6160655 L14.3884621,68.8874937 L14.3268432,69.203 L14.3679224,69.5463451 L14.5116998,70.1124005 L14.5507251,70.4534257 L14.5712648,70.8176499 L14.5507251,71.0890781 L14.4315953,71.6110554 L13.6860067,73.4275365 L13.5648229,74.9006725 L13.3635346,75.3553728 L12.622054,76.1047003 L12.4413052,76.6034786 L12.1804519,78.1438917 L12.1558044,78.4663577 L11.6957167,78.6473098 L11.3752985,79.0556121 L11.1945497,79.6007884 L11.2130354,80.2132418 L11.2951939,80.347796 L11.4759427,80.461471 L11.5560472,80.6192242 L11.5950725,81.2107985 L11.5950725,81.2339975 L11.9154907,82.143398 L11.95657,82.3684282 L11.9154907,82.9344836 L11.7758212,83.3683048 L11.233575,84.2057884 L10.9542361,84.9110378 L10.8926172,85.5002922 L11.0528263,86.8388741 L11.233575,87.2935743 L11.6156121,87.6345995 L11.9771096,88.0637809 L12.1167791,88.7458312 L12.0777538,89.0404584 L11.8764654,89.6529118 L11.8559258,90.017136 L11.9154907,90.3117632 L12.1804519,90.7432645 L12.2400169,90.9474156 L12.3221754,91.5157909 L12.4207656,91.9449723 L12.4618449,92.4228715 L12.340661,93.125801 L12.0777538,93.7614534 L12.0572142,94.0352015 L12.2400169,94.3971058 L10.9542361,96.2599849 L10.5311197,97.2343426 L10.7118685,97.2552217 L11.1144452,97.4176146 L11.2541147,97.846796 L11.233575,99.8210302 L10.3709106,102.045814 L10.0114671,102.180368 L8.54288364,102.386839 L8.34159528,102.727864 L8.42169983,103.428474 L8.72363238,104.678899 L9.34392917,105.562781 L9.82661046,105.927005 L10.3113457,105.746053 L10.6728432,105.381829 L11.3752985,104.929448 L11.6957167,104.586103 L12.4413052,104.043247 L13.5237437,103.771819 L15.4955481,103.611746 L15.4544688,103.611746 L15.6146779,103.611746 L15.4955481,103.611746 L17.8863609,103.52127 L18.4676324,103.203443 L18.8886948,103.293919 L19.9362159,103.089768 L20.4373828,103.293919 L20.9180101,102.952894 L22.2469241,102.59099 L23.47314,102.456436 L24.7774064,102.614189 L27.3695076,103.157045 L28.9983002,103.885494 L31.8902799,104.746176 L33.1781147,105.766932 L34.0613187,106.244831 L36.5712614,107.242388 L40.5518415,107.947637 L41.352887,107.65301 L41.6178482,107.787564 L41.8396762,107.629811 L42.4004081,107.924438 L46.0194907,108.35594 L46.721946,108.263144 L47.3833221,108.014914 L49.0326543,106.857285 L49.71457,106.609055 L51.1810995,106.653134 L51.8239899,106.585856 L52.1053828,106.175234 L51.6042159,106.03836 L51.7233457,105.722854 L52.0047386,105.518703 L52.7113019,105.291353 L52.4052614,105.019924 L51.8650691,105.066322 L51.3022833,105.314552 L50.9613255,105.653257 L50.7805767,105.653257 L50.599828,105.156798 L49.8336998,103.632625 L50.1356324,103.495751 L50.7805767,102.932015 L50.5608027,102.795141 L50.375946,102.839219 L50.156172,102.932015 L49.6139258,103.089768 L49.2935076,103.407594 L49.1127589,103.495751 L48.8909309,103.247521 L48.6115919,102.681466 L48.3897639,101.976217 L48.2706341,101.456559 L48.7902867,101.795264 L48.9320101,101.818463 L49.05114,101.683909 L49.2113491,101.252408 L49.2935076,101.161932 L49.6940304,101.252408 L49.8953187,101.547035 L49.8542395,101.90894 L49.5728465,102.203567 L49.9138044,102.180368 L50.1746577,101.932139 L50.6799325,101.252408 L50.9818651,101.022738 L52.9516155,100.027501 L53.1529039,99.7978312 L53.2720337,99.389529 L53.2124688,99.1181008 L53.2514941,98.9812267 L53.6540708,98.9139496 L53.9334098,99.0044257 L54.1942631,99.2085768 L54.475656,99.2758539 L55.0610354,98.6657204 L55.362968,98.6425214 L56.465946,98.7329975 L56.747339,98.8907506 L56.9260337,99.1853778 L57.0081922,99.5936801 L56.967113,100.138856 L56.7863642,100.04838 L56.5665902,99.7305542 L56.3653019,99.526403 L56.1249882,99.8210302 L55.9442395,100.412605 L55.8846745,100.97634 L56.0839089,101.229209 L56.1640135,101.456559 L56.2050927,101.885741 L56.4248668,102.180368 L57.0081922,101.999416 L57.854425,101.342884 L58.2549477,101.115534 L60.4239325,100.797708 L60.9661788,100.818587 L61.5474503,101.045937 L61.7528465,101.43336 L61.7733862,102.771942 L61.7117673,103.474872 L61.6090691,103.999169 L61.7323069,104.293796 L62.3546577,104.270597 L62.615511,104.180121 L63.1166779,103.862295 L63.3569916,103.795018 L63.5582799,103.929572 L63.6383845,104.247398 L63.6589241,104.632501 L63.7595683,104.903929 L64.0430152,105.428227 L64.1847386,106.107957 L64.1231197,106.74361 L63.8191332,107.084635 L64.4045126,107.175111 L65.3678212,106.903683 L66.2941585,106.472181 L66.8158651,105.994282 L67.1773626,106.221632 L67.1362833,106.49538 L66.9966138,106.810887 L66.8959696,107.128713 L67.0356391,107.332864 L67.317032,107.379262 L67.8983035,107.356063 L68.4651973,107.472058 L69.5065565,107.857161 L70.0488027,108.219065 L70.1289073,107.87804 L70.3692209,107.265587 L70.4493255,106.924562 L70.3897605,106.857285 L70.2685767,106.609055 L70.2090118,106.291229 L70.2891164,105.994282 L70.9361147,105.291353 L71.0367589,104.859851 L70.7348263,104.180121 L71.1353491,104.156922 L71.4372816,104.270597 L71.6570556,104.542025 L71.7576998,104.929448 L71.7186745,105.428227 L71.5379258,105.746053 L71.2770725,105.971083 L71.0552445,106.244831 L70.7943912,106.97096 L70.7553659,107.787564 L70.9361147,108.58097 L71.3366374,109.26302 L71.4968465,109.376695 L71.8172648,109.443972 L71.9384486,109.534448 L71.9980135,109.738599 L71.9980135,110.239698 L72.078118,110.467048 L72.359511,110.715277 L73.1461788,111.123579 L74.5305497,112.25801 L74.850968,112.895982 L74.4894705,113.710267 L74.5100101,113.916738 L74.62914,113.960816 L74.7503238,114.164967 L74.8715076,114.301841 L74.6702192,114.550071 L74.4504452,114.754222 L73.9677639,115.004771 L73.9492782,114.663746 L73.8280944,114.415516 L73.6473457,114.278642 L73.3864924,114.234564 L73.5877808,113.803063 L73.6473457,113.348363 L73.5877808,112.327607 L72.9017572,112.622234 L72.3184317,112.304408 L71.9980135,111.715154 L72.0596324,111.214055 L71.4968465,111.306851 L71.2359933,111.668756 L71.0963238,112.190733 L70.8560101,112.759108 L70.531484,113.076935 L70.089882,113.234688 L69.6667656,113.144212 L69.3874266,112.691831 L69.7674098,114.030413 L70.8560101,114.958373 L72.2403811,115.526748 L74.7297841,115.777297 L75.0111771,115.867773 L75.5965565,116.389751 L75.8368702,116.503426 L76.2189073,116.503426 L76.5208398,116.41295 L76.7200742,116.16472 L76.7611535,115.686821 L76.9008229,115.526748 L77.28286,115.526748 L77.6669511,115.663622 L77.9072648,115.911851 L77.6669511,116.002327 L77.506742,116.185599 L77.4471771,116.436149 L77.4862024,116.774854 L78.1290927,116.436149 L78.7904688,116.549824 L79.4128196,116.934927 L80.5794705,117.978882 L80.8197841,117.911605 L80.881403,117.77473 L80.881403,117.637856 L80.9615076,117.524181 L81.4626745,117.159957 L81.5427791,116.888529 L81.3620304,116.41295 L81.7830927,116.549824 L82.2082631,116.821252 L82.6087858,116.955806 L83.0113626,116.707577 L83.2311366,117.250433 L82.9908229,117.477783 L82.6293255,117.616977 L82.4485767,118.002081 L82.7299696,118.002081 L83.5926341,118.227111 L83.7733828,118.206232 L83.8925126,117.751531 L84.2991973,117.730652 L84.6586408,117.888406 L84.8188499,118.002081 L84.9995987,117.932484 L85.0797032,117.77473 L85.1413221,117.616977 L85.4617403,117.412826 L85.4617403,117.139078 L85.422715,116.86533 L85.4412007,116.684378 L85.702054,116.549824 L85.9629073,116.593902 L86.1231164,116.844451 L86.3038651,117.229554 L86.2648398,116.707577 L86.3449444,115.526748 L86.2833255,115.48267 L86.1641956,115.345796 L86.3038651,114.619668 L86.4045093,114.301841 L86.5482867,114.051292 L86.7906543,114.345919 L87.0104283,114.640547 L87.1911771,114.754222 L87.3904115,114.392317 L87.0699933,113.960816 L87.1911771,113.64299 L87.4109511,113.257887 L87.4109511,112.691831 L86.8687049,112.668632 L86.749575,112.578156 L86.7084958,112.234811 L86.80914,112.053859 L86.9898887,112.009781 L87.2302024,112.100257 L87.250742,111.80563 L87.3719258,111.645557 L87.5711602,111.57828 L87.8320135,111.624678 L87.8525531,111.849708 L87.5526745,112.053859 L87.7929882,112.167534 L88.6145734,112.394884 L88.9000742,112.213932 L89.0808229,111.940184 L89.3211366,111.849708 L89.6620944,112.281209 L90.1632614,111.534202 L90.3234705,111.123579 L90.3440101,110.648 L90.4241147,110.172421 L90.6644283,110.172421 L90.8657167,110.353373 L90.904742,110.467048 L91.0505734,110.648 L91.5907656,111.464605 L91.7509747,111.849708 L91.8926981,113.552514 L92.3733255,112.645433 L92.4349444,112.327607 L92.4349444,111.919305 L92.5335346,111.624678 L92.7348229,111.441406 L93.0162159,111.33005 L93.0162159,111.534202 L93.0757808,111.872907 L94.0431973,112.872783 L94.3040506,113.392441 L94.4026408,113.529315 L94.5649039,113.144212 L94.7045734,112.645433 L94.7045734,112.394884 L94.944887,112.415763 L95.1256358,112.691831 L95.2262799,113.076935 L95.2653052,113.392441 L95.2653052,113.756665 L95.1852007,114.211365 L95.2057403,114.57327 L95.1461754,114.891096 L95.0249916,115.232121 L94.944887,115.549947 L95.0660708,115.821375 L95.610371,116.320154 L95.7726341,116.549824 L95.8712243,116.934927 L95.9123035,117.32003 L95.9123035,117.616977 L95.7726341,117.797929 L96.1320776,117.911605 L96.8345329,117.477783 L97.9621585,116.503426 L98.3441956,116.296955 L98.7036391,115.888652 L99.0055717,115.436272 L99.3054503,115.097567 L99.4266341,114.891096 L99.8682361,113.64299 L99.9914739,113.144212 L99.2253457,113.348363 L98.765258,112.531758 L98.8248229,111.601479 L99.5272782,111.511003 L99.2253457,111.009904 L99.4060944,110.738476 L99.7881315,110.782554 L100.151683,111.260453 L100.613825,110.965826 L100.593285,110.761675 L100.192762,110.578403 L99.8271568,110.239698 L99.5868432,109.761798 L99.486199,109.195743 L99.6874874,109.239821 L99.8271568,109.376695 L99.9524486,109.557647 L100.032553,109.784997 L100.012013,108.968393 L99.9524486,108.720164 L99.8682361,108.536892 L99.7470523,108.376819 L99.5868432,108.242264 L99.5663035,107.743486 L99.6073828,107.448859 L99.7881315,107.242388 L100.133197,107.015038 L99.5663035,106.516259 L98.985032,106.175234 L98.3832209,106.015161 L97.7013052,106.015161 L97.4568836,105.994282 L97.21657,105.834209 L96.1320776,104.88073 L95.8917639,104.722977 L95.7726341,104.903929 L95.6719899,104.952647 L95.5508061,104.836652 L95.4111366,104.565224 L95.6309106,104.542025 L95.832199,104.474748 L96.1731568,104.270597 L96.1526172,104.066446 L96.0129477,104.089645 L95.5302664,104.133723 L95.6309106,103.681343 L95.9513288,103.136166 L96.0725126,102.81834 L96.4340101,103.136166 L97.0748465,103.999169 L97.4774233,104.361073 L97.6376324,104.110524 L97.2966745,103.929572 L97.3767791,103.74862 L97.6807656,103.632625 L98.0833423,103.681343 L98.54343,103.862295 L101.254661,105.541902 L101.977656,105.746053 L102.743784,105.268154 L103.546884,106.061559 L103.947406,106.175234 L104.06859,105.472305 L104.048051,105.043123 L104.148695,104.952647 L104.32739,105.043123 L104.894283,105.133599 L104.974388,105.314552 L104.894283,105.699655 L104.853204,105.676456 L104.754614,105.81333 L104.65397,105.994282 L104.61289,106.152035 L104.63343,106.335307 L104.692995,106.448982 L104.754614,106.49538 L104.793639,106.539458 L104.853204,106.676332 L104.953848,106.880484 L105.114057,107.061436 L105.255781,107.128713 L105.736408,106.74361 L105.997261,106.653134 L106.136931,106.924562 L106.077366,107.151912 L105.956182,107.332864 L105.917157,107.562534 L106.056826,107.901239 L106.118445,107.743486 L106.15747,107.676209 L106.237575,107.606612 L106.358759,107.448859 L106.518968,107.857161 L106.638098,108.195866 L106.619612,108.536892 L106.477889,108.901116 L106.219089,109.172544 L105.857592,109.467171 L105.075032,109.875474 L108.367535,109.875474 L108.628388,109.738599 L109.213767,109.014791 L109.536239,108.787441 L109.815578,109.03567 L109.836118,109.309418 L109.49516,110.058746 L109.916223,110.397451 L110.096971,110.87303 L110.337285,111.260453 L110.980175,111.350929 L111.606634,111.350929 L113.05057,111.782431 L112.748637,111.167657 L112.988951,110.87303 L113.47574,110.828952 L113.956368,111.033103 L113.535305,111.306851 L113.329909,111.33005 L114.858057,113.87034 L115.361278,114.030413 L115.560513,114.188166 L115.461922,114.550071 L115.461922,114.777421 L115.804934,115.573146 L116.065788,115.798176 L116.587494,115.617224 L117.109201,115.208922 L117.370054,114.686945 L117.331029,114.32504 L117.15028,113.687068 L117.088661,113.325164 L117.12974,112.986458 L117.26941,112.782307 L117.429619,112.782307 L117.530263,113.076935 L117.571342,113.826262 L117.651447,114.211365 L117.832196,114.415516 L118.017052,114.301841 L118.056078,113.939937 L118.035538,113.552514 L118.056078,113.325164 L118.417575,113.325164 L118.417575,113.939937 L118.257366,114.640547 L118.115642,115.004771 L117.791116,116.092804 L117.591882,116.229678 L117.070175,116.41295 L116.889427,116.617101 L116.889427,116.798053 L116.948992,117.09268 L116.990071,117.454584 L116.889427,117.77473 L116.447825,118.521738 L116.308155,118.839564 L115.926118,119.271065 L115.804934,119.454338 L115.765909,119.748965 L115.765909,120.725642 L116.267076,120.498292 L116.649113,120.043592 L117.591882,118.069358 L117.711012,117.637856 L117.731551,117.250433 L117.891761,116.753975 L118.376496,116.503426 L118.918742,116.368872 L119.280239,116.16472 L119.380884,115.888652 L119.339804,115.7077 L119.2597,115.505869 L119.200135,115.208922 L119.218621,114.891096 L119.319265,114.870217 L119.600658,115.048849 L119.781406,115.278519 L120.48797,116.368872 L120.648179,116.730776 L120.828927,117.025403 L121.611487,117.955683 L121.890826,118.136635 L122.192759,117.932484 L121.629973,116.955806 L121.650513,116.389751 L122.231784,115.596345 L122.496745,115.141645 L122.57685,114.710144 L122.698034,114.935174 L122.837703,115.074368 L123.119096,115.301718 L123.098556,114.958373 L122.997912,114.619668 L122.858243,114.345919 L122.677494,114.09769 L123.078017,114.074491 L123.35941,114.234564 L123.519619,114.57327 L123.581238,115.02565 L123.860577,114.640547 L124.382283,113.053736 L122.837703,113.18829 L122.617929,113.234688 L122.617929,112.872783 L122.917808,112.415763 L123.299845,112.009781 L123.620263,111.872907 L123.620263,112.053859 L123.661342,112.281209 L123.661342,112.281209 Z M113.069056,95.1232343 L112.908847,94.7590101 L112.567889,94.5780579 L112.467245,94.4875819 L112.348115,94.3971058 L112.046182,94.2161537 L111.725764,94.6244559 L111.686739,95.0791562 L111.885973,96.350461 L112.187906,96.0999118 L112.348115,95.3737834 L112.528863,95.2137103 L112.689073,95.3273854 L112.828742,95.5988136 L113.03003,95.8725617 L113.350449,95.9630378 L113.190239,95.5547355 L113.069056,95.1232343 L113.069056,95.1232343 Z M125.249056,96.5082141 L125.972051,95.1464332 L126.271929,94.4203048 L124.967663,96.8469194 L125.249056,96.5082141 L125.249056,96.5082141 Z M103.908381,109.694521 L103.867302,109.875474 L103.707093,109.829076 L103.546884,109.648123 L103.485265,109.648123 L103.4257,109.829076 L103.244951,110.035547 L103.224411,110.172421 L103.645474,110.216499 L103.947406,110.443849 L103.867302,110.286096 L103.846762,110.149222 L103.908381,110.081945 L104.06859,110.012348 L104.06859,109.942751 L104.006971,109.808196 L103.908381,109.694521 L103.908381,109.694521 Z M126.957953,87.0871033 L126.573862,86.5906448 L126.313008,85.8853955 L126.011076,85.2729421 L125.470884,84.9551159 L125.850867,85.252063 L126.11172,85.6812443 L126.432138,86.748398 L126.612887,86.9525491 L126.532782,87.2935743 L126.672452,87.7691537 L127.079137,88.5648791 L126.957953,88.7690302 L127.017518,89.2678086 L127.138702,90.8546196 L127.058597,91.3789169 L126.493757,93.0353249 L126.612887,93.1930781 L126.653966,93.3717103 L126.692992,93.5364232 L126.672452,93.7173753 L127.138702,92.3996725 L127.278371,91.6967431 L127.298911,89.1541335 L126.957953,87.0871033 L126.957953,87.0871033 Z M93.4208465,116.888529 L93.2400978,116.798053 L93.0963204,116.844451 L93.0552411,117.002204 L93.0552411,117.159957 L92.9956762,117.229554 L92.5335346,117.524181 L92.1740911,117.616977 L92.0529073,117.707453 L92.1124722,117.797929 L93.3202024,117.229554 L93.4619258,117.048602 L93.4208465,116.888529 L93.4208465,116.888529 Z M102.137865,111.645557 L101.957116,111.668756 L101.657238,112.123456 L101.094452,112.438962 L100.593285,112.803186 L100.492641,113.506116 L100.654904,113.482917 L100.934243,113.053736 L101.716803,112.48536 L102.162513,112.077058 L101.977656,111.872907 L102.137865,111.645557 L102.137865,111.645557 Z M102.743784,111.079501 L102.604115,111.190856 L102.50347,111.420526 L102.743784,111.420526 L103.064202,111.123579 L103.084742,110.965826 L102.864968,111.009904 L102.743784,111.079501 L102.743784,111.079501 Z M94.6039292,118.092557 L94.4026408,118.136635 L94.223946,118.227111 L94.0431973,118.363985 L93.4208465,119.069234 L94.8647825,118.296708 L94.8442428,118.069358 L94.6039292,118.092557 L94.6039292,118.092557 Z M99.1247015,105.766932 L99.2458853,105.971083 L99.3465295,106.03836 L99.4471737,106.084758 L99.5663035,106.084758 L99.6874874,105.971083 L99.8682361,105.994282 L100.053093,106.175234 L100.151683,106.425783 L100.293406,106.539458 L100.634364,106.448982 L100.753494,106.472181 L100.854138,106.335307 L100.833599,106.131156 L100.774034,106.03836 L100.753494,106.107957 L100.732954,106.015161 L100.714469,105.857408 L100.67339,105.834209 L100.654904,105.971083 L100.572745,106.03836 L100.412536,106.107957 L100.192762,106.015161 L99.9319089,105.722854 L99.9113693,105.609179 L100.172223,105.632378 L100.231788,105.495504 L100.071578,105.247275 L99.8476965,105.156798 L99.5663035,105.110401 L99.3855548,105.019924 L99.266425,104.903929 L99.0856762,104.813453 L98.5639696,104.6557 L98.2435514,104.722977 L98.0422631,104.699778 L97.8409747,104.746176 L97.7013052,104.929448 L97.7423845,105.200877 L98.1819325,105.699655 L98.4222462,105.834209 L98.7241788,105.699655 L99.0651366,105.609179 L99.2048061,105.609179 L99.1452411,105.632378 L99.1247015,105.766932 L99.1247015,105.766932 Z M126.072695,90.9474156 L126.232904,91.4021159 L126.150745,91.1074887 L126.072695,90.9474156 L126.072695,90.9474156 Z M125.189491,90.7641436 L125.088847,90.6968665 L124.967663,90.7641436 L124.747889,91.1306877 L124.827993,91.1515668 L125.207976,90.8546196 L125.189491,90.7641436 L125.189491,90.7641436 Z M125.530449,90.2885642 L125.610553,90.2444861 L125.670118,89.9498589 L125.590013,89.9266599 L125.168951,90.5391134 L125.189491,90.6295894 L125.3497,90.5159144 L125.530449,90.2885642 L125.530449,90.2885642 Z M125.750223,90.1540101 L125.690658,90.1076121 L125.731737,90.6063904 L125.750223,90.3790403 L125.750223,90.1540101 L125.750223,90.1540101 Z M111.165032,97.8027179 L111.545015,97.823597 L111.645659,97.7563199 L111.586094,97.6426448 L111.50599,97.5753678 L111.364266,97.5289698 L111.263622,97.4616927 L111.224597,97.3039395 L111.165032,96.9605945 L111.019201,96.8933174 L110.939096,96.9165164 L111.08082,97.1438665 L111.000715,97.3039395 L110.980175,97.4616927 L111.019201,97.5753678 L111.06028,97.6194458 L111.08082,97.6658438 L111.06028,97.7563199 L111.165032,97.8027179 L111.165032,97.8027179 Z M123.661342,92.988927 L123.640803,92.8079748 L123.661342,92.6270227 L123.640803,92.5133476 L123.560698,92.7638967 L123.560698,93.3067531 L123.581238,93.3717103 L123.661342,92.988927 L123.661342,92.988927 Z M117.450159,88.6553552 L117.390594,88.497602 L117.289949,88.520801 L117.168766,88.7249521 L116.587494,89.3582846 L116.548469,89.4951587 L116.768243,89.4046826 L116.868887,89.3350856 L117.070175,89.0404584 L117.349514,88.7690302 L117.450159,88.6553552 L117.450159,88.6553552 Z" id="Fill-65" fill="#D6D6D6"></path>
                <path d="M59.622887,106.015161 L59.0375076,106.015161 L58.3145126,105.880607 L58.293973,105.834209 L57.5524924,105.541902 L56.9075481,104.929448 L56.525511,104.678899 L55.2027589,104.451549 L54.8967184,104.495627 L54.8166138,104.609302 L54.5968398,105.019924 L54.475656,105.156798 L53.9149241,105.405028 L53.4733221,105.495504 L53.0317201,105.676456 L52.5059056,106.26803 L52.5059056,106.699531 L52.9310759,107.061436 L55.4019933,108.058992 L55.6423069,108.309542 L55.9031602,108.400018 L57.3121788,109.309418 L58.2138685,109.03567 L58.5363406,108.991592 L58.6965497,108.901116 L58.735575,108.671446 L58.7150354,108.263144 L58.8156796,107.743486 L59.0970725,107.400141 L59.9227656,106.790008 L60.1035143,106.314428 L59.9433052,106.084758 L59.622887,106.015161 L59.622887,106.015161 Z M79.2710961,120.31734 L79.332715,120.31734 L79.0307825,120.226864 L79.2710961,120.31734 L79.2710961,120.31734 Z M79.332715,120.31734 L80.0372243,120.54237 L80.8608634,120.475093 L80.2980776,120.340539 L79.332715,120.31734 L79.332715,120.31734 Z M81.9679494,120.384617 L81.7830927,120.340539 L81.7029882,120.451894 L81.7420135,120.588768 L81.9042766,120.679244 L82.0870793,120.725642 L82.1281585,120.656045 L82.0685936,120.521491 L81.9679494,120.384617 L81.9679494,120.384617 Z M86.1826813,119.475217 L86.0840911,119.498416 L85.6815143,119.498416 L85.6219494,119.588892 L85.4617403,119.748965 L85.1598078,119.839441 L84.9605734,119.769844 L84.8804688,119.658489 L84.7387454,119.679368 L84.258118,119.953116 L84.1533659,120.110869 L83.5310152,120.361418 L83.5926341,120.54237 L83.9541315,120.498292 L85.7225936,119.839441 L86.1046307,119.612091 L86.3839696,119.363861 L86.4291568,119.294264 L86.2648398,119.40794 L86.1826813,119.475217 L86.1826813,119.475217 Z M91.7715143,119.294264 L91.4901214,119.15971 L90.904742,118.955559 L89.5018853,118.772287 L89.4813457,118.93236 L90.6438887,119.340662 L91.7119494,119.521615 L91.8721585,119.498416 L91.8516189,119.384741 L91.7715143,119.294264 L91.7715143,119.294264 Z M124.343258,97.98367 L124.441848,97.846796 L124.322718,97.960471 L124.12143,98.1878212 L124.14197,98.2087003 L124.343258,97.98367 L124.343258,97.98367 Z M117.209845,89.8593829 L117.331029,89.7689068 L117.250924,89.6297128 L117.230384,89.4951587 L117.310489,89.2678086 L116.708678,89.4951587 L116.308155,89.7225088 L115.946658,90.1308111 L116.006223,90.2676851 L116.207511,90.1540101 L116.447825,90.040335 L116.868887,89.903461 L117.209845,89.8593829 L117.209845,89.8593829 Z M119.781406,103.565348 L120.142904,103.247521 L120.247656,102.771942 L120.206577,102.681466 L120.186037,102.614189 L120.142904,102.567791 L120.04226,102.614189 L119.962155,103.04337 L119.641737,103.361196 L118.859177,103.771819 L119.300779,103.74862 L119.781406,103.565348 L119.781406,103.565348 Z M90.6438887,113.687068 L90.7650725,113.506116 L90.904742,113.257887 L90.8657167,112.986458 L90.6048634,113.144212 L90.4836796,113.826262 L90.5452985,114.255443 L90.5637841,113.916738 L90.6438887,113.687068 L90.6438887,113.687068 Z M121.952445,101.614312 L122.57685,100.614436 L122.656954,100.433484 L122.537825,100.503081 L122.496745,100.547159 L121.629973,101.90894 L121.790182,101.795264 L121.952445,101.614312 L121.952445,101.614312 Z M114.777953,86.4537708 L115.240094,86.2960176 L115.260634,86.2264207 L115.320199,86.0686675 L115.441383,85.9109144 L115.601592,85.8366776 L115.685804,85.8621965 L115.765909,85.9317935 L115.866553,86.0013904 L116.047302,86.0245894 L116.065788,85.9549924 L116.127406,85.7925995 L116.228051,85.6139673 L116.38826,85.5443703 L116.569008,85.5907683 L116.667599,85.7694005 L116.768243,85.9781914 L116.848347,86.1150655 L117.209845,86.5906448 L117.370054,86.6347229 L117.491238,86.2728186 L117.852735,86.3400957 L118.056078,86.0918665 L118.115642,85.6371662 L118.056078,85.159267 L117.891761,85.159267 L117.852735,85.3634181 L117.752091,85.5443703 L117.630907,85.7044433 L117.470698,85.8621965 L117.429619,85.7276423 L117.289949,85.4330151 L117.331029,85.0015139 L116.889427,84.8437607 L116.548469,84.6396096 L116.848347,84.0248363 L117.429619,83.1618338 L117.711012,82.8672065 L118.017052,82.6421763 L117.975973,82.4380252 L117.630907,82.5725793 L117.349514,82.9136045 L116.948992,83.5956549 L116.406745,84.1617103 L116.086327,84.3867406 L115.745369,84.5676927 L115.965143,85.0687909 L115.786449,85.2729421 L115.480408,85.2961411 L115.320199,85.3402191 L115.240094,85.5675693 L114.999781,85.7462015 L114.697848,85.8853955 L114.418509,85.9549924 L114.597204,86.3632947 L114.777953,86.4537708 L114.777953,86.4537708 Z M115.72483,89.9266599 L115.905578,89.604194 L116.186971,88.8595063 L116.326641,88.3352091 L116.207511,88.3352091 L115.885039,88.9963804 L115.685804,89.5160378 L115.601592,89.8129849 L115.420843,90.1540101 L115.219555,90.4927154 L115.340739,90.4486373 L115.72483,89.9266599 L115.72483,89.9266599 Z M116.667599,93.5132242 L116.527929,93.5596222 L116.308155,93.7173753 L116.065788,93.7846524 L115.320199,93.6500982 L115.281174,93.8310504 L116.468364,94.784529 L116.667599,93.5132242 L116.667599,93.5132242 Z M82.8696391,120.294141 L82.7689949,120.407816 L82.7689949,120.521491 L82.7505093,120.632846 L82.8100742,120.632846 L83.0298482,120.428695 L83.0914671,120.203665 L83.0113626,120.203665 L82.8696391,120.294141 L82.8696391,120.294141 Z M123.661342,112.281209 L123.679828,112.508559 L123.860577,112.48536 L123.940681,112.167534 L124.10089,112.077058 L124.622597,112.190733 L124.423363,111.896106 L124.322718,111.849708 L124.10089,111.828829 L124.082405,111.601479 L124.563032,111.555081 L124.281639,111.146778 L124.0023,110.965826 L123.640803,110.942627 L123.24028,111.053982 L123.35941,111.350929 L123.421029,111.487804 L123.119096,111.487804 L122.737059,111.420526 L122.394047,111.214055 L122.231784,110.87303 L121.22945,110.668879 L121.208911,110.467048 L121.469764,110.353373 L121.691592,110.216499 L121.851801,110.012348 L121.970931,109.738599 L121.710078,109.648123 L121.611487,109.399894 L121.490304,109.082068 L121.24999,108.764242 L121.169885,108.854718 L120.948057,109.03567 L120.849467,108.671446 L120.687204,108.467295 L120.526995,108.309542 L120.366786,108.038113 L120.286681,108.128589 L120.062799,108.263144 L120.04226,107.924438 L120.00118,107.629811 L119.941616,107.448859 L119.840971,107.448859 L119.801946,107.379262 L119.781406,107.288786 L119.740327,107.242388 L119.641737,107.265587 L119.479474,107.833962 L119.14057,108.263144 L118.737993,108.513693 L118.438115,108.444096 L118.316931,108.242264 L118.195747,107.676209 L118.035538,107.448859 L117.772631,107.332864 L117.571342,107.379262 L117.370054,107.472058 L116.889427,107.606612 L116.548469,107.787564 L116.36772,107.833962 L116.106867,107.810763 L115.72483,107.562534 L115.521487,107.516136 L115.400304,107.42334 L115.420843,107.219189 L115.542027,106.97096 L115.786449,106.857285 L116.047302,106.834086 L116.246536,106.766809 L116.38826,106.629935 L116.36772,106.472181 L116.065788,106.448982 L115.786449,106.425783 L115.542027,106.516259 L115.361278,106.676332 L115.219555,106.699531 L115.059346,106.585856 L114.858057,106.585856 L114.638283,106.653134 L114.558179,106.585856 L114.057012,106.335307 L113.535305,106.381705 L112.167366,106.880484 L111.846948,106.880484 L111.586094,106.766809 L111.444371,106.472181 L111.565555,106.404904 L111.805868,106.335307 L112.027696,106.107957 L112.027696,105.58598 L111.686739,105.834209 L111.545015,105.632378 L111.606634,105.200877 L111.805868,104.769375 L111.785329,104.542025 L111.364266,104.565224 L110.678243,104.201 L110.27772,104.089645 L110.318799,103.97597 L110.337285,103.952771 L110.437929,103.839096 L110.076432,103.704542 L109.49516,103.839096 L108.913889,103.495751 L108.248405,103.317118 L108.008091,103.157045 L107.845828,102.862418 L107.665079,102.203567 L107.50487,101.864861 L106.76339,101.022738 L106.599073,100.684033 L106.683285,100.660834 L106.903059,100.637635 L106.72231,100.366207 L106.477889,100.252531 L105.896617,100.138856 L106.703825,99.8674282 L108.690007,100.252531 L109.133663,100.004302 L108.468179,99.36633 L108.429153,99.2317758 L108.429153,99.1644987 L108.408614,99.0276247 L107.907447,98.8466725 L108.127221,98.6865995 L108.207325,98.6425214 L107.866368,98.3687733 L107.225531,98.0045491 L106.985218,97.6890428 L107.706159,97.869995 L108.913889,98.5752443 L109.595804,98.6657204 L110.236641,98.6425214 L110.980175,98.7561965 L111.263622,98.9371486 L111.565555,99.2317758 L111.906513,99.456806 L112.327575,99.456806 L112.307035,99.2317758 L111.464911,98.5265264 L111.08082,98.3223753 L111.204057,98.3014962 L111.304702,98.2782972 L111.405346,98.2550982 L111.565555,98.2782972 L111.263622,97.937272 L110.778887,97.960471 L110.25718,98.0741461 L109.776553,98.0509471 L109.474621,97.7563199 L109.275386,97.2552217 L109.295926,96.6891662 L109.616344,96.1695088 L109.836118,96.0767128 L110.357825,96.0999118 L110.577599,96.0558338 L110.840506,95.8725617 L110.959636,95.7124887 L111.165032,95.1464332 L111.464911,94.714932 L111.785329,94.3298287 L111.966078,93.9215264 L111.826408,93.3949093 L112.126287,93.3717103 L112.428219,93.4436272 L112.689073,93.6037003 L112.888307,93.8078514 L113.190239,94.3066297 L113.391528,94.4875819 L113.674975,94.4643829 L113.654435,94.668534 L113.635949,95.1023552 L113.61541,95.3065063 L113.816698,95.0791562 L113.976907,94.4643829 L114.157656,94.2161537 L114.338405,94.2161537 L114.899137,94.3066297 L115.13945,94.3066297 L114.798492,94.1256776 L114.597204,93.8078514 L114.436995,93.4436272 L114.217221,93.125801 L114.317865,92.9216499 L114.478074,92.6966196 L114.679363,92.5133476 L114.979241,92.4460705 L114.878597,92.3091965 L114.839572,92.2164005 L114.759467,92.1236045 L114.617744,92.0586474 L114.759467,91.9681713 L115.219555,91.583068 L114.537639,91.3557179 L114.37743,91.2443627 L114.237761,91.4693929 L114.116577,91.583068 L113.775619,91.7408212 L113.755079,91.5157909 L114.178196,91.1074887 L114.338405,90.8314207 L114.237761,90.5159144 L114.036472,90.4718363 L113.755079,90.6295894 L113.514766,90.8754987 L113.391528,91.1306877 L113.249804,91.1515668 L113.249804,90.9938136 L113.210779,90.9706146 L113.231319,90.9474156 L113.069056,90.8314207 L112.689073,90.3581612 L112.668533,90.1748892 L113.270344,89.6993098 L113.47574,90.1748892 L113.917342,90.017136 L114.137116,89.5392368 L113.716054,88.9963804 L113.370988,88.9267834 L112.728098,89.1309345 L112.428219,89.1309345 L112.107801,88.9731814 L112.146826,88.8595063 L112.368654,88.7458312 L112.528863,88.520801 L112.508324,88.2470529 L112.38714,88.0197028 L112.327575,87.7691537 L112.448759,87.4536474 L112.728098,87.2262972 L113.391528,87.2030982 L113.695514,87.0871033 L113.956368,86.794796 L113.976907,86.5442469 L113.816698,86.3864937 L113.47574,86.2960176 L113.311423,86.3864937 L112.849282,86.8156751 L112.728098,86.9966272 L112.588428,87.0198262 L112.528863,86.9061511 L112.508324,86.885272 L112.467245,86.885272 L112.38714,86.8388741 L112.368654,86.6115239 L112.547349,86.5906448 L112.528863,86.4096927 L112.348115,86.2960176 L111.785329,86.0918665 L111.545015,86.0686675 L111.384806,85.9109144 L111.263622,85.8853955 L111.099305,86.0245894 L111.06028,86.2055416 L111.099305,86.5906448 L111.08082,86.748398 L110.980175,87.0198262 L110.900071,87.2262972 L110.819966,87.4304484 L110.678243,87.6345995 L110.437929,87.8387506 L109.975788,88.0197028 L109.756013,88.1542569 L109.456135,88.497602 L109.355491,88.8827053 L109.435595,89.993937 L109.394516,90.6527884 L109.195282,91.3348388 L108.870755,91.9449723 L108.488718,92.3091965 L107.987551,92.5133476 L107.445305,92.5597456 L106.923599,92.3996725 L106.438863,91.9913703 L105.837052,91.3116398 L105.896617,90.9474156 L106.17801,90.4022393 L106.219089,90.2212872 L106.017801,90.1076121 L105.255781,90.6063904 L104.894283,90.7641436 L104.249339,90.8082217 L103.846762,90.7432645 L103.565369,90.4486373 L103.28603,89.903461 L103.084742,89.3350856 L103.004637,88.8595063 L103.084742,88.3816071 L103.366135,87.9060277 L103.826223,87.5441234 L104.473221,87.4977254 L105.095572,87.7250756 L105.576199,88.1774559 L105.795973,87.9060277 L105.777487,87.6114005 L105.676843,87.3399723 L105.715868,87.0198262 L105.896617,86.8388741 L106.560047,86.5001688 L106.599073,85.7276423 L106.804469,85.3193401 L107.104347,85.0015139 L107.365201,84.4331385 L107.104347,84.2753854 L106.662745,83.7974861 L106.31768,83.686131 L105.715868,83.9575592 L105.635764,84.1849093 L105.777487,84.2962645 L105.976722,84.3658615 L106.056826,84.3426625 L106.056826,84.1849093 L106.17801,84.0944332 L106.299194,84.1385113 L106.379298,84.3194635 L106.338219,84.5676927 L106.237575,84.7068866 L105.937696,85.0015139 L105.816513,85.0687909 L105.455015,85.0479118 L105.315346,85.0687909 L105.315346,85.182466 L105.054492,85.9317935 L104.974388,85.7694005 L104.873744,85.6812443 L104.773099,85.6139673 L104.692995,85.5443703 L104.834718,85.228864 L105.015467,84.4099395 L105.235241,84.0248363 L105.033953,83.616534 L104.853204,83.639733 L104.814179,84.0480353 L104.713535,84.4563375 L104.532786,84.8669597 L104.087076,85.6812443 L104.027511,85.9317935 L103.988486,86.0686675 L103.787197,86.0686675 L103.446239,85.9781914 L103.064202,85.7925995 L102.723245,85.5443703 L102.563035,85.252063 L102.462391,84.7973627 L102.263157,84.6396096 L101.716803,84.5908917 L101.355305,85.6139673 L100.774034,86.5001688 L99.266425,87.9965038 L98.8248229,88.267932 L98.3441956,88.451204 L96.774968,88.7690302 L95.8527386,89.2005315 L95.3063845,89.2446096 L93.8213693,88.9267834 L92.9361113,88.3816071 L91.2313221,88.3816071 L90.2433659,88.0429018 L89.3807015,87.3167733 L88.8589949,86.2496196 L88.8589949,84.8437607 L89.3211366,83.8438841 L90.904742,81.9601259 L91.4510961,81.0066474 L92.1925767,79.4824736 L92.675258,78.805063 L93.1805329,78.3294836 L93.9425531,78.1438917 L95.0249916,78.2111688 L96.1526172,78.4431587 L97.0748465,78.7609849 L98.2230118,79.6912645 L98.4222462,79.7817406 L98.54343,80.0531688 L99.1247015,81.1667204 L99.3670691,81.4613476 L100.433076,81.5750227 L100.693929,81.5054257 L101.114992,81.3244736 L101.375845,81.2571965 L101.897551,81.4149496 L102.784863,82.120199 L103.304516,82.120199 L104.06859,81.7327758 L104.512246,81.7559748 L104.754614,82.2779521 L104.734074,82.5725793 L104.692995,82.7767305 L104.692995,82.9808816 L104.834718,83.2059118 L105.015467,83.317267 L105.496094,83.4355819 L105.676843,83.5492569 L106.038341,83.317267 L106.397784,83.2963879 L107.204992,83.3915038 L107.587029,83.2267909 L107.946472,83.0040806 L108.26689,82.9136045 L108.529798,83.2499899 L108.28743,83.4355819 L108.147761,83.5051788 L107.925933,83.5260579 L108.349049,83.8670831 L109.033019,83.5492569 L109.675909,82.9808816 L109.897737,82.5493804 L109.716988,82.3684282 L109.415056,82.3011511 L109.133663,82.4380252 L108.973454,82.7767305 L108.388074,82.143398 L107.545949,80.347796 L107.024243,79.5056725 L106.964678,78.2575668 L106.804469,77.7611083 L106.056826,76.6475567 L105.857592,76.1719773 L105.816513,75.9237481 L105.795973,75.3785718 L105.756948,75.1280227 L105.676843,74.9238715 L105.235241,74.1513451 L104.532786,73.6989647 L104.148695,72.7895642 L103.746118,72.518136 L102.965612,72.2699068 L102.583575,71.8801637 L101.856472,70.4743048 L102.09884,69.8177733 L101.856472,69.3143552 L101.476489,68.8874937 L101.215636,68.4559924 L101.195096,67.9108161 L101.31628,67.2310856 L101.657238,66.0966549 L101.476489,65.5259597 L101.636698,64.9831033 L102.137865,64.1432997 L102.363801,62.3500176 L102.803349,61.1715088 L103.025177,60.0579572 L103.084742,58.9676045 L102.984098,58.5152242 L102.117325,58.6288992 L101.114992,58.7193753 L100.654904,58.7634534 L99.3465295,58.9003275 L97.2966745,59.1044786 L94.6655481,59.3782267 L91.5312007,59.6960529 L88.0333019,60.0347582 L84.2991973,60.4175416 L80.439801,60.7864055 L76.5804047,61.1483098 L72.8421922,61.4870151 L69.3463474,61.8025214 L66.214054,62.0785894 L63.5582799,62.3291385 L61.5289646,62.4868917 L60.2041585,62.6005668 L59.7420169,62.6446448 L58.6760101,62.7351209 L58.5363406,62.7583199 L60.2246981,60.8977607 L60.0234098,60.1252343 L59.2572816,59.2158338 L58.9368634,58.3783501 L58.9368634,58.081403 L59.1381518,57.5385466 L59.1771771,57.1998413 L59.236742,57.0861662 L59.3189005,56.7428212 L59.3373862,56.4041159 L59.1977167,56.2463627 L58.8772985,56.0422116 L58.4747218,55.5643123 L58.1953828,54.9518589 L58.1953828,54.4762796 L58.5363406,54.2234106 L59.0580472,54.1306146 L60.1651332,54.0865365 L60.6457605,53.9287834 L60.9066138,53.5668791 L61.0257437,53.0657809 L61.1880067,51.0706675 L61.3872411,50.7760403 L61.4283204,50.5022922 L61.4283204,49.9130378 L61.3687555,49.7320856 L61.0257437,49.1149924 L60.78543,48.7786071 L60.6663002,48.5744559 L60.4650118,47.2567531 L60.9456391,46.3032746 L62.4758415,44.8510176 L62.4758415,44.6468665 L62.5744317,44.3081612 L62.5354064,43.5820327 L62.7962597,40.9025491 L62.7757201,40.2900957 L62.835285,39.7681184 L63.4370961,38.2485844 L63.6589241,37.0909547 L63.8396728,36.5225793 L64.1436594,35.977403 L64.5256965,35.6386977 L65.4684654,35.3185516 L65.9100675,35.0888816 L66.3146981,34.6620202 L67.2780067,33.1865642 L67.3971366,32.915136 L67.5778853,32.2562846 L67.7380944,31.9825365 L67.9578685,31.8015844 L68.6438921,31.4837582 L69.4264519,30.7135516 L69.8475143,29.623199 L69.7879494,28.5096474 L69.0259292,27.6698438 L69.0053895,27.4633728 L68.9848499,27.1710655 L69.0464688,26.8555592 L69.2477572,26.5794912 L70.4698651,26.5354131 L71.1558887,24.9230831 L71.7371602,22.9047708 L72.6799292,21.656665 L72.6614435,21.4293149 L72.8421922,21.3156398 L72.8812175,20.8841385 L72.7004688,20.4317582 L72.1582226,20.2484861 L71.3571771,20.1812091 L70.97514,20.044335 L70.7943912,19.8401839 L70.5109444,18.6570353 L69.9481585,18.1396977 L69.2272175,17.8682695 L68.424118,17.4089295 L68.1201315,17.005267 L68.0194874,16.5064887 L67.9578685,15.2583829 L67.9989477,14.9614358 L68.0790523,14.6204106 L68.1201315,14.2353073 L68.040027,13.8942821 L67.8592782,13.666932 L67.2780067,13.3282267 L67.0356391,13.1240756 L66.7357605,12.7134534 L66.5139325,12.2378741 L66.3537234,11.6718186 L66.2530793,11.0106474 L66.4749073,10.558267 L67.0356391,10.3773149 L67.6579899,10.2868388 L68.0585126,10.1267657 L68.3809848,9.44703526 L68.2392614,8.92273804 L67.818199,8.58403275 L66.6741417,8.46803778 L66.3742631,8.24300756 L66.2941585,7.8138262 L66.3742631,6.5865995 L66.6351164,5.08794458 L66.8364047,4.7445995 L67.097258,4.54276826 L67.4176762,4.09038791 L67.6970152,3.52201259 L67.8777639,2.97915617 L67.3971366,2.41078086 L67.097258,2.11383375 L66.7953255,2.02567758 L66.433828,2.00247859 L66.0497369,1.88880353 L65.7293187,1.68465239 L65.5670556,1.41322418 L65.54857,0.390148615 L65.2260978,0.459745592 L61.1880067,0.821649874 L57.1273221,1.18355416 L53.0727993,1.52689924 L49.0326543,1.86560453 L44.9925093,2.20430982 L40.9318246,2.54533501 L36.8731939,2.86548111 L32.8371568,3.18098741 L28.7764722,3.47561461 L24.7178415,3.77024181 L20.6776965,4.06718892 L16.6170118,4.36181612 L12.562489,4.63556423 L8.50180438,4.90699244 L4.46165936,5.18074055 L0.403028668,5.42896977 L0.883655987,16.1608237 L1.06851265,19.7497078 L1.38893086,26.9228363 L1.5696796,30.4862015 L1.7298887,34.0704458 L1.83053288,36.3393073 L1.85107251,36.4065844 L1.91063744,36.4993804 L2.03182125,36.6571335 L2.35223946,36.9100025 L2.51244857,36.9772796 L2.81438111,37.2255088 L2.91297133,37.3623829 L3.43878583,38.3158615 L3.52094435,38.4295365 L3.61953457,38.5200126 L3.74071838,38.5872897 L4.50273862,38.970073 L4.72251265,39.1533451 L5.1846543,39.6544433 L5.52972007,40.0859446 L5.7494941,40.4942469 L5.87067791,40.767995 L5.97132209,41.0626222 L6.17261046,41.4454055 L6.79290725,42.378005 L6.8730118,42.6494332 L7.0948398,43.830262 L7.19548398,44.1921662 L7.2940742,44.4218363 L7.37417875,44.4891134 L7.49536256,44.7164635 L7.53438786,44.8510176 L7.53438786,45.0319698 L7.45633727,45.533068 L7.41525801,45.8068161 L7.43579764,46.6674987 L7.41525801,46.9180479 L7.37417875,47.099 L7.2940742,47.3263501 L7.21396965,47.6418564 L7.21396965,47.8436877 L7.2550489,48.0756776 L7.33515346,48.3703048 L7.41525801,48.5512569 L7.55492749,48.8226851 L7.8198887,49.1637103 L8.46277909,49.8898388 L8.66201349,50.0707909 L8.7831973,50.1403879 L8.92286678,50.207665 L9.48565261,50.3630982 L9.62532209,50.4350151 L9.7465059,50.5022922 L9.82661046,50.6182872 L9.84509612,50.7992393 L9.7855312,50.9569924 L9.72596627,51.0474685 L9.70542664,51.0706675 L9.70542664,51.0938665 L9.46511298,51.2748186 L9.40554806,51.4116927 L9.38500843,51.5462469 L9.44457336,51.796796 L9.50619224,51.93367 L9.5862968,52.0705441 L9.66640135,52.1378212 L9.7855312,52.2050982 L10.071032,52.2746952 L10.1901619,52.3187733 L10.2908061,52.4092494 L10.3914503,52.5902015 L10.4530691,52.8384307 L10.5516594,53.3186499 L10.6132782,53.5668791 L10.7118685,53.7710302 L10.9542361,54.1097355 L11.3342192,54.5203577 L11.6546374,54.7477078 L11.7162563,54.8381839 L11.6957167,54.9286599 L11.4348634,55.3810403 L11.3752985,55.4947154 L11.2951939,55.7684635 L11.2541147,55.9517355 L11.233575,56.1767657 L11.2951939,56.4945919 L11.3752985,56.6732242 L11.4944283,56.8124181 L12.1167791,57.3343955 L12.3817403,57.6290227 L12.4618449,57.7426977 L12.5214098,57.898131 L12.6015143,58.0605239 L12.6425936,58.311073 L12.7226981,58.5152242 L12.8028027,58.6729773 L12.9239865,58.8771285 L12.9630118,59.0372015 L13.1047352,59.853806 L13.1643002,60.0138791 L13.2238651,60.1043552 L13.3039696,60.1948312 L13.3635346,60.2389093 L13.4251535,60.2621083 L13.5853626,60.2621083 L14.0269646,60.1043552 L14.4521349,60.1948312 L14.5918044,60.6959295 L14.5918044,62.0553904 L14.5712648,62.3500176 L14.3679224,62.7815189 L14.3268432,63.1202242 L15.0128668,64.2105768 L15.3538246,64.5307229 L15.4544688,64.7348741 L15.3743642,65.0503804 L15.2141551,65.2104534 L14.5918044,65.4586826 L14.3679224,65.5259597 L14.0454503,65.8693048 L14.2878179,66.5490353 L14.6924486,67.1638086 L14.8731973,67.3888388 L15.0744857,67.7739421 L15.053946,67.9108161 L14.9122226,68.2309622 L14.5918044,68.6160655 L14.3884621,68.8874937 L14.3268432,69.203 L14.3679224,69.5463451 L14.5116998,70.1124005 L14.5507251,70.4534257 L14.5712648,70.8176499 L14.5507251,71.0890781 L14.4315953,71.6110554 L13.6860067,73.4275365 L13.5648229,74.9006725 L13.3635346,75.3553728 L12.622054,76.1047003 L12.4413052,76.6034786 L12.1804519,78.1438917 L12.1558044,78.4663577 L11.6957167,78.6473098 L11.3752985,79.0556121 L11.1945497,79.6007884 L11.2130354,80.2132418 L11.2951939,80.347796 L11.4759427,80.461471 L11.5560472,80.6192242 L11.5950725,81.2107985 L11.5950725,81.2339975 L11.9154907,82.143398 L11.95657,82.3684282 L11.9154907,82.9344836 L11.7758212,83.3683048 L11.233575,84.2057884 L10.9542361,84.9110378 L10.8926172,85.5002922 L11.0528263,86.8388741 L11.233575,87.2935743 L11.6156121,87.6345995 L11.9771096,88.0637809 L12.1167791,88.7458312 L12.0777538,89.0404584 L11.8764654,89.6529118 L11.8559258,90.017136 L11.9154907,90.3117632 L12.1804519,90.7432645 L12.2400169,90.9474156 L12.3221754,91.5157909 L12.4207656,91.9449723 L12.4618449,92.4228715 L12.340661,93.125801 L12.0777538,93.7614534 L12.0572142,94.0352015 L12.2400169,94.3971058 L10.9542361,96.2599849 L10.5311197,97.2343426 L10.7118685,97.2552217 L11.1144452,97.4176146 L11.2541147,97.846796 L11.233575,99.8210302 L10.3709106,102.045814 L10.0114671,102.180368 L8.54288364,102.386839 L8.34159528,102.727864 L8.42169983,103.428474 L8.72363238,104.678899 L9.34392917,105.562781 L9.82661046,105.927005 L10.3113457,105.746053 L10.6728432,105.381829 L11.3752985,104.929448 L11.6957167,104.586103 L12.4413052,104.043247 L13.5237437,103.771819 L15.4955481,103.611746 L15.4544688,103.611746 L15.6146779,103.611746 L15.4955481,103.611746 L17.8863609,103.52127 L18.4676324,103.203443 L18.8886948,103.293919 L19.9362159,103.089768 L20.4373828,103.293919 L20.9180101,102.952894 L22.2469241,102.59099 L23.47314,102.456436 L24.7774064,102.614189 L27.3695076,103.157045 L28.9983002,103.885494 L31.8902799,104.746176 L33.1781147,105.766932 L34.0613187,106.244831 L36.5712614,107.242388 L40.5518415,107.947637 L41.352887,107.65301 L41.6178482,107.787564 L41.8396762,107.629811 L42.4004081,107.924438 L46.0194907,108.35594 L46.721946,108.263144 L47.3833221,108.014914 L49.0326543,106.857285 L49.71457,106.609055 L51.1810995,106.653134 L51.8239899,106.585856 L52.1053828,106.175234 L51.6042159,106.03836 L51.7233457,105.722854 L52.0047386,105.518703 L52.7113019,105.291353 L52.4052614,105.019924 L51.8650691,105.066322 L51.3022833,105.314552 L50.9613255,105.653257 L50.7805767,105.653257 L50.599828,105.156798 L49.8336998,103.632625 L50.1356324,103.495751 L50.7805767,102.932015 L50.5608027,102.795141 L50.375946,102.839219 L50.156172,102.932015 L49.6139258,103.089768 L49.2935076,103.407594 L49.1127589,103.495751 L48.8909309,103.247521 L48.6115919,102.681466 L48.3897639,101.976217 L48.2706341,101.456559 L48.7902867,101.795264 L48.9320101,101.818463 L49.05114,101.683909 L49.2113491,101.252408 L49.2935076,101.161932 L49.6940304,101.252408 L49.8953187,101.547035 L49.8542395,101.90894 L49.5728465,102.203567 L49.9138044,102.180368 L50.1746577,101.932139 L50.6799325,101.252408 L50.9818651,101.022738 L52.9516155,100.027501 L53.1529039,99.7978312 L53.2720337,99.389529 L53.2124688,99.1181008 L53.2514941,98.9812267 L53.6540708,98.9139496 L53.9334098,99.0044257 L54.1942631,99.2085768 L54.475656,99.2758539 L55.0610354,98.6657204 L55.362968,98.6425214 L56.465946,98.7329975 L56.747339,98.8907506 L56.9260337,99.1853778 L57.0081922,99.5936801 L56.967113,100.138856 L56.7863642,100.04838 L56.5665902,99.7305542 L56.3653019,99.526403 L56.1249882,99.8210302 L55.9442395,100.412605 L55.8846745,100.97634 L56.0839089,101.229209 L56.1640135,101.456559 L56.2050927,101.885741 L56.4248668,102.180368 L57.0081922,101.999416 L57.854425,101.342884 L58.2549477,101.115534 L60.4239325,100.797708 L60.9661788,100.818587 L61.5474503,101.045937 L61.7528465,101.43336 L61.7733862,102.771942 L61.7117673,103.474872 L61.6090691,103.999169 L61.7323069,104.293796 L62.3546577,104.270597 L62.615511,104.180121 L63.1166779,103.862295 L63.3569916,103.795018 L63.5582799,103.929572 L63.6383845,104.247398 L63.6589241,104.632501 L63.7595683,104.903929 L64.0430152,105.428227 L64.1847386,106.107957 L64.1231197,106.74361 L63.8191332,107.084635 L64.4045126,107.175111 L65.3678212,106.903683 L66.2941585,106.472181 L66.8158651,105.994282 L67.1773626,106.221632 L67.1362833,106.49538 L66.9966138,106.810887 L66.8959696,107.128713 L67.0356391,107.332864 L67.317032,107.379262 L67.8983035,107.356063 L68.4651973,107.472058 L69.5065565,107.857161 L70.0488027,108.219065 L70.1289073,107.87804 L70.3692209,107.265587 L70.4493255,106.924562 L70.3897605,106.857285 L70.2685767,106.609055 L70.2090118,106.291229 L70.2891164,105.994282 L70.9361147,105.291353 L71.0367589,104.859851 L70.7348263,104.180121 L71.1353491,104.156922 L71.4372816,104.270597 L71.6570556,104.542025 L71.7576998,104.929448 L71.7186745,105.428227 L71.5379258,105.746053 L71.2770725,105.971083 L71.0552445,106.244831 L70.7943912,106.97096 L70.7553659,107.787564 L70.9361147,108.58097 L71.3366374,109.26302 L71.4968465,109.376695 L71.8172648,109.443972 L71.9384486,109.534448 L71.9980135,109.738599 L71.9980135,110.239698 L72.078118,110.467048 L72.359511,110.715277 L73.1461788,111.123579 L74.5305497,112.25801 L74.850968,112.895982 L74.4894705,113.710267 L74.5100101,113.916738 L74.62914,113.960816 L74.7503238,114.164967 L74.8715076,114.301841 L74.6702192,114.550071 L74.4504452,114.754222 L73.9677639,115.004771 L73.9492782,114.663746 L73.8280944,114.415516 L73.6473457,114.278642 L73.3864924,114.234564 L73.5877808,113.803063 L73.6473457,113.348363 L73.5877808,112.327607 L72.9017572,112.622234 L72.3184317,112.304408 L71.9980135,111.715154 L72.0596324,111.214055 L71.4968465,111.306851 L71.2359933,111.668756 L71.0963238,112.190733 L70.8560101,112.759108 L70.531484,113.076935 L70.089882,113.234688 L69.6667656,113.144212 L69.3874266,112.691831 L69.7674098,114.030413 L70.8560101,114.958373 L72.2403811,115.526748 L74.7297841,115.777297 L75.0111771,115.867773 L75.5965565,116.389751 L75.8368702,116.503426 L76.2189073,116.503426 L76.5208398,116.41295 L76.7200742,116.16472 L76.7611535,115.686821 L76.9008229,115.526748 L77.28286,115.526748 L77.6669511,115.663622 L77.9072648,115.911851 L77.6669511,116.002327 L77.506742,116.185599 L77.4471771,116.436149 L77.4862024,116.774854 L78.1290927,116.436149 L78.7904688,116.549824 L79.4128196,116.934927 L80.5794705,117.978882 L80.8197841,117.911605 L80.881403,117.77473 L80.881403,117.637856 L80.9615076,117.524181 L81.4626745,117.159957 L81.5427791,116.888529 L81.3620304,116.41295 L81.7830927,116.549824 L82.2082631,116.821252 L82.6087858,116.955806 L83.0113626,116.707577 L83.2311366,117.250433 L82.9908229,117.477783 L82.6293255,117.616977 L82.4485767,118.002081 L82.7299696,118.002081 L83.5926341,118.227111 L83.7733828,118.206232 L83.8925126,117.751531 L84.2991973,117.730652 L84.6586408,117.888406 L84.8188499,118.002081 L84.9995987,117.932484 L85.0797032,117.77473 L85.1413221,117.616977 L85.4617403,117.412826 L85.4617403,117.139078 L85.422715,116.86533 L85.4412007,116.684378 L85.702054,116.549824 L85.9629073,116.593902 L86.1231164,116.844451 L86.3038651,117.229554 L86.2648398,116.707577 L86.3449444,115.526748 L86.2833255,115.48267 L86.1641956,115.345796 L86.3038651,114.619668 L86.4045093,114.301841 L86.5482867,114.051292 L86.7906543,114.345919 L87.0104283,114.640547 L87.1911771,114.754222 L87.3904115,114.392317 L87.0699933,113.960816 L87.1911771,113.64299 L87.4109511,113.257887 L87.4109511,112.691831 L86.8687049,112.668632 L86.749575,112.578156 L86.7084958,112.234811 L86.80914,112.053859 L86.9898887,112.009781 L87.2302024,112.100257 L87.250742,111.80563 L87.3719258,111.645557 L87.5711602,111.57828 L87.8320135,111.624678 L87.8525531,111.849708 L87.5526745,112.053859 L87.7929882,112.167534 L88.6145734,112.394884 L88.9000742,112.213932 L89.0808229,111.940184 L89.3211366,111.849708 L89.6620944,112.281209 L90.1632614,111.534202 L90.3234705,111.123579 L90.3440101,110.648 L90.4241147,110.172421 L90.6644283,110.172421 L90.8657167,110.353373 L90.904742,110.467048 L91.0505734,110.648 L91.5907656,111.464605 L91.7509747,111.849708 L91.8926981,113.552514 L92.3733255,112.645433 L92.4349444,112.327607 L92.4349444,111.919305 L92.5335346,111.624678 L92.7348229,111.441406 L93.0162159,111.33005 L93.0162159,111.534202 L93.0757808,111.872907 L94.0431973,112.872783 L94.3040506,113.392441 L94.4026408,113.529315 L94.5649039,113.144212 L94.7045734,112.645433 L94.7045734,112.394884 L94.944887,112.415763 L95.1256358,112.691831 L95.2262799,113.076935 L95.2653052,113.392441 L95.2653052,113.756665 L95.1852007,114.211365 L95.2057403,114.57327 L95.1461754,114.891096 L95.0249916,115.232121 L94.944887,115.549947 L95.0660708,115.821375 L95.610371,116.320154 L95.7726341,116.549824 L95.8712243,116.934927 L95.9123035,117.32003 L95.9123035,117.616977 L95.7726341,117.797929 L96.1320776,117.911605 L96.8345329,117.477783 L97.9621585,116.503426 L98.3441956,116.296955 L98.7036391,115.888652 L99.0055717,115.436272 L99.3054503,115.097567 L99.4266341,114.891096 L99.8682361,113.64299 L99.9914739,113.144212 L99.2253457,113.348363 L98.765258,112.531758 L98.8248229,111.601479 L99.5272782,111.511003 L99.2253457,111.009904 L99.4060944,110.738476 L99.7881315,110.782554 L100.151683,111.260453 L100.613825,110.965826 L100.593285,110.761675 L100.192762,110.578403 L99.8271568,110.239698 L99.5868432,109.761798 L99.486199,109.195743 L99.6874874,109.239821 L99.8271568,109.376695 L99.9524486,109.557647 L100.032553,109.784997 L100.012013,108.968393 L99.9524486,108.720164 L99.8682361,108.536892 L99.7470523,108.376819 L99.5868432,108.242264 L99.5663035,107.743486 L99.6073828,107.448859 L99.7881315,107.242388 L100.133197,107.015038 L99.5663035,106.516259 L98.985032,106.175234 L98.3832209,106.015161 L97.7013052,106.015161 L97.4568836,105.994282 L97.21657,105.834209 L96.1320776,104.88073 L95.8917639,104.722977 L95.7726341,104.903929 L95.6719899,104.952647 L95.5508061,104.836652 L95.4111366,104.565224 L95.6309106,104.542025 L95.832199,104.474748 L96.1731568,104.270597 L96.1526172,104.066446 L96.0129477,104.089645 L95.5302664,104.133723 L95.6309106,103.681343 L95.9513288,103.136166 L96.0725126,102.81834 L96.4340101,103.136166 L97.0748465,103.999169 L97.4774233,104.361073 L97.6376324,104.110524 L97.2966745,103.929572 L97.3767791,103.74862 L97.6807656,103.632625 L98.0833423,103.681343 L98.54343,103.862295 L101.254661,105.541902 L101.977656,105.746053 L102.743784,105.268154 L103.546884,106.061559 L103.947406,106.175234 L104.06859,105.472305 L104.048051,105.043123 L104.148695,104.952647 L104.32739,105.043123 L104.894283,105.133599 L104.974388,105.314552 L104.894283,105.699655 L104.853204,105.676456 L104.754614,105.81333 L104.65397,105.994282 L104.61289,106.152035 L104.63343,106.335307 L104.692995,106.448982 L104.754614,106.49538 L104.793639,106.539458 L104.853204,106.676332 L104.953848,106.880484 L105.114057,107.061436 L105.255781,107.128713 L105.736408,106.74361 L105.997261,106.653134 L106.136931,106.924562 L106.077366,107.151912 L105.956182,107.332864 L105.917157,107.562534 L106.056826,107.901239 L106.118445,107.743486 L106.15747,107.676209 L106.237575,107.606612 L106.358759,107.448859 L106.518968,107.857161 L106.638098,108.195866 L106.619612,108.536892 L106.477889,108.901116 L106.219089,109.172544 L105.857592,109.467171 L105.075032,109.875474 L108.367535,109.875474 L108.628388,109.738599 L109.213767,109.014791 L109.536239,108.787441 L109.815578,109.03567 L109.836118,109.309418 L109.49516,110.058746 L109.916223,110.397451 L110.096971,110.87303 L110.337285,111.260453 L110.980175,111.350929 L111.606634,111.350929 L113.05057,111.782431 L112.748637,111.167657 L112.988951,110.87303 L113.47574,110.828952 L113.956368,111.033103 L113.535305,111.306851 L113.329909,111.33005 L114.858057,113.87034 L115.361278,114.030413 L115.560513,114.188166 L115.461922,114.550071 L115.461922,114.777421 L115.804934,115.573146 L116.065788,115.798176 L116.587494,115.617224 L117.109201,115.208922 L117.370054,114.686945 L117.331029,114.32504 L117.15028,113.687068 L117.088661,113.325164 L117.12974,112.986458 L117.26941,112.782307 L117.429619,112.782307 L117.530263,113.076935 L117.571342,113.826262 L117.651447,114.211365 L117.832196,114.415516 L118.017052,114.301841 L118.056078,113.939937 L118.035538,113.552514 L118.056078,113.325164 L118.417575,113.325164 L118.417575,113.939937 L118.257366,114.640547 L118.115642,115.004771 L117.791116,116.092804 L117.591882,116.229678 L117.070175,116.41295 L116.889427,116.617101 L116.889427,116.798053 L116.948992,117.09268 L116.990071,117.454584 L116.889427,117.77473 L116.447825,118.521738 L116.308155,118.839564 L115.926118,119.271065 L115.804934,119.454338 L115.765909,119.748965 L115.765909,120.725642 L116.267076,120.498292 L116.649113,120.043592 L117.591882,118.069358 L117.711012,117.637856 L117.731551,117.250433 L117.891761,116.753975 L118.376496,116.503426 L118.918742,116.368872 L119.280239,116.16472 L119.380884,115.888652 L119.339804,115.7077 L119.2597,115.505869 L119.200135,115.208922 L119.218621,114.891096 L119.319265,114.870217 L119.600658,115.048849 L119.781406,115.278519 L120.48797,116.368872 L120.648179,116.730776 L120.828927,117.025403 L121.611487,117.955683 L121.890826,118.136635 L122.192759,117.932484 L121.629973,116.955806 L121.650513,116.389751 L122.231784,115.596345 L122.496745,115.141645 L122.57685,114.710144 L122.698034,114.935174 L122.837703,115.074368 L123.119096,115.301718 L123.098556,114.958373 L122.997912,114.619668 L122.858243,114.345919 L122.677494,114.09769 L123.078017,114.074491 L123.35941,114.234564 L123.519619,114.57327 L123.581238,115.02565 L123.860577,114.640547 L124.382283,113.053736 L122.837703,113.18829 L122.617929,113.234688 L122.617929,112.872783 L122.917808,112.415763 L123.299845,112.009781 L123.620263,111.872907 L123.620263,112.053859 L123.661342,112.281209 L123.661342,112.281209 Z M113.069056,95.1232343 L112.908847,94.7590101 L112.567889,94.5780579 L112.467245,94.4875819 L112.348115,94.3971058 L112.046182,94.2161537 L111.725764,94.6244559 L111.686739,95.0791562 L111.885973,96.350461 L112.187906,96.0999118 L112.348115,95.3737834 L112.528863,95.2137103 L112.689073,95.3273854 L112.828742,95.5988136 L113.03003,95.8725617 L113.350449,95.9630378 L113.190239,95.5547355 L113.069056,95.1232343 L113.069056,95.1232343 Z M125.249056,96.5082141 L125.972051,95.1464332 L126.271929,94.4203048 L124.967663,96.8469194 L125.249056,96.5082141 L125.249056,96.5082141 Z M103.908381,109.694521 L103.867302,109.875474 L103.707093,109.829076 L103.546884,109.648123 L103.485265,109.648123 L103.4257,109.829076 L103.244951,110.035547 L103.224411,110.172421 L103.645474,110.216499 L103.947406,110.443849 L103.867302,110.286096 L103.846762,110.149222 L103.908381,110.081945 L104.06859,110.012348 L104.06859,109.942751 L104.006971,109.808196 L103.908381,109.694521 L103.908381,109.694521 Z M126.957953,87.0871033 L126.573862,86.5906448 L126.313008,85.8853955 L126.011076,85.2729421 L125.470884,84.9551159 L125.850867,85.252063 L126.11172,85.6812443 L126.432138,86.748398 L126.612887,86.9525491 L126.532782,87.2935743 L126.672452,87.7691537 L127.079137,88.5648791 L126.957953,88.7690302 L127.017518,89.2678086 L127.138702,90.8546196 L127.058597,91.3789169 L126.493757,93.0353249 L126.612887,93.1930781 L126.653966,93.3717103 L126.692992,93.5364232 L126.672452,93.7173753 L127.138702,92.3996725 L127.278371,91.6967431 L127.298911,89.1541335 L126.957953,87.0871033 L126.957953,87.0871033 Z M93.4208465,116.888529 L93.2400978,116.798053 L93.0963204,116.844451 L93.0552411,117.002204 L93.0552411,117.159957 L92.9956762,117.229554 L92.5335346,117.524181 L92.1740911,117.616977 L92.0529073,117.707453 L92.1124722,117.797929 L93.3202024,117.229554 L93.4619258,117.048602 L93.4208465,116.888529 L93.4208465,116.888529 Z M102.137865,111.645557 L101.957116,111.668756 L101.657238,112.123456 L101.094452,112.438962 L100.593285,112.803186 L100.492641,113.506116 L100.654904,113.482917 L100.934243,113.053736 L101.716803,112.48536 L102.162513,112.077058 L101.977656,111.872907 L102.137865,111.645557 L102.137865,111.645557 Z M102.743784,111.079501 L102.604115,111.190856 L102.50347,111.420526 L102.743784,111.420526 L103.064202,111.123579 L103.084742,110.965826 L102.864968,111.009904 L102.743784,111.079501 L102.743784,111.079501 Z M94.6039292,118.092557 L94.4026408,118.136635 L94.223946,118.227111 L94.0431973,118.363985 L93.4208465,119.069234 L94.8647825,118.296708 L94.8442428,118.069358 L94.6039292,118.092557 L94.6039292,118.092557 Z M99.1247015,105.766932 L99.2458853,105.971083 L99.3465295,106.03836 L99.4471737,106.084758 L99.5663035,106.084758 L99.6874874,105.971083 L99.8682361,105.994282 L100.053093,106.175234 L100.151683,106.425783 L100.293406,106.539458 L100.634364,106.448982 L100.753494,106.472181 L100.854138,106.335307 L100.833599,106.131156 L100.774034,106.03836 L100.753494,106.107957 L100.732954,106.015161 L100.714469,105.857408 L100.67339,105.834209 L100.654904,105.971083 L100.572745,106.03836 L100.412536,106.107957 L100.192762,106.015161 L99.9319089,105.722854 L99.9113693,105.609179 L100.172223,105.632378 L100.231788,105.495504 L100.071578,105.247275 L99.8476965,105.156798 L99.5663035,105.110401 L99.3855548,105.019924 L99.266425,104.903929 L99.0856762,104.813453 L98.5639696,104.6557 L98.2435514,104.722977 L98.0422631,104.699778 L97.8409747,104.746176 L97.7013052,104.929448 L97.7423845,105.200877 L98.1819325,105.699655 L98.4222462,105.834209 L98.7241788,105.699655 L99.0651366,105.609179 L99.2048061,105.609179 L99.1452411,105.632378 L99.1247015,105.766932 L99.1247015,105.766932 Z M126.072695,90.9474156 L126.232904,91.4021159 L126.150745,91.1074887 L126.072695,90.9474156 L126.072695,90.9474156 Z M125.189491,90.7641436 L125.088847,90.6968665 L124.967663,90.7641436 L124.747889,91.1306877 L124.827993,91.1515668 L125.207976,90.8546196 L125.189491,90.7641436 L125.189491,90.7641436 Z M125.530449,90.2885642 L125.610553,90.2444861 L125.670118,89.9498589 L125.590013,89.9266599 L125.168951,90.5391134 L125.189491,90.6295894 L125.3497,90.5159144 L125.530449,90.2885642 L125.530449,90.2885642 Z M125.750223,90.1540101 L125.690658,90.1076121 L125.731737,90.6063904 L125.750223,90.3790403 L125.750223,90.1540101 L125.750223,90.1540101 Z M111.165032,97.8027179 L111.545015,97.823597 L111.645659,97.7563199 L111.586094,97.6426448 L111.50599,97.5753678 L111.364266,97.5289698 L111.263622,97.4616927 L111.224597,97.3039395 L111.165032,96.9605945 L111.019201,96.8933174 L110.939096,96.9165164 L111.08082,97.1438665 L111.000715,97.3039395 L110.980175,97.4616927 L111.019201,97.5753678 L111.06028,97.6194458 L111.08082,97.6658438 L111.06028,97.7563199 L111.165032,97.8027179 L111.165032,97.8027179 Z M123.661342,92.988927 L123.640803,92.8079748 L123.661342,92.6270227 L123.640803,92.5133476 L123.560698,92.7638967 L123.560698,93.3067531 L123.581238,93.3717103 L123.661342,92.988927 L123.661342,92.988927 Z M117.450159,88.6553552 L117.390594,88.497602 L117.289949,88.520801 L117.168766,88.7249521 L116.587494,89.3582846 L116.548469,89.4951587 L116.768243,89.4046826 L116.868887,89.3350856 L117.070175,89.0404584 L117.349514,88.7690302 L117.450159,88.6553552 L117.450159,88.6553552 Z" id="Stroke-66" stroke="#F9F9F9" stroke-width="0.25" stroke-linecap="round" stroke-linejoin="round"></path>
            </g>
        </g>
    </g>
</svg>