<?xml version="1.0" encoding="UTF-8"?>
<svg width="111px" height="114px" viewBox="0 0 111 114" version="1.1" xmlns="http://www.w3.org/2000/svg" xmlns:xlink="http://www.w3.org/1999/xlink">
    <!-- Generator: Sketch 51 (57462) - http://www.bohemiancoding.com/sketch -->
    <title>Arkansas</title>
    <desc>Created with Sketch.</desc>
    <defs></defs>
    <g id="Page-1" stroke="none" stroke-width="1" fill="none" fill-rule="evenodd">
        <g id="A5" transform="translate(-715.000000, -453.000000)">
            <g id="Arkansas" transform="translate(715.000000, 453.000000)">
                <polygon id="Fill-96" fill="#D6D6D6" points="108.705508 14.4504685 108.684968 14.6801385 109.169703 15.4039471 109.792054 16.0164005 110.174091 16.902602 110.052907 17.4941763 109.711949 17.4245793 109.030034 16.925801 108.545298 17.0371562 108.163261 17.3132242 107.863383 17.7424055 107.70112 18.308461 108.302931 18.5590101 108.92939 18.9905113 109.169703 19.5124887 107.881868 20.9647456 104.66947 22.9621788 104.38397 23.3936801 104.429157 23.9365365 104.80914 24.6209068 105.491056 25.4583904 105.511595 25.8434937 105.170637 26.365471 104.82968 26.7528942 104.708496 27.0475214 104.82968 27.3885466 105.211717 27.9337229 105.57116 28.6343325 105.371926 29.0449547 104.889245 29.2491058 104.344944 29.3859798 103.823238 29.6110101 103.582924 29.9543552 103.521305 30.4740126 103.582924 31.2442191 103.50282 31.7685164 103.280992 32.2928136 102.981113 32.7683929 101.892513 33.9909798 101.652199 34.4920781 101.613174 35.2182065 101.752843 36.6031864 101.892513 37.1924408 102.459406 38.6678967 102.779825 39.9183224 102.859929 41.1409093 102.459406 41.9598338 101.993157 41.9598338 101.391346 41.8461587 100.849099 41.9134358 100.670405 42.4586121 100.670405 43.0710655 100.569761 43.5930428 100.368472 44.0918212 100.068594 44.5001234 99.3024654 45.1148967 98.8012985 45.4095239 98.3781821 45.546398 98.1584081 45.7946272 98.439801 46.2702065 99.2018212 47.1332091 99.2613862 48.4045139 98.6000101 49.5157456 97.612054 50.381068 95.2212411 51.7196499 95.0014671 52.1488312 95.1411366 52.6476096 95.4471771 53.2391839 95.5868465 53.7820403 95.3013457 54.2158615 95.120597 54.5104887 94.6605093 54.7146398 94.1593423 54.7355189 93.7177403 54.4640907 93.4363474 54.6009647 93.1754941 55.2366171 92.8715076 56.3478489 92.7708634 57.6400327 93.3357032 59.707063 93.2966779 62.2937506 93.3767825 63.3609043 93.2761383 64.2471058 92.6106543 65.1982645 91.8280944 65.7898388 91.3474671 66.061267 90.4190759 66.2654181 90.1582226 66.2654181 89.9774739 66.1749421 89.6775953 65.9475919 89.5974907 66.130864 89.5974907 66.4022922 89.7186745 66.8337935 89.9589882 67.3789698 90.0185531 67.764073 89.9589882 68.0146222 89.6981349 68.6038766 89.63857 68.9217028 89.5584654 69.0585768 89.3366374 69.0376977 88.9546003 68.8753048 88.6506138 68.9217028 88.5109444 68.9889798 88.4308398 69.1722519 87.7283845 71.4851914 87.4675312 71.7589395 87.1265734 71.9398917 86.0585126 72.8237733 85.7976594 73.1671184 85.8777639 74.027801 87.5681754 74.7771285 87.7078449 75.9324383 87.4469916 76.5008136 87.1060337 76.7745617 86.6644317 76.8882368 86.1386172 76.9346348 85.6374503 77.0691889 84.433828 77.9113123 83.2671771 78.3172947 83.0864283 78.5446448 83.2076121 78.9761461 83.4479258 79.1594181 83.7478044 79.2730932 84.0702766 79.4308463 84.4954469 80.245131 84.2345936 80.9944584 83.8484486 81.7229068 84.0702766 82.7668615 84.3537234 83.2215617 84.5344722 83.7876171 84.2941585 84.4696675 84.0702766 84.5833426 83.4684654 84.6738186 83.2260978 84.7642947 83.0063238 84.9684458 82.5852614 85.5600202 82.4455919 85.6713753 82.2648432 85.8987254 81.4781754 87.3254635 81.0755987 87.6896877 80.7551804 87.9402368 80.7161551 88.2371839 81.1967825 88.7127632 82.164199 89.1442645 82.5441821 89.5084887 82.6859056 90.2786952 82.5256965 90.9143476 82.164199 91.2553728 81.6794637 91.4131259 81.1372175 91.4595239 80.7962597 91.7077531 80.9359292 92.2088514 81.3179663 92.6844307 81.6979494 92.8653829 82.1231197 93.0045768 82.605801 93.3896801 83.4273862 94.2039647 83.4869511 94.751461 83.5670556 95.6144635 83.5670556 96.5192242 83.4869511 97.1107985 82.7249309 98.4493804 82.5256965 99.1291108 82.88514 99.6974861 83.1459933 99.7206851 83.8484486 99.9480353 84.1729747 100.196264 84.3331838 100.558169 84.4543676 102.082343 84.7747858 103.077579 84.87543 103.578678 84.7747858 104.144733 84.4954469 104.374403 84.0291973 104.555355 83.6081349 104.826783 83.4479258 105.211887 83.54857 108.390149 83.2260978 108.459746 79.1880067 108.82165 75.1273221 109.183554 71.0727993 109.526899 67.0326543 109.865605 62.9925093 110.20431 58.9318246 110.545335 54.8731939 110.865481 50.8371568 111.180987 46.7764722 111.475615 42.7178415 111.770242 38.6776965 112.067189 34.6170118 112.361816 30.562489 112.635564 26.5018044 112.906992 22.4616594 113.180741 18.4030287 113.42897 18.1812007 109.775128 17.5793895 98.8808816 17.4807993 96.8834484 17.4807993 96.8625693 17.2589713 96.7720932 16.8995278 96.6097003 16.2319899 96.0900428 15.8314671 96.361471 15.3487858 96.4055491 14.9092378 96.315073 14.12257 95.8626927 13.8021518 96.0204458 13.5207589 96.338272 13.2003406 96.4960252 12.0932546 95.9299698 11.7112175 95.9763678 11.4914435 96.361471 11.3497201 96.8393703 11.1504857 97.1339975 10.6678044 96.8625693 10.2077167 97.1571965 9.78254637 97.0875995 9.62028331 96.7929723 9.88113659 96.4751461 9.88113659 96.270995 9.32040472 96.4055491 8.75967285 96.2454761 8.31807083 95.8394937 8.13732209 95.2270403 7.89700843 94.681864 7.49032378 94.5913879 7.16990556 81.3122846 6.98915683 74.6843325 6.82894772 68.0610202 6.64819899 61.4075491 6.32778078 48.1562846 6.14703204 41.5260126 5.46511636 37.3084358 4.77909275 33.1070982 4.09717707 28.8848816 3.43580101 24.6881839 2.06786172 16.2646297 1.4044317 12.0702519 0.718408094 7.84803526 6.70981788 7.50701008 12.6991737 7.16830479 18.6844216 6.78088161 24.6737774 6.39577834 30.6631332 5.98515617 36.6278415 5.5768539 42.6171973 5.12447355 48.6065531 4.6697733 54.591801 4.21507305 60.5606172 3.71397481 66.5314874 3.21519647 72.5167352 2.69553904 78.4855514 2.15268262 84.4749073 1.6051864 90.4396155 1.03681108 96.4084317 0.447556675 97.9180944 0.289803526 97.9571197 0.357080605 97.998199 0.424357683 98.1378685 0.651707809 98.3987218 1.31055919 98.4582867 1.40103526 98.5589309 1.49151134 98.6801147 1.56110831 98.7602192 1.62838539 98.8012985 1.74206045 98.8403238 1.87661461 98.8998887 2.35451385 98.940968 2.5145869 98.9799933 2.67234005 99.0600978 2.80921411 99.1422563 2.89969018 99.9042766 3.32887154 100.027514 3.41934761 100.128159 3.50982368 100.288368 3.7371738 100.347933 3.87636776 100.409551 4.03412091 100.409551 4.39602519 100.329447 5.14535264 100.329447 5.32862469 100.489656 6.2125063 100.508142 6.37257935 100.489656 6.53033249 100.448577 6.68808564 100.409551 6.8249597 100.329447 6.96415365 100.267828 7.07550882 100.169238 7.16830479 100.048054 7.25878086 99.5222395 7.50701008 99.4215953 7.59748615 99.3414907 7.71116121 99.3209511 7.84803526 99.2819258 8.45816877 99.2408465 8.61824181 99.1812816 8.77599496 99.1217167 8.89198992 99.0210725 9.00566499 98.3596965 9.50444332 97.8975548 9.77819144 97.612054 9.91274559 97.5114098 9.98234257 97.3121754 10.1632947 97.2320708 10.2746499 97.1519663 10.4115239 97.110887 10.5692771 97.0903474 10.7293501 97.0718617 11.0007783 97.0718617 11.1585315 97.0307825 11.3418035 96.9712175 11.4786776 96.9095987 11.6155516 96.8110084 11.7060277 96.7103642 11.7965038 96.5891804 11.8637809 96.1475784 12.0238539 96.0489882 12.11433 95.948344 12.204806 95.8682395 12.3184811 95.7470556 12.5690302 95.506742 12.9309345 95.2007015 13.6547431 95.0220067 13.9748892 94.3791164 15.7449723 94.3195514 16.0604786 94.3400911 16.1741537 94.3791164 16.3110277 94.5208398 16.3342267 96.1085531 16.1300756 99.2203069 15.7217733 102.338223 15.313471 105.431491 14.8842897 108.545298 14.4736675 108.584324 14.4736675 108.625403 14.4504685"></polygon>
                <polygon id="Stroke-97" stroke="#F9F9F9" stroke-width="0.25" stroke-linecap="round" stroke-linejoin="round" points="108.705508 14.4504685 108.684968 14.6801385 109.169703 15.4039471 109.792054 16.0164005 110.174091 16.902602 110.052907 17.4941763 109.711949 17.4245793 109.030034 16.925801 108.545298 17.0371562 108.163261 17.3132242 107.863383 17.7424055 107.70112 18.308461 108.302931 18.5590101 108.92939 18.9905113 109.169703 19.5124887 107.881868 20.9647456 104.66947 22.9621788 104.38397 23.3936801 104.429157 23.9365365 104.80914 24.6209068 105.491056 25.4583904 105.511595 25.8434937 105.170637 26.365471 104.82968 26.7528942 104.708496 27.0475214 104.82968 27.3885466 105.211717 27.9337229 105.57116 28.6343325 105.371926 29.0449547 104.889245 29.2491058 104.344944 29.3859798 103.823238 29.6110101 103.582924 29.9543552 103.521305 30.4740126 103.582924 31.2442191 103.50282 31.7685164 103.280992 32.2928136 102.981113 32.7683929 101.892513 33.9909798 101.652199 34.4920781 101.613174 35.2182065 101.752843 36.6031864 101.892513 37.1924408 102.459406 38.6678967 102.779825 39.9183224 102.859929 41.1409093 102.459406 41.9598338 101.993157 41.9598338 101.391346 41.8461587 100.849099 41.9134358 100.670405 42.4586121 100.670405 43.0710655 100.569761 43.5930428 100.368472 44.0918212 100.068594 44.5001234 99.3024654 45.1148967 98.8012985 45.4095239 98.3781821 45.546398 98.1584081 45.7946272 98.439801 46.2702065 99.2018212 47.1332091 99.2613862 48.4045139 98.6000101 49.5157456 97.612054 50.381068 95.2212411 51.7196499 95.0014671 52.1488312 95.1411366 52.6476096 95.4471771 53.2391839 95.5868465 53.7820403 95.3013457 54.2158615 95.120597 54.5104887 94.6605093 54.7146398 94.1593423 54.7355189 93.7177403 54.4640907 93.4363474 54.6009647 93.1754941 55.2366171 92.8715076 56.3478489 92.7708634 57.6400327 93.3357032 59.707063 93.2966779 62.2937506 93.3767825 63.3609043 93.2761383 64.2471058 92.6106543 65.1982645 91.8280944 65.7898388 91.3474671 66.061267 90.4190759 66.2654181 90.1582226 66.2654181 89.9774739 66.1749421 89.6775953 65.9475919 89.5974907 66.130864 89.5974907 66.4022922 89.7186745 66.8337935 89.9589882 67.3789698 90.0185531 67.764073 89.9589882 68.0146222 89.6981349 68.6038766 89.63857 68.9217028 89.5584654 69.0585768 89.3366374 69.0376977 88.9546003 68.8753048 88.6506138 68.9217028 88.5109444 68.9889798 88.4308398 69.1722519 87.7283845 71.4851914 87.4675312 71.7589395 87.1265734 71.9398917 86.0585126 72.8237733 85.7976594 73.1671184 85.8777639 74.027801 87.5681754 74.7771285 87.7078449 75.9324383 87.4469916 76.5008136 87.1060337 76.7745617 86.6644317 76.8882368 86.1386172 76.9346348 85.6374503 77.0691889 84.433828 77.9113123 83.2671771 78.3172947 83.0864283 78.5446448 83.2076121 78.9761461 83.4479258 79.1594181 83.7478044 79.2730932 84.0702766 79.4308463 84.4954469 80.245131 84.2345936 80.9944584 83.8484486 81.7229068 84.0702766 82.7668615 84.3537234 83.2215617 84.5344722 83.7876171 84.2941585 84.4696675 84.0702766 84.5833426 83.4684654 84.6738186 83.2260978 84.7642947 83.0063238 84.9684458 82.5852614 85.5600202 82.4455919 85.6713753 82.2648432 85.8987254 81.4781754 87.3254635 81.0755987 87.6896877 80.7551804 87.9402368 80.7161551 88.2371839 81.1967825 88.7127632 82.164199 89.1442645 82.5441821 89.5084887 82.6859056 90.2786952 82.5256965 90.9143476 82.164199 91.2553728 81.6794637 91.4131259 81.1372175 91.4595239 80.7962597 91.7077531 80.9359292 92.2088514 81.3179663 92.6844307 81.6979494 92.8653829 82.1231197 93.0045768 82.605801 93.3896801 83.4273862 94.2039647 83.4869511 94.751461 83.5670556 95.6144635 83.5670556 96.5192242 83.4869511 97.1107985 82.7249309 98.4493804 82.5256965 99.1291108 82.88514 99.6974861 83.1459933 99.7206851 83.8484486 99.9480353 84.1729747 100.196264 84.3331838 100.558169 84.4543676 102.082343 84.7747858 103.077579 84.87543 103.578678 84.7747858 104.144733 84.4954469 104.374403 84.0291973 104.555355 83.6081349 104.826783 83.4479258 105.211887 83.54857 108.390149 83.2260978 108.459746 79.1880067 108.82165 75.1273221 109.183554 71.0727993 109.526899 67.0326543 109.865605 62.9925093 110.20431 58.9318246 110.545335 54.8731939 110.865481 50.8371568 111.180987 46.7764722 111.475615 42.7178415 111.770242 38.6776965 112.067189 34.6170118 112.361816 30.562489 112.635564 26.5018044 112.906992 22.4616594 113.180741 18.4030287 113.42897 18.1812007 109.775128 17.5793895 98.8808816 17.4807993 96.8834484 17.4807993 96.8625693 17.2589713 96.7720932 16.8995278 96.6097003 16.2319899 96.0900428 15.8314671 96.361471 15.3487858 96.4055491 14.9092378 96.315073 14.12257 95.8626927 13.8021518 96.0204458 13.5207589 96.338272 13.2003406 96.4960252 12.0932546 95.9299698 11.7112175 95.9763678 11.4914435 96.361471 11.3497201 96.8393703 11.1504857 97.1339975 10.6678044 96.8625693 10.2077167 97.1571965 9.78254637 97.0875995 9.62028331 96.7929723 9.88113659 96.4751461 9.88113659 96.270995 9.32040472 96.4055491 8.75967285 96.2454761 8.31807083 95.8394937 8.13732209 95.2270403 7.89700843 94.681864 7.49032378 94.5913879 7.16990556 81.3122846 6.98915683 74.6843325 6.82894772 68.0610202 6.64819899 61.4075491 6.32778078 48.1562846 6.14703204 41.5260126 5.46511636 37.3084358 4.77909275 33.1070982 4.09717707 28.8848816 3.43580101 24.6881839 2.06786172 16.2646297 1.4044317 12.0702519 0.718408094 7.84803526 6.70981788 7.50701008 12.6991737 7.16830479 18.6844216 6.78088161 24.6737774 6.39577834 30.6631332 5.98515617 36.6278415 5.5768539 42.6171973 5.12447355 48.6065531 4.6697733 54.591801 4.21507305 60.5606172 3.71397481 66.5314874 3.21519647 72.5167352 2.69553904 78.4855514 2.15268262 84.4749073 1.6051864 90.4396155 1.03681108 96.4084317 0.447556675 97.9180944 0.289803526 97.9571197 0.357080605 97.998199 0.424357683 98.1378685 0.651707809 98.3987218 1.31055919 98.4582867 1.40103526 98.5589309 1.49151134 98.6801147 1.56110831 98.7602192 1.62838539 98.8012985 1.74206045 98.8403238 1.87661461 98.8998887 2.35451385 98.940968 2.5145869 98.9799933 2.67234005 99.0600978 2.80921411 99.1422563 2.89969018 99.9042766 3.32887154 100.027514 3.41934761 100.128159 3.50982368 100.288368 3.7371738 100.347933 3.87636776 100.409551 4.03412091 100.409551 4.39602519 100.329447 5.14535264 100.329447 5.32862469 100.489656 6.2125063 100.508142 6.37257935 100.489656 6.53033249 100.448577 6.68808564 100.409551 6.8249597 100.329447 6.96415365 100.267828 7.07550882 100.169238 7.16830479 100.048054 7.25878086 99.5222395 7.50701008 99.4215953 7.59748615 99.3414907 7.71116121 99.3209511 7.84803526 99.2819258 8.45816877 99.2408465 8.61824181 99.1812816 8.77599496 99.1217167 8.89198992 99.0210725 9.00566499 98.3596965 9.50444332 97.8975548 9.77819144 97.612054 9.91274559 97.5114098 9.98234257 97.3121754 10.1632947 97.2320708 10.2746499 97.1519663 10.4115239 97.110887 10.5692771 97.0903474 10.7293501 97.0718617 11.0007783 97.0718617 11.1585315 97.0307825 11.3418035 96.9712175 11.4786776 96.9095987 11.6155516 96.8110084 11.7060277 96.7103642 11.7965038 96.5891804 11.8637809 96.1475784 12.0238539 96.0489882 12.11433 95.948344 12.204806 95.8682395 12.3184811 95.7470556 12.5690302 95.506742 12.9309345 95.2007015 13.6547431 95.0220067 13.9748892 94.3791164 15.7449723 94.3195514 16.0604786 94.3400911 16.1741537 94.3791164 16.3110277 94.5208398 16.3342267 96.1085531 16.1300756 99.2203069 15.7217733 102.338223 15.313471 105.431491 14.8842897 108.545298 14.4736675 108.584324 14.4736675 108.625403 14.4504685"></polygon>
            </g>
        </g>
    </g>
</svg>