<?xml version="1.0" encoding="UTF-8"?>
<svg width="149px" height="139px" viewBox="0 0 149 139" version="1.1" xmlns="http://www.w3.org/2000/svg" xmlns:xlink="http://www.w3.org/1999/xlink">
    <!-- Generator: Sketch 51 (57462) - http://www.bohemiancoding.com/sketch -->
    <title>Missouri</title>
    <desc>Created with Sketch.</desc>
    <defs></defs>
    <g id="Page-1" stroke="none" stroke-width="1" fill="none" fill-rule="evenodd">
        <g id="A5" transform="translate(-686.000000, -331.000000)">
            <g id="Missouri" transform="translate(686.000000, 331.000000)">
                <polygon id="Fill-53" fill="#D6D6D6" points="90.9901754 7.58238539 90.9901754 7.58238539 90.3842563 8.26443577 89.9816796 9.67029471 89.7824452 11.2385466 89.7208263 12.4866524 89.8029848 13.8693123 90.6882428 18.7944584 90.8299663 19.2491587 91.1503845 19.724738 91.5509073 20.1794383 91.6720911 20.3835894 91.7912209 20.5900605 91.8713255 20.8174106 91.9124047 21.0888388 91.95143 21.8126474 91.8507858 22.7220479 91.8918651 23.063073 91.9925093 23.2672242 92.2923879 23.5850504 92.4731366 23.9701537 93.0790556 24.5362091 93.2392648 24.8308363 93.3008836 25.1509824 93.3994739 25.8539118 93.721946 26.8514685 94.2025734 27.5567179 99.8509713 32.4331461 100.212469 32.8669673 100.491808 33.4121436 100.654071 34.047796 100.79374 34.4537783 101.134698 34.7716045 106.318901 38.3164106 106.824175 38.7919899 107.364368 39.4694005 107.986718 40.5365542 108.288651 41.1513275 108.467346 41.7405819 108.528965 42.1488841 108.54745 42.9886877 108.58853 43.3761108 108.732307 43.7380151 109.173909 44.3736675 109.274553 44.6891738 109.214988 45.030199 109.073265 45.3944232 109.0137 45.7818463 109.173909 46.1669496 109.375197 46.5079748 109.514867 47.0044332 109.574432 47.5032116 109.514867 47.8906348 110.638384 50.0458212 111.363433 50.8879446 112.267177 51.1825718 113.150381 50.6141965 114.337572 48.5286071 115.380985 48.1643829 115.806155 48.3012569 116.568175 48.7768363 116.968698 48.8464332 117.469865 48.8464332 118.576951 49.0946625 120.76853 50.2058942 121.690759 50.9111436 122.091282 51.6813501 121.972152 52.2242065 121.670219 53.019932 121.329261 53.7483804 121.047868 54.0662065 120.787015 54.4281108 120.807555 55.1774383 121.008843 56.381466 121.088948 57.6272519 120.787015 58.6062494 119.881218 60.6454408 119.059632 64.1206499 118.176428 66.0948841 117.915575 67.0924408 117.915575 68.2268715 118.215454 69.5886524 118.377717 70.0642317 118.537926 70.4052569 118.698135 70.6998841 118.899423 70.9759521 120.166718 71.9943879 120.326927 72.2658161 120.988304 72.9037884 121.148513 73.1520176 121.329261 73.6067179 121.729784 73.9245441 122.576017 74.3769244 123.179882 74.9452997 123.761153 75.6482292 124.38145 76.2166045 125.168118 76.4207557 126.431305 77.4415113 126.796911 77.6224635 127.57947 77.5319874 127.860863 77.5992645 128.561265 77.7570176 129.347933 78.3045139 130.693278 79.6198967 131.237578 79.9377229 132.60141 80.4388212 133.164196 80.8007254 133.749575 81.5964509 134.511595 83.183262 135.033302 83.7516373 137.204341 84.6355189 137.824637 85.1342972 137.684968 85.5217204 137.804098 85.9972997 138.009494 86.5424761 138.130678 87.0876524 138.130678 87.5864307 138.071113 88.1084081 138.050573 88.6767834 138.169703 89.2892368 138.711949 90.2867935 139.393865 91.196194 139.975137 92.1937506 140.299663 93.4186574 140.016216 94.5554081 139.3343 95.4601688 138.771514 96.3950882 138.872159 97.5712771 138.993342 97.6617531 139.434944 97.8218262 139.634179 97.9123023 139.995676 98.1860504 139.995676 98.5943526 140.114806 99.0954509 140.320202 99.5478312 140.901474 100.49899 141.885322 101.772615 142.265305 102.589219 142.185201 103.4963 142.591885 103.906922 143.754428 104.790804 144.680766 105.10863 144.921079 105.085431 145.003238 104.767605 144.902594 104.315224 144.721845 104.064675 144.516449 103.906922 144.296675 103.677252 144.015282 103.018401 144.115926 102.700574 144.516449 102.589219 145.042263 102.542821 145.181933 102.679695 145.344196 103.405824 145.422246 103.654053 145.644074 103.839645 146.124702 104.111073 146.30545 104.292025 146.447174 104.609851 146.527278 104.925358 146.627922 105.243184 146.847696 105.470534 147.112658 105.514612 147.373511 105.424136 147.613825 105.266383 147.815113 105.175907 148.254661 105.356859 148.416924 105.878836 148.375845 107.219738 148.497029 108.173217 148.497029 108.467844 148.396384 108.692874 148.215636 108.968942 148.034887 109.307647 147.975322 109.669552 148.114992 110.305204 148.536054 111.32828 148.636698 112.00801 148.536054 112.824615 147.854138 115.026199 147.474155 116.819481 147.071578 117.703363 146.527278 118.111665 145.824823 117.907514 145.202472 117.385537 144.617093 116.752204 144.035821 116.274305 143.813993 116.457577 143.694863 116.638529 143.534654 117.181385 143.312826 118.341335 143.292287 118.816914 143.072513 120.269171 142.971868 120.631076 142.932843 120.814348 142.511781 121.542796 142.185201 121.971977 141.905862 122.176128 141.322536 122.062453 141.262971 121.610073 141.402641 120.9953 141.44372 120.721552 141.523825 120.313249 141.143841 119.134741 140.361282 118.816914 139.675258 119.225217 139.574614 120.313249 139.814927 120.675154 140.036755 120.928023 140.135346 121.018499 140.340742 121.45 140.240098 122.039254 140.260637 122.514834 140.841909 123.718861 140.963093 124.377713 140.782344 125.080642 140.420847 125.419348 139.895032 125.556222 139.3343 125.60262 138.931723 125.897247 139.032368 126.444743 139.414405 127.033997 139.856007 127.419101 140.420847 127.576854 140.66116 127.757806 140.601595 128.098831 140.400307 128.305302 140.135346 128.416657 138.110138 128.711285 137.726047 128.915436 139.073447 130.752796 139.755363 131.912746 139.613639 132.502 139.272681 132.615675 138.872159 132.910302 138.55174 133.249008 138.412071 133.545955 138.370992 134.070252 137.804098 135.383315 137.705508 136.450469 137.625403 136.450469 137.584324 136.473668 137.545298 136.473668 134.431491 136.88429 131.338223 137.313471 128.220307 137.721773 125.108553 138.130076 123.52084 138.334227 123.379116 138.311028 123.340091 138.174154 123.319551 138.060479 123.379116 137.744972 124.022007 135.974889 124.200702 135.654743 124.506742 134.930935 124.747056 134.56903 124.868239 134.318481 124.948344 134.204806 125.048988 134.11433 125.147578 134.023854 125.58918 133.863781 125.710364 133.796504 125.811008 133.706028 125.909599 133.615552 125.971218 133.478678 126.030782 133.341804 126.071862 133.158531 126.071862 133.000778 126.090347 132.72935 126.110887 132.569277 126.151966 132.411524 126.232071 132.27465 126.312175 132.163295 126.51141 131.982343 126.612054 131.912746 126.897555 131.778191 127.359696 131.504443 128.021073 131.005665 128.121717 130.89199 128.181282 130.775995 128.240847 130.618242 128.281926 130.458169 128.320951 129.848035 128.341491 129.711161 128.421595 129.597486 128.522239 129.50701 129.048054 129.258781 129.169238 129.168305 129.267828 129.075509 129.329447 128.964154 129.409551 128.82496 129.448577 128.688086 129.489656 128.530332 129.508142 128.372579 129.489656 128.212506 129.329447 127.328625 129.329447 127.145353 129.409551 126.396025 129.409551 126.034121 129.347933 125.876368 129.288368 125.737174 129.128159 125.509824 129.027514 125.419348 128.904277 125.328872 128.142256 124.89969 128.060098 124.809214 127.979993 124.67234 127.940968 124.514587 127.899889 124.354514 127.840324 123.876615 127.801298 123.74206 127.760219 123.628385 127.680115 123.561108 127.558931 123.491511 127.458287 123.401035 127.398722 123.310559 127.137868 122.651708 126.998199 122.424358 126.95712 122.357081 126.918094 122.289804 125.408432 122.447557 119.439616 123.036811 113.474907 123.605186 107.485551 124.152683 101.516735 124.695539 95.5314874 125.215196 89.5606172 125.713975 83.591801 126.215073 77.6065531 126.669773 71.6171973 127.124474 65.6278415 127.576854 59.6631332 127.985156 53.6737774 128.395778 47.6844216 128.780882 41.6991737 129.168305 35.7098179 129.50701 29.7184081 129.848035 29.0775717 114.641096 28.9173626 110.759904 28.7366138 106.878713 28.4161956 99.139529 28.2354469 95.2560176 27.9150287 87.4959547 27.7342799 83.6170831 27.5699629 79.7567708 27.2474907 72.0175869 27.066742 68.1363955 26.5861147 56.5392191 26.4053659 52.6812267 26.3252614 50.4564433 26.3047218 50.2522922 26.2061315 50.2058942 26.1855919 50.1130982 26.1855919 50.0226222 26.1445126 49.9785441 26.4259056 49.5934408 26.3848263 49.3428917 26.0253828 49.2083375 25.5242159 49.1851385 25.4441113 49.1387406 25.3989241 48.8905113 25.2777403 48.8000353 25.1791501 48.7768363 24.9573221 48.8232343 24.6369039 48.8000353 23.9940135 48.8673123 23.5133862 48.6863602 22.5459696 48.0275088 22.1064216 47.9138338 21.7038449 47.6424055 21.584715 47.0044332 21.5230961 46.3711008 21.3033221 46.0996725 20.5762192 45.5753753 20.0545126 44.3945466 19.8347386 43.1928388 20.0154874 42.6499824 19.0727184 42.4643904 18.9720742 42.3066373 18.8324047 41.8310579 18.7523002 41.6501058 17.8239089 40.9935743 17.4233862 40.8126222 17.2631771 40.6966272 17.043403 40.355602 16.5216965 39.3116474 16.3964047 39.0866171 16.0164216 38.9265441 15.6343845 38.4741637 15.3529916 37.8825894 15.3529916 37.2446171 15.5152546 37.156461 16.0759865 37.086864 16.2957605 36.9059118 16.3573794 36.6576826 16.3758651 36.3166574 16.3163002 35.657806 16.4600776 35.1358287 16.7620101 34.6138514 17.4028465 33.8204458 17.6246745 33.6394937 17.8054233 33.5258186 17.9245531 33.3448665 17.9450927 32.595539 18.0046577 32.2753929 18.1053019 32.0248438 18.265511 31.9134887 19.2924924 32.2081159 19.7751737 32.2081159 20.0955919 31.8230126 20.1161315 31.4819874 19.9949477 31.2778363 19.8347386 31.0736851 19.7340944 30.7117809 19.7546341 30.3707557 19.814199 29.7559824 19.8347386 29.4613552 19.6149646 29.143529 18.6680877 28.5774736 18.3456155 28.1691713 18.5078786 27.8513451 18.5078786 27.4430428 18.3456155 27.0996977 18.0662766 26.9419446 17.5835953 26.9883426 17.2241518 27.0996977 16.9222192 27.3038489 16.2957605 27.9650202 15.8746981 28.3060453 15.3940708 28.4869975 14.9524688 28.2596474 14.3506577 27.5567179 14.1062361 27.3734458 13.8659224 27.2829698 13.4243204 27.2365718 13.2435717 27.1924937 13.0628229 27.0092217 12.9436931 26.8050705 12.8615346 26.5568413 12.7013255 26.3086121 12.5205767 26.218136 12.2617774 26.171738 12.0194098 26.1253401 11.7154233 25.6729597 10.4912614 24.4898111 9.88945025 23.9469547 9.52384486 23.7428035 8.54205059 23.5850504 8.2811973 23.2440252 8.22163238 22.7220479 8.2811973 22.0399975 8.48248567 21.4739421 8.54205059 21.1329169 8.48248567 20.9983627 7.80056998 20.3163123 7.65884654 19.8848111 7.35486003 19.3837128 6.7530489 18.6135063 7.05292749 17.8409798 7.07346712 17.4558766 6.83315346 17.1357305 6.47165599 17.0011763 5.70963575 16.9779773 5.38921754 16.8202242 5.12425632 16.4351209 4.92296796 16.0268186 4.70319393 15.6649144 4.32115683 15.3911662 3.94117369 15.3911662 3.5201113 15.4816423 3.17915346 15.4352443 3.01894435 15.0501411 3.27774368 14.8251108 3.47903204 14.5954408 3.57967622 14.3680907 3.5201113 14.2544156 3.23871838 13.3728539 2.87311298 12.8021587 2.7724688 12.5771285 2.75398314 12.3729773 2.7724688 11.9159572 2.75398314 11.735005 2.5732344 11.2594257 2.1911973 10.7629673 1.98990894 10.3291461 1.95088364 9.89764484 2.01044857 9.55661965 1.98990894 9.21791436 1.65100506 8.90008816 1.14778415 8.71913602 0.726721754 8.64953904 0.443274874 8.37811083 0.322091062 7.60558438 0.402195616 6.80985894 0.523379427 6.80985894 5.60899157 6.53843073 10.6925497 6.26700252 15.7555683 5.97237531 20.8185868 5.65454912 25.904199 5.33672292 30.9672175 5.01889673 36.0302361 4.67787154 41.1117403 4.31596725 46.1788668 3.95174307 51.2418853 3.5666398 56.3049039 3.15833753 61.3679224 2.74771537 66.4329949 2.341733 71.4960135 1.90791184 76.559032 1.45553149 81.6220506 1.00083123 83.6123406 0.819879093 84.4585734 0.752602015 84.6578078 1.18410327 84.7584519 1.31865743 85.1610287 1.59008564 85.2616728 1.75015869 85.3006981 2.15614106 85.3602631 2.43452897 85.4609073 2.65723929 85.641656 2.86139043 85.8429444 2.97738539 86.30714 3.06786146 86.8083069 3.38568766 86.8699258 3.49936272 86.9890556 3.90534509 87.0896998 4.08629723 87.190344 4.15589421 87.2909882 4.1790932 87.5107622 4.15589421 87.6524857 4.19997229 87.7120506 4.33916625 87.7716155 4.4945995 87.8332344 4.65467254 88.0324688 4.7915466 88.4576391 4.95393955 88.6383879 5.0861738 88.7780573 5.29032494 88.8581619 5.49679597 88.8787015 5.7009471 88.8396762 5.90509824 89.0389106 6.17652645 89.8625497 6.946733 90.123403 7.15088413 90.7478078 7.35735516"></polygon>
                <polygon id="Stroke-54" stroke="#F9F9F9" stroke-width="0.25" stroke-linecap="round" stroke-linejoin="round" points="90.9901754 7.58238539 90.9901754 7.58238539 90.3842563 8.26443577 89.9816796 9.67029471 89.7824452 11.2385466 89.7208263 12.4866524 89.8029848 13.8693123 90.6882428 18.7944584 90.8299663 19.2491587 91.1503845 19.724738 91.5509073 20.1794383 91.6720911 20.3835894 91.7912209 20.5900605 91.8713255 20.8174106 91.9124047 21.0888388 91.95143 21.8126474 91.8507858 22.7220479 91.8918651 23.063073 91.9925093 23.2672242 92.2923879 23.5850504 92.4731366 23.9701537 93.0790556 24.5362091 93.2392648 24.8308363 93.3008836 25.1509824 93.3994739 25.8539118 93.721946 26.8514685 94.2025734 27.5567179 99.8509713 32.4331461 100.212469 32.8669673 100.491808 33.4121436 100.654071 34.047796 100.79374 34.4537783 101.134698 34.7716045 106.318901 38.3164106 106.824175 38.7919899 107.364368 39.4694005 107.986718 40.5365542 108.288651 41.1513275 108.467346 41.7405819 108.528965 42.1488841 108.54745 42.9886877 108.58853 43.3761108 108.732307 43.7380151 109.173909 44.3736675 109.274553 44.6891738 109.214988 45.030199 109.073265 45.3944232 109.0137 45.7818463 109.173909 46.1669496 109.375197 46.5079748 109.514867 47.0044332 109.574432 47.5032116 109.514867 47.8906348 110.638384 50.0458212 111.363433 50.8879446 112.267177 51.1825718 113.150381 50.6141965 114.337572 48.5286071 115.380985 48.1643829 115.806155 48.3012569 116.568175 48.7768363 116.968698 48.8464332 117.469865 48.8464332 118.576951 49.0946625 120.76853 50.2058942 121.690759 50.9111436 122.091282 51.6813501 121.972152 52.2242065 121.670219 53.019932 121.329261 53.7483804 121.047868 54.0662065 120.787015 54.4281108 120.807555 55.1774383 121.008843 56.381466 121.088948 57.6272519 120.787015 58.6062494 119.881218 60.6454408 119.059632 64.1206499 118.176428 66.0948841 117.915575 67.0924408 117.915575 68.2268715 118.215454 69.5886524 118.377717 70.0642317 118.537926 70.4052569 118.698135 70.6998841 118.899423 70.9759521 120.166718 71.9943879 120.326927 72.2658161 120.988304 72.9037884 121.148513 73.1520176 121.329261 73.6067179 121.729784 73.9245441 122.576017 74.3769244 123.179882 74.9452997 123.761153 75.6482292 124.38145 76.2166045 125.168118 76.4207557 126.431305 77.4415113 126.796911 77.6224635 127.57947 77.5319874 127.860863 77.5992645 128.561265 77.7570176 129.347933 78.3045139 130.693278 79.6198967 131.237578 79.9377229 132.60141 80.4388212 133.164196 80.8007254 133.749575 81.5964509 134.511595 83.183262 135.033302 83.7516373 137.204341 84.6355189 137.824637 85.1342972 137.684968 85.5217204 137.804098 85.9972997 138.009494 86.5424761 138.130678 87.0876524 138.130678 87.5864307 138.071113 88.1084081 138.050573 88.6767834 138.169703 89.2892368 138.711949 90.2867935 139.393865 91.196194 139.975137 92.1937506 140.299663 93.4186574 140.016216 94.5554081 139.3343 95.4601688 138.771514 96.3950882 138.872159 97.5712771 138.993342 97.6617531 139.434944 97.8218262 139.634179 97.9123023 139.995676 98.1860504 139.995676 98.5943526 140.114806 99.0954509 140.320202 99.5478312 140.901474 100.49899 141.885322 101.772615 142.265305 102.589219 142.185201 103.4963 142.591885 103.906922 143.754428 104.790804 144.680766 105.10863 144.921079 105.085431 145.003238 104.767605 144.902594 104.315224 144.721845 104.064675 144.516449 103.906922 144.296675 103.677252 144.015282 103.018401 144.115926 102.700574 144.516449 102.589219 145.042263 102.542821 145.181933 102.679695 145.344196 103.405824 145.422246 103.654053 145.644074 103.839645 146.124702 104.111073 146.30545 104.292025 146.447174 104.609851 146.527278 104.925358 146.627922 105.243184 146.847696 105.470534 147.112658 105.514612 147.373511 105.424136 147.613825 105.266383 147.815113 105.175907 148.254661 105.356859 148.416924 105.878836 148.375845 107.219738 148.497029 108.173217 148.497029 108.467844 148.396384 108.692874 148.215636 108.968942 148.034887 109.307647 147.975322 109.669552 148.114992 110.305204 148.536054 111.32828 148.636698 112.00801 148.536054 112.824615 147.854138 115.026199 147.474155 116.819481 147.071578 117.703363 146.527278 118.111665 145.824823 117.907514 145.202472 117.385537 144.617093 116.752204 144.035821 116.274305 143.813993 116.457577 143.694863 116.638529 143.534654 117.181385 143.312826 118.341335 143.292287 118.816914 143.072513 120.269171 142.971868 120.631076 142.932843 120.814348 142.511781 121.542796 142.185201 121.971977 141.905862 122.176128 141.322536 122.062453 141.262971 121.610073 141.402641 120.9953 141.44372 120.721552 141.523825 120.313249 141.143841 119.134741 140.361282 118.816914 139.675258 119.225217 139.574614 120.313249 139.814927 120.675154 140.036755 120.928023 140.135346 121.018499 140.340742 121.45 140.240098 122.039254 140.260637 122.514834 140.841909 123.718861 140.963093 124.377713 140.782344 125.080642 140.420847 125.419348 139.895032 125.556222 139.3343 125.60262 138.931723 125.897247 139.032368 126.444743 139.414405 127.033997 139.856007 127.419101 140.420847 127.576854 140.66116 127.757806 140.601595 128.098831 140.400307 128.305302 140.135346 128.416657 138.110138 128.711285 137.726047 128.915436 139.073447 130.752796 139.755363 131.912746 139.613639 132.502 139.272681 132.615675 138.872159 132.910302 138.55174 133.249008 138.412071 133.545955 138.370992 134.070252 137.804098 135.383315 137.705508 136.450469 137.625403 136.450469 137.584324 136.473668 137.545298 136.473668 134.431491 136.88429 131.338223 137.313471 128.220307 137.721773 125.108553 138.130076 123.52084 138.334227 123.379116 138.311028 123.340091 138.174154 123.319551 138.060479 123.379116 137.744972 124.022007 135.974889 124.200702 135.654743 124.506742 134.930935 124.747056 134.56903 124.868239 134.318481 124.948344 134.204806 125.048988 134.11433 125.147578 134.023854 125.58918 133.863781 125.710364 133.796504 125.811008 133.706028 125.909599 133.615552 125.971218 133.478678 126.030782 133.341804 126.071862 133.158531 126.071862 133.000778 126.090347 132.72935 126.110887 132.569277 126.151966 132.411524 126.232071 132.27465 126.312175 132.163295 126.51141 131.982343 126.612054 131.912746 126.897555 131.778191 127.359696 131.504443 128.021073 131.005665 128.121717 130.89199 128.181282 130.775995 128.240847 130.618242 128.281926 130.458169 128.320951 129.848035 128.341491 129.711161 128.421595 129.597486 128.522239 129.50701 129.048054 129.258781 129.169238 129.168305 129.267828 129.075509 129.329447 128.964154 129.409551 128.82496 129.448577 128.688086 129.489656 128.530332 129.508142 128.372579 129.489656 128.212506 129.329447 127.328625 129.329447 127.145353 129.409551 126.396025 129.409551 126.034121 129.347933 125.876368 129.288368 125.737174 129.128159 125.509824 129.027514 125.419348 128.904277 125.328872 128.142256 124.89969 128.060098 124.809214 127.979993 124.67234 127.940968 124.514587 127.899889 124.354514 127.840324 123.876615 127.801298 123.74206 127.760219 123.628385 127.680115 123.561108 127.558931 123.491511 127.458287 123.401035 127.398722 123.310559 127.137868 122.651708 126.998199 122.424358 126.95712 122.357081 126.918094 122.289804 125.408432 122.447557 119.439616 123.036811 113.474907 123.605186 107.485551 124.152683 101.516735 124.695539 95.5314874 125.215196 89.5606172 125.713975 83.591801 126.215073 77.6065531 126.669773 71.6171973 127.124474 65.6278415 127.576854 59.6631332 127.985156 53.6737774 128.395778 47.6844216 128.780882 41.6991737 129.168305 35.7098179 129.50701 29.7184081 129.848035 29.0775717 114.641096 28.9173626 110.759904 28.7366138 106.878713 28.4161956 99.139529 28.2354469 95.2560176 27.9150287 87.4959547 27.7342799 83.6170831 27.5699629 79.7567708 27.2474907 72.0175869 27.066742 68.1363955 26.5861147 56.5392191 26.4053659 52.6812267 26.3252614 50.4564433 26.3047218 50.2522922 26.2061315 50.2058942 26.1855919 50.1130982 26.1855919 50.0226222 26.1445126 49.9785441 26.4259056 49.5934408 26.3848263 49.3428917 26.0253828 49.2083375 25.5242159 49.1851385 25.4441113 49.1387406 25.3989241 48.8905113 25.2777403 48.8000353 25.1791501 48.7768363 24.9573221 48.8232343 24.6369039 48.8000353 23.9940135 48.8673123 23.5133862 48.6863602 22.5459696 48.0275088 22.1064216 47.9138338 21.7038449 47.6424055 21.584715 47.0044332 21.5230961 46.3711008 21.3033221 46.0996725 20.5762192 45.5753753 20.0545126 44.3945466 19.8347386 43.1928388 20.0154874 42.6499824 19.0727184 42.4643904 18.9720742 42.3066373 18.8324047 41.8310579 18.7523002 41.6501058 17.8239089 40.9935743 17.4233862 40.8126222 17.2631771 40.6966272 17.043403 40.355602 16.5216965 39.3116474 16.3964047 39.0866171 16.0164216 38.9265441 15.6343845 38.4741637 15.3529916 37.8825894 15.3529916 37.2446171 15.5152546 37.156461 16.0759865 37.086864 16.2957605 36.9059118 16.3573794 36.6576826 16.3758651 36.3166574 16.3163002 35.657806 16.4600776 35.1358287 16.7620101 34.6138514 17.4028465 33.8204458 17.6246745 33.6394937 17.8054233 33.5258186 17.9245531 33.3448665 17.9450927 32.595539 18.0046577 32.2753929 18.1053019 32.0248438 18.265511 31.9134887 19.2924924 32.2081159 19.7751737 32.2081159 20.0955919 31.8230126 20.1161315 31.4819874 19.9949477 31.2778363 19.8347386 31.0736851 19.7340944 30.7117809 19.7546341 30.3707557 19.814199 29.7559824 19.8347386 29.4613552 19.6149646 29.143529 18.6680877 28.5774736 18.3456155 28.1691713 18.5078786 27.8513451 18.5078786 27.4430428 18.3456155 27.0996977 18.0662766 26.9419446 17.5835953 26.9883426 17.2241518 27.0996977 16.9222192 27.3038489 16.2957605 27.9650202 15.8746981 28.3060453 15.3940708 28.4869975 14.9524688 28.2596474 14.3506577 27.5567179 14.1062361 27.3734458 13.8659224 27.2829698 13.4243204 27.2365718 13.2435717 27.1924937 13.0628229 27.0092217 12.9436931 26.8050705 12.8615346 26.5568413 12.7013255 26.3086121 12.5205767 26.218136 12.2617774 26.171738 12.0194098 26.1253401 11.7154233 25.6729597 10.4912614 24.4898111 9.88945025 23.9469547 9.52384486 23.7428035 8.54205059 23.5850504 8.2811973 23.2440252 8.22163238 22.7220479 8.2811973 22.0399975 8.48248567 21.4739421 8.54205059 21.1329169 8.48248567 20.9983627 7.80056998 20.3163123 7.65884654 19.8848111 7.35486003 19.3837128 6.7530489 18.6135063 7.05292749 17.8409798 7.07346712 17.4558766 6.83315346 17.1357305 6.47165599 17.0011763 5.70963575 16.9779773 5.38921754 16.8202242 5.12425632 16.4351209 4.92296796 16.0268186 4.70319393 15.6649144 4.32115683 15.3911662 3.94117369 15.3911662 3.5201113 15.4816423 3.17915346 15.4352443 3.01894435 15.0501411 3.27774368 14.8251108 3.47903204 14.5954408 3.57967622 14.3680907 3.5201113 14.2544156 3.23871838 13.3728539 2.87311298 12.8021587 2.7724688 12.5771285 2.75398314 12.3729773 2.7724688 11.9159572 2.75398314 11.735005 2.5732344 11.2594257 2.1911973 10.7629673 1.98990894 10.3291461 1.95088364 9.89764484 2.01044857 9.55661965 1.98990894 9.21791436 1.65100506 8.90008816 1.14778415 8.71913602 0.726721754 8.64953904 0.443274874 8.37811083 0.322091062 7.60558438 0.402195616 6.80985894 0.523379427 6.80985894 5.60899157 6.53843073 10.6925497 6.26700252 15.7555683 5.97237531 20.8185868 5.65454912 25.904199 5.33672292 30.9672175 5.01889673 36.0302361 4.67787154 41.1117403 4.31596725 46.1788668 3.95174307 51.2418853 3.5666398 56.3049039 3.15833753 61.3679224 2.74771537 66.4329949 2.341733 71.4960135 1.90791184 76.559032 1.45553149 81.6220506 1.00083123 83.6123406 0.819879093 84.4585734 0.752602015 84.6578078 1.18410327 84.7584519 1.31865743 85.1610287 1.59008564 85.2616728 1.75015869 85.3006981 2.15614106 85.3602631 2.43452897 85.4609073 2.65723929 85.641656 2.86139043 85.8429444 2.97738539 86.30714 3.06786146 86.8083069 3.38568766 86.8699258 3.49936272 86.9890556 3.90534509 87.0896998 4.08629723 87.190344 4.15589421 87.2909882 4.1790932 87.5107622 4.15589421 87.6524857 4.19997229 87.7120506 4.33916625 87.7716155 4.4945995 87.8332344 4.65467254 88.0324688 4.7915466 88.4576391 4.95393955 88.6383879 5.0861738 88.7780573 5.29032494 88.8581619 5.49679597 88.8787015 5.7009471 88.8396762 5.90509824 89.0389106 6.17652645 89.8625497 6.946733 90.123403 7.15088413 90.7478078 7.35735516"></polygon>
            </g>
        </g>
    </g>
</svg>