<?xml version="1.0" encoding="UTF-8"?>
<svg width="174px" height="154px" viewBox="0 0 174 154" version="1.1" xmlns="http://www.w3.org/2000/svg" xmlns:xlink="http://www.w3.org/1999/xlink">
    <!-- Generator: Sketch 51 (57462) - http://www.bohemiancoding.com/sketch -->
    <title>Oregon</title>
    <desc>Created with Sketch.</desc>
    <defs></defs>
    <g id="Page-1" stroke="none" stroke-width="1" fill="none" fill-rule="evenodd">
        <g id="A5" transform="translate(-102.000000, -114.000000)">
            <g id="Oregon" transform="translate(102.000000, 114.000000)">
                <polygon id="Fill-27" fill="#D6D6D6" points="46.6069275 5.99915869 47.8721686 6.04323678 48.2131265 6.24738791 48.4349545 6.56521411 48.9977403 7.26814358 49.238054 7.4954937 49.8008398 7.74836272 50.3636256 8.17754408 50.8873862 8.69952141 51.3084486 9.21917884 51.5693019 9.76667506 51.7911298 10.4232065 51.9307993 11.1284559 51.9307993 12.2860856 52.1320877 12.6711889 52.392941 13.0098942 52.5942293 13.4437154 52.614769 13.9424937 52.5346644 15.2833955 52.6948735 16.3691083 52.5736897 16.8910856 52.3724013 17.4571411 52.2532715 18.1159924 52.555204 19.0253929 52.5736897 19.3200202 52.4935852 19.6378463 52.3128364 20.1830227 52.2327319 20.5008489 52.1115481 21.6352796 52.1115481 22.31733 52.2121922 22.8393073 52.4730455 23.3148866 52.8550826 23.813665 53.278199 24.2219673 54.7241889 24.8808186 55.547828 24.8599395 55.8292209 24.9272166 56.3920067 25.4283149 57.3368297 25.9247733 57.8379966 26.4026725 59.4667892 26.8086549 60.9127791 27.7853325 61.2948162 27.7644534 61.6768533 27.6043804 63.2050017 27.4698262 66.9000809 26.8550529 67.7647993 26.5163476 69.2929477 25.6301461 70.1761518 25.3355189 70.7389376 25.356398 72.1253626 25.9943703 75.0604755 26.0848463 80.7068196 27.9477254 81.569484 28.4905819 81.8919562 28.9220831 82.011086 29.3976625 82.0911906 29.9428388 82.232914 30.6016902 82.5348465 30.9427154 82.9764486 30.9867935 84.8250152 30.5344131 84.9256594 30.5344131 85.3467218 30.6457683 85.5500641 30.7594433 85.6486543 30.7826423 86.2915447 30.8963174 86.4928331 30.9635945 86.7536863 31.1677456 87.5588398 31.4414937 88.4235582 31.3718967 88.6823575 31.4182947 88.8035413 31.3950957 89.7689039 30.8522393 89.929113 30.8290403 91.3566172 30.8290403 92.3199258 30.6248892 92.4411096 30.4184181 92.6013187 30.283864 93.1641046 30.0333149 93.3838786 30.0333149 96.1978078 31.2373426 96.4196358 31.2582217 96.9228567 31.1236675 97.1036054 31.1236675 98.066914 31.5087708 98.288742 31.5319698 98.7714233 31.4414937 99.6135481 31.1236675 99.8148364 31.1004685 100.116769 31.1677456 100.659015 31.4182947 100.960948 31.4414937 101.544273 31.3046196 102.107059 31.0099924 102.788975 30.5112141 103.191551 30.3511411 104.115835 30.3743401 107.149538 29.6922897 112.555568 29.7827657 113.479852 29.2607884 114.141228 28.6274559 114.484239 28.5137809 115.005946 28.5346599 116.332806 28.8756851 119.085116 28.8756851 123.889336 29.7363678 124.891669 29.4649395 125.857032 28.6274559 126.037781 28.648335 126.923039 28.8316071 129.414496 29.3071864 131.905953 29.7827657 134.39741 30.260665 136.868327 30.7130453 139.359784 31.1909446 141.853295 31.6433249 144.342698 32.1189043 146.834155 32.5736045 149.327666 33.0306247 151.819123 33.483005 154.31058 33.9377053 156.802037 34.3668866 159.293494 34.8215869 161.784951 35.2530882 164.276408 35.6869093 166.909589 36.1392897 166.930128 36.2761637 166.969153 37.2041234 167.330651 38.9301285 168.316553 40.4055844 168.417197 40.8834836 168.577406 41.2917859 169.924806 41.8578413 170.085015 42.0828715 170.425973 42.6535668 171.450901 43.5838463 172.235514 43.9016725 172.475828 44.2171788 172.677116 44.581403 172.857865 45.1938564 173.059153 46.4419622 173.56032 47.9846952 173.619885 48.5994685 173.56032 49.232801 173.340546 49.7547783 172.997535 50.1654005 172.334105 50.7569748 172.194435 50.9356071 171.711754 51.8658866 171.531005 52.4551411 171.430361 52.7288892 170.325329 53.8424408 169.904266 54.7704005 169.119653 55.4988489 168.799234 55.9767481 168.636971 56.5868816 168.417197 57.7909093 168.15429 58.2432897 167.833872 58.7003098 167.250546 60.423995 166.687761 61.4911486 164.155224 64.5070176 163.95599 64.8016448 163.855346 65.096272 163.855346 65.441937 163.914911 65.6878463 163.995015 65.8479194 164.015555 65.9383955 163.914911 66.5508489 163.514388 67.8685516 163.27202 68.3882091 162.690749 69.3416877 161.382374 71.0212947 161.061956 71.3414408 160.640894 71.612869 159.334573 72.2462015 158.911457 72.6545038 158.650604 73.0442469 157.907069 74.4501058 157.264179 75.3780655 156.962246 75.9696398 156.641828 77.0808715 156.360435 77.6028489 156.019477 78.059869 155.717545 78.3521763 155.475177 78.4426524 155.255403 78.4658514 155.054115 78.5795264 154.932931 78.9437506 154.832287 79.1015038 154.612513 79.2383778 154.470789 79.41933 154.550894 80.2359345 154.33112 80.7347128 154.029187 81.2822091 153.868978 81.9619395 153.908003 82.3006448 154.088752 82.9594962 154.109292 83.3445995 154.029187 83.6415466 153.887464 84.0057708 153.827899 84.300398 153.887464 84.8664534 154.148317 85.3188338 154.832287 86.0472821 155.054115 85.843131 155.255403 85.6181008 155.475177 85.4325088 155.75657 85.3652317 155.998938 85.4765869 156.118067 85.7549748 156.200226 86.0472821 156.319356 86.2978312 156.721933 86.5251814 157.06289 86.4787834 157.444927 86.3651083 157.907069 86.3651083 158.128897 86.5019824 158.167922 86.7734106 158.108358 87.1121159 158.108358 87.4299421 158.209002 87.8614433 158.289106 88.0191965 158.691683 88.3625416 158.991562 88.7012469 159.314034 89.1791461 159.373599 89.4737733 159.275008 89.6779244 159.112745 89.8147985 159.012101 89.9725516 158.973076 90.3135768 158.892971 90.6569219 158.771788 90.9724282 158.570499 91.2438564 158.330185 91.3134534 158.067278 91.2438564 157.785885 91.2438564 157.545572 91.4735264 157.486007 91.9491058 157.88653 93.0348186 157.948148 93.69367 157.88653 94.0138161 157.785885 94.2411662 157.666755 94.4453174 157.525032 94.7608237 157.223099 95.9416524 156.841062 96.8510529 156.680853 97.5307834 156.360435 98.1641159 156.079042 98.507461 155.596361 98.8020882 155.214324 99.2335894 155.273889 99.9365189 155.255403 100.163869 155.273889 100.548972 154.912391 103.202937 154.731642 104.52296 154.31058 107.562028 153.908003 110.601096 153.486941 113.668003 153.065879 116.70939 152.663302 119.750778 152.240185 122.792166 151.837609 125.854433 150.995484 131.939529 150.592907 135.001796 150.169791 138.064063 149.748728 141.107771 149.348206 144.170038 148.925089 147.236945 148.501973 150.276013 148.10145 153.33828 144.303673 152.681748 140.526435 152.002018 136.747143 151.319967 132.969906 150.637917 129.192668 149.937307 125.41543 149.232058 121.638192 148.526809 117.860954 147.823879 114.081663 147.100071 110.304425 146.350743 106.547727 145.622295 102.768435 144.875287 99.0117369 144.12596 95.2344992 143.378952 91.4552074 142.604106 87.6779696 141.833899 82.3931231 140.720348 77.1082766 139.611436 71.8439696 138.495564 66.5796627 137.340254 61.2948162 136.205824 56.0305093 135.024995 50.7662024 133.846486 45.4998415 132.640139 40.2375885 131.438431 34.9732816 130.213524 29.7069207 128.986297 24.4631535 127.738191 19.1967926 126.466887 13.9530253 125.174703 8.70720405 123.880199 3.46343676 122.588015 3.36279258 122.541617 2.80000675 122.404743 2.63979764 121.704134 1.63540978 120.456028 0.971979764 119.001451 0.731666105 118.750902 0.651561551 118.433076 0.791231029 115.210736 0.670047218 114.507806 0.368114671 114.145902 0.468758853 113.848955 0.53037774 113.190103 0.548863406 112.057992 0.468758853 111.965196 0.308549747 111.716967 0.207905565 111.468738 0.448219224 111.306345 0.589942664 111.102194 0.830256324 110.670693 0.951440135 110.331987 1.05208432 109.877287 1.19175379 108.877411 1.19175379 107.991209 1.23283305 107.652504 1.39304216 107.244202 2.05647218 106.246645 2.21668128 105.884741 2.57817875 104.928942 2.59871838 103.479005 2.71990219 102.546406 2.71990219 102.024428 2.55969309 101.708922 2.29678583 101.435174 2.0770118 101.117348 1.9168027 100.59305 1.79561889 99.6418917 1.67443508 99.2103904 1.35401686 99.4145416 1.23283305 99.0085592 1.21229342 97.3034332 1.1527285 96.91833 0.992519393 96.5796247 0.711126476 96.2594786 1.1527285 96.0112494 2.63979764 93.6263929 3.6441855 92.0395819 3.96460371 91.6544786 4.30761551 91.3134534 4.63008769 90.9028312 4.84986172 90.3135768 4.9895312 89.7220025 5.3715683 88.4738967 6.92025632 84.7063804 7.19959528 83.4582746 7.24067454 83.0267733 7.32077909 82.8226222 7.52206745 82.5303149 7.76238111 82.2797657 8.18549747 82.1196927 8.4052715 81.9851385 8.62709949 82.0292166 8.4052715 83.6415466 8.64763912 84.0498489 8.78936256 84.0962469 8.92903204 83.3445995 8.96805734 83.0035743 8.92903204 82.64167 9.15086003 82.7089471 9.29052951 82.6857481 9.39117369 82.5743929 9.5513828 82.3702418 9.35009444 82.0060176 9.69310624 81.3958841 10.2949174 80.8043098 10.8186779 80.6256776 11.0795312 80.7811108 11.0795312 81.052539 10.9994266 81.4190831 11.0589916 81.9387406 11.2602799 82.2565668 11.6217774 82.5535139 12.0038145 82.7089471 12.3242327 82.664869 11.8210118 81.4190831 11.8025261 80.6697557 11.701882 80.4168866 11.6012378 80.2127355 11.5806981 80.0573023 11.6608027 79.8044332 12.0038145 79.2383778 11.2787656 79.533005 10.3955616 80.1663375 9.59246206 80.9179849 8.98859696 81.6441134 8.88795278 81.3958841 9.37063406 80.7347128 11.3814637 77.1040705 11.4821079 76.7862443 11.8025261 76.2201889 12.2235885 74.8792872 12.4454165 74.4941839 12.7473491 74.1554786 13.3286206 73.7703753 13.6120675 73.4943073 13.8318415 73.109204 14.0125902 72.7449798 14.2138786 72.5199496 14.5158111 72.4967506 14.5158111 72.5872267 14.4541922 72.7913778 14.4541922 73.0001688 14.5959157 73.109204 15.4791197 73.3365542 15.520199 73.155602 15.3189106 72.8145768 14.9368735 72.3598766 14.4952715 72.0211713 14.0926948 72.0652494 13.8113019 72.5199496 13.4908836 73.178801 13.2300304 73.4943073 13.1293862 72.9769698 13.248516 72.3366776 13.8318415 71.2045668 14.9368735 67.7966348 15.3599899 66.6204458 15.4996594 66.1448665 15.739973 64.9385189 15.8406172 64.7111688 16.1220101 64.5974937 16.2822192 64.3260655 16.2822192 64.1683123 16.2226543 63.3053098 16.2431939 62.9225264 16.3027589 62.6905365 16.3623238 62.4863854 16.684796 61.6048237 17.4694098 59.1758892 17.7713423 57.3130101 18.1123002 56.2713753 18.1328398 56.0904232 18.0712209 55.7934761 18.0917605 55.610204 18.1718651 55.4524509 18.3936931 55.2482997 18.4737976 55.1114257 19.1783069 53.4782166 19.338516 52.9098413 19.560344 52.501539 19.9218415 52.5920151 20.5647319 53.1139924 20.4640877 52.2973879 20.1621551 52.1837128 19.780118 52.2277909 19.4802395 51.9122846 19.4596998 51.3671083 19.5993693 50.6641788 20.8851501 47.0544156 21.1069781 47.0776146 21.4684755 47.4627179 21.829973 47.690068 21.9696425 47.2353678 21.8895379 46.8270655 21.6903035 46.8270655 21.4499899 46.9175416 21.2076223 46.8038665 21.0864384 46.4419622 21.1275177 46.147335 21.2076223 45.8503879 21.1480573 45.4444055 21.166543 45.0593023 21.5485801 43.7647985 21.6492243 43.1755441 21.6697639 42.6535668 21.9696425 40.8602846 22.1914705 40.4287834 22.5324283 39.9740831 22.8754401 39.4521058 23.0151096 38.9301285 23.0746745 38.7027783 23.2574772 38.6123023 23.4176863 38.4313501 23.5388702 37.9534509 23.5183305 37.7724987 23.4587656 37.6147456 23.7606981 36.9767733 24.0010118 36.1160907 24.3830489 34.8215869 24.2413255 34.4573627 24.32143 34.1859345 24.6233626 33.7103552 25.1265835 33.1442997 25.4079764 32.4854484 25.6688297 31.803398 25.707855 31.3718967 25.7879595 30.6898463 25.8084992 30.3743401 25.9091433 29.9660378 26.1905363 28.8988841 26.2706408 28.8316071 26.3507454 28.8084081 26.4719292 28.7388111 26.5520337 28.6042569 26.5520337 28.4465038 26.6937572 27.6275793 26.7944013 26.92233 26.6526779 26.6741008 26.371285 26.4467506 26.1104317 26.3562746 26.151511 26.1521234 26.5725734 26.1080453 26.7944013 25.7902191 26.9546105 25.3123199 27.0757943 24.9504156 27.1949241 24.6534685 27.2955683 24.4725164 27.3962125 24.3124433 27.4557774 24.3820403 27.3962125 24.4933955 27.1148196 25.356398 27.4968567 25.1313678 27.8378145 24.7207456 28.1602867 24.4261184 27.5564216 23.813665 27.3366476 23.2012116 27.5975008 21.9739849 27.9384587 21.4079295 28.2013659 20.5008489 28.361575 20.2734987 28.2403912 21.1828992 28.2198516 21.9739849 28.42114 22.407806 28.7230725 22.5655592 29.0229511 22.9089043 29.1646745 22.8393073 29.3248836 22.5887582 29.7069207 22.407806 29.7274604 22.178136 29.304344 21.9971839 29.1235953 21.5888816 29.1852142 21.0460252 29.3865025 20.4335718 28.8031771 20.4567708 28.4416796 19.9324736 28.2814705 19.6842443 28.3821147 19.3200202 28.7415582 18.4361385 29.0044654 17.7796071 29.5056324 17.413063 29.7069207 17.1648338 29.9287487 17.0279597 30.1690624 16.9815617 30.4093761 16.8678866 30.6517437 16.5732594 30.5120742 16.5964584 30.4299157 16.5964584 30.3292715 16.6196574 30.2101417 16.6869345 29.967774 16.4155063 29.7274604 16.4387053 29.5056324 16.6869345 29.3454233 16.8470076 29.1646745 17.1184358 29.3659629 16.2345542 29.3454233 15.3738715 29.1051096 14.6454232 28.7025329 14.2371209 29.3659629 13.3068413 29.6062766 12.7639849 29.9883137 11.1284559 30.0499325 10.4232065 29.9883137 9.74347607 29.6863811 9.10550378 29.9082091 8.83407557 30.1094975 8.76679849 30.3292715 8.69952141 30.8920573 8.31441814 31.0132411 8.15434509 31.1939899 7.8156398 31.4158179 7.22406549 31.5554874 6.56521411 31.6561315 5.88548363 31.6972108 5.22895214 31.6561315 4.06900252 31.1734503 1.54959194 31.1939899 0.893060453 31.576027 0.869861461 31.4959224 0.960337531 31.4548432 1.0508136 31.3747386 1.25496474 31.8574199 1.43591688 32.3401012 1.91149622 32.7426779 2.47987154 33.0035312 2.97864987 33.3054637 3.29879597 33.9668398 3.38927204 34.1886678 3.59342317 34.2482327 4.06900252 34.1475885 4.47730479 34.0880236 4.86240806 34.287258 5.27303023 34.3283373 4.88560705 34.4289815 4.56778086 34.6097302 4.38450882 34.8705835 4.36362972 34.9116627 4.20355668 34.7699393 3.97852645 34.4906003 3.36607305 34.3283373 3.2083199 34.1270489 3.13872292 33.9463002 3.02504786 33.8066307 2.84177582 33.6854469 2.61906549 34.067484 2.54946851 34.7904789 2.66314358 35.1519764 2.50307053 35.4539089 2.43579345 35.6346577 2.70954156 35.895511 3.38927204 36.1769039 3.63750126 36.4788364 3.68389924 38.2657841 3.72797733 38.5882563 3.63750126 38.3684823 3.27559698 38.2472985 3.16192191 38.5286914 3.11552393 39.1305025 3.27559698 39.4735143 3.25239798 40.0568398 2.97864987 40.3567184 2.9113728 40.7592951 2.93225189 40.9790691 3.07144584 41.1618718 3.31967506 41.8643272 5.11527708 41.9444317 5.38438539 42.205285 5.74860957 44.1544958 6.63249118 45.2800675 6.9039194 45.5614604 6.81344332 46.24543 6.18011083"></polygon>
                <polygon id="Stroke-28" stroke="#F9F9F9" stroke-width="0.25" stroke-linecap="round" stroke-linejoin="round" points="46.6069275 5.99915869 47.8721686 6.04323678 48.2131265 6.24738791 48.4349545 6.56521411 48.9977403 7.26814358 49.238054 7.4954937 49.8008398 7.74836272 50.3636256 8.17754408 50.8873862 8.69952141 51.3084486 9.21917884 51.5693019 9.76667506 51.7911298 10.4232065 51.9307993 11.1284559 51.9307993 12.2860856 52.1320877 12.6711889 52.392941 13.0098942 52.5942293 13.4437154 52.614769 13.9424937 52.5346644 15.2833955 52.6948735 16.3691083 52.5736897 16.8910856 52.3724013 17.4571411 52.2532715 18.1159924 52.555204 19.0253929 52.5736897 19.3200202 52.4935852 19.6378463 52.3128364 20.1830227 52.2327319 20.5008489 52.1115481 21.6352796 52.1115481 22.31733 52.2121922 22.8393073 52.4730455 23.3148866 52.8550826 23.813665 53.278199 24.2219673 54.7241889 24.8808186 55.547828 24.8599395 55.8292209 24.9272166 56.3920067 25.4283149 57.3368297 25.9247733 57.8379966 26.4026725 59.4667892 26.8086549 60.9127791 27.7853325 61.2948162 27.7644534 61.6768533 27.6043804 63.2050017 27.4698262 66.9000809 26.8550529 67.7647993 26.5163476 69.2929477 25.6301461 70.1761518 25.3355189 70.7389376 25.356398 72.1253626 25.9943703 75.0604755 26.0848463 80.7068196 27.9477254 81.569484 28.4905819 81.8919562 28.9220831 82.011086 29.3976625 82.0911906 29.9428388 82.232914 30.6016902 82.5348465 30.9427154 82.9764486 30.9867935 84.8250152 30.5344131 84.9256594 30.5344131 85.3467218 30.6457683 85.5500641 30.7594433 85.6486543 30.7826423 86.2915447 30.8963174 86.4928331 30.9635945 86.7536863 31.1677456 87.5588398 31.4414937 88.4235582 31.3718967 88.6823575 31.4182947 88.8035413 31.3950957 89.7689039 30.8522393 89.929113 30.8290403 91.3566172 30.8290403 92.3199258 30.6248892 92.4411096 30.4184181 92.6013187 30.283864 93.1641046 30.0333149 93.3838786 30.0333149 96.1978078 31.2373426 96.4196358 31.2582217 96.9228567 31.1236675 97.1036054 31.1236675 98.066914 31.5087708 98.288742 31.5319698 98.7714233 31.4414937 99.6135481 31.1236675 99.8148364 31.1004685 100.116769 31.1677456 100.659015 31.4182947 100.960948 31.4414937 101.544273 31.3046196 102.107059 31.0099924 102.788975 30.5112141 103.191551 30.3511411 104.115835 30.3743401 107.149538 29.6922897 112.555568 29.7827657 113.479852 29.2607884 114.141228 28.6274559 114.484239 28.5137809 115.005946 28.5346599 116.332806 28.8756851 119.085116 28.8756851 123.889336 29.7363678 124.891669 29.4649395 125.857032 28.6274559 126.037781 28.648335 126.923039 28.8316071 129.414496 29.3071864 131.905953 29.7827657 134.39741 30.260665 136.868327 30.7130453 139.359784 31.1909446 141.853295 31.6433249 144.342698 32.1189043 146.834155 32.5736045 149.327666 33.0306247 151.819123 33.483005 154.31058 33.9377053 156.802037 34.3668866 159.293494 34.8215869 161.784951 35.2530882 164.276408 35.6869093 166.909589 36.1392897 166.930128 36.2761637 166.969153 37.2041234 167.330651 38.9301285 168.316553 40.4055844 168.417197 40.8834836 168.577406 41.2917859 169.924806 41.8578413 170.085015 42.0828715 170.425973 42.6535668 171.450901 43.5838463 172.235514 43.9016725 172.475828 44.2171788 172.677116 44.581403 172.857865 45.1938564 173.059153 46.4419622 173.56032 47.9846952 173.619885 48.5994685 173.56032 49.232801 173.340546 49.7547783 172.997535 50.1654005 172.334105 50.7569748 172.194435 50.9356071 171.711754 51.8658866 171.531005 52.4551411 171.430361 52.7288892 170.325329 53.8424408 169.904266 54.7704005 169.119653 55.4988489 168.799234 55.9767481 168.636971 56.5868816 168.417197 57.7909093 168.15429 58.2432897 167.833872 58.7003098 167.250546 60.423995 166.687761 61.4911486 164.155224 64.5070176 163.95599 64.8016448 163.855346 65.096272 163.855346 65.441937 163.914911 65.6878463 163.995015 65.8479194 164.015555 65.9383955 163.914911 66.5508489 163.514388 67.8685516 163.27202 68.3882091 162.690749 69.3416877 161.382374 71.0212947 161.061956 71.3414408 160.640894 71.612869 159.334573 72.2462015 158.911457 72.6545038 158.650604 73.0442469 157.907069 74.4501058 157.264179 75.3780655 156.962246 75.9696398 156.641828 77.0808715 156.360435 77.6028489 156.019477 78.059869 155.717545 78.3521763 155.475177 78.4426524 155.255403 78.4658514 155.054115 78.5795264 154.932931 78.9437506 154.832287 79.1015038 154.612513 79.2383778 154.470789 79.41933 154.550894 80.2359345 154.33112 80.7347128 154.029187 81.2822091 153.868978 81.9619395 153.908003 82.3006448 154.088752 82.9594962 154.109292 83.3445995 154.029187 83.6415466 153.887464 84.0057708 153.827899 84.300398 153.887464 84.8664534 154.148317 85.3188338 154.832287 86.0472821 155.054115 85.843131 155.255403 85.6181008 155.475177 85.4325088 155.75657 85.3652317 155.998938 85.4765869 156.118067 85.7549748 156.200226 86.0472821 156.319356 86.2978312 156.721933 86.5251814 157.06289 86.4787834 157.444927 86.3651083 157.907069 86.3651083 158.128897 86.5019824 158.167922 86.7734106 158.108358 87.1121159 158.108358 87.4299421 158.209002 87.8614433 158.289106 88.0191965 158.691683 88.3625416 158.991562 88.7012469 159.314034 89.1791461 159.373599 89.4737733 159.275008 89.6779244 159.112745 89.8147985 159.012101 89.9725516 158.973076 90.3135768 158.892971 90.6569219 158.771788 90.9724282 158.570499 91.2438564 158.330185 91.3134534 158.067278 91.2438564 157.785885 91.2438564 157.545572 91.4735264 157.486007 91.9491058 157.88653 93.0348186 157.948148 93.69367 157.88653 94.0138161 157.785885 94.2411662 157.666755 94.4453174 157.525032 94.7608237 157.223099 95.9416524 156.841062 96.8510529 156.680853 97.5307834 156.360435 98.1641159 156.079042 98.507461 155.596361 98.8020882 155.214324 99.2335894 155.273889 99.9365189 155.255403 100.163869 155.273889 100.548972 154.912391 103.202937 154.731642 104.52296 154.31058 107.562028 153.908003 110.601096 153.486941 113.668003 153.065879 116.70939 152.663302 119.750778 152.240185 122.792166 151.837609 125.854433 150.995484 131.939529 150.592907 135.001796 150.169791 138.064063 149.748728 141.107771 149.348206 144.170038 148.925089 147.236945 148.501973 150.276013 148.10145 153.33828 144.303673 152.681748 140.526435 152.002018 136.747143 151.319967 132.969906 150.637917 129.192668 149.937307 125.41543 149.232058 121.638192 148.526809 117.860954 147.823879 114.081663 147.100071 110.304425 146.350743 106.547727 145.622295 102.768435 144.875287 99.0117369 144.12596 95.2344992 143.378952 91.4552074 142.604106 87.6779696 141.833899 82.3931231 140.720348 77.1082766 139.611436 71.8439696 138.495564 66.5796627 137.340254 61.2948162 136.205824 56.0305093 135.024995 50.7662024 133.846486 45.4998415 132.640139 40.2375885 131.438431 34.9732816 130.213524 29.7069207 128.986297 24.4631535 127.738191 19.1967926 126.466887 13.9530253 125.174703 8.70720405 123.880199 3.46343676 122.588015 3.36279258 122.541617 2.80000675 122.404743 2.63979764 121.704134 1.63540978 120.456028 0.971979764 119.001451 0.731666105 118.750902 0.651561551 118.433076 0.791231029 115.210736 0.670047218 114.507806 0.368114671 114.145902 0.468758853 113.848955 0.53037774 113.190103 0.548863406 112.057992 0.468758853 111.965196 0.308549747 111.716967 0.207905565 111.468738 0.448219224 111.306345 0.589942664 111.102194 0.830256324 110.670693 0.951440135 110.331987 1.05208432 109.877287 1.19175379 108.877411 1.19175379 107.991209 1.23283305 107.652504 1.39304216 107.244202 2.05647218 106.246645 2.21668128 105.884741 2.57817875 104.928942 2.59871838 103.479005 2.71990219 102.546406 2.71990219 102.024428 2.55969309 101.708922 2.29678583 101.435174 2.0770118 101.117348 1.9168027 100.59305 1.79561889 99.6418917 1.67443508 99.2103904 1.35401686 99.4145416 1.23283305 99.0085592 1.21229342 97.3034332 1.1527285 96.91833 0.992519393 96.5796247 0.711126476 96.2594786 1.1527285 96.0112494 2.63979764 93.6263929 3.6441855 92.0395819 3.96460371 91.6544786 4.30761551 91.3134534 4.63008769 90.9028312 4.84986172 90.3135768 4.9895312 89.7220025 5.3715683 88.4738967 6.92025632 84.7063804 7.19959528 83.4582746 7.24067454 83.0267733 7.32077909 82.8226222 7.52206745 82.5303149 7.76238111 82.2797657 8.18549747 82.1196927 8.4052715 81.9851385 8.62709949 82.0292166 8.4052715 83.6415466 8.64763912 84.0498489 8.78936256 84.0962469 8.92903204 83.3445995 8.96805734 83.0035743 8.92903204 82.64167 9.15086003 82.7089471 9.29052951 82.6857481 9.39117369 82.5743929 9.5513828 82.3702418 9.35009444 82.0060176 9.69310624 81.3958841 10.2949174 80.8043098 10.8186779 80.6256776 11.0795312 80.7811108 11.0795312 81.052539 10.9994266 81.4190831 11.0589916 81.9387406 11.2602799 82.2565668 11.6217774 82.5535139 12.0038145 82.7089471 12.3242327 82.664869 11.8210118 81.4190831 11.8025261 80.6697557 11.701882 80.4168866 11.6012378 80.2127355 11.5806981 80.0573023 11.6608027 79.8044332 12.0038145 79.2383778 11.2787656 79.533005 10.3955616 80.1663375 9.59246206 80.9179849 8.98859696 81.6441134 8.88795278 81.3958841 9.37063406 80.7347128 11.3814637 77.1040705 11.4821079 76.7862443 11.8025261 76.2201889 12.2235885 74.8792872 12.4454165 74.4941839 12.7473491 74.1554786 13.3286206 73.7703753 13.6120675 73.4943073 13.8318415 73.109204 14.0125902 72.7449798 14.2138786 72.5199496 14.5158111 72.4967506 14.5158111 72.5872267 14.4541922 72.7913778 14.4541922 73.0001688 14.5959157 73.109204 15.4791197 73.3365542 15.520199 73.155602 15.3189106 72.8145768 14.9368735 72.3598766 14.4952715 72.0211713 14.0926948 72.0652494 13.8113019 72.5199496 13.4908836 73.178801 13.2300304 73.4943073 13.1293862 72.9769698 13.248516 72.3366776 13.8318415 71.2045668 14.9368735 67.7966348 15.3599899 66.6204458 15.4996594 66.1448665 15.739973 64.9385189 15.8406172 64.7111688 16.1220101 64.5974937 16.2822192 64.3260655 16.2822192 64.1683123 16.2226543 63.3053098 16.2431939 62.9225264 16.3027589 62.6905365 16.3623238 62.4863854 16.684796 61.6048237 17.4694098 59.1758892 17.7713423 57.3130101 18.1123002 56.2713753 18.1328398 56.0904232 18.0712209 55.7934761 18.0917605 55.610204 18.1718651 55.4524509 18.3936931 55.2482997 18.4737976 55.1114257 19.1783069 53.4782166 19.338516 52.9098413 19.560344 52.501539 19.9218415 52.5920151 20.5647319 53.1139924 20.4640877 52.2973879 20.1621551 52.1837128 19.780118 52.2277909 19.4802395 51.9122846 19.4596998 51.3671083 19.5993693 50.6641788 20.8851501 47.0544156 21.1069781 47.0776146 21.4684755 47.4627179 21.829973 47.690068 21.9696425 47.2353678 21.8895379 46.8270655 21.6903035 46.8270655 21.4499899 46.9175416 21.2076223 46.8038665 21.0864384 46.4419622 21.1275177 46.147335 21.2076223 45.8503879 21.1480573 45.4444055 21.166543 45.0593023 21.5485801 43.7647985 21.6492243 43.1755441 21.6697639 42.6535668 21.9696425 40.8602846 22.1914705 40.4287834 22.5324283 39.9740831 22.8754401 39.4521058 23.0151096 38.9301285 23.0746745 38.7027783 23.2574772 38.6123023 23.4176863 38.4313501 23.5388702 37.9534509 23.5183305 37.7724987 23.4587656 37.6147456 23.7606981 36.9767733 24.0010118 36.1160907 24.3830489 34.8215869 24.2413255 34.4573627 24.32143 34.1859345 24.6233626 33.7103552 25.1265835 33.1442997 25.4079764 32.4854484 25.6688297 31.803398 25.707855 31.3718967 25.7879595 30.6898463 25.8084992 30.3743401 25.9091433 29.9660378 26.1905363 28.8988841 26.2706408 28.8316071 26.3507454 28.8084081 26.4719292 28.7388111 26.5520337 28.6042569 26.5520337 28.4465038 26.6937572 27.6275793 26.7944013 26.92233 26.6526779 26.6741008 26.371285 26.4467506 26.1104317 26.3562746 26.151511 26.1521234 26.5725734 26.1080453 26.7944013 25.7902191 26.9546105 25.3123199 27.0757943 24.9504156 27.1949241 24.6534685 27.2955683 24.4725164 27.3962125 24.3124433 27.4557774 24.3820403 27.3962125 24.4933955 27.1148196 25.356398 27.4968567 25.1313678 27.8378145 24.7207456 28.1602867 24.4261184 27.5564216 23.813665 27.3366476 23.2012116 27.5975008 21.9739849 27.9384587 21.4079295 28.2013659 20.5008489 28.361575 20.2734987 28.2403912 21.1828992 28.2198516 21.9739849 28.42114 22.407806 28.7230725 22.5655592 29.0229511 22.9089043 29.1646745 22.8393073 29.3248836 22.5887582 29.7069207 22.407806 29.7274604 22.178136 29.304344 21.9971839 29.1235953 21.5888816 29.1852142 21.0460252 29.3865025 20.4335718 28.8031771 20.4567708 28.4416796 19.9324736 28.2814705 19.6842443 28.3821147 19.3200202 28.7415582 18.4361385 29.0044654 17.7796071 29.5056324 17.413063 29.7069207 17.1648338 29.9287487 17.0279597 30.1690624 16.9815617 30.4093761 16.8678866 30.6517437 16.5732594 30.5120742 16.5964584 30.4299157 16.5964584 30.3292715 16.6196574 30.2101417 16.6869345 29.967774 16.4155063 29.7274604 16.4387053 29.5056324 16.6869345 29.3454233 16.8470076 29.1646745 17.1184358 29.3659629 16.2345542 29.3454233 15.3738715 29.1051096 14.6454232 28.7025329 14.2371209 29.3659629 13.3068413 29.6062766 12.7639849 29.9883137 11.1284559 30.0499325 10.4232065 29.9883137 9.74347607 29.6863811 9.10550378 29.9082091 8.83407557 30.1094975 8.76679849 30.3292715 8.69952141 30.8920573 8.31441814 31.0132411 8.15434509 31.1939899 7.8156398 31.4158179 7.22406549 31.5554874 6.56521411 31.6561315 5.88548363 31.6972108 5.22895214 31.6561315 4.06900252 31.1734503 1.54959194 31.1939899 0.893060453 31.576027 0.869861461 31.4959224 0.960337531 31.4548432 1.0508136 31.3747386 1.25496474 31.8574199 1.43591688 32.3401012 1.91149622 32.7426779 2.47987154 33.0035312 2.97864987 33.3054637 3.29879597 33.9668398 3.38927204 34.1886678 3.59342317 34.2482327 4.06900252 34.1475885 4.47730479 34.0880236 4.86240806 34.287258 5.27303023 34.3283373 4.88560705 34.4289815 4.56778086 34.6097302 4.38450882 34.8705835 4.36362972 34.9116627 4.20355668 34.7699393 3.97852645 34.4906003 3.36607305 34.3283373 3.2083199 34.1270489 3.13872292 33.9463002 3.02504786 33.8066307 2.84177582 33.6854469 2.61906549 34.067484 2.54946851 34.7904789 2.66314358 35.1519764 2.50307053 35.4539089 2.43579345 35.6346577 2.70954156 35.895511 3.38927204 36.1769039 3.63750126 36.4788364 3.68389924 38.2657841 3.72797733 38.5882563 3.63750126 38.3684823 3.27559698 38.2472985 3.16192191 38.5286914 3.11552393 39.1305025 3.27559698 39.4735143 3.25239798 40.0568398 2.97864987 40.3567184 2.9113728 40.7592951 2.93225189 40.9790691 3.07144584 41.1618718 3.31967506 41.8643272 5.11527708 41.9444317 5.38438539 42.205285 5.74860957 44.1544958 6.63249118 45.2800675 6.9039194 45.5614604 6.81344332 46.24543 6.18011083"></polygon>
            </g>
        </g>
    </g>
</svg>