<?xml version="1.0" encoding="UTF-8"?>
<svg width="31px" height="74px" viewBox="0 0 31 74" version="1.1" xmlns="http://www.w3.org/2000/svg" xmlns:xlink="http://www.w3.org/1999/xlink">
    <!-- Generator: Sketch 51 (57462) - http://www.bohemiancoding.com/sketch -->
    <title>New Jersey</title>
    <desc>Created with Sketch.</desc>
    <defs></defs>
    <g id="Page-1" stroke="none" stroke-width="1" fill="none" fill-rule="evenodd">
        <g id="A5" transform="translate(-1109.000000, -249.000000)">
            <g id="New-Jersey" transform="translate(1109.000000, 249.000000)">
                <path d="M26.2259528,54.4730302 L26.5258314,54.9509295 L26.326597,55.3128338 L26.2054132,56.2871914 L25.9835852,56.5609395 L25.6631669,56.4959824 L25.4228533,56.1735164 L25.1784317,55.9693652 L24.8580135,56.2407935 L25.4824182,56.8787657 L26.1848735,56.8323678 L26.7866847,56.2871914 L27.2282867,55.4033098 L27.3289309,54.5171083 L27.4090354,54.4498312 L27.5487049,54.2688791 L27.5938921,54.108806 L26.5258314,54.2224811 L26.2259528,54.4730302 L26.2259528,54.4730302 Z M29.7793086,44.692335 L29.6786644,45.0542393 L29.5184553,45.8267657 L29.5389949,46.5296952 L28.2347285,50.7263929 L28.1957032,51.4989194 L28.1340843,51.7935466 L28.1340843,51.9304207 L28.1751636,52.1577708 L28.4955818,51.3156474 L28.9762091,48.8194358 L29.6396391,47.6641259 L29.8635211,46.5064962 L29.9847049,45.2351914 L29.9847049,44.4209068 L29.7793086,44.692335 L29.7793086,44.692335 Z M29.92514,39.9249421 L29.9847049,38.8809874 L29.8203879,38.7441134 L29.8840607,38.222136 L29.699204,36.8626751 L29.9046003,35.6354484 L29.758769,34.9325189 L29.4383508,34.4082217 L29.0172884,34.2759874 L29.2370624,33.364267 L29.4383508,30.7543804 L29.2185767,29.9841738 L29.3171669,29.2371662 L29.5184553,28.506398 L29.5595346,27.8266675 L28.4750422,23.924597 L28.1546239,23.1961486 L27.7746408,22.8806423 L27.5487049,23.1520705 L27.7541012,23.7413249 L28.1155987,24.3305793 L28.4360169,24.6275264 L28.095059,24.8316776 L27.1872074,24.4929723 L25.2585363,24.2865013 L24.6957504,24.3537783 L23.7139562,24.8316776 L23.5126678,24.8107985 L23.1326847,24.6507254 L22.3850422,24.5834484 L22.0851636,24.1983451 L22.0440843,23.6508489 L22.2248331,23.1056725 L22.0440843,22.9687985 L21.8653895,22.0408388 L21.8243103,21.9271637 L21.9454941,21.6557355 L22.2248331,21.2242343 L22.3665565,20.9272872 L22.4672007,20.3380327 L22.4672007,19.1131259 L22.5863305,18.5447506 L22.728054,18.3174005 L23.0484722,17.9531763 L23.1717099,17.7490252 L23.2333288,17.477597 L23.2723541,16.9115416 L23.3729983,16.6401134 L23.7139562,16.2526902 L23.83514,16.5009194 L23.7550354,17.8186222 L24.0754536,17.7490252 L24.2952277,17.591272 L24.4554368,17.3639219 L24.7162901,16.7282695 L25.0983272,16.2086121 L25.4228533,15.6170378 L25.5234975,15.3896877 L25.5234975,15.1182594 L25.4639325,14.7099572 L25.4228533,14.3712519 L25.5029578,13.8005567 L25.5234975,12.9839521 L26.045204,11.260267 L26.326597,8.92412846 L26.2855177,7.67370277 L26.1848735,7.12852645 L23.8947049,6.31192191 L21.6250759,5.51619647 L19.3328533,4.72279093 L17.0632243,3.9085063 L14.7730556,3.11046096 L12.5013727,2.29385642 L10.2317437,1.50045088 L7.96006071,0.683846348 L7.98060034,0.730244332 L7.6396425,1.11534761 L7.19393255,1.27310076 L7.01318381,1.40997481 L6.79340978,1.751 L6.57158179,1.81827708 L6.49147723,1.93195214 L6.45245194,2.0688262 L6.41137268,2.38433249 L6.39083305,2.47480856 L5.5302226,3.8853073 L5.45011804,4.31680856 L5.48914334,4.5186398 L5.45011804,5.40252141 L5.24882968,6.81302015 L4.50324115,8.65038035 L4.28141315,8.94732746 L4.16022934,9.05636272 L3.98153457,9.23963476 L3.8192715,9.46698489 L3.75970658,9.62705793 L3.83981113,9.98896222 L3.86035076,10.0562393 L3.78024621,10.1235164 L3.1989747,11.4876171 L2.87855649,11.9191184 L2.45338617,12.1673476 L2.19253288,12.3946977 L1.78995616,12.8702771 L1.42845868,13.4386524 L1.30932884,13.9606297 L1.38943339,14.1647809 L1.5496425,14.3712519 L1.87006071,14.6635592 L1.91113997,14.7772343 L1.91113997,14.9141083 L1.9316796,15.0277834 L2.01178415,15.0509824 L2.130914,15.0277834 L2.27263744,15.0277834 L2.35274199,15.0950605 L2.43284654,15.2760126 L2.63208094,15.4801637 L3.0387656,15.7979899 L3.43928836,16.2294912 L3.6200371,16.7746675 L3.51939292,17.3198438 L3.27907926,17.614471 L3.09833052,17.9531763 L3.11887015,18.7048237 L3.09833052,19.2708791 L2.81282968,19.6583023 L2.43284654,19.8160554 L2.01178415,19.7023804 L1.9316796,20.2475567 L1.83103541,20.5189849 L1.7098516,20.653539 L1.62974705,20.7904131 L1.7098516,21.0409622 L1.83103541,21.2242343 L1.89060034,21.2242343 L1.78995616,22.1313149 L1.78995616,22.5628161 L1.9316796,22.9015214 L2.07134907,23.1729496 L2.05080944,23.4234987 L2.0918887,23.6972469 L2.35274199,24.6066474 L2.31166273,24.9221537 L2.41230691,25.2399798 L2.55197639,25.5114081 L2.87855649,26.2839345 L3.15789545,26.3512116 L3.73916695,26.0589043 L4.84214503,26.1702594 L5.36795953,26.8499899 L5.96977066,29.0979723 L6.29224283,29.5990705 L6.79340978,30.0978489 L7.31511636,30.3228791 L8.04016526,29.7800227 L8.40166273,30.2115239 L8.92336931,31.2786776 L10.1906644,32.051204 L10.4515177,32.2762343 L10.5521619,32.4363073 L11.4538516,33.341068 L12.2815987,34.0463174 L13.5653255,34.7956448 L14.2102698,35.2944232 L14.5717673,35.8604786 L14.4300438,36.51933 L13.924769,37.0668262 L13.3044722,37.4960076 L12.8012513,37.7001587 L12.6410422,37.8811108 L12.0597707,38.7673123 L11.8790219,38.9250655 L11.153973,39.4052846 L10.8931197,39.7207909 L10.2913086,40.9224987 L10.0715346,41.193927 L9.42453626,41.7623023 L9.1842226,42.2634005 L8.66251602,43.8966096 L8.50230691,43.7133375 L8.30101855,44.1912368 L7.92103541,44.1239597 L7.90049578,44.5113829 L8.14080944,45.0078413 L8.54133221,45.3952645 L8.26199325,45.7571688 L8.04016526,46.2327481 L7.7998516,46.5737733 L7.43835413,46.5528942 L7.35824958,46.7338463 L7.33770995,46.7338463 L7.29457673,46.7547254 L6.83243508,47.0516725 L6.17105902,47.617728 L5.85064081,47.777801 L5.38849916,47.9355542 L4.56280607,48.3879345 L3.51939292,49.2532569 L2.85801686,50.0698615 L2.2911231,51.0210202 L2.03026981,51.9744987 L2.15145363,52.8375013 L2.15145363,52.9743753 L1.9316796,53.1321285 L1.85157504,53.3849975 L1.78995616,53.6309068 L1.57018212,53.9510529 L1.5496425,54.3361562 L1.58866779,54.7467783 L1.58866779,55.0646045 L1.49007757,55.2223577 L1.14911973,55.584262 L0.808161889,56.2175945 L0.828701518,56.4449446 L1.1285801,56.7650907 L1.99124452,57.4007431 L2.130914,57.7858463 L2.17199325,59.1940252 L2.23155818,59.7855995 L2.05080944,59.7160025 L1.91113997,59.6023275 L1.78995616,59.4654534 L2.17199325,60.3052569 L2.77380438,60.8040353 L3.49885329,61.1218615 L6.12997976,63.1888917 L6.23062395,63.3234458 L6.37234739,63.4371209 L6.55309612,63.5531159 L6.65168634,63.5067179 L6.75233052,63.3698438 L6.89405396,63.2329698 L7.09328836,63.2097708 L7.37878921,63.4603199 L7.61910287,63.8895013 L7.92103541,64.2769244 L8.28047892,64.3674005 L9.06303879,64.1864484 L9.24378752,64.2537254 L9.52518044,64.8012217 L9.72852277,64.8684987 L10.0509949,64.9357758 L10.9136594,65.4113552 L11.153973,65.5946272 L11.2135379,65.7523804 L11.2135379,66.1374836 L11.3141821,66.3648338 L11.5154705,66.5921839 L11.8584823,66.7290579 L11.8584823,66.8636121 L12.2199798,66.7522569 L12.4212681,66.5457859 L12.6020169,66.2743577 L12.8423305,65.9797305 L13.4646813,65.6387053 L13.8857437,65.5041511 L14.1897302,65.5250302 L14.310914,65.7523804 L14.3499393,65.9797305 L14.4115582,66.1374836 L14.6107926,66.1606826 L14.7915413,66.0725264 L15.1324992,65.8660554 L15.2742226,65.7987783 L16.1163474,65.5946272 L16.4798988,65.6155063 L16.8619359,65.7987783 L17.463747,66.6641008 L17.5438516,67.8634887 L17.022145,70.5870504 L17.0036594,71.1995038 L17.0632243,71.8119572 L17.1638685,72.4267305 L17.1433288,72.8118338 L17.0426847,73.106461 L17.0632243,73.3338111 L17.3836425,73.5356423 L17.6239562,73.5356423 L17.8252445,73.4242872 L18.9323305,72.5844836 L19.6142462,71.8119572 L20.1564924,70.9048766 L20.3968061,69.997796 L20.3167015,69.7936448 L20.1749781,69.5639748 L20.1564924,69.3157456 L20.6165801,69.0187985 L20.7973288,68.8378463 L20.9411062,68.6336952 L21.0212108,68.1117179 L21.3827083,67.3647103 L21.4443272,67.1582393 L21.343683,66.842733 L21.1834739,66.6849798 L21.0027251,66.7058589 L20.7973288,66.8868111 L20.7583035,66.796335 L20.7583035,66.7522569 L20.7172243,66.7058589 L20.6165801,66.7290579 L20.7583035,66.4089118 L20.9411062,66.2279597 L21.1834739,66.1815617 L21.4443272,66.3184358 L21.9454941,63.7990252 L22.0851636,63.3698438 L22.4856863,62.9847406 L23.0916054,61.4373678 L23.5742867,60.8272343 L23.5332074,60.6230831 L22.506226,61.3468917 L22.2063474,61.3260126 L21.9454941,61.2123375 L21.6435616,61.1450605 L21.2820641,61.2355365 L21.5429174,60.6230831 L22.0851636,60.3052569 L23.4120236,60.0106297 L23.3729983,59.8528766 L23.2127892,59.4886524 L23.3524587,58.8738791 L23.83514,57.7858463 L24.496516,58.0363955 L24.0754536,58.806602 L23.8947049,59.2613023 L23.7940607,59.7392015 L23.83514,59.8992746 L24.3547926,59.5327305 L25.381774,58.3519018 L25.9445599,57.8995214 L25.6631669,57.4007431 L25.2996155,56.8996448 L24.8970388,56.6514156 L24.5560809,56.9460428 L24.496516,56.5609395 L24.5355413,56.1062393 L24.5971602,55.697937 L24.6772648,55.4265088 L24.938118,55.0854836 L25.1784317,55.0646045 L25.4228533,55.1318816 L25.7432715,55.1550806 L25.8644553,54.3825542 L25.8439157,53.8582569 L25.603602,53.7005038 L25.3181012,53.5404307 L25.0983272,53.0416524 L24.8580135,51.9744987 L25.0983272,52.1136927 L25.3632884,52.2273678 L25.6241417,52.1809698 L25.9034806,51.9072217 L26.7866847,52.2946448 L26.8873288,52.4315189 L26.987973,52.7261461 L27.1481821,52.9302972 L27.4090354,52.7934232 L27.4686003,52.3178438 L27.0886172,51.8631436 L26.7065801,51.2947683 L26.8667892,50.816869 L26.9674334,50.3204106 L27.1481821,50.0466625 L27.3884958,49.8448312 L27.6144317,49.527005 L27.7541012,49.2068589 L27.8342057,48.8194358 L27.9738752,48.5016096 L28.4565565,48.0724282 L28.6167656,47.5968489 L28.7975143,46.6642494 L28.8981585,46.4600982 L29.0583676,45.9613199 L29.0973929,45.5066196 L28.7564351,45.3952645 L28.3559123,45.1006373 L28.2758078,44.1912368 L28.3949376,43.1472821 L28.536661,42.4675516 L28.7975143,41.8527783 L28.7975143,41.6277481 L28.6557909,41.0570529 L28.6373052,40.5814736 L28.7358954,40.1963703 L29.1179325,39.5630378 L28.8776189,39.4493627 L28.1546239,39.3820856 L28.4750422,38.7905113 L28.5572007,38.108461 L28.3949376,37.7001587 L27.9944148,37.9275088 L27.9944148,37.4519295 L28.2141889,37.2245793 L28.536661,37.0900252 L28.816,36.8626751 L28.9967487,36.4984509 L29.0768533,36.0414307 L28.9577234,35.7700025 L28.596226,35.8372796 L28.5572007,35.6563275 L28.8365396,35.2039471 L29.0973929,35.3617003 L29.3171669,35.8836776 L29.4979157,36.565728 L29.5800742,37.2245793 L29.5595346,37.7233577 L29.3787858,38.8577884 L30.0648094,43.7597355 L30.2250185,43.0336071 L29.92514,39.9249421 L29.92514,39.9249421 Z" id="Fill-39" fill="#D6D6D6"></path>
                <path d="M26.2259528,54.4730302 L26.5258314,54.9509295 L26.326597,55.3128338 L26.2054132,56.2871914 L25.9835852,56.5609395 L25.6631669,56.4959824 L25.4228533,56.1735164 L25.1784317,55.9693652 L24.8580135,56.2407935 L25.4824182,56.8787657 L26.1848735,56.8323678 L26.7866847,56.2871914 L27.2282867,55.4033098 L27.3289309,54.5171083 L27.4090354,54.4498312 L27.5487049,54.2688791 L27.5938921,54.108806 L26.5258314,54.2224811 L26.2259528,54.4730302 L26.2259528,54.4730302 Z M29.7793086,44.692335 L29.6786644,45.0542393 L29.5184553,45.8267657 L29.5389949,46.5296952 L28.2347285,50.7263929 L28.1957032,51.4989194 L28.1340843,51.7935466 L28.1340843,51.9304207 L28.1751636,52.1577708 L28.4955818,51.3156474 L28.9762091,48.8194358 L29.6396391,47.6641259 L29.8635211,46.5064962 L29.9847049,45.2351914 L29.9847049,44.4209068 L29.7793086,44.692335 L29.7793086,44.692335 Z M29.92514,39.9249421 L29.9847049,38.8809874 L29.8203879,38.7441134 L29.8840607,38.222136 L29.699204,36.8626751 L29.9046003,35.6354484 L29.758769,34.9325189 L29.4383508,34.4082217 L29.0172884,34.2759874 L29.2370624,33.364267 L29.4383508,30.7543804 L29.2185767,29.9841738 L29.3171669,29.2371662 L29.5184553,28.506398 L29.5595346,27.8266675 L28.4750422,23.924597 L28.1546239,23.1961486 L27.7746408,22.8806423 L27.5487049,23.1520705 L27.7541012,23.7413249 L28.1155987,24.3305793 L28.4360169,24.6275264 L28.095059,24.8316776 L27.1872074,24.4929723 L25.2585363,24.2865013 L24.6957504,24.3537783 L23.7139562,24.8316776 L23.5126678,24.8107985 L23.1326847,24.6507254 L22.3850422,24.5834484 L22.0851636,24.1983451 L22.0440843,23.6508489 L22.2248331,23.1056725 L22.0440843,22.9687985 L21.8653895,22.0408388 L21.8243103,21.9271637 L21.9454941,21.6557355 L22.2248331,21.2242343 L22.3665565,20.9272872 L22.4672007,20.3380327 L22.4672007,19.1131259 L22.5863305,18.5447506 L22.728054,18.3174005 L23.0484722,17.9531763 L23.1717099,17.7490252 L23.2333288,17.477597 L23.2723541,16.9115416 L23.3729983,16.6401134 L23.7139562,16.2526902 L23.83514,16.5009194 L23.7550354,17.8186222 L24.0754536,17.7490252 L24.2952277,17.591272 L24.4554368,17.3639219 L24.7162901,16.7282695 L25.0983272,16.2086121 L25.4228533,15.6170378 L25.5234975,15.3896877 L25.5234975,15.1182594 L25.4639325,14.7099572 L25.4228533,14.3712519 L25.5029578,13.8005567 L25.5234975,12.9839521 L26.045204,11.260267 L26.326597,8.92412846 L26.2855177,7.67370277 L26.1848735,7.12852645 L23.8947049,6.31192191 L21.6250759,5.51619647 L19.3328533,4.72279093 L17.0632243,3.9085063 L14.7730556,3.11046096 L12.5013727,2.29385642 L10.2317437,1.50045088 L7.96006071,0.683846348 L7.98060034,0.730244332 L7.6396425,1.11534761 L7.19393255,1.27310076 L7.01318381,1.40997481 L6.79340978,1.751 L6.57158179,1.81827708 L6.49147723,1.93195214 L6.45245194,2.0688262 L6.41137268,2.38433249 L6.39083305,2.47480856 L5.5302226,3.8853073 L5.45011804,4.31680856 L5.48914334,4.5186398 L5.45011804,5.40252141 L5.24882968,6.81302015 L4.50324115,8.65038035 L4.28141315,8.94732746 L4.16022934,9.05636272 L3.98153457,9.23963476 L3.8192715,9.46698489 L3.75970658,9.62705793 L3.83981113,9.98896222 L3.86035076,10.0562393 L3.78024621,10.1235164 L3.1989747,11.4876171 L2.87855649,11.9191184 L2.45338617,12.1673476 L2.19253288,12.3946977 L1.78995616,12.8702771 L1.42845868,13.4386524 L1.30932884,13.9606297 L1.38943339,14.1647809 L1.5496425,14.3712519 L1.87006071,14.6635592 L1.91113997,14.7772343 L1.91113997,14.9141083 L1.9316796,15.0277834 L2.01178415,15.0509824 L2.130914,15.0277834 L2.27263744,15.0277834 L2.35274199,15.0950605 L2.43284654,15.2760126 L2.63208094,15.4801637 L3.0387656,15.7979899 L3.43928836,16.2294912 L3.6200371,16.7746675 L3.51939292,17.3198438 L3.27907926,17.614471 L3.09833052,17.9531763 L3.11887015,18.7048237 L3.09833052,19.2708791 L2.81282968,19.6583023 L2.43284654,19.8160554 L2.01178415,19.7023804 L1.9316796,20.2475567 L1.83103541,20.5189849 L1.7098516,20.653539 L1.62974705,20.7904131 L1.7098516,21.0409622 L1.83103541,21.2242343 L1.89060034,21.2242343 L1.78995616,22.1313149 L1.78995616,22.5628161 L1.9316796,22.9015214 L2.07134907,23.1729496 L2.05080944,23.4234987 L2.0918887,23.6972469 L2.35274199,24.6066474 L2.31166273,24.9221537 L2.41230691,25.2399798 L2.55197639,25.5114081 L2.87855649,26.2839345 L3.15789545,26.3512116 L3.73916695,26.0589043 L4.84214503,26.1702594 L5.36795953,26.8499899 L5.96977066,29.0979723 L6.29224283,29.5990705 L6.79340978,30.0978489 L7.31511636,30.3228791 L8.04016526,29.7800227 L8.40166273,30.2115239 L8.92336931,31.2786776 L10.1906644,32.051204 L10.4515177,32.2762343 L10.5521619,32.4363073 L11.4538516,33.341068 L12.2815987,34.0463174 L13.5653255,34.7956448 L14.2102698,35.2944232 L14.5717673,35.8604786 L14.4300438,36.51933 L13.924769,37.0668262 L13.3044722,37.4960076 L12.8012513,37.7001587 L12.6410422,37.8811108 L12.0597707,38.7673123 L11.8790219,38.9250655 L11.153973,39.4052846 L10.8931197,39.7207909 L10.2913086,40.9224987 L10.0715346,41.193927 L9.42453626,41.7623023 L9.1842226,42.2634005 L8.66251602,43.8966096 L8.50230691,43.7133375 L8.30101855,44.1912368 L7.92103541,44.1239597 L7.90049578,44.5113829 L8.14080944,45.0078413 L8.54133221,45.3952645 L8.26199325,45.7571688 L8.04016526,46.2327481 L7.7998516,46.5737733 L7.43835413,46.5528942 L7.35824958,46.7338463 L7.33770995,46.7338463 L7.29457673,46.7547254 L6.83243508,47.0516725 L6.17105902,47.617728 L5.85064081,47.777801 L5.38849916,47.9355542 L4.56280607,48.3879345 L3.51939292,49.2532569 L2.85801686,50.0698615 L2.2911231,51.0210202 L2.03026981,51.9744987 L2.15145363,52.8375013 L2.15145363,52.9743753 L1.9316796,53.1321285 L1.85157504,53.3849975 L1.78995616,53.6309068 L1.57018212,53.9510529 L1.5496425,54.3361562 L1.58866779,54.7467783 L1.58866779,55.0646045 L1.49007757,55.2223577 L1.14911973,55.584262 L0.808161889,56.2175945 L0.828701518,56.4449446 L1.1285801,56.7650907 L1.99124452,57.4007431 L2.130914,57.7858463 L2.17199325,59.1940252 L2.23155818,59.7855995 L2.05080944,59.7160025 L1.91113997,59.6023275 L1.78995616,59.4654534 L2.17199325,60.3052569 L2.77380438,60.8040353 L3.49885329,61.1218615 L6.12997976,63.1888917 L6.23062395,63.3234458 L6.37234739,63.4371209 L6.55309612,63.5531159 L6.65168634,63.5067179 L6.75233052,63.3698438 L6.89405396,63.2329698 L7.09328836,63.2097708 L7.37878921,63.4603199 L7.61910287,63.8895013 L7.92103541,64.2769244 L8.28047892,64.3674005 L9.06303879,64.1864484 L9.24378752,64.2537254 L9.52518044,64.8012217 L9.72852277,64.8684987 L10.0509949,64.9357758 L10.9136594,65.4113552 L11.153973,65.5946272 L11.2135379,65.7523804 L11.2135379,66.1374836 L11.3141821,66.3648338 L11.5154705,66.5921839 L11.8584823,66.7290579 L11.8584823,66.8636121 L12.2199798,66.7522569 L12.4212681,66.5457859 L12.6020169,66.2743577 L12.8423305,65.9797305 L13.4646813,65.6387053 L13.8857437,65.5041511 L14.1897302,65.5250302 L14.310914,65.7523804 L14.3499393,65.9797305 L14.4115582,66.1374836 L14.6107926,66.1606826 L14.7915413,66.0725264 L15.1324992,65.8660554 L15.2742226,65.7987783 L16.1163474,65.5946272 L16.4798988,65.6155063 L16.8619359,65.7987783 L17.463747,66.6641008 L17.5438516,67.8634887 L17.022145,70.5870504 L17.0036594,71.1995038 L17.0632243,71.8119572 L17.1638685,72.4267305 L17.1433288,72.8118338 L17.0426847,73.106461 L17.0632243,73.3338111 L17.3836425,73.5356423 L17.6239562,73.5356423 L17.8252445,73.4242872 L18.9323305,72.5844836 L19.6142462,71.8119572 L20.1564924,70.9048766 L20.3968061,69.997796 L20.3167015,69.7936448 L20.1749781,69.5639748 L20.1564924,69.3157456 L20.6165801,69.0187985 L20.7973288,68.8378463 L20.9411062,68.6336952 L21.0212108,68.1117179 L21.3827083,67.3647103 L21.4443272,67.1582393 L21.343683,66.842733 L21.1834739,66.6849798 L21.0027251,66.7058589 L20.7973288,66.8868111 L20.7583035,66.796335 L20.7583035,66.7522569 L20.7172243,66.7058589 L20.6165801,66.7290579 L20.7583035,66.4089118 L20.9411062,66.2279597 L21.1834739,66.1815617 L21.4443272,66.3184358 L21.9454941,63.7990252 L22.0851636,63.3698438 L22.4856863,62.9847406 L23.0916054,61.4373678 L23.5742867,60.8272343 L23.5332074,60.6230831 L22.506226,61.3468917 L22.2063474,61.3260126 L21.9454941,61.2123375 L21.6435616,61.1450605 L21.2820641,61.2355365 L21.5429174,60.6230831 L22.0851636,60.3052569 L23.4120236,60.0106297 L23.3729983,59.8528766 L23.2127892,59.4886524 L23.3524587,58.8738791 L23.83514,57.7858463 L24.496516,58.0363955 L24.0754536,58.806602 L23.8947049,59.2613023 L23.7940607,59.7392015 L23.83514,59.8992746 L24.3547926,59.5327305 L25.381774,58.3519018 L25.9445599,57.8995214 L25.6631669,57.4007431 L25.2996155,56.8996448 L24.8970388,56.6514156 L24.5560809,56.9460428 L24.496516,56.5609395 L24.5355413,56.1062393 L24.5971602,55.697937 L24.6772648,55.4265088 L24.938118,55.0854836 L25.1784317,55.0646045 L25.4228533,55.1318816 L25.7432715,55.1550806 L25.8644553,54.3825542 L25.8439157,53.8582569 L25.603602,53.7005038 L25.3181012,53.5404307 L25.0983272,53.0416524 L24.8580135,51.9744987 L25.0983272,52.1136927 L25.3632884,52.2273678 L25.6241417,52.1809698 L25.9034806,51.9072217 L26.7866847,52.2946448 L26.8873288,52.4315189 L26.987973,52.7261461 L27.1481821,52.9302972 L27.4090354,52.7934232 L27.4686003,52.3178438 L27.0886172,51.8631436 L26.7065801,51.2947683 L26.8667892,50.816869 L26.9674334,50.3204106 L27.1481821,50.0466625 L27.3884958,49.8448312 L27.6144317,49.527005 L27.7541012,49.2068589 L27.8342057,48.8194358 L27.9738752,48.5016096 L28.4565565,48.0724282 L28.6167656,47.5968489 L28.7975143,46.6642494 L28.8981585,46.4600982 L29.0583676,45.9613199 L29.0973929,45.5066196 L28.7564351,45.3952645 L28.3559123,45.1006373 L28.2758078,44.1912368 L28.3949376,43.1472821 L28.536661,42.4675516 L28.7975143,41.8527783 L28.7975143,41.6277481 L28.6557909,41.0570529 L28.6373052,40.5814736 L28.7358954,40.1963703 L29.1179325,39.5630378 L28.8776189,39.4493627 L28.1546239,39.3820856 L28.4750422,38.7905113 L28.5572007,38.108461 L28.3949376,37.7001587 L27.9944148,37.9275088 L27.9944148,37.4519295 L28.2141889,37.2245793 L28.536661,37.0900252 L28.816,36.8626751 L28.9967487,36.4984509 L29.0768533,36.0414307 L28.9577234,35.7700025 L28.596226,35.8372796 L28.5572007,35.6563275 L28.8365396,35.2039471 L29.0973929,35.3617003 L29.3171669,35.8836776 L29.4979157,36.565728 L29.5800742,37.2245793 L29.5595346,37.7233577 L29.3787858,38.8577884 L30.0648094,43.7597355 L30.2250185,43.0336071 L29.92514,39.9249421 L29.92514,39.9249421 Z" id="Stroke-40" stroke="#F9F9F9" stroke-width="0.25" stroke-linecap="round" stroke-linejoin="round"></path>
            </g>
        </g>
    </g>
</svg>