<?xml version="1.0" encoding="UTF-8"?>
<svg width="151px" height="132px" viewBox="0 0 151 132" version="1.1" xmlns="http://www.w3.org/2000/svg" xmlns:xlink="http://www.w3.org/1999/xlink">
    <!-- Generator: Sketch 51 (57462) - http://www.bohemiancoding.com/sketch -->
    <title>Wyoming</title>
    <desc>Created with Sketch.</desc>
    <defs></defs>
    <g id="Page-1" stroke="none" stroke-width="1" fill="none" fill-rule="evenodd">
        <g id="A5" transform="translate(-368.000000, -195.000000)">
            <g id="Wyoming" transform="translate(368.000000, 195.000000)">
                <polygon id="Fill-1" fill="#D6D6D6" points="148.366931 70.9579395 148.268341 74.699937 148.147157 78.4233753 148.046513 82.1676927 147.925329 85.9120101 147.804145 89.6563275 147.703501 93.4052846 147.584371 97.1472821 147.483727 100.914798 147.362543 104.659116 147.261899 108.403433 147.142769 112.17095 147.042125 115.917587 146.920941 119.685103 146.820297 123.45262 146.579983 130.964453 143.322398 130.829899 140.068921 130.693025 136.81339 130.553831 133.539373 130.396078 130.283841 130.238325 127.02831 130.078252 123.772779 129.8973 120.517248 129.739547 117.263771 129.558594 114.006185 129.375322 110.752708 129.171171 107.497177 128.990219 104.221106 128.783748 100.965575 128.581917 97.7100438 128.377766 94.4545126 128.150416 91.1989815 127.943945 87.9455042 127.716594 84.6879191 127.491564 81.4364958 127.241015 78.1768567 127.015985 74.9233794 126.765436 71.6699022 126.517207 68.414371 126.243458 65.1588398 125.992909 61.9217943 125.723801 58.670371 125.447733 55.4127858 125.176305 52.1593086 124.904877 48.9017234 124.610249 45.6482462 124.315622 42.392715 124.020995 39.8190995 123.770446 37.2064587 123.519897 34.6348971 123.269348 32.0243103 123.018798 29.4527487 122.770569 26.8585936 122.52002 24.2664924 122.248592 21.6743912 122.000363 19.0822901 121.728935 16.4901889 121.455186 13.9001417 121.181438 11.3059865 120.886811 8.71388533 120.615383 6.14026981 120.318436 3.5502226 120.049327 0.958121417 119.75238 1.11833052 117.866302 1.27853963 116.008063 1.43874874 114.124305 1.61949747 112.261426 1.94196965 108.517108 2.12271838 106.63567 2.28292749 104.772791 2.44519056 102.914552 2.60745363 101.030793 2.76766273 99.1679144 2.94841147 97.3050353 3.10862057 95.423597 3.42903879 91.7001587 3.60978752 89.8372796 4.41288702 80.5112846 4.83600337 75.8598866 5.25911973 71.2061688 6.06016526 61.898733 6.48328162 57.2496549 6.88791231 52.6168161 7.3089747 47.9654181 8.11002024 38.7043804 8.53313659 34.0738615 8.93571332 29.4456625 9.33829005 24.8383426 9.75935245 20.2078237 10.1598752 15.6005038 10.2399798 14.7166222 10.4022428 12.9001411 10.4823474 12.0116196 10.5624519 11.1068589 10.8849241 7.5434937 10.9650287 6.6364131 11.0451332 5.75021159 11.1252378 4.84313098 11.2053423 3.95692947 11.2854469 3.04984887 11.3676054 2.16596725 11.4477099 1.25656675 11.4887892 0.780987406 12.4911231 0.892342569 14.6210826 1.14289169 16.7715818 1.37024181 18.9220809 1.62079093 21.0725801 1.84582116 23.2230793 2.07549118 25.3530388 2.30052141 27.5035379 2.52787154 29.6519831 2.75522166 31.8024823 2.98257179 33.9529815 3.18672292 36.1034806 3.41407305 38.2519258 3.61590428 40.3818853 3.84325441 42.5323845 4.04972544 44.6828836 4.25155668 46.8333828 4.45570781 48.981828 4.66217884 51.1323272 4.86401008 53.2807723 5.06816121 55.4312715 5.25375315 57.5817707 5.45558438 59.7322698 5.63885642 61.882769 5.81980856 64.0332681 6.0239597 66.1837673 6.20491184 68.3342664 6.38586398 70.4827116 6.54593703 72.6332108 6.72456927 74.7837099 6.90552141 76.9342091 7.06559446 79.0847083 7.2511864 81.2352074 7.40661965 83.3857066 7.5643728 85.5341518 7.72444584 87.682597 7.88451889 89.8330961 8.04459194 91.9835953 8.20234509 94.1340944 8.36009824 96.3051332 8.49697229 98.4535784 8.65472544 100.583538 8.7915995 102.752523 8.94935264 104.903022 9.0885466 107.053521 9.22310076 109.20402 9.35765491 111.354519 9.49452897 113.505019 9.60588413 115.674003 9.74739798 117.824503 9.88195214 119.975002 9.9933073 122.125501 10.1069824 124.276 10.2438564 126.426499 10.3598514 128.595484 10.4735264 130.745983 10.5848816 132.896482 10.6753577 135.044927 10.7890327 137.195427 10.9027078 139.345926 10.9931839 141.514911 11.1068589 143.66541 11.197335 145.815909 11.2878111 147.966408 11.3782872 150.114853 11.4687632 150.014209 15.1690025 149.895079 18.8692418 149.693791 26.2905995 149.572607 29.9908388 149.471963 33.7119572 149.352833 37.4330756 149.151545 44.8544332 149.032415 48.5778715 148.931771 52.3013098 148.810587 56.0224282 148.709943 59.7690655 148.590813 63.4901839 148.488115 67.2113023"></polygon>
                <polygon id="Stroke-2" stroke="#F9F9F9" stroke-width="0.25" stroke-linecap="round" stroke-linejoin="round" points="148.366931 70.9579395 148.268341 74.699937 148.147157 78.4233753 148.046513 82.1676927 147.925329 85.9120101 147.804145 89.6563275 147.703501 93.4052846 147.584371 97.1472821 147.483727 100.914798 147.362543 104.659116 147.261899 108.403433 147.142769 112.17095 147.042125 115.917587 146.920941 119.685103 146.820297 123.45262 146.579983 130.964453 143.322398 130.829899 140.068921 130.693025 136.81339 130.553831 133.539373 130.396078 130.283841 130.238325 127.02831 130.078252 123.772779 129.8973 120.517248 129.739547 117.263771 129.558594 114.006185 129.375322 110.752708 129.171171 107.497177 128.990219 104.221106 128.783748 100.965575 128.581917 97.7100438 128.377766 94.4545126 128.150416 91.1989815 127.943945 87.9455042 127.716594 84.6879191 127.491564 81.4364958 127.241015 78.1768567 127.015985 74.9233794 126.765436 71.6699022 126.517207 68.414371 126.243458 65.1588398 125.992909 61.9217943 125.723801 58.670371 125.447733 55.4127858 125.176305 52.1593086 124.904877 48.9017234 124.610249 45.6482462 124.315622 42.392715 124.020995 39.8190995 123.770446 37.2064587 123.519897 34.6348971 123.269348 32.0243103 123.018798 29.4527487 122.770569 26.8585936 122.52002 24.2664924 122.248592 21.6743912 122.000363 19.0822901 121.728935 16.4901889 121.455186 13.9001417 121.181438 11.3059865 120.886811 8.71388533 120.615383 6.14026981 120.318436 3.5502226 120.049327 0.958121417 119.75238 1.11833052 117.866302 1.27853963 116.008063 1.43874874 114.124305 1.61949747 112.261426 1.94196965 108.517108 2.12271838 106.63567 2.28292749 104.772791 2.44519056 102.914552 2.60745363 101.030793 2.76766273 99.1679144 2.94841147 97.3050353 3.10862057 95.423597 3.42903879 91.7001587 3.60978752 89.8372796 4.41288702 80.5112846 4.83600337 75.8598866 5.25911973 71.2061688 6.06016526 61.898733 6.48328162 57.2496549 6.88791231 52.6168161 7.3089747 47.9654181 8.11002024 38.7043804 8.53313659 34.0738615 8.93571332 29.4456625 9.33829005 24.8383426 9.75935245 20.2078237 10.1598752 15.6005038 10.2399798 14.7166222 10.4022428 12.9001411 10.4823474 12.0116196 10.5624519 11.1068589 10.8849241 7.5434937 10.9650287 6.6364131 11.0451332 5.75021159 11.1252378 4.84313098 11.2053423 3.95692947 11.2854469 3.04984887 11.3676054 2.16596725 11.4477099 1.25656675 11.4887892 0.780987406 12.4911231 0.892342569 14.6210826 1.14289169 16.7715818 1.37024181 18.9220809 1.62079093 21.0725801 1.84582116 23.2230793 2.07549118 25.3530388 2.30052141 27.5035379 2.52787154 29.6519831 2.75522166 31.8024823 2.98257179 33.9529815 3.18672292 36.1034806 3.41407305 38.2519258 3.61590428 40.3818853 3.84325441 42.5323845 4.04972544 44.6828836 4.25155668 46.8333828 4.45570781 48.981828 4.66217884 51.1323272 4.86401008 53.2807723 5.06816121 55.4312715 5.25375315 57.5817707 5.45558438 59.7322698 5.63885642 61.882769 5.81980856 64.0332681 6.0239597 66.1837673 6.20491184 68.3342664 6.38586398 70.4827116 6.54593703 72.6332108 6.72456927 74.7837099 6.90552141 76.9342091 7.06559446 79.0847083 7.2511864 81.2352074 7.40661965 83.3857066 7.5643728 85.5341518 7.72444584 87.682597 7.88451889 89.8330961 8.04459194 91.9835953 8.20234509 94.1340944 8.36009824 96.3051332 8.49697229 98.4535784 8.65472544 100.583538 8.7915995 102.752523 8.94935264 104.903022 9.0885466 107.053521 9.22310076 109.20402 9.35765491 111.354519 9.49452897 113.505019 9.60588413 115.674003 9.74739798 117.824503 9.88195214 119.975002 9.9933073 122.125501 10.1069824 124.276 10.2438564 126.426499 10.3598514 128.595484 10.4735264 130.745983 10.5848816 132.896482 10.6753577 135.044927 10.7890327 137.195427 10.9027078 139.345926 10.9931839 141.514911 11.1068589 143.66541 11.197335 145.815909 11.2878111 147.966408 11.3782872 150.114853 11.4687632 150.014209 15.1690025 149.895079 18.8692418 149.693791 26.2905995 149.572607 29.9908388 149.471963 33.7119572 149.352833 37.4330756 149.151545 44.8544332 149.032415 48.5778715 148.931771 52.3013098 148.810587 56.0224282 148.709943 59.7690655 148.590813 63.4901839 148.488115 67.2113023"></polygon>
            </g>
        </g>
    </g>
</svg>