<?xml version="1.0" encoding="UTF-8"?>
<svg width="121px" height="137px" viewBox="0 0 121 137" version="1.1" xmlns="http://www.w3.org/2000/svg" xmlns:xlink="http://www.w3.org/1999/xlink">
    <!-- Generator: Sketch 51 (57462) - http://www.bohemiancoding.com/sketch -->
    <title>Georgia</title>
    <desc>Created with Sketch.</desc>
    <defs></defs>
    <g id="Page-1" stroke="none" stroke-width="1" fill="none" fill-rule="evenodd">
        <g id="A5" transform="translate(-916.000000, -477.000000)">
            <g id="Georgia" transform="translate(916.000000, 477.000000)">
                <path d="M111.401116,120.863605 L111.321012,120.406584 L111.561325,119.501824 L111.62089,118.390592 L111.561325,117.481191 L111.62089,116.460436 L111.561325,115.711108 L111.460681,115.098655 L111.321012,115.119534 L111.259393,116.119411 L110.273491,117.367516 L110.193386,118.320995 L110.252951,118.481068 L110.556938,119.023924 L110.657582,119.295353 L110.698661,119.548222 L110.799305,120.318428 L111.360037,122.58729 L111.561325,122.656887 L111.680455,122.33906 L111.680455,121.747486 L111.401116,120.863605 L111.401116,120.863605 Z M119.600536,80.8940605 L119.195906,80.8499824 L118.873433,80.8940605 L118.61258,80.8267834 L118.59204,80.7827053 L118.573555,80.7827053 L118.111413,80.8267834 L117.669811,80.7363073 L117.289828,80.4880781 L117.063892,80.1238539 L116.885197,79.9197028 L115.901349,79.6250756 L115.379642,79.5786776 L114.091808,79.9637809 L113.872034,79.8709849 L113.089474,79.0775793 L112.94775,78.9871033 L112.686897,78.8734282 L112.563659,78.762073 L112.463015,78.555602 L112.442476,78.3978489 L112.483555,78.2632947 L112.463015,78.1728186 L111.922823,77.2842972 L111.822179,77.082466 L111.822179,76.7646398 L111.961848,76.1962645 L111.982388,75.9897935 L111.822179,75.2195869 L111.801639,74.8808816 L111.840664,74.5862544 L111.961848,74.1547531 L111.941309,73.76733 L111.801639,73.1571965 L111.540786,72.6560982 L111.220368,72.361471 L110.85887,72.294194 L109.790809,69.9557355 L109.67168,69.0254559 L109.490931,68.5243577 L109.149973,68.3666045 L108.829555,68.2993275 L108.669346,68.0278992 L108.568702,67.7077531 L108.447518,67.4595239 L108.307848,67.366728 L107.782034,67.1625768 L107.68139,67.1834559 L107.56226,67.1184987 L107.159683,66.7333955 L106.958395,66.5756423 L106.738621,66.4364484 L106.518847,66.3691713 L105.832823,66.3459723 L105.331656,66.1882191 L104.869514,65.93767 L104.549096,65.6662418 L104.247164,65.2138615 L104.208138,64.7568413 L104.267703,64.281262 L104.247164,63.6896877 L104.167059,63.4878564 L104.02739,63.2837053 L103.86718,63.1027531 L103.745997,63.0563552 L103.665892,62.921801 L103.704917,62.5784559 L103.704917,62.2165516 L103.805562,61.9660025 L103.787076,61.5600202 L103.56114,61.103 L103.281801,60.7410957 L103.080513,60.2887154 L103.000408,59.8548942 L102.858685,59.4025139 L102.517727,58.6067884 L101.030658,56.5652771 L100.728725,56.358806 L100.648621,55.7672317 L100.66916,54.7047179 L100.529491,54.2059395 L100.227558,53.6375642 L99.8660607,53.1805441 L99.5456425,53.0251108 L99.0403676,53.0251108 L98.6788702,52.8441587 L97.9373895,52.2757834 L96.9350556,51.8442821 L94.8441214,51.2991058 L93.9383238,50.6843325 L93.757575,50.3015491 L93.4371568,49.1207204 L93.2564081,48.8956902 L92.7552411,48.9629673 L92.3280169,48.8724912 L91.9274941,48.5523451 L91.4858921,47.9398917 L91.767285,47.6475844 L91.7878246,47.3274383 L91.5865363,47.0096121 L91.1449342,46.7381839 L91.4263272,46.4876348 L91.3873019,46.2834836 L91.2250388,46.2138866 L90.9456998,46.1466096 L90.7033322,46.1698086 L90.604742,46.3298816 L90.5431231,46.4876348 L90.3233491,46.3298816 L89.1957234,45.2186499 L88.9759494,44.8080277 L89.2552884,44.5574786 L88.8958449,43.856869 L88.9143305,43.627199 L89.2552884,43.4903249 L88.9944351,43.0820227 L88.8547656,42.9474685 L88.9348702,42.2654181 L88.5343474,41.7898388 L87.5279056,41.2678615 L87.006199,40.8595592 L85.8621417,39.6787305 L85.3363272,39.3377053 L84.8556998,39.1567531 L83.7527218,38.999 L83.2474469,38.8412469 L82.6641214,38.5442997 L82.1444688,38.0687204 L81.6823272,37.249796 L81.4009342,36.6164635 L80.9552243,36.0689673 L80.4951366,34.7767834 L79.7721417,34.0738539 L78.5253862,33.1435743 L77.4614334,32.4406448 L76.5145565,31.9627456 L75.7525363,31.7121965 L74.990516,31.3270932 L74.3640573,30.7355189 L73.9039696,30.1694635 L73.4829073,29.8284383 L73.0413052,29.8980353 L72.6592681,29.8284383 L72.3388499,29.5338111 L72.0533491,28.7868035 L71.7123912,28.1047531 L71.3714334,27.3090277 L71.1311197,27.0144005 L70.5703879,26.7870504 L70.3300742,26.4019471 L69.9685767,25.6085416 L69.7426408,25.3324736 L69.4427622,25.0401662 L69.122344,24.7896171 L68.5800978,24.6527431 L68.1384958,24.1562846 L67.957747,24.0426096 L67.7769983,23.6575063 L67.0108702,21.1380957 L66.7315312,20.4792443 L65.1623035,18.5050101 L64.9219899,18.2776599 L64.4803879,17.3450605 L64.2585599,16.5516549 L63.917602,15.8046474 L62.8906206,15.3035491 L61.3665801,15.5540982 L60.3395987,15.7814484 L59.5570388,15.4613023 L59.156516,15.053 L58.6943744,14.4173476 L58.1890995,14.1459194 L57.607828,13.533466 L56.7266779,13.1460428 L56.5048499,12.8073375 L56.4247454,12.3967154 L56.2604283,12.3735164 L55.7387218,12.6495844 L54.9561619,12.3526373 L52.7460978,11.2182065 L51.903973,10.241529 L51.9429983,8.9261461 L52.2449309,8.33689169 L52.3044958,8.06314358 L52.3044958,7.81491436 L52.2839562,7.56436524 L52.3044958,7.33701511 L52.3640607,7.15374307 L52.4852445,6.70136272 L52.7460978,6.33945844 L53.0459764,6.04483123 L53.288344,5.70380605 L53.4485531,5.2259068 L53.6477875,4.22835013 L53.789511,3.75277078 L53.9887454,3.3885466 L54.7754132,2.50466499 L55.0362664,2.27499496 L55.5990523,1.98036776 L55.8188263,1.66254156 L55.9584958,1.30063728 L56.0406543,0.915534005 L56.0201147,0.551309824 L55.999575,0.504911839 L54.3338111,0.825057935 L52.6865329,1.14288413 L51.0372007,1.43751134 L49.3673288,1.75301763 L47.7036189,2.07084383 L46.0542867,2.36547103 L44.3864688,2.68561713 L42.7371366,2.98024433 L41.0713727,3.27719144 L37.7542226,3.88732494 L36.0864047,4.18195214 L34.4411804,4.47657935 L32.7713086,4.77120655 L31.1034907,5.06815365 L29.4582664,5.36278086 L27.5090556,5.56693199 L25.4181214,5.77340302 L23.8509477,5.93115617 L23.6907386,5.88707809 L22.9266644,5.99843325 L20.1517605,6.4531335 L17.3994503,6.88231486 L14.6266003,7.31381612 L11.8558044,7.74531738 L9.09938617,8.15361965 L6.32653626,8.56424181 L3.5557403,8.99342317 L0.803430017,9.40172544 L0.842455312,9.55947859 L0.963639123,10.0605768 L1.20395278,10.8795013 L1.4853457,11.967534 L1.8673828,13.3084358 L2.28639123,14.892927 L2.79372007,16.7094081 L3.33391231,18.7091612 L3.93572344,20.9107456 L4.57861383,23.2236851 L5.24409781,25.6990176 L5.94655312,28.2625063 L6.68803373,30.9187909 L7.43362226,33.6632317 L8.1956425,36.4331914 L8.95971669,39.2263501 L9.74433052,42.0171889 L10.5063508,44.7848287 L11.2498853,47.5083904 L11.9954739,50.1646751 L12.6979292,52.7536826 L13.3798449,55.2034962 L14.0247892,57.5396348 L14.64714,59.7203401 L15.2099258,61.7409723 L15.7110927,63.5319345 L16.1568027,65.1210655 L16.5367858,66.4851662 L16.8366644,67.5708791 L17.0584924,68.3666045 L17.1981619,68.8653829 L17.2392411,69.0486549 L17.5596594,70.2039647 L17.5391197,70.4777128 L18.5270759,72.5656222 L18.5661012,73.4495038 L18.6277201,73.7000529 L18.7283642,73.927403 L18.8680337,74.1338741 L19.0282428,74.2916272 L19.5499494,74.7880856 L19.6896189,74.9713577 L19.5499494,75.2891839 L19.6690793,75.562932 L19.9114469,75.8343602 L20.1312209,76.1730655 L20.3961821,77.1961411 L20.6960607,77.7853955 L20.7576796,78.1728186 L20.7782192,78.7156751 L20.9384283,78.9871033 L21.2383069,79.1494962 L21.4395953,79.3513275 L21.3594907,79.7828287 L23.1875177,81.8266599 L23.5099899,82.2790403 L23.6496594,82.6641436 L23.8694334,83.6153023 L24.109747,84.0491234 L24.39114,84.4597456 L24.6335076,84.865728 L24.7136121,85.2740302 L24.7136121,85.1603552 L24.7320978,85.3900252 L24.7136121,85.2740302 L24.7320978,85.6614534 L24.612968,86.0256776 L24.5513491,86.3411839 L24.7136121,86.66133 L24.2904958,87.3410605 L24.4527589,87.8839169 L24.9580337,88.317738 L26.1205767,88.8605945 L26.3608904,89.0206675 L26.5416391,89.3384937 L26.6422833,89.3616927 L26.7429275,89.4057708 L26.823032,89.6099219 L26.7819528,89.860471 L26.6422833,90.0646222 L26.4615346,90.1782972 L26.2602462,90.2223753 L26.4409949,90.5657204 L26.4204553,90.8812267 L26.2602462,91.1317758 L26.0794975,91.312728 L25.660489,91.1758539 L25.3174772,91.3336071 L25.2784519,91.5841562 L25.6789747,91.8138262 L25.438661,92.0852544 L25.0771636,92.3334836 L24.7136121,92.5121159 L24.4116796,92.6281108 L24.2720101,92.7649849 L24.1508263,93.061932 L23.9105126,94.1035668 L23.9105126,94.3773149 L24.0111568,95.1243224 L23.9906172,95.5349446 L23.8304081,96.0801209 L23.8304081,96.7830504 L24.0912614,97.4395819 L24.109747,98.2121083 L24.0912614,98.3257834 L23.9495379,98.7990428 L23.8694334,98.9614358 L23.3682664,100.25362 L23.0683879,101.480846 L23.006769,102.524801 L22.947204,102.933103 L22.9266644,103.093176 L22.9266644,103.274128 L22.8670995,103.951539 L23.0868735,104.545433 L24.109747,107.811851 L24.3726543,108.289751 L25.2989916,109.403302 L25.5598449,109.92296 L25.660489,110.305743 L25.7796189,111.126987 L25.8391838,111.352018 L26.1205767,111.922713 L26.2212209,112.328695 L26.161656,113.078023 L25.9809073,113.690476 L25.9192884,114.326128 L26.2602462,115.165932 L25.8597234,115.961657 L25.8391838,117.096088 L25.9809073,119.434547 L25.9008027,119.729174 L25.660489,120.248831 L25.6399494,120.566657 L25.6995143,120.796327 L25.9809073,121.362383 L26.0610118,121.631491 L26.0794975,122.747363 L26.161656,123.225262 L26.4615346,123.563967 L26.9627015,123.768118 L27.7082901,124.631121 L28.4107454,125.835149 L28.872887,127.196929 L29.1337403,127.491557 L29.2138449,127.807063 L29.1727656,128.055292 L29.0536358,128.284962 L28.9940708,128.421836 L28.9529916,128.512312 L29.0330961,128.897416 L29.1337403,129.011091 L29.5794503,129.280199 L29.7396594,129.419393 L29.9204081,129.737219 L30.199747,130.621101 L30.421575,130.804373 L30.8220978,131.484103 L31.0829511,132.166154 L31.2636998,133.437458 L31.8696189,135.365295 L33.0321619,136.455647 L33.2334503,136.38837 L33.9790388,136.318773 L34.1207622,136.318773 L34.5603103,136.274695 L35.2627656,136.228297 L36.2096425,136.16102 L37.3927251,136.070544 L38.8017437,135.956869 L40.3853491,135.819995 L42.1764047,135.683121 L44.1256155,135.523048 L46.2144958,135.342096 L48.4245599,135.161144 L50.7558078,134.980191 L53.1671602,134.77604 L55.6586172,134.54869 L58.2096391,134.31902 L60.8017403,134.09399 L63.4164351,133.86664 L66.0290759,133.618411 L68.6396627,133.39106 L71.2112243,133.140511 L73.7437605,132.913161 L76.2146779,132.664932 L78.6054907,132.437582 L80.8751197,132.212552 L83.0461585,132.006081 L85.0754739,131.79961 L86.9445801,131.620977 L88.6534772,131.440025 L90.16314,131.303151 L91.4858921,131.168597 L92.5744924,131.054922 L93.4166172,130.964446 L94.3778718,130.850771 L94.4394907,130.894849 L94.4394907,130.985325 L94.4189511,131.189476 L94.3388465,131.416826 L94.3183069,131.530501 L94.3388465,131.641856 L94.3778718,131.753212 L94.5401349,131.982882 L95.2056189,132.688131 L95.3247487,132.869083 L95.4849578,133.114992 L95.5671164,133.39106 L95.5671164,133.708887 L95.5260371,134.163587 L95.5054975,134.525491 L95.5260371,134.708763 L95.5465767,134.866516 L95.6472209,135.117065 L96.1483879,136.184219 L96.308597,136.409249 L96.4092411,136.499725 L96.5489106,136.569322 L96.7296594,136.613401 L96.9535413,136.590202 L97.9969545,136.251496 L98.1571636,136.251496 L98.5987656,136.318773 L98.7199494,136.318773 L98.8205936,136.295574 L99.4265126,135.980068 L99.5456425,135.889592 L99.6052074,135.750398 L99.625747,135.502169 L99.6052074,135.318897 L99.4265126,134.455894 L99.4265126,133.86664 L99.6052074,131.892406 L99.625747,129.827695 L99.5867218,129.48667 L99.5251029,129.192043 L99.4655379,129.055169 L99.3258685,128.851018 L98.7795143,128.215365 L98.6398449,127.964816 L98.518661,127.693388 L98.4385565,127.468358 L98.3789916,127.127332 L98.3584519,126.94406 L98.4180169,126.241131 L98.4180169,125.856028 L98.2187825,125.129899 L98.1982428,124.835272 L98.2187825,124.677519 L98.2372681,124.540645 L98.298887,124.42465 L98.518661,124.062746 L98.5597403,123.904992 L98.578226,123.72404 L98.578226,123.406214 L98.6193052,123.292539 L98.7384351,123.225262 L98.9808027,123.26934 L99.184145,123.26934 L99.3854334,123.176544 L99.4655379,123.062869 L99.5251029,122.902796 L99.5251029,122.292662 L99.5661821,122.158108 L99.6668263,122.044433 L99.847575,121.928438 L100.02627,121.88436 L100.348742,121.837962 L100.488411,121.814763 L100.66916,121.791564 L100.870449,121.791564 L101.250432,121.977156 L101.455828,122.11171 L101.796786,122.248584 L104.02739,122.837839 L104.226624,122.768242 L104.448452,122.747363 L104.76887,122.768242 L105.029723,122.925995 L105.189933,123.04199 L105.450786,123.176544 L105.812283,123.26934 L106.978934,123.450292 L107.219248,123.427093 L107.461616,123.338937 L107.621825,123.315738 L107.981268,123.473491 L108.227744,123.540768 L109.209538,123.610365 L109.431366,123.563967 L110.131767,123.176544 L110.556938,123.225262 L110.737686,123.246141 L110.657582,122.879597 L110.698661,122.088511 L110.639096,121.406461 L110.497373,121.067756 L110.152307,120.72905 L110.012637,120.476181 L109.911993,120.067879 L109.852428,119.682776 L109.710705,119.409028 L109.369747,119.318552 L109.330722,119.112081 L109.591575,119.047123 L109.831889,119.023924 L110.072202,119.068003 L110.312516,119.13528 L110.232411,118.775695 L110.113282,118.571544 L109.953073,118.43467 L109.831889,118.163242 L109.831889,118.024048 L109.872968,117.571668 L109.872968,117.413914 L109.971558,116.982413 L110.538452,115.938458 L110.737686,115.43736 L110.396728,115.344564 L109.612115,115.504637 L109.090408,115.344564 L109.069868,115.119534 L110.113282,114.690353 L110.437808,114.326128 L110.476833,113.690476 L110.193386,113.214897 L109.108894,112.307816 L108.708371,111.806718 L109.330722,111.922713 L109.971558,112.375093 L110.556938,112.964348 L110.918435,113.509524 L111.078644,113.465446 L111.179288,111.284741 L111.099184,110.489015 L110.678121,111.080589 L110.598017,111.444814 L110.698661,112.034068 L110.437808,111.850796 L109.811349,111.30794 L109.108894,111.103788 L108.969224,110.741884 L109.129433,110.468136 L110.012637,110.83236 L110.072202,110.37766 L109.932533,109.788406 L109.571035,108.630776 L109.550496,108.152877 L109.731245,107.788652 L110.213926,107.6077 L110.437808,107.948725 L110.577477,109.380103 L110.639096,109.718809 L110.87941,109.832484 L111.401116,109.788406 L111.781099,109.356904 L112.202162,108.426625 L112.808081,106.767897 L113.290762,106.974368 L113.531076,106.47095 L113.570101,105.747141 L113.450971,105.269242 L113.048395,104.953736 L111.941309,104.318083 L111.540786,104.225287 L110.678121,104.294884 L109.612115,104.202088 L108.628266,103.92834 L107.962782,103.455081 L108.227744,103.206851 L108.426978,103.206851 L108.930199,103.455081 L109.470391,103.615154 L111.941309,103.749708 L112.828621,103.591955 L113.029909,103.297327 L112.84916,102.705753 L112.504094,102.297451 L111.680455,101.638599 L111.481221,101.186219 L111.401116,100.801116 L111.440142,100.731519 L111.600351,100.506489 L111.781099,100.367295 L111.922823,100.506489 L112.041953,100.754718 L112.101518,101.049345 L112.202162,101.341652 L112.382911,101.615401 L112.602685,101.821872 L112.787541,101.889149 L113.068934,101.752275 L113.089474,101.548123 L113.048395,101.276695 L113.048395,100.982068 L114.252017,98.0102771 L114.494384,96.8735264 L113.711825,97.0776776 L113.068934,97.597335 L111.922823,98.8454408 L112.041953,98.3489824 L112.222702,97.9615592 L112.282266,97.643733 L112.041953,97.3491058 L112.002927,97.4187028 L111.321012,97.4859798 L111.179288,97.4627809 L110.99854,97.3282267 L110.838331,97.1681537 L110.678121,96.9872015 L111.039619,96.7830504 L111.401116,96.4861033 L111.801639,96.3492292 L112.302806,96.5533804 L112.727976,96.5997783 L113.110013,96.2146751 L113.650206,95.3284736 L113.309248,95.0106474 L112.668411,94.5141889 L112.323346,94.1267657 L112.84916,94.0571688 L113.290762,94.1940428 L113.61118,94.4909899 L113.872034,94.8528942 L114.293096,95.9200479 L114.453305,96.0337229 L114.574489,95.8968489 L114.654594,95.6022217 L114.899015,93.5583904 L114.899015,92.7881839 L114.734698,92.1525315 L114.373201,91.8138262 L114.011703,91.9947783 L113.890519,92.3798816 L114.192452,92.6953879 L114.233531,92.899539 L112.84916,93.3774383 L112.382911,93.4470353 L113.128499,92.1757305 L113.110013,91.6073552 L112.343885,91.1317758 L111.62089,91.0621788 L111.300472,90.9044257 L111.140263,90.5193224 L111.259393,90.2687733 L111.579811,90.2687733 L111.941309,90.4288463 L112.202162,90.6329975 L112.808081,90.9276247 L113.590641,90.9276247 L114.773723,90.6770756 L115.059224,90.4520453 L115.320078,90.0414232 L115.862324,88.8837935 L116.001993,88.0671889 L116.141663,87.6356877 L116.022533,87.6356877 L115.681575,87.7261637 L115.118789,87.2946625 L114.97912,87.2273854 L113.691285,87.2505844 L113.931599,86.8190831 L114.773723,86.3875819 L114.714159,86.1138338 L114.192452,85.7983275 L114.011703,85.5477783 L114.192452,85.2299521 L114.494384,85.1835542 L114.714159,85.4132242 L114.919555,85.7078514 L115.079764,85.9328816 L115.500826,86.0465567 L116.544239,86.0697557 L116.983788,86.2971058 L117.328853,86.2043098 L117.770455,85.6846524 L118.392806,84.6406977 L117.790995,84.6174987 L117.408958,84.1651184 L117.289828,83.6153023 L117.489062,83.322995 L117.610246,83.1884408 L117.669811,82.9170126 L117.790995,82.6641436 L118.090874,82.5736675 L118.111413,82.6873426 L118.232597,82.9378917 L118.431831,83.1884408 L118.674199,83.3021159 L119.639562,82.1212872 L119.962034,81.4160378 L119.600536,80.8940605 L119.600536,80.8940605 Z" id="Fill-80" fill="#D6D6D6"></path>
                <path d="M111.401116,120.863605 L111.321012,120.406584 L111.561325,119.501824 L111.62089,118.390592 L111.561325,117.481191 L111.62089,116.460436 L111.561325,115.711108 L111.460681,115.098655 L111.321012,115.119534 L111.259393,116.119411 L110.273491,117.367516 L110.193386,118.320995 L110.252951,118.481068 L110.556938,119.023924 L110.657582,119.295353 L110.698661,119.548222 L110.799305,120.318428 L111.360037,122.58729 L111.561325,122.656887 L111.680455,122.33906 L111.680455,121.747486 L111.401116,120.863605 L111.401116,120.863605 Z M119.600536,80.8940605 L119.195906,80.8499824 L118.873433,80.8940605 L118.61258,80.8267834 L118.59204,80.7827053 L118.573555,80.7827053 L118.111413,80.8267834 L117.669811,80.7363073 L117.289828,80.4880781 L117.063892,80.1238539 L116.885197,79.9197028 L115.901349,79.6250756 L115.379642,79.5786776 L114.091808,79.9637809 L113.872034,79.8709849 L113.089474,79.0775793 L112.94775,78.9871033 L112.686897,78.8734282 L112.563659,78.762073 L112.463015,78.555602 L112.442476,78.3978489 L112.483555,78.2632947 L112.463015,78.1728186 L111.922823,77.2842972 L111.822179,77.082466 L111.822179,76.7646398 L111.961848,76.1962645 L111.982388,75.9897935 L111.822179,75.2195869 L111.801639,74.8808816 L111.840664,74.5862544 L111.961848,74.1547531 L111.941309,73.76733 L111.801639,73.1571965 L111.540786,72.6560982 L111.220368,72.361471 L110.85887,72.294194 L109.790809,69.9557355 L109.67168,69.0254559 L109.490931,68.5243577 L109.149973,68.3666045 L108.829555,68.2993275 L108.669346,68.0278992 L108.568702,67.7077531 L108.447518,67.4595239 L108.307848,67.366728 L107.782034,67.1625768 L107.68139,67.1834559 L107.56226,67.1184987 L107.159683,66.7333955 L106.958395,66.5756423 L106.738621,66.4364484 L106.518847,66.3691713 L105.832823,66.3459723 L105.331656,66.1882191 L104.869514,65.93767 L104.549096,65.6662418 L104.247164,65.2138615 L104.208138,64.7568413 L104.267703,64.281262 L104.247164,63.6896877 L104.167059,63.4878564 L104.02739,63.2837053 L103.86718,63.1027531 L103.745997,63.0563552 L103.665892,62.921801 L103.704917,62.5784559 L103.704917,62.2165516 L103.805562,61.9660025 L103.787076,61.5600202 L103.56114,61.103 L103.281801,60.7410957 L103.080513,60.2887154 L103.000408,59.8548942 L102.858685,59.4025139 L102.517727,58.6067884 L101.030658,56.5652771 L100.728725,56.358806 L100.648621,55.7672317 L100.66916,54.7047179 L100.529491,54.2059395 L100.227558,53.6375642 L99.8660607,53.1805441 L99.5456425,53.0251108 L99.0403676,53.0251108 L98.6788702,52.8441587 L97.9373895,52.2757834 L96.9350556,51.8442821 L94.8441214,51.2991058 L93.9383238,50.6843325 L93.757575,50.3015491 L93.4371568,49.1207204 L93.2564081,48.8956902 L92.7552411,48.9629673 L92.3280169,48.8724912 L91.9274941,48.5523451 L91.4858921,47.9398917 L91.767285,47.6475844 L91.7878246,47.3274383 L91.5865363,47.0096121 L91.1449342,46.7381839 L91.4263272,46.4876348 L91.3873019,46.2834836 L91.2250388,46.2138866 L90.9456998,46.1466096 L90.7033322,46.1698086 L90.604742,46.3298816 L90.5431231,46.4876348 L90.3233491,46.3298816 L89.1957234,45.2186499 L88.9759494,44.8080277 L89.2552884,44.5574786 L88.8958449,43.856869 L88.9143305,43.627199 L89.2552884,43.4903249 L88.9944351,43.0820227 L88.8547656,42.9474685 L88.9348702,42.2654181 L88.5343474,41.7898388 L87.5279056,41.2678615 L87.006199,40.8595592 L85.8621417,39.6787305 L85.3363272,39.3377053 L84.8556998,39.1567531 L83.7527218,38.999 L83.2474469,38.8412469 L82.6641214,38.5442997 L82.1444688,38.0687204 L81.6823272,37.249796 L81.4009342,36.6164635 L80.9552243,36.0689673 L80.4951366,34.7767834 L79.7721417,34.0738539 L78.5253862,33.1435743 L77.4614334,32.4406448 L76.5145565,31.9627456 L75.7525363,31.7121965 L74.990516,31.3270932 L74.3640573,30.7355189 L73.9039696,30.1694635 L73.4829073,29.8284383 L73.0413052,29.8980353 L72.6592681,29.8284383 L72.3388499,29.5338111 L72.0533491,28.7868035 L71.7123912,28.1047531 L71.3714334,27.3090277 L71.1311197,27.0144005 L70.5703879,26.7870504 L70.3300742,26.4019471 L69.9685767,25.6085416 L69.7426408,25.3324736 L69.4427622,25.0401662 L69.122344,24.7896171 L68.5800978,24.6527431 L68.1384958,24.1562846 L67.957747,24.0426096 L67.7769983,23.6575063 L67.0108702,21.1380957 L66.7315312,20.4792443 L65.1623035,18.5050101 L64.9219899,18.2776599 L64.4803879,17.3450605 L64.2585599,16.5516549 L63.917602,15.8046474 L62.8906206,15.3035491 L61.3665801,15.5540982 L60.3395987,15.7814484 L59.5570388,15.4613023 L59.156516,15.053 L58.6943744,14.4173476 L58.1890995,14.1459194 L57.607828,13.533466 L56.7266779,13.1460428 L56.5048499,12.8073375 L56.4247454,12.3967154 L56.2604283,12.3735164 L55.7387218,12.6495844 L54.9561619,12.3526373 L52.7460978,11.2182065 L51.903973,10.241529 L51.9429983,8.9261461 L52.2449309,8.33689169 L52.3044958,8.06314358 L52.3044958,7.81491436 L52.2839562,7.56436524 L52.3044958,7.33701511 L52.3640607,7.15374307 L52.4852445,6.70136272 L52.7460978,6.33945844 L53.0459764,6.04483123 L53.288344,5.70380605 L53.4485531,5.2259068 L53.6477875,4.22835013 L53.789511,3.75277078 L53.9887454,3.3885466 L54.7754132,2.50466499 L55.0362664,2.27499496 L55.5990523,1.98036776 L55.8188263,1.66254156 L55.9584958,1.30063728 L56.0406543,0.915534005 L56.0201147,0.551309824 L55.999575,0.504911839 L54.3338111,0.825057935 L52.6865329,1.14288413 L51.0372007,1.43751134 L49.3673288,1.75301763 L47.7036189,2.07084383 L46.0542867,2.36547103 L44.3864688,2.68561713 L42.7371366,2.98024433 L41.0713727,3.27719144 L37.7542226,3.88732494 L36.0864047,4.18195214 L34.4411804,4.47657935 L32.7713086,4.77120655 L31.1034907,5.06815365 L29.4582664,5.36278086 L27.5090556,5.56693199 L25.4181214,5.77340302 L23.8509477,5.93115617 L23.6907386,5.88707809 L22.9266644,5.99843325 L20.1517605,6.4531335 L17.3994503,6.88231486 L14.6266003,7.31381612 L11.8558044,7.74531738 L9.09938617,8.15361965 L6.32653626,8.56424181 L3.5557403,8.99342317 L0.803430017,9.40172544 L0.842455312,9.55947859 L0.963639123,10.0605768 L1.20395278,10.8795013 L1.4853457,11.967534 L1.8673828,13.3084358 L2.28639123,14.892927 L2.79372007,16.7094081 L3.33391231,18.7091612 L3.93572344,20.9107456 L4.57861383,23.2236851 L5.24409781,25.6990176 L5.94655312,28.2625063 L6.68803373,30.9187909 L7.43362226,33.6632317 L8.1956425,36.4331914 L8.95971669,39.2263501 L9.74433052,42.0171889 L10.5063508,44.7848287 L11.2498853,47.5083904 L11.9954739,50.1646751 L12.6979292,52.7536826 L13.3798449,55.2034962 L14.0247892,57.5396348 L14.64714,59.7203401 L15.2099258,61.7409723 L15.7110927,63.5319345 L16.1568027,65.1210655 L16.5367858,66.4851662 L16.8366644,67.5708791 L17.0584924,68.3666045 L17.1981619,68.8653829 L17.2392411,69.0486549 L17.5596594,70.2039647 L17.5391197,70.4777128 L18.5270759,72.5656222 L18.5661012,73.4495038 L18.6277201,73.7000529 L18.7283642,73.927403 L18.8680337,74.1338741 L19.0282428,74.2916272 L19.5499494,74.7880856 L19.6896189,74.9713577 L19.5499494,75.2891839 L19.6690793,75.562932 L19.9114469,75.8343602 L20.1312209,76.1730655 L20.3961821,77.1961411 L20.6960607,77.7853955 L20.7576796,78.1728186 L20.7782192,78.7156751 L20.9384283,78.9871033 L21.2383069,79.1494962 L21.4395953,79.3513275 L21.3594907,79.7828287 L23.1875177,81.8266599 L23.5099899,82.2790403 L23.6496594,82.6641436 L23.8694334,83.6153023 L24.109747,84.0491234 L24.39114,84.4597456 L24.6335076,84.865728 L24.7136121,85.2740302 L24.7136121,85.1603552 L24.7320978,85.3900252 L24.7136121,85.2740302 L24.7320978,85.6614534 L24.612968,86.0256776 L24.5513491,86.3411839 L24.7136121,86.66133 L24.2904958,87.3410605 L24.4527589,87.8839169 L24.9580337,88.317738 L26.1205767,88.8605945 L26.3608904,89.0206675 L26.5416391,89.3384937 L26.6422833,89.3616927 L26.7429275,89.4057708 L26.823032,89.6099219 L26.7819528,89.860471 L26.6422833,90.0646222 L26.4615346,90.1782972 L26.2602462,90.2223753 L26.4409949,90.5657204 L26.4204553,90.8812267 L26.2602462,91.1317758 L26.0794975,91.312728 L25.660489,91.1758539 L25.3174772,91.3336071 L25.2784519,91.5841562 L25.6789747,91.8138262 L25.438661,92.0852544 L25.0771636,92.3334836 L24.7136121,92.5121159 L24.4116796,92.6281108 L24.2720101,92.7649849 L24.1508263,93.061932 L23.9105126,94.1035668 L23.9105126,94.3773149 L24.0111568,95.1243224 L23.9906172,95.5349446 L23.8304081,96.0801209 L23.8304081,96.7830504 L24.0912614,97.4395819 L24.109747,98.2121083 L24.0912614,98.3257834 L23.9495379,98.7990428 L23.8694334,98.9614358 L23.3682664,100.25362 L23.0683879,101.480846 L23.006769,102.524801 L22.947204,102.933103 L22.9266644,103.093176 L22.9266644,103.274128 L22.8670995,103.951539 L23.0868735,104.545433 L24.109747,107.811851 L24.3726543,108.289751 L25.2989916,109.403302 L25.5598449,109.92296 L25.660489,110.305743 L25.7796189,111.126987 L25.8391838,111.352018 L26.1205767,111.922713 L26.2212209,112.328695 L26.161656,113.078023 L25.9809073,113.690476 L25.9192884,114.326128 L26.2602462,115.165932 L25.8597234,115.961657 L25.8391838,117.096088 L25.9809073,119.434547 L25.9008027,119.729174 L25.660489,120.248831 L25.6399494,120.566657 L25.6995143,120.796327 L25.9809073,121.362383 L26.0610118,121.631491 L26.0794975,122.747363 L26.161656,123.225262 L26.4615346,123.563967 L26.9627015,123.768118 L27.7082901,124.631121 L28.4107454,125.835149 L28.872887,127.196929 L29.1337403,127.491557 L29.2138449,127.807063 L29.1727656,128.055292 L29.0536358,128.284962 L28.9940708,128.421836 L28.9529916,128.512312 L29.0330961,128.897416 L29.1337403,129.011091 L29.5794503,129.280199 L29.7396594,129.419393 L29.9204081,129.737219 L30.199747,130.621101 L30.421575,130.804373 L30.8220978,131.484103 L31.0829511,132.166154 L31.2636998,133.437458 L31.8696189,135.365295 L33.0321619,136.455647 L33.2334503,136.38837 L33.9790388,136.318773 L34.1207622,136.318773 L34.5603103,136.274695 L35.2627656,136.228297 L36.2096425,136.16102 L37.3927251,136.070544 L38.8017437,135.956869 L40.3853491,135.819995 L42.1764047,135.683121 L44.1256155,135.523048 L46.2144958,135.342096 L48.4245599,135.161144 L50.7558078,134.980191 L53.1671602,134.77604 L55.6586172,134.54869 L58.2096391,134.31902 L60.8017403,134.09399 L63.4164351,133.86664 L66.0290759,133.618411 L68.6396627,133.39106 L71.2112243,133.140511 L73.7437605,132.913161 L76.2146779,132.664932 L78.6054907,132.437582 L80.8751197,132.212552 L83.0461585,132.006081 L85.0754739,131.79961 L86.9445801,131.620977 L88.6534772,131.440025 L90.16314,131.303151 L91.4858921,131.168597 L92.5744924,131.054922 L93.4166172,130.964446 L94.3778718,130.850771 L94.4394907,130.894849 L94.4394907,130.985325 L94.4189511,131.189476 L94.3388465,131.416826 L94.3183069,131.530501 L94.3388465,131.641856 L94.3778718,131.753212 L94.5401349,131.982882 L95.2056189,132.688131 L95.3247487,132.869083 L95.4849578,133.114992 L95.5671164,133.39106 L95.5671164,133.708887 L95.5260371,134.163587 L95.5054975,134.525491 L95.5260371,134.708763 L95.5465767,134.866516 L95.6472209,135.117065 L96.1483879,136.184219 L96.308597,136.409249 L96.4092411,136.499725 L96.5489106,136.569322 L96.7296594,136.613401 L96.9535413,136.590202 L97.9969545,136.251496 L98.1571636,136.251496 L98.5987656,136.318773 L98.7199494,136.318773 L98.8205936,136.295574 L99.4265126,135.980068 L99.5456425,135.889592 L99.6052074,135.750398 L99.625747,135.502169 L99.6052074,135.318897 L99.4265126,134.455894 L99.4265126,133.86664 L99.6052074,131.892406 L99.625747,129.827695 L99.5867218,129.48667 L99.5251029,129.192043 L99.4655379,129.055169 L99.3258685,128.851018 L98.7795143,128.215365 L98.6398449,127.964816 L98.518661,127.693388 L98.4385565,127.468358 L98.3789916,127.127332 L98.3584519,126.94406 L98.4180169,126.241131 L98.4180169,125.856028 L98.2187825,125.129899 L98.1982428,124.835272 L98.2187825,124.677519 L98.2372681,124.540645 L98.298887,124.42465 L98.518661,124.062746 L98.5597403,123.904992 L98.578226,123.72404 L98.578226,123.406214 L98.6193052,123.292539 L98.7384351,123.225262 L98.9808027,123.26934 L99.184145,123.26934 L99.3854334,123.176544 L99.4655379,123.062869 L99.5251029,122.902796 L99.5251029,122.292662 L99.5661821,122.158108 L99.6668263,122.044433 L99.847575,121.928438 L100.02627,121.88436 L100.348742,121.837962 L100.488411,121.814763 L100.66916,121.791564 L100.870449,121.791564 L101.250432,121.977156 L101.455828,122.11171 L101.796786,122.248584 L104.02739,122.837839 L104.226624,122.768242 L104.448452,122.747363 L104.76887,122.768242 L105.029723,122.925995 L105.189933,123.04199 L105.450786,123.176544 L105.812283,123.26934 L106.978934,123.450292 L107.219248,123.427093 L107.461616,123.338937 L107.621825,123.315738 L107.981268,123.473491 L108.227744,123.540768 L109.209538,123.610365 L109.431366,123.563967 L110.131767,123.176544 L110.556938,123.225262 L110.737686,123.246141 L110.657582,122.879597 L110.698661,122.088511 L110.639096,121.406461 L110.497373,121.067756 L110.152307,120.72905 L110.012637,120.476181 L109.911993,120.067879 L109.852428,119.682776 L109.710705,119.409028 L109.369747,119.318552 L109.330722,119.112081 L109.591575,119.047123 L109.831889,119.023924 L110.072202,119.068003 L110.312516,119.13528 L110.232411,118.775695 L110.113282,118.571544 L109.953073,118.43467 L109.831889,118.163242 L109.831889,118.024048 L109.872968,117.571668 L109.872968,117.413914 L109.971558,116.982413 L110.538452,115.938458 L110.737686,115.43736 L110.396728,115.344564 L109.612115,115.504637 L109.090408,115.344564 L109.069868,115.119534 L110.113282,114.690353 L110.437808,114.326128 L110.476833,113.690476 L110.193386,113.214897 L109.108894,112.307816 L108.708371,111.806718 L109.330722,111.922713 L109.971558,112.375093 L110.556938,112.964348 L110.918435,113.509524 L111.078644,113.465446 L111.179288,111.284741 L111.099184,110.489015 L110.678121,111.080589 L110.598017,111.444814 L110.698661,112.034068 L110.437808,111.850796 L109.811349,111.30794 L109.108894,111.103788 L108.969224,110.741884 L109.129433,110.468136 L110.012637,110.83236 L110.072202,110.37766 L109.932533,109.788406 L109.571035,108.630776 L109.550496,108.152877 L109.731245,107.788652 L110.213926,107.6077 L110.437808,107.948725 L110.577477,109.380103 L110.639096,109.718809 L110.87941,109.832484 L111.401116,109.788406 L111.781099,109.356904 L112.202162,108.426625 L112.808081,106.767897 L113.290762,106.974368 L113.531076,106.47095 L113.570101,105.747141 L113.450971,105.269242 L113.048395,104.953736 L111.941309,104.318083 L111.540786,104.225287 L110.678121,104.294884 L109.612115,104.202088 L108.628266,103.92834 L107.962782,103.455081 L108.227744,103.206851 L108.426978,103.206851 L108.930199,103.455081 L109.470391,103.615154 L111.941309,103.749708 L112.828621,103.591955 L113.029909,103.297327 L112.84916,102.705753 L112.504094,102.297451 L111.680455,101.638599 L111.481221,101.186219 L111.401116,100.801116 L111.440142,100.731519 L111.600351,100.506489 L111.781099,100.367295 L111.922823,100.506489 L112.041953,100.754718 L112.101518,101.049345 L112.202162,101.341652 L112.382911,101.615401 L112.602685,101.821872 L112.787541,101.889149 L113.068934,101.752275 L113.089474,101.548123 L113.048395,101.276695 L113.048395,100.982068 L114.252017,98.0102771 L114.494384,96.8735264 L113.711825,97.0776776 L113.068934,97.597335 L111.922823,98.8454408 L112.041953,98.3489824 L112.222702,97.9615592 L112.282266,97.643733 L112.041953,97.3491058 L112.002927,97.4187028 L111.321012,97.4859798 L111.179288,97.4627809 L110.99854,97.3282267 L110.838331,97.1681537 L110.678121,96.9872015 L111.039619,96.7830504 L111.401116,96.4861033 L111.801639,96.3492292 L112.302806,96.5533804 L112.727976,96.5997783 L113.110013,96.2146751 L113.650206,95.3284736 L113.309248,95.0106474 L112.668411,94.5141889 L112.323346,94.1267657 L112.84916,94.0571688 L113.290762,94.1940428 L113.61118,94.4909899 L113.872034,94.8528942 L114.293096,95.9200479 L114.453305,96.0337229 L114.574489,95.8968489 L114.654594,95.6022217 L114.899015,93.5583904 L114.899015,92.7881839 L114.734698,92.1525315 L114.373201,91.8138262 L114.011703,91.9947783 L113.890519,92.3798816 L114.192452,92.6953879 L114.233531,92.899539 L112.84916,93.3774383 L112.382911,93.4470353 L113.128499,92.1757305 L113.110013,91.6073552 L112.343885,91.1317758 L111.62089,91.0621788 L111.300472,90.9044257 L111.140263,90.5193224 L111.259393,90.2687733 L111.579811,90.2687733 L111.941309,90.4288463 L112.202162,90.6329975 L112.808081,90.9276247 L113.590641,90.9276247 L114.773723,90.6770756 L115.059224,90.4520453 L115.320078,90.0414232 L115.862324,88.8837935 L116.001993,88.0671889 L116.141663,87.6356877 L116.022533,87.6356877 L115.681575,87.7261637 L115.118789,87.2946625 L114.97912,87.2273854 L113.691285,87.2505844 L113.931599,86.8190831 L114.773723,86.3875819 L114.714159,86.1138338 L114.192452,85.7983275 L114.011703,85.5477783 L114.192452,85.2299521 L114.494384,85.1835542 L114.714159,85.4132242 L114.919555,85.7078514 L115.079764,85.9328816 L115.500826,86.0465567 L116.544239,86.0697557 L116.983788,86.2971058 L117.328853,86.2043098 L117.770455,85.6846524 L118.392806,84.6406977 L117.790995,84.6174987 L117.408958,84.1651184 L117.289828,83.6153023 L117.489062,83.322995 L117.610246,83.1884408 L117.669811,82.9170126 L117.790995,82.6641436 L118.090874,82.5736675 L118.111413,82.6873426 L118.232597,82.9378917 L118.431831,83.1884408 L118.674199,83.3021159 L119.639562,82.1212872 L119.962034,81.4160378 L119.600536,80.8940605 L119.600536,80.8940605 Z" id="Stroke-81" stroke="#F9F9F9" stroke-width="0.25" stroke-linecap="round" stroke-linejoin="round"></path>
            </g>
        </g>
    </g>
</svg>