<?xml version="1.0" encoding="UTF-8"?>
<svg width="24px" height="43px" viewBox="0 0 24 43" version="1.1" xmlns="http://www.w3.org/2000/svg" xmlns:xlink="http://www.w3.org/1999/xlink">
    <!-- Generator: Sketch 51 (57462) - http://www.bohemiancoding.com/sketch -->
    <title>Delaware</title>
    <desc>Created with Sketch.</desc>
    <defs></defs>
    <g id="Page-1" stroke="none" stroke-width="1" fill="none" fill-rule="evenodd">
        <g id="A5" transform="translate(-1104.000000, -298.000000)">
            <g id="Delaware" transform="translate(1104.000000, 298.000000)">
                <polygon id="Fill-84" fill="#D6D6D6" points="7.53143676 0.844831234 7.39176728 1.16033753 6.78995616 1.90966499 6.58866779 2.33884635 6.58866779 3.58927204 6.42845868 4.17852645 5.746543 5.72357935 5.66643845 5.8604534 4.98041484 6.35923174 4.92084992 6.58426196 4.92084992 6.90440806 4.86128499 7.26399244 4.84074536 7.60733753 4.94138954 7.85556675 5.66643845 8.35666499 5.90880607 8.58169521 6.20868465 9.03639547 6.32986847 9.57925189 6.30932884 10.1476272 6.10804047 10.7392015 6.06901518 11.418932 6.38943339 12.0105063 6.85157504 12.4373678 7.19253288 12.6902368 7.57251602 13.0753401 8.75970658 14.7758262 8.83981113 14.9567783 8.98153457 15.0031763 9.34097808 14.9127003 9.52172681 15.0031763 10.3083946 15.7107456 10.9697707 16.7987783 11.2922428 17.3648338 11.5120169 18.0677632 11.6927656 19.9955995 11.894054 20.6567708 12.0131838 20.9305189 12.2534975 21.3156222 12.3787892 21.5870504 12.4178145 22.2899798 12.5389983 22.654204 13.2003744 22.9024332 13.6214368 23.3594534 14.5642057 24.7629924 14.8086273 25.2176927 14.9893761 25.7837481 15.1516391 26.5121965 15.3714132 26.7604257 16.6962192 27.5097531 18.0826442 28.8738539 18.7645599 29.2798363 19.6107926 29.3030353 20.194118 29.1452821 20.5535616 29.0988841 20.7753895 29.4167103 21.6811872 32.5253753 21.7428061 33.2283048 21.6811872 33.6853249 21.3402293 32.3212242 20.9561383 31.9593199 19.9722901 32.2075491 19.9517504 32.3885013 20.5741012 33.3419798 20.253683 33.3674987 20.1324992 33.3419798 20.0133693 33.3906977 19.9928297 33.4579748 19.9332648 33.4811738 19.8716459 33.5252519 20.1324992 33.706204 20.4344317 33.8662771 20.7548499 33.9103552 21.136887 33.8198791 20.7548499 34.4555315 19.4115582 35.2512569 19.1507049 35.8381914 19.5717673 35.7268363 19.530688 35.9773854 19.4505835 36.1815365 19.3704789 36.3392897 19.2698347 36.4529647 19.6107926 36.4297657 20.3132479 35.5899622 20.8554941 35.41133 21.0157032 35.5458841 21.2354772 35.7941134 21.4614132 36.0005844 21.6216223 35.9333073 21.9215008 35.2280579 22.0426847 34.8197557 21.9215008 34.5692065 21.9625801 34.3418564 22.1022496 34.2745793 22.3035379 34.5900856 22.3631029 34.8638338 22.4842867 36.1351385 22.74514 36.861267 23.0860978 37.5409975 23.3469511 38.2462469 23.3674907 38.9955743 23.0860978 39.0628514 22.964914 38.9955743 22.8252445 38.9491763 22.6650354 38.9491763 22.463747 38.9955743 22.5438516 39.2206045 22.0426847 39.3342796 20.915059 39.6289068 19.2903744 40.0604081 17.6821214 40.4733501 16.0327892 40.8770126 14.4245363 41.2876348 12.7998516 41.695937 11.171059 42.1042393 9.54226644 42.5102217 9.18076897 41.1530806 8.83981113 39.7425819 8.31810455 37.6082746 7.79229005 35.4530882 7.27263744 33.3187809 6.75093086 31.1659144 6.24770995 29.0316071 5.72805734 26.8741008 5.20224283 24.7397935 4.68053626 22.5846071 4.15882968 20.4526196 3.65766273 18.2974332 3.13184823 16.1631259 2.61014165 14.0288186 2.08843508 11.8713123 1.5667285 9.73932494 1.040914 7.58413854 0.539747049 5.44983123 0.699956155 5.42663224 0.720495784 5.35935516 1.02242833 4.40819647 1.30587521 3.47559698 1.62629342 2.43164232 1.92822597 1.93054408 2.31026307 1.47816373 2.65122091 1.18353652 3.27151771 0.798433249 3.71722766 0.594282116 4.62097133 0.320534005 5.62741315 0.230057935 6.42845868 0.320534005 7.11242833 0.571083123 7.5129511 0.821632242"></polygon>
                <polygon id="Stroke-85" stroke="#F9F9F9" stroke-width="0.25" stroke-linecap="round" stroke-linejoin="round" points="7.53143676 0.844831234 7.39176728 1.16033753 6.78995616 1.90966499 6.58866779 2.33884635 6.58866779 3.58927204 6.42845868 4.17852645 5.746543 5.72357935 5.66643845 5.8604534 4.98041484 6.35923174 4.92084992 6.58426196 4.92084992 6.90440806 4.86128499 7.26399244 4.84074536 7.60733753 4.94138954 7.85556675 5.66643845 8.35666499 5.90880607 8.58169521 6.20868465 9.03639547 6.32986847 9.57925189 6.30932884 10.1476272 6.10804047 10.7392015 6.06901518 11.418932 6.38943339 12.0105063 6.85157504 12.4373678 7.19253288 12.6902368 7.57251602 13.0753401 8.75970658 14.7758262 8.83981113 14.9567783 8.98153457 15.0031763 9.34097808 14.9127003 9.52172681 15.0031763 10.3083946 15.7107456 10.9697707 16.7987783 11.2922428 17.3648338 11.5120169 18.0677632 11.6927656 19.9955995 11.894054 20.6567708 12.0131838 20.9305189 12.2534975 21.3156222 12.3787892 21.5870504 12.4178145 22.2899798 12.5389983 22.654204 13.2003744 22.9024332 13.6214368 23.3594534 14.5642057 24.7629924 14.8086273 25.2176927 14.9893761 25.7837481 15.1516391 26.5121965 15.3714132 26.7604257 16.6962192 27.5097531 18.0826442 28.8738539 18.7645599 29.2798363 19.6107926 29.3030353 20.194118 29.1452821 20.5535616 29.0988841 20.7753895 29.4167103 21.6811872 32.5253753 21.7428061 33.2283048 21.6811872 33.6853249 21.3402293 32.3212242 20.9561383 31.9593199 19.9722901 32.2075491 19.9517504 32.3885013 20.5741012 33.3419798 20.253683 33.3674987 20.1324992 33.3419798 20.0133693 33.3906977 19.9928297 33.4579748 19.9332648 33.4811738 19.8716459 33.5252519 20.1324992 33.706204 20.4344317 33.8662771 20.7548499 33.9103552 21.136887 33.8198791 20.7548499 34.4555315 19.4115582 35.2512569 19.1507049 35.8381914 19.5717673 35.7268363 19.530688 35.9773854 19.4505835 36.1815365 19.3704789 36.3392897 19.2698347 36.4529647 19.6107926 36.4297657 20.3132479 35.5899622 20.8554941 35.41133 21.0157032 35.5458841 21.2354772 35.7941134 21.4614132 36.0005844 21.6216223 35.9333073 21.9215008 35.2280579 22.0426847 34.8197557 21.9215008 34.5692065 21.9625801 34.3418564 22.1022496 34.2745793 22.3035379 34.5900856 22.3631029 34.8638338 22.4842867 36.1351385 22.74514 36.861267 23.0860978 37.5409975 23.3469511 38.2462469 23.3674907 38.9955743 23.0860978 39.0628514 22.964914 38.9955743 22.8252445 38.9491763 22.6650354 38.9491763 22.463747 38.9955743 22.5438516 39.2206045 22.0426847 39.3342796 20.915059 39.6289068 19.2903744 40.0604081 17.6821214 40.4733501 16.0327892 40.8770126 14.4245363 41.2876348 12.7998516 41.695937 11.171059 42.1042393 9.54226644 42.5102217 9.18076897 41.1530806 8.83981113 39.7425819 8.31810455 37.6082746 7.79229005 35.4530882 7.27263744 33.3187809 6.75093086 31.1659144 6.24770995 29.0316071 5.72805734 26.8741008 5.20224283 24.7397935 4.68053626 22.5846071 4.15882968 20.4526196 3.65766273 18.2974332 3.13184823 16.1631259 2.61014165 14.0288186 2.08843508 11.8713123 1.5667285 9.73932494 1.040914 7.58413854 0.539747049 5.44983123 0.699956155 5.42663224 0.720495784 5.35935516 1.02242833 4.40819647 1.30587521 3.47559698 1.62629342 2.43164232 1.92822597 1.93054408 2.31026307 1.47816373 2.65122091 1.18353652 3.27151771 0.798433249 3.71722766 0.594282116 4.62097133 0.320534005 5.62741315 0.230057935 6.42845868 0.320534005 7.11242833 0.571083123 7.5129511 0.821632242"></polygon>
            </g>
        </g>
    </g>
</svg>