<?xml version="1.0" encoding="UTF-8" standalone="no"?>
<svg width="72px" height="68px" viewBox="0 0 72 68" version="1.1" xmlns="http://www.w3.org/2000/svg" xmlns:xlink="http://www.w3.org/1999/xlink">
    <!-- Generator: Sketch 46.1 (44463) - http://www.bohemiancoding.com/sketch -->
    <title>Group</title>
    <desc>Created with Sketch.</desc>
    <defs></defs>
    <g id="Page-1" stroke="none" stroke-width="1" fill="none" fill-rule="evenodd">
        <g id="Group" transform="translate(1.000000, 1.000000)">
            <path d="M37.6623526,1.58995511 L69.6770459,61.6790717 L69.6770459,61.6790717 C70.45612,63.1413336 69.9022866,64.9582953 68.4400247,65.7373692 C68.005817,65.9687094 67.5213771,66.0897099 67.0293866,66.0897099 L3,66.0897099 L3,66.0897099 C1.3431458,66.0897099 0,64.7465641 0,63.0897099 C0,62.5977194 0.1210005,62.1132795 0.3523407,61.6790717 L32.3670339,1.58995511 L32.3670339,1.58995511 C33.1461079,0.127693209 34.9630696,-0.426139991 36.4253314,0.352933909 C36.9514102,0.633221809 37.3820647,1.06387631 37.6623526,1.58995511 Z" id="Triangle" stroke="#F5A623" fill="#F5A623" fill-rule="nonzero"></path>
            <path d="M32.28125,39.75 L31.28125,24.78125 C31.0937491,21.8645687 31,19.7708397 31,18.5 C31,16.7708247 31.4531205,15.4218798 32.359375,14.453125 C33.2656295,13.4843702 34.4583259,13 35.9375,13 C37.7291756,13 38.9270803,13.6197855 39.53125,14.859375 C40.1354197,16.0989645 40.4375,17.885405 40.4375,20.21875 C40.4375,21.5937569 40.3645841,22.9895762 40.21875,24.40625 L38.875,39.8125 C38.7291659,41.6458425 38.4166691,43.0520784 37.9375,44.03125 C37.4583309,45.0104216 36.6666722,45.5 35.5625,45.5 C34.4374944,45.5 33.6562522,45.0260464 33.21875,44.078125 C32.7812478,43.1302036 32.4687509,41.6875097 32.28125,39.75 Z M35.75,60.3125 C34.4791603,60.3125 33.3697964,59.9010458 32.421875,59.078125 C31.4739536,58.2552042 31,57.1041741 31,55.625 C31,54.3333269 31.4531205,53.2343795 32.359375,52.328125 C33.2656295,51.4218705 34.3749934,50.96875 35.6875,50.96875 C37.0000066,50.96875 38.119787,51.4218705 39.046875,52.328125 C39.973963,53.2343795 40.4375,54.3333269 40.4375,55.625 C40.4375,57.0833406 39.9687547,58.2291625 39.03125,59.0625 C38.0937453,59.8958375 37.0000062,60.3125 35.75,60.3125 Z" id="!" fill="#FFFFFF"></path>
        </g>
    </g>
</svg>