<?xml version="1.0" encoding="UTF-8"?>
<svg width="159px" height="160px" viewBox="0 0 159 160" version="1.1" xmlns="http://www.w3.org/2000/svg" xmlns:xlink="http://www.w3.org/1999/xlink">
    <!-- Generator: Sketch 49.3 (51167) - http://www.bohemiancoding.com/sketch -->
    <title>channel</title>
    <desc>Created with Sketch.</desc>
    <defs></defs>
    <g id="Featuring-Recommended-Learning-" stroke="none" stroke-width="1" fill="none" fill-rule="evenodd">
        <g id="CE-Channel-Copy" transform="translate(-608.000000, -251.000000)" fill="#FFFFFF" fill-rule="nonzero">
            <g id="Group-5" transform="translate(358.000000, 115.000000)">
                <g id="Group-4" transform="translate(30.000000, 136.000000)">
                    <g id="Group-3" transform="translate(78.000000, 0.000000)">
                        <path d="M222.190608,39.478453 C211.263536,39.478453 200.512707,43.5320442 192.053039,51.8154696 C175.486188,68.2060773 175.309945,94.9950276 191.876796,111.385635 C208.267403,127.776243 235.056354,127.776243 251.623204,111.385635 C259.90663,103.10221 264.136464,92.3513812 264.136464,81.4243094 C263.738331,66.0298221 263.439731,54.4839566 263.240664,46.786713 C263.20474,45.397646 263.150854,43.3140455 263.079006,40.5359116 L222.190608,39.478453 Z M247.217127,106.803315 C233.11768,120.726519 210.558564,120.726519 196.635359,106.803315 C182.712155,92.8801105 182.888398,70.3209945 196.811602,56.3977901 C203.861326,49.5243094 213.025967,45.9994475 222.190608,45.9994475 L223.953039,45.9994475 L245.630939,46.7044199 L256.910497,47.0569061 L257.262983,58.3364641 L257.791713,80.0143646 L257.791713,81.7767956 C257.791713,90.7651934 254.266851,99.9298343 247.217127,106.803315 Z M246.512155,83.7154696 C245.454696,97.2861878 233.998895,107.68453 220.60442,107.68453 C219.899448,107.68453 219.194475,107.68453 218.665746,107.68453 C204.390055,106.627072 193.639227,94.1138122 194.696685,79.8381215 C195.754144,66.2674033 207.209945,55.8690608 220.60442,55.8690608 C220.60442,55.8690608 220.60442,55.8690608 220.60442,55.8690608 L220.60442,62.9187845 C210.734807,62.9187845 202.451381,70.4972376 201.746409,80.3668508 C201.393923,85.3016575 202.98011,90.2364641 206.328729,94.1138122 C209.677348,97.9911602 214.259669,100.28232 219.194475,100.634807 C219.723204,100.634807 220.251934,100.634807 220.60442,100.634807 C230.474033,100.634807 238.757459,93.0563536 239.462431,83.1867403 C239.814917,78.2519337 238.228729,73.3171271 234.88011,69.439779 C231.531492,65.5624309 226.949171,63.2712707 222.014365,62.9187845 C221.485635,62.9187845 220.956906,62.9187845 220.60442,62.9187845 L220.60442,55.8690608 C221.309392,55.8690608 222.014365,55.8690608 222.543094,55.8690608 C236.995028,57.1027624 247.569613,69.6160221 246.512155,83.7154696 Z M158.743094,24.6740331 C158.743094,20.7966851 161.91547,17.6243094 165.792818,17.6243094 C169.670166,17.6243094 172.842541,20.7966851 172.842541,24.6740331 C172.842541,28.5513812 169.670166,31.7237569 165.792818,31.7237569 C161.91547,31.7237569 158.743094,28.5513812 158.743094,24.6740331 Z M213.378453,7.04972376 C213.378453,3.17237569 216.550829,0 220.428177,0 C224.305525,0 227.477901,3.17237569 227.477901,7.04972376 C227.477901,10.9270718 224.305525,14.0994475 220.428177,14.0994475 C216.550829,14.0994475 213.378453,10.9270718 213.378453,7.04972376 Z M269.776243,24.6740331 C269.776243,20.7966851 272.948619,17.6243094 276.825967,17.6243094 C280.703315,17.6243094 283.875691,20.7966851 283.875691,24.6740331 C283.875691,28.5513812 280.703315,31.7237569 276.825967,31.7237569 C272.948619,31.7237569 269.776243,28.5513812 269.776243,24.6740331 Z M300.618785,80.1906077 C300.618785,84.0679558 297.446409,87.2403315 293.569061,87.2403315 C289.691713,87.2403315 286.519337,84.0679558 286.519337,80.1906077 C286.519337,76.3132597 289.691713,73.140884 293.569061,73.140884 C297.446409,73.140884 300.618785,76.3132597 300.618785,80.1906077 Z M284.756906,134.825967 C284.756906,138.703315 281.58453,141.875691 277.707182,141.875691 C273.829834,141.875691 270.657459,138.703315 270.657459,134.825967 C270.657459,130.948619 273.829834,127.776243 277.707182,127.776243 C281.58453,127.776243 284.756906,130.948619 284.756906,134.825967 Z M230.121547,152.450276 C230.121547,156.327624 226.949171,159.5 223.071823,159.5 C219.194475,159.5 216.022099,156.327624 216.022099,152.450276 C216.022099,148.572928 219.194475,145.400552 223.071823,145.400552 C226.949171,145.400552 230.121547,148.572928 230.121547,152.450276 Z M173.723757,136.588398 C173.723757,140.465746 170.551381,143.638122 166.674033,143.638122 C162.796685,143.638122 159.624309,140.465746 159.624309,136.588398 C159.624309,132.71105 162.796685,129.538674 166.674033,129.538674 C170.551381,129.538674 173.723757,132.71105 173.723757,136.588398 Z M156.099448,80.1906077 C156.099448,84.0679558 152.927072,87.2403315 149.049724,87.2403315 C145.172376,87.2403315 142,84.0679558 142,80.1906077 C142,76.3132597 145.172376,73.140884 149.049724,73.140884 C152.927072,73.140884 156.099448,76.3132597 156.099448,80.1906077 Z" id="channel"></path>
                    </g>
                </g>
            </g>
        </g>
    </g>
</svg>