<?xml version="1.0" encoding="UTF-8" standalone="no"?>
<svg width="92px" height="90px" viewBox="0 0 92 90" version="1.1" xmlns="http://www.w3.org/2000/svg" xmlns:xlink="http://www.w3.org/1999/xlink">
    <!-- Generator: Sketch 46.1 (44463) - http://www.bohemiancoding.com/sketch -->
    <title>Group</title>
    <desc>Created with Sketch.</desc>
    <defs></defs>
    <g id="AssessRX" stroke="none" stroke-width="1" fill="none" fill-rule="evenodd">
        <g id="Group">
            <rect id="Rectangle" stroke="#4A4A4A" stroke-width="2" x="1" y="1" width="90" height="88" rx="4"></rect>
            <path d="M1.5,15 L91,15" id="Line" stroke="#4A4A4A" stroke-width="2" stroke-linecap="square"></path>
            <circle id="Oval" stroke="#4A4A4A" cx="9" cy="8" r="3"></circle>
            <circle id="Oval-Copy" stroke="#4A4A4A" cx="19" cy="8" r="3"></circle>
            <circle id="Oval-Copy-2" stroke="#4A4A4A" cx="29" cy="8" r="3"></circle>
            <path d="M49.7270017,26.0684299 L74.9516927,71.7881824 L74.9516927,71.7881824 C76.0188777,73.7224552 75.3159642,76.1556175 73.3816914,77.2228025 C72.7899726,77.549268 72.1251858,77.7204917 71.449382,77.7204917 L21,77.7204917 L21,77.7204917 C18.790861,77.7204917 17,75.9296307 17,73.7204917 C17,73.0446879 17.1712238,72.3799011 17.4976893,71.7881824 L42.7223803,26.0684299 L42.7223803,26.0684299 C43.7895653,24.1341571 46.2227276,23.4312436 48.1570004,24.4984286 C48.8180045,24.8631205 49.3623098,25.4074258 49.7270017,26.0684299 Z" id="Triangle" stroke="#FC7B00" fill="#FC7B00"></path>
            <path d="M43.4140625,57.1171875 L42.6640625,45.890625 C42.5234368,43.7031141 42.453125,42.1328173 42.453125,41.1796875 C42.453125,39.882806 42.7929654,38.8710974 43.4726562,38.1445312 C44.1523471,37.4179651 45.0468695,37.0546875 46.15625,37.0546875 C47.5000067,37.0546875 48.3984352,37.5195266 48.8515625,38.4492188 C49.3046898,39.3789109 49.53125,40.7187412 49.53125,42.46875 C49.53125,43.5000052 49.476563,44.5468697 49.3671875,45.609375 L48.359375,57.1640625 C48.2499995,58.5390694 48.0156268,59.5937463 47.65625,60.328125 C47.2968732,61.0625037 46.7031291,61.4296875 45.875,61.4296875 C45.0312458,61.4296875 44.4453141,61.0742223 44.1171875,60.3632812 C43.7890609,59.6523402 43.5546882,58.5703198 43.4140625,57.1171875 Z M46.015625,72.5390625 C45.0624952,72.5390625 44.2304723,72.2304718 43.5195312,71.6132812 C42.8085902,70.9960907 42.453125,70.132818 42.453125,69.0234375 C42.453125,68.0546827 42.7929654,67.2304721 43.4726562,66.5507812 C44.1523471,65.8710904 44.9843701,65.53125 45.96875,65.53125 C46.9531299,65.53125 47.7929653,65.8710904 48.4882812,66.5507812 C49.1835972,67.2304721 49.53125,68.0546827 49.53125,69.0234375 C49.53125,70.117193 49.179691,70.9765594 48.4765625,71.6015625 C47.773434,72.2265656 46.9531297,72.5390625 46.015625,72.5390625 Z" id="!" fill="#FFFFFF"></path>
        </g>
    </g>
</svg>