<?xml version="1.0" encoding="UTF-8" standalone="no"?>
<svg width="237px" height="163px" viewBox="0 0 237 163" version="1.1" xmlns="http://www.w3.org/2000/svg" xmlns:xlink="http://www.w3.org/1999/xlink">
    <!-- Generator: Sketch 48.2 (47327) - http://www.bohemiancoding.com/sketch -->
    <title>Cloud</title>
    <desc>Created with Sketch.</desc>
    <defs></defs>
    <g id="Section-Box-/-New-Records-" stroke="none" stroke-width="1" fill="none" fill-rule="evenodd" transform="translate(-12.000000, -41.000000)">
        <g id="Cloud" transform="translate(12.000000, 41.000000)">
            <path d="M199.241884,56.9354344 C196.63439,35.1722093 177.017842,18.686532 153.611329,18.5876777 C148.67424,18.5867365 143.770113,19.3400457 139.092516,20.817872 C122.021168,1.96984608 94.1895911,-4.90352385 69.3998413,3.60635945 C44.6100915,12.1162427 28.1341984,34.1995846 28.1427805,58.9049566 C28.1427805,59.6000821 28.1427805,60.3241712 28.1427805,61.0192967 C5.72810794,73.8406529 -4.88057931,99.0148855 2.15055407,122.698404 C9.18168745,146.381922 32.1474385,162.830956 58.4186848,163 L177.726798,163 C205.856403,162.884273 229.960857,144.149964 235.240934,118.299233 C240.521011,92.448501 225.498505,66.7184958 199.396669,56.9064708 L199.241884,56.9354344 Z M177.572014,151.443539 L58.4805988,151.443539 C37.1765172,151.251121 18.7455374,137.519454 13.7748937,118.136364 C8.80425002,98.7532746 18.5693329,78.6921643 37.4608247,69.4766569 C39.7536775,68.3834684 41.0847246,66.0772874 40.8041761,63.6839444 C40.6184344,62.0909485 40.5565204,60.468989 40.5565204,58.875993 C40.5280559,38.3480065 54.655812,20.146438 75.5285546,13.8195898 C96.4012972,7.49274166 119.253114,14.485235 132.096243,31.1289002 C133.831183,33.3561715 137.003138,34.1314087 139.680698,32.9825682 C144.045761,31.0860126 148.798565,30.097844 153.611329,30.086212 C171.996562,30.1640373 186.918223,44.0217284 187.137714,61.2220416 C187.166018,63.7405272 188.930431,65.9532998 191.502644,66.6961549 C213.143488,73.2496595 226.524767,93.5051745 223.113394,114.545994 C219.702021,135.586813 200.502336,151.218327 177.757755,151.472502 L177.572014,151.443539 Z" id="Shape" fill="#6FD071" fill-rule="nonzero"></path>
            <g id="Green-Arrow" transform="translate(90.000000, 86.000000)" stroke="#6FD070" stroke-linecap="round" stroke-width="9">
                <path d="M28.5,0 L28.5,50.6" id="Line"></path>
                <g id="Group-3" transform="translate(0.000000, 29.000000)">
                    <path d="M27.4776875,0.445841631 L55.5,26.6" id="Line-Copy-2" transform="translate(42.000000, 14.000000) scale(-1, 1) translate(-42.000000, -14.000000) "></path>
                    <path d="M0.477687462,0.445841631 L28.5,26.6" id="Line-Copy-2"></path>
                </g>
            </g>
        </g>
    </g>
</svg>