
<svg width="250px" height="42px" viewBox="0 0 250 42" version="1.1" xmlns="http://www.w3.org/2000/svg" xmlns:xlink="http://www.w3.org/1999/xlink">
    <!-- Generator: Sketch 47 (45396) - http://www.bohemiancoding.com/sketch -->
    <desc>Created with Sketch.</desc>
    <defs></defs>
    <g id="Page-1" stroke="none" stroke-width="1" fill="none" fill-rule="evenodd">
        <g id="Group">
            <path d="M74.8518563,2.88701623 C78.6642506,2.88701623 81.6721846,3.87629056 83.8757485,5.85486891 C86.0793124,7.83344726 87.1810778,10.4240373 87.1810778,13.6267166 C87.1810778,16.8447935 86.0793124,19.4315341 83.8757485,21.3870162 C81.6721846,23.3424983 78.6642506,24.3202247 74.8518563,24.3202247 L69.2247904,24.3202247 L69.2247904,31.7802747 L72.7931737,32.4731586 L72.7931737,36.5149813 L59,36.5149813 L59,32.4731586 L62.545509,31.7802747 L62.545509,7.64481898 L59,6.95193508 L59,2.88701623 L74.8518563,2.88701623 Z M69.2247904,19.1235955 L74.8518563,19.1235955 C76.7123047,19.1235955 78.1190571,18.6116364 79.0721557,17.5877029 C80.0252543,16.5637693 80.5017964,15.258851 80.5017964,13.6729089 C80.5017964,12.0561717 80.0252543,10.7204589 79.0721557,9.66573034 C78.1190571,8.6110018 76.7123047,8.08364544 74.8518563,8.08364544 L69.2247904,8.08364544 L69.2247904,19.1235955 Z M89.468503,23.7890137 C89.468503,20.0628195 90.5016464,17.0103115 92.5679641,14.6313983 C94.6342818,12.252485 97.4897223,11.0630462 101.134371,11.0630462 C104.79427,11.0630462 107.657335,12.2486357 109.723653,14.6198502 C111.78997,16.9910647 112.823114,20.047422 112.823114,23.7890137 L112.823114,24.2740325 C112.823114,28.0310217 111.78997,31.0912283 109.723653,33.4547441 C107.657335,35.8182598 104.809519,37 101.18012,37 C97.5049716,37 94.6342818,35.8182598 92.5679641,33.4547441 C90.5016464,31.0912283 89.468503,28.0310217 89.468503,24.2740325 L89.468503,23.7890137 Z M96.1477844,24.2740325 C96.1477844,26.552862 96.5442675,28.3812873 97.3372455,29.7593633 C98.1302235,31.1374393 99.4111688,31.8264669 101.18012,31.8264669 C102.903322,31.8264669 104.165206,31.13359 104.965808,29.7478152 C105.766411,28.3620405 106.166707,26.5374645 106.166707,24.2740325 L106.166707,23.7890137 C106.166707,21.5717742 105.762599,19.7625954 104.954371,18.3614232 C104.146144,16.960251 102.872823,16.2596754 101.134371,16.2596754 C99.3959195,16.2596754 98.1302235,16.960251 97.3372455,18.3614232 C96.5442675,19.7625954 96.1477844,21.5717742 96.1477844,23.7890137 L96.1477844,24.2740325 Z M116.231377,32.4731586 L119.433772,31.7802747 L119.433772,16.2827715 L115.888263,15.5898876 L115.888263,11.5249688 L125.655569,11.5249688 L125.952934,15.1741573 C126.532418,13.8807676 127.279636,12.8722466 128.194611,12.1485643 C129.109585,11.4248819 130.169415,11.0630462 131.374132,11.0630462 C131.724872,11.0630462 132.094669,11.0899914 132.483533,11.1438826 C132.872397,11.1977739 133.196446,11.2632123 133.455689,11.3401998 L132.746587,17.4837703 L130.001677,17.4144819 C129.025704,17.4144819 128.217488,17.6069477 127.577006,17.9918851 C126.936524,18.3768226 126.448545,18.9234255 126.113054,19.6317104 L126.113054,31.7802747 L129.315449,32.4731586 L129.315449,36.5149813 L116.231377,36.5149813 L116.231377,32.4731586 Z M145.304551,5.40449438 L145.304551,11.5249688 L149.650659,11.5249688 L149.650659,16.2596754 L145.304551,16.2596754 L145.304551,28.9856429 C145.304551,29.9556852 145.502792,30.6485622 145.899281,31.0642946 C146.29577,31.480027 146.829498,31.6878901 147.500479,31.6878901 C147.957966,31.6878901 148.358262,31.6686436 148.701377,31.6301498 C149.044493,31.5916561 149.429539,31.5262177 149.856527,31.4338327 L150.428383,36.3071161 C149.681154,36.5380786 148.941561,36.7112978 148.209581,36.826779 C147.477601,36.9422603 146.684635,37 145.830659,37 C143.527973,37 141.755236,36.3610135 140.512395,35.0830212 C139.269555,33.805029 138.648144,31.7802885 138.648144,29.0087391 L138.648144,16.2596754 L135.011138,16.2596754 L135.011138,11.5249688 L138.648144,11.5249688 L138.648144,5.40449438 L145.304551,5.40449438 Z M153.287665,32.4731586 L156.512934,31.7802747 L156.512934,16.2596754 L152.83018,16.2596754 L152.83018,11.5249688 L156.512934,11.5249688 L156.512934,8.75343321 C156.512934,5.95108878 157.313525,3.79162223 158.914731,2.27496879 C160.515936,0.758315346 162.765215,0 165.662635,0 C166.226869,0 166.802532,0.0423424813 167.389641,0.127028714 C167.976749,0.211714947 168.621034,0.331043758 169.322515,0.485018727 L168.750659,5.4968789 C168.384669,5.43528891 168.030121,5.38139848 167.687006,5.33520599 C167.343891,5.2890135 166.943595,5.2659176 166.486108,5.2659176 C165.403388,5.2659176 164.583735,5.56616429 164.027126,6.16666667 C163.470516,6.76716904 163.192216,7.62941594 163.192216,8.75343321 L163.192216,11.5249688 L168.11018,11.5249688 L168.11018,16.2596754 L163.192216,16.2596754 L163.192216,31.7802747 L166.417485,32.4731586 L166.417485,36.5149813 L153.287665,36.5149813 L153.287665,32.4731586 Z M170.351856,23.7890137 C170.351856,20.0628195 171.385,17.0103115 173.451317,14.6313983 C175.517635,12.252485 178.373076,11.0630462 182.017725,11.0630462 C185.677623,11.0630462 188.540688,12.2486357 190.607006,14.6198502 C192.673324,16.9910647 193.706467,20.047422 193.706467,23.7890137 L193.706467,24.2740325 C193.706467,28.0310217 192.673324,31.0912283 190.607006,33.4547441 C188.540688,35.8182598 185.692872,37 182.063473,37 C178.388325,37 175.517635,35.8182598 173.451317,33.4547441 C171.385,31.0912283 170.351856,28.0310217 170.351856,24.2740325 L170.351856,23.7890137 Z M177.031138,24.2740325 C177.031138,26.552862 177.427621,28.3812873 178.220599,29.7593633 C179.013577,31.1374393 180.294522,31.8264669 182.063473,31.8264669 C183.786675,31.8264669 185.048559,31.13359 185.849162,29.7478152 C186.649764,28.3620405 187.05006,26.5374645 187.05006,24.2740325 L187.05006,23.7890137 C187.05006,21.5717742 186.645952,19.7625954 185.837725,18.3614232 C185.029497,16.960251 183.756176,16.2596754 182.017725,16.2596754 C180.279273,16.2596754 179.013577,16.960251 178.220599,18.3614232 C177.427621,19.7625954 177.031138,21.5717742 177.031138,23.7890137 L177.031138,24.2740325 Z M195.902395,4.54993758 L195.902395,0.485018727 L206.15006,0.485018727 L206.15006,31.7802747 L209.375329,32.4731586 L209.375329,36.5149813 L196.245509,36.5149813 L196.245509,32.4731586 L199.470778,31.7802747 L199.470778,5.24282147 L195.902395,4.54993758 Z M211.342515,32.4731586 L214.567784,31.7802747 L214.567784,16.2827715 L210.999401,15.5898876 L210.999401,11.5249688 L221.247066,11.5249688 L221.247066,31.7802747 L224.449461,32.4731586 L224.449461,36.5149813 L211.342515,36.5149813 L211.342515,32.4731586 Z M221.247066,5.54307116 L214.567784,5.54307116 L214.567784,0.485018727 L221.247066,0.485018727 L221.247066,5.54307116 Z M226.645389,23.7890137 C226.645389,20.0628195 227.678533,17.0103115 229.74485,14.6313983 C231.811168,12.252485 234.666609,11.0630462 238.311257,11.0630462 C241.971156,11.0630462 244.834221,12.2486357 246.900539,14.6198502 C248.966857,16.9910647 250,20.047422 250,23.7890137 L250,24.2740325 C250,28.0310217 248.966857,31.0912283 246.900539,33.4547441 C244.834221,35.8182598 241.986405,37 238.357006,37 C234.681858,37 231.811168,35.8182598 229.74485,33.4547441 C227.678533,31.0912283 226.645389,28.0310217 226.645389,24.2740325 L226.645389,23.7890137 Z M233.324671,24.2740325 C233.324671,26.552862 233.721154,28.3812873 234.514132,29.7593633 C235.30711,31.1374393 236.588055,31.8264669 238.357006,31.8264669 C240.080208,31.8264669 241.342092,31.13359 242.142695,29.7478152 C242.943297,28.3620405 243.343593,26.5374645 243.343593,24.2740325 L243.343593,23.7890137 C243.343593,21.5717742 242.939485,19.7625954 242.131257,18.3614232 C241.32303,16.960251 240.049709,16.2596754 238.311257,16.2596754 C236.572806,16.2596754 235.30711,16.960251 234.514132,18.3614232 C233.721154,19.7625954 233.324671,21.5717742 233.324671,23.7890137 L233.324671,24.2740325 Z" id="Portfolio" fill="#60CB62"></path>
            <path d="M41.4242128,8 C35.7181215,8 30.4431762,10.6387154 27.1386745,15.1020598 C25.5274003,14.5002838 23.8313222,14.1962939 22.0853595,14.1962939 C15.9374328,14.1962939 10.5363506,18.0392507 8.67422788,23.6365258 C3.86962351,23.7668072 0,27.8344822 0,32.8168843 C0,37.8806261 3.99789832,42 8.91296155,42 L42.399814,42 C43.0796705,42 43.7794809,41.9124564 44.4785786,41.7408158 C52.8955442,40.3125456 59,33.2794177 59,25.0006893 C59.0007126,15.6259427 51.1160875,8 41.4242128,8 Z" id="Shape" fill="#487AA3" fill-rule="nonzero"></path>
            <path d="M40.9157007,38 C37.2992443,38 34.4092135,36.8424046 32.2455216,34.5271791 C30.0818297,32.2119536 29,29.2716613 29,25.706214 L29,24.7801284 C29,21.0603327 30.0238746,17.9965636 32.0716544,15.5887291 C34.1194342,13.1808945 36.8665089,11.9847126 40.312961,12.0001475 C43.6975933,12.0001475 46.3248941,13.0188314 48.194942,15.0562299 C50.06499,17.0936283 51,19.8487054 51,23.3215436 L51,27.0027338 L36.024236,27.0027338 L35.9778714,27.1416466 C36.101511,28.7931742 36.6540169,30.1514194 37.6354057,31.2164232 C38.6167945,32.2814269 39.9497633,32.8139208 41.6343519,32.8139208 C43.1334813,32.8139208 44.3775855,32.6634334 45.3667018,32.3624541 C46.3558181,32.0614747 47.4376478,31.5868606 48.6122234,30.9385975 L50.4436249,35.1059826 C49.4081438,35.9240289 48.0674476,36.6108689 46.4214963,37.166523 C44.775545,37.7221771 42.9402981,38 40.9157007,38 Z M40.312961,17.2093788 C39.0611107,17.2093788 38.0720093,17.6878516 37.345627,18.6448115 C36.6192447,19.6017714 36.1710581,20.8596917 36.0010537,22.4186102 L36.0706006,22.5343709 L44.369863,22.5343709 L44.369863,21.9324153 C44.369863,20.4969754 44.0337231,19.350956 43.3614331,18.4943226 C42.6891431,17.6376891 41.6729959,17.2093788 40.312961,17.2093788 Z" id="e" stroke="#FFFFFF" fill="#F47F02"></path>
        </g>
    </g>
</svg>