<?xml version="1.0" encoding="UTF-8"?>
<svg width="383px" height="550px" viewBox="0 0 383 550" version="1.1" xmlns="http://www.w3.org/2000/svg" xmlns:xlink="http://www.w3.org/1999/xlink">
    <!-- Generator: Sketch 50 (54983) - http://www.bohemiancoding.com/sketch -->
    <title>Group</title>
    <desc>Created with Sketch.</desc>
    <defs></defs>
    <g id="Featuring-Challenge-Tracks-Copy-2" stroke="none" stroke-width="1" fill="none" fill-rule="evenodd">
        <g id="CE-Channel-Copy-15" transform="translate(-712.000000, -265.000000)" fill="#FFFFFF" fill-rule="nonzero">
            <g id="Road" transform="translate(358.000000, 265.000000)">
                <g id="Group" transform="translate(543.053954, 319.589881) rotate(-23.000000) translate(-543.053954, -319.589881) translate(287.553954, 46.089881)">
                    <path d="M473.714701,96.5864278 C470.067665,116.393792 459.821229,134.159161 446.448761,147.023738 C439.675694,153.558126 432.207952,158.458917 424.74021,163.155509 C417.272469,167.852101 409.457391,172.140293 401.642312,176.224286 C370.20833,192.151857 337.037664,202.361839 304.561672,213.797019 C271.912011,225.027999 239.088682,236.054779 206.786358,248.102558 C190.635196,254.228547 174.484034,260.354536 158.506541,267.093124 C142.355379,273.627512 126.377885,280.1619 110.747729,287.513087 C95.1175719,295.068474 79.834752,303.236459 65.9412794,313.85484 C52.0478067,324.473221 39.3700129,337.337799 29.8182505,352.856971 C20.266488,368.376143 13.4934201,385.937312 11.7567361,404.927878 C9.67271515,423.714245 11.7567361,443.11321 16.6194515,461.491177 C21.3084985,479.869144 28.4289032,497.634513 37.1123236,514.378883 C42.3223759,524.793064 48.5744386,534.798846 54.8265012,544.396229 L38.6753393,544.396229 C34.3336291,537.249242 29.9919189,529.693856 26.3448823,521.934269 C17.6614619,504.168901 10.3673888,485.382535 5.50467336,465.37097 C0.468289527,445.563606 -1.44206296,424.122644 1.16296316,403.294281 C3.42065246,382.261718 11.4093992,362.454354 22.0031721,345.914183 C32.596945,329.169813 46.4904177,315.896837 61.2522323,304.870056 C76.014047,294.047476 91.9915406,285.675291 107.969034,278.528303 C123.946528,271.381316 140.271358,265.255327 156.42252,258.925138 C172.573682,252.59495 188.898512,246.67316 205.223343,240.95557 C237.873003,229.520391 270.870001,219.106209 303.69333,208.487828 C336.516659,197.665248 369.513657,188.067865 400.947639,172.957092 C408.762717,169.077299 416.404127,164.993306 424.045537,160.500914 C431.513278,156.008522 438.98102,151.31193 445.580419,145.185941 C458.60555,132.933963 468.851986,115.985393 472.672691,96.5864278 C474.583044,86.9890449 474.756712,76.9832627 473.020028,67.1816802 C471.283344,57.3800977 467.636307,48.1911141 462.94726,40.0231286 C453.395498,23.6871578 440.196699,10.2099818 425.782221,2.04636308e-12 C440.370367,10.0057822 453.742835,23.0745589 463.641934,39.4105297 C468.678318,47.5785152 472.499023,56.7674988 474.409375,66.7732809 C475.625054,76.3706638 475.451386,86.7848453 473.714701,96.5864278 Z" id="Shape"></path>
                    <path d="M505.855512,157.471207 C501.686619,172.419709 495.43328,186.549115 487.442903,199.040329 C483.447714,205.388323 478.931414,211.121995 474.067705,216.650894 C469.203997,222.179792 463.819178,226.68482 458.608062,231.599396 C437.416191,250.23383 415.355801,267.025298 396.943192,288.321794 C387.736888,298.970042 379.920214,311.051708 374.36169,324.362018 C368.803167,337.672328 366.023905,352.416056 365.850201,367.159785 C365.502794,382.108287 368.108351,396.852015 371.582429,411.390969 C375.23021,425.929923 380.093918,440.059329 385.826145,453.369639 C388.779111,460.127181 391.90578,466.679949 395.553561,472.823169 C399.027638,479.171163 402.849123,485.519157 406.670608,491.662377 C414.139874,504.153592 422.130252,516.235258 430.468037,527.907376 C434.984337,534.25537 439.674341,540.39859 444.711753,546.337036 L428.383591,546.337036 C425.951737,543.265426 423.693586,539.989042 421.435436,536.712658 C412.923947,524.630992 405.107273,511.935004 397.638007,499.034242 C393.990226,492.481473 390.342445,486.133479 386.694664,479.375937 C383.046883,472.618395 379.920214,465.656079 376.793544,458.488989 C370.887613,444.154809 366.197609,429.411081 362.549828,414.053031 C359.075751,398.694981 356.643897,382.927383 357.338712,366.750237 C357.859824,350.57309 361.160197,334.600718 367.413536,320.266538 C373.666875,305.932358 382.352068,293.23637 391.90578,282.383348 C411.360612,260.677304 434.115818,244.500158 455.307689,226.480046 C460.518804,221.975018 465.903624,217.46999 470.593628,212.350639 C475.457336,207.231289 479.799933,201.702391 483.795122,195.763945 C491.959203,183.887053 498.212542,170.371969 502.381435,156.037789 C506.550327,141.703609 508.808477,126.140785 507.59255,110.987509 C506.376623,95.8342327 502.207731,80.8857306 496.128096,67.3706465 C483.621418,40.3404783 464.340289,18.2248861 443.148419,-5.68434189e-13 C464.513993,17.8153381 484.316233,39.3166083 497.517726,66.3467765 C503.944769,79.8618606 508.634773,95.0151367 510.024404,110.577961 C511.761443,126.550333 509.8507,142.522705 505.855512,157.471207 Z" id="Shape"></path>
                    <g transform="translate(179.022433, 0.000000)" id="Shape">
                        <path d="M299.569885,55.6658199 L304.429652,56.2795637 C301.305516,50.1421252 297.834255,44.4138492 294.015867,39.0947358 L290.023916,38.8901545 C293.495177,44.2092679 296.792876,49.7329626 299.569885,55.6658199 Z"></path>
                        <path d="M255.484862,190.689468 C251.492911,193.758187 247.50096,196.622325 243.335446,199.691044 C239.343495,202.555182 235.177981,205.41932 231.012467,208.078877 L241.079126,220.353754 C244.203261,217.898778 247.327397,215.443803 250.451532,212.988828 C254.964172,209.306364 259.476813,205.623901 263.81589,201.736857 L255.484862,190.689468 Z"></path>
                        <path d="M307.033098,61.8032584 L301.999769,61.1895145 C303.21471,64.2582338 304.429652,67.5315344 305.47103,70.8048349 C306.512409,74.0781355 307.380224,77.5560173 308.074477,80.8293179 L313.802058,81.4430617 C312.76068,77.1468547 311.545738,72.8506478 309.983671,68.5544408 C308.942292,66.5086279 308.074477,64.0536525 307.033098,61.8032584 Z"></path>
                        <path d="M308.768729,114.994392 C308.768729,114.994392 308.768729,114.994392 308.768729,114.994392 C307.72735,121.540993 305.99172,127.678432 303.735399,133.611289 L310.50436,139.953309 C312.934243,132.997545 314.669874,125.632619 315.537689,118.267693 L308.768729,114.994392 Z"></path>
                        <path d="M281.519325,168.390108 C277.8745,172.277152 273.882549,175.755034 269.890598,179.232916 C267.634278,181.074147 265.377958,182.915379 262.948074,184.75661 L271.105539,194.985675 C273.014733,193.144443 274.923927,191.507793 276.833121,189.666561 C280.825072,185.779517 284.817023,181.687891 288.635411,177.391684 C286.205528,174.322965 283.775645,171.254246 281.519325,168.390108 Z"></path>
                        <path d="M309.462981,109.675279 L316.058379,112.743998 C316.752631,104.151584 316.231942,95.3545891 314.843437,86.9667564 L308.942292,86.3530125 C309.983671,94.1271013 310.330797,101.90119 309.462981,109.675279 Z"></path>
                        <path d="M299.569885,143.022028 C297.487128,147.113654 295.057245,151.000698 292.627362,154.273999 L292.453799,154.47858 L292.106673,155.092324 C290.891731,157.138137 289.329663,159.18395 287.941159,161.025181 C290.197479,163.889319 292.453799,166.753457 294.710119,169.617595 C296.619313,166.958039 298.528507,164.093901 300.090575,161.025181 C302.520458,157.342718 304.603215,153.455674 306.338846,149.568629 L299.569885,143.022028 Z"></path>
                        <path d="M72.8964959,337.169667 C76.5413207,333.487204 80.1861455,330.009322 84.1780964,326.736022 C88.3436105,323.667303 92.5091245,320.189421 96.8482017,317.120701 C101.360842,314.256563 105.526356,311.392425 110.386122,308.528287 C117.502209,304.23208 124.444732,299.935874 131.387256,295.639667 L107.43555,280.705233 C105.17923,281.93272 102.92291,283.160208 100.66659,284.387696 C95.8068231,286.842671 90.5999306,289.911391 85.5666011,292.775529 C80.5332716,295.844248 75.4999421,299.32213 70.6401758,302.59543 C60.5735168,309.960356 51.0275471,318.55277 42.3493928,328.577253 L72.8964959,337.169667 Z"></path>
                        <path d="M285.164149,31.7298096 C285.511275,32.1389722 285.858402,32.752716 286.205528,33.1618786 L289.850353,33.3664599 C288.808974,32.1389722 287.941159,30.9114844 286.89978,29.6839967 C277.527374,18.4320261 266.940025,8.81670572 256.005551,0.0197104892 C266.592899,9.63503086 276.485995,20.0686764 285.164149,31.7298096 Z"></path>
                        <path d="M33.8448017,422.889225 C34.3654909,417.774693 34.8861802,412.864743 35.9275587,407.954792 C38.1838788,397.111984 41.1344512,386.678338 45.6470915,376.858436 C49.9861686,367.243116 55.3666242,358.446121 61.7884584,350.262869 L32.1091708,341.670456 C27.9436567,347.398732 24.298832,353.53617 20.8275702,360.082771 C14.5792992,372.153067 9.89309587,385.45085 6.42183416,398.953215 C4.51264022,406.522723 3.29769862,414.09223 2.4298832,421.866319 L33.8448017,422.889225 Z"></path>
                        <path d="M44.0850237,509.222528 C37.4896264,487.127749 33.3241124,464.010064 33.1505493,441.506122 C33.1505493,440.687797 33.1505493,439.664891 33.1505493,438.846566 L0.867815427,437.823659 C0.867815427,438.846566 0.694252342,439.869472 0.694252342,440.892379 C-0.347126171,468.920014 3.29769862,496.129325 9.37240661,522.31573 C11.2816006,530.498981 13.5379207,538.477651 15.9678039,546.456321 L57.2758182,546.456321 C56.5815658,545.024252 56.0608766,543.592183 55.3666242,542.160114 C51.2011102,531.112725 47.3827223,520.269917 44.0850237,509.222528 Z"></path>
                        <path d="M145.792992,286.63809 C158.810223,278.250257 171.827455,269.657843 184.844686,261.065429 L169.397571,246.540158 C156.38034,254.109666 143.189545,261.474592 129.998751,268.634937 C127.742431,269.862425 125.486111,271.089912 123.229791,272.3174 L145.792992,286.63809 Z"></path>
                        <path d="M197.167665,252.473016 C208.102139,244.903508 218.863051,237.129419 229.623962,229.150749 L219.036614,216.262128 C208.622829,223.013311 198.03548,229.559912 187.448132,235.901931 C185.886064,236.924838 184.150434,237.743163 182.414803,238.766069 L197.167665,252.473016 Z"></path>
                    </g>
                </g>
            </g>
        </g>
    </g>
</svg>