<?xml version="1.0" encoding="UTF-8"?>
<svg width="110px" height="110px" viewBox="0 0 110 110" version="1.1" xmlns="http://www.w3.org/2000/svg" xmlns:xlink="http://www.w3.org/1999/xlink">
    <!-- Generator: Sketch 51.3 (57544) - http://www.bohemiancoding.com/sketch -->
    <title>Group 15</title>
    <desc>Created with Sketch.</desc>
    <defs>
        <circle id="path-1" cx="50" cy="50" r="50"></circle>
        <filter x="-8.0%" y="-6.0%" width="116.0%" height="116.0%" filterUnits="objectBoundingBox" id="filter-3">
            <feMorphology radius="1" operator="dilate" in="SourceAlpha" result="shadowSpreadOuter1"></feMorphology>
            <feOffset dx="0" dy="2" in="shadowSpreadOuter1" result="shadowOffsetOuter1"></feOffset>
            <feGaussianBlur stdDeviation="2" in="shadowOffsetOuter1" result="shadowBlurOuter1"></feGaussianBlur>
            <feComposite in="shadowBlurOuter1" in2="SourceAlpha" operator="out" result="shadowBlurOuter1"></feComposite>
            <feColorMatrix values="0 0 0 0 0   0 0 0 0 0   0 0 0 0 0  0 0 0 0.5 0" type="matrix" in="shadowBlurOuter1"></feColorMatrix>
        </filter>
        <circle id="path-4" cx="50" cy="50" r="50"></circle>
    </defs>
    <g id="Page-1" stroke="none" stroke-width="1" fill="none" fill-rule="evenodd">
        <g id="Reviewing-Work-History-" transform="translate(-886.000000, -266.000000)">
            <g id="Group-15" transform="translate(891.000000, 269.000000)">
                <g id="Group-13">
                    <mask id="mask-2" fill="white">
                        <use xlink:href="#path-1"></use>
                    </mask>
                    <g id="Oval" fill-rule="nonzero">
                        <use fill="black" fill-opacity="1" filter="url(#filter-3)" xlink:href="#path-1"></use>
                        <use stroke="#FFFFFF" stroke-width="2" fill="#F27F23" xlink:href="#path-1"></use>
                    </g>
                    <path d="M44.2300854,26.0993651 C44.0221184,22.8787388 46.3041223,22.1235993 51.0760973,23.8339464 C52.3390507,24.2866078 52.4057826,25.9626106 53.6124788,27.0846031 C54.2229068,27.6521822 55.9407794,27.752638 56.5921726,28.1435768 C57.3185255,28.5795033 58.1054712,29.8773724 58.9562048,29.9905612 C60.3421175,30.1749547 61.8401245,29.0486215 63.0958698,29.5648393 C64.8445981,30.283715 64.920231,33.9133144 66.6639631,34.7435037 C68.1319651,35.4424181 68.9358689,37.217566 69.8160061,37.2061496 C70.7874649,37.1935487 71.6815216,37.9249427 72.5519989,36.952777 C74.0178378,35.3157002 75.4089617,31.5903636 76.9329809,31.3453758 C78.7023149,31.0609534 81.6480268,31.7858292 83.9171044,30.45688 C84.8629019,29.9029471 85.7526462,29.3290733 86.5863372,28.7352586 C87.9325597,28.0950186 89.15559,30.3195728 90.2554281,35.4089212 C90.4508468,36.3131941 94.0307998,36.5028906 94.1954818,38.4872286 C94.3440522,40.277428 92.7512571,39.2955488 92.693196,43.6586053 C92.6887248,43.9945936 94.8545387,43.6528116 94.884879,44.1019175 C94.9522107,45.098583 96.2161054,55.3921793 98.6765631,74.9827065 C85.387902,87.4380105 75.315812,94.3740439 68.4602932,95.7908067 C61.6047743,97.2075694 49.4479077,94.9006875 31.9896932,88.8701608 C26.7037164,72.8961331 23.4533592,61.8965543 22.2386216,55.8714244 C21.7365918,53.3813435 28.6204419,53.8858876 28.7042231,52.4686397 C28.8729461,49.6145107 25.3637197,48.4655234 25.4155426,46.9323432 C25.4676991,45.3892977 23.0889438,45.1296647 22.2634996,44.4696973 C21.240269,43.6515936 21.7341857,42.5582396 21.9188011,41.6623528 C22.7724436,37.5198641 21.4046015,38.7038535 24.2858727,38.6326393 C29.0113198,38.5158439 28.72874,36.8307145 29.3067388,32.2062238 C29.8847376,27.5817331 31.1290502,25.8799423 34.847692,25.114127 C35.7471459,24.9288939 36.9323667,25.6820925 39.231058,26.0007514 C40.1000199,26.1212123 41.7663624,26.1540835 44.2300854,26.0993651 Z" id="Rectangle-7" fill="#C57628" fill-rule="nonzero" mask="url(#mask-2)" transform="translate(60.156547, 59.569583) rotate(-38.000000) translate(-60.156547, -59.569583) "></path>
                    <g id="noun_time-settings_705458_FFFFFF" mask="url(#mask-2)" fill="#FFFFFF" fill-rule="nonzero">
                        <g transform="translate(15.000000, 18.000000)">
                            <path d="M60.8140531,12.8472342 C60.8093201,12.3303514 60.7646272,11.8146163 60.680377,11.3046718 C60.6457203,11.100984 60.6061125,10.8997803 60.5615538,10.7010605 L63.1385318,7.94382345 L58.4153099,2.15362568 L55.4001714,4.04643164 C54.7749094,3.72878558 54.1176636,3.47897259 53.4395887,3.30123244 L52.4518709,0 L45.3150528,1.18486672 L45.433876,4.62023502 C45.053603,4.87287387 44.6913077,5.15175492 44.3496144,5.45485813 L40.9260211,4.47119518 L38,11.2450559 L40.9705798,13.040986 C40.9784764,13.5404121 41.0231569,14.0385691 41.1042559,14.5313844 C41.1488146,14.81456 41.2082262,15.0902837 41.2750643,15.3585555 L38.7203656,18.0934365 L43.4064553,23.8091144 L46.5255641,21.8492405 C47.082862,22.1244098 47.6646789,22.3464603 48.2633533,22.5124678 L49.3253356,26 L56.5958298,24.8002293 L56.4695801,21.1636572 C56.7631907,20.9629725 57.0458058,20.7465507 57.3161954,20.5153339 L61.0294202,21.5809688 L64,14.7251361 L60.8140531,12.8472342 Z M59.6258212,18.6821439 L56.6552414,17.8251648 L56.1502428,18.3244483 C55.7058833,18.7710212 55.2067923,19.1591471 54.6649529,19.479507 L54.0337047,19.8446546 L54.1302485,22.7658355 L51.0408455,23.2800229 L50.1942302,20.46317 L49.4515853,20.3215821 C48.6193883,20.156635 47.820947,19.8517807 47.0899743,19.4198911 L46.4587261,19.0472915 L43.9263068,20.6345658 L41.9360183,18.2052164 L44.0005713,15.9696188 L43.7703513,15.2840355 C43.46386,14.355416 43.3378064,13.3764059 43.3990288,12.4001146 L43.4435875,11.6549154 L41.0374179,10.216681 L42.2924879,7.37002006 L45.0328478,8.15993121 L45.5378463,7.63829177 C46.0407666,7.1202552 46.6161607,6.67843932 47.2459297,6.32674119 L47.8920308,5.96904557 L47.795487,3.21180854 L50.7660668,2.71997707 L51.5606969,5.35798223 L52.3033419,5.49211809 C53.2022598,5.65917026 54.06308,5.99003372 54.8431877,6.46832903 L55.4818623,6.85583262 L57.9325907,5.32072227 L59.9822908,7.82459157 L57.9251642,10.0601892 L58.1256784,10.7308684 C58.2240794,11.0557941 58.3009868,11.3868862 58.3558983,11.7219834 C58.4500411,12.2981339 58.4774535,12.8832778 58.4375893,13.4657495 L58.3856041,14.2109487 L60.9551557,15.753511 L59.6258212,18.6821439 Z" id="Shape"></path>
                            <path d="M55.756939,10.9326037 C54.9368873,8.14786649 52.0798231,6.48543859 49.2451768,7.14363201 C46.4105305,7.80182543 44.5837766,10.551817 45.0816767,13.4113565 C45.146942,13.8138377 45.2586532,14.2074448 45.4145851,14.5843377 C46.1280401,16.3254481 47.685846,17.581008 49.5426491,17.9114731 C49.8574584,17.9694413 50.1768564,17.9990695 50.4969865,18 C50.7993461,17.9998753 51.1011938,17.975203 51.3995381,17.9262276 C53.897382,17.5119834 55.7882562,15.4497284 55.9788779,12.9318358 C56.0177986,12.4964094 56.0028908,12.0578629 55.9344901,11.6260643 C55.8906439,11.391273 55.8313318,11.1596177 55.756939,10.9326037 Z M53.5819375,12.7400276 C53.5028223,13.7803381 52.901577,14.710213 51.9839772,15.2114031 C51.6805284,15.3798337 51.3501462,15.4946444 51.007446,15.5507562 C50.6622996,15.6102352 50.3094794,15.6102352 49.964333,15.5507562 C48.9176544,15.3626113 48.0407844,14.6524983 47.6413723,13.6695599 C47.5544832,13.4585652 47.4924191,13.238236 47.4564232,13.0129855 C47.4258088,12.820303 47.4134244,12.6251774 47.4194334,12.4301835 C47.440614,11.6336847 47.7723504,10.8767979 48.3441789,10.3202927 C48.5438992,10.1224402 48.770522,9.9535701 49.0173936,9.81864036 C49.3280484,9.64862403 49.6659948,9.53379451 50.0161188,9.4792873 C50.1823486,9.45113716 50.3505758,9.43633517 50.5191803,9.43502386 C51.0348169,9.43122203 51.5432959,9.55545039 51.9987732,9.79650864 C52.7169634,10.1851269 53.2496532,10.8438119 53.478366,11.6260643 C53.5170852,11.7541664 53.5467498,11.884818 53.5671416,12.017058 C53.6017772,12.2565317 53.6067465,12.4993442 53.5819375,12.7400276 Z" id="Shape"></path>
                            <path d="M44.7121723,35.8432694 L49.3701479,32.4741468 L44.8732972,23.8010839 L39.8930716,25.6985499 C38.6765513,24.2970133 37.2767769,23.0728515 35.7331185,22.0604951 L36.5973341,16.8910209 L27.4058884,14 L25.2673209,18.7810166 C23.5982038,18.7377294 21.9302698,18.9058513 20.3017431,19.2815292 L17.4674088,15.2027245 L8.98637762,19.7895122 L10.7294566,24.5555881 C9.62063065,25.6288478 8.63755109,26.8296303 7.79991211,28.1338802 L2.83433426,27.2747913 L0,36.6500659 L4.51882232,38.7567013 C4.46179388,40.4704684 4.6168173,42.1847321 4.98022557,43.8589424 L0.783653142,46.8993701 L5.28782774,55.572433 L10.1508715,53.7272594 C11.2492265,54.8893284 12.4783975,55.9148995 13.8128021,56.7826278 L12.8826717,62.1089791 L22.0814413,65 L24.2785997,60.0695767 C25.8078116,60.1096578 27.3364398,59.9692796 28.8340413,59.6512377 L32.0492163,64.2753772 L40.5522191,59.6885894 L38.6406914,54.4593526 C39.6953371,53.4499603 40.6406531,52.3279561 41.4603779,51.112641 L47.1729896,52.106196 L50,42.7309213 L44.9831551,40.3927054 C45.060015,38.8706615 44.9691182,37.3446272 44.7121723,35.8432694 Z M47.1217226,44.0606416 L45.517797,49.3645818 L40.3178556,48.4606709 L39.8930716,49.147942 C38.9554976,50.6648301 37.8029217,52.0317802 36.4728285,53.2043357 L35.8503003,53.7571408 L37.6007031,58.5605683 L32.7889263,61.1453054 L29.8593819,56.9170939 L29.0684049,57.118793 C27.2937009,57.5742093 25.4603961,57.7455813 23.6340999,57.626776 L22.8138274,57.5744837 L20.7997656,62.0566867 L15.5778526,60.4281529 L16.3908012,55.5574923 L15.6584151,55.131683 C14.0415422,54.1614566 12.5855769,52.9360727 11.3446609,51.5010986 L10.8319906,50.9034715 L6.43767394,52.5842976 L3.85967482,47.646404 L7.6900542,44.8749085 L7.47766222,44.0606416 C6.97017429,42.1135643 6.78696967,40.093362 6.9356965,38.0843709 L7.00161125,37.2402226 L2.88560129,35.327816 L4.48952688,29.9865241 L9.00102534,30.7335579 L9.41848543,29.9865241 C10.3487167,28.3830384 11.5201712,26.9385906 12.8899956,25.7060202 L13.5051999,25.1532152 L11.9159221,20.9399443 L16.7276988,18.3402666 L19.2983741,22.0754358 L20.096675,21.858796 C22.0043076,21.3331485 23.9841799,21.1337259 25.9557639,21.2686392 L26.7760363,21.3284019 L28.7168595,16.9881353 L33.8875055,18.5793174 L33.1185001,23.2632196 L33.8508862,23.6890289 C35.6783928,24.7792554 37.2984202,26.1963453 38.6333675,27.8724183 L39.1753332,28.5522191 L43.774718,26.7966896 L46.3234217,31.7047019 L42.0975538,34.7600703 L42.2660026,35.5071041 C42.6506117,37.3043032 42.7617706,39.1511721 42.5955764,40.9828622 L42.5150139,41.8419511 L47.1217226,44.0606416 Z" id="Shape"></path>
                            <rect id="Rectangle-path" x="15" y="39" width="4" height="3"></rect>
                            <rect id="Rectangle-path" x="33" y="39" width="4" height="3"></rect>
                            <rect id="Rectangle-path" x="24" y="29" width="3" height="4"></rect>
                            <rect id="Rectangle-path" x="24" y="47" width="3" height="4"></rect>
                            <path d="M31.5962713,31.189161 L29.4953871,30 L24.1646735,38.9880146 C24.0010246,39.2620932 23.9571522,39.5888586 24.0429229,39.8948233 C24.1286936,40.200788 24.3369071,40.4602664 24.6207374,40.6149036 L30.803767,44 L32,41.935383 L26.8861037,39.119333 L31.5962713,31.189161 Z" id="Shape"></path>
                            <path d="M25.0002178,24 C18.9327044,24.0000007 13.4627758,27.6553758 11.141526,33.2613122 C8.8202763,38.8672486 10.1049414,45.3194981 14.3963725,49.6088268 C18.6878036,53.8981556 25.1406816,55.1796585 30.7454794,52.8556616 C36.3502773,50.5316647 40.002971,45.059945 39.9999982,38.9924319 C39.9878466,30.7145103 33.278144,24.0080948 25.0002178,24 Z M25.0002178,51.6110622 C19.8981032,51.6199811 15.2932774,48.5537978 13.3339132,43.8429011 C11.374549,39.1320044 12.4467215,33.704634 16.0502571,30.0926836 C19.6537927,26.4807333 25.0786474,25.3959051 29.7941009,27.3442766 C34.5095544,29.292648 37.5864694,33.8903101 37.5894504,38.9924319 C37.5813855,45.9455054 31.9532662,51.5834817 25.0002178,51.6037129 L25.0002178,51.6110622 Z" id="Shape"></path>
                        </g>
                    </g>
                </g>
                <mask id="mask-5" fill="white">
                    <use xlink:href="#path-4"></use>
                </mask>
                <use id="Oval-Copy" stroke="#FFFFFF" stroke-width="2" fill-rule="nonzero" xlink:href="#path-4"></use>
            </g>
        </g>
    </g>
</svg>