<?xml version="1.0" encoding="UTF-8"?>
<svg width="174px" height="109px" viewBox="0 0 174 109" version="1.1" xmlns="http://www.w3.org/2000/svg" xmlns:xlink="http://www.w3.org/1999/xlink">
    <!-- Generator: Sketch 51 (57462) - http://www.bohemiancoding.com/sketch -->
    <title>Virginia</title>
    <desc>Created with Sketch.</desc>
    <defs></defs>
    <g id="Page-1" stroke="none" stroke-width="1" fill="none" fill-rule="evenodd">
        <g id="A5" transform="translate(-953.000000, -323.000000)">
            <g id="Virginia" transform="translate(953.000000, 323.000000)">
                <path d="M166.771936,74.6168615 L166.472057,74.9555668 L166.671292,75.250194 L166.671292,75.2965919 L167.01225,75.2061159 L167.394287,75.1156398 L167.112894,74.3431134 L166.771936,74.6168615 L166.771936,74.6168615 Z M165.044553,54.3711008 L164.88229,54.3942997 L164.923369,54.5984509 L165.629933,54.3479018 L165.870246,53.8282443 L165.849707,53.053398 L165.648418,52.0558413 L165.504641,52.1022393 L165.424536,52.6682947 L165.445076,53.3271461 L165.385511,53.9627985 L165.044553,54.3711008 L165.044553,54.3711008 Z M167.032789,47.9681788 L167.153973,47.2884484 L167.153973,46.5878388 L166.993764,46.6319169 L166.87258,46.9938212 L166.552162,48.6966272 L166.552162,48.8567003 L166.591187,49.0840504 L166.732911,49.0376524 L167.032789,47.9681788 L167.032789,47.9681788 Z M169.604351,28.6805365 L169.023079,28.9055668 L168.12139,29.2929899 L167.094408,29.6989723 L166.412492,29.9935995 L165.52518,30.3555038 L165.024013,30.5619748 L164.923369,30.7452469 L164.843265,31.2231461 L164.76316,31.6987254 L164.982934,31.7660025 L164.781646,32.1511058 L164.461228,32.3784559 L163.820391,32.6939622 L163.378789,33.1718615 L162.953619,33.7634358 L162.992644,33.9443879 L163.499973,33.7193577 L164.140809,33.7193577 L164.582411,33.9675869 L164.742621,34.3758892 L164.641976,34.6473174 L164.701541,34.8978665 L164.843265,35.1460957 L165.083578,35.3734458 L164.863804,35.4871209 L164.360583,35.5103199 L164.220914,35.577597 L164.140809,35.9186222 L164.220914,36.2596474 L164.381123,36.5542746 L164.621437,36.7584257 L163.417815,37.257204 L163.152853,37.189927 L162.873514,37.0321738 L162.633201,37.0530529 L162.472992,37.4845542 L162.992644,37.8696574 L163.074803,38.2570806 L162.873514,38.7117809 L162.512017,39.2105592 L162.553096,39.4379093 L162.992644,39.3242343 L163.074803,39.4819874 L162.512017,40.595539 L162.532556,40.8460882 L162.752331,41.2775894 L162.271703,41.4121436 L161.889666,41.5930957 L161.628813,41.9341209 L161.489143,42.4537783 L161.910206,42.8180025 L161.690432,43.0453526 L161.269369,43.2959018 L160.942789,43.657806 L161.24883,43.8178791 L161.269369,44.0684282 L161.107106,44.3839345 L160.862685,44.7249597 L161.809562,44.9291108 L161.388499,45.3582922 L161.043433,45.9081083 L160.862685,46.6319169 L160.963329,47.4925995 L161.36796,47.1538942 L161.589788,47.2675693 L161.628813,47.6062746 L161.107106,48.0841738 L160.942789,48.5597531 L160.883224,49.1281285 L160.924304,49.6501058 L161.088621,49.6037078 L161.088621,49.4018766 L161.168725,49.3554786 L161.287855,49.3554786 L161.328934,49.3090806 L161.36796,49.6037078 L161.287855,50.0120101 L161.127646,50.4203123 L160.823659,50.7172594 L161.004408,51.0791637 L160.983868,51.670738 L160.78258,52.8492469 L160.963329,52.7123728 L161.063973,52.6682947 L161.36796,52.7123728 L161.088621,53.1693929 L160.883224,53.9187204 L160.983868,54.6216499 L161.530223,55.0508312 L161.569248,55.2317834 L161.530223,55.6656045 L162.251164,56.46133 L162.532556,57.0273854 L162.77287,57.6607179 L163.093288,57.7975919 L163.399329,57.5702418 L163.580078,57.0714635 L163.580078,56.8000353 L163.479433,55.7096826 L163.518459,55.3918564 L163.660182,55.0276322 L163.840931,54.8466801 L163.939521,54.9371562 L164.101784,56.2316599 L164.321558,56.551806 L164.781646,56.1411839 L164.602951,55.8465567 L164.381123,55.2085844 L164.241454,54.9835542 L164.342098,54.3942997 L164.342098,53.6658514 L164.00114,50.9446096 L164.00114,50.5803854 L164.060705,50.2161612 L164.360583,49.4018766 L164.461228,48.9935743 L164.461228,48.7662242 L164.381123,48.5365542 L164.241454,48.0609748 L164.261993,47.6735516 L164.541332,46.9497431 L164.602951,46.699194 L164.822725,46.4277657 L166.391953,45.7016373 L166.170125,45.4278892 L165.870246,45.3582922 L165.54572,45.3814912 L165.243788,45.3374131 L165.344432,44.8595139 L165.609393,44.3166574 L165.909272,44.0452292 L166.11056,44.3839345 L166.311848,44.8827128 L166.572702,45.1773401 L166.87258,45.4046902 L167.112894,45.7248363 L167.453852,45.156461 L167.755784,44.4303325 L168.000206,43.6346071 L168.10085,42.9084786 L167.714705,42.7484055 L167.65514,41.955 L167.77427,40.9806423 L168.000206,40.0039647 L168.039231,38.869534 L169.00254,34.5800403 L169.604351,33.3760126 L169.66597,32.8772343 L169.343497,32.3320579 L169.684455,32.0838287 L169.704995,31.9028766 L169.565325,31.7196045 L169.444142,31.3808992 L169.283933,30.6547708 L169.224368,30.1745516 L169.263393,29.8126474 L169.503707,29.4507431 L169.805639,29.2025139 L170.025413,28.8846877 L170.006927,28.4972645 L169.604351,28.6805365 L169.604351,28.6805365 Z M172.681187,27.3837128 L172.541518,27.4533098 L172.500438,27.634262 L172.136887,28.4508665 L171.876034,29.2233929 L171.795929,29.6084962 L171.695285,30.6547708 L171.61518,30.926199 L171.553562,31.2672242 L171.413892,31.4945743 L171.194118,31.6523275 L170.933265,31.7428035 L170.892185,31.8796776 L171.072934,32.0838287 L171.452917,32.468932 L171.292708,32.6266851 L171.093474,32.7635592 L170.871646,32.8308363 L170.631332,32.8772343 L170.692951,33.1045844 L171.354327,32.8772343 L171.834954,32.1279068 L172.136887,31.13267 L172.882476,27.2932368 L172.681187,27.3837128 L172.681187,27.3837128 Z M164.88229,67.6710831 L163.9806,65.3094257 L163.438354,64.6296952 L162.91254,64.6969723 L162.372347,65.0611965 L161.690432,65.2421486 L160.764094,65.0611965 L159.659062,65.2189496 L157.469538,64.8338463 L156.746543,65.0147985 L156.401477,65.6968489 L156.543201,66.1492292 L156.808162,66.2629043 L156.947831,66.4020982 L156.746543,66.9913526 L156.746543,67.3300579 L157.007396,67.6710831 L157.508563,68.1907406 L157.14912,68.2162594 L156.746543,68.0538665 L156.463096,67.7615592 L156.442556,67.397335 L155.92085,67.1931839 L155.319039,67.1491058 L154.717228,67.2627809 L154.170874,67.5110101 L153.770351,67.9193123 L153.429393,68.3972116 L153.02887,68.8055139 L152.486624,69.0119849 L152.427059,68.7823149 L152.948766,68.1466625 L153.16854,67.7383602 L153.248644,67.420534 L153.04941,67.0586297 L152.788556,66.7640025 L152.687912,66.4693753 L152.987791,66.1051511 L152.967251,65.901 L151.500722,65.3999018 L151.159764,65.1725516 L150.979015,65.1052746 L150.798266,65.0611965 L150.496334,65.1052746 L150.356664,65.0147985 L150.356664,64.8338463 L150.397744,64.7665693 L150.576438,64.5392191 L150.537413,64.358267 L149.190013,64.2677909 L148.807976,64.1309169 L148.588202,63.7434937 L148.226705,61.9293325 L147.604354,60.2474055 L147.401012,59.9759773 L147.140159,60.1801285 L146.698556,61.1336071 L146.29598,61.3168791 L145.856432,61.089529 L144.96912,60.3378816 L144.648702,60.2242065 L142.678951,60.6812267 L142.237349,60.5884307 L141.31512,60.1128514 L140.809845,60.0896524 L140.588017,59.8623023 L140.386728,59.2962469 L140.08685,58.7742695 L139.585683,58.6605945 L139.425474,58.8206675 L138.903767,59.5676751 L138.683993,59.7718262 L138.458057,59.614073 L138.238283,59.3658438 L138.09656,59.2289698 L136.268533,59.6581511 L134.783518,59.3867229 L134.563744,59.523597 L134.463099,59.4563199 L134.241272,59.4331209 L133.99685,59.3426448 L133.85718,58.9575416 L134.321376,58.2058942 L134.742438,58.6141965 L135.08545,58.7046725 L135.9666,58.4564433 L136.108324,58.5005214 L136.533494,58.6837935 L136.773808,58.6837935 L136.973042,58.6141965 L137.375619,58.3195693 L137.636472,58.1386171 L137.835707,58.0690202 L138.016455,58.1386171 L138.277309,58.3195693 L138.377953,58.5005214 L138.601835,58.8438665 L138.823663,59.1152947 L138.862688,58.9575416 L138.963332,58.7278715 L139.505578,57.9553451 L139.706867,57.7743929 L140.006745,57.7975919 L140.226519,57.9785441 L141.054266,59.0016196 L141.354145,59.477199 L141.674563,59.7277481 L142.157245,59.546796 L142.498202,59.0920957 L142.678951,58.7510705 L142.717976,58.4332443 L142.557767,57.6375189 L142.578307,57.3220126 L142.759056,57.0482645 L142.939804,57.5702418 L143.040449,58.2522922 L143.184226,58.8206675 L143.504644,59.0016196 L143.825062,59.0248186 L144.687727,59.2521688 L145.069764,59.2730479 L145.250513,59.3426448 L145.41483,59.5676751 L145.53396,59.8623023 L145.675683,60.0664534 L145.915997,60.1801285 L145.996101,59.9991763 L146.016641,59.6813501 L146.096745,59.4563199 L146.476728,59.2289698 L147.339393,58.9343426 L147.604354,58.6605945 L148.126061,58.9343426 L148.588202,59.500398 L148.888081,60.2474055 L148.849056,61.1336071 L149.029804,61.3168791 L149.370762,61.6579043 L149.896577,62.0870856 L150.436769,62.3817128 L150.818806,62.2680378 L153.04941,63.6762166 L153.390368,64.0404408 L153.850455,65.1516725 L154.170874,65.1957506 L154.476914,64.9243224 L154.957541,64.198194 L155.218395,63.9267657 L155.579892,63.7666927 L156.101599,63.6089395 L156.463096,63.3583904 L156.666438,62.8340932 L156.728057,62.2007607 L156.707518,61.5674282 L156.522661,60.7253048 L156.261808,60.5884307 L155.440223,61.043131 L155.058185,60.9526549 L155.259474,60.5188338 L155.680536,60.0432544 L155.90031,59.8623023 L155.680536,59.4563199 L155.179369,59.1152947 L154.476914,58.7974685 L154.456374,59.1616927 L154.211953,59.1384937 L153.91002,58.9343426 L153.710786,58.6837935 L153.651221,58.4100453 L153.610142,58.0226222 L153.610142,57.6839169 L153.651221,57.6143199 L153.328749,57.2988136 L152.948766,57.3660907 L152.081993,57.7743929 L151.619852,57.751194 L151.05912,57.6143199 L150.075272,57.1851385 L148.427993,56.1643829 L146.879305,54.802602 L146.236415,53.9859975 L145.856432,53.5753753 L145.090304,53.259869 L143.866142,51.693937 L143.644314,51.603461 L143.38346,51.580262 L143.163686,51.5129849 L143.040449,51.3320327 L142.999369,51.0118866 L142.999369,50.6940605 L143.058934,50.4643904 L143.243791,50.3298363 L144.548057,51.2856348 L145.435369,52.4873426 L145.975562,53.030199 L146.497268,53.190272 L146.879305,53.3712242 L148.606688,55.4127355 L148.787437,55.5264106 L149.06883,55.5264106 L149.288604,55.5728086 L149.569997,55.9370327 L150.237535,56.0530277 L151.180304,56.551806 L151.619852,56.6190831 L153.228105,55.7792796 L153.289723,55.5728086 L153.108975,55.2085844 L152.848121,54.8466801 L152.626293,54.665728 L152.427059,54.642529 L151.761575,54.8698791 L151.720496,54.688927 L152.28739,54.2806247 L152.367494,54.1901486 L152.28739,53.9187204 L152.145666,53.8282443 L151.981349,53.8050453 L151.319973,53.4640202 L151.180304,53.23667 L151.219329,52.8933249 L151.379538,52.6682947 L151.599312,52.5986977 L151.84168,52.6218967 L152.081993,52.6891738 L151.960809,52.4641436 L151.82114,52.2135945 L151.619852,52.0326423 L151.358998,52.0117632 L151.500722,51.2160378 L151.960809,51.5129849 L152.868661,52.6891738 L153.269184,52.7355718 L153.550577,52.5082217 L153.79089,52.3945466 L153.93056,52.8492469 L155.037646,53.8723224 L155.298499,54.2133476 L155.419683,54.1901486 L155.319039,53.2807481 L155.499788,51.5361839 L155.339578,50.6035844 L155.058185,50.1256851 L154.817872,50.0792872 L154.557019,50.1256851 L154.312597,49.9888111 L154.250978,49.6733048 L154.396809,49.3090806 L154.637123,48.9935743 L154.838411,48.7894232 L154.797332,48.6061511 L154.072283,48.0609748 L153.749811,48.0841738 L153.749811,48.7430252 L153.610142,49.1072494 L153.108975,48.9935743 L152.28739,48.5597531 L151.82114,48.5597531 L151.439103,48.402 L151.400078,48.1514509 L151.921784,47.7872267 L152.887147,47.4485214 L153.228105,47.1979723 L153.530037,46.7687909 L152.607808,46.6551159 L151.699956,46.7687909 L150.857831,46.6551159 L150.196455,45.8825894 L149.915062,46.1308186 L149.469352,46.2468136 L148.126061,46.2468136 L147.746078,46.1099395 L147.401012,45.8361914 L146.977895,45.2446171 L146.678017,44.7481587 L146.597912,44.5208086 L146.558887,44.4767305 L146.277494,43.6346071 L146.096745,43.4536549 L145.39429,42.9293577 L145.149868,42.8388816 L144.16602,42.8620806 L144.126995,42.7716045 L144.085916,42.3633023 L144.04689,42.2728262 L143.946246,42.2496272 L143.866142,42.2960252 L143.786037,42.3192242 L143.504644,42.1591511 L142.97883,42.0918741 L142.8597,41.978199 L142.598847,41.6394937 L142.477663,41.5930957 L142.257889,41.4121436 L141.575973,40.5259421 L141.415764,40.228995 L141.253501,39.6861385 L141.054266,39.4587884 L140.327164,39.3242343 L140.027285,39.2105592 L139.645248,38.96233 L139.28375,38.6445038 L138.963332,38.0297305 L138.723019,37.9137355 L138.458057,37.8464584 L138.217744,37.7095844 L137.95689,37.4613552 L137.876786,37.303602 L137.375619,35.6703929 L137.254435,35.5103199 L136.773808,35.1228967 L136.652624,34.9883426 L136.373285,34.7609924 L134.804057,34.6937154 L134.563744,34.5336423 L134.382995,34.3294912 L134.241272,34.058063 L134.161167,33.6729597 L134.037929,33.4664887 L133.87772,33.4896877 L133.635352,33.6961587 L132.914411,33.7425567 L132.513889,33.6497607 L132.292061,33.3551335 L132.413245,33.0141083 L132.813767,32.9677103 L133.797616,33.0141083 L134.140627,33.1277834 L134.463099,33.4896877 L134.762978,33.9235088 L135.023831,34.2390151 L135.22512,34.148539 L136.206914,34.148539 L136.572519,34.2854131 L136.874452,34.5127632 L137.414644,35.1228967 L138.318388,36.6006725 L138.538162,36.7584257 L139.505578,37.280403 L139.96772,38.1666045 L141.395224,38.6189849 L141.875852,39.4819874 L142.919265,40.7300932 L143.243791,40.9574433 L143.545723,41.0479194 L143.825062,40.9342443 L144.026351,40.5723401 L144.085916,41.0247204 L144.248179,41.2775894 L144.447413,41.4121436 L144.667187,41.4794207 L144.868476,41.1383955 L145.028685,41.2543904 L145.170408,41.5258186 L145.310078,41.7299698 L146.055666,42.138272 L146.17685,42.2960252 L146.458243,42.8388816 L147.401012,43.727403 L147.746078,44.1589043 L147.805642,44.4976096 L148.066496,45.0195869 L148.386914,45.3142141 L148.707332,45.1773401 L148.727872,44.0452292 L148.849056,43.590529 L149.210553,43.9988312 L149.309143,44.2493804 L149.549457,44.5880856 L149.750745,44.7922368 L149.83085,44.8154358 L149.915062,44.6344836 L150.175916,44.7690378 L150.457309,45.0195869 L150.576438,45.156461 L151.82114,45.3582922 L152.447599,45.3374131 L152.726938,44.8386348 L152.447599,44.9291108 L152.326415,44.7481587 L151.94027,44.3630554 L151.82114,44.0893073 L151.880705,43.8642771 L152.040914,43.7065239 L152.125126,43.5000529 L151.921784,43.1149496 L152.145666,43.1590277 L152.406519,43.1590277 L152.646833,43.0917506 L152.807042,42.9084786 L152.708452,42.5674534 L151.921784,42.115073 L151.68147,41.7972469 L151.699956,41.6626927 L151.84168,41.6394937 L152.001889,41.6394937 L152.081993,41.5722166 L152.166206,41.1383955 L152.166206,40.8205693 L152.125126,40.5491411 L151.960809,40.1176398 L151.340513,39.2337582 L151.079659,38.6885819 L151.239868,38.3707557 L151.599312,38.4844307 L152.427059,39.1200831 L152.807042,39.0736851 L152.948766,38.6189849 L152.907686,37.8928564 L152.646833,36.6470705 L152.427059,36.3524433 L152.001889,36.1250932 L151.521261,35.9650202 L149.430327,35.600796 L148.547123,35.1924937 L147.440037,35.0092217 L147.179184,34.8978665 L147.339393,34.8282695 L147.460577,34.6705164 L147.579707,34.6032393 L147.359933,34.4222872 L147.119619,34.2854131 L146.858766,34.194937 L146.597912,34.194937 L145.874917,34.5568413 L145.755788,34.5127632 L145.655143,34.104461 L145.616118,33.9907859 L145.815352,33.6288816 L145.794813,33.2205793 L145.435369,32.8981134 L144.607622,32.5130101 L144.026351,32.1070277 L143.905167,31.9933526 L143.825062,31.3577003 L143.726472,31.1535491 L143.525184,31.109471 L143.28487,31.2231461 L142.878185,31.4713753 L142.637872,31.5386524 L142.457123,31.4945743 L142.278428,31.3808992 L142.07714,31.2904232 L141.836826,31.2904232 L141.656078,31.5154534 L141.235015,31.9701537 L140.748226,32.2415819 L140.448347,31.9701537 L140.247059,31.6291285 L139.885562,31.4713753 L139.464499,31.4945743 L139.022897,31.5618514 L138.158179,31.5850504 L137.034661,31.4040982 L136.126809,31.086272 L135.705747,30.4042217 L135.726287,30.2209496 L135.746826,30.0399975 L135.685207,29.8126474 L135.485973,29.6084962 L135.264145,29.5180202 L135.044371,29.4507431 L134.863622,29.360267 L133.715457,28.4508665 L133.596327,28.4276675 L133.374499,28.2931134 L133.21429,28.1353602 L133.335474,28.0216851 L133.715457,27.9520882 L133.896206,27.8848111 L134.01739,27.7456171 L134.140627,27.2700378 L134.037929,26.7735793 L133.836641,26.3188791 L133.616867,26.0474509 L133.074621,25.8409798 L132.612479,26.2075239 L132.152391,26.7735793 L131.205514,27.3837128 L130.603703,28.1121612 L130.242206,28.3371914 L128.915346,28.8614887 L127.972577,28.7710126 L126.964081,28.8846877 L126.925056,28.6805365 L127.14483,28.5668615 L127.851393,28.4508665 L128.052681,28.2931134 L127.972577,28.0657632 L127.650105,27.7688161 L127.430331,27.4973879 L126.543019,26.8176574 L126.24314,26.4998312 L126.522479,26.228403 L126.824411,26.3652771 L127.350226,26.8872544 L126.964081,25.8177809 L126.964081,24.479199 L127.085265,23.3006902 L127.0257,22.729995 L126.984621,22.5049647 L127.14483,22.3912897 L127.489895,21.9829874 L127.350226,21.8693123 L127.224934,21.6883602 L127.105804,21.6442821 L127.325578,21.2591788 L127.489895,20.7580806 L127.551514,20.2129043 L127.530975,19.735005 L127.59054,19.2594257 L127.830853,18.9439194 L128.132786,18.8743224 L128.313535,19.1248715 L128.432664,19.6004509 L128.574388,19.804602 L128.794162,19.735005 L129.11458,19.4635768 L129.336408,19.1921486 L129.496617,18.8534433 L129.455538,18.5588161 L129.075555,18.4196222 L128.874266,18.148194 L128.814702,17.7862897 L128.974911,17.4429446 L129.315868,17.2851914 L129.336408,17.6934937 L129.476078,17.8767657 L129.640395,17.8303678 L129.660934,17.2387935 L129.821143,17.1483174 L130.040917,17.1251184 L130.242206,16.9673652 L130.583164,16.559063 L130.903582,16.3549118 L131.084331,16.0394055 L131.024766,15.2877582 L130.464034,12.2231713 L130.402415,12.0862972 L130.242206,11.7707909 L130.141562,11.6107179 L129.619855,11.0678615 L129.640395,11.0678615 L129.395973,10.8173123 L128.453204,10.272136 L128.33202,10.1561411 L128.011602,9.84063476 L127.750749,9.68056171 L127.085265,9.70376071 L126.323245,9.59008564 L126.021312,9.59008564 L125.700894,9.49960957 L125.499605,9.13770529 L125.320911,8.68532494 L125.119622,8.29790176 L124.554782,7.8687204 L123.891352,7.63905038 L123.190951,7.5694534 L121.319791,7.79912343 L120.759059,7.61585139 L119.871747,6.93612091 L119.491764,6.68557179 L119.150806,6.37006549 L118.949518,5.93856423 L119.009083,5.39338791 L119.571868,4.55358438 L119.791642,4.03160705 L119.771103,3.41915365 L119.450685,3.00853149 L119.009083,2.89717632 L118.507916,2.85077834 L118.062206,2.6443073 L117.522013,1.98777582 L117.26116,1.80682368 L116.277312,1.76042569 L115.311949,1.57947355 L114.909373,1.57947355 L113.86596,1.83002267 L113.422304,1.69314861 L113.401764,1.83002267 L113.321659,2.21744584 L113.099831,3.50962972 L112.900597,4.5071864 L112.639744,5.98496222 L112.458995,6.93612091 L112.37889,7.34442317 L112.317272,7.73184635 L112.118037,7.59265239 L111.857184,7.45809824 L110.489245,6.6646927 L109.141845,5.87128715 L107.778013,5.07324181 L106.410074,4.30303526 L105.046243,3.50962972 L103.696789,2.71622418 L102.32885,1.92049874 L100.985558,1.1270932 L100.603521,0.922942065 L100.340614,1.15029219 L100.139325,1.7395466 L100.077707,2.0550529 L100.077707,2.30560202 L100.139325,2.60022922 L100.424826,3.46555164 L100.484391,3.76017884 L100.504931,4.12208312 L100.504931,4.30303526 L100.463852,4.64406045 L100.258455,5.27971285 L99.7983676,6.43734257 L99.7572884,6.57421662 L99.7388027,6.73196977 L99.7388027,6.86652393 L99.7572884,7.00339798 L99.7983676,7.14027204 L99.8373929,7.256267 L99.9174975,7.5694534 L99.9380371,7.73184635 L99.9380371,7.91279849 L99.8784722,8.41389673 L99.8784722,8.799 L99.9174975,8.95675315 L99.9585767,9.0936272 L100.118786,9.49960957 L100.159865,9.63648363 L100.178351,9.79655668 L100.159865,9.90791184 L100.077707,10.088864 L99.5765396,11.1815365 L98.8761383,12.0862972 L98.2332479,13.380801 L98.0093659,14.0860504 L97.9888263,14.2206045 L97.9888263,14.3342796 L98.0299056,14.4247557 L98.0689309,14.5384307 L98.0689309,14.6521058 L98.0093659,14.923534 L97.6067892,15.8097355 L97.4876594,15.9698086 L97.3274503,16.1530806 L97.0255177,16.3549118 L96.8057437,16.4477078 L96.6455346,16.559063 L96.5448904,16.695937 L96.4647858,16.9673652 L96.343602,17.5566196 L96.2244722,17.8303678 L96.1423137,17.9881209 L96.0026442,18.148194 L95.5569342,18.4892191 L95.3967251,18.5796952 L95.2775953,18.6260932 L95.1564115,18.6028942 L95.0557673,18.5588161 L94.9756627,18.4660202 L94.8955582,18.3523451 L94.8154536,18.261869 L94.7353491,18.215471 L94.6347049,18.23867 L94.5340607,18.3291461 L94.1931029,19.2153476 L93.7330152,20.4170554 L93.1661214,21.8252343 L92.745059,22.959665 L92.6444148,23.1174181 L92.5458246,23.2542922 L92.3856155,23.2310932 L91.5619764,22.8251108 L90.5349949,22.3008136 L89.8325396,21.9597884 L89.7318954,21.9829874 L89.6333052,22.1198615 L88.9863069,23.6417154 L88.8671771,23.9363426 L88.8260978,24.2077708 L88.8260978,24.3655239 L88.7870725,24.548796 L88.7254536,24.7738262 L88.4646003,25.4349975 L88.4050354,25.7064257 L88.3844958,25.8873778 L88.4646003,27.611063 L88.4440607,27.7456171 L88.3639562,27.8848111 L88.2242867,28.0657632 L87.9428938,28.3603904 L87.764199,28.5900605 L87.5834503,28.8846877 L87.4622664,29.2697909 L87.4027015,29.4971411 L87.3821619,29.6989723 L87.3410826,30.7220479 L87.322597,30.8125239 L87.322597,31.063073 L87.1808735,32.1511058 L87.1213086,32.4898111 L87.0206644,32.7844383 L86.7372175,33.4456096 L86.3551804,34.3526902 L85.8129342,35.6703929 L85.7328297,35.7817481 L85.6321855,35.8745441 L85.4719764,35.8954232 L84.0834975,35.691272 L82.9209545,35.5335189 L81.893973,35.3734458 L80.8505599,35.2133728 L80.7909949,35.1924937 L80.7499157,35.1692947 L80.7704553,35.0556196 L80.8115346,34.8050705 L80.8115346,34.6032393 L80.7909949,34.5568413 L80.7108904,34.4222872 L79.624344,32.9468312 L79.5442395,32.8540353 L79.4620809,32.8076373 L79.402516,32.7844383 L77.5334098,32.422534 L77.3937403,32.445733 L77.2930961,32.6034861 L77.2129916,32.8540353 L77.1513727,33.3992116 L77.1719123,33.6961587 L77.1924519,33.9235088 L77.2335312,34.081262 L77.2520169,34.2622141 L77.2335312,34.4222872 L77.1719123,34.6705164 L76.8905194,35.3734458 L76.8905194,35.8954232 L77.0712681,37.143529 L77.0527825,37.326801 L76.9911636,37.5286322 L76.7303103,38.0970076 L76.6707454,38.3916348 L76.5906408,39.3242343 L76.5310759,39.5051864 L76.3297875,39.7093375 L75.9682901,39.9575668 L75.8881855,40.0712418 L75.8491602,40.252194 L75.8080809,40.5491411 L75.7279764,40.8205693 L75.5636594,41.1639144 L75.4835548,41.3889446 L75.5040944,41.6835718 L75.5636594,41.8668438 L75.6868971,42.138272 L75.748516,42.2728262 L75.7875413,42.4097003 L75.748516,42.6138514 L75.6868971,42.8180025 L75.4034503,43.3167809 L74.9823879,43.773801 L74.8221788,44.0220302 L74.4606813,44.7481587 L73.6390961,45.9730655 L73.5980169,46.1308186 L73.5774772,46.2932116 L73.6185565,46.5414408 L73.7192007,46.812869 L73.7192007,47.0170202 L73.5179123,48.7894232 L73.1933862,49.967932 L72.7312445,51.647539 L72.2095379,52.6450957 L71.2873086,54.3711008 L70.5622597,55.6864836 L69.9789342,56.8000353 L69.2579933,58.1130982 L69.2374536,58.2290932 L69.1778887,58.9575416 L69.1368094,59.1825718 L68.7321788,60.5652317 L68.2104722,62.3376348 L68.1693929,62.6531411 L68.2104722,62.7668161 L68.2515514,62.8340932 L68.2905767,62.8804912 L68.6109949,63.1078413 L68.8513086,63.2447154 L69.5373322,63.4720655 L69.6379764,63.5625416 L69.7386206,63.7202947 L69.7981855,63.9963627 L69.7796998,64.1773149 L69.7386206,64.335068 L69.5578718,64.5832972 L69.1778887,64.9684005 L68.8513086,65.2421486 L68.7321788,65.3558237 L68.5925093,65.5367758 L68.4117605,65.8337229 L68.3501417,66.0587531 L68.331656,66.2629043 L68.3501417,66.4020982 L68.3912209,66.5366524 L68.4507858,66.6503275 L68.55143,66.7408035 L68.8328229,66.8776776 L68.9355211,66.9913526 L68.9766003,67.3068589 L68.9355211,67.4878111 L68.8513086,67.6478841 L66.5221147,69.8030705 L65.9798685,70.575597 L65.8792243,70.7101511 L65.7600944,70.7797481 L65.6594503,70.8029471 L65.5382664,70.8029471 L65.4376223,70.758869 L65.3369781,70.6869521 L65.2568735,70.575597 L65.1973086,70.4387229 L65.176769,70.2809698 L65.1377437,70.0304207 L65.0966644,69.9167456 L65.0576391,69.8030705 L64.9569949,69.7125945 L64.7372209,69.6917154 L64.5749578,69.7125945 L64.0902226,69.8726675 L63.6095953,70.1672947 L62.8064958,70.8029471 L61.8596189,71.5522746 L60.1342901,73.2295617 L60.0541855,73.2991587 L59.8939764,73.3896348 L59.8097639,73.3896348 L59.7296594,73.3687557 L59.6700944,73.2991587 L59.6084755,73.1854836 L59.528371,73.0926877 L59.4277268,73.0254106 L59.3291366,73.0022116 L58.9265599,72.9813325 L58.8279696,72.9349345 L58.7663508,72.8444584 L58.7273255,72.5962292 L58.6862462,72.5266322 L58.6061417,72.4825542 L58.5260371,72.4593552 L57.9036863,72.4361562 L57.7249916,72.4593552 L57.5195953,72.5266322 L57.2382024,72.7075844 L57.0985329,72.8676574 L56.9978887,73.0022116 L56.9383238,73.1854836 L56.9177841,73.3455567 L56.8972445,73.5265088 L56.9177841,73.684262 L56.9383238,73.844335 L56.9978887,74.0044081 L57.4189511,74.5704635 L57.4600304,74.7305365 L57.4600304,74.9555668 L57.3778718,75.2965919 L57.2792816,75.4775441 L57.1991771,75.6352972 L55.9339359,76.8416448 L55.7942664,76.9089219 L55.6730826,76.9089219 L55.3095312,76.6815718 L55.1493221,76.6815718 L54.9480337,76.7511688 L54.4057875,77.2035491 L54.2250388,77.2940252 L52.0765936,78.0410327 L50.4868263,79.4051335 L50.2670523,79.5188086 L50.2054334,79.4956096 L50.1458685,79.4515315 L50.0863035,79.3610554 L49.9651197,79.1777834 L49.9055548,79.0664282 L49.8049106,78.9968312 L49.6036223,78.8599572 L48.3568668,78.2683829 L48.2562226,78.2011058 L48.0960135,78.0642317 L47.5743069,77.4749773 L47.4736627,77.3845013 L47.3339933,77.3172242 L47.1532445,77.3172242 L46.8718516,77.3845013 L46.7116425,77.5422544 L46.6315379,77.6791285 L46.5925126,77.8160025 L46.5124081,78.3379798 L46.4507892,78.56533 L46.3706847,78.8367582 L46.1673423,79.2241814 L46.0050793,79.4051335 L45.8654098,79.5188086 L45.0438246,79.7902368 L44.7213524,79.9503098 L44.5611433,80.084864 L44.4420135,80.221738 L43.5341619,81.7667909 L43.3944924,81.9245441 L43.252769,82.0382191 L42.751602,82.1727733 L41.424742,82.2864484 L41.1638887,82.2423703 L40.5620776,81.9013451 L39.7404924,81.6067179 L39.6193086,81.5394408 L39.4139123,81.3561688 L39.0544688,80.9246675 L38.9538246,80.8341914 L38.8531804,80.7413955 L38.713511,80.6741184 L38.5923272,80.6277204 L38.3910388,80.5836423 L37.9104115,80.6068413 L37.6290185,80.6741184 L37.3455717,80.6973174 L37.2654671,80.6741184 L36.9840742,80.5604433 L36.7622462,80.3794912 L36.6821417,80.2890151 L36.6020371,80.1753401 L36.3206442,79.6556826 L36.2425936,79.5420076 L36.1419494,79.4283325 L35.9201214,79.2705793 L34.7740101,78.655806 L34.6733659,78.56533 L34.5932614,78.4516549 L34.5131568,78.3147809 L34.4926172,78.1547078 L34.4515379,77.9969547 L34.4330523,77.2476272 L34.4125126,77.0898741 L34.391973,76.9321209 L34.3324081,76.7720479 L34.2707892,76.6374937 L34.2112243,76.5238186 L34.1311197,76.4310227 L34.0304755,76.3637456 L33.1883508,75.9554433 L33.0877066,75.8649673 L33.0281417,75.7489723 L33.007602,75.6120982 L33.0486813,75.4543451 L33.0877066,75.34067 L33.5498482,74.7978136 L33.5498482,74.7746146 L33.5703879,74.7073375 L33.5703879,74.5704635 L33.5909275,74.4127103 L33.5498482,74.2317582 L33.508769,74.0948841 L33.4286644,73.9580101 L33.3485599,73.8652141 L33.1287858,73.684262 L32.1018044,75.0460428 L30.5120371,77.113073 L29.3885194,78.6094081 L27.6200573,80.9246675 L26.0118044,83.0125768 L25.5496627,83.4904761 L24.1262664,84.6249068 L22.5570388,85.8730126 L20.4681585,87.5294207 L19.5459292,88.5292972 L19.2008634,89.0280756 L19.05914,89.3459018 L19.0796796,89.5500529 L19.2193491,90.0024332 L19.3405329,90.6612846 L19.3405329,91.0255088 L19.2994536,91.206461 L19.1803238,91.4778892 L18.9790354,91.6843602 L17.2352209,93.0670202 L16.7689713,93.5889975 L16.5882226,93.8836247 L16.508118,94.1596927 L16.567683,94.635272 L16.6087622,94.7930252 L16.6683272,95.1317305 L16.6888668,95.5864307 L16.6888668,95.7441839 L16.6477875,95.901937 L16.6293019,96.06433 L16.567683,96.1988841 L16.4875784,96.3357582 L16.1876998,96.5839874 L14.9635379,97.3797128 L13.7167825,98.1963174 L12.7945531,98.3772695 L12.6528297,98.4445466 L12.5480776,98.5373426 L12.1865801,99.126597 L11.9072411,100.170552 L11.806597,100.465179 L11.5868229,100.829403 L11.5457437,100.940758 L11.5457437,101.056753 L11.6258482,101.328181 L11.6463879,101.488254 L11.6258482,101.622809 L11.5046644,101.762003 L11.3444553,101.896557 L9.19395616,102.666763 L7.08453626,103.870791 L6.30197639,104.552841 L6.06166273,104.870668 L5.92199325,105.005222 L5.69605734,105.118897 L3.65031029,105.708151 L1.8613086,106.824023 L1.72163912,106.868101 L1.31700843,107.162728 L0.493369309,108.227562 L2.74451265,107.865657 L4.99565599,107.503753 L9.4958887,106.754426 L11.747032,106.390202 L13.9961214,106.002778 L16.2472648,105.617675 L18.4984081,105.232572 L20.7474975,104.847469 L22.9986408,104.462365 L25.2497841,104.074942 L27.5009275,103.689839 L29.7315312,103.279217 L31.9806206,102.894113 L34.2317639,102.485811 L36.4829073,102.100708 L37.5283744,101.896557 L37.6885835,101.785202 L38.0911602,101.237705 L38.2719089,101.147229 L38.4526577,101.103151 L39.9397268,100.89668 L41.7656998,100.625252 L43.7950152,100.330625 L43.9757639,100.646131 L44.0764081,100.715728 L44.2407251,100.736607 L44.7213524,100.646131 L48.4759966,99.9664005 L52.2552884,99.309869 L56.0140405,98.6046196 L59.7707386,97.9016902 L63.5479764,97.2219597 L67.3087825,96.5167103 L71.0634266,95.7905819 L74.8221788,95.0644534 L78.5809309,94.3406448 L82.335575,93.6121965 L86.0943272,92.862869 L89.8530793,92.1158615 L93.6118314,91.3642141 L97.3664755,90.5916877 L101.125228,89.8214811 L104.88398,89.0489547 L108.620138,88.2764282 L112.37889,87.4853426 L116.117103,86.691937 L119.871747,85.8962116 L123.630499,85.0772872 L127.370766,84.2630025 L131.10487,83.4440781 L134.863622,82.6042746 L138.601835,81.7667909 L142.337993,80.9246675 L146.076206,80.084864 L149.83085,79.2241814 L153.571116,78.3611788 L157.309329,77.4981763 L161.043433,76.6374937 L164.200374,75.8649673 L164.76316,75.7257733 L164.641976,75.4775441 L164.502307,75.2733929 L164.360583,75.0460428 L164.261993,74.6377406 L165.163683,75.6352972 L166.151639,75.4079471 L166.11056,75.363869 L165.629933,73.774738 L165.323892,70.6428741 L165.364971,70.3018489 L165.609393,70.2809698 L165.890786,70.4155239 L166.071535,70.552398 L166.270769,70.8493451 L167.133433,72.8444584 L167.273103,73.0254106 L167.595575,73.3455567 L167.735245,73.5497078 L167.794809,73.9116121 L167.77427,74.2526373 L167.815349,74.5936625 L168.000206,74.9555668 L168.281599,74.8882897 L168.581477,74.8210126 L168.12139,73.6401839 L164.88229,67.6710831 L164.88229,67.6710831 Z" id="Fill-11" fill="#D6D6D6"></path>
                <path d="M166.771936,74.6168615 L166.472057,74.9555668 L166.671292,75.250194 L166.671292,75.2965919 L167.01225,75.2061159 L167.394287,75.1156398 L167.112894,74.3431134 L166.771936,74.6168615 L166.771936,74.6168615 Z M165.044553,54.3711008 L164.88229,54.3942997 L164.923369,54.5984509 L165.629933,54.3479018 L165.870246,53.8282443 L165.849707,53.053398 L165.648418,52.0558413 L165.504641,52.1022393 L165.424536,52.6682947 L165.445076,53.3271461 L165.385511,53.9627985 L165.044553,54.3711008 L165.044553,54.3711008 Z M167.032789,47.9681788 L167.153973,47.2884484 L167.153973,46.5878388 L166.993764,46.6319169 L166.87258,46.9938212 L166.552162,48.6966272 L166.552162,48.8567003 L166.591187,49.0840504 L166.732911,49.0376524 L167.032789,47.9681788 L167.032789,47.9681788 Z M169.604351,28.6805365 L169.023079,28.9055668 L168.12139,29.2929899 L167.094408,29.6989723 L166.412492,29.9935995 L165.52518,30.3555038 L165.024013,30.5619748 L164.923369,30.7452469 L164.843265,31.2231461 L164.76316,31.6987254 L164.982934,31.7660025 L164.781646,32.1511058 L164.461228,32.3784559 L163.820391,32.6939622 L163.378789,33.1718615 L162.953619,33.7634358 L162.992644,33.9443879 L163.499973,33.7193577 L164.140809,33.7193577 L164.582411,33.9675869 L164.742621,34.3758892 L164.641976,34.6473174 L164.701541,34.8978665 L164.843265,35.1460957 L165.083578,35.3734458 L164.863804,35.4871209 L164.360583,35.5103199 L164.220914,35.577597 L164.140809,35.9186222 L164.220914,36.2596474 L164.381123,36.5542746 L164.621437,36.7584257 L163.417815,37.257204 L163.152853,37.189927 L162.873514,37.0321738 L162.633201,37.0530529 L162.472992,37.4845542 L162.992644,37.8696574 L163.074803,38.2570806 L162.873514,38.7117809 L162.512017,39.2105592 L162.553096,39.4379093 L162.992644,39.3242343 L163.074803,39.4819874 L162.512017,40.595539 L162.532556,40.8460882 L162.752331,41.2775894 L162.271703,41.4121436 L161.889666,41.5930957 L161.628813,41.9341209 L161.489143,42.4537783 L161.910206,42.8180025 L161.690432,43.0453526 L161.269369,43.2959018 L160.942789,43.657806 L161.24883,43.8178791 L161.269369,44.0684282 L161.107106,44.3839345 L160.862685,44.7249597 L161.809562,44.9291108 L161.388499,45.3582922 L161.043433,45.9081083 L160.862685,46.6319169 L160.963329,47.4925995 L161.36796,47.1538942 L161.589788,47.2675693 L161.628813,47.6062746 L161.107106,48.0841738 L160.942789,48.5597531 L160.883224,49.1281285 L160.924304,49.6501058 L161.088621,49.6037078 L161.088621,49.4018766 L161.168725,49.3554786 L161.287855,49.3554786 L161.328934,49.3090806 L161.36796,49.6037078 L161.287855,50.0120101 L161.127646,50.4203123 L160.823659,50.7172594 L161.004408,51.0791637 L160.983868,51.670738 L160.78258,52.8492469 L160.963329,52.7123728 L161.063973,52.6682947 L161.36796,52.7123728 L161.088621,53.1693929 L160.883224,53.9187204 L160.983868,54.6216499 L161.530223,55.0508312 L161.569248,55.2317834 L161.530223,55.6656045 L162.251164,56.46133 L162.532556,57.0273854 L162.77287,57.6607179 L163.093288,57.7975919 L163.399329,57.5702418 L163.580078,57.0714635 L163.580078,56.8000353 L163.479433,55.7096826 L163.518459,55.3918564 L163.660182,55.0276322 L163.840931,54.8466801 L163.939521,54.9371562 L164.101784,56.2316599 L164.321558,56.551806 L164.781646,56.1411839 L164.602951,55.8465567 L164.381123,55.2085844 L164.241454,54.9835542 L164.342098,54.3942997 L164.342098,53.6658514 L164.00114,50.9446096 L164.00114,50.5803854 L164.060705,50.2161612 L164.360583,49.4018766 L164.461228,48.9935743 L164.461228,48.7662242 L164.381123,48.5365542 L164.241454,48.0609748 L164.261993,47.6735516 L164.541332,46.9497431 L164.602951,46.699194 L164.822725,46.4277657 L166.391953,45.7016373 L166.170125,45.4278892 L165.870246,45.3582922 L165.54572,45.3814912 L165.243788,45.3374131 L165.344432,44.8595139 L165.609393,44.3166574 L165.909272,44.0452292 L166.11056,44.3839345 L166.311848,44.8827128 L166.572702,45.1773401 L166.87258,45.4046902 L167.112894,45.7248363 L167.453852,45.156461 L167.755784,44.4303325 L168.000206,43.6346071 L168.10085,42.9084786 L167.714705,42.7484055 L167.65514,41.955 L167.77427,40.9806423 L168.000206,40.0039647 L168.039231,38.869534 L169.00254,34.5800403 L169.604351,33.3760126 L169.66597,32.8772343 L169.343497,32.3320579 L169.684455,32.0838287 L169.704995,31.9028766 L169.565325,31.7196045 L169.444142,31.3808992 L169.283933,30.6547708 L169.224368,30.1745516 L169.263393,29.8126474 L169.503707,29.4507431 L169.805639,29.2025139 L170.025413,28.8846877 L170.006927,28.4972645 L169.604351,28.6805365 L169.604351,28.6805365 Z M172.681187,27.3837128 L172.541518,27.4533098 L172.500438,27.634262 L172.136887,28.4508665 L171.876034,29.2233929 L171.795929,29.6084962 L171.695285,30.6547708 L171.61518,30.926199 L171.553562,31.2672242 L171.413892,31.4945743 L171.194118,31.6523275 L170.933265,31.7428035 L170.892185,31.8796776 L171.072934,32.0838287 L171.452917,32.468932 L171.292708,32.6266851 L171.093474,32.7635592 L170.871646,32.8308363 L170.631332,32.8772343 L170.692951,33.1045844 L171.354327,32.8772343 L171.834954,32.1279068 L172.136887,31.13267 L172.882476,27.2932368 L172.681187,27.3837128 L172.681187,27.3837128 Z M164.88229,67.6710831 L163.9806,65.3094257 L163.438354,64.6296952 L162.91254,64.6969723 L162.372347,65.0611965 L161.690432,65.2421486 L160.764094,65.0611965 L159.659062,65.2189496 L157.469538,64.8338463 L156.746543,65.0147985 L156.401477,65.6968489 L156.543201,66.1492292 L156.808162,66.2629043 L156.947831,66.4020982 L156.746543,66.9913526 L156.746543,67.3300579 L157.007396,67.6710831 L157.508563,68.1907406 L157.14912,68.2162594 L156.746543,68.0538665 L156.463096,67.7615592 L156.442556,67.397335 L155.92085,67.1931839 L155.319039,67.1491058 L154.717228,67.2627809 L154.170874,67.5110101 L153.770351,67.9193123 L153.429393,68.3972116 L153.02887,68.8055139 L152.486624,69.0119849 L152.427059,68.7823149 L152.948766,68.1466625 L153.16854,67.7383602 L153.248644,67.420534 L153.04941,67.0586297 L152.788556,66.7640025 L152.687912,66.4693753 L152.987791,66.1051511 L152.967251,65.901 L151.500722,65.3999018 L151.159764,65.1725516 L150.979015,65.1052746 L150.798266,65.0611965 L150.496334,65.1052746 L150.356664,65.0147985 L150.356664,64.8338463 L150.397744,64.7665693 L150.576438,64.5392191 L150.537413,64.358267 L149.190013,64.2677909 L148.807976,64.1309169 L148.588202,63.7434937 L148.226705,61.9293325 L147.604354,60.2474055 L147.401012,59.9759773 L147.140159,60.1801285 L146.698556,61.1336071 L146.29598,61.3168791 L145.856432,61.089529 L144.96912,60.3378816 L144.648702,60.2242065 L142.678951,60.6812267 L142.237349,60.5884307 L141.31512,60.1128514 L140.809845,60.0896524 L140.588017,59.8623023 L140.386728,59.2962469 L140.08685,58.7742695 L139.585683,58.6605945 L139.425474,58.8206675 L138.903767,59.5676751 L138.683993,59.7718262 L138.458057,59.614073 L138.238283,59.3658438 L138.09656,59.2289698 L136.268533,59.6581511 L134.783518,59.3867229 L134.563744,59.523597 L134.463099,59.4563199 L134.241272,59.4331209 L133.99685,59.3426448 L133.85718,58.9575416 L134.321376,58.2058942 L134.742438,58.6141965 L135.08545,58.7046725 L135.9666,58.4564433 L136.108324,58.5005214 L136.533494,58.6837935 L136.773808,58.6837935 L136.973042,58.6141965 L137.375619,58.3195693 L137.636472,58.1386171 L137.835707,58.0690202 L138.016455,58.1386171 L138.277309,58.3195693 L138.377953,58.5005214 L138.601835,58.8438665 L138.823663,59.1152947 L138.862688,58.9575416 L138.963332,58.7278715 L139.505578,57.9553451 L139.706867,57.7743929 L140.006745,57.7975919 L140.226519,57.9785441 L141.054266,59.0016196 L141.354145,59.477199 L141.674563,59.7277481 L142.157245,59.546796 L142.498202,59.0920957 L142.678951,58.7510705 L142.717976,58.4332443 L142.557767,57.6375189 L142.578307,57.3220126 L142.759056,57.0482645 L142.939804,57.5702418 L143.040449,58.2522922 L143.184226,58.8206675 L143.504644,59.0016196 L143.825062,59.0248186 L144.687727,59.2521688 L145.069764,59.2730479 L145.250513,59.3426448 L145.41483,59.5676751 L145.53396,59.8623023 L145.675683,60.0664534 L145.915997,60.1801285 L145.996101,59.9991763 L146.016641,59.6813501 L146.096745,59.4563199 L146.476728,59.2289698 L147.339393,58.9343426 L147.604354,58.6605945 L148.126061,58.9343426 L148.588202,59.500398 L148.888081,60.2474055 L148.849056,61.1336071 L149.029804,61.3168791 L149.370762,61.6579043 L149.896577,62.0870856 L150.436769,62.3817128 L150.818806,62.2680378 L153.04941,63.6762166 L153.390368,64.0404408 L153.850455,65.1516725 L154.170874,65.1957506 L154.476914,64.9243224 L154.957541,64.198194 L155.218395,63.9267657 L155.579892,63.7666927 L156.101599,63.6089395 L156.463096,63.3583904 L156.666438,62.8340932 L156.728057,62.2007607 L156.707518,61.5674282 L156.522661,60.7253048 L156.261808,60.5884307 L155.440223,61.043131 L155.058185,60.9526549 L155.259474,60.5188338 L155.680536,60.0432544 L155.90031,59.8623023 L155.680536,59.4563199 L155.179369,59.1152947 L154.476914,58.7974685 L154.456374,59.1616927 L154.211953,59.1384937 L153.91002,58.9343426 L153.710786,58.6837935 L153.651221,58.4100453 L153.610142,58.0226222 L153.610142,57.6839169 L153.651221,57.6143199 L153.328749,57.2988136 L152.948766,57.3660907 L152.081993,57.7743929 L151.619852,57.751194 L151.05912,57.6143199 L150.075272,57.1851385 L148.427993,56.1643829 L146.879305,54.802602 L146.236415,53.9859975 L145.856432,53.5753753 L145.090304,53.259869 L143.866142,51.693937 L143.644314,51.603461 L143.38346,51.580262 L143.163686,51.5129849 L143.040449,51.3320327 L142.999369,51.0118866 L142.999369,50.6940605 L143.058934,50.4643904 L143.243791,50.3298363 L144.548057,51.2856348 L145.435369,52.4873426 L145.975562,53.030199 L146.497268,53.190272 L146.879305,53.3712242 L148.606688,55.4127355 L148.787437,55.5264106 L149.06883,55.5264106 L149.288604,55.5728086 L149.569997,55.9370327 L150.237535,56.0530277 L151.180304,56.551806 L151.619852,56.6190831 L153.228105,55.7792796 L153.289723,55.5728086 L153.108975,55.2085844 L152.848121,54.8466801 L152.626293,54.665728 L152.427059,54.642529 L151.761575,54.8698791 L151.720496,54.688927 L152.28739,54.2806247 L152.367494,54.1901486 L152.28739,53.9187204 L152.145666,53.8282443 L151.981349,53.8050453 L151.319973,53.4640202 L151.180304,53.23667 L151.219329,52.8933249 L151.379538,52.6682947 L151.599312,52.5986977 L151.84168,52.6218967 L152.081993,52.6891738 L151.960809,52.4641436 L151.82114,52.2135945 L151.619852,52.0326423 L151.358998,52.0117632 L151.500722,51.2160378 L151.960809,51.5129849 L152.868661,52.6891738 L153.269184,52.7355718 L153.550577,52.5082217 L153.79089,52.3945466 L153.93056,52.8492469 L155.037646,53.8723224 L155.298499,54.2133476 L155.419683,54.1901486 L155.319039,53.2807481 L155.499788,51.5361839 L155.339578,50.6035844 L155.058185,50.1256851 L154.817872,50.0792872 L154.557019,50.1256851 L154.312597,49.9888111 L154.250978,49.6733048 L154.396809,49.3090806 L154.637123,48.9935743 L154.838411,48.7894232 L154.797332,48.6061511 L154.072283,48.0609748 L153.749811,48.0841738 L153.749811,48.7430252 L153.610142,49.1072494 L153.108975,48.9935743 L152.28739,48.5597531 L151.82114,48.5597531 L151.439103,48.402 L151.400078,48.1514509 L151.921784,47.7872267 L152.887147,47.4485214 L153.228105,47.1979723 L153.530037,46.7687909 L152.607808,46.6551159 L151.699956,46.7687909 L150.857831,46.6551159 L150.196455,45.8825894 L149.915062,46.1308186 L149.469352,46.2468136 L148.126061,46.2468136 L147.746078,46.1099395 L147.401012,45.8361914 L146.977895,45.2446171 L146.678017,44.7481587 L146.597912,44.5208086 L146.558887,44.4767305 L146.277494,43.6346071 L146.096745,43.4536549 L145.39429,42.9293577 L145.149868,42.8388816 L144.16602,42.8620806 L144.126995,42.7716045 L144.085916,42.3633023 L144.04689,42.2728262 L143.946246,42.2496272 L143.866142,42.2960252 L143.786037,42.3192242 L143.504644,42.1591511 L142.97883,42.0918741 L142.8597,41.978199 L142.598847,41.6394937 L142.477663,41.5930957 L142.257889,41.4121436 L141.575973,40.5259421 L141.415764,40.228995 L141.253501,39.6861385 L141.054266,39.4587884 L140.327164,39.3242343 L140.027285,39.2105592 L139.645248,38.96233 L139.28375,38.6445038 L138.963332,38.0297305 L138.723019,37.9137355 L138.458057,37.8464584 L138.217744,37.7095844 L137.95689,37.4613552 L137.876786,37.303602 L137.375619,35.6703929 L137.254435,35.5103199 L136.773808,35.1228967 L136.652624,34.9883426 L136.373285,34.7609924 L134.804057,34.6937154 L134.563744,34.5336423 L134.382995,34.3294912 L134.241272,34.058063 L134.161167,33.6729597 L134.037929,33.4664887 L133.87772,33.4896877 L133.635352,33.6961587 L132.914411,33.7425567 L132.513889,33.6497607 L132.292061,33.3551335 L132.413245,33.0141083 L132.813767,32.9677103 L133.797616,33.0141083 L134.140627,33.1277834 L134.463099,33.4896877 L134.762978,33.9235088 L135.023831,34.2390151 L135.22512,34.148539 L136.206914,34.148539 L136.572519,34.2854131 L136.874452,34.5127632 L137.414644,35.1228967 L138.318388,36.6006725 L138.538162,36.7584257 L139.505578,37.280403 L139.96772,38.1666045 L141.395224,38.6189849 L141.875852,39.4819874 L142.919265,40.7300932 L143.243791,40.9574433 L143.545723,41.0479194 L143.825062,40.9342443 L144.026351,40.5723401 L144.085916,41.0247204 L144.248179,41.2775894 L144.447413,41.4121436 L144.667187,41.4794207 L144.868476,41.1383955 L145.028685,41.2543904 L145.170408,41.5258186 L145.310078,41.7299698 L146.055666,42.138272 L146.17685,42.2960252 L146.458243,42.8388816 L147.401012,43.727403 L147.746078,44.1589043 L147.805642,44.4976096 L148.066496,45.0195869 L148.386914,45.3142141 L148.707332,45.1773401 L148.727872,44.0452292 L148.849056,43.590529 L149.210553,43.9988312 L149.309143,44.2493804 L149.549457,44.5880856 L149.750745,44.7922368 L149.83085,44.8154358 L149.915062,44.6344836 L150.175916,44.7690378 L150.457309,45.0195869 L150.576438,45.156461 L151.82114,45.3582922 L152.447599,45.3374131 L152.726938,44.8386348 L152.447599,44.9291108 L152.326415,44.7481587 L151.94027,44.3630554 L151.82114,44.0893073 L151.880705,43.8642771 L152.040914,43.7065239 L152.125126,43.5000529 L151.921784,43.1149496 L152.145666,43.1590277 L152.406519,43.1590277 L152.646833,43.0917506 L152.807042,42.9084786 L152.708452,42.5674534 L151.921784,42.115073 L151.68147,41.7972469 L151.699956,41.6626927 L151.84168,41.6394937 L152.001889,41.6394937 L152.081993,41.5722166 L152.166206,41.1383955 L152.166206,40.8205693 L152.125126,40.5491411 L151.960809,40.1176398 L151.340513,39.2337582 L151.079659,38.6885819 L151.239868,38.3707557 L151.599312,38.4844307 L152.427059,39.1200831 L152.807042,39.0736851 L152.948766,38.6189849 L152.907686,37.8928564 L152.646833,36.6470705 L152.427059,36.3524433 L152.001889,36.1250932 L151.521261,35.9650202 L149.430327,35.600796 L148.547123,35.1924937 L147.440037,35.0092217 L147.179184,34.8978665 L147.339393,34.8282695 L147.460577,34.6705164 L147.579707,34.6032393 L147.359933,34.4222872 L147.119619,34.2854131 L146.858766,34.194937 L146.597912,34.194937 L145.874917,34.5568413 L145.755788,34.5127632 L145.655143,34.104461 L145.616118,33.9907859 L145.815352,33.6288816 L145.794813,33.2205793 L145.435369,32.8981134 L144.607622,32.5130101 L144.026351,32.1070277 L143.905167,31.9933526 L143.825062,31.3577003 L143.726472,31.1535491 L143.525184,31.109471 L143.28487,31.2231461 L142.878185,31.4713753 L142.637872,31.5386524 L142.457123,31.4945743 L142.278428,31.3808992 L142.07714,31.2904232 L141.836826,31.2904232 L141.656078,31.5154534 L141.235015,31.9701537 L140.748226,32.2415819 L140.448347,31.9701537 L140.247059,31.6291285 L139.885562,31.4713753 L139.464499,31.4945743 L139.022897,31.5618514 L138.158179,31.5850504 L137.034661,31.4040982 L136.126809,31.086272 L135.705747,30.4042217 L135.726287,30.2209496 L135.746826,30.0399975 L135.685207,29.8126474 L135.485973,29.6084962 L135.264145,29.5180202 L135.044371,29.4507431 L134.863622,29.360267 L133.715457,28.4508665 L133.596327,28.4276675 L133.374499,28.2931134 L133.21429,28.1353602 L133.335474,28.0216851 L133.715457,27.9520882 L133.896206,27.8848111 L134.01739,27.7456171 L134.140627,27.2700378 L134.037929,26.7735793 L133.836641,26.3188791 L133.616867,26.0474509 L133.074621,25.8409798 L132.612479,26.2075239 L132.152391,26.7735793 L131.205514,27.3837128 L130.603703,28.1121612 L130.242206,28.3371914 L128.915346,28.8614887 L127.972577,28.7710126 L126.964081,28.8846877 L126.925056,28.6805365 L127.14483,28.5668615 L127.851393,28.4508665 L128.052681,28.2931134 L127.972577,28.0657632 L127.650105,27.7688161 L127.430331,27.4973879 L126.543019,26.8176574 L126.24314,26.4998312 L126.522479,26.228403 L126.824411,26.3652771 L127.350226,26.8872544 L126.964081,25.8177809 L126.964081,24.479199 L127.085265,23.3006902 L127.0257,22.729995 L126.984621,22.5049647 L127.14483,22.3912897 L127.489895,21.9829874 L127.350226,21.8693123 L127.224934,21.6883602 L127.105804,21.6442821 L127.325578,21.2591788 L127.489895,20.7580806 L127.551514,20.2129043 L127.530975,19.735005 L127.59054,19.2594257 L127.830853,18.9439194 L128.132786,18.8743224 L128.313535,19.1248715 L128.432664,19.6004509 L128.574388,19.804602 L128.794162,19.735005 L129.11458,19.4635768 L129.336408,19.1921486 L129.496617,18.8534433 L129.455538,18.5588161 L129.075555,18.4196222 L128.874266,18.148194 L128.814702,17.7862897 L128.974911,17.4429446 L129.315868,17.2851914 L129.336408,17.6934937 L129.476078,17.8767657 L129.640395,17.8303678 L129.660934,17.2387935 L129.821143,17.1483174 L130.040917,17.1251184 L130.242206,16.9673652 L130.583164,16.559063 L130.903582,16.3549118 L131.084331,16.0394055 L131.024766,15.2877582 L130.464034,12.2231713 L130.402415,12.0862972 L130.242206,11.7707909 L130.141562,11.6107179 L129.619855,11.0678615 L129.640395,11.0678615 L129.395973,10.8173123 L128.453204,10.272136 L128.33202,10.1561411 L128.011602,9.84063476 L127.750749,9.68056171 L127.085265,9.70376071 L126.323245,9.59008564 L126.021312,9.59008564 L125.700894,9.49960957 L125.499605,9.13770529 L125.320911,8.68532494 L125.119622,8.29790176 L124.554782,7.8687204 L123.891352,7.63905038 L123.190951,7.5694534 L121.319791,7.79912343 L120.759059,7.61585139 L119.871747,6.93612091 L119.491764,6.68557179 L119.150806,6.37006549 L118.949518,5.93856423 L119.009083,5.39338791 L119.571868,4.55358438 L119.791642,4.03160705 L119.771103,3.41915365 L119.450685,3.00853149 L119.009083,2.89717632 L118.507916,2.85077834 L118.062206,2.6443073 L117.522013,1.98777582 L117.26116,1.80682368 L116.277312,1.76042569 L115.311949,1.57947355 L114.909373,1.57947355 L113.86596,1.83002267 L113.422304,1.69314861 L113.401764,1.83002267 L113.321659,2.21744584 L113.099831,3.50962972 L112.900597,4.5071864 L112.639744,5.98496222 L112.458995,6.93612091 L112.37889,7.34442317 L112.317272,7.73184635 L112.118037,7.59265239 L111.857184,7.45809824 L110.489245,6.6646927 L109.141845,5.87128715 L107.778013,5.07324181 L106.410074,4.30303526 L105.046243,3.50962972 L103.696789,2.71622418 L102.32885,1.92049874 L100.985558,1.1270932 L100.603521,0.922942065 L100.340614,1.15029219 L100.139325,1.7395466 L100.077707,2.0550529 L100.077707,2.30560202 L100.139325,2.60022922 L100.424826,3.46555164 L100.484391,3.76017884 L100.504931,4.12208312 L100.504931,4.30303526 L100.463852,4.64406045 L100.258455,5.27971285 L99.7983676,6.43734257 L99.7572884,6.57421662 L99.7388027,6.73196977 L99.7388027,6.86652393 L99.7572884,7.00339798 L99.7983676,7.14027204 L99.8373929,7.256267 L99.9174975,7.5694534 L99.9380371,7.73184635 L99.9380371,7.91279849 L99.8784722,8.41389673 L99.8784722,8.799 L99.9174975,8.95675315 L99.9585767,9.0936272 L100.118786,9.49960957 L100.159865,9.63648363 L100.178351,9.79655668 L100.159865,9.90791184 L100.077707,10.088864 L99.5765396,11.1815365 L98.8761383,12.0862972 L98.2332479,13.380801 L98.0093659,14.0860504 L97.9888263,14.2206045 L97.9888263,14.3342796 L98.0299056,14.4247557 L98.0689309,14.5384307 L98.0689309,14.6521058 L98.0093659,14.923534 L97.6067892,15.8097355 L97.4876594,15.9698086 L97.3274503,16.1530806 L97.0255177,16.3549118 L96.8057437,16.4477078 L96.6455346,16.559063 L96.5448904,16.695937 L96.4647858,16.9673652 L96.343602,17.5566196 L96.2244722,17.8303678 L96.1423137,17.9881209 L96.0026442,18.148194 L95.5569342,18.4892191 L95.3967251,18.5796952 L95.2775953,18.6260932 L95.1564115,18.6028942 L95.0557673,18.5588161 L94.9756627,18.4660202 L94.8955582,18.3523451 L94.8154536,18.261869 L94.7353491,18.215471 L94.6347049,18.23867 L94.5340607,18.3291461 L94.1931029,19.2153476 L93.7330152,20.4170554 L93.1661214,21.8252343 L92.745059,22.959665 L92.6444148,23.1174181 L92.5458246,23.2542922 L92.3856155,23.2310932 L91.5619764,22.8251108 L90.5349949,22.3008136 L89.8325396,21.9597884 L89.7318954,21.9829874 L89.6333052,22.1198615 L88.9863069,23.6417154 L88.8671771,23.9363426 L88.8260978,24.2077708 L88.8260978,24.3655239 L88.7870725,24.548796 L88.7254536,24.7738262 L88.4646003,25.4349975 L88.4050354,25.7064257 L88.3844958,25.8873778 L88.4646003,27.611063 L88.4440607,27.7456171 L88.3639562,27.8848111 L88.2242867,28.0657632 L87.9428938,28.3603904 L87.764199,28.5900605 L87.5834503,28.8846877 L87.4622664,29.2697909 L87.4027015,29.4971411 L87.3821619,29.6989723 L87.3410826,30.7220479 L87.322597,30.8125239 L87.322597,31.063073 L87.1808735,32.1511058 L87.1213086,32.4898111 L87.0206644,32.7844383 L86.7372175,33.4456096 L86.3551804,34.3526902 L85.8129342,35.6703929 L85.7328297,35.7817481 L85.6321855,35.8745441 L85.4719764,35.8954232 L84.0834975,35.691272 L82.9209545,35.5335189 L81.893973,35.3734458 L80.8505599,35.2133728 L80.7909949,35.1924937 L80.7499157,35.1692947 L80.7704553,35.0556196 L80.8115346,34.8050705 L80.8115346,34.6032393 L80.7909949,34.5568413 L80.7108904,34.4222872 L79.624344,32.9468312 L79.5442395,32.8540353 L79.4620809,32.8076373 L79.402516,32.7844383 L77.5334098,32.422534 L77.3937403,32.445733 L77.2930961,32.6034861 L77.2129916,32.8540353 L77.1513727,33.3992116 L77.1719123,33.6961587 L77.1924519,33.9235088 L77.2335312,34.081262 L77.2520169,34.2622141 L77.2335312,34.4222872 L77.1719123,34.6705164 L76.8905194,35.3734458 L76.8905194,35.8954232 L77.0712681,37.143529 L77.0527825,37.326801 L76.9911636,37.5286322 L76.7303103,38.0970076 L76.6707454,38.3916348 L76.5906408,39.3242343 L76.5310759,39.5051864 L76.3297875,39.7093375 L75.9682901,39.9575668 L75.8881855,40.0712418 L75.8491602,40.252194 L75.8080809,40.5491411 L75.7279764,40.8205693 L75.5636594,41.1639144 L75.4835548,41.3889446 L75.5040944,41.6835718 L75.5636594,41.8668438 L75.6868971,42.138272 L75.748516,42.2728262 L75.7875413,42.4097003 L75.748516,42.6138514 L75.6868971,42.8180025 L75.4034503,43.3167809 L74.9823879,43.773801 L74.8221788,44.0220302 L74.4606813,44.7481587 L73.6390961,45.9730655 L73.5980169,46.1308186 L73.5774772,46.2932116 L73.6185565,46.5414408 L73.7192007,46.812869 L73.7192007,47.0170202 L73.5179123,48.7894232 L73.1933862,49.967932 L72.7312445,51.647539 L72.2095379,52.6450957 L71.2873086,54.3711008 L70.5622597,55.6864836 L69.9789342,56.8000353 L69.2579933,58.1130982 L69.2374536,58.2290932 L69.1778887,58.9575416 L69.1368094,59.1825718 L68.7321788,60.5652317 L68.2104722,62.3376348 L68.1693929,62.6531411 L68.2104722,62.7668161 L68.2515514,62.8340932 L68.2905767,62.8804912 L68.6109949,63.1078413 L68.8513086,63.2447154 L69.5373322,63.4720655 L69.6379764,63.5625416 L69.7386206,63.7202947 L69.7981855,63.9963627 L69.7796998,64.1773149 L69.7386206,64.335068 L69.5578718,64.5832972 L69.1778887,64.9684005 L68.8513086,65.2421486 L68.7321788,65.3558237 L68.5925093,65.5367758 L68.4117605,65.8337229 L68.3501417,66.0587531 L68.331656,66.2629043 L68.3501417,66.4020982 L68.3912209,66.5366524 L68.4507858,66.6503275 L68.55143,66.7408035 L68.8328229,66.8776776 L68.9355211,66.9913526 L68.9766003,67.3068589 L68.9355211,67.4878111 L68.8513086,67.6478841 L66.5221147,69.8030705 L65.9798685,70.575597 L65.8792243,70.7101511 L65.7600944,70.7797481 L65.6594503,70.8029471 L65.5382664,70.8029471 L65.4376223,70.758869 L65.3369781,70.6869521 L65.2568735,70.575597 L65.1973086,70.4387229 L65.176769,70.2809698 L65.1377437,70.0304207 L65.0966644,69.9167456 L65.0576391,69.8030705 L64.9569949,69.7125945 L64.7372209,69.6917154 L64.5749578,69.7125945 L64.0902226,69.8726675 L63.6095953,70.1672947 L62.8064958,70.8029471 L61.8596189,71.5522746 L60.1342901,73.2295617 L60.0541855,73.2991587 L59.8939764,73.3896348 L59.8097639,73.3896348 L59.7296594,73.3687557 L59.6700944,73.2991587 L59.6084755,73.1854836 L59.528371,73.0926877 L59.4277268,73.0254106 L59.3291366,73.0022116 L58.9265599,72.9813325 L58.8279696,72.9349345 L58.7663508,72.8444584 L58.7273255,72.5962292 L58.6862462,72.5266322 L58.6061417,72.4825542 L58.5260371,72.4593552 L57.9036863,72.4361562 L57.7249916,72.4593552 L57.5195953,72.5266322 L57.2382024,72.7075844 L57.0985329,72.8676574 L56.9978887,73.0022116 L56.9383238,73.1854836 L56.9177841,73.3455567 L56.8972445,73.5265088 L56.9177841,73.684262 L56.9383238,73.844335 L56.9978887,74.0044081 L57.4189511,74.5704635 L57.4600304,74.7305365 L57.4600304,74.9555668 L57.3778718,75.2965919 L57.2792816,75.4775441 L57.1991771,75.6352972 L55.9339359,76.8416448 L55.7942664,76.9089219 L55.6730826,76.9089219 L55.3095312,76.6815718 L55.1493221,76.6815718 L54.9480337,76.7511688 L54.4057875,77.2035491 L54.2250388,77.2940252 L52.0765936,78.0410327 L50.4868263,79.4051335 L50.2670523,79.5188086 L50.2054334,79.4956096 L50.1458685,79.4515315 L50.0863035,79.3610554 L49.9651197,79.1777834 L49.9055548,79.0664282 L49.8049106,78.9968312 L49.6036223,78.8599572 L48.3568668,78.2683829 L48.2562226,78.2011058 L48.0960135,78.0642317 L47.5743069,77.4749773 L47.4736627,77.3845013 L47.3339933,77.3172242 L47.1532445,77.3172242 L46.8718516,77.3845013 L46.7116425,77.5422544 L46.6315379,77.6791285 L46.5925126,77.8160025 L46.5124081,78.3379798 L46.4507892,78.56533 L46.3706847,78.8367582 L46.1673423,79.2241814 L46.0050793,79.4051335 L45.8654098,79.5188086 L45.0438246,79.7902368 L44.7213524,79.9503098 L44.5611433,80.084864 L44.4420135,80.221738 L43.5341619,81.7667909 L43.3944924,81.9245441 L43.252769,82.0382191 L42.751602,82.1727733 L41.424742,82.2864484 L41.1638887,82.2423703 L40.5620776,81.9013451 L39.7404924,81.6067179 L39.6193086,81.5394408 L39.4139123,81.3561688 L39.0544688,80.9246675 L38.9538246,80.8341914 L38.8531804,80.7413955 L38.713511,80.6741184 L38.5923272,80.6277204 L38.3910388,80.5836423 L37.9104115,80.6068413 L37.6290185,80.6741184 L37.3455717,80.6973174 L37.2654671,80.6741184 L36.9840742,80.5604433 L36.7622462,80.3794912 L36.6821417,80.2890151 L36.6020371,80.1753401 L36.3206442,79.6556826 L36.2425936,79.5420076 L36.1419494,79.4283325 L35.9201214,79.2705793 L34.7740101,78.655806 L34.6733659,78.56533 L34.5932614,78.4516549 L34.5131568,78.3147809 L34.4926172,78.1547078 L34.4515379,77.9969547 L34.4330523,77.2476272 L34.4125126,77.0898741 L34.391973,76.9321209 L34.3324081,76.7720479 L34.2707892,76.6374937 L34.2112243,76.5238186 L34.1311197,76.4310227 L34.0304755,76.3637456 L33.1883508,75.9554433 L33.0877066,75.8649673 L33.0281417,75.7489723 L33.007602,75.6120982 L33.0486813,75.4543451 L33.0877066,75.34067 L33.5498482,74.7978136 L33.5498482,74.7746146 L33.5703879,74.7073375 L33.5703879,74.5704635 L33.5909275,74.4127103 L33.5498482,74.2317582 L33.508769,74.0948841 L33.4286644,73.9580101 L33.3485599,73.8652141 L33.1287858,73.684262 L32.1018044,75.0460428 L30.5120371,77.113073 L29.3885194,78.6094081 L27.6200573,80.9246675 L26.0118044,83.0125768 L25.5496627,83.4904761 L24.1262664,84.6249068 L22.5570388,85.8730126 L20.4681585,87.5294207 L19.5459292,88.5292972 L19.2008634,89.0280756 L19.05914,89.3459018 L19.0796796,89.5500529 L19.2193491,90.0024332 L19.3405329,90.6612846 L19.3405329,91.0255088 L19.2994536,91.206461 L19.1803238,91.4778892 L18.9790354,91.6843602 L17.2352209,93.0670202 L16.7689713,93.5889975 L16.5882226,93.8836247 L16.508118,94.1596927 L16.567683,94.635272 L16.6087622,94.7930252 L16.6683272,95.1317305 L16.6888668,95.5864307 L16.6888668,95.7441839 L16.6477875,95.901937 L16.6293019,96.06433 L16.567683,96.1988841 L16.4875784,96.3357582 L16.1876998,96.5839874 L14.9635379,97.3797128 L13.7167825,98.1963174 L12.7945531,98.3772695 L12.6528297,98.4445466 L12.5480776,98.5373426 L12.1865801,99.126597 L11.9072411,100.170552 L11.806597,100.465179 L11.5868229,100.829403 L11.5457437,100.940758 L11.5457437,101.056753 L11.6258482,101.328181 L11.6463879,101.488254 L11.6258482,101.622809 L11.5046644,101.762003 L11.3444553,101.896557 L9.19395616,102.666763 L7.08453626,103.870791 L6.30197639,104.552841 L6.06166273,104.870668 L5.92199325,105.005222 L5.69605734,105.118897 L3.65031029,105.708151 L1.8613086,106.824023 L1.72163912,106.868101 L1.31700843,107.162728 L0.493369309,108.227562 L2.74451265,107.865657 L4.99565599,107.503753 L9.4958887,106.754426 L11.747032,106.390202 L13.9961214,106.002778 L16.2472648,105.617675 L18.4984081,105.232572 L20.7474975,104.847469 L22.9986408,104.462365 L25.2497841,104.074942 L27.5009275,103.689839 L29.7315312,103.279217 L31.9806206,102.894113 L34.2317639,102.485811 L36.4829073,102.100708 L37.5283744,101.896557 L37.6885835,101.785202 L38.0911602,101.237705 L38.2719089,101.147229 L38.4526577,101.103151 L39.9397268,100.89668 L41.7656998,100.625252 L43.7950152,100.330625 L43.9757639,100.646131 L44.0764081,100.715728 L44.2407251,100.736607 L44.7213524,100.646131 L48.4759966,99.9664005 L52.2552884,99.309869 L56.0140405,98.6046196 L59.7707386,97.9016902 L63.5479764,97.2219597 L67.3087825,96.5167103 L71.0634266,95.7905819 L74.8221788,95.0644534 L78.5809309,94.3406448 L82.335575,93.6121965 L86.0943272,92.862869 L89.8530793,92.1158615 L93.6118314,91.3642141 L97.3664755,90.5916877 L101.125228,89.8214811 L104.88398,89.0489547 L108.620138,88.2764282 L112.37889,87.4853426 L116.117103,86.691937 L119.871747,85.8962116 L123.630499,85.0772872 L127.370766,84.2630025 L131.10487,83.4440781 L134.863622,82.6042746 L138.601835,81.7667909 L142.337993,80.9246675 L146.076206,80.084864 L149.83085,79.2241814 L153.571116,78.3611788 L157.309329,77.4981763 L161.043433,76.6374937 L164.200374,75.8649673 L164.76316,75.7257733 L164.641976,75.4775441 L164.502307,75.2733929 L164.360583,75.0460428 L164.261993,74.6377406 L165.163683,75.6352972 L166.151639,75.4079471 L166.11056,75.363869 L165.629933,73.774738 L165.323892,70.6428741 L165.364971,70.3018489 L165.609393,70.2809698 L165.890786,70.4155239 L166.071535,70.552398 L166.270769,70.8493451 L167.133433,72.8444584 L167.273103,73.0254106 L167.595575,73.3455567 L167.735245,73.5497078 L167.794809,73.9116121 L167.77427,74.2526373 L167.815349,74.5936625 L168.000206,74.9555668 L168.281599,74.8882897 L168.581477,74.8210126 L168.12139,73.6401839 L164.88229,67.6710831 L164.88229,67.6710831 Z" id="Stroke-12" stroke="#F9F9F9" stroke-width="0.25" stroke-linecap="round" stroke-linejoin="round"></path>
            </g>
        </g>
    </g>
</svg>