<?xml version="1.0" encoding="UTF-8"?>
<svg width="192px" height="95px" viewBox="0 0 192 95" version="1.1" xmlns="http://www.w3.org/2000/svg" xmlns:xlink="http://www.w3.org/1999/xlink">
    <!-- Generator: Sketch 51 (57462) - http://www.bohemiancoding.com/sketch -->
    <title>North Carolina</title>
    <desc>Created with Sketch.</desc>
    <defs></defs>
    <g id="Page-1" stroke="none" stroke-width="1" fill="none" fill-rule="evenodd">
        <g id="A5" transform="translate(-945.000000, -397.000000)">
            <g id="North-Carolina" transform="translate(945.000000, 397.000000)">
                <path d="M145.535828,91.1741285 L145.274975,90.9467783 L144.934017,90.9931763 L144.632084,91.2878035 L144.55198,91.807461 L144.732728,92.1020882 L145.094226,92.2157632 L145.476263,92.2830403 L145.755602,92.4199144 L145.876786,92.1020882 L145.995916,90.1974509 L145.657012,90.9931763 L145.535828,91.1741285 L145.535828,91.1741285 Z M146.823663,82.228597 L146.683993,83.0243224 L146.663454,83.9337229 L146.579241,84.7271285 L146.823663,84.2956272 L147.022897,83.5254207 L147.203646,82.0244458 L147.244725,81.9803678 L147.30429,81.9803678 L147.345369,81.9339698 L147.30429,81.7762166 L146.823663,82.228597 L146.823663,82.228597 Z M155.199723,69.1791637 L154.437703,69.9516902 L154.055666,70.1790403 L153.694169,70.4063904 L151.243791,73.1531511 L150.617332,74.2411839 L150.377019,75.3083375 L150.658411,74.7840403 L152.488492,71.9723224 L152.767831,71.7681713 L153.453855,71.383068 L155.039514,69.8844131 L155.499602,69.2023627 L155.561221,69.1582846 L155.645433,69.1350856 L155.665973,69.0886877 L155.624894,68.9541335 L155.199723,69.1791637 L155.199723,69.1791637 Z M172.301019,60.7161713 L172.040165,60.5584181 L170.411373,60.3055491 L169.969771,60.4192242 L170.01085,60.6256952 L170.292243,60.7393703 L171.479433,60.9203224 L172.422202,61.4191008 L172.520793,61.5095768 L172.802185,61.2590277 L172.641976,60.9644005 L172.301019,60.7161713 L172.301019,60.7161713 Z M168.100664,60.0573199 L164.627413,61.4863778 L161.328749,63.0082317 L160.788556,63.439733 L160.486624,63.9825894 L166.130914,60.9875995 L166.67316,60.7834484 L169.349474,60.3519471 L169.308395,60.147796 L168.100664,60.0573199 L168.100664,60.0573199 Z M177.76456,51.0236322 L177.485221,51.3855365 L177.384577,51.6801637 L177.283933,51.9075139 L176.501373,52.8377935 L174.771936,56.0392544 L173.104118,61.3286247 L172.962395,62.2797834 L173.264327,62.8249597 L173.344432,61.9619572 L175.073868,56.1761285 L175.979666,54.3596474 L176.320624,53.9513451 L176.741686,53.5430428 L177.583811,51.9539118 L178.089086,51.3855365 L178.370479,50.4575768 L178.109626,50.661728 L177.76456,51.0236322 L177.76456,51.0236322 Z M180.440874,45.894335 L180.340229,46.0080101 L180.317636,46.3026373 L180.196452,46.5531864 L180.056782,46.7550176 L180.015703,46.9382897 L179.956138,47.3929899 L179.452917,48.3464685 L179.292708,48.7315718 L179.434432,48.7083728 L179.654206,48.0518413 L181.022145,46.3699144 L181.10225,46.3258363 L181.163868,46.2794383 L181.223433,46.2121612 L181.282998,46.0984861 L180.742806,45.917534 L180.440874,45.894335 L180.440874,45.894335 Z M183.994229,42.4214458 L183.012435,43.6022746 L182.466081,44.0314559 L181.944374,43.9873778 L181.905349,44.8271814 L181.825245,45.2122846 L181.623956,45.5788287 L183.655325,43.1707733 L185.462813,41.8762695 L185.785285,41.3102141 L186.085164,41.0155869 L186.185808,40.8346348 L186.265912,40.5840856 L185.723666,41.1501411 L183.994229,42.4214458 L183.994229,42.4214458 Z M190.926354,29.8035139 L190.887329,27.3977783 L190.566911,26.1937506 L189.864455,24.7646927 L189.683707,24.1731184 L189.502958,23.5397859 L189.178432,22.7904584 L188.757369,22.154806 L188.295228,21.8578589 L188.135019,22.06433 L188.375332,22.5839874 L188.938118,23.4933879 L189.098327,24.0594433 L190.084229,26.1032746 L190.466266,27.3073023 L190.626476,28.0102317 L190.626476,28.3512569 L190.466266,29.0750655 L190.445727,29.4392897 L190.525831,29.7803149 L190.747659,30.3254912 L190.827764,30.6433174 L190.926354,31.3230479 L190.926354,32.4342796 L191.047538,33.5919093 L191.088617,35.1137632 L191.026998,35.5220655 L191.207747,36.4291461 L190.747659,37.1111965 L189.363288,38.0878741 L188.155558,39.2199849 L188.075454,39.2663829 L188.034374,39.1991058 L187.995349,39.1086297 L187.915245,39.0622317 L187.8146,39.1527078 L187.794061,39.2895819 L187.8146,39.447335 L187.794061,39.5378111 L187.713956,39.700204 L187.693417,39.8579572 L187.613312,39.9716322 L187.412024,40.0621083 L187.251815,40.2430605 L187.091605,40.4936096 L187.091605,40.6977607 L187.313433,40.7209597 L187.494182,40.6304836 L187.713956,40.2894584 L187.83514,40.1734635 L188.155558,39.9925113 L188.897039,39.3568589 L189.342749,39.1527078 L190.065744,38.5193753 L190.747659,38.3825013 L190.967433,38.2920252 L191.287852,37.8837229 L191.409035,37.3385466 L191.48914,34.9328111 L190.926354,29.8035139 L190.926354,29.8035139 Z M184.797329,19.0438212 L184.435831,18.6123199 L184.355727,18.3640907 L184.195518,18.2504156 L184.035309,18.1599395 L183.694351,18.0926625 L183.513602,18.0253854 L183.314368,17.9557884 L183.113079,17.9789874 L182.932331,18.0694635 L182.790607,18.2968136 L182.872766,18.4313678 L183.032975,18.5218438 L183.193184,18.6587179 L183.433497,18.9533451 L184.195518,19.5681184 L184.456371,19.9972997 L184.678199,20.5424761 L184.922621,20.9739773 L185.282064,21.1108514 L185.684641,20.9739773 L185.723666,20.8162242 L185.664101,20.521597 L185.764745,19.9300227 L184.797329,19.0438212 L184.797329,19.0438212 Z M187.153224,21.0644534 L187.251815,21.2454055 L187.432563,21.3150025 L187.874165,21.4054786 L188.075454,21.4959547 L187.069012,19.8836247 L186.60687,18.7051159 L182.005993,12.555063 L180.479899,9.7155063 L179.574101,8.40012343 L179.393352,7.94774307 L179.212604,7.2424937 L178.99283,6.6509194 L178.430044,5.51880856 L176.602017,0.841891688 L176.581477,0.821012594 L176.281599,0.888289673 L176.000206,0.955566751 L176.020745,1.00196474 L176.039231,1.15971788 L176.521912,2.13639547 L176.88341,3.11307305 L177.322958,3.74640554 L177.503707,4.24518388 L177.945309,4.90403526 L178.089086,5.27057935 L178.610793,7.17521662 L178.912725,7.97094207 L178.871646,7.97094207 L178.812081,8.03821914 L178.791541,8.15189421 L178.892185,8.28644836 L179.253683,8.58107557 L180.136887,9.76190428 L180.541518,10.6921839 L181.022145,11.4855894 L181.422668,12.3253929 L181.463747,13.1002393 L181.504826,13.3020705 L181.763626,13.7567708 L181.985454,14.2555491 L182.225767,14.7102494 L182.611912,14.9352796 L182.811147,14.6638514 L183.05146,14.7775264 L183.293828,15.1208715 L183.493062,15.5732519 L183.012435,15.8678791 L182.831686,15.8678791 L182.591373,15.5964509 L182.591373,16.1393073 L182.872766,16.4339345 L183.232209,16.5012116 L183.474577,16.2297834 L183.614246,16.2065844 L185.524432,18.0926625 L186.005059,18.7955919 L186.265912,19.8395466 L186.485686,20.3406448 L187.027933,20.5656751 L187.112145,20.7930252 L187.153224,21.0644534 L187.153224,21.0644534 Z M174.030455,2.11319647 L174.151639,2.52381864 L174.311848,2.93212091 L174.792476,2.99939798 L175.67568,2.79524685 L175.879022,2.6606927 L175.839997,2.45654156 L175.696219,2.20367254 L175.575035,1.93224433 L175.394287,1.13651889 L175.394287,1.1156398 L175.01225,1.20611587 L174.671292,1.29659194 L174.552162,1.50074307 L174.291309,1.59121914 L174.151639,1.4079471 L173.163683,1.63529723 L173.344432,1.86496725 L174.030455,2.11319647 L174.030455,2.11319647 Z M181.504826,28.7595592 L181.86427,29.2560176 L182.287386,29.4160907 L182.772121,29.0309874 L182.831686,29.1214635 L182.891251,29.1887406 L182.932331,29.2792166 L182.971356,29.3928917 L182.831686,29.4833678 L182.566725,29.7130378 L182.611912,29.9171889 L183.273288,29.7339169 L183.554681,29.5993627 L183.753916,29.3928917 L183.774455,29.2119395 L183.673811,28.9405113 L183.655325,28.6899622 L183.83402,28.5554081 L184.014769,28.464932 L184.115413,28.3280579 L184.195518,28.1703048 L184.376266,27.4650554 L184.296162,27.1704282 L183.634786,26.4419798 L183.314368,25.9664005 L183.273288,25.7413703 L183.774455,25.5604181 L184.316702,25.4467431 L184.355727,25.2193929 L184.216057,24.5837406 L184.035309,24.1963174 L183.634786,23.7416171 L183.513602,23.4701889 L183.534142,22.9946096 L183.634786,22.5399093 L183.71489,22.06433 L183.614246,21.5168338 L183.474577,21.3358816 L182.991895,20.8162242 L182.911791,20.4311209 L181.523312,18.816471 L180.761292,18.1367406 L179.915059,17.7516373 L179.956138,18.0462645 L179.935599,18.3200126 L179.894519,18.5914408 L179.814415,18.862869 L180.075268,18.7955919 L180.317636,18.7955919 L180.562057,18.886068 L180.802371,19.0438212 L180.420334,19.3848463 L179.935599,19.4057254 L179.434432,19.2920504 L178.97229,19.2711713 L179.153039,19.6353955 L179.434432,19.9741008 L179.73431,20.2269698 L180.216992,20.3406448 L180.317636,20.5424761 L180.317636,20.7466272 L180.136887,20.8835013 L179.995164,20.8835013 L179.413892,20.6793501 L178.85316,20.1132947 L178.471123,19.8163476 L178.349939,19.9532217 L178.230809,20.2269698 L177.62489,20.9507783 L177.503707,21.2454055 L178.230809,24.9224458 L178.310914,25.9455214 L178.006927,28.4858111 L177.865204,28.5322091 L177.725535,28.3280579 L177.62489,28.1703048 L177.583811,28.0566297 L177.583811,27.9661537 L177.00254,28.2607809 L176.441808,28.441733 L175.879022,28.3280579 L175.355261,27.6715264 L175.858482,27.5323325 L176.622556,27.6460076 L177.304472,27.6460076 L177.583811,27.1031511 L177.444142,27.0335542 L177.142209,26.7366071 L176.963514,26.3979018 L177.162749,26.1705516 L177.242853,25.9664005 L177.082644,25.6508942 L176.801251,25.333068 L176.581477,25.196194 L176.741686,25.1753149 L176.421268,25.2193929 L176.039231,25.2193929 L175.67568,25.126597 L175.373747,24.9920428 L175.153973,24.7182947 L175.414826,24.6510176 L176.039231,24.7414937 L176.622556,24.3772695 L176.581477,23.583864 L176.160415,22.8136574 L175.595575,22.4726322 L175.554496,22.2684811 L176.000206,22.041131 L176.300084,21.4959547 L176.462347,20.7930252 L176.521912,20.1132947 L176.240519,20.2501688 L175.554496,20.7466272 L175.533956,19.6794736 L175.714705,19.3384484 L176.240519,19.5217204 L176.201494,19.0206222 L175.696219,18.6819169 L175.032789,18.5009647 L174.490543,18.4777657 L172.481767,19.1574962 L170.692766,20.2501688 L170.292243,20.8162242 L170.553096,21.0876524 L171.054263,21.2686045 L171.399329,21.5864307 L170.852975,21.6769068 L169.850641,21.4263577 L169.36796,21.4495567 L169.148185,21.6073098 L169.004408,21.8578589 L168.862685,21.9738539 L168.681936,21.811461 L168.642911,21.6537078 L168.642911,21.3822796 L168.622371,21.0644534 L168.482702,20.7930252 L167.720681,20.7257481 L166.632081,21.2686045 L165.588668,22.06433 L165.007396,22.7231814 L164.847187,22.7695793 L164.241268,22.6999824 L161.269184,23.4029118 L161.228105,23.1987607 L161.749811,21.811461 L161.79089,21.3590806 L161.470472,21.3822796 L161.349288,21.1549295 L161.289723,20.7930252 L161.16854,20.4543199 L160.948766,20.2501688 L160.726938,20.0877758 L160.507164,19.8627456 L160.207285,19.0438212 L159.780061,18.4545668 L159.660931,18.1367406 L159.299433,16.1625063 L159.278894,15.5268539 L159.379538,14.9352796 L159.619852,14.2996272 L159.901245,13.8240479 L159.981349,13.5526196 L159.960809,13.1443174 L159.82114,12.8960882 L159.340513,12.485466 L159.139224,12.1676398 L159.660931,12.2581159 L160.125126,12.462267 L160.406519,12.9633652 L160.367494,13.8240479 L160.26685,14.1418741 L160.022428,14.6197733 L159.981349,14.9584786 L159.921784,16.3666574 L160.207285,17.1159849 L160.948766,18.3408917 L161.571116,19.8836247 L162.090769,20.3174458 L162.598098,20.1805718 L162.817872,19.4057254 L163.078725,19.5889975 L163.881825,20.5424761 L164.161164,20.612073 L164.561686,20.5424761 L165.288789,20.3174458 L165.789956,20.0204987 L166.412307,19.4985214 L166.997686,18.816471 L167.338644,18.1158615 L167.11887,18.1599395 L167.057251,18.1831385 L166.997686,17.9557884 L167.318105,17.6611612 L169.409039,16.7285617 L169.349474,16.5012116 L168.924304,16.5012116 L168.281413,16.3434584 L167.659062,16.0952292 L167.379723,15.8446801 L167.219514,15.61733 L166.352742,15.3227028 L166.151454,15.1417506 L165.93168,14.8912015 L165.508563,14.2555491 L165.950165,14.4597003 L166.412307,14.7543275 L166.833369,14.9144005 L167.157895,14.7334484 L167.640577,15.2786247 L168.322492,15.5732519 L170.79341,16.1393073 L171.33771,16.1393073 L171.840931,15.8910781 L171.820391,15.7101259 L171.33771,15.4154987 L170.351808,14.3924232 L170.070415,14.2091511 L169.850641,14.165073 L169.610327,14.028199 L169.388499,13.8008489 L169.24883,13.5526196 L169.148185,13.1443174 L169.287855,13.1443174 L169.690432,13.4389446 L170.411373,13.8240479 L170.612661,13.8704458 L170.79341,14.005 L171.274037,14.5965743 L172.040165,14.8912015 L172.280479,14.9352796 L172.502307,14.9144005 L173.163683,14.7102494 L173.124658,14.5292972 L172.982934,14.5733753 L172.943909,14.3460252 L173.710037,14.0722771 L173.929811,13.9145239 L174.330334,13.4621436 L174.430978,13.2115945 L174.170125,13.1907154 L173.890786,13.1002393 L173.54572,12.439068 L172.962395,12.2581159 L172.662516,11.9634887 L172.200374,11.3278363 L171.820391,11.0564081 L171.315116,10.7617809 L170.77287,10.5576297 L170.271703,10.5344307 L170.171059,10.3975567 L170.210084,10.0147733 L170.331268,9.60415113 L170.512017,9.4 L170.79341,9.42319899 L170.832435,9.62503023 L170.733845,9.87557935 L170.553096,10.0356524 L171.760826,10.1261285 L172.140809,10.2630025 L172.662516,10.5808287 L173.124658,10.9868111 L173.323892,11.1004861 L173.749062,11.1236851 L173.950351,11.2373602 L174.632266,12.0098866 L175.094408,12.3485919 L175.575035,12.4181889 L176.039231,12.3717909 L177.64543,12.531864 L177.604351,12.3253929 L177.263393,12.2581159 L176.901895,12.1003627 L176.240519,11.6224635 L176.480833,11.3510353 L176.361703,10.896335 L176.10085,10.3766776 L175.696219,9.30720403 L175.453852,9.0798539 L175.174513,8.94529975 L174.89312,8.53699748 L175.314182,8.4674005 L175.67568,8.60427456 L176.361703,9.03577582 L176.180954,9.64822922 L176.341164,9.87557935 L176.682121,9.96605542 L177.043619,10.1261285 L177.142209,10.3070806 L177.242853,10.7385819 L177.322958,10.919534 L177.485221,11.0332091 L178.045953,11.3719144 L178.411558,11.7802166 L178.592307,12.1003627 L178.711437,12.3717909 L178.692951,12.6246599 L178.651872,12.8960882 L178.672411,13.1675164 L178.832621,13.4157456 L179.553562,14.165073 L179.995164,14.5292972 L180.399794,14.6429723 L180.761292,14.3669043 L180.562057,13.8704458 L180.136887,13.2811914 L179.855494,12.7360151 L179.674745,12.3045139 L177.844664,9.14713098 L177.684455,8.7852267 L177.444142,8.35604534 L176.521912,7.30977078 L176.240519,6.90378841 L176.08031,5.51880856 L175.879022,4.72308312 L175.614061,4.81355919 L175.575035,5.45153149 L175.494931,5.83663476 L175.414826,5.83663476 L175.51547,6.13126196 L175.65514,6.3354131 L175.839997,6.53724433 L176.08031,6.74139547 L175.554496,6.49316625 L174.87258,5.85751385 L174.472057,5.20098237 L174.813015,4.90403526 L174.270769,4.67900504 L173.710037,4.29158186 L173.223248,3.79280353 L172.943909,3.2476272 L172.863804,2.75116877 L172.863804,2.15959446 L172.802185,1.79537028 L172.76316,1.7257733 L172.200374,1.86496725 L169.043433,2.6374937 L165.309329,3.49817632 L161.571116,4.36117884 L157.83085,5.22418136 L154.076206,6.08486398 L150.337993,6.92466751 L146.601835,7.76679093 L142.863622,8.60427456 L139.10487,9.44407809 L135.370766,10.2630025 L131.630499,11.0772872 L127.871747,11.8962116 L124.117103,12.691937 L120.37889,13.4853426 L116.620138,14.2764282 L112.88398,15.0489547 L109.125228,15.8214811 L105.366476,16.5916877 L101.611831,17.3642141 L97.8530793,18.1158615 L94.0943272,18.862869 L90.335575,19.6121965 L86.5809309,20.3406448 L82.8221788,21.0644534 L79.0634266,21.7905819 L75.3087825,22.5167103 L71.5479764,23.2219597 L67.7707386,23.9016902 L64.0140405,24.6046196 L60.2552884,25.309869 L56.4759966,25.9664005 L52.7213524,26.646131 L52.2407251,26.7366071 L52.0764081,26.715728 L51.9757639,26.646131 L51.7950152,26.3306247 L51.0535346,28.418534 L50.9528904,29.0750655 L51.0124553,29.2119395 L51.4335177,29.8707909 L51.474597,30.1422191 L51.2938482,31.3230479 L50.9323508,32.6848287 L50.8933255,32.9817758 L50.8933255,33.185927 L50.9528904,33.299602 L51.252769,33.7751814 L51.6142664,34.1811637 L51.694371,34.3180378 L51.7744755,34.4549118 L51.7354503,34.5685869 L51.6348061,34.6149849 L50.9528904,34.6381839 L49.7451602,34.4085139 L49.644516,34.4317128 L49.5459258,34.4989899 L48.040371,36.0904408 L47.5350961,36.7469723 L47.4549916,36.8815264 L45.9699764,41.9203476 L45.8303069,42.2172947 L45.6495582,42.4678438 L45.4482698,42.625597 L45.1442833,43.0362191 L44.9635346,43.2403703 L44.7827858,43.3517254 L44.6431164,43.3981234 L44.4623676,43.3981234 L44.1214098,43.3517254 L43.9612007,43.3076474 L43.720887,43.1707733 L43.6202428,43.0594181 L43.5586239,42.9457431 L43.5195987,42.808869 L43.4785194,42.648796 L43.4189545,42.5119219 L43.3593895,42.3982469 L43.279285,42.3077708 L43.1786408,42.2404937 L43.0533491,42.1940957 L42.9136796,42.1940957 L42.611747,42.2404937 L42.4515379,42.2404937 L42.3324081,42.1940957 L42.1105801,42.0572217 L41.9914503,42.0340227 L41.9113457,42.0572217 L41.7901619,42.1012997 L41.5703879,42.2636927 L40.9685767,42.9457431 L40.8638246,43.0362191 L40.401683,43.1034962 L40.2209342,43.1498942 L39.7197673,43.5558766 L38.9988263,43.9201008 L38.7975379,44.0546549 L38.4730118,44.328403 L38.132054,44.7367053 L37.5097032,45.7597809 L37.3289545,46.1448841 L37.1482057,46.9150907 L37.0886408,47.1192418 L36.7682226,47.7780932 L36.6264992,48.0054433 L36.5073693,48.1655164 L36.4272648,48.2559924 L36.3430523,48.3232695 L35.4393086,49.2071511 L35.2585599,49.3440252 L35.1188904,49.4113023 L34.9792209,49.4345013 L34.8374975,49.4113023 L34.697828,49.3649043 L34.5766442,49.2976272 L34.4575143,49.1839521 L34.3774098,49.0934761 L34.2973052,48.979801 L34.1124486,48.5946977 L34.0713693,48.4369446 L34.0508297,48.2559924 L34.0713693,48.0286423 L34.1350422,47.6180202 L34.1555818,47.483466 L34.1350422,47.3929899 L34.0919089,47.3257128 L33.6503069,46.8014156 L33.5496627,46.7341385 L33.3894536,46.7109395 L33.1902192,46.8014156 L32.2474503,47.5739421 L31.7401214,47.8940882 L30.378344,49.0702771 L30.3578044,49.1166751 L30.3167251,49.2071511 L30.3167251,49.3208262 L30.378344,49.7523275 L30.3578044,49.9124005 L30.3167251,50.0469547 L30.0969511,50.4111788 L30.0373862,50.684927 L30.0168465,50.8658791 L29.9162024,51.1141083 L29.7950185,51.2277834 L29.6553491,51.2950605 L29.5300573,51.2741814 L29.269204,51.0932292 L28.9487858,50.8890781 L28.6489073,50.798602 L28.4476189,50.775403 L28.2278449,50.8194811 L27.9053727,50.9563552 L27.7451636,51.0932292 L27.6260337,51.2277834 L27.5459292,51.4992116 L27.5048499,51.6801637 L27.5048499,51.8611159 L27.5253895,52.0211889 L27.5644148,52.1789421 L27.6260337,52.318136 L27.886887,52.7705164 L27.9053727,52.9329093 L27.8663474,53.1138615 L27.665059,53.5198438 L27.6260337,53.6567179 L27.6260337,53.9745441 L27.6054941,54.1322972 L27.5253895,54.4269244 L27.1002192,55.4291209 L26.6586172,56.2666045 L26.4984081,56.4243577 L26.3772243,56.4939547 L26.0362664,56.4475567 L25.1099292,56.5148338 L24.8490759,56.4707557 L24.729946,56.5148338 L24.6293019,56.5844307 L23.5653491,57.4474332 L22.8382462,57.8325365 L22.6780371,57.9485315 L22.5589073,58.0598866 L22.1173052,58.7628161 L21.9160169,58.9437683 L21.3943103,59.2847935 L21.2341012,59.3984685 L21.135511,59.5330227 L21.0738921,59.6698967 L20.6733693,60.261471 L20.3283035,61.0339975 L20.1865801,61.1244736 L20.026371,61.1685516 L19.8661619,61.1453526 L19.6669275,61.1685516 L19.4450995,61.2590277 L19.2643508,61.3959018 L18.9850118,61.804204 L18.7837234,62.1429093 L18.5434098,62.4398564 L17.4363238,63.2123829 L17.255575,63.393335 L17.1343912,63.5534081 L16.9536425,63.9153123 L16.5325801,64.5277657 L16.3929106,64.6855189 L16.2717268,64.775995 L14.8832479,65.3443703 L14.7230388,65.3675693 L14.5628297,65.3443703 L14.4436998,65.2770932 L14.322516,65.1866171 L14.2033862,65.0961411 L14.0411231,65.0729421 L13.8377808,65.0961411 L13.4167184,65.3211713 L13.1764047,65.3907683 L12.9751164,65.4348463 L12.8539325,65.4116474 L12.7142631,65.4116474 L12.5725396,65.4580453 L12.4328702,65.5044433 L12.2315818,65.6413174 L12.1514772,65.6645164 L12.0713727,65.6853955 L11.2847049,65.7317935 L11.1450354,65.7549924 L10.723973,65.9591436 L10.3234503,66.2073728 L9.84076897,66.6597531 L9.54089039,67.0239773 L9.3354941,67.1817305 L9.17528499,67.2954055 L8.49336931,67.5923526 L8.15241147,67.7965038 L7.97166273,67.9542569 L7.87101855,68.0934509 L7.61016526,68.9750126 L7.53006071,69.1350856 L7.39039123,69.3833149 L7.25072175,69.5201889 L6.38394941,70.0212872 L6.20320067,70.1790403 L6.0635312,70.3599924 L5.64041484,71.0420428 L5.60138954,71.2021159 L5.56031029,71.313471 L5.56031029,71.5408212 L5.72257336,71.9259244 L5.74105902,72.0604786 L5.74105902,72.2437506 L5.72257336,72.4038237 L5.6814941,72.5615768 L5.38161551,73.2436272 L5.34053626,73.4245793 L5.28097133,73.7192065 L5.28097133,73.9001587 L5.36107589,74.8745164 L5.299457,75.1505844 L5.13924789,75.4452116 L4.77569646,75.9903879 L4.59494772,76.2386171 L4.45322428,76.3754912 L4.37311973,76.3986902 L3.81238786,76.4891662 L2.64984486,76.8278715 L2.32326476,76.8742695 L2.18359528,76.8742695 L2.06241147,76.8278715 L1.94328162,76.7605945 L1.74199325,76.5796423 L1.60232378,76.5564433 L1.42157504,76.5796423 L1.10115683,76.7605945 L0.938893761,76.8974685 L0.819763912,77.0320227 L0.478806071,77.5099219 L0.273409781,77.9182242 L0.172765599,78.2151713 L0.133740304,78.3520453 L0.133740304,78.6002746 L0.172765599,79.6419093 L0.234384486,80.7786599 L0.314489039,82.481466 L0.374053963,83.9337229 L0.458266442,85.3627809 L2.10349073,85.0681537 L3.7713086,84.7712065 L5.44118044,84.4765793 L7.08640472,84.1819521 L8.7542226,83.8873249 L12.0713727,83.2771914 L13.7371366,82.9802443 L15.3864688,82.6856171 L17.0542867,82.365471 L18.7036189,82.0708438 L20.3673288,81.7530176 L22.0372007,81.4375113 L23.6865329,81.1428841 L25.3338111,80.8250579 L26.999575,80.5049118 L27.4042057,80.4376348 L33.4900978,76.8974685 L34.1761214,76.6028413 L34.2973052,76.8278715 L34.3979494,76.9183476 L34.5766442,76.9647456 L34.6772884,76.9183476 L34.8580371,76.7605945 L35.0778111,76.5332443 L35.5604924,76.1249421 L35.7617808,75.8999118 L35.9014503,75.6725617 L35.9425295,75.3315365 L35.9815548,75.1505844 L36.1027386,74.9905113 L36.301973,74.9464332 L36.5463946,74.9232343 L36.7271433,74.8536373 L36.9078921,74.7167632 L37.5898078,74.1739068 L38.6578685,73.5614534 L38.7975379,73.4941763 L39.6006374,73.3341033 L39.7608465,73.2668262 L39.8614907,73.1763501 L39.9415953,73.0371562 L40.0812648,72.8353249 L40.2209342,72.7448489 L41.007602,72.6079748 L41.1678111,72.4942997 L41.2684553,72.3574257 L41.3300742,71.8795264 L41.4101788,71.6985743 L41.5293086,71.5176222 L41.8107015,71.222995 L41.9709106,71.1325189 L42.1105801,71.1093199 L42.2112243,71.1789169 L42.2707892,71.2693929 L42.4125126,71.4271461 L42.4720776,71.4944232 L42.5521821,71.5408212 L42.6528263,71.5640202 L44.2816189,71.0884408 L45.8693322,70.9051688 L46.0706206,70.8610907 L46.6724317,70.7938136 L47.6193086,70.6801385 L48.8640101,70.5177456 L50.3510793,70.3367935 L52.0353288,70.1349622 L53.8654098,69.8844131 L55.8351602,69.6547431 L57.8459899,69.3833149 L59.8547656,69.1118866 L61.8635413,68.8636574 L63.7737268,68.6131083 L65.5586206,68.3648791 L67.1874132,68.160728 L68.5758921,67.9774559 L69.7199494,67.8173829 L71.0878887,67.6364307 L71.3692816,67.6364307 L71.5479764,67.6828287 L71.6691602,67.7733048 L71.7698044,67.8637809 L71.8499089,67.9542569 L71.9094739,68.0702519 L71.9710927,68.204806 L71.9895784,68.3648791 L72.010118,68.5458312 L71.9710927,68.7035844 L71.8293693,69.3160378 L71.8088297,69.4505919 L71.8088297,69.7011411 L71.8499089,69.8148161 L71.9094739,69.9516902 L72.010118,70.0885642 L72.1107622,70.2022393 L72.2709713,70.3159144 L72.3962631,70.2927154 L72.5153929,70.2254383 L74.1010523,68.4089572 L74.2201821,68.2952821 L74.3208263,68.2952821 L74.4009309,68.3184811 L74.4810354,68.3880781 L75.4874772,69.4297128 L76.9355211,70.9747657 L78.100118,72.2205516 L78.2192479,72.3806247 L78.2603272,72.5615768 L78.6608499,75.6957607 L78.7019292,75.8999118 L78.7820337,76.080864 L78.9217032,76.217738 L79.1024519,76.2386171 L79.9897639,76.080864 L80.2300776,76.034466 L80.9119933,75.9231108 L81.9985396,75.7421587 L83.4034503,75.4892897 L85.0527825,75.1946625 L86.9218887,74.8745164 L88.8916391,74.5126121 L90.9414941,74.1507078 L92.9913491,73.7888035 L94.9610995,73.4477783 L96.8055582,73.109073 L98.47543,72.8121259 L99.861855,72.5615768 L100.946347,72.3574257 L101.652911,72.2205516 L101.893224,72.1741537 L102.714809,72.0395995 L103.396725,72.0395995 L103.862975,72.1068766 L104.705099,72.765728 L106.413997,74.1275088 L108.118786,75.4892897 L109.827683,76.8278715 L113.266017,79.5514332 L116.700243,82.251796 L118.42968,83.5926977 L120.157062,84.9521587 L121.886499,86.3162594 L123.591288,87.6548413 L127.050162,90.3343249 L128.798084,91.6729068 L130.523413,93.0114887 L132.25285,94.3732695 L132.834121,94.0113652 L132.875201,94.1923174 L132.795096,94.3268715 L132.634887,94.6910957 L134.442374,93.4429899 L135.750749,92.7168615 L136.21289,92.2389622 L136.292995,91.3318816 L136.453204,91.3086826 L136.672978,91.8306599 L136.693518,92.0812091 L136.633953,92.3294383 L137.395973,92.3526373 L139.10487,91.5128338 L139.706681,91.5128338 L140.010668,91.6033098 L141.23483,91.2878035 L141.655892,91.2414055 L143.765312,91.4455567 L144.147349,91.4014786 L144.451336,91.1973275 L144.593059,90.9027003 L145.153791,89.2880504 L145.375619,88.0863426 L145.375619,87.6780403 L145.174331,86.6572846 L145.135305,86.1353073 L145.19487,85.703806 L144.853912,85.0217557 L144.227454,82.9338463 L144.087784,82.0940428 L144.227454,82.0708438 L144.794347,83.2980705 L145.435184,84.3629043 L145.414644,85.2723048 L146.016455,87.5875642 L145.856246,88.5410428 L145.876786,88.721995 L145.995916,88.9261461 L146.016455,89.1975743 L145.936351,89.7868287 L146.458057,88.812471 L146.579241,87.109665 L146.398492,83.7295718 L146.458057,83.1843955 L146.762044,81.9803678 L146.862688,80.9828111 L147.123541,80.4376348 L147.686327,79.5514332 L148.507912,77.1920957 L149.555433,75.0809874 L151.946246,71.6544962 L153.515474,70.1349622 L154.577373,69.4969899 L154.899845,69.2696398 L155.060054,69.0886877 L154.977895,68.9982116 L154.858766,68.9309345 L154.817686,68.7267834 L155.018975,68.3648791 L154.778661,68.0702519 L154.337059,67.8869798 L153.936536,67.8637809 L153.735248,67.7733048 L153.453855,67.5250756 L153.188894,67.2281285 L153.069764,67.0007783 L153.129329,66.7293501 L153.310078,66.525199 L153.515474,66.4579219 L153.616118,66.5692771 L153.815352,66.5924761 L154.15631,66.4115239 L154.417164,65.9823426 L154.316519,65.2306952 L154.117285,64.8687909 L153.815352,64.5045668 L153.515474,64.3444937 L153.268998,64.5950428 L153.028685,64.1426625 L152.589137,62.6208086 L152.889015,62.9641537 L153.149868,62.9641537 L153.37375,62.8481587 L153.554499,62.8017607 L153.874917,62.9641537 L154.076206,63.1891839 L154.035126,63.3724559 L153.675683,63.4606121 L153.714708,63.6438841 L154.135771,63.8921134 L155.179184,64.8919899 L155.380472,65.1866171 L155.279828,65.7990705 L154.476728,66.8407053 L154.236415,67.3650025 L155.060054,67.3882015 L155.179184,67.4786776 L155.279828,67.4786776 L155.805642,67.8637809 L156.185626,67.6596297 L156.647767,67.1144534 L156.908621,66.9543804 L157.430327,66.4347229 L158.25602,64.4813678 L158.857831,63.9593904 L158.917396,63.8248363 L158.638057,63.3260579 L158.617518,63.1219068 L158.798266,63.0546297 L158.958476,63.1891839 L159.118685,63.3724559 L159.278894,63.416534 L159.500722,63.2123829 L159.640391,62.8249597 L159.68147,62.3493804 L159.619852,61.8250831 L159.500722,61.713728 L159.239868,61.2381486 L159.180304,60.7834484 L159.580826,60.7834484 L159.599312,60.8971234 L159.860165,61.5536549 L160.486624,62.2565844 L160.186745,62.6672065 L160.24631,63.0082317 L160.486624,63.1451058 L160.687912,62.9641537 L160.868661,62.7576826 L163.820206,60.9435214 L164.442556,60.261471 L168.743555,59.6466977 L168.542266,59.3079924 L167.899376,58.581864 L167.780246,58.7860151 L167.620037,58.9437683 L167.439288,59.0806423 L167.098331,59.1711184 L167.318105,58.581864 L167.700142,58.0158086 L168.180769,57.5611083 L168.681936,57.3105592 L169.043433,57.5379093 L169.269369,58.1967607 L169.468604,58.9669673 L169.729457,59.5330227 L170.351808,59.7603728 L170.452452,59.0574433 L170.111494,56.4939547 L170.292243,56.5148338 L170.713305,56.946335 L171.274037,57.3105592 L170.992644,57.8325365 L171.173393,58.2640378 L171.639642,58.535466 L172.140809,58.628262 L172.621437,58.5145869 L172.822725,58.3777128 L172.982934,58.1735617 L173.044553,57.8998136 L172.962395,57.6956625 L172.863804,57.5379093 L172.822725,57.3778363 L172.923369,57.1040882 L173.063039,56.923136 L173.323892,56.6285088 L173.849707,55.4059219 L174.131099,54.9721008 L174.231744,54.7679496 L174.311848,54.4501234 L174.311848,54.1322972 L174.231744,53.6335189 L174.270769,53.3852897 L174.391953,53.3620907 L174.451518,53.5198438 L174.611727,53.7703929 L174.671292,53.9281461 L175.435366,53.2716146 L175.595575,53.0674635 L175.735245,52.5222872 L175.6346,52.271738 L175.474391,52.134864 L175.355261,51.8402368 L175.394287,51.3414584 L175.575035,51.2509824 L175.839997,51.2950605 L176.201494,51.2045844 L176.400728,50.9795542 L176.622556,50.4343778 L176.782766,50.2070277 L176.741686,49.9796776 L176.160415,49.7523275 L175.77427,49.2744282 L175.334722,48.8684458 L174.632266,48.7988489 L174.87258,49.2071511 L175.373747,49.7523275 L175.51547,50.1838287 L175.334722,50.3183829 L174.87258,50.4575768 L174.451518,50.775403 L174.330334,51.3414584 L174.131099,51.3414584 L173.243788,51.9075139 L172.90283,52.0211889 L172.76316,51.9747909 L172.621437,51.8843149 L172.541332,51.7265617 L172.502307,51.4783325 L172.541332,51.1373073 L172.683056,51.0700302 L172.843265,51.0468312 L173.344432,50.5712519 L173.424536,50.3671008 L173.243788,50.1165516 L172.742621,49.5922544 L172.722081,49.3208262 L172.742621,48.8220479 L172.701541,48.5274207 L172.641976,48.4369446 L172.360583,48.1191184 L172.301019,47.9845642 L172.179835,47.9613652 L172.00114,48.4369446 L171.859417,49.049398 L171.799852,49.5017783 L171.859417,49.8428035 L171.939521,50.2511058 L172.019626,50.684927 L171.9806,51.1605063 L171.580078,50.729005 L171.214472,50.5712519 L170.852975,50.5944509 L170.532556,50.661728 L170.12998,50.9563552 L170.251164,51.3646574 L170.894054,52.065267 L171.113828,52.6336423 L170.733845,52.5663652 L170.171059,52.294937 L169.729457,52.134864 L169.690432,52.0443879 L169.530223,51.7938388 L169.287855,51.5688086 L169.043433,51.4319345 L168.80312,51.4783325 L168.583346,51.6360856 L168.221848,52.065267 L167.919916,52.5454861 L167.659062,53.1138615 L167.338644,53.6103199 L166.81283,53.9954232 L166.652621,54.3364484 L166.512951,54.4269244 L166.391767,54.3828463 L166.272637,54.2691713 L166.130914,54.0882191 L165.26825,53.6567179 L164.142678,53.5198438 L163.11775,53.5662418 L162.131848,53.3156927 L161.129514,52.294937 L160.38598,51.1605063 L159.921784,50.684927 L159.459642,50.5480529 L159.358998,50.2279068 L158.116351,48.7315718 L158.979015,48.9357229 L160.305875,50.3671008 L161.16854,50.5712519 L161.509497,50.684927 L162.717228,51.6801637 L163.419683,52.088466 L164.261808,52.4086121 L164.968371,52.3854131 L165.91114,52.111665 L166.67316,51.5688086 L166.917582,50.798602 L167.299619,50.2743048 L168.141744,49.4113023 L168.78258,48.5946977 L168.583346,48.1191184 L169.20775,47.6876171 L169.569248,47.0055668 L169.548708,46.2121612 L169.022894,45.4651537 L168.743555,45.7597809 L168.78258,45.940733 L168.903764,45.9848111 L169.022894,46.0544081 L169.148185,46.0984861 L168.842145,46.3931134 L168.583346,46.3699144 L168.340978,46.2121612 L168.041099,46.1216851 L167.11887,46.2794383 L166.81283,46.2353602 L166.997686,45.8734559 L167.299619,45.5997078 L167.640577,45.4187557 L167.960995,45.3027607 L168.100664,45.1682065 L168.260874,44.8967783 L168.482702,44.6207103 L168.823659,44.4629572 L169.489143,44.5998312 L169.791076,44.5766322 L169.869126,44.305204 L169.708917,44.0546549 L169.409039,43.9201008 L168.842145,43.7832267 L168.80312,43.6022746 L169.951285,43.6022746 L170.431912,43.4885995 L170.571582,43.0594181 L170.571582,42.739272 L170.692766,42.1732166 L170.612661,41.9667456 L170.191599,41.6257204 L169.99031,41.3774912 L169.869126,41.082864 L169.349474,41.1733401 L167.238,40.9019118 L165.368894,40.8555139 L163.840745,40.2894584 L162.476914,40.2430605 L162.090769,40.0829874 L161.328749,39.653806 L160.326415,39.2663829 L159.379538,39.2199849 L158.798266,39.8115592 L158.436769,38.9253577 L158.155376,38.6098514 L157.69118,38.5634534 L157.430327,38.4729773 L157.128395,38.1551511 L156.606688,37.3385466 L157.569997,37.9301209 L158.075272,38.1319521 L159.098145,38.1783501 L160.26685,38.6098514 L160.907686,38.6771285 L162.051744,38.5634534 L162.517993,38.7235264 L163.078725,39.1086297 L163.620971,39.2663829 L164.728057,38.6307305 L165.389433,38.6539295 L165.448998,38.4497783 L165.570182,38.3152242 L165.709852,38.2015491 L165.91114,38.111073 L165.970705,38.7908035 L166.512951,39.1295088 L167.178435,39.1295088 L167.578958,38.7676045 L167.459828,38.5634534 L167.299619,38.4288992 L167.11887,38.3361033 L166.878556,38.2920252 L166.917582,38.1551511 L166.938121,38.043796 L166.977147,37.9301209 L167.098331,37.8164458 L167.057251,37.6331738 L166.897042,37.5635768 L166.732725,37.4522217 L166.332202,37.1343955 L166.391767,36.9511234 L166.492411,36.2713929 L166.291123,36.0208438 L166.071349,35.7958136 L165.789956,35.6589395 L165.448998,35.6357406 L166.211019,34.772738 L166.632081,34.4549118 L167.219514,34.3644358 L168.281413,34.4085139 L168.764094,34.3180378 L169.308395,34.0698086 L169.148185,34.9536902 L168.823659,35.2506373 L167.700142,35.3202343 L167.157895,35.5916625 L167.13941,35.9535668 L167.439288,36.2945919 L167.919916,36.5428212 L167.960995,36.7237733 L167.700142,37.1111965 L168.061639,37.3617456 L169.043433,37.5635768 L169.004408,37.7491688 L168.963329,37.8837229 L168.862685,37.974199 L168.681936,38.0646751 L169.043433,38.4961763 L169.388499,38.7235264 L170.251164,38.9717557 L170.12998,38.7676045 L170.01085,38.6098514 L169.850641,38.5193753 L169.690432,38.4497783 L169.791076,38.1319521 L169.99031,37.951 L170.251164,37.9301209 L170.532556,38.043796 L170.813949,36.9047254 L170.532556,36.385068 L170.713305,36.1136398 L171.093288,36.1809169 L171.378789,36.6796952 L171.580078,37.6331738 L171.760826,38.111073 L172.00114,38.2920252 L172.040165,38.5193753 L171.152853,38.7444055 L171.315116,39.0390327 L171.458894,39.0622317 L171.619103,38.9949547 L171.820391,39.0158338 L172.179835,39.2199849 L172.381123,39.4914131 L172.683056,39.2199849 L172.701541,38.7676045 L172.561872,38.3593023 L172.360583,38.2247481 L172.301019,37.997398 L172.241454,37.5867758 L172.360583,37.2921486 L172.90283,37.4522217 L173.143143,37.7236499 L173.588853,38.4288992 L174.350874,38.7676045 L174.611727,38.7676045 L174.652806,38.4288992 L174.671292,38.0878741 L174.792476,37.951 L174.952685,37.951 L175.293642,38.4497783 L175.696219,38.4961763 L177.183288,38.1783501 L177.322958,37.997398 L177.503707,37.5194987 L177.725535,37.2480705 L178.491663,36.7469723 L178.812081,36.6332972 L178.773056,36.4523451 L178.450583,36.0672418 L178.430044,35.3643123 L178.672411,34.8632141 L179.132499,35.0673652 L179.013369,35.3202343 L179.274223,35.4547884 L179.393352,35.3875113 L179.434432,35.1369622 L179.372813,34.705461 L179.434432,34.4317128 L179.61518,34.1811637 L179.674745,33.8888564 L179.434432,33.5037531 L179.935599,33.162728 L180.056782,33.0258539 L180.136887,32.7776247 L180.116347,32.6175516 L180.015703,32.4806776 L179.976678,32.3229244 L179.876034,32.1419723 L179.876034,31.9563804 L180.256017,31.7545491 L180.360769,31.6617531 L181.303538,29.9171889 L181.303538,29.6225617 L181.182354,29.1446625 L181.10225,28.6226851 L181.202894,28.1239068 L181.504826,28.7595592 L181.504826,28.7595592 Z" id="Fill-47" fill="#D6D6D6"></path>
                <path d="M145.535828,91.1741285 L145.274975,90.9467783 L144.934017,90.9931763 L144.632084,91.2878035 L144.55198,91.807461 L144.732728,92.1020882 L145.094226,92.2157632 L145.476263,92.2830403 L145.755602,92.4199144 L145.876786,92.1020882 L145.995916,90.1974509 L145.657012,90.9931763 L145.535828,91.1741285 L145.535828,91.1741285 Z M146.823663,82.228597 L146.683993,83.0243224 L146.663454,83.9337229 L146.579241,84.7271285 L146.823663,84.2956272 L147.022897,83.5254207 L147.203646,82.0244458 L147.244725,81.9803678 L147.30429,81.9803678 L147.345369,81.9339698 L147.30429,81.7762166 L146.823663,82.228597 L146.823663,82.228597 Z M155.199723,69.1791637 L154.437703,69.9516902 L154.055666,70.1790403 L153.694169,70.4063904 L151.243791,73.1531511 L150.617332,74.2411839 L150.377019,75.3083375 L150.658411,74.7840403 L152.488492,71.9723224 L152.767831,71.7681713 L153.453855,71.383068 L155.039514,69.8844131 L155.499602,69.2023627 L155.561221,69.1582846 L155.645433,69.1350856 L155.665973,69.0886877 L155.624894,68.9541335 L155.199723,69.1791637 L155.199723,69.1791637 Z M172.301019,60.7161713 L172.040165,60.5584181 L170.411373,60.3055491 L169.969771,60.4192242 L170.01085,60.6256952 L170.292243,60.7393703 L171.479433,60.9203224 L172.422202,61.4191008 L172.520793,61.5095768 L172.802185,61.2590277 L172.641976,60.9644005 L172.301019,60.7161713 L172.301019,60.7161713 Z M168.100664,60.0573199 L164.627413,61.4863778 L161.328749,63.0082317 L160.788556,63.439733 L160.486624,63.9825894 L166.130914,60.9875995 L166.67316,60.7834484 L169.349474,60.3519471 L169.308395,60.147796 L168.100664,60.0573199 L168.100664,60.0573199 Z M177.76456,51.0236322 L177.485221,51.3855365 L177.384577,51.6801637 L177.283933,51.9075139 L176.501373,52.8377935 L174.771936,56.0392544 L173.104118,61.3286247 L172.962395,62.2797834 L173.264327,62.8249597 L173.344432,61.9619572 L175.073868,56.1761285 L175.979666,54.3596474 L176.320624,53.9513451 L176.741686,53.5430428 L177.583811,51.9539118 L178.089086,51.3855365 L178.370479,50.4575768 L178.109626,50.661728 L177.76456,51.0236322 L177.76456,51.0236322 Z M180.440874,45.894335 L180.340229,46.0080101 L180.317636,46.3026373 L180.196452,46.5531864 L180.056782,46.7550176 L180.015703,46.9382897 L179.956138,47.3929899 L179.452917,48.3464685 L179.292708,48.7315718 L179.434432,48.7083728 L179.654206,48.0518413 L181.022145,46.3699144 L181.10225,46.3258363 L181.163868,46.2794383 L181.223433,46.2121612 L181.282998,46.0984861 L180.742806,45.917534 L180.440874,45.894335 L180.440874,45.894335 Z M183.994229,42.4214458 L183.012435,43.6022746 L182.466081,44.0314559 L181.944374,43.9873778 L181.905349,44.8271814 L181.825245,45.2122846 L181.623956,45.5788287 L183.655325,43.1707733 L185.462813,41.8762695 L185.785285,41.3102141 L186.085164,41.0155869 L186.185808,40.8346348 L186.265912,40.5840856 L185.723666,41.1501411 L183.994229,42.4214458 L183.994229,42.4214458 Z M190.926354,29.8035139 L190.887329,27.3977783 L190.566911,26.1937506 L189.864455,24.7646927 L189.683707,24.1731184 L189.502958,23.5397859 L189.178432,22.7904584 L188.757369,22.154806 L188.295228,21.8578589 L188.135019,22.06433 L188.375332,22.5839874 L188.938118,23.4933879 L189.098327,24.0594433 L190.084229,26.1032746 L190.466266,27.3073023 L190.626476,28.0102317 L190.626476,28.3512569 L190.466266,29.0750655 L190.445727,29.4392897 L190.525831,29.7803149 L190.747659,30.3254912 L190.827764,30.6433174 L190.926354,31.3230479 L190.926354,32.4342796 L191.047538,33.5919093 L191.088617,35.1137632 L191.026998,35.5220655 L191.207747,36.4291461 L190.747659,37.1111965 L189.363288,38.0878741 L188.155558,39.2199849 L188.075454,39.2663829 L188.034374,39.1991058 L187.995349,39.1086297 L187.915245,39.0622317 L187.8146,39.1527078 L187.794061,39.2895819 L187.8146,39.447335 L187.794061,39.5378111 L187.713956,39.700204 L187.693417,39.8579572 L187.613312,39.9716322 L187.412024,40.0621083 L187.251815,40.2430605 L187.091605,40.4936096 L187.091605,40.6977607 L187.313433,40.7209597 L187.494182,40.6304836 L187.713956,40.2894584 L187.83514,40.1734635 L188.155558,39.9925113 L188.897039,39.3568589 L189.342749,39.1527078 L190.065744,38.5193753 L190.747659,38.3825013 L190.967433,38.2920252 L191.287852,37.8837229 L191.409035,37.3385466 L191.48914,34.9328111 L190.926354,29.8035139 L190.926354,29.8035139 Z M184.797329,19.0438212 L184.435831,18.6123199 L184.355727,18.3640907 L184.195518,18.2504156 L184.035309,18.1599395 L183.694351,18.0926625 L183.513602,18.0253854 L183.314368,17.9557884 L183.113079,17.9789874 L182.932331,18.0694635 L182.790607,18.2968136 L182.872766,18.4313678 L183.032975,18.5218438 L183.193184,18.6587179 L183.433497,18.9533451 L184.195518,19.5681184 L184.456371,19.9972997 L184.678199,20.5424761 L184.922621,20.9739773 L185.282064,21.1108514 L185.684641,20.9739773 L185.723666,20.8162242 L185.664101,20.521597 L185.764745,19.9300227 L184.797329,19.0438212 L184.797329,19.0438212 Z M187.153224,21.0644534 L187.251815,21.2454055 L187.432563,21.3150025 L187.874165,21.4054786 L188.075454,21.4959547 L187.069012,19.8836247 L186.60687,18.7051159 L182.005993,12.555063 L180.479899,9.7155063 L179.574101,8.40012343 L179.393352,7.94774307 L179.212604,7.2424937 L178.99283,6.6509194 L178.430044,5.51880856 L176.602017,0.841891688 L176.581477,0.821012594 L176.281599,0.888289673 L176.000206,0.955566751 L176.020745,1.00196474 L176.039231,1.15971788 L176.521912,2.13639547 L176.88341,3.11307305 L177.322958,3.74640554 L177.503707,4.24518388 L177.945309,4.90403526 L178.089086,5.27057935 L178.610793,7.17521662 L178.912725,7.97094207 L178.871646,7.97094207 L178.812081,8.03821914 L178.791541,8.15189421 L178.892185,8.28644836 L179.253683,8.58107557 L180.136887,9.76190428 L180.541518,10.6921839 L181.022145,11.4855894 L181.422668,12.3253929 L181.463747,13.1002393 L181.504826,13.3020705 L181.763626,13.7567708 L181.985454,14.2555491 L182.225767,14.7102494 L182.611912,14.9352796 L182.811147,14.6638514 L183.05146,14.7775264 L183.293828,15.1208715 L183.493062,15.5732519 L183.012435,15.8678791 L182.831686,15.8678791 L182.591373,15.5964509 L182.591373,16.1393073 L182.872766,16.4339345 L183.232209,16.5012116 L183.474577,16.2297834 L183.614246,16.2065844 L185.524432,18.0926625 L186.005059,18.7955919 L186.265912,19.8395466 L186.485686,20.3406448 L187.027933,20.5656751 L187.112145,20.7930252 L187.153224,21.0644534 L187.153224,21.0644534 Z M174.030455,2.11319647 L174.151639,2.52381864 L174.311848,2.93212091 L174.792476,2.99939798 L175.67568,2.79524685 L175.879022,2.6606927 L175.839997,2.45654156 L175.696219,2.20367254 L175.575035,1.93224433 L175.394287,1.13651889 L175.394287,1.1156398 L175.01225,1.20611587 L174.671292,1.29659194 L174.552162,1.50074307 L174.291309,1.59121914 L174.151639,1.4079471 L173.163683,1.63529723 L173.344432,1.86496725 L174.030455,2.11319647 L174.030455,2.11319647 Z M181.504826,28.7595592 L181.86427,29.2560176 L182.287386,29.4160907 L182.772121,29.0309874 L182.831686,29.1214635 L182.891251,29.1887406 L182.932331,29.2792166 L182.971356,29.3928917 L182.831686,29.4833678 L182.566725,29.7130378 L182.611912,29.9171889 L183.273288,29.7339169 L183.554681,29.5993627 L183.753916,29.3928917 L183.774455,29.2119395 L183.673811,28.9405113 L183.655325,28.6899622 L183.83402,28.5554081 L184.014769,28.464932 L184.115413,28.3280579 L184.195518,28.1703048 L184.376266,27.4650554 L184.296162,27.1704282 L183.634786,26.4419798 L183.314368,25.9664005 L183.273288,25.7413703 L183.774455,25.5604181 L184.316702,25.4467431 L184.355727,25.2193929 L184.216057,24.5837406 L184.035309,24.1963174 L183.634786,23.7416171 L183.513602,23.4701889 L183.534142,22.9946096 L183.634786,22.5399093 L183.71489,22.06433 L183.614246,21.5168338 L183.474577,21.3358816 L182.991895,20.8162242 L182.911791,20.4311209 L181.523312,18.816471 L180.761292,18.1367406 L179.915059,17.7516373 L179.956138,18.0462645 L179.935599,18.3200126 L179.894519,18.5914408 L179.814415,18.862869 L180.075268,18.7955919 L180.317636,18.7955919 L180.562057,18.886068 L180.802371,19.0438212 L180.420334,19.3848463 L179.935599,19.4057254 L179.434432,19.2920504 L178.97229,19.2711713 L179.153039,19.6353955 L179.434432,19.9741008 L179.73431,20.2269698 L180.216992,20.3406448 L180.317636,20.5424761 L180.317636,20.7466272 L180.136887,20.8835013 L179.995164,20.8835013 L179.413892,20.6793501 L178.85316,20.1132947 L178.471123,19.8163476 L178.349939,19.9532217 L178.230809,20.2269698 L177.62489,20.9507783 L177.503707,21.2454055 L178.230809,24.9224458 L178.310914,25.9455214 L178.006927,28.4858111 L177.865204,28.5322091 L177.725535,28.3280579 L177.62489,28.1703048 L177.583811,28.0566297 L177.583811,27.9661537 L177.00254,28.2607809 L176.441808,28.441733 L175.879022,28.3280579 L175.355261,27.6715264 L175.858482,27.5323325 L176.622556,27.6460076 L177.304472,27.6460076 L177.583811,27.1031511 L177.444142,27.0335542 L177.142209,26.7366071 L176.963514,26.3979018 L177.162749,26.1705516 L177.242853,25.9664005 L177.082644,25.6508942 L176.801251,25.333068 L176.581477,25.196194 L176.741686,25.1753149 L176.421268,25.2193929 L176.039231,25.2193929 L175.67568,25.126597 L175.373747,24.9920428 L175.153973,24.7182947 L175.414826,24.6510176 L176.039231,24.7414937 L176.622556,24.3772695 L176.581477,23.583864 L176.160415,22.8136574 L175.595575,22.4726322 L175.554496,22.2684811 L176.000206,22.041131 L176.300084,21.4959547 L176.462347,20.7930252 L176.521912,20.1132947 L176.240519,20.2501688 L175.554496,20.7466272 L175.533956,19.6794736 L175.714705,19.3384484 L176.240519,19.5217204 L176.201494,19.0206222 L175.696219,18.6819169 L175.032789,18.5009647 L174.490543,18.4777657 L172.481767,19.1574962 L170.692766,20.2501688 L170.292243,20.8162242 L170.553096,21.0876524 L171.054263,21.2686045 L171.399329,21.5864307 L170.852975,21.6769068 L169.850641,21.4263577 L169.36796,21.4495567 L169.148185,21.6073098 L169.004408,21.8578589 L168.862685,21.9738539 L168.681936,21.811461 L168.642911,21.6537078 L168.642911,21.3822796 L168.622371,21.0644534 L168.482702,20.7930252 L167.720681,20.7257481 L166.632081,21.2686045 L165.588668,22.06433 L165.007396,22.7231814 L164.847187,22.7695793 L164.241268,22.6999824 L161.269184,23.4029118 L161.228105,23.1987607 L161.749811,21.811461 L161.79089,21.3590806 L161.470472,21.3822796 L161.349288,21.1549295 L161.289723,20.7930252 L161.16854,20.4543199 L160.948766,20.2501688 L160.726938,20.0877758 L160.507164,19.8627456 L160.207285,19.0438212 L159.780061,18.4545668 L159.660931,18.1367406 L159.299433,16.1625063 L159.278894,15.5268539 L159.379538,14.9352796 L159.619852,14.2996272 L159.901245,13.8240479 L159.981349,13.5526196 L159.960809,13.1443174 L159.82114,12.8960882 L159.340513,12.485466 L159.139224,12.1676398 L159.660931,12.2581159 L160.125126,12.462267 L160.406519,12.9633652 L160.367494,13.8240479 L160.26685,14.1418741 L160.022428,14.6197733 L159.981349,14.9584786 L159.921784,16.3666574 L160.207285,17.1159849 L160.948766,18.3408917 L161.571116,19.8836247 L162.090769,20.3174458 L162.598098,20.1805718 L162.817872,19.4057254 L163.078725,19.5889975 L163.881825,20.5424761 L164.161164,20.612073 L164.561686,20.5424761 L165.288789,20.3174458 L165.789956,20.0204987 L166.412307,19.4985214 L166.997686,18.816471 L167.338644,18.1158615 L167.11887,18.1599395 L167.057251,18.1831385 L166.997686,17.9557884 L167.318105,17.6611612 L169.409039,16.7285617 L169.349474,16.5012116 L168.924304,16.5012116 L168.281413,16.3434584 L167.659062,16.0952292 L167.379723,15.8446801 L167.219514,15.61733 L166.352742,15.3227028 L166.151454,15.1417506 L165.93168,14.8912015 L165.508563,14.2555491 L165.950165,14.4597003 L166.412307,14.7543275 L166.833369,14.9144005 L167.157895,14.7334484 L167.640577,15.2786247 L168.322492,15.5732519 L170.79341,16.1393073 L171.33771,16.1393073 L171.840931,15.8910781 L171.820391,15.7101259 L171.33771,15.4154987 L170.351808,14.3924232 L170.070415,14.2091511 L169.850641,14.165073 L169.610327,14.028199 L169.388499,13.8008489 L169.24883,13.5526196 L169.148185,13.1443174 L169.287855,13.1443174 L169.690432,13.4389446 L170.411373,13.8240479 L170.612661,13.8704458 L170.79341,14.005 L171.274037,14.5965743 L172.040165,14.8912015 L172.280479,14.9352796 L172.502307,14.9144005 L173.163683,14.7102494 L173.124658,14.5292972 L172.982934,14.5733753 L172.943909,14.3460252 L173.710037,14.0722771 L173.929811,13.9145239 L174.330334,13.4621436 L174.430978,13.2115945 L174.170125,13.1907154 L173.890786,13.1002393 L173.54572,12.439068 L172.962395,12.2581159 L172.662516,11.9634887 L172.200374,11.3278363 L171.820391,11.0564081 L171.315116,10.7617809 L170.77287,10.5576297 L170.271703,10.5344307 L170.171059,10.3975567 L170.210084,10.0147733 L170.331268,9.60415113 L170.512017,9.4 L170.79341,9.42319899 L170.832435,9.62503023 L170.733845,9.87557935 L170.553096,10.0356524 L171.760826,10.1261285 L172.140809,10.2630025 L172.662516,10.5808287 L173.124658,10.9868111 L173.323892,11.1004861 L173.749062,11.1236851 L173.950351,11.2373602 L174.632266,12.0098866 L175.094408,12.3485919 L175.575035,12.4181889 L176.039231,12.3717909 L177.64543,12.531864 L177.604351,12.3253929 L177.263393,12.2581159 L176.901895,12.1003627 L176.240519,11.6224635 L176.480833,11.3510353 L176.361703,10.896335 L176.10085,10.3766776 L175.696219,9.30720403 L175.453852,9.0798539 L175.174513,8.94529975 L174.89312,8.53699748 L175.314182,8.4674005 L175.67568,8.60427456 L176.361703,9.03577582 L176.180954,9.64822922 L176.341164,9.87557935 L176.682121,9.96605542 L177.043619,10.1261285 L177.142209,10.3070806 L177.242853,10.7385819 L177.322958,10.919534 L177.485221,11.0332091 L178.045953,11.3719144 L178.411558,11.7802166 L178.592307,12.1003627 L178.711437,12.3717909 L178.692951,12.6246599 L178.651872,12.8960882 L178.672411,13.1675164 L178.832621,13.4157456 L179.553562,14.165073 L179.995164,14.5292972 L180.399794,14.6429723 L180.761292,14.3669043 L180.562057,13.8704458 L180.136887,13.2811914 L179.855494,12.7360151 L179.674745,12.3045139 L177.844664,9.14713098 L177.684455,8.7852267 L177.444142,8.35604534 L176.521912,7.30977078 L176.240519,6.90378841 L176.08031,5.51880856 L175.879022,4.72308312 L175.614061,4.81355919 L175.575035,5.45153149 L175.494931,5.83663476 L175.414826,5.83663476 L175.51547,6.13126196 L175.65514,6.3354131 L175.839997,6.53724433 L176.08031,6.74139547 L175.554496,6.49316625 L174.87258,5.85751385 L174.472057,5.20098237 L174.813015,4.90403526 L174.270769,4.67900504 L173.710037,4.29158186 L173.223248,3.79280353 L172.943909,3.2476272 L172.863804,2.75116877 L172.863804,2.15959446 L172.802185,1.79537028 L172.76316,1.7257733 L172.200374,1.86496725 L169.043433,2.6374937 L165.309329,3.49817632 L161.571116,4.36117884 L157.83085,5.22418136 L154.076206,6.08486398 L150.337993,6.92466751 L146.601835,7.76679093 L142.863622,8.60427456 L139.10487,9.44407809 L135.370766,10.2630025 L131.630499,11.0772872 L127.871747,11.8962116 L124.117103,12.691937 L120.37889,13.4853426 L116.620138,14.2764282 L112.88398,15.0489547 L109.125228,15.8214811 L105.366476,16.5916877 L101.611831,17.3642141 L97.8530793,18.1158615 L94.0943272,18.862869 L90.335575,19.6121965 L86.5809309,20.3406448 L82.8221788,21.0644534 L79.0634266,21.7905819 L75.3087825,22.5167103 L71.5479764,23.2219597 L67.7707386,23.9016902 L64.0140405,24.6046196 L60.2552884,25.309869 L56.4759966,25.9664005 L52.7213524,26.646131 L52.2407251,26.7366071 L52.0764081,26.715728 L51.9757639,26.646131 L51.7950152,26.3306247 L51.0535346,28.418534 L50.9528904,29.0750655 L51.0124553,29.2119395 L51.4335177,29.8707909 L51.474597,30.1422191 L51.2938482,31.3230479 L50.9323508,32.6848287 L50.8933255,32.9817758 L50.8933255,33.185927 L50.9528904,33.299602 L51.252769,33.7751814 L51.6142664,34.1811637 L51.694371,34.3180378 L51.7744755,34.4549118 L51.7354503,34.5685869 L51.6348061,34.6149849 L50.9528904,34.6381839 L49.7451602,34.4085139 L49.644516,34.4317128 L49.5459258,34.4989899 L48.040371,36.0904408 L47.5350961,36.7469723 L47.4549916,36.8815264 L45.9699764,41.9203476 L45.8303069,42.2172947 L45.6495582,42.4678438 L45.4482698,42.625597 L45.1442833,43.0362191 L44.9635346,43.2403703 L44.7827858,43.3517254 L44.6431164,43.3981234 L44.4623676,43.3981234 L44.1214098,43.3517254 L43.9612007,43.3076474 L43.720887,43.1707733 L43.6202428,43.0594181 L43.5586239,42.9457431 L43.5195987,42.808869 L43.4785194,42.648796 L43.4189545,42.5119219 L43.3593895,42.3982469 L43.279285,42.3077708 L43.1786408,42.2404937 L43.0533491,42.1940957 L42.9136796,42.1940957 L42.611747,42.2404937 L42.4515379,42.2404937 L42.3324081,42.1940957 L42.1105801,42.0572217 L41.9914503,42.0340227 L41.9113457,42.0572217 L41.7901619,42.1012997 L41.5703879,42.2636927 L40.9685767,42.9457431 L40.8638246,43.0362191 L40.401683,43.1034962 L40.2209342,43.1498942 L39.7197673,43.5558766 L38.9988263,43.9201008 L38.7975379,44.0546549 L38.4730118,44.328403 L38.132054,44.7367053 L37.5097032,45.7597809 L37.3289545,46.1448841 L37.1482057,46.9150907 L37.0886408,47.1192418 L36.7682226,47.7780932 L36.6264992,48.0054433 L36.5073693,48.1655164 L36.4272648,48.2559924 L36.3430523,48.3232695 L35.4393086,49.2071511 L35.2585599,49.3440252 L35.1188904,49.4113023 L34.9792209,49.4345013 L34.8374975,49.4113023 L34.697828,49.3649043 L34.5766442,49.2976272 L34.4575143,49.1839521 L34.3774098,49.0934761 L34.2973052,48.979801 L34.1124486,48.5946977 L34.0713693,48.4369446 L34.0508297,48.2559924 L34.0713693,48.0286423 L34.1350422,47.6180202 L34.1555818,47.483466 L34.1350422,47.3929899 L34.0919089,47.3257128 L33.6503069,46.8014156 L33.5496627,46.7341385 L33.3894536,46.7109395 L33.1902192,46.8014156 L32.2474503,47.5739421 L31.7401214,47.8940882 L30.378344,49.0702771 L30.3578044,49.1166751 L30.3167251,49.2071511 L30.3167251,49.3208262 L30.378344,49.7523275 L30.3578044,49.9124005 L30.3167251,50.0469547 L30.0969511,50.4111788 L30.0373862,50.684927 L30.0168465,50.8658791 L29.9162024,51.1141083 L29.7950185,51.2277834 L29.6553491,51.2950605 L29.5300573,51.2741814 L29.269204,51.0932292 L28.9487858,50.8890781 L28.6489073,50.798602 L28.4476189,50.775403 L28.2278449,50.8194811 L27.9053727,50.9563552 L27.7451636,51.0932292 L27.6260337,51.2277834 L27.5459292,51.4992116 L27.5048499,51.6801637 L27.5048499,51.8611159 L27.5253895,52.0211889 L27.5644148,52.1789421 L27.6260337,52.318136 L27.886887,52.7705164 L27.9053727,52.9329093 L27.8663474,53.1138615 L27.665059,53.5198438 L27.6260337,53.6567179 L27.6260337,53.9745441 L27.6054941,54.1322972 L27.5253895,54.4269244 L27.1002192,55.4291209 L26.6586172,56.2666045 L26.4984081,56.4243577 L26.3772243,56.4939547 L26.0362664,56.4475567 L25.1099292,56.5148338 L24.8490759,56.4707557 L24.729946,56.5148338 L24.6293019,56.5844307 L23.5653491,57.4474332 L22.8382462,57.8325365 L22.6780371,57.9485315 L22.5589073,58.0598866 L22.1173052,58.7628161 L21.9160169,58.9437683 L21.3943103,59.2847935 L21.2341012,59.3984685 L21.135511,59.5330227 L21.0738921,59.6698967 L20.6733693,60.261471 L20.3283035,61.0339975 L20.1865801,61.1244736 L20.026371,61.1685516 L19.8661619,61.1453526 L19.6669275,61.1685516 L19.4450995,61.2590277 L19.2643508,61.3959018 L18.9850118,61.804204 L18.7837234,62.1429093 L18.5434098,62.4398564 L17.4363238,63.2123829 L17.255575,63.393335 L17.1343912,63.5534081 L16.9536425,63.9153123 L16.5325801,64.5277657 L16.3929106,64.6855189 L16.2717268,64.775995 L14.8832479,65.3443703 L14.7230388,65.3675693 L14.5628297,65.3443703 L14.4436998,65.2770932 L14.322516,65.1866171 L14.2033862,65.0961411 L14.0411231,65.0729421 L13.8377808,65.0961411 L13.4167184,65.3211713 L13.1764047,65.3907683 L12.9751164,65.4348463 L12.8539325,65.4116474 L12.7142631,65.4116474 L12.5725396,65.4580453 L12.4328702,65.5044433 L12.2315818,65.6413174 L12.1514772,65.6645164 L12.0713727,65.6853955 L11.2847049,65.7317935 L11.1450354,65.7549924 L10.723973,65.9591436 L10.3234503,66.2073728 L9.84076897,66.6597531 L9.54089039,67.0239773 L9.3354941,67.1817305 L9.17528499,67.2954055 L8.49336931,67.5923526 L8.15241147,67.7965038 L7.97166273,67.9542569 L7.87101855,68.0934509 L7.61016526,68.9750126 L7.53006071,69.1350856 L7.39039123,69.3833149 L7.25072175,69.5201889 L6.38394941,70.0212872 L6.20320067,70.1790403 L6.0635312,70.3599924 L5.64041484,71.0420428 L5.60138954,71.2021159 L5.56031029,71.313471 L5.56031029,71.5408212 L5.72257336,71.9259244 L5.74105902,72.0604786 L5.74105902,72.2437506 L5.72257336,72.4038237 L5.6814941,72.5615768 L5.38161551,73.2436272 L5.34053626,73.4245793 L5.28097133,73.7192065 L5.28097133,73.9001587 L5.36107589,74.8745164 L5.299457,75.1505844 L5.13924789,75.4452116 L4.77569646,75.9903879 L4.59494772,76.2386171 L4.45322428,76.3754912 L4.37311973,76.3986902 L3.81238786,76.4891662 L2.64984486,76.8278715 L2.32326476,76.8742695 L2.18359528,76.8742695 L2.06241147,76.8278715 L1.94328162,76.7605945 L1.74199325,76.5796423 L1.60232378,76.5564433 L1.42157504,76.5796423 L1.10115683,76.7605945 L0.938893761,76.8974685 L0.819763912,77.0320227 L0.478806071,77.5099219 L0.273409781,77.9182242 L0.172765599,78.2151713 L0.133740304,78.3520453 L0.133740304,78.6002746 L0.172765599,79.6419093 L0.234384486,80.7786599 L0.314489039,82.481466 L0.374053963,83.9337229 L0.458266442,85.3627809 L2.10349073,85.0681537 L3.7713086,84.7712065 L5.44118044,84.4765793 L7.08640472,84.1819521 L8.7542226,83.8873249 L12.0713727,83.2771914 L13.7371366,82.9802443 L15.3864688,82.6856171 L17.0542867,82.365471 L18.7036189,82.0708438 L20.3673288,81.7530176 L22.0372007,81.4375113 L23.6865329,81.1428841 L25.3338111,80.8250579 L26.999575,80.5049118 L27.4042057,80.4376348 L33.4900978,76.8974685 L34.1761214,76.6028413 L34.2973052,76.8278715 L34.3979494,76.9183476 L34.5766442,76.9647456 L34.6772884,76.9183476 L34.8580371,76.7605945 L35.0778111,76.5332443 L35.5604924,76.1249421 L35.7617808,75.8999118 L35.9014503,75.6725617 L35.9425295,75.3315365 L35.9815548,75.1505844 L36.1027386,74.9905113 L36.301973,74.9464332 L36.5463946,74.9232343 L36.7271433,74.8536373 L36.9078921,74.7167632 L37.5898078,74.1739068 L38.6578685,73.5614534 L38.7975379,73.4941763 L39.6006374,73.3341033 L39.7608465,73.2668262 L39.8614907,73.1763501 L39.9415953,73.0371562 L40.0812648,72.8353249 L40.2209342,72.7448489 L41.007602,72.6079748 L41.1678111,72.4942997 L41.2684553,72.3574257 L41.3300742,71.8795264 L41.4101788,71.6985743 L41.5293086,71.5176222 L41.8107015,71.222995 L41.9709106,71.1325189 L42.1105801,71.1093199 L42.2112243,71.1789169 L42.2707892,71.2693929 L42.4125126,71.4271461 L42.4720776,71.4944232 L42.5521821,71.5408212 L42.6528263,71.5640202 L44.2816189,71.0884408 L45.8693322,70.9051688 L46.0706206,70.8610907 L46.6724317,70.7938136 L47.6193086,70.6801385 L48.8640101,70.5177456 L50.3510793,70.3367935 L52.0353288,70.1349622 L53.8654098,69.8844131 L55.8351602,69.6547431 L57.8459899,69.3833149 L59.8547656,69.1118866 L61.8635413,68.8636574 L63.7737268,68.6131083 L65.5586206,68.3648791 L67.1874132,68.160728 L68.5758921,67.9774559 L69.7199494,67.8173829 L71.0878887,67.6364307 L71.3692816,67.6364307 L71.5479764,67.6828287 L71.6691602,67.7733048 L71.7698044,67.8637809 L71.8499089,67.9542569 L71.9094739,68.0702519 L71.9710927,68.204806 L71.9895784,68.3648791 L72.010118,68.5458312 L71.9710927,68.7035844 L71.8293693,69.3160378 L71.8088297,69.4505919 L71.8088297,69.7011411 L71.8499089,69.8148161 L71.9094739,69.9516902 L72.010118,70.0885642 L72.1107622,70.2022393 L72.2709713,70.3159144 L72.3962631,70.2927154 L72.5153929,70.2254383 L74.1010523,68.4089572 L74.2201821,68.2952821 L74.3208263,68.2952821 L74.4009309,68.3184811 L74.4810354,68.3880781 L75.4874772,69.4297128 L76.9355211,70.9747657 L78.100118,72.2205516 L78.2192479,72.3806247 L78.2603272,72.5615768 L78.6608499,75.6957607 L78.7019292,75.8999118 L78.7820337,76.080864 L78.9217032,76.217738 L79.1024519,76.2386171 L79.9897639,76.080864 L80.2300776,76.034466 L80.9119933,75.9231108 L81.9985396,75.7421587 L83.4034503,75.4892897 L85.0527825,75.1946625 L86.9218887,74.8745164 L88.8916391,74.5126121 L90.9414941,74.1507078 L92.9913491,73.7888035 L94.9610995,73.4477783 L96.8055582,73.109073 L98.47543,72.8121259 L99.861855,72.5615768 L100.946347,72.3574257 L101.652911,72.2205516 L101.893224,72.1741537 L102.714809,72.0395995 L103.396725,72.0395995 L103.862975,72.1068766 L104.705099,72.765728 L106.413997,74.1275088 L108.118786,75.4892897 L109.827683,76.8278715 L113.266017,79.5514332 L116.700243,82.251796 L118.42968,83.5926977 L120.157062,84.9521587 L121.886499,86.3162594 L123.591288,87.6548413 L127.050162,90.3343249 L128.798084,91.6729068 L130.523413,93.0114887 L132.25285,94.3732695 L132.834121,94.0113652 L132.875201,94.1923174 L132.795096,94.3268715 L132.634887,94.6910957 L134.442374,93.4429899 L135.750749,92.7168615 L136.21289,92.2389622 L136.292995,91.3318816 L136.453204,91.3086826 L136.672978,91.8306599 L136.693518,92.0812091 L136.633953,92.3294383 L137.395973,92.3526373 L139.10487,91.5128338 L139.706681,91.5128338 L140.010668,91.6033098 L141.23483,91.2878035 L141.655892,91.2414055 L143.765312,91.4455567 L144.147349,91.4014786 L144.451336,91.1973275 L144.593059,90.9027003 L145.153791,89.2880504 L145.375619,88.0863426 L145.375619,87.6780403 L145.174331,86.6572846 L145.135305,86.1353073 L145.19487,85.703806 L144.853912,85.0217557 L144.227454,82.9338463 L144.087784,82.0940428 L144.227454,82.0708438 L144.794347,83.2980705 L145.435184,84.3629043 L145.414644,85.2723048 L146.016455,87.5875642 L145.856246,88.5410428 L145.876786,88.721995 L145.995916,88.9261461 L146.016455,89.1975743 L145.936351,89.7868287 L146.458057,88.812471 L146.579241,87.109665 L146.398492,83.7295718 L146.458057,83.1843955 L146.762044,81.9803678 L146.862688,80.9828111 L147.123541,80.4376348 L147.686327,79.5514332 L148.507912,77.1920957 L149.555433,75.0809874 L151.946246,71.6544962 L153.515474,70.1349622 L154.577373,69.4969899 L154.899845,69.2696398 L155.060054,69.0886877 L154.977895,68.9982116 L154.858766,68.9309345 L154.817686,68.7267834 L155.018975,68.3648791 L154.778661,68.0702519 L154.337059,67.8869798 L153.936536,67.8637809 L153.735248,67.7733048 L153.453855,67.5250756 L153.188894,67.2281285 L153.069764,67.0007783 L153.129329,66.7293501 L153.310078,66.525199 L153.515474,66.4579219 L153.616118,66.5692771 L153.815352,66.5924761 L154.15631,66.4115239 L154.417164,65.9823426 L154.316519,65.2306952 L154.117285,64.8687909 L153.815352,64.5045668 L153.515474,64.3444937 L153.268998,64.5950428 L153.028685,64.1426625 L152.589137,62.6208086 L152.889015,62.9641537 L153.149868,62.9641537 L153.37375,62.8481587 L153.554499,62.8017607 L153.874917,62.9641537 L154.076206,63.1891839 L154.035126,63.3724559 L153.675683,63.4606121 L153.714708,63.6438841 L154.135771,63.8921134 L155.179184,64.8919899 L155.380472,65.1866171 L155.279828,65.7990705 L154.476728,66.8407053 L154.236415,67.3650025 L155.060054,67.3882015 L155.179184,67.4786776 L155.279828,67.4786776 L155.805642,67.8637809 L156.185626,67.6596297 L156.647767,67.1144534 L156.908621,66.9543804 L157.430327,66.4347229 L158.25602,64.4813678 L158.857831,63.9593904 L158.917396,63.8248363 L158.638057,63.3260579 L158.617518,63.1219068 L158.798266,63.0546297 L158.958476,63.1891839 L159.118685,63.3724559 L159.278894,63.416534 L159.500722,63.2123829 L159.640391,62.8249597 L159.68147,62.3493804 L159.619852,61.8250831 L159.500722,61.713728 L159.239868,61.2381486 L159.180304,60.7834484 L159.580826,60.7834484 L159.599312,60.8971234 L159.860165,61.5536549 L160.486624,62.2565844 L160.186745,62.6672065 L160.24631,63.0082317 L160.486624,63.1451058 L160.687912,62.9641537 L160.868661,62.7576826 L163.820206,60.9435214 L164.442556,60.261471 L168.743555,59.6466977 L168.542266,59.3079924 L167.899376,58.581864 L167.780246,58.7860151 L167.620037,58.9437683 L167.439288,59.0806423 L167.098331,59.1711184 L167.318105,58.581864 L167.700142,58.0158086 L168.180769,57.5611083 L168.681936,57.3105592 L169.043433,57.5379093 L169.269369,58.1967607 L169.468604,58.9669673 L169.729457,59.5330227 L170.351808,59.7603728 L170.452452,59.0574433 L170.111494,56.4939547 L170.292243,56.5148338 L170.713305,56.946335 L171.274037,57.3105592 L170.992644,57.8325365 L171.173393,58.2640378 L171.639642,58.535466 L172.140809,58.628262 L172.621437,58.5145869 L172.822725,58.3777128 L172.982934,58.1735617 L173.044553,57.8998136 L172.962395,57.6956625 L172.863804,57.5379093 L172.822725,57.3778363 L172.923369,57.1040882 L173.063039,56.923136 L173.323892,56.6285088 L173.849707,55.4059219 L174.131099,54.9721008 L174.231744,54.7679496 L174.311848,54.4501234 L174.311848,54.1322972 L174.231744,53.6335189 L174.270769,53.3852897 L174.391953,53.3620907 L174.451518,53.5198438 L174.611727,53.7703929 L174.671292,53.9281461 L175.435366,53.2716146 L175.595575,53.0674635 L175.735245,52.5222872 L175.6346,52.271738 L175.474391,52.134864 L175.355261,51.8402368 L175.394287,51.3414584 L175.575035,51.2509824 L175.839997,51.2950605 L176.201494,51.2045844 L176.400728,50.9795542 L176.622556,50.4343778 L176.782766,50.2070277 L176.741686,49.9796776 L176.160415,49.7523275 L175.77427,49.2744282 L175.334722,48.8684458 L174.632266,48.7988489 L174.87258,49.2071511 L175.373747,49.7523275 L175.51547,50.1838287 L175.334722,50.3183829 L174.87258,50.4575768 L174.451518,50.775403 L174.330334,51.3414584 L174.131099,51.3414584 L173.243788,51.9075139 L172.90283,52.0211889 L172.76316,51.9747909 L172.621437,51.8843149 L172.541332,51.7265617 L172.502307,51.4783325 L172.541332,51.1373073 L172.683056,51.0700302 L172.843265,51.0468312 L173.344432,50.5712519 L173.424536,50.3671008 L173.243788,50.1165516 L172.742621,49.5922544 L172.722081,49.3208262 L172.742621,48.8220479 L172.701541,48.5274207 L172.641976,48.4369446 L172.360583,48.1191184 L172.301019,47.9845642 L172.179835,47.9613652 L172.00114,48.4369446 L171.859417,49.049398 L171.799852,49.5017783 L171.859417,49.8428035 L171.939521,50.2511058 L172.019626,50.684927 L171.9806,51.1605063 L171.580078,50.729005 L171.214472,50.5712519 L170.852975,50.5944509 L170.532556,50.661728 L170.12998,50.9563552 L170.251164,51.3646574 L170.894054,52.065267 L171.113828,52.6336423 L170.733845,52.5663652 L170.171059,52.294937 L169.729457,52.134864 L169.690432,52.0443879 L169.530223,51.7938388 L169.287855,51.5688086 L169.043433,51.4319345 L168.80312,51.4783325 L168.583346,51.6360856 L168.221848,52.065267 L167.919916,52.5454861 L167.659062,53.1138615 L167.338644,53.6103199 L166.81283,53.9954232 L166.652621,54.3364484 L166.512951,54.4269244 L166.391767,54.3828463 L166.272637,54.2691713 L166.130914,54.0882191 L165.26825,53.6567179 L164.142678,53.5198438 L163.11775,53.5662418 L162.131848,53.3156927 L161.129514,52.294937 L160.38598,51.1605063 L159.921784,50.684927 L159.459642,50.5480529 L159.358998,50.2279068 L158.116351,48.7315718 L158.979015,48.9357229 L160.305875,50.3671008 L161.16854,50.5712519 L161.509497,50.684927 L162.717228,51.6801637 L163.419683,52.088466 L164.261808,52.4086121 L164.968371,52.3854131 L165.91114,52.111665 L166.67316,51.5688086 L166.917582,50.798602 L167.299619,50.2743048 L168.141744,49.4113023 L168.78258,48.5946977 L168.583346,48.1191184 L169.20775,47.6876171 L169.569248,47.0055668 L169.548708,46.2121612 L169.022894,45.4651537 L168.743555,45.7597809 L168.78258,45.940733 L168.903764,45.9848111 L169.022894,46.0544081 L169.148185,46.0984861 L168.842145,46.3931134 L168.583346,46.3699144 L168.340978,46.2121612 L168.041099,46.1216851 L167.11887,46.2794383 L166.81283,46.2353602 L166.997686,45.8734559 L167.299619,45.5997078 L167.640577,45.4187557 L167.960995,45.3027607 L168.100664,45.1682065 L168.260874,44.8967783 L168.482702,44.6207103 L168.823659,44.4629572 L169.489143,44.5998312 L169.791076,44.5766322 L169.869126,44.305204 L169.708917,44.0546549 L169.409039,43.9201008 L168.842145,43.7832267 L168.80312,43.6022746 L169.951285,43.6022746 L170.431912,43.4885995 L170.571582,43.0594181 L170.571582,42.739272 L170.692766,42.1732166 L170.612661,41.9667456 L170.191599,41.6257204 L169.99031,41.3774912 L169.869126,41.082864 L169.349474,41.1733401 L167.238,40.9019118 L165.368894,40.8555139 L163.840745,40.2894584 L162.476914,40.2430605 L162.090769,40.0829874 L161.328749,39.653806 L160.326415,39.2663829 L159.379538,39.2199849 L158.798266,39.8115592 L158.436769,38.9253577 L158.155376,38.6098514 L157.69118,38.5634534 L157.430327,38.4729773 L157.128395,38.1551511 L156.606688,37.3385466 L157.569997,37.9301209 L158.075272,38.1319521 L159.098145,38.1783501 L160.26685,38.6098514 L160.907686,38.6771285 L162.051744,38.5634534 L162.517993,38.7235264 L163.078725,39.1086297 L163.620971,39.2663829 L164.728057,38.6307305 L165.389433,38.6539295 L165.448998,38.4497783 L165.570182,38.3152242 L165.709852,38.2015491 L165.91114,38.111073 L165.970705,38.7908035 L166.512951,39.1295088 L167.178435,39.1295088 L167.578958,38.7676045 L167.459828,38.5634534 L167.299619,38.4288992 L167.11887,38.3361033 L166.878556,38.2920252 L166.917582,38.1551511 L166.938121,38.043796 L166.977147,37.9301209 L167.098331,37.8164458 L167.057251,37.6331738 L166.897042,37.5635768 L166.732725,37.4522217 L166.332202,37.1343955 L166.391767,36.9511234 L166.492411,36.2713929 L166.291123,36.0208438 L166.071349,35.7958136 L165.789956,35.6589395 L165.448998,35.6357406 L166.211019,34.772738 L166.632081,34.4549118 L167.219514,34.3644358 L168.281413,34.4085139 L168.764094,34.3180378 L169.308395,34.0698086 L169.148185,34.9536902 L168.823659,35.2506373 L167.700142,35.3202343 L167.157895,35.5916625 L167.13941,35.9535668 L167.439288,36.2945919 L167.919916,36.5428212 L167.960995,36.7237733 L167.700142,37.1111965 L168.061639,37.3617456 L169.043433,37.5635768 L169.004408,37.7491688 L168.963329,37.8837229 L168.862685,37.974199 L168.681936,38.0646751 L169.043433,38.4961763 L169.388499,38.7235264 L170.251164,38.9717557 L170.12998,38.7676045 L170.01085,38.6098514 L169.850641,38.5193753 L169.690432,38.4497783 L169.791076,38.1319521 L169.99031,37.951 L170.251164,37.9301209 L170.532556,38.043796 L170.813949,36.9047254 L170.532556,36.385068 L170.713305,36.1136398 L171.093288,36.1809169 L171.378789,36.6796952 L171.580078,37.6331738 L171.760826,38.111073 L172.00114,38.2920252 L172.040165,38.5193753 L171.152853,38.7444055 L171.315116,39.0390327 L171.458894,39.0622317 L171.619103,38.9949547 L171.820391,39.0158338 L172.179835,39.2199849 L172.381123,39.4914131 L172.683056,39.2199849 L172.701541,38.7676045 L172.561872,38.3593023 L172.360583,38.2247481 L172.301019,37.997398 L172.241454,37.5867758 L172.360583,37.2921486 L172.90283,37.4522217 L173.143143,37.7236499 L173.588853,38.4288992 L174.350874,38.7676045 L174.611727,38.7676045 L174.652806,38.4288992 L174.671292,38.0878741 L174.792476,37.951 L174.952685,37.951 L175.293642,38.4497783 L175.696219,38.4961763 L177.183288,38.1783501 L177.322958,37.997398 L177.503707,37.5194987 L177.725535,37.2480705 L178.491663,36.7469723 L178.812081,36.6332972 L178.773056,36.4523451 L178.450583,36.0672418 L178.430044,35.3643123 L178.672411,34.8632141 L179.132499,35.0673652 L179.013369,35.3202343 L179.274223,35.4547884 L179.393352,35.3875113 L179.434432,35.1369622 L179.372813,34.705461 L179.434432,34.4317128 L179.61518,34.1811637 L179.674745,33.8888564 L179.434432,33.5037531 L179.935599,33.162728 L180.056782,33.0258539 L180.136887,32.7776247 L180.116347,32.6175516 L180.015703,32.4806776 L179.976678,32.3229244 L179.876034,32.1419723 L179.876034,31.9563804 L180.256017,31.7545491 L180.360769,31.6617531 L181.303538,29.9171889 L181.303538,29.6225617 L181.182354,29.1446625 L181.10225,28.6226851 L181.202894,28.1239068 L181.504826,28.7595592 L181.504826,28.7595592 Z" id="Stroke-48" stroke="#F9F9F9" stroke-width="0.25" stroke-linecap="round" stroke-linejoin="round"></path>
            </g>
        </g>
    </g>
</svg>