<?xml version="1.0" encoding="UTF-8"?>
<svg width="136px" height="231px" viewBox="0 0 136 231" version="1.1" xmlns="http://www.w3.org/2000/svg" xmlns:xlink="http://www.w3.org/1999/xlink">
    <!-- Generator: Sketch 51 (57462) - http://www.bohemiancoding.com/sketch -->
    <title>Nevada</title>
    <desc>Created with Sketch.</desc>
    <defs></defs>
    <g id="Page-1" stroke="none" stroke-width="1" fill="none" fill-rule="evenodd">
        <g id="A5" transform="translate(-175.000000, -255.000000)">
            <g id="Nevada" transform="translate(175.000000, 255.000000)">
                <polygon id="Fill-33" fill="#D6D6D6" points="115.309828 196.76795 114.827147 197.313126 114.486189 198.220207 114.063073 199.310559 113.580391 200.581864 112.777292 200.943768 111.67226 200.990166 111.130013 200.876491 110.647332 200.558665 110.285835 200.106285 110.066061 199.672463 109.905852 199.28736 109.5423 197.971977 109.42317 197.654151 109.240368 197.336325 109.041133 197.018499 108.860384 196.858426 108.677582 196.747071 108.537912 196.698353 108.23598 196.698353 108.09631 196.721552 107.975126 196.76795 107.373315 197.062577 107.231592 197.108975 107.091922 197.108975 106.929659 197.085776 106.748911 197.041698 106.467518 196.881625 106.266229 196.675154 106.10602 196.494202 106.00743 196.403725 105.925272 196.336448 104.801754 195.770393 104.598411 195.723995 104.419717 195.747194 104.056165 195.860869 102.751899 196.041821 101.987825 196.426924 101.203211 196.698353 101.102567 196.791149 101.003976 196.881625 100.821174 197.108975 100.741069 197.22265 100.681504 197.473199 100.640425 197.814224 100.619885 198.514834 100.58086 198.855859 100.441191 199.173685 100.018074 199.561108 99.9585093 200.400912 100.077639 201.238395 100.320007 201.987723 101.043002 203.372703 101.143646 203.66733 101.143646 204.008355 101.022462 204.34938 100.539781 205.05463 100.379572 205.483811 100.157744 207.163418 100.118718 208.003222 100.157744 208.615675 100.660965 210.930935 100.761609 211.450592 100.500755 212.065365 100.480216 213.403947 99.8578651 214.812126 100.077639 216.060232 100.320007 217.582086 100.821174 219.259373 100.942358 220.0087 100.821174 220.827625 100.782148 221.597831 100.903332 223.096486 100.882793 224.319073 100.782148 224.957045 100.441191 226.137874 100.340546 226.22835 100.059153 226.318826 99.7366813 226.362904 99.4347487 226.318826 99.1944351 226.386103 99.0732513 226.794406 99.1554098 227.091353 99.4963676 227.703806 99.5353929 228.112108 99.4142091 228.406736 98.812398 229.086466 98.9130422 230.109542 98.8925025 230.450567 95.2960135 225.525421 91.7385497 220.577076 88.0414165 215.424579 84.6071906 210.522632 81.5714334 206.163542 78.5377302 201.785892 75.5225126 197.405922 72.5298887 193.046831 69.5352108 188.664542 66.5425868 184.263693 63.5663946 179.883723 60.612796 175.503753 57.1970556 170.666763 50.4456796 160.999743 47.1100438 156.141874 43.7538685 151.307204 40.4182327 146.451655 37.1031366 141.593786 33.8085801 136.735917 29.548661 130.90369 25.3072277 125.071463 21.0883879 119.216038 16.8880337 113.358292 12.7102732 107.505186 8.54894435 101.628882 4.41020911 95.7456171 0.292013491 89.8693123 0.351578415 89.46333 0.632971332 87.804602 1.51617538 82.3342796 2.38089376 76.8894761 6.80102192 49.651539 7.6657403 44.2067355 9.43420236 33.3588866 10.2968668 27.9094433 12.0673828 17.0615945 12.9300472 11.660869 13.8153052 6.23694458 14.6779696 0.833899244 18.4552074 1.60410579 22.2344992 2.37895214 26.0117369 3.1259597 29.7684351 3.87528715 33.5477268 4.62229471 37.304425 5.35074307 41.0816627 6.10007053 44.8609545 6.82387909 48.6381922 7.52680856 52.41543 8.23205793 56.1926678 8.9373073 59.9699056 9.63791688 63.7471433 10.3199673 67.5264351 11.0020176 71.3036728 11.6817481 75.1014503 12.3382796 78.8581484 12.9994509 82.6374401 13.6583023 86.4146779 14.2916348 90.1919157 14.9272872 93.9691535 15.5397406 97.7484452 16.1777128 101.525683 16.7878463 105.302921 17.3771008 109.080159 17.9918741 112.857396 18.5834484 116.636688 19.1727028 120.413926 19.7387582 124.211703 20.3071335 127.988941 20.8731889 131.766179 21.4206851 135.563956 21.9635416 134.518489 31.2709773 133.996782 35.9455743 133.475076 40.5969723 132.93283 45.2483703 132.411123 49.9276071 131.887363 54.579005 130.841895 63.9305189 130.299649 68.602796 128.732476 82.6289068 128.210769 87.3290227 127.666469 92.0036196 127.144762 96.7037355 126.623056 101.376013 126.080809 106.076128 124.513636 120.146317 123.97139 124.846433 123.447629 129.544229 122.905383 134.262904 121.338209 148.356292 120.795963 153.077287 120.272202 157.777403 119.729956 162.498398 118.684489 171.917189 118.645464 172.165418 118.565359 172.870668 118.444175 173.979579 118.283966 175.410957 118.082678 177.113763 117.86085 178.995202 117.641076 181.015834 117.158395 185.193972 116.916027 187.212285 116.716793 189.096043 116.515504 190.798849 116.355295 192.227907 116.234111 193.341458 116.154007 194.044388 116.112927 194.294937 115.973258 195.566242 115.911639 195.860869 115.831535 196.155496"></polygon>
                <polygon id="Stroke-34" stroke="#F9F9F9" stroke-width="0.25" stroke-linecap="round" stroke-linejoin="round" points="115.309828 196.76795 114.827147 197.313126 114.486189 198.220207 114.063073 199.310559 113.580391 200.581864 112.777292 200.943768 111.67226 200.990166 111.130013 200.876491 110.647332 200.558665 110.285835 200.106285 110.066061 199.672463 109.905852 199.28736 109.5423 197.971977 109.42317 197.654151 109.240368 197.336325 109.041133 197.018499 108.860384 196.858426 108.677582 196.747071 108.537912 196.698353 108.23598 196.698353 108.09631 196.721552 107.975126 196.76795 107.373315 197.062577 107.231592 197.108975 107.091922 197.108975 106.929659 197.085776 106.748911 197.041698 106.467518 196.881625 106.266229 196.675154 106.10602 196.494202 106.00743 196.403725 105.925272 196.336448 104.801754 195.770393 104.598411 195.723995 104.419717 195.747194 104.056165 195.860869 102.751899 196.041821 101.987825 196.426924 101.203211 196.698353 101.102567 196.791149 101.003976 196.881625 100.821174 197.108975 100.741069 197.22265 100.681504 197.473199 100.640425 197.814224 100.619885 198.514834 100.58086 198.855859 100.441191 199.173685 100.018074 199.561108 99.9585093 200.400912 100.077639 201.238395 100.320007 201.987723 101.043002 203.372703 101.143646 203.66733 101.143646 204.008355 101.022462 204.34938 100.539781 205.05463 100.379572 205.483811 100.157744 207.163418 100.118718 208.003222 100.157744 208.615675 100.660965 210.930935 100.761609 211.450592 100.500755 212.065365 100.480216 213.403947 99.8578651 214.812126 100.077639 216.060232 100.320007 217.582086 100.821174 219.259373 100.942358 220.0087 100.821174 220.827625 100.782148 221.597831 100.903332 223.096486 100.882793 224.319073 100.782148 224.957045 100.441191 226.137874 100.340546 226.22835 100.059153 226.318826 99.7366813 226.362904 99.4347487 226.318826 99.1944351 226.386103 99.0732513 226.794406 99.1554098 227.091353 99.4963676 227.703806 99.5353929 228.112108 99.4142091 228.406736 98.812398 229.086466 98.9130422 230.109542 98.8925025 230.450567 95.2960135 225.525421 91.7385497 220.577076 88.0414165 215.424579 84.6071906 210.522632 81.5714334 206.163542 78.5377302 201.785892 75.5225126 197.405922 72.5298887 193.046831 69.5352108 188.664542 66.5425868 184.263693 63.5663946 179.883723 60.612796 175.503753 57.1970556 170.666763 50.4456796 160.999743 47.1100438 156.141874 43.7538685 151.307204 40.4182327 146.451655 37.1031366 141.593786 33.8085801 136.735917 29.548661 130.90369 25.3072277 125.071463 21.0883879 119.216038 16.8880337 113.358292 12.7102732 107.505186 8.54894435 101.628882 4.41020911 95.7456171 0.292013491 89.8693123 0.351578415 89.46333 0.632971332 87.804602 1.51617538 82.3342796 2.38089376 76.8894761 6.80102192 49.651539 7.6657403 44.2067355 9.43420236 33.3588866 10.2968668 27.9094433 12.0673828 17.0615945 12.9300472 11.660869 13.8153052 6.23694458 14.6779696 0.833899244 18.4552074 1.60410579 22.2344992 2.37895214 26.0117369 3.1259597 29.7684351 3.87528715 33.5477268 4.62229471 37.304425 5.35074307 41.0816627 6.10007053 44.8609545 6.82387909 48.6381922 7.52680856 52.41543 8.23205793 56.1926678 8.9373073 59.9699056 9.63791688 63.7471433 10.3199673 67.5264351 11.0020176 71.3036728 11.6817481 75.1014503 12.3382796 78.8581484 12.9994509 82.6374401 13.6583023 86.4146779 14.2916348 90.1919157 14.9272872 93.9691535 15.5397406 97.7484452 16.1777128 101.525683 16.7878463 105.302921 17.3771008 109.080159 17.9918741 112.857396 18.5834484 116.636688 19.1727028 120.413926 19.7387582 124.211703 20.3071335 127.988941 20.8731889 131.766179 21.4206851 135.563956 21.9635416 134.518489 31.2709773 133.996782 35.9455743 133.475076 40.5969723 132.93283 45.2483703 132.411123 49.9276071 131.887363 54.579005 130.841895 63.9305189 130.299649 68.602796 128.732476 82.6289068 128.210769 87.3290227 127.666469 92.0036196 127.144762 96.7037355 126.623056 101.376013 126.080809 106.076128 124.513636 120.146317 123.97139 124.846433 123.447629 129.544229 122.905383 134.262904 121.338209 148.356292 120.795963 153.077287 120.272202 157.777403 119.729956 162.498398 118.684489 171.917189 118.645464 172.165418 118.565359 172.870668 118.444175 173.979579 118.283966 175.410957 118.082678 177.113763 117.86085 178.995202 117.641076 181.015834 117.158395 185.193972 116.916027 187.212285 116.716793 189.096043 116.515504 190.798849 116.355295 192.227907 116.234111 193.341458 116.154007 194.044388 116.112927 194.294937 115.973258 195.566242 115.911639 195.860869 115.831535 196.155496"></polygon>
            </g>
        </g>
    </g>
</svg>