<?xml version="1.0" encoding="UTF-8"?>
<svg width="130px" height="222px" viewBox="0 0 130 222" version="1.1" xmlns="http://www.w3.org/2000/svg" xmlns:xlink="http://www.w3.org/1999/xlink">
    <!-- Generator: Sketch 51 (57462) - http://www.bohemiancoding.com/sketch -->
    <title>Idaho</title>
    <desc>Created with Sketch.</desc>
    <defs></defs>
    <g id="Page-1" stroke="none" stroke-width="1" fill="none" fill-rule="evenodd">
        <g id="A5" transform="translate(-249.000000, -63.000000)">
            <g id="Idaho" transform="translate(250.000000, 63.000000)">
                <polygon id="Fill-75" fill="#D6D6D6" points="128.159875 147.600504 127.759352 152.207824 127.33829 156.838343 126.935713 161.445662 126.533137 166.073861 126.11002 170.70438 125.308975 179.965418 124.887912 184.616816 124.483282 189.249655 124.060165 193.898733 123.25912 203.206169 122.836003 207.859887 122.412887 212.511285 121.609788 221.83728 117.772985 221.384899 113.954668 220.955718 110.136351 220.501018 106.318034 220.046317 102.501771 219.568418 94.8651366 218.617259 91.0673592 218.14168 87.2490422 217.640582 83.4307251 217.141804 79.6144621 216.617506 75.796145 216.118728 71.9983676 215.599071 68.1800506 215.053894 64.3617336 214.506398 60.5639562 213.963542 56.7661788 213.420685 52.988941 212.873189 49.2117032 212.307134 45.4139258 211.738758 41.636688 211.172703 37.8573963 210.583448 34.0801585 209.991874 30.3029207 209.377101 26.525683 208.787846 22.7484452 208.177713 18.9691535 207.539741 15.1919157 206.927287 11.4146779 206.291635 7.63744013 205.658302 3.8581484 204.999451 0.101450253 204.33828 0.501973019 201.276013 0.925089376 198.236945 1.34820573 195.170038 1.7487285 192.107771 2.16979089 189.064063 2.59290725 186.001796 2.99548398 182.939529 3.83760877 176.854433 4.2401855 173.792166 4.66330185 170.750778 5.06587858 167.70939 5.48694098 164.668003 5.90800337 161.601096 6.3105801 158.562028 6.7316425 155.52296 6.91239123 154.202937 7.2738887 151.548972 7.25540304 151.163869 7.2738887 150.936519 7.21432378 150.233589 7.59636088 149.802088 8.07904216 149.507461 8.36043508 149.164116 8.68085329 148.530783 8.84106239 147.851053 9.22309949 146.941652 9.52503204 145.760824 9.66675548 145.445317 9.78588533 145.241166 9.88652951 145.013816 9.9481484 144.69367 9.88652951 144.034819 9.48600675 142.949106 9.54557167 142.473526 9.78588533 142.243856 10.0672782 142.243856 10.3301855 142.313453 10.5704992 142.243856 10.7717875 141.972428 10.8929713 141.656922 10.9730759 141.313577 11.0121012 140.972552 11.1127454 140.814798 11.2750084 140.677924 11.3735987 140.473773 11.3140337 140.179146 10.9915616 139.701247 10.691683 139.362542 10.2891062 139.019196 10.2090017 138.861443 10.1083575 138.429942 10.1083575 138.112116 10.1679224 137.773411 10.1288971 137.501982 9.90706914 137.365108 9.44492749 137.365108 9.06289039 137.478783 8.72193255 137.525181 8.31935582 137.297831 8.20022597 137.047282 8.11806745 136.754975 7.99893761 136.476587 7.75656998 136.365232 7.47517707 136.432509 7.25540304 136.618101 7.05411467 136.843131 6.83228668 137.047282 6.14831703 136.318834 5.88746374 135.866453 5.82789882 135.300398 5.88746374 135.005771 6.02918718 134.641547 6.10929174 134.344599 6.08875211 133.959496 5.90800337 133.300645 5.86897808 132.96194 6.02918718 132.282209 6.33111973 131.734713 6.55089376 131.235935 6.47078921 130.41933 6.61251265 130.238378 6.83228668 130.101504 6.93293086 129.943751 7.05411467 129.579526 7.25540304 129.465851 7.47517707 129.442652 7.71754469 129.352176 8.01947723 129.059869 8.36043508 128.602849 8.64182799 128.080872 8.96224621 126.96964 9.26417875 126.378065 9.90706914 125.450106 10.6506037 124.044247 10.911457 123.654504 11.3345734 123.246202 12.6408938 122.612869 13.0619562 122.341441 13.3823744 122.021295 14.6907487 120.341688 15.2720202 119.388209 15.5143879 118.868552 15.9149106 117.550849 16.0155548 116.938395 15.9950152 116.847919 15.9149106 116.687846 15.8553457 116.441937 15.8553457 116.096272 15.9559899 115.801645 16.1552243 115.507018 18.6877605 112.491149 19.2505464 111.423995 19.8338718 109.70031 20.1542901 109.24329 20.4171973 108.790909 20.6369713 107.586882 20.7992344 106.976748 21.1196526 106.498849 21.9042664 105.770401 22.3253288 104.842441 23.4303609 103.728889 23.5310051 103.455141 23.7117538 102.865887 24.1944351 101.935607 24.3341046 101.756975 24.9975346 101.165401 25.3405464 100.754778 25.5603204 100.232801 25.6198853 99.5994685 25.5603204 98.9846952 25.0591535 97.4419622 24.8578651 96.1938564 24.6771164 95.581403 24.475828 95.2171788 24.2355143 94.9016725 23.4509005 94.5838463 22.425973 93.6535668 22.0850152 93.0828715 21.9248061 92.8578413 20.5774064 92.2917859 20.4171973 91.8834836 20.3165531 91.4055844 19.3306509 89.9301285 18.9691535 88.2041234 18.9301282 87.2761637 18.9095885 87.1392897 18.6281956 85.7519899 17.8045565 84.1860579 17.7244519 83.8473526 18.4063676 83.2789773 18.6877605 82.917073 18.9691535 82.3486977 19.049258 81.7362443 18.7288398 80.8755617 18.7083002 79.4233048 18.5275514 78.7644534 18.0448702 77.4931486 17.3013356 76.0849698 17.221231 75.6302695 17.3609005 75.1082922 17.7840169 74.2476096 17.884661 73.407806 18.5070118 68.802806 19.1314165 64.2163652 19.7332277 59.6090453 20.3555784 55.0226045 20.9594435 50.4408035 21.5817943 45.8775617 22.1856594 41.2911209 22.8080101 36.730199 24.0136863 27.6083552 24.6360371 23.0427935 25.8417133 13.9673476 26.466118 9.42730479 27.0679292 4.88958186 27.6697403 0.370418136 29.5183069 0.688244332 33.6180169 1.3934937 37.7382664 2.09642317 41.8379764 2.79935264 45.9356324 3.48140302 46.1574604 3.50460202 45.7158583 6.86149622 45.292742 10.2207103 44.85114 13.5822443 44.4095379 16.9623375 43.9679359 20.3192317 43.5242799 23.7016448 43.1032175 27.0608589 42.6595616 30.4409521 42.4788128 31.8746499 42.5198921 32.055602 42.6410759 32.3734282 43.0025734 32.8490076 43.464715 33.6656121 43.6454637 34.1435113 44.0275008 34.8696398 44.128145 35.210665 44.1877099 35.370738 44.2883541 35.5261713 44.5101821 35.7767204 44.6909309 36.0272695 44.85114 36.3427758 45.0113491 36.5492469 45.4139258 36.913471 45.5556492 37.0712242 45.6542395 37.3194534 45.6953187 37.5004055 45.8760675 38.9549824 45.9356324 39.1382544 46.0568162 39.3192065 46.5189578 39.7043098 46.6791669 39.885262 46.7592715 40.1798892 46.7798111 40.3863602 46.8208904 40.5881914 46.9009949 40.7459446 47.4021619 41.2238438 47.5233457 41.381597 47.6034503 41.6553451 47.6445295 41.8594962 47.6239899 42.0636474 47.4822664 42.7665768 47.5438853 43.0171259 47.9649477 43.9497254 48.0450523 44.2652317 48.0655919 44.5157809 48.006027 44.673534 47.8458179 44.9449622 47.7431197 45.0586373 47.6445295 45.1491134 47.5438853 45.2395894 47.0406644 45.4460605 46.9215346 45.5156574 46.8208904 45.6038136 46.8208904 45.7615668 46.9009949 45.9216398 47.3631366 46.3531411 47.5028061 46.5596121 47.6239899 46.8983174 47.6445295 47.5107708 47.6630152 47.5339698 47.8252782 47.6917229 48.1066712 47.898194 48.2668803 48.0559471 48.3264452 48.2577783 48.2668803 48.3969723 48.1662361 48.5129673 48.0450523 48.5570453 47.9053828 48.6034433 47.7636594 48.6243224 46.9400202 48.5570453 46.8208904 48.5802443 46.7202462 48.6475214 46.6606813 48.6915995 46.5785228 48.7820756 46.5374435 48.9166297 46.5579831 49.0790227 46.6791669 49.2599748 46.9810995 49.4641259 47.6835548 49.8260302 48.9898752 51.0532569 49.1500843 51.2318892 49.6738449 52.0948917 49.9141585 52.616869 50.0353423 53.0506902 50.1770658 53.4566725 50.2571703 53.6190655 50.3968398 53.7536196 50.6576931 53.9322519 51.602516 54.252398 53.2292546 55.2499547 53.3709781 55.4077078 53.5127015 55.5909798 53.6729106 55.9760831 53.8125801 56.4307834 53.872145 56.5908564 53.9727892 56.7718086 54.0344081 56.9295617 54.0754874 57.0664358 54.093973 57.384262 54.1535379 57.5420151 54.2541821 57.6788892 54.4349309 57.8134433 54.5766543 57.9503174 54.6772985 58.1103904 54.8375076 58.4050176 54.9771771 58.6346877 55.4598583 59.087068 55.6406071 59.3352972 56.0637234 60.1982997 56.2650118 60.9221083 57.7315413 63.1724106 57.7520809 63.3278438 57.7911062 63.854461 57.7911062 63.9194181 57.8116459 63.9866952 57.8917504 64.1258892 58.0334739 64.2627632 58.2943272 64.4205164 58.6558246 64.5782695 58.7749545 64.6919446 58.8755987 64.8496977 59.3192546 65.6918212 59.4383845 65.8472544 59.5801079 66.0073275 60.0217099 66.3970705 60.1223541 66.5293048 60.1223541 66.6893778 60.0812749 66.8262519 60.0011703 66.984005 59.962145 67.1649572 59.9210658 67.3482292 59.9005261 67.8470076 59.9210658 68.1648338 59.962145 68.4803401 60.0812749 68.9141612 60.183973 69.0719144 60.3441821 69.2551864 60.8864283 69.7539647 61.0671771 69.978995 61.3074907 70.3640982 61.4882395 70.5914484 61.7696324 70.7747204 62.3118786 71.0252695 62.4330624 71.1366247 62.5131669 71.2734987 62.5747858 71.5008489 62.5542462 71.705 62.5337066 71.888272 62.3118786 72.5680025 62.291339 72.7257557 62.3324182 72.8626297 62.4125228 72.9971839 62.5932715 73.0667809 62.7555346 73.0667809 62.895204 72.9971839 63.3778853 72.4984055 63.7188432 72.2733753 63.8605666 72.2037783 64.1419595 72.2037783 64.281629 72.2501763 64.4212985 72.3406524 64.8649545 72.7930327 64.9655987 72.9739849 65.1052681 73.270932 65.1052681 73.4959622 65.0662428 73.6560353 64.7643103 73.9761814 64.6842057 74.1107355 64.6451804 74.2708086 64.6636661 74.4285617 64.6842057 74.5654358 64.8053895 74.7695869 64.9861383 74.9946171 65.4072007 75.3820403 65.668054 75.5397935 65.9104216 75.6534685 66.2308398 75.6766675 66.4732074 75.6302695 66.9353491 75.5165945 67.0750185 75.5165945 67.1962024 75.5629924 67.4981349 75.7462645 67.6378044 75.7903426 67.7980135 75.7903426 67.9397369 75.7694635 68.2005902 75.6534685 68.5415481 75.4493174 68.6627319 75.4261184 70.0080776 75.2451662 70.1682867 75.2683652 70.3305497 75.3124433 70.4702192 75.4029194 70.5708634 75.5397935 70.6324823 75.7462645 70.650968 75.9272166 70.5708634 76.6510252 70.4702192 76.9943703 70.3100101 77.2657985 70.2504452 77.4235516 70.2093659 77.5836247 70.1888263 77.7413778 70.2093659 77.8782519 70.2093659 78.059204 70.1682867 78.1937582 70.1087218 78.3561511 69.927973 78.5811814 69.8684081 78.7180554 69.8478685 78.8758086 69.8684081 79.0382015 69.9074334 79.1704358 69.927973 79.3096297 69.9485126 79.4465038 69.8889477 79.6042569 69.8088432 79.694733 69.706145 79.7852091 69.4658314 79.9220831 68.9030455 80.0566373 68.7839157 80.1030353 68.7038111 80.1703123 68.6421922 80.3071864 68.6421922 80.3744635 68.7038111 80.5090176 68.9441248 80.8964408 69.0036897 81.0773929 69.0632546 81.237466 69.0837943 81.3952191 69.0837943 81.5784912 69.042715 81.7594433 68.9831501 81.9195164 68.9235852 82.1004685 68.3607993 83.0516272 68.2396155 83.3717733 68.1410253 83.7104786 68.099946 84.0770227 68.0794064 84.438927 68.0609207 84.6198791 67.9993019 84.7776322 67.9191973 84.8913073 67.4570556 85.4573627 67.3769511 85.5942368 67.3358718 85.7519899 67.2763069 86.095335 67.214688 86.2530882 67.1345835 86.3899622 66.9353491 86.6173123 66.8737302 86.7286675 66.8141653 86.8678615 66.8141653 87.0256146 66.8531906 87.2065668 66.9148094 87.4107179 66.994914 87.7285441 67.0154536 87.8862972 67.0154536 88.0440504 66.994914 88.5683476 67.0154536 88.8861738 66.994914 89.0694458 66.9558887 89.227199 66.8737302 89.3408741 66.773086 89.4313501 66.6539562 89.4986272 66.5122327 89.5218262 65.8488027 89.4986272 65.7276189 89.5450252 65.6290287 89.6123023 65.5879494 89.6587003 65.5283845 89.7723753 65.4873052 89.9301285 65.4873052 90.0878816 65.5674098 90.2711537 66.2308398 91.2687103 66.2904047 91.4055844 66.331484 91.5633375 66.3109444 91.7257305 66.2698651 91.9066826 66.2103002 92.0412368 66.1301956 92.1781108 65.668054 92.7441662 65.5879494 92.8810403 65.5283845 93.0387935 65.5078449 93.2197456 65.5468702 93.4470957 65.668054 93.7649219 65.668054 93.969073 65.6290287 94.1523451 65.5674098 94.3100982 65.608489 94.4933703 65.7686981 94.6975214 66.1897605 94.9921486 66.6929815 95.2171788 66.8326509 95.3308539 66.8737302 95.511806 66.8737302 95.7159572 66.8141653 95.8737103 66.5717976 96.2634534 66.4526678 96.5789597 66.4115885 96.7622317 66.4115885 96.9223048 66.4321282 97.0568589 66.4916931 97.216932 66.8141653 97.9871385 66.8141653 98.1912897 66.773086 98.3722418 66.6724418 98.483597 66.1507352 98.9174181 66.0295514 98.9846952 65.889882 99.0310932 65.7481585 99.0310932 65.0662428 98.9638161 64.9245194 98.9846952 64.8053895 99.0310932 64.5835616 99.1656474 64.503457 99.2607632 64.4418381 99.3280403 64.3227083 99.5762695 64.059801 99.9172947 63.8995919 100.165524 63.7393828 100.436952 63.618199 100.527428 63.396371 100.7107 63.2977808 100.801176 63.2567015 100.93573 63.2772411 101.165401 63.396371 101.460028 63.4579899 101.86833 63.4785295 102.028403 63.5791737 102.209355 64.0207757 102.821809 64.1214199 103.046839 64.1214199 103.25099 64.0207757 103.522418 64.0002361 103.661612 64.0413153 103.979438 64.0207757 104.137191 63.9591568 104.297264 63.8995919 104.434139 63.8605666 104.524615 63.7989477 104.591892 63.4970152 104.842441 63.0574671 105.157947 62.954769 105.250743 62.9157437 105.408496 62.9342293 105.589448 63.0163879 105.860877 63.0759528 106.041829 63.0759528 106.225101 63.0369275 106.385174 62.954769 106.519728 62.6939157 106.863073 62.67543 106.976748 62.7349949 107.090423 63.0163879 107.180899 63.396371 107.224977 64.281629 107.566003 64.4623777 107.656479 65.0662428 108.268932 65.1463474 108.447564 65.1648331 108.630836 65.1853727 108.790909 65.2860169 108.971861 65.4667656 109.152814 66.0911703 109.630713 66.1712749 109.858063 66.2308398 109.971738 66.3725632 110.106292 66.5717976 110.219967 66.9743744 110.310443 67.1962024 110.287244 67.3769511 110.243166 67.4981349 110.175889 67.9787622 109.994937 68.0794064 109.92534 68.099946 109.902141 68.2005902 109.767587 68.4819831 109.176013 68.5620877 109.039139 68.6627319 108.925463 68.7633761 108.837307 68.8825059 108.76771 69.0036897 108.723632 69.1659528 108.723632 69.486371 108.814108 69.6465801 108.814108 69.7677639 108.76771 70.2504452 108.517161 71.0740843 108.268932 71.1932142 108.199335 71.2753727 108.108859 71.3349376 107.971985 71.4150422 107.837431 71.4951467 107.700557 71.6163305 107.610081 71.977828 107.429128 72.0784722 107.361851 72.1791164 107.224977 72.2592209 107.090423 72.3187858 106.93035 72.4789949 106.656602 72.5816931 106.542927 72.6823373 106.452451 72.8014671 106.385174 72.9431906 106.341096 73.4648971 106.225101 73.5655413 106.181023 73.6251062 106.132305 73.6661855 106.02095 73.6661855 105.728642 73.6251062 105.522171 73.6045666 105.385297 73.6251062 105.227544 73.6456459 105.046592 73.6867251 104.909718 73.7462901 104.842441 73.8263946 104.775164 73.9475784 104.751965 74.1878921 104.886519 74.5493895 105.137068 75.1717403 105.770401 75.6359359 106.320217 75.6749612 106.452451 75.6955008 106.610204 75.6749612 106.93035 75.796145 107.111302 76.017973 107.292254 76.9812816 107.814232 77.1414907 107.904708 77.2626745 108.062461 77.4228836 108.289811 77.4824486 108.470763 77.5029882 108.630836 77.4639629 108.790909 77.3838583 108.925463 77.2031096 109.152814 77.1414907 109.289688 77.0018212 109.607514 76.9217167 109.971738 76.8806374 110.15269 76.9402024 110.333642 77.0819258 110.514594 77.6652513 110.876499 77.846 111.103849 77.8850253 111.333519 77.8644857 111.354398 77.846 111.53535 77.846 112.036448 77.8254604 112.196521 77.7658954 112.354275 77.6036324 112.625703 77.5440675 112.785776 77.5029882 112.966728 77.4824486 113.124481 77.5029882 113.282234 77.5235278 113.419108 77.5235278 113.760134 77.5830927 113.987484 78.0863137 114.555859 78.2074975 114.76001 78.2670624 114.964161 78.2280371 115.326065 78.1068533 116.052194 78.0267487 116.393219 78.0062091 116.574171 77.9856695 116.915196 78.0267487 117.052071 78.0863137 117.188945 78.1869578 117.346698 78.5874806 117.755 78.729204 117.935952 78.7908229 118.096025 78.8093086 118.276977 78.7908229 118.594804 78.8093086 118.752557 78.8914671 118.91263 79.1913457 119.253655 79.5343575 119.798831 79.8136965 120.116657 80.0560641 120.501761 80.1567083 120.74999 80.1957336 120.912383 80.2368128 121.20469 80.2368128 121.385642 80.2573524 121.548035 80.2758381 121.682589 80.4175616 121.954018 80.4771265 122.070013 80.4976661 122.227766 80.4586408 122.58967 80.4771265 122.749743 80.5777707 122.861098 80.7379798 122.951574 81.3808702 123.021171 81.5225936 123.132526 81.6437774 123.359877 81.7033423 123.902733 81.7444216 124.044247 82.2661282 125.085882 82.3462327 125.380509 82.5680607 126.241191 82.5865464 126.401264 82.6276256 126.879164 82.6276256 126.923242 82.5865464 127.083315 82.387312 127.786244 82.3256931 127.946317 82.2455885 128.080872 82.1469983 128.194547 82.0443002 128.285023 81.6437774 128.424217 81.5431332 128.491494 81.442489 128.57965 81.4014098 128.716524 81.4219494 128.851078 81.4815143 128.987952 81.6437774 129.238501 81.7629073 129.48905 81.8450658 129.762798 82.0237605 130.669879 82.1264587 130.943627 82.2661282 131.212736 82.4859022 131.440086 83.3506206 132.03166 83.6114739 132.25901 83.7531973 132.439962 83.7737369 132.600035 83.7737369 133.096494 83.8743811 133.233368 84.0551298 133.300645 84.4166273 133.323844 84.6179157 133.279766 84.7781248 133.210169 85.2197268 132.871463 85.320371 132.804186 85.4600405 132.757788 85.6017639 132.71139 85.9427218 132.780987 86.3843238 132.96194 86.8670051 133.323844 87.2901214 133.799423 87.6105396 134.254123 87.6701046 134.390997 87.8919325 134.915295 87.9720371 135.049849 88.2144047 135.390874 88.2739696 135.525428 88.3150489 135.662302 88.3355885 135.799176 88.3540742 135.956929 88.3746138 136.117003 88.4156931 136.251557 88.475258 136.386111 88.6149275 136.6413 88.6765464 136.773534 88.7155717 136.910408 88.8162159 137.365108 88.8572951 137.501982 89.0380438 137.910285 89.138688 138.181713 89.1571737 138.316267 89.1571737 138.47634 89.138688 138.636413 89.0585835 138.747768 88.9579393 138.861443 88.7361113 139.019196 88.6354671 139.114312 88.5553626 139.227987 88.5348229 139.383421 88.5348229 139.520295 88.5964418 139.657169 89.0585835 140.360098 89.0976088 140.496972 89.1181484 140.654725 89.0791231 140.995751 89.1777133 141.155824 89.3194368 141.313577 89.6213693 141.515408 89.7404992 141.701 89.7815784 141.858753 89.7404992 142.016506 89.5001855 142.450327 89.3995413 142.721756 89.3790017 142.789033 89.3995413 142.925907 89.5412648 143.331889 89.5597504 143.468763 89.5412648 143.809788 89.6008297 143.990741 89.7610388 144.125295 90.083511 144.310887 90.2437201 144.445441 90.3443642 144.603194 90.6052175 145.104292 90.7058617 145.217967 90.8270455 145.331642 91.6897099 145.760824 91.7903541 145.85362 91.8704587 145.964975 92.2730354 146.739821 92.3736796 146.830297 92.5544283 146.876695 92.8953862 146.739821 92.9960304 146.577428 93.0371096 146.419675 92.7557167 145.739945 92.7146374 145.603071 92.7351771 145.422118 92.796796 145.285244 92.8769005 145.15069 92.9570051 145.037015 93.0555953 144.92334 94.3228904 143.830668 94.4420202 143.76339 95.0253457 143.698433 95.1465295 143.652035 95.5285666 143.445564 95.6887757 143.424685 95.8900641 143.445564 96.5534941 143.719312 98.9443069 144.378164 99.0654907 144.46864 99.1661349 144.559116 99.326344 144.763267 99.4454739 144.809665 99.9877201 144.784146 100.289653 144.832864 100.653204 144.990617 100.813413 145.15069 100.932543 145.285244 101.014702 145.398919 101.113292 145.512594 101.296094 145.579872 101.515868 145.579872 101.838341 145.512594 102.019089 145.398919 102.138219 145.264365 102.581875 144.334086 102.801649 143.652035 102.883808 143.515161 102.963912 143.401486 103.083042 143.331889 103.32541 143.220534 103.645828 143.106859 104.169589 143.039582 104.329798 142.993184 104.430442 142.925907 104.611191 142.744955 104.75086 142.698557 104.931609 142.721756 105.213002 142.902708 105.473855 143.174136 105.615578 143.264612 105.835352 143.31101 106.299548 143.355088 106.661046 143.424685 107.203292 143.652035 107.665433 143.923463 107.846182 143.967542 109.774853 143.830668 110.095272 143.923463 110.477309 143.900264 110.678597 143.853866 110.84086 143.786589 110.93945 143.698433 111.101713 143.675234 111.282462 143.652035 112.106101 143.786589 112.447059 143.967542 112.627808 144.125295 112.746938 144.266809 112.888661 144.512718 112.927686 144.649592 112.989305 144.784146 113.089949 144.879262 113.231673 144.946539 113.412422 144.969738 113.835538 144.809665 114.016287 144.763267 114.416809 144.784146 114.757767 144.740068 114.897437 144.672791 115.84226 144.150814 116.146246 144.125295 118.296745 144.401363 118.537059 144.491839 119.118331 144.879262 119.338105 145.104292 119.459288 145.15069 119.640037 145.194768 119.983049 145.194768 120.182283 145.15069 120.324007 145.083413 120.324007 144.946539 120.282927 144.832864 120.182283 144.716869 119.740681 144.491839 119.619497 144.422242 119.539393 144.310887 119.500368 144.220411 119.459288 144.150814 119.438749 144.01162 119.399723 143.698433 119.399723 143.378287 119.438749 143.197335 119.500368 143.039582 119.679062 142.721756 119.720142 142.584882 119.781761 142.267055 119.843379 142.15338 119.94197 142.062904 120.48627 141.902831 120.607454 141.835554 120.687558 141.724199 120.747123 141.538607 120.767663 141.380854 120.747123 141.202222 120.726583 141.065348 120.667019 140.926154 120.586914 140.814798 120.545835 140.677924 120.506809 140.54105 120.545835 140.406496 120.625939 140.269622 120.827228 140.08867 121.088081 139.951796 121.22775 139.907718 121.790536 139.907718 121.950745 139.86364 122.071929 139.747645 122.332782 139.362542 122.433427 139.272065 122.593636 139.292945 122.836003 139.383421 123.519973 139.907718 123.698668 140.08867 123.840391 140.633846 124.524361 142.083783 124.643491 142.473526 124.723595 142.608081 124.906398 142.721756 125.048121 142.85863 125.146712 142.993184 125.208331 143.220534 125.187791 143.401486 125.167251 143.607957 125.167251 143.967542 125.187791 144.125295 125.22887 144.266809 125.267895 144.401363 125.36854 144.535917 125.508209 144.672791 125.789602 144.879262 125.99089 145.083413 126.231204 145.445317 126.512597 146.127368 127.015818 146.941652 127.31775 147.23628"></polygon>
                <polygon id="Stroke-76" stroke="#F9F9F9" stroke-width="0.25" stroke-linecap="round" stroke-linejoin="round" points="128.159875 147.600504 127.759352 152.207824 127.33829 156.838343 126.935713 161.445662 126.533137 166.073861 126.11002 170.70438 125.308975 179.965418 124.887912 184.616816 124.483282 189.249655 124.060165 193.898733 123.25912 203.206169 122.836003 207.859887 122.412887 212.511285 121.609788 221.83728 117.772985 221.384899 113.954668 220.955718 110.136351 220.501018 106.318034 220.046317 102.501771 219.568418 94.8651366 218.617259 91.0673592 218.14168 87.2490422 217.640582 83.4307251 217.141804 79.6144621 216.617506 75.796145 216.118728 71.9983676 215.599071 68.1800506 215.053894 64.3617336 214.506398 60.5639562 213.963542 56.7661788 213.420685 52.988941 212.873189 49.2117032 212.307134 45.4139258 211.738758 41.636688 211.172703 37.8573963 210.583448 34.0801585 209.991874 30.3029207 209.377101 26.525683 208.787846 22.7484452 208.177713 18.9691535 207.539741 15.1919157 206.927287 11.4146779 206.291635 7.63744013 205.658302 3.8581484 204.999451 0.101450253 204.33828 0.501973019 201.276013 0.925089376 198.236945 1.34820573 195.170038 1.7487285 192.107771 2.16979089 189.064063 2.59290725 186.001796 2.99548398 182.939529 3.83760877 176.854433 4.2401855 173.792166 4.66330185 170.750778 5.06587858 167.70939 5.48694098 164.668003 5.90800337 161.601096 6.3105801 158.562028 6.7316425 155.52296 6.91239123 154.202937 7.2738887 151.548972 7.25540304 151.163869 7.2738887 150.936519 7.21432378 150.233589 7.59636088 149.802088 8.07904216 149.507461 8.36043508 149.164116 8.68085329 148.530783 8.84106239 147.851053 9.22309949 146.941652 9.52503204 145.760824 9.66675548 145.445317 9.78588533 145.241166 9.88652951 145.013816 9.9481484 144.69367 9.88652951 144.034819 9.48600675 142.949106 9.54557167 142.473526 9.78588533 142.243856 10.0672782 142.243856 10.3301855 142.313453 10.5704992 142.243856 10.7717875 141.972428 10.8929713 141.656922 10.9730759 141.313577 11.0121012 140.972552 11.1127454 140.814798 11.2750084 140.677924 11.3735987 140.473773 11.3140337 140.179146 10.9915616 139.701247 10.691683 139.362542 10.2891062 139.019196 10.2090017 138.861443 10.1083575 138.429942 10.1083575 138.112116 10.1679224 137.773411 10.1288971 137.501982 9.90706914 137.365108 9.44492749 137.365108 9.06289039 137.478783 8.72193255 137.525181 8.31935582 137.297831 8.20022597 137.047282 8.11806745 136.754975 7.99893761 136.476587 7.75656998 136.365232 7.47517707 136.432509 7.25540304 136.618101 7.05411467 136.843131 6.83228668 137.047282 6.14831703 136.318834 5.88746374 135.866453 5.82789882 135.300398 5.88746374 135.005771 6.02918718 134.641547 6.10929174 134.344599 6.08875211 133.959496 5.90800337 133.300645 5.86897808 132.96194 6.02918718 132.282209 6.33111973 131.734713 6.55089376 131.235935 6.47078921 130.41933 6.61251265 130.238378 6.83228668 130.101504 6.93293086 129.943751 7.05411467 129.579526 7.25540304 129.465851 7.47517707 129.442652 7.71754469 129.352176 8.01947723 129.059869 8.36043508 128.602849 8.64182799 128.080872 8.96224621 126.96964 9.26417875 126.378065 9.90706914 125.450106 10.6506037 124.044247 10.911457 123.654504 11.3345734 123.246202 12.6408938 122.612869 13.0619562 122.341441 13.3823744 122.021295 14.6907487 120.341688 15.2720202 119.388209 15.5143879 118.868552 15.9149106 117.550849 16.0155548 116.938395 15.9950152 116.847919 15.9149106 116.687846 15.8553457 116.441937 15.8553457 116.096272 15.9559899 115.801645 16.1552243 115.507018 18.6877605 112.491149 19.2505464 111.423995 19.8338718 109.70031 20.1542901 109.24329 20.4171973 108.790909 20.6369713 107.586882 20.7992344 106.976748 21.1196526 106.498849 21.9042664 105.770401 22.3253288 104.842441 23.4303609 103.728889 23.5310051 103.455141 23.7117538 102.865887 24.1944351 101.935607 24.3341046 101.756975 24.9975346 101.165401 25.3405464 100.754778 25.5603204 100.232801 25.6198853 99.5994685 25.5603204 98.9846952 25.0591535 97.4419622 24.8578651 96.1938564 24.6771164 95.581403 24.475828 95.2171788 24.2355143 94.9016725 23.4509005 94.5838463 22.425973 93.6535668 22.0850152 93.0828715 21.9248061 92.8578413 20.5774064 92.2917859 20.4171973 91.8834836 20.3165531 91.4055844 19.3306509 89.9301285 18.9691535 88.2041234 18.9301282 87.2761637 18.9095885 87.1392897 18.6281956 85.7519899 17.8045565 84.1860579 17.7244519 83.8473526 18.4063676 83.2789773 18.6877605 82.917073 18.9691535 82.3486977 19.049258 81.7362443 18.7288398 80.8755617 18.7083002 79.4233048 18.5275514 78.7644534 18.0448702 77.4931486 17.3013356 76.0849698 17.221231 75.6302695 17.3609005 75.1082922 17.7840169 74.2476096 17.884661 73.407806 18.5070118 68.802806 19.1314165 64.2163652 19.7332277 59.6090453 20.3555784 55.0226045 20.9594435 50.4408035 21.5817943 45.8775617 22.1856594 41.2911209 22.8080101 36.730199 24.0136863 27.6083552 24.6360371 23.0427935 25.8417133 13.9673476 26.466118 9.42730479 27.0679292 4.88958186 27.6697403 0.370418136 29.5183069 0.688244332 33.6180169 1.3934937 37.7382664 2.09642317 41.8379764 2.79935264 45.9356324 3.48140302 46.1574604 3.50460202 45.7158583 6.86149622 45.292742 10.2207103 44.85114 13.5822443 44.4095379 16.9623375 43.9679359 20.3192317 43.5242799 23.7016448 43.1032175 27.0608589 42.6595616 30.4409521 42.4788128 31.8746499 42.5198921 32.055602 42.6410759 32.3734282 43.0025734 32.8490076 43.464715 33.6656121 43.6454637 34.1435113 44.0275008 34.8696398 44.128145 35.210665 44.1877099 35.370738 44.2883541 35.5261713 44.5101821 35.7767204 44.6909309 36.0272695 44.85114 36.3427758 45.0113491 36.5492469 45.4139258 36.913471 45.5556492 37.0712242 45.6542395 37.3194534 45.6953187 37.5004055 45.8760675 38.9549824 45.9356324 39.1382544 46.0568162 39.3192065 46.5189578 39.7043098 46.6791669 39.885262 46.7592715 40.1798892 46.7798111 40.3863602 46.8208904 40.5881914 46.9009949 40.7459446 47.4021619 41.2238438 47.5233457 41.381597 47.6034503 41.6553451 47.6445295 41.8594962 47.6239899 42.0636474 47.4822664 42.7665768 47.5438853 43.0171259 47.9649477 43.9497254 48.0450523 44.2652317 48.0655919 44.5157809 48.006027 44.673534 47.8458179 44.9449622 47.7431197 45.0586373 47.6445295 45.1491134 47.5438853 45.2395894 47.0406644 45.4460605 46.9215346 45.5156574 46.8208904 45.6038136 46.8208904 45.7615668 46.9009949 45.9216398 47.3631366 46.3531411 47.5028061 46.5596121 47.6239899 46.8983174 47.6445295 47.5107708 47.6630152 47.5339698 47.8252782 47.6917229 48.1066712 47.898194 48.2668803 48.0559471 48.3264452 48.2577783 48.2668803 48.3969723 48.1662361 48.5129673 48.0450523 48.5570453 47.9053828 48.6034433 47.7636594 48.6243224 46.9400202 48.5570453 46.8208904 48.5802443 46.7202462 48.6475214 46.6606813 48.6915995 46.5785228 48.7820756 46.5374435 48.9166297 46.5579831 49.0790227 46.6791669 49.2599748 46.9810995 49.4641259 47.6835548 49.8260302 48.9898752 51.0532569 49.1500843 51.2318892 49.6738449 52.0948917 49.9141585 52.616869 50.0353423 53.0506902 50.1770658 53.4566725 50.2571703 53.6190655 50.3968398 53.7536196 50.6576931 53.9322519 51.602516 54.252398 53.2292546 55.2499547 53.3709781 55.4077078 53.5127015 55.5909798 53.6729106 55.9760831 53.8125801 56.4307834 53.872145 56.5908564 53.9727892 56.7718086 54.0344081 56.9295617 54.0754874 57.0664358 54.093973 57.384262 54.1535379 57.5420151 54.2541821 57.6788892 54.4349309 57.8134433 54.5766543 57.9503174 54.6772985 58.1103904 54.8375076 58.4050176 54.9771771 58.6346877 55.4598583 59.087068 55.6406071 59.3352972 56.0637234 60.1982997 56.2650118 60.9221083 57.7315413 63.1724106 57.7520809 63.3278438 57.7911062 63.854461 57.7911062 63.9194181 57.8116459 63.9866952 57.8917504 64.1258892 58.0334739 64.2627632 58.2943272 64.4205164 58.6558246 64.5782695 58.7749545 64.6919446 58.8755987 64.8496977 59.3192546 65.6918212 59.4383845 65.8472544 59.5801079 66.0073275 60.0217099 66.3970705 60.1223541 66.5293048 60.1223541 66.6893778 60.0812749 66.8262519 60.0011703 66.984005 59.962145 67.1649572 59.9210658 67.3482292 59.9005261 67.8470076 59.9210658 68.1648338 59.962145 68.4803401 60.0812749 68.9141612 60.183973 69.0719144 60.3441821 69.2551864 60.8864283 69.7539647 61.0671771 69.978995 61.3074907 70.3640982 61.4882395 70.5914484 61.7696324 70.7747204 62.3118786 71.0252695 62.4330624 71.1366247 62.5131669 71.2734987 62.5747858 71.5008489 62.5542462 71.705 62.5337066 71.888272 62.3118786 72.5680025 62.291339 72.7257557 62.3324182 72.8626297 62.4125228 72.9971839 62.5932715 73.0667809 62.7555346 73.0667809 62.895204 72.9971839 63.3778853 72.4984055 63.7188432 72.2733753 63.8605666 72.2037783 64.1419595 72.2037783 64.281629 72.2501763 64.4212985 72.3406524 64.8649545 72.7930327 64.9655987 72.9739849 65.1052681 73.270932 65.1052681 73.4959622 65.0662428 73.6560353 64.7643103 73.9761814 64.6842057 74.1107355 64.6451804 74.2708086 64.6636661 74.4285617 64.6842057 74.5654358 64.8053895 74.7695869 64.9861383 74.9946171 65.4072007 75.3820403 65.668054 75.5397935 65.9104216 75.6534685 66.2308398 75.6766675 66.4732074 75.6302695 66.9353491 75.5165945 67.0750185 75.5165945 67.1962024 75.5629924 67.4981349 75.7462645 67.6378044 75.7903426 67.7980135 75.7903426 67.9397369 75.7694635 68.2005902 75.6534685 68.5415481 75.4493174 68.6627319 75.4261184 70.0080776 75.2451662 70.1682867 75.2683652 70.3305497 75.3124433 70.4702192 75.4029194 70.5708634 75.5397935 70.6324823 75.7462645 70.650968 75.9272166 70.5708634 76.6510252 70.4702192 76.9943703 70.3100101 77.2657985 70.2504452 77.4235516 70.2093659 77.5836247 70.1888263 77.7413778 70.2093659 77.8782519 70.2093659 78.059204 70.1682867 78.1937582 70.1087218 78.3561511 69.927973 78.5811814 69.8684081 78.7180554 69.8478685 78.8758086 69.8684081 79.0382015 69.9074334 79.1704358 69.927973 79.3096297 69.9485126 79.4465038 69.8889477 79.6042569 69.8088432 79.694733 69.706145 79.7852091 69.4658314 79.9220831 68.9030455 80.0566373 68.7839157 80.1030353 68.7038111 80.1703123 68.6421922 80.3071864 68.6421922 80.3744635 68.7038111 80.5090176 68.9441248 80.8964408 69.0036897 81.0773929 69.0632546 81.237466 69.0837943 81.3952191 69.0837943 81.5784912 69.042715 81.7594433 68.9831501 81.9195164 68.9235852 82.1004685 68.3607993 83.0516272 68.2396155 83.3717733 68.1410253 83.7104786 68.099946 84.0770227 68.0794064 84.438927 68.0609207 84.6198791 67.9993019 84.7776322 67.9191973 84.8913073 67.4570556 85.4573627 67.3769511 85.5942368 67.3358718 85.7519899 67.2763069 86.095335 67.214688 86.2530882 67.1345835 86.3899622 66.9353491 86.6173123 66.8737302 86.7286675 66.8141653 86.8678615 66.8141653 87.0256146 66.8531906 87.2065668 66.9148094 87.4107179 66.994914 87.7285441 67.0154536 87.8862972 67.0154536 88.0440504 66.994914 88.5683476 67.0154536 88.8861738 66.994914 89.0694458 66.9558887 89.227199 66.8737302 89.3408741 66.773086 89.4313501 66.6539562 89.4986272 66.5122327 89.5218262 65.8488027 89.4986272 65.7276189 89.5450252 65.6290287 89.6123023 65.5879494 89.6587003 65.5283845 89.7723753 65.4873052 89.9301285 65.4873052 90.0878816 65.5674098 90.2711537 66.2308398 91.2687103 66.2904047 91.4055844 66.331484 91.5633375 66.3109444 91.7257305 66.2698651 91.9066826 66.2103002 92.0412368 66.1301956 92.1781108 65.668054 92.7441662 65.5879494 92.8810403 65.5283845 93.0387935 65.5078449 93.2197456 65.5468702 93.4470957 65.668054 93.7649219 65.668054 93.969073 65.6290287 94.1523451 65.5674098 94.3100982 65.608489 94.4933703 65.7686981 94.6975214 66.1897605 94.9921486 66.6929815 95.2171788 66.8326509 95.3308539 66.8737302 95.511806 66.8737302 95.7159572 66.8141653 95.8737103 66.5717976 96.2634534 66.4526678 96.5789597 66.4115885 96.7622317 66.4115885 96.9223048 66.4321282 97.0568589 66.4916931 97.216932 66.8141653 97.9871385 66.8141653 98.1912897 66.773086 98.3722418 66.6724418 98.483597 66.1507352 98.9174181 66.0295514 98.9846952 65.889882 99.0310932 65.7481585 99.0310932 65.0662428 98.9638161 64.9245194 98.9846952 64.8053895 99.0310932 64.5835616 99.1656474 64.503457 99.2607632 64.4418381 99.3280403 64.3227083 99.5762695 64.059801 99.9172947 63.8995919 100.165524 63.7393828 100.436952 63.618199 100.527428 63.396371 100.7107 63.2977808 100.801176 63.2567015 100.93573 63.2772411 101.165401 63.396371 101.460028 63.4579899 101.86833 63.4785295 102.028403 63.5791737 102.209355 64.0207757 102.821809 64.1214199 103.046839 64.1214199 103.25099 64.0207757 103.522418 64.0002361 103.661612 64.0413153 103.979438 64.0207757 104.137191 63.9591568 104.297264 63.8995919 104.434139 63.8605666 104.524615 63.7989477 104.591892 63.4970152 104.842441 63.0574671 105.157947 62.954769 105.250743 62.9157437 105.408496 62.9342293 105.589448 63.0163879 105.860877 63.0759528 106.041829 63.0759528 106.225101 63.0369275 106.385174 62.954769 106.519728 62.6939157 106.863073 62.67543 106.976748 62.7349949 107.090423 63.0163879 107.180899 63.396371 107.224977 64.281629 107.566003 64.4623777 107.656479 65.0662428 108.268932 65.1463474 108.447564 65.1648331 108.630836 65.1853727 108.790909 65.2860169 108.971861 65.4667656 109.152814 66.0911703 109.630713 66.1712749 109.858063 66.2308398 109.971738 66.3725632 110.106292 66.5717976 110.219967 66.9743744 110.310443 67.1962024 110.287244 67.3769511 110.243166 67.4981349 110.175889 67.9787622 109.994937 68.0794064 109.92534 68.099946 109.902141 68.2005902 109.767587 68.4819831 109.176013 68.5620877 109.039139 68.6627319 108.925463 68.7633761 108.837307 68.8825059 108.76771 69.0036897 108.723632 69.1659528 108.723632 69.486371 108.814108 69.6465801 108.814108 69.7677639 108.76771 70.2504452 108.517161 71.0740843 108.268932 71.1932142 108.199335 71.2753727 108.108859 71.3349376 107.971985 71.4150422 107.837431 71.4951467 107.700557 71.6163305 107.610081 71.977828 107.429128 72.0784722 107.361851 72.1791164 107.224977 72.2592209 107.090423 72.3187858 106.93035 72.4789949 106.656602 72.5816931 106.542927 72.6823373 106.452451 72.8014671 106.385174 72.9431906 106.341096 73.4648971 106.225101 73.5655413 106.181023 73.6251062 106.132305 73.6661855 106.02095 73.6661855 105.728642 73.6251062 105.522171 73.6045666 105.385297 73.6251062 105.227544 73.6456459 105.046592 73.6867251 104.909718 73.7462901 104.842441 73.8263946 104.775164 73.9475784 104.751965 74.1878921 104.886519 74.5493895 105.137068 75.1717403 105.770401 75.6359359 106.320217 75.6749612 106.452451 75.6955008 106.610204 75.6749612 106.93035 75.796145 107.111302 76.017973 107.292254 76.9812816 107.814232 77.1414907 107.904708 77.2626745 108.062461 77.4228836 108.289811 77.4824486 108.470763 77.5029882 108.630836 77.4639629 108.790909 77.3838583 108.925463 77.2031096 109.152814 77.1414907 109.289688 77.0018212 109.607514 76.9217167 109.971738 76.8806374 110.15269 76.9402024 110.333642 77.0819258 110.514594 77.6652513 110.876499 77.846 111.103849 77.8850253 111.333519 77.8644857 111.354398 77.846 111.53535 77.846 112.036448 77.8254604 112.196521 77.7658954 112.354275 77.6036324 112.625703 77.5440675 112.785776 77.5029882 112.966728 77.4824486 113.124481 77.5029882 113.282234 77.5235278 113.419108 77.5235278 113.760134 77.5830927 113.987484 78.0863137 114.555859 78.2074975 114.76001 78.2670624 114.964161 78.2280371 115.326065 78.1068533 116.052194 78.0267487 116.393219 78.0062091 116.574171 77.9856695 116.915196 78.0267487 117.052071 78.0863137 117.188945 78.1869578 117.346698 78.5874806 117.755 78.729204 117.935952 78.7908229 118.096025 78.8093086 118.276977 78.7908229 118.594804 78.8093086 118.752557 78.8914671 118.91263 79.1913457 119.253655 79.5343575 119.798831 79.8136965 120.116657 80.0560641 120.501761 80.1567083 120.74999 80.1957336 120.912383 80.2368128 121.20469 80.2368128 121.385642 80.2573524 121.548035 80.2758381 121.682589 80.4175616 121.954018 80.4771265 122.070013 80.4976661 122.227766 80.4586408 122.58967 80.4771265 122.749743 80.5777707 122.861098 80.7379798 122.951574 81.3808702 123.021171 81.5225936 123.132526 81.6437774 123.359877 81.7033423 123.902733 81.7444216 124.044247 82.2661282 125.085882 82.3462327 125.380509 82.5680607 126.241191 82.5865464 126.401264 82.6276256 126.879164 82.6276256 126.923242 82.5865464 127.083315 82.387312 127.786244 82.3256931 127.946317 82.2455885 128.080872 82.1469983 128.194547 82.0443002 128.285023 81.6437774 128.424217 81.5431332 128.491494 81.442489 128.57965 81.4014098 128.716524 81.4219494 128.851078 81.4815143 128.987952 81.6437774 129.238501 81.7629073 129.48905 81.8450658 129.762798 82.0237605 130.669879 82.1264587 130.943627 82.2661282 131.212736 82.4859022 131.440086 83.3506206 132.03166 83.6114739 132.25901 83.7531973 132.439962 83.7737369 132.600035 83.7737369 133.096494 83.8743811 133.233368 84.0551298 133.300645 84.4166273 133.323844 84.6179157 133.279766 84.7781248 133.210169 85.2197268 132.871463 85.320371 132.804186 85.4600405 132.757788 85.6017639 132.71139 85.9427218 132.780987 86.3843238 132.96194 86.8670051 133.323844 87.2901214 133.799423 87.6105396 134.254123 87.6701046 134.390997 87.8919325 134.915295 87.9720371 135.049849 88.2144047 135.390874 88.2739696 135.525428 88.3150489 135.662302 88.3355885 135.799176 88.3540742 135.956929 88.3746138 136.117003 88.4156931 136.251557 88.475258 136.386111 88.6149275 136.6413 88.6765464 136.773534 88.7155717 136.910408 88.8162159 137.365108 88.8572951 137.501982 89.0380438 137.910285 89.138688 138.181713 89.1571737 138.316267 89.1571737 138.47634 89.138688 138.636413 89.0585835 138.747768 88.9579393 138.861443 88.7361113 139.019196 88.6354671 139.114312 88.5553626 139.227987 88.5348229 139.383421 88.5348229 139.520295 88.5964418 139.657169 89.0585835 140.360098 89.0976088 140.496972 89.1181484 140.654725 89.0791231 140.995751 89.1777133 141.155824 89.3194368 141.313577 89.6213693 141.515408 89.7404992 141.701 89.7815784 141.858753 89.7404992 142.016506 89.5001855 142.450327 89.3995413 142.721756 89.3790017 142.789033 89.3995413 142.925907 89.5412648 143.331889 89.5597504 143.468763 89.5412648 143.809788 89.6008297 143.990741 89.7610388 144.125295 90.083511 144.310887 90.2437201 144.445441 90.3443642 144.603194 90.6052175 145.104292 90.7058617 145.217967 90.8270455 145.331642 91.6897099 145.760824 91.7903541 145.85362 91.8704587 145.964975 92.2730354 146.739821 92.3736796 146.830297 92.5544283 146.876695 92.8953862 146.739821 92.9960304 146.577428 93.0371096 146.419675 92.7557167 145.739945 92.7146374 145.603071 92.7351771 145.422118 92.796796 145.285244 92.8769005 145.15069 92.9570051 145.037015 93.0555953 144.92334 94.3228904 143.830668 94.4420202 143.76339 95.0253457 143.698433 95.1465295 143.652035 95.5285666 143.445564 95.6887757 143.424685 95.8900641 143.445564 96.5534941 143.719312 98.9443069 144.378164 99.0654907 144.46864 99.1661349 144.559116 99.326344 144.763267 99.4454739 144.809665 99.9877201 144.784146 100.289653 144.832864 100.653204 144.990617 100.813413 145.15069 100.932543 145.285244 101.014702 145.398919 101.113292 145.512594 101.296094 145.579872 101.515868 145.579872 101.838341 145.512594 102.019089 145.398919 102.138219 145.264365 102.581875 144.334086 102.801649 143.652035 102.883808 143.515161 102.963912 143.401486 103.083042 143.331889 103.32541 143.220534 103.645828 143.106859 104.169589 143.039582 104.329798 142.993184 104.430442 142.925907 104.611191 142.744955 104.75086 142.698557 104.931609 142.721756 105.213002 142.902708 105.473855 143.174136 105.615578 143.264612 105.835352 143.31101 106.299548 143.355088 106.661046 143.424685 107.203292 143.652035 107.665433 143.923463 107.846182 143.967542 109.774853 143.830668 110.095272 143.923463 110.477309 143.900264 110.678597 143.853866 110.84086 143.786589 110.93945 143.698433 111.101713 143.675234 111.282462 143.652035 112.106101 143.786589 112.447059 143.967542 112.627808 144.125295 112.746938 144.266809 112.888661 144.512718 112.927686 144.649592 112.989305 144.784146 113.089949 144.879262 113.231673 144.946539 113.412422 144.969738 113.835538 144.809665 114.016287 144.763267 114.416809 144.784146 114.757767 144.740068 114.897437 144.672791 115.84226 144.150814 116.146246 144.125295 118.296745 144.401363 118.537059 144.491839 119.118331 144.879262 119.338105 145.104292 119.459288 145.15069 119.640037 145.194768 119.983049 145.194768 120.182283 145.15069 120.324007 145.083413 120.324007 144.946539 120.282927 144.832864 120.182283 144.716869 119.740681 144.491839 119.619497 144.422242 119.539393 144.310887 119.500368 144.220411 119.459288 144.150814 119.438749 144.01162 119.399723 143.698433 119.399723 143.378287 119.438749 143.197335 119.500368 143.039582 119.679062 142.721756 119.720142 142.584882 119.781761 142.267055 119.843379 142.15338 119.94197 142.062904 120.48627 141.902831 120.607454 141.835554 120.687558 141.724199 120.747123 141.538607 120.767663 141.380854 120.747123 141.202222 120.726583 141.065348 120.667019 140.926154 120.586914 140.814798 120.545835 140.677924 120.506809 140.54105 120.545835 140.406496 120.625939 140.269622 120.827228 140.08867 121.088081 139.951796 121.22775 139.907718 121.790536 139.907718 121.950745 139.86364 122.071929 139.747645 122.332782 139.362542 122.433427 139.272065 122.593636 139.292945 122.836003 139.383421 123.519973 139.907718 123.698668 140.08867 123.840391 140.633846 124.524361 142.083783 124.643491 142.473526 124.723595 142.608081 124.906398 142.721756 125.048121 142.85863 125.146712 142.993184 125.208331 143.220534 125.187791 143.401486 125.167251 143.607957 125.167251 143.967542 125.187791 144.125295 125.22887 144.266809 125.267895 144.401363 125.36854 144.535917 125.508209 144.672791 125.789602 144.879262 125.99089 145.083413 126.231204 145.445317 126.512597 146.127368 127.015818 146.941652 127.31775 147.23628"></polygon>
            </g>
        </g>
    </g>
</svg>