<?xml version="1.0" encoding="UTF-8"?>
<svg width="16px" height="28px" viewBox="0 0 16 28" version="1.1" xmlns="http://www.w3.org/2000/svg" xmlns:xlink="http://www.w3.org/1999/xlink">
    <!-- Generator: Sketch 51 (57462) - http://www.bohemiancoding.com/sketch -->
    <title>Rhode Island</title>
    <desc>Created with Sketch.</desc>
    <defs></defs>
    <g id="Page-1" stroke="none" stroke-width="1" fill="none" fill-rule="evenodd">
        <g id="A5" transform="translate(-1170.000000, -211.000000)">
            <g id="Rhode-Island" transform="translate(1170.000000, 211.000000)">
                <path d="M11.1587251,26.0659144 L10.9574368,25.8130453 L10.9184115,25.383864 L10.8383069,25.0892368 L10.7376627,24.9082846 L10.5959393,24.8154887 L10.3967049,24.8850856 L10.5363744,25.2701889 L10.556914,25.6088942 L10.4357302,25.8594433 L10.1358516,26.0195164 L10.0352074,26.2445466 L10.055747,26.7015668 L10.2364958,27.08667 L10.556914,27.2003451 L11.1176459,26.903398 L11.3600135,26.7015668 L11.4791433,26.4950957 L11.3784992,26.2445466 L11.1587251,26.0659144 L11.1587251,26.0659144 Z M12.8080573,14.6032922 L12.6478482,13.9699597 L12.5677437,13.7379698 L12.4670995,13.5802166 L12.3253761,13.5129395 L12.1261417,13.5129395 L12.0645228,14.6264912 L12.1261417,15.1020705 L12.4054806,15.3062217 L12.3664553,15.4639748 L12.3664553,15.5776499 L12.3253761,15.6913249 L12.2247319,15.805 L12.3664553,16.1437053 L12.4054806,16.8257557 L12.5061248,17.0090277 L12.606769,16.9394307 L12.8470826,16.4406524 L12.9066476,16.2573804 L12.9271872,15.828199 L12.9066476,15.2598237 L12.8080573,14.6032922 L12.8080573,14.6032922 Z M15.4391838,14.9443174 L15.3981046,14.6728892 L15.3796189,14.3759421 L15.318,14.0140378 L14.8373727,11.8333325 L14.8373727,10.7684987 L14.6977032,10.1769244 L14.5169545,10.4715516 L14.0958921,10.97033 L13.9541686,11.2672771 L13.9151433,11.6291814 L13.9747083,12.4921839 L13.933629,12.8540882 L13.8555784,12.9909622 L13.6091029,13.2623904 L13.5700776,13.4015844 L13.6892074,13.8075668 L13.709747,14.0372368 L13.6892074,14.19267 L13.5495379,14.5592141 L13.5700776,14.8747204 L13.7302867,15.1925466 L14.0548128,15.4871738 L13.8946037,15.758602 L13.3297639,16.2573804 L13.2476054,16.4638514 L13.4098685,16.8489547 L13.5906172,16.8930327 L13.7898516,16.7120806 L13.9747083,16.3501763 L14.375231,16.3037783 L14.6175987,15.758602 L14.9380169,15.2157456 L15.5993929,15.2157456 L15.4391838,14.9443174 L15.4391838,14.9443174 Z M13.7302867,10.2905995 L14.0753524,9.74542317 L14.155457,9.70134509 L14.1349174,9.58767003 L14.0548128,9.20024685 L14.0157875,8.93113854 L14.0342732,8.86386146 L13.1490152,7.86166499 L12.7074132,7.65751385 L12.4876391,7.63431486 L12.2247319,7.56703778 L11.8447487,7.38608564 L11.5407622,7.11465743 L11.3600135,6.93138539 L11.2983946,6.74811335 L11.2388297,6.61355919 L11.1176459,5.59048363 L11.0190556,5.31905542 L10.9779764,5.16130227 L10.9779764,4.91307305 L10.9574368,4.72980101 L10.9184115,4.50477078 L10.7972277,4.20782368 L10.6965835,4.11734761 L10.5363744,4.11734761 L10.1563912,4.25190176 L9.99618212,4.25190176 L9.89553794,4.11734761 L9.83391906,3.93639547 L9.33275211,2.14311335 L9.06779089,1.23371285 L8.96920067,0.848609572 L7.92578752,1.14323678 L6.13678583,1.71161209 L4.36626981,2.27998741 L2.55878246,2.86924181 L0.792374368,3.43529723 L1.17441147,5.09402519 L1.975457,8.4509194 L2.37803373,10.1328463 L2.76212479,11.8101335 L3.16264755,13.4688615 L3.96574705,16.8257557 L4.16703541,17.7119572 L4.38680944,18.936864 L4.68874199,20.7533451 L4.44637437,20.9134181 L4.38680944,21.1825264 L4.34778415,21.6186675 L4.50799325,23.1358816 L4.52853288,23.748335 L6.27645531,22.9317305 L9.26907926,20.5723929 L10.1954165,20.2545668 L10.4357302,20.2777657 L10.9574368,20.3891209 L11.1587251,20.3891209 L11.3189342,20.1849698 L11.3600135,19.8926625 L11.3394739,19.6189144 L11.3784992,19.4588413 L11.9043137,16.9626297 L11.8447487,16.4406524 L11.4606577,14.9211184 L11.2593693,14.5128161 L10.8567926,13.9908388 L10.8773322,13.6706927 L11.0991602,13.3111083 L11.1977504,12.696335 L11.0991602,12.1070806 L10.8978718,11.5410252 L10.5959393,11.1512821 L10.0762867,11.0376071 L10.1358516,10.8125768 L10.3166003,10.5388287 L10.5178887,10.3578766 L10.7582024,10.3137985 L10.9574368,10.3810756 L11.1381855,10.5388287 L11.3394739,10.7429798 L11.3600135,10.4483526 L11.4791433,9.79182116 L11.4791433,9.54127204 L11.3394739,9.20024685 L11.1176459,9.0633728 L10.9184115,8.97521662 L10.7376627,8.81514358 L10.556914,8.33956423 L10.3556256,7.65751385 L10.2364958,7.00098237 L10.2159562,6.5903602 L10.556914,6.93138539 L10.8177673,7.24921159 L10.998516,7.63431486 L11.1587251,8.1330932 L11.4195784,8.49499748 L11.883774,8.7478665 L12.3253761,8.88474055 L12.5266644,8.90793955 L12.547204,8.65507053 L12.4465599,8.01941814 L12.4876391,7.86166499 L12.6868735,7.86166499 L12.8470826,7.97534005 L12.9477268,8.17949118 L12.828597,8.88474055 L12.8080573,9.42991688 L12.8080573,9.99597229 L12.8676223,10.4042746 L13.0873963,10.6757028 L13.4098685,10.5852267 L13.7302867,10.2905995 L13.7302867,10.2905995 Z" id="Fill-23" fill="#D6D6D6"></path>
                <path d="M11.1587251,26.0659144 L10.9574368,25.8130453 L10.9184115,25.383864 L10.8383069,25.0892368 L10.7376627,24.9082846 L10.5959393,24.8154887 L10.3967049,24.8850856 L10.5363744,25.2701889 L10.556914,25.6088942 L10.4357302,25.8594433 L10.1358516,26.0195164 L10.0352074,26.2445466 L10.055747,26.7015668 L10.2364958,27.08667 L10.556914,27.2003451 L11.1176459,26.903398 L11.3600135,26.7015668 L11.4791433,26.4950957 L11.3784992,26.2445466 L11.1587251,26.0659144 L11.1587251,26.0659144 Z M12.8080573,14.6032922 L12.6478482,13.9699597 L12.5677437,13.7379698 L12.4670995,13.5802166 L12.3253761,13.5129395 L12.1261417,13.5129395 L12.0645228,14.6264912 L12.1261417,15.1020705 L12.4054806,15.3062217 L12.3664553,15.4639748 L12.3664553,15.5776499 L12.3253761,15.6913249 L12.2247319,15.805 L12.3664553,16.1437053 L12.4054806,16.8257557 L12.5061248,17.0090277 L12.606769,16.9394307 L12.8470826,16.4406524 L12.9066476,16.2573804 L12.9271872,15.828199 L12.9066476,15.2598237 L12.8080573,14.6032922 L12.8080573,14.6032922 Z M15.4391838,14.9443174 L15.3981046,14.6728892 L15.3796189,14.3759421 L15.318,14.0140378 L14.8373727,11.8333325 L14.8373727,10.7684987 L14.6977032,10.1769244 L14.5169545,10.4715516 L14.0958921,10.97033 L13.9541686,11.2672771 L13.9151433,11.6291814 L13.9747083,12.4921839 L13.933629,12.8540882 L13.8555784,12.9909622 L13.6091029,13.2623904 L13.5700776,13.4015844 L13.6892074,13.8075668 L13.709747,14.0372368 L13.6892074,14.19267 L13.5495379,14.5592141 L13.5700776,14.8747204 L13.7302867,15.1925466 L14.0548128,15.4871738 L13.8946037,15.758602 L13.3297639,16.2573804 L13.2476054,16.4638514 L13.4098685,16.8489547 L13.5906172,16.8930327 L13.7898516,16.7120806 L13.9747083,16.3501763 L14.375231,16.3037783 L14.6175987,15.758602 L14.9380169,15.2157456 L15.5993929,15.2157456 L15.4391838,14.9443174 L15.4391838,14.9443174 Z M13.7302867,10.2905995 L14.0753524,9.74542317 L14.155457,9.70134509 L14.1349174,9.58767003 L14.0548128,9.20024685 L14.0157875,8.93113854 L14.0342732,8.86386146 L13.1490152,7.86166499 L12.7074132,7.65751385 L12.4876391,7.63431486 L12.2247319,7.56703778 L11.8447487,7.38608564 L11.5407622,7.11465743 L11.3600135,6.93138539 L11.2983946,6.74811335 L11.2388297,6.61355919 L11.1176459,5.59048363 L11.0190556,5.31905542 L10.9779764,5.16130227 L10.9779764,4.91307305 L10.9574368,4.72980101 L10.9184115,4.50477078 L10.7972277,4.20782368 L10.6965835,4.11734761 L10.5363744,4.11734761 L10.1563912,4.25190176 L9.99618212,4.25190176 L9.89553794,4.11734761 L9.83391906,3.93639547 L9.33275211,2.14311335 L9.06779089,1.23371285 L8.96920067,0.848609572 L7.92578752,1.14323678 L6.13678583,1.71161209 L4.36626981,2.27998741 L2.55878246,2.86924181 L0.792374368,3.43529723 L1.17441147,5.09402519 L1.975457,8.4509194 L2.37803373,10.1328463 L2.76212479,11.8101335 L3.16264755,13.4688615 L3.96574705,16.8257557 L4.16703541,17.7119572 L4.38680944,18.936864 L4.68874199,20.7533451 L4.44637437,20.9134181 L4.38680944,21.1825264 L4.34778415,21.6186675 L4.50799325,23.1358816 L4.52853288,23.748335 L6.27645531,22.9317305 L9.26907926,20.5723929 L10.1954165,20.2545668 L10.4357302,20.2777657 L10.9574368,20.3891209 L11.1587251,20.3891209 L11.3189342,20.1849698 L11.3600135,19.8926625 L11.3394739,19.6189144 L11.3784992,19.4588413 L11.9043137,16.9626297 L11.8447487,16.4406524 L11.4606577,14.9211184 L11.2593693,14.5128161 L10.8567926,13.9908388 L10.8773322,13.6706927 L11.0991602,13.3111083 L11.1977504,12.696335 L11.0991602,12.1070806 L10.8978718,11.5410252 L10.5959393,11.1512821 L10.0762867,11.0376071 L10.1358516,10.8125768 L10.3166003,10.5388287 L10.5178887,10.3578766 L10.7582024,10.3137985 L10.9574368,10.3810756 L11.1381855,10.5388287 L11.3394739,10.7429798 L11.3600135,10.4483526 L11.4791433,9.79182116 L11.4791433,9.54127204 L11.3394739,9.20024685 L11.1176459,9.0633728 L10.9184115,8.97521662 L10.7376627,8.81514358 L10.556914,8.33956423 L10.3556256,7.65751385 L10.2364958,7.00098237 L10.2159562,6.5903602 L10.556914,6.93138539 L10.8177673,7.24921159 L10.998516,7.63431486 L11.1587251,8.1330932 L11.4195784,8.49499748 L11.883774,8.7478665 L12.3253761,8.88474055 L12.5266644,8.90793955 L12.547204,8.65507053 L12.4465599,8.01941814 L12.4876391,7.86166499 L12.6868735,7.86166499 L12.8470826,7.97534005 L12.9477268,8.17949118 L12.828597,8.88474055 L12.8080573,9.42991688 L12.8080573,9.99597229 L12.8676223,10.4042746 L13.0873963,10.6757028 L13.4098685,10.5852267 L13.7302867,10.2905995 L13.7302867,10.2905995 Z" id="Stroke-24" stroke="#F9F9F9" stroke-width="0.25" stroke-linecap="round" stroke-linejoin="round"></path>
            </g>
        </g>
    </g>
</svg>