<?xml version="1.0" encoding="UTF-8"?>
<svg width="38px" height="83px" viewBox="0 0 38 83" version="1.1" xmlns="http://www.w3.org/2000/svg" xmlns:xlink="http://www.w3.org/1999/xlink">
    <!-- Generator: Sketch 51 (57462) - http://www.bohemiancoding.com/sketch -->
    <title>New Hampshire</title>
    <desc>Created with Sketch.</desc>
    <defs></defs>
    <g id="Page-1" stroke="none" stroke-width="1" fill="none" fill-rule="evenodd">
        <g id="A5" transform="translate(-1148.000000, -115.000000)">
            <g id="New-Hampshire" transform="translate(1148.000000, 115.000000)">
                <polygon id="Fill-41" fill="#D6D6D6" points="36.3156661 62.1243577 36.2745868 62.8968841 36.6771636 62.646335 37.1187656 62.4421839 37.2584351 62.6022569 37.2789747 63.0105592 37.2173558 63.4397406 37.1783305 63.5974937 37.1187656 64.119471 36.5169545 66.2305793 36.3362057 67.3650101 36.2951265 68.0261814 36.375231 68.5017607 35.709747 68.9123829 35.268145 68.9123829 34.547204 68.7963879 34.3068904 68.840466 34.1261417 68.8891839 32.4357302 70.3855189 32.2570354 70.636068 32.1769309 70.7706222 31.9756425 71.2253224 31.8749983 71.4294736 31.6737099 71.7217809 31.4929612 71.8354559 31.2690793 71.902733 31.0287656 71.9282519 30.7083474 72.0210479 30.507059 72.109204 30.3673895 72.2228791 30.285231 72.3365542 30.2071804 72.4502292 30.0859966 72.7471763 30.0264317 72.9049295 29.9463272 73.2668338 29.9052479 73.8560882 29.8662226 74.0834383 29.7244992 74.3780655 29.5232108 74.5868564 29.1637673 74.8118866 28.9789106 74.9696398 28.8577268 75.1297128 28.6769781 75.5844131 28.457204 75.9695164 28.2353761 76.3082217 28.0957066 76.4242166 27.8964722 76.5146927 27.4548702 76.646927 26.025312 77.0157909 24.6224553 77.3753753 23.2134368 77.7395995 21.8064722 78.1015038 20.4015616 78.465728 18.992543 78.8276322 17.5650388 79.1895365 16.1621821 79.5560806 14.7531636 79.9179849 13.348253 80.2822091 11.9412884 80.6209144 10.5322698 80.9851385 9.10887352 81.3470428 7.69985497 81.6857481 6.29289039 82.0522922 4.88797976 82.3909975 4.86744013 82.3909975 4.86744013 82.4141965 4.84895447 82.4141965 4.84895447 82.3909975 4.52853626 81.5975919 4.00272175 81.0964937 2.93876897 80.3958841 2.69845531 80.122136 2.53824621 79.8715869 2.3780371 79.5560806 2.23631366 79.1222594 2.13772344 78.6002821 2.15620911 78.2151788 2.21782799 77.8764736 2.27739292 77.4217733 2.13772344 76.1272695 2.15620911 75.5844131 2.45814165 75.2665869 2.87920405 74.9464408 2.9593086 74.4012645 2.73748061 73.0626826 2.71899494 71.3366776 2.61835076 70.6569471 2.33695784 69.9308186 2.25685329 69.5921134 2.09664418 68.3648866 2.19728836 68.1607355 2.25685329 68.0029824 2.25685329 67.8220302 2.21782799 67.6410781 2.13772344 67.5714811 2.07199663 67.527403 2.03297133 67.457806 1.99189207 67.0727028 2.0124317 66.7525567 2.09664418 66.4347305 2.23631366 66.1169043 2.35749747 65.5067708 2.25685329 64.8479194 1.93232715 63.7575668 0.96901855 58.7883426 0.909453626 57.994937 1.01009781 57.5170378 1.52975042 56.6308363 1.69201349 56.0415819 1.73103879 55.4291285 1.6303946 54.1810227 1.4701855 53.1579471 1.52975042 52.8192418 1.95286678 52.2044685 2.11718381 51.7520882 2.89768971 50.4367053 3.01887352 49.9124081 3.03941315 49.2999547 3.01887352 48.6411033 2.91822934 48.0077708 2.89768971 47.3721184 3.03941315 46.690068 3.86099831 44.3539295 3.86099831 44.1265793 3.70078921 44.0105844 3.48101518 43.8737103 3.33929174 43.6486801 3.35983137 43.1731008 3.82197302 41.3102217 3.88153794 40.312665 3.74186847 39.1759144 3.158543 36.6565038 2.97984823 35.1392897 3.158543 33.9816599 3.74186847 33.1627355 4.66820573 32.6662771 5.63151433 32.438927 6.07311636 32.2092569 6.37299494 31.8241537 6.81870489 30.757 7.03847892 30.3718967 8.46187521 28.7131688 8.92812479 28.3512645 9.02876897 28.0334383 9.23005734 27.3328287 9.74970995 26.5347834 9.99207757 25.92233 9.89143339 25.4026725 9.73122428 24.9038942 9.73122428 24.3123199 9.89143339 24.1081688 10.131747 24.0385718 10.353575 23.9272166 10.4521653 23.5838715 10.3926003 23.3124433 10.191312 23.0410151 9.85035413 22.7231889 8.88909949 21.2500529 8.70424283 20.8394307 8.44338954 20.3638514 8.08189207 20.0692242 7.80049916 19.658602 7.69985497 18.9092746 7.9422226 17.7539647 8.5234941 16.0952368 9.06984823 14.5293048 9.0883339 13.7822972 8.80283305 13.3716751 8.44338954 13.0329698 8.16199663 12.3973174 8.04286678 11.6247909 8.16199663 11.2860856 8.46187521 11.0819345 8.26264081 10.4230831 8.20307589 9.94518388 8.24210118 9.51368262 8.7227285 8.01734761 8.76380776 7.67632242 8.7227285 7.110267 8.74326813 6.79244081 9.0493086 5.60929219 9.0493086 5.04323678 8.66316358 4.79500756 8.1024317 4.6581335 8.24210118 4.40758438 9.02876897 3.93200504 9.23005734 3.59097985 9.61004047 2.63750126 9.87089376 2.22919899 10.2714165 1.95545088 10.632914 1.9113728 12.4835346 2.5029471 12.9847015 2.5238262 13.4899764 2.45654912 13.789855 2.16192191 14.1513524 1.00429219 14.3526408 0.503193955 14.5128499 0.368639798 14.5333895 0.345440806 14.9749916 1.86497481 15.4145396 3.36362972 15.8397099 4.88548363 16.281312 6.37949874 16.722914 7.88047355 17.164516 9.40000756 17.606118 10.8986625 18.0312884 12.4205164 18.4728904 13.9168514 18.9124384 15.4387053 19.3540405 16.9373602 19.7956425 18.4568942 20.2208128 19.9787481 20.6624148 21.4727632 21.1040169 22.9946171 21.5456189 24.4955919 21.9872209 26.012806 22.4308769 27.5346599 22.8724789 29.0333149 23.2935413 30.5528489 23.755683 32.0770227 24.197285 33.5942368 24.6224553 35.0928917 25.9452074 39.6561335 26.3868094 41.1524685 26.8325194 42.6743224 28.1552715 47.2375642 28.5968735 48.7547783 28.8577268 49.5945819 28.9789106 50.5271814 29.0836627 50.9563627 29.122688 51.387864 29.122688 51.5224181 29.1432277 51.7288892 29.2027926 51.9794383 29.3630017 52.3668615 29.5047251 52.8424408 29.5232108 53.1811461 29.5047251 53.9513526 29.5047251 54.1323048 29.5642901 54.3410957 29.623855 54.542927 29.7840641 54.8398741 29.9463272 55.0672242 30.1455616 55.2481763 30.9075818 55.8374307 31.7948938 56.6517154 32.6164789 57.4497607 33.499683 57.7675869 33.664 57.881262 33.8036695 58.0622141 33.9844182 58.4473174 34.0460371 58.6955466 34.0850624 58.9460957 34.0850624 59.8763753 34.1261417 60.1965214 34.2062462 60.3542746 34.7279528 60.966728 35.6091029 61.6000605"></polygon>
                <polygon id="Stroke-42" stroke="#F9F9F9" stroke-width="0.25" stroke-linecap="round" stroke-linejoin="round" points="36.3156661 62.1243577 36.2745868 62.8968841 36.6771636 62.646335 37.1187656 62.4421839 37.2584351 62.6022569 37.2789747 63.0105592 37.2173558 63.4397406 37.1783305 63.5974937 37.1187656 64.119471 36.5169545 66.2305793 36.3362057 67.3650101 36.2951265 68.0261814 36.375231 68.5017607 35.709747 68.9123829 35.268145 68.9123829 34.547204 68.7963879 34.3068904 68.840466 34.1261417 68.8891839 32.4357302 70.3855189 32.2570354 70.636068 32.1769309 70.7706222 31.9756425 71.2253224 31.8749983 71.4294736 31.6737099 71.7217809 31.4929612 71.8354559 31.2690793 71.902733 31.0287656 71.9282519 30.7083474 72.0210479 30.507059 72.109204 30.3673895 72.2228791 30.285231 72.3365542 30.2071804 72.4502292 30.0859966 72.7471763 30.0264317 72.9049295 29.9463272 73.2668338 29.9052479 73.8560882 29.8662226 74.0834383 29.7244992 74.3780655 29.5232108 74.5868564 29.1637673 74.8118866 28.9789106 74.9696398 28.8577268 75.1297128 28.6769781 75.5844131 28.457204 75.9695164 28.2353761 76.3082217 28.0957066 76.4242166 27.8964722 76.5146927 27.4548702 76.646927 26.025312 77.0157909 24.6224553 77.3753753 23.2134368 77.7395995 21.8064722 78.1015038 20.4015616 78.465728 18.992543 78.8276322 17.5650388 79.1895365 16.1621821 79.5560806 14.7531636 79.9179849 13.348253 80.2822091 11.9412884 80.6209144 10.5322698 80.9851385 9.10887352 81.3470428 7.69985497 81.6857481 6.29289039 82.0522922 4.88797976 82.3909975 4.86744013 82.3909975 4.86744013 82.4141965 4.84895447 82.4141965 4.84895447 82.3909975 4.52853626 81.5975919 4.00272175 81.0964937 2.93876897 80.3958841 2.69845531 80.122136 2.53824621 79.8715869 2.3780371 79.5560806 2.23631366 79.1222594 2.13772344 78.6002821 2.15620911 78.2151788 2.21782799 77.8764736 2.27739292 77.4217733 2.13772344 76.1272695 2.15620911 75.5844131 2.45814165 75.2665869 2.87920405 74.9464408 2.9593086 74.4012645 2.73748061 73.0626826 2.71899494 71.3366776 2.61835076 70.6569471 2.33695784 69.9308186 2.25685329 69.5921134 2.09664418 68.3648866 2.19728836 68.1607355 2.25685329 68.0029824 2.25685329 67.8220302 2.21782799 67.6410781 2.13772344 67.5714811 2.07199663 67.527403 2.03297133 67.457806 1.99189207 67.0727028 2.0124317 66.7525567 2.09664418 66.4347305 2.23631366 66.1169043 2.35749747 65.5067708 2.25685329 64.8479194 1.93232715 63.7575668 0.96901855 58.7883426 0.909453626 57.994937 1.01009781 57.5170378 1.52975042 56.6308363 1.69201349 56.0415819 1.73103879 55.4291285 1.6303946 54.1810227 1.4701855 53.1579471 1.52975042 52.8192418 1.95286678 52.2044685 2.11718381 51.7520882 2.89768971 50.4367053 3.01887352 49.9124081 3.03941315 49.2999547 3.01887352 48.6411033 2.91822934 48.0077708 2.89768971 47.3721184 3.03941315 46.690068 3.86099831 44.3539295 3.86099831 44.1265793 3.70078921 44.0105844 3.48101518 43.8737103 3.33929174 43.6486801 3.35983137 43.1731008 3.82197302 41.3102217 3.88153794 40.312665 3.74186847 39.1759144 3.158543 36.6565038 2.97984823 35.1392897 3.158543 33.9816599 3.74186847 33.1627355 4.66820573 32.6662771 5.63151433 32.438927 6.07311636 32.2092569 6.37299494 31.8241537 6.81870489 30.757 7.03847892 30.3718967 8.46187521 28.7131688 8.92812479 28.3512645 9.02876897 28.0334383 9.23005734 27.3328287 9.74970995 26.5347834 9.99207757 25.92233 9.89143339 25.4026725 9.73122428 24.9038942 9.73122428 24.3123199 9.89143339 24.1081688 10.131747 24.0385718 10.353575 23.9272166 10.4521653 23.5838715 10.3926003 23.3124433 10.191312 23.0410151 9.85035413 22.7231889 8.88909949 21.2500529 8.70424283 20.8394307 8.44338954 20.3638514 8.08189207 20.0692242 7.80049916 19.658602 7.69985497 18.9092746 7.9422226 17.7539647 8.5234941 16.0952368 9.06984823 14.5293048 9.0883339 13.7822972 8.80283305 13.3716751 8.44338954 13.0329698 8.16199663 12.3973174 8.04286678 11.6247909 8.16199663 11.2860856 8.46187521 11.0819345 8.26264081 10.4230831 8.20307589 9.94518388 8.24210118 9.51368262 8.7227285 8.01734761 8.76380776 7.67632242 8.7227285 7.110267 8.74326813 6.79244081 9.0493086 5.60929219 9.0493086 5.04323678 8.66316358 4.79500756 8.1024317 4.6581335 8.24210118 4.40758438 9.02876897 3.93200504 9.23005734 3.59097985 9.61004047 2.63750126 9.87089376 2.22919899 10.2714165 1.95545088 10.632914 1.9113728 12.4835346 2.5029471 12.9847015 2.5238262 13.4899764 2.45654912 13.789855 2.16192191 14.1513524 1.00429219 14.3526408 0.503193955 14.5128499 0.368639798 14.5333895 0.345440806 14.9749916 1.86497481 15.4145396 3.36362972 15.8397099 4.88548363 16.281312 6.37949874 16.722914 7.88047355 17.164516 9.40000756 17.606118 10.8986625 18.0312884 12.4205164 18.4728904 13.9168514 18.9124384 15.4387053 19.3540405 16.9373602 19.7956425 18.4568942 20.2208128 19.9787481 20.6624148 21.4727632 21.1040169 22.9946171 21.5456189 24.4955919 21.9872209 26.012806 22.4308769 27.5346599 22.8724789 29.0333149 23.2935413 30.5528489 23.755683 32.0770227 24.197285 33.5942368 24.6224553 35.0928917 25.9452074 39.6561335 26.3868094 41.1524685 26.8325194 42.6743224 28.1552715 47.2375642 28.5968735 48.7547783 28.8577268 49.5945819 28.9789106 50.5271814 29.0836627 50.9563627 29.122688 51.387864 29.122688 51.5224181 29.1432277 51.7288892 29.2027926 51.9794383 29.3630017 52.3668615 29.5047251 52.8424408 29.5232108 53.1811461 29.5047251 53.9513526 29.5047251 54.1323048 29.5642901 54.3410957 29.623855 54.542927 29.7840641 54.8398741 29.9463272 55.0672242 30.1455616 55.2481763 30.9075818 55.8374307 31.7948938 56.6517154 32.6164789 57.4497607 33.499683 57.7675869 33.664 57.881262 33.8036695 58.0622141 33.9844182 58.4473174 34.0460371 58.6955466 34.0850624 58.9460957 34.0850624 59.8763753 34.1261417 60.1965214 34.2062462 60.3542746 34.7279528 60.966728 35.6091029 61.6000605"></polygon>
            </g>
        </g>
    </g>
</svg>