<?xml version="1.0" encoding="UTF-8"?>
<svg width="145px" height="176px" viewBox="0 0 145 176" version="1.1" xmlns="http://www.w3.org/2000/svg" xmlns:xlink="http://www.w3.org/1999/xlink">
    <!-- Generator: Sketch 51 (57462) - http://www.bohemiancoding.com/sketch -->
    <title>New Mexico</title>
    <desc>Created with Sketch.</desc>
    <defs></defs>
    <g id="Page-1" stroke="none" stroke-width="1" fill="none" fill-rule="evenodd">
        <g id="A5" transform="translate(-388.000000, -439.000000)">
            <g id="New-Mexico" transform="translate(389.000000, 439.000000)">
                <polygon id="Fill-35" fill="#D6D6D6" points="58.4256661 163.129899 59.7114469 164.830385 59.4074604 164.468481 59.1671467 164.354806 58.2038381 164.287529 57.6205126 164.241131 57.0166476 164.197053 56.4148364 164.150655 55.8335649 164.129776 55.2296998 164.083378 54.6463744 164.03698 54.0445632 163.992902 53.4632917 163.948824 52.8594266 163.902426 52.2555616 163.856028 51.6742901 163.81195 51.070425 163.765552 50.4891535 163.744673 49.8852884 163.695955 49.2834772 163.651877 48.7001518 163.605479 48.0962867 163.559081 47.5129612 163.512683 46.913204 163.466285 46.3278246 163.422207 45.7239595 163.378128 45.142688 163.33405 44.5408769 163.287652 43.9370118 163.243574 43.3536863 163.197176 42.7518752 163.153098 42.1706037 163.1067 41.5667386 163.062622 40.9628735 163.016224 40.381602 162.972146 39.7777369 162.925748 39.1944115 162.88167 38.5926003 162.835272 38.0092749 162.788874 37.4054098 162.721597 36.8220843 162.677519 36.2202732 162.631121 35.6184621 162.587043 35.0351366 162.540645 34.4312715 162.494247 33.85 162.447849 33.2481889 162.401451 32.6443238 162.334174 32.0609983 162.290096 31.4591872 162.241378 30.8779157 162.1973 30.2740506 162.150902 29.6701855 162.109144 29.088914 162.062746 28.5055885 161.995469 27.9017234 161.949071 27.2999123 161.904992 26.7165868 161.858594 26.1127218 161.812196 25.5293963 161.768118 24.9275852 161.700841 24.325774 161.654443 23.7424486 161.610365 23.1591231 161.563967 22.557312 161.49669 21.9555008 161.450292 21.3721754 161.406214 20.7683103 161.338937 20.1870388 161.292539 20.1664992 161.519889 20.1459595 161.72404 20.1459595 161.925872 20.1254199 162.150902 20.1069342 162.357373 20.1069342 162.587043 20.0863946 162.788874 20.065855 163.016224 20.0453153 163.220375 20.0453153 163.445406 20.0268297 163.651877 20.0062901 163.879227 20.0062901 164.083378 19.9857504 164.287529 19.9652108 164.514879 19.9467251 164.71671 19.9467251 164.94406 19.9261855 165.150531 19.9056459 165.377882 19.9056459 165.582033 19.8851062 165.807063 19.8666206 166.008894 19.8666206 166.215365 19.8460809 166.445035 19.8255413 166.646866 19.8255413 166.874217 19.8050017 167.078368 19.7844621 167.303398 19.7659764 167.509869 19.7659764 167.737219 19.7248971 168.145521 19.7248971 168.372872 19.7043575 168.595582 19.6858718 168.804373 19.6858718 169.008524 19.6653322 169.235874 19.6447926 169.440025 19.624253 169.665055 19.624253 169.869207 19.6057673 170.098877 19.5831737 170.303028 19.5831737 170.507179 19.5626341 170.732209 19.5420944 170.93636 19.5420944 171.16371 19.5236088 171.370181 19.5030691 171.595212 19.5030691 171.799363 19.4825295 172.026713 19.4619899 172.230864 19.4414503 172.455894 19.4414503 172.662365 19.4229646 172.866516 19.402425 173.093866 19.402425 173.298018 19.3818853 173.523048 19.3613457 173.727199 19.34286 173.956869 19.34286 174.16102 19.3223204 174.365171 19.3017808 174.590202 19.3017808 174.794353 19.2812411 175.021703 18.2973929 174.928907 17.3114907 174.86163 16.3276425 174.773474 15.3437943 174.680678 14.3578921 174.613401 13.3740438 174.522924 12.3901956 174.432448 11.4042934 174.341972 10.4204452 174.251496 9.434543 174.184219 8.45274874 174.091423 7.46479258 174.000947 6.48299831 173.910471 5.49709612 173.819995 4.51324789 173.727199 3.5273457 173.634403 2.54349747 173.546247 1.55759528 173.455771 0.573747049 173.365295 0.111605396 173.318897 0.111605396 173.184343 0.514182125 167.783617 0.894165261 162.380572 1.29674199 157.000725 1.68083305 151.6 2.08135582 146.199275 2.46339292 140.819428 2.86391568 135.418703 3.24800675 130.015657 3.64852951 124.635811 4.03056661 119.235086 4.43314334 113.857559 5.19516358 103.051469 5.5977403 97.6739421 5.99826307 92.2732166 6.38235413 86.8956902 6.76439123 81.5135239 7.56543676 70.735272 8.32951096 59.9523804 8.73414165 54.5748539 9.11412479 49.1741285 9.51464755 43.7942821 9.89668465 38.4144358 10.2992614 33.0369093 11.0633356 22.2772166 11.8664351 11.5198438 12.6305093 0.783350126 16.7281653 1.1707733 20.8278752 1.53499748 24.9275852 1.87370277 29.0272951 2.23560705 33.1085194 2.57663224 37.2061754 2.91765743 41.3038314 3.23548363 45.4035413 3.55562972 49.5032513 3.87345592 53.6029612 4.18896222 57.7006172 4.48358942 61.8003272 4.75501763 65.9000371 5.02876574 69.999747 5.30251385 74.099457 5.57394207 78.2197066 5.82217128 82.3173626 6.0750403 86.4150185 6.32326952 90.5147285 6.55061965 94.6144384 6.77564987 98.7141484 7.003 102.811804 7.20715113 106.932054 7.41130227 111.02971 7.59225441 115.12942 7.77552645 119.249669 7.95647859 123.349379 8.13743073 127.447035 8.29750378 131.546745 8.45757683 135.664941 8.59445088 143.866415 8.86587909 143.704152 16.4681889 143.605562 20.2565844 143.525457 24.0704987 142.597066 24.0496196 142.597066 24.5924761 142.57858 25.5459547 141.253774 72.16433 141.15313 76.4074257 141.031946 80.6296423 140.910762 84.872738 140.771093 89.1181537 140.530779 97.606665 140.407541 101.849761 138.721238 161.292539 133.635626 161.132466 128.533582 160.949194 123.429484 160.768242 118.325386 160.564091 113.239774 160.362259 108.13773 160.134909 103.035686 159.905239 97.9500742 159.65469 92.8459764 159.406461 87.7624182 159.135033 82.6603744 158.863605 77.5747622 158.566657 72.4706644 158.27203 67.3871062 157.954204 62.2830084 157.638698 57.1973963 157.295353 56.5955852 157.251275 56.215602 157.228076 56.215602 157.752373 56.6366644 158.886804 56.716769 159.543335 56.7557943 160.248584 56.8769781 160.791441 57.4007386 161.768118 57.2179359 161.97227 57.3596594 162.334174 57.5609477 162.607922 57.821801 162.812073 58.1257875 162.88167"></polygon>
                <polygon id="Stroke-36" stroke="#F9F9F9" stroke-width="0.25" stroke-linecap="round" stroke-linejoin="round" points="58.4256661 163.129899 59.7114469 164.830385 59.4074604 164.468481 59.1671467 164.354806 58.2038381 164.287529 57.6205126 164.241131 57.0166476 164.197053 56.4148364 164.150655 55.8335649 164.129776 55.2296998 164.083378 54.6463744 164.03698 54.0445632 163.992902 53.4632917 163.948824 52.8594266 163.902426 52.2555616 163.856028 51.6742901 163.81195 51.070425 163.765552 50.4891535 163.744673 49.8852884 163.695955 49.2834772 163.651877 48.7001518 163.605479 48.0962867 163.559081 47.5129612 163.512683 46.913204 163.466285 46.3278246 163.422207 45.7239595 163.378128 45.142688 163.33405 44.5408769 163.287652 43.9370118 163.243574 43.3536863 163.197176 42.7518752 163.153098 42.1706037 163.1067 41.5667386 163.062622 40.9628735 163.016224 40.381602 162.972146 39.7777369 162.925748 39.1944115 162.88167 38.5926003 162.835272 38.0092749 162.788874 37.4054098 162.721597 36.8220843 162.677519 36.2202732 162.631121 35.6184621 162.587043 35.0351366 162.540645 34.4312715 162.494247 33.85 162.447849 33.2481889 162.401451 32.6443238 162.334174 32.0609983 162.290096 31.4591872 162.241378 30.8779157 162.1973 30.2740506 162.150902 29.6701855 162.109144 29.088914 162.062746 28.5055885 161.995469 27.9017234 161.949071 27.2999123 161.904992 26.7165868 161.858594 26.1127218 161.812196 25.5293963 161.768118 24.9275852 161.700841 24.325774 161.654443 23.7424486 161.610365 23.1591231 161.563967 22.557312 161.49669 21.9555008 161.450292 21.3721754 161.406214 20.7683103 161.338937 20.1870388 161.292539 20.1664992 161.519889 20.1459595 161.72404 20.1459595 161.925872 20.1254199 162.150902 20.1069342 162.357373 20.1069342 162.587043 20.0863946 162.788874 20.065855 163.016224 20.0453153 163.220375 20.0453153 163.445406 20.0268297 163.651877 20.0062901 163.879227 20.0062901 164.083378 19.9857504 164.287529 19.9652108 164.514879 19.9467251 164.71671 19.9467251 164.94406 19.9261855 165.150531 19.9056459 165.377882 19.9056459 165.582033 19.8851062 165.807063 19.8666206 166.008894 19.8666206 166.215365 19.8460809 166.445035 19.8255413 166.646866 19.8255413 166.874217 19.8050017 167.078368 19.7844621 167.303398 19.7659764 167.509869 19.7659764 167.737219 19.7248971 168.145521 19.7248971 168.372872 19.7043575 168.595582 19.6858718 168.804373 19.6858718 169.008524 19.6653322 169.235874 19.6447926 169.440025 19.624253 169.665055 19.624253 169.869207 19.6057673 170.098877 19.5831737 170.303028 19.5831737 170.507179 19.5626341 170.732209 19.5420944 170.93636 19.5420944 171.16371 19.5236088 171.370181 19.5030691 171.595212 19.5030691 171.799363 19.4825295 172.026713 19.4619899 172.230864 19.4414503 172.455894 19.4414503 172.662365 19.4229646 172.866516 19.402425 173.093866 19.402425 173.298018 19.3818853 173.523048 19.3613457 173.727199 19.34286 173.956869 19.34286 174.16102 19.3223204 174.365171 19.3017808 174.590202 19.3017808 174.794353 19.2812411 175.021703 18.2973929 174.928907 17.3114907 174.86163 16.3276425 174.773474 15.3437943 174.680678 14.3578921 174.613401 13.3740438 174.522924 12.3901956 174.432448 11.4042934 174.341972 10.4204452 174.251496 9.434543 174.184219 8.45274874 174.091423 7.46479258 174.000947 6.48299831 173.910471 5.49709612 173.819995 4.51324789 173.727199 3.5273457 173.634403 2.54349747 173.546247 1.55759528 173.455771 0.573747049 173.365295 0.111605396 173.318897 0.111605396 173.184343 0.514182125 167.783617 0.894165261 162.380572 1.29674199 157.000725 1.68083305 151.6 2.08135582 146.199275 2.46339292 140.819428 2.86391568 135.418703 3.24800675 130.015657 3.64852951 124.635811 4.03056661 119.235086 4.43314334 113.857559 5.19516358 103.051469 5.5977403 97.6739421 5.99826307 92.2732166 6.38235413 86.8956902 6.76439123 81.5135239 7.56543676 70.735272 8.32951096 59.9523804 8.73414165 54.5748539 9.11412479 49.1741285 9.51464755 43.7942821 9.89668465 38.4144358 10.2992614 33.0369093 11.0633356 22.2772166 11.8664351 11.5198438 12.6305093 0.783350126 16.7281653 1.1707733 20.8278752 1.53499748 24.9275852 1.87370277 29.0272951 2.23560705 33.1085194 2.57663224 37.2061754 2.91765743 41.3038314 3.23548363 45.4035413 3.55562972 49.5032513 3.87345592 53.6029612 4.18896222 57.7006172 4.48358942 61.8003272 4.75501763 65.9000371 5.02876574 69.999747 5.30251385 74.099457 5.57394207 78.2197066 5.82217128 82.3173626 6.0750403 86.4150185 6.32326952 90.5147285 6.55061965 94.6144384 6.77564987 98.7141484 7.003 102.811804 7.20715113 106.932054 7.41130227 111.02971 7.59225441 115.12942 7.77552645 119.249669 7.95647859 123.349379 8.13743073 127.447035 8.29750378 131.546745 8.45757683 135.664941 8.59445088 143.866415 8.86587909 143.704152 16.4681889 143.605562 20.2565844 143.525457 24.0704987 142.597066 24.0496196 142.597066 24.5924761 142.57858 25.5459547 141.253774 72.16433 141.15313 76.4074257 141.031946 80.6296423 140.910762 84.872738 140.771093 89.1181537 140.530779 97.606665 140.407541 101.849761 138.721238 161.292539 133.635626 161.132466 128.533582 160.949194 123.429484 160.768242 118.325386 160.564091 113.239774 160.362259 108.13773 160.134909 103.035686 159.905239 97.9500742 159.65469 92.8459764 159.406461 87.7624182 159.135033 82.6603744 158.863605 77.5747622 158.566657 72.4706644 158.27203 67.3871062 157.954204 62.2830084 157.638698 57.1973963 157.295353 56.5955852 157.251275 56.215602 157.228076 56.215602 157.752373 56.6366644 158.886804 56.716769 159.543335 56.7557943 160.248584 56.8769781 160.791441 57.4007386 161.768118 57.2179359 161.97227 57.3596594 162.334174 57.5609477 162.607922 57.821801 162.812073 58.1257875 162.88167"></polygon>
            </g>
        </g>
    </g>
</svg>