<?xml version="1.0" encoding="UTF-8"?>
<svg width="192px" height="319px" viewBox="0 0 192 319" version="1.1" xmlns="http://www.w3.org/2000/svg" xmlns:xlink="http://www.w3.org/1999/xlink">
    <!-- Generator: Sketch 51 (57462) - http://www.bohemiancoding.com/sketch -->
    <title>California</title>
    <desc>Created with Sketch.</desc>
    <defs></defs>
    <g id="Page-1" stroke="none" stroke-width="1" fill="none" fill-rule="evenodd">
        <g id="A5" transform="translate(-91.000000, -236.000000)">
            <g id="California" transform="translate(91.000000, 236.000000)">
                <path d="M90.1581315,299.743662 L89.5152411,298.335484 L88.5704182,297.201053 L88.1904351,296.588599 L87.9891467,295.704718 L87.8885025,295.475048 L87.7878583,295.159542 L87.7077538,294.795317 L87.7077538,294.50069 L87.6481889,294.226942 L87.4058212,294.092388 L87.1038887,293.978713 L86.863575,293.774562 L86.7033659,294.477491 L86.9436796,295.317295 L87.2456121,296.136219 L87.4653862,297.358806 L88.1288162,298.859781 L88.3711838,300.017411 L88.7922462,300.581146 L89.2954671,301.059045 L89.6959899,301.332793 L89.9178179,301.40239 L90.078027,301.355992 L90.2382361,301.288715 L90.4004992,301.265516 L91.0228499,301.40239 L91.3042428,301.40239 L91.5856358,301.288715 L90.6818921,300.175164 L90.1581315,299.743662 L90.1581315,299.743662 Z M68.2957504,283.107665 L67.6323204,282.652965 L67.5522159,282.518411 L67.2317976,282.175065 L66.98943,282.337458 L66.7080371,282.404736 L66.4286981,282.360657 L66.1452513,282.154186 L66.2664351,283.084466 L66.7080371,283.833793 L67.3714671,284.37897 L68.1766206,284.694476 L68.9591804,284.559922 L68.8585363,283.90339 L68.2957504,283.107665 L68.2957504,283.107665 Z M93.5944115,283.629642 L91.8054098,282.427935 L91.4439123,282.244662 L90.1191062,280.92696 L89.5563204,280.655531 L89.0140742,280.632332 L88.7717066,281.019756 L88.9729949,281.451257 L89.4351366,281.880438 L89.9773828,282.198264 L90.4004992,282.360657 L90.963285,282.632086 L91.1029545,283.107665 L90.963285,284.37897 L90.9838246,285.081899 L91.1029545,285.650275 L91.3638078,286.058577 L91.846489,286.262728 L92.068317,286.239529 L92.6701282,286.058577 L92.9124958,286.037698 L93.1938887,286.172252 L93.8758044,286.851982 L94.2968668,287.009736 L94.6789039,286.919259 L94.8411669,286.513277 L93.8573187,284.058824 L93.5944115,283.629642 L93.5944115,283.629642 Z M59.3343103,258.549212 L59.1741012,257.823083 L59.3343103,257.052877 L58.9337875,257.303426 L58.5312108,257.393902 L57.1838111,257.21295 L56.9024182,257.280227 L56.6415649,257.393902 L56.2800675,257.461179 L55.7973862,257.347504 L54.9141821,256.962401 L54.4520405,257.076076 L54.8135379,257.598053 L55.195575,258.368259 L55.5159933,259.163985 L55.5960978,259.753239 L55.7583609,260.094264 L56.1588836,260.569844 L56.6621046,260.931748 L57.0626273,260.931748 L57.3255346,260.773995 L57.5453086,260.797194 L57.7876762,260.910869 L58.1491737,261.045423 L58.3894874,261.022224 L59.6958078,260.365693 L60.016226,260.094264 L60.2585936,259.662763 L60.4188027,258.959834 L59.7553727,259.003912 L59.3343103,258.549212 L59.3343103,258.549212 Z M53.2853895,255.848849 L53.1046408,255.644698 L52.8848668,255.463746 L52.6424992,255.303673 L52.5213153,255.055443 L52.4227251,254.760816 L52.2214368,254.489388 L52.040688,255.032244 L51.7182159,255.169118 L51.0363002,255.078642 L50.5741585,255.350071 L50.4529747,255.644698 L50.6337234,255.758373 L50.9746813,255.486945 L51.5580067,255.939325 L52.1207926,256.189874 L53.4866779,256.440423 L53.4065734,256.122597 L53.2853895,255.848849 L53.2853895,255.848849 Z M69.9635683,258.890237 L69.8033592,258.778882 L69.5425059,258.686086 L69.1810084,258.846159 L68.1951062,259.50501 L68.0143575,259.551408 L67.7535042,259.551408 L65.9850422,258.164108 L65.5434401,258.027234 L64.5986172,257.89268 L64.2165801,257.732607 L63.1526273,256.758249 L62.5487622,256.598176 L62.3680135,256.598176 L62.2078044,256.665453 L61.9469511,256.848725 L61.786742,257.008798 L61.9058718,257.143353 L62.2673693,257.303426 L62.5097369,257.598053 L62.7089713,257.959957 L62.8712344,258.389139 L62.4686577,259.117587 L62.9123137,259.822836 L63.7749781,260.388892 L64.5390523,260.66032 L69.6020708,260.523446 L70.1648567,260.342494 L70.4462496,260.026987 L70.5263541,259.595486 L70.4667892,259.528209 L69.9635683,258.890237 L69.9635683,258.890237 Z M191.613629,271.962869 L191.654708,271.554567 L191.009764,270.921234 L190.78999,270.55701 L190.588702,270.32966 L190.227204,270.035033 L188.559386,268.241751 L188.277993,267.742972 L188.177349,267.629297 L187.776826,267.220995 L187.696722,267.105 L187.534459,266.856771 L187.454354,266.766295 L187.37425,266.719897 L187.273605,266.675819 L186.971673,266.629421 L186.850489,266.562144 L186.751899,266.40439 L186.66974,266.200239 L186.651255,265.812816 L186.651255,265.539068 L186.66974,265.518189 L186.832003,265.063489 L186.992212,264.657506 L186.811464,264.316481 L186.770384,264.290962 L186.731359,263.65763 L186.530071,263.316605 L186.269218,263.021977 L186.04739,262.476801 L186.04739,262.27265 L186.168573,261.56972 L186.168573,261.319171 L186.088469,261.161418 L186.008364,261.022224 L184.962897,257.461179 L184.379572,257.257028 L183.958509,256.871924 L183.736681,256.259471 L183.7983,255.394149 L183.757221,255.011365 L183.636037,254.512587 L183.434749,254.055567 L183.132816,253.830537 L182.812398,253.649584 L182.693268,253.262161 L182.871963,249.677917 L182.892503,249.450567 L179.296013,244.525421 L175.73855,239.577076 L172.041417,234.424579 L168.607191,229.522632 L165.571433,225.163542 L162.53773,220.785892 L159.522513,216.405922 L156.529889,212.046831 L153.535211,207.664542 L150.542587,203.263693 L147.566395,198.883723 L144.612796,194.503753 L141.197056,189.666763 L134.44568,179.999743 L131.110044,175.141874 L127.753868,170.307204 L124.418233,165.451655 L121.103137,160.593786 L117.80858,155.735917 L113.548661,149.90369 L109.307228,144.071463 L105.088388,138.216038 L100.888034,132.358292 L96.7102732,126.505186 L92.5489444,120.628882 L88.4102091,114.745617 L84.2920135,108.869312 L84.3515784,108.46333 L84.6329713,106.804602 L85.5161754,101.33428 L86.3808938,95.8894761 L90.8010219,68.651539 L91.6657403,63.2067355 L93.4342024,52.3588866 L94.2968668,46.9094433 L96.0673828,36.0615945 L96.9300472,30.660869 L97.8153052,25.2369446 L98.6779696,19.8338992 L93.3931231,18.7203476 L88.1082766,17.6114358 L82.8439696,16.4955642 L77.5796627,15.3402544 L72.2948162,14.2058237 L67.0305093,13.024995 L61.7662024,11.8464861 L56.4998415,10.6401385 L51.2375885,9.43843073 L45.9732816,8.21352393 L40.7069207,6.98629723 L35.4631535,5.73819144 L30.1967926,4.46688665 L24.9530253,3.17470277 L19.707204,1.88019899 L14.4634368,0.588015113 L14.3627926,0.541617128 L13.8000067,0.404743073 L13.9211906,0.99631738 L13.9417302,1.31182368 L13.9211906,1.65748866 L13.2967858,4.33233249 L13.0359325,4.78703275 L12.3334772,5.78458942 L11.628968,6.44344081 L11.5899427,6.62439295 L12.2122934,7.09997229 L13.0564722,8.16712594 L13.6788229,9.35027456 L13.5781788,10.1877582 L13.4590489,10.6401385 L13.5781788,11.412665 L13.6788229,12.1387935 L13.8000067,12.4589395 L13.841086,12.6398917 L13.6788229,13.4100982 L13.6397976,13.7070453 L13.6993626,13.9993526 L13.8205464,14.2731008 L13.9807555,14.5004509 L14.1820438,14.6837229 L13.8000067,15.1361033 L13.7404418,16.087262 L13.7199022,17.9501411 L13.4980742,18.8131436 L12.7545396,20.4022746 L12.2944519,21.9009295 L11.4482192,23.7823678 L10.8669477,24.7126474 L10.4232917,25.756602 L10.0022293,26.1185063 L9.8605059,26.5732065 L9.78040135,27.1183829 L9.80094098,27.529005 L9.68181113,27.9373073 L10.1234132,29.2526902 L10.2035177,29.9347406 L10.0433086,30.591272 L7.972914,34.6789345 L6.74669815,36.0383955 L6.4057403,36.6299698 L6.8268027,36.4930957 L7.27045868,36.0615945 L8.53569983,34.4956625 L8.65688364,34.4283854 L9.48052277,34.7438917 L9.72083642,34.6789345 L9.88104553,34.9062846 L9.96115008,34.9503627 L9.50106239,35.5396171 L9.07794604,35.6973703 L8.61580438,35.6764912 L8.03247892,35.7669673 L7.67098145,36.0615945 L6.92744688,37.1055491 L6.64605396,37.3097003 L6.36466105,38.46733 L6.08532209,38.9869874 L5.66220573,38.6250831 L5.41983811,38.2631788 L5.46091737,38.1495038 L5.68274536,37.5834484 L5.80187521,37.3792972 L5.01931535,38.1263048 L4.51609444,38.7619572 L4.07449241,39.6017607 L4.09503204,39.6945567 L4.13405734,39.8499899 L4.15459696,39.9891839 L4.05395278,40.0123829 L3.97384823,40.0123829 L3.89374368,40.0796599 L3.81363912,40.170136 L3.71299494,40.4879622 L2.90989545,41.506398 L2.66752782,41.8938212 L2.30603035,42.6431486 L1.96507251,43.3924761 L1.82334907,43.8680554 L1.6446543,44.2786776 L1.34066779,44.7333778 L1.12089376,45.1625592 L1.10035413,45.5708615 L1.3016425,46.2737909 L1.54401012,48.2039471 L1.54401012,48.9741537 L1.04078921,50.2918564 L0.960684654,50.9947859 L1.22153794,51.4030882 L1.48239123,51.6513174 L3.67191568,55.0360504 L4.65781788,56.080005 L4.95975042,56.5764635 L5.50199663,58.0774383 L5.52253626,58.3024685 L5.44037774,58.982199 L5.481457,59.2559471 L5.62112648,59.3951411 L6.08532209,59.7106474 L6.2455312,59.8684005 L6.76723777,60.731403 L8.77601349,66.2458035 L8.79655312,66.7677809 L8.63634401,68.0854836 L8.71644857,68.8116121 L8.79655312,69.2175945 L8.8971973,69.4217456 L9.1190253,69.5841385 L9.17859022,69.8555668 L9.21966948,70.1757128 L9.2792344,70.4912191 L9.3182597,70.9899975 L8.85817201,73.0570277 L9.09848567,74.9175869 L8.97730185,75.168136 L8.61580438,75.3722872 L8.27484654,75.9615416 L7.77162563,77.2096474 L7.1698145,79.2047607 L6.64605396,80.1814383 L6.84734233,81.339068 L6.72821248,81.8610453 L6.86788196,82.1115945 L6.94798651,82.5639748 L7.00755143,83.4060982 L7.00755143,84.8119572 L7.08765599,85.4940076 L7.37110287,85.8350327 L7.75313997,88.0598161 L7.73260034,88.3753224 L7.51077234,89.3728791 L7.49023272,89.6698262 L7.57033727,90.3286776 L7.57033727,90.6465038 L7.33002361,91.3703123 L7.04863069,91.7136574 L6.70767285,91.9154887 L6.32563575,92.3701889 L6.2455312,93.2795894 L6.64605396,94.4117003 L7.75313997,96.5460076 L8.67536931,97.8173123 L8.79655312,98.1815365 L8.8971973,98.6571159 L9.25869477,99.2231713 L9.92212479,100.042096 L10.4232917,100.925977 L12.955828,107.07603 L13.5186138,107.939033 L15.7697572,110.026942 L16.2524384,110.936343 L16.4516728,112.817781 L16.8747892,113.52303 L16.5728567,114.998486 L16.7351197,115.520463 L16.7536054,115.316312 L16.8953288,114.701539 L17.940796,115.928766 L18.2201349,116.497141 L18.2612142,116.74537 L18.2612142,117.334625 L18.3002395,117.608373 L18.7438954,118.538652 L19.3867858,120.582484 L20.0296762,121.918746 L20.2515042,122.623995 L20.2515042,123.352443 L19.988597,122.670393 L19.5469949,122.009222 L19.1854975,121.285413 L19.1444182,120.44561 L19.0047487,119.898113 L18.1400304,118.380899 L17.7990725,117.879801 L18.1010051,119.784438 L18.0209005,120.605683 L16.774145,123.373322 L15.9710455,124.414957 L15.7492175,124.846458 L16.3120034,125.02973 L16.4722125,125.02973 L16.6529612,124.936935 L16.6940405,124.869657 L16.7125261,124.80238 L17.0349983,124.461355 L17.1952074,124.234005 L17.4170354,124.008975 L17.7579933,123.828023 L17.6183238,123.691149 L17.5567049,123.554275 L17.4170354,123.101894 L17.6183238,123.076375 L17.7785329,122.985899 L17.940796,122.851345 L18.1010051,122.647194 L18.3207791,123.623872 L18.8034604,124.34768 L20.0091366,125.414834 L20.1097808,125.551708 L20.3316088,125.869534 L20.4918179,126.277836 L20.5513828,127.11764 L20.7526712,127.433146 L21.2148128,127.846088 L21.4366408,128.184793 L21.7981383,129.138272 L22.0384519,129.342423 L22.2993052,129.205549 L22.4821079,128.820446 L22.4821079,128.344866 L23.4454165,129.727526 L23.9280978,130.634607 L24.5504486,131.363055 L24.7928162,131.748159 L25.1132344,132.156461 L25.5753761,132.448768 L26.0580573,132.520685 L26.4195548,132.244617 L26.4791197,131.72496 L26.3189106,131.24938 L26.2388061,130.864277 L26.5797639,130.56733 L26.6804081,131.068428 L26.9227757,131.316657 L27.1425497,131.202982 L27.183629,130.727403 L27.0213659,130.249504 L26.4791197,129.476977 L26.2572917,129.024597 L26.4195548,128.978199 L26.6393288,128.797247 L26.7810523,128.72997 L26.6208432,128.368065 L26.7009477,128.047919 L26.961801,127.820569 L27.6046914,127.730093 L27.4444823,127.412267 L26.961801,126.843892 L26.9022361,126.256957 L27.2021147,124.528632 L27.2431939,123.735227 L28.0668331,123.8953 L28.6296189,123.872101 L29.1123002,123.533395 L29.6566003,122.804947 L31.6242968,124.732783 L31.9056897,125.324358 L31.946769,125.618985 L32.1275177,125.915932 L32.4068567,126.143282 L33.051801,126.437909 L34.0356492,127.208116 L34.4587656,127.298592 L34.7401585,127.298592 L35.0194975,127.161718 L35.9047555,126.549264 L36.0649646,126.391511 L36.206688,126.164161 L36.4470017,125.595786 L36.5476459,125.438033 L36.7879595,125.28028 L37.2110759,125.143406 L37.6321383,125.052929 L37.9546105,125.120207 L38.256543,125.50531 L38.2154637,125.892733 L37.6526779,126.753416 L38.5564216,127.298592 L39.6018887,127.616418 L39.361575,127.934244 L39.2403912,128.047919 L39.0596425,128.138395 L39.2999562,128.298469 L39.640914,128.344866 L40.0434907,128.321668 L40.3865025,128.25439 L40.4666071,127.934244 L40.7274604,127.934244 L41.4504553,128.25439 L41.7318482,128.298469 L42.5554874,128.298469 L43.0381686,128.115196 L43.6009545,127.616418 L44.4451332,126.572463 L44.5642631,126.618861 L44.344489,127.275393 L44.0630961,127.79737 L43.681059,128.184793 L43.2189174,128.435343 L42.9765497,128.479421 L42.7362361,128.479421 L42.4753828,128.50262 L42.2535548,128.662693 L42.1549646,128.910922 L42.134425,129.18235 L42.1939899,129.386501 L42.354199,129.523375 L43.3195616,129.546574 L43.8618078,129.453778 L44.122661,129.18235 L44.2027656,128.774048 L44.3054637,128.572217 L44.6649073,128.231191 L44.8271703,128.163914 L44.9463002,128.25439 L45.067484,128.368065 L45.2276931,128.458542 L45.3488769,128.435343 L45.5501653,128.207992 L45.6508094,128.163914 L46.1519764,128.25439 L46.4929342,128.458542 L46.7558415,128.706771 L47.9615177,130.409577 L48.3024755,130.634607 L48.4832243,130.908355 L48.7646172,131.47673 L48.9659056,132.042786 L48.9268803,132.267816 L48.6044081,132.019587 L48.2429106,131.544008 L47.9204384,130.977952 L47.8013086,130.520932 L47.4192715,130.520932 L46.9756155,130.159028 L46.3532648,129.342423 L46.2936998,129.138272 L46.2936998,128.887723 L46.2526206,128.639494 L46.0533862,128.435343 L45.8315582,128.412144 L45.6302698,128.50262 L45.4700607,128.639494 L45.3283373,128.683572 L44.8661956,128.549018 L44.625882,128.593096 L44.4841585,128.820446 L44.4245936,129.068675 L44.3239494,129.363302 L44.2233052,129.613851 L44.1021214,129.704327 L43.902887,129.681128 L43.6605194,129.748406 L43.459231,129.88528 L43.3606408,130.068552 L43.459231,130.159028 L44.0425565,130.520932 L43.5804148,130.683325 L43.1388128,130.520932 L42.354199,129.952557 L39.8442563,129.068675 L38.8994334,128.458542 L36.3853828,127.525942 L35.8842159,127.57234 L34.7791838,128.071118 L34.2574772,128.115196 L33.8549005,127.866967 L33.1914705,126.957567 L32.7704081,126.709338 L32.2877268,126.686139 L31.9262293,126.843892 L30.7205531,127.753292 L30.4802395,127.820569 L30.1783069,127.79737 L29.9770185,127.686015 L29.7962698,127.525942 L29.6340067,127.505063 L29.3320742,128.138395 L29.011656,128.549018 L28.6090793,128.843645 L28.2475818,128.843645 L28.6296189,130.001275 L29.3936931,130.634607 L29.9975582,131.363055 L29.9359393,132.836191 L29.453258,133.882466 L29.3135885,134.538997 L29.6566003,134.900902 L30.0776627,135.084174 L31.0820506,135.812622 L31.4435481,136.174526 L30.4987251,136.378678 L30.6199089,136.445955 L30.9013019,136.696504 L30.6794739,137.102486 L30.8417369,137.216161 L31.4230084,137.23936 L31.6448364,137.487589 L31.724941,137.761338 L31.9262293,139.011763 L32.2076223,142.665605 L32.3678314,143.368534 L32.6286847,143.867312 L33.1524452,143.980987 L33.271575,144.071463 L33.3516796,144.231537 L33.4338381,144.502965 L33.4338381,144.660718 L33.3722192,144.84167 L33.3331939,145.022622 L33.3927589,145.113098 L33.552968,145.185015 L33.8754401,145.456443 L33.5139427,145.683793 L33.051801,145.704673 L32.610199,145.570118 L32.2281619,145.275491 L32.0474132,144.84167 L31.9056897,144.275615 L31.724941,143.846433 L31.4435481,143.800035 L31.2422597,143.551806 L31.061511,143.23166 L30.8622766,143.027509 L30.3590556,143.141184 L30.2789511,142.890635 L30.2584115,142.526411 L30.2193862,142.254982 L29.9359393,141.983554 L29.7161653,141.893078 L29.5929275,141.712126 L29.6340067,141.190149 L29.5128229,141.053275 L28.789828,141.009196 L28.5495143,140.941919 L28.3071467,140.259869 L28.1880169,140.074277 L28.0278078,139.962922 L27.6457707,139.849247 L27.4855616,139.712373 L27.2637336,139.373668 L27.2637336,139.146317 L27.2822192,138.898088 L27.183629,138.489786 L27.2226543,138.192839 L27.7053356,136.33228 L27.8059798,136.08405 L27.9867285,135.947176 L28.348226,135.879899 L28.0072681,135.812622 L27.9251096,135.62935 L27.9867285,135.402 L28.0072681,135.151451 L27.9456492,133.882466 L27.7854401,133.518242 L27.3623238,133.316411 L26.4606341,133.154018 L25.9964384,133.154018 L25.634941,133.33729 L25.0516155,134.425322 L24.9530253,135.743025 L25.0125902,137.102486 L24.8914064,138.262436 L24.6510927,138.784413 L24.1293862,139.577819 L23.9075582,140.259869 L23.806914,141.62165 L24.0082024,141.937156 L24.2690556,142.050831 L24.5299089,142.118108 L24.7517369,142.278181 L24.971511,142.869756 L24.971511,144.208338 L25.1132344,144.818471 L25.3145228,145.365967 L25.4151669,146.024819 L25.4151669,146.704549 L25.3535481,147.317003 L25.0125902,148.588307 L24.5894739,149.699539 L24.3696998,150.810771 L24.6510927,152.037997 L25.1748533,152.764126 L25.3946273,153.218826 L25.4151669,153.808081 L25.5548364,154.216383 L26.7214874,155.715038 L27.6046914,157.73567 L28.1284519,158.621872 L29.5539022,160.139086 L29.9359393,160.412834 L30.3980809,160.593786 L30.9218415,160.593786 L31.4230084,160.50331 L31.8461248,160.549708 L32.1480573,161.004408 L32.9306172,160.663383 L33.5735076,160.73066 L34.0952142,161.231758 L34.5388702,162.182917 L35.3029444,165.11063 L35.6623879,166.043229 L34.9003676,167.787793 L35.0605767,167.947866 L35.2413255,168.038343 L35.4426138,168.038343 L35.6439022,167.947866 L35.6829275,168.198416 L35.6829275,168.402567 L35.6233626,168.585839 L35.5021788,168.766791 L35.0194975,168.493043 L34.7196189,168.379368 L34.4977909,168.653116 L34.1362934,170.056655 L33.8343609,170.62503 L33.493403,171.126128 L33.1113659,171.534431 L32.6286847,171.692184 L32.3082664,171.397557 L32.0474132,170.942856 L31.6448364,170.671428 L31.2627993,170.829181 L30.8807622,171.239804 L30.2994907,172.281438 L30.6199089,172.485589 L30.8622766,172.780217 L31.0820506,172.986688 L31.2627993,173.258116 L31.283339,173.691937 L31.1416155,173.940166 L30.7205531,173.896088 L30.5788297,174.144317 L30.560344,174.687174 L30.8211973,176.234547 L30.8211973,177.54761 L30.6404486,178.865312 L30.6404486,179.115861 L30.7595784,180.043821 L30.7595784,180.405725 L30.7410927,180.635395 L30.7595784,180.816348 L30.8622766,181.136494 L31.061511,181.384723 L31.2627993,181.565675 L31.4230084,181.793025 L31.4230084,182.222207 L31.4640877,182.540033 L31.6448364,182.901937 L31.8851501,183.178005 L32.4890152,183.539909 L34.2780169,185.560542 L34.7606981,186.469942 L35.5021788,188.785202 L35.6623879,189.940511 L35.8246509,190.532086 L36.1265835,190.847592 L36.6277504,191.028544 L37.0097875,191.34869 L37.3117201,191.733793 L37.5109545,192.186174 L37.6526779,192.708151 L37.7327825,193.322924 L37.7533221,193.981776 L37.6937572,194.684705 L37.7122428,195.294839 L37.9546105,195.819136 L38.5564216,196.705338 L38.9179191,197.679695 L39.1602867,198.134395 L39.8442563,198.770048 L39.9839258,199.496176 L39.9839258,200.857957 L40.5056324,202.853071 L40.9492884,203.057222 L42.07486,204.080297 L42.8163406,204.398123 L43.3195616,205.305204 L43.7221383,206.873456 L44.3054637,208.028766 L44.7655514,209.095919 L45.2687723,209.889325 L45.8110185,210.501778 L47.2385228,211.093353 L47.7396897,211.480776 L47.9409781,211.909957 L48.000543,212.385537 L48.0621619,213.22766 L48.1607521,213.612763 L48.4832243,214.362091 L48.5838685,214.814471 L48.2018314,214.995423 L47.8608735,214.974544 L47.7602293,214.770393 L48.0416223,214.294814 L47.9204384,214.067463 L46.9961551,215.881625 L46.7763811,216.948778 L46.7558415,217.470756 L46.895511,217.969534 L47.3576526,218.672463 L48.5633288,219.558665 L49.0460101,220.12472 L49.1671939,220.011045 L49.5677167,219.943768 L50.050398,219.966967 L50.3728702,220.080642 L50.5330793,220.284793 L50.8555514,220.853169 L51.0363002,220.987723 L51.3977976,221.238272 L51.5374671,221.419224 L51.5785464,222.372703 L51.5169275,223.439856 L51.2560742,224.597486 L50.9151164,225.752796 L49.9312681,227.502 L49.7299798,228.18173 L49.7895447,228.455479 L50.3317909,229.251204 L50.4735143,229.499433 L50.5536189,229.773181 L50.6131838,230.04461 L50.6131838,230.383315 L50.4529747,231.088564 L49.9312681,232.202116 L49.7299798,232.858647 L49.9312681,233.357426 L50.0709376,233.94668 L50.1510422,234.561453 L49.9518078,235.33166 L49.6683609,235.830438 L49.4075076,236.217861 L49.1856796,236.649363 L48.8056965,237.556443 L48.5243035,238.008824 L48.6044081,238.393927 L48.8262361,238.737272 L49.3684823,239.055098 L49.9908331,239.419322 L50.494054,239.509798 L51.1965093,240.414559 L51.6586509,241.574509 L51.9790691,242.843494 L52.9238921,243.070844 L55.0743912,243.003567 L58.3894874,243.455947 L59.4349545,243.776093 L60.2996728,244.388547 L61.4848094,244.253992 L62.6904857,245.024199 L64.7403406,246.773403 L65.161403,246.773403 L65.6851636,246.634209 L66.1863305,246.590131 L66.5272884,246.84068 L66.769656,247.158506 L67.211258,247.610887 L67.7144789,247.99599 L68.096516,248.132864 L68.3963946,247.972791 L68.6182226,247.724562 L68.8790759,247.54361 L70.0251872,247.474013 L70.4667892,247.747761 L71.0090354,247.815038 L71.2698887,247.905514 L71.4917167,248.086466 L71.9127791,248.67804 L73.1985599,249.677917 L73.9626341,250.107098 L76.1932378,253.306239 L76.4746307,253.533589 L76.9983912,253.626385 L77.2387049,253.716861 L77.4399933,253.921013 L77.4790185,254.192441 L77.4399933,254.512587 L77.4605329,254.807214 L77.7213862,255.055443 L77.5591231,255.37327 L77.5591231,255.802451 L77.7008465,256.259471 L77.8610556,256.688652 L77.9206206,256.895123 L77.9411602,257.280227 L77.9822395,257.43798 L78.0828836,257.551655 L78.284172,257.642131 L78.4033019,257.755806 L79.226941,258.959834 L79.7507015,259.437733 L80.4531568,259.618685 L80.1512243,259.481811 L79.9704755,259.368136 L79.8102664,259.368136 L79.7507015,259.071189 L80.4531568,259.391335 L82.1004351,261.022224 L84.2119089,262.182174 L85.2943474,262.523199 L86.0995008,263.112453 L86.4199191,263.608912 L86.8820607,263.42796 L87.3462563,263.293406 L90.6408128,263.497557 L90.9427454,263.588033 L91.1440337,263.748106 L91.3247825,263.794504 L91.5856358,263.724907 L91.9471332,263.564834 L92.4688398,263.815383 L93.0727049,264.453355 L93.6539764,265.26764 L94.2783811,266.924048 L94.5803137,268.425023 L94.8801922,269.624411 L94.9418111,270.192786 L94.9007319,270.647486 L94.7405228,271.624164 L94.5002091,272.009267 L94.116118,272.350292 L93.9374233,272.825872 L94.2783811,273.575199 L94.4180506,273.712073 L94.6398786,273.848947 L94.8801922,273.913904 L95.1225599,273.825748 L95.3628735,273.802549 L95.5436223,274.120375 L95.724371,274.505479 L95.9256594,274.71195 L96.1269477,274.825625 L96.3672614,275.006577 L96.609629,275.141131 L96.8704823,275.117932 L97.0101518,274.93698 L97.0697167,274.71195 L97.0902563,274.415003 L97.3716492,273.55432 L97.5339123,273.391927 L97.8337909,273.391927 L98.0145396,273.347849 L98.215828,273.257373 L98.437656,273.234174 L98.9203373,273.802549 L99.2818347,273.869826 L99.7439764,273.890705 L100.325248,274.050778 L100.707285,274.345406 L103.260361,278.317073 L103.923791,279.159196 L106.355683,281.200708 L107.279966,282.360657 L108.002961,283.880191 L108.424024,284.242096 L109.307228,285.105098 L109.6297,285.490202 L110.714192,287.283484 L112.544273,289.304116 L115.074755,294.888113 L115.879909,297.95038 L116.099683,299.583589 L116.079143,300.154285 L116.220867,300.557947 L116.381076,303.71765 L116.300971,304.193229 L115.999039,304.759285 L115.69916,305.033033 L115.477332,305.32766 L115.417767,305.984191 L115.83883,307.051345 L115.859369,307.506045 L115.738185,308.118499 L115.376688,309.431562 L115.397228,309.751708 L115.536897,310.320083 L115.577976,310.726065 L115.7197,310.480156 L115.980553,309.547557 L116.239352,309.252929 L116.561825,309.141574 L116.722034,309.162453 L117.104071,309.322526 L117.447083,309.638033 L117.929764,309.979058 L118.128998,310.276005 L118.430931,310.932537 L118.652759,311.681864 L118.652759,312.247919 L118.45147,312.47527 L118.170078,312.338395 L118.048894,311.906894 L117.80858,311.273562 L117.646317,310.658788 L117.406003,310.343282 L117.426543,309.93266 L117.023966,309.661232 L116.703548,309.593955 L116.442695,309.888582 L116.220867,310.16233 L116.863757,310.276005 L117.305359,310.774783 L117.586752,311.524111 L117.847605,312.498469 L117.827066,313.270995 L117.646317,313.973924 L117.666857,314.857806 L117.80858,315.110675 L119.494884,315.22435 L121.162702,315.335705 L122.851059,315.472579 L124.539417,315.586254 L126.207234,315.699929 L127.895592,315.813605 L129.583949,315.92496 L131.270253,316.061834 L132.938071,316.175509 L134.626428,316.289184 L136.314786,316.38198 L137.982604,316.493335 L139.670961,316.60701 L141.357265,316.720685 L143.045622,316.811161 L146.401798,317.036191 L148.090155,317.128987 L149.757973,317.219463 L151.446331,317.333139 L153.132634,317.423615 L154.800452,317.514091 L156.488809,317.630086 L158.177167,317.720562 L159.844985,317.811038 L161.533342,317.901514 L163.219646,317.99199 L164.887464,318.082466 L166.575821,318.172942 L168.264179,318.240219 L169.931997,318.328375 L171.620354,318.423491 L172.544637,318.467569 L172.544637,318.513967 L172.684307,318.128864 L173.62913,317.558169 L175.921352,318.44437 L176.905201,318.353894 L177.166054,317.924713 L177.266698,317.377217 L177.305723,316.83436 L177.447447,316.312383 L177.788405,315.948159 L178.712688,315.428501 L179.014621,315.064277 L179.15429,314.428625 L179.014621,312.431191 L179.094725,312.043768 L179.17483,311.77234 L179.215909,311.477713 L179.17483,311.069411 L178.673663,309.955859 L177.948614,309.343406 L175.921352,308.867826 L175.07512,308.345849 L174.532874,307.16502 L174.734162,306.121065 L175.196304,305.033033 L175.477696,303.738529 L175.457157,301.968446 L175.358567,301.536945 L174.754702,300.516189 L174.754702,300.061489 L175.07512,299.242564 L175.377052,298.973456 L175.498236,298.722907 L175.397592,298.381882 L175.255868,298.110453 L175.056634,297.678952 L174.995015,297.314728 L175.237383,297.177854 L176.342415,297.26833 L176.923686,297.156975 L177.367342,296.883227 L178.39227,295.226819 L178.694202,294.523889 L178.955056,294.247821 L179.456223,293.797761 L179.819774,293.410338 L179.918364,293.206186 L180.039548,292.821083 L179.998469,292.139033 L180.060088,291.73305 L180.259322,291.596176 L180.359966,291.459302 L180.421585,291.120597 L180.48115,290.461746 L180.661899,289.733297 L180.963831,289.348194 L181.265764,289.030368 L181.464998,288.624385 L181.28425,288.032811 L181.224685,287.691786 L181.366408,287.557232 L181.464998,287.397159 L181.526617,287.056134 L181.547157,286.694229 L181.485538,286.513277 L181.245224,286.149053 L181.265764,285.399725 L181.345868,284.627199 L181.345868,284.174819 L181.80801,283.856992 L182.007245,283.608763 L182.007245,283.332695 L181.647801,282.676164 L181.506078,282.314259 L181.464998,281.950035 L181.686826,281.293504 L182.089403,280.92696 L183.052712,280.407302 L183.455288,280.043078 L183.878405,279.611577 L184.198823,279.06872 L184.521295,277.797416 L184.821174,277.275438 L185.22375,276.888015 L186.067929,276.730262 L188.559386,275.229287 L189.000988,275.16433 L189.824627,274.23405 L190.668806,273.507922 L191.43288,273.006824 L191.673194,272.62172 L191.613629,271.962869 L191.613629,271.962869 Z M14.4839764,133.497363 L14.3627926,133.631917 L14.3833322,133.722393 L14.3627926,133.768791 L14.3833322,133.722393 L14.4018179,133.745592 L14.3627926,133.79199 L14.504516,133.518242 L14.4839764,133.541441 L14.4839764,133.497363 L14.4839764,133.497363 Z M27.3828634,131.272579 L27.3438381,131.339856 L27.2431939,131.316657 L27.1630894,131.430332 L27.1425497,131.678562 L27.1425497,131.701761 L27.2637336,131.815436 L27.4444823,131.792237 L27.625231,131.453531 L27.6046914,131.453531 L27.625231,131.453531 L27.3828634,131.272579 L27.3828634,131.272579 Z M28.348226,132.724836 L28.348226,133.10994 L28.3687656,133.130819 L28.5495143,133.518242 L28.5905936,133.427766 L28.5905936,133.406887 L28.4694098,133.316411 L28.5905936,132.815312 L28.348226,132.724836 L28.348226,132.724836 Z M73.5004924,261.045423 L73.1985599,260.910869 L73.0178111,260.750796 L72.7774975,260.613922 L72.5556695,260.569844 L72.4961046,260.66032 L72.5371838,260.750796 L72.8781417,261.045423 L73.07943,261.045423 L73.3793086,261.138219 L73.7017808,261.11502 L73.6812411,261.022224 L73.5004924,261.045423 L73.5004924,261.045423 Z M79.1879157,278.272995 L79.0256526,278.340272 L78.785339,278.363471 L78.7052344,278.407549 L78.7463137,278.546743 L78.785339,278.818171 L78.8449039,278.975924 L78.8449039,278.996804 L79.1468364,278.546743 L79.1879157,278.296194 L79.1673761,278.296194 L79.1879157,278.272995 L79.1879157,278.272995 Z" id="Fill-92" fill="#D6D6D6"></path>
                <path d="M90.1581315,299.743662 L89.5152411,298.335484 L88.5704182,297.201053 L88.1904351,296.588599 L87.9891467,295.704718 L87.8885025,295.475048 L87.7878583,295.159542 L87.7077538,294.795317 L87.7077538,294.50069 L87.6481889,294.226942 L87.4058212,294.092388 L87.1038887,293.978713 L86.863575,293.774562 L86.7033659,294.477491 L86.9436796,295.317295 L87.2456121,296.136219 L87.4653862,297.358806 L88.1288162,298.859781 L88.3711838,300.017411 L88.7922462,300.581146 L89.2954671,301.059045 L89.6959899,301.332793 L89.9178179,301.40239 L90.078027,301.355992 L90.2382361,301.288715 L90.4004992,301.265516 L91.0228499,301.40239 L91.3042428,301.40239 L91.5856358,301.288715 L90.6818921,300.175164 L90.1581315,299.743662 L90.1581315,299.743662 Z M68.2957504,283.107665 L67.6323204,282.652965 L67.5522159,282.518411 L67.2317976,282.175065 L66.98943,282.337458 L66.7080371,282.404736 L66.4286981,282.360657 L66.1452513,282.154186 L66.2664351,283.084466 L66.7080371,283.833793 L67.3714671,284.37897 L68.1766206,284.694476 L68.9591804,284.559922 L68.8585363,283.90339 L68.2957504,283.107665 L68.2957504,283.107665 Z M93.5944115,283.629642 L91.8054098,282.427935 L91.4439123,282.244662 L90.1191062,280.92696 L89.5563204,280.655531 L89.0140742,280.632332 L88.7717066,281.019756 L88.9729949,281.451257 L89.4351366,281.880438 L89.9773828,282.198264 L90.4004992,282.360657 L90.963285,282.632086 L91.1029545,283.107665 L90.963285,284.37897 L90.9838246,285.081899 L91.1029545,285.650275 L91.3638078,286.058577 L91.846489,286.262728 L92.068317,286.239529 L92.6701282,286.058577 L92.9124958,286.037698 L93.1938887,286.172252 L93.8758044,286.851982 L94.2968668,287.009736 L94.6789039,286.919259 L94.8411669,286.513277 L93.8573187,284.058824 L93.5944115,283.629642 L93.5944115,283.629642 Z M59.3343103,258.549212 L59.1741012,257.823083 L59.3343103,257.052877 L58.9337875,257.303426 L58.5312108,257.393902 L57.1838111,257.21295 L56.9024182,257.280227 L56.6415649,257.393902 L56.2800675,257.461179 L55.7973862,257.347504 L54.9141821,256.962401 L54.4520405,257.076076 L54.8135379,257.598053 L55.195575,258.368259 L55.5159933,259.163985 L55.5960978,259.753239 L55.7583609,260.094264 L56.1588836,260.569844 L56.6621046,260.931748 L57.0626273,260.931748 L57.3255346,260.773995 L57.5453086,260.797194 L57.7876762,260.910869 L58.1491737,261.045423 L58.3894874,261.022224 L59.6958078,260.365693 L60.016226,260.094264 L60.2585936,259.662763 L60.4188027,258.959834 L59.7553727,259.003912 L59.3343103,258.549212 L59.3343103,258.549212 Z M53.2853895,255.848849 L53.1046408,255.644698 L52.8848668,255.463746 L52.6424992,255.303673 L52.5213153,255.055443 L52.4227251,254.760816 L52.2214368,254.489388 L52.040688,255.032244 L51.7182159,255.169118 L51.0363002,255.078642 L50.5741585,255.350071 L50.4529747,255.644698 L50.6337234,255.758373 L50.9746813,255.486945 L51.5580067,255.939325 L52.1207926,256.189874 L53.4866779,256.440423 L53.4065734,256.122597 L53.2853895,255.848849 L53.2853895,255.848849 Z M69.9635683,258.890237 L69.8033592,258.778882 L69.5425059,258.686086 L69.1810084,258.846159 L68.1951062,259.50501 L68.0143575,259.551408 L67.7535042,259.551408 L65.9850422,258.164108 L65.5434401,258.027234 L64.5986172,257.89268 L64.2165801,257.732607 L63.1526273,256.758249 L62.5487622,256.598176 L62.3680135,256.598176 L62.2078044,256.665453 L61.9469511,256.848725 L61.786742,257.008798 L61.9058718,257.143353 L62.2673693,257.303426 L62.5097369,257.598053 L62.7089713,257.959957 L62.8712344,258.389139 L62.4686577,259.117587 L62.9123137,259.822836 L63.7749781,260.388892 L64.5390523,260.66032 L69.6020708,260.523446 L70.1648567,260.342494 L70.4462496,260.026987 L70.5263541,259.595486 L70.4667892,259.528209 L69.9635683,258.890237 L69.9635683,258.890237 Z M191.613629,271.962869 L191.654708,271.554567 L191.009764,270.921234 L190.78999,270.55701 L190.588702,270.32966 L190.227204,270.035033 L188.559386,268.241751 L188.277993,267.742972 L188.177349,267.629297 L187.776826,267.220995 L187.696722,267.105 L187.534459,266.856771 L187.454354,266.766295 L187.37425,266.719897 L187.273605,266.675819 L186.971673,266.629421 L186.850489,266.562144 L186.751899,266.40439 L186.66974,266.200239 L186.651255,265.812816 L186.651255,265.539068 L186.66974,265.518189 L186.832003,265.063489 L186.992212,264.657506 L186.811464,264.316481 L186.770384,264.290962 L186.731359,263.65763 L186.530071,263.316605 L186.269218,263.021977 L186.04739,262.476801 L186.04739,262.27265 L186.168573,261.56972 L186.168573,261.319171 L186.088469,261.161418 L186.008364,261.022224 L184.962897,257.461179 L184.379572,257.257028 L183.958509,256.871924 L183.736681,256.259471 L183.7983,255.394149 L183.757221,255.011365 L183.636037,254.512587 L183.434749,254.055567 L183.132816,253.830537 L182.812398,253.649584 L182.693268,253.262161 L182.871963,249.677917 L182.892503,249.450567 L179.296013,244.525421 L175.73855,239.577076 L172.041417,234.424579 L168.607191,229.522632 L165.571433,225.163542 L162.53773,220.785892 L159.522513,216.405922 L156.529889,212.046831 L153.535211,207.664542 L150.542587,203.263693 L147.566395,198.883723 L144.612796,194.503753 L141.197056,189.666763 L134.44568,179.999743 L131.110044,175.141874 L127.753868,170.307204 L124.418233,165.451655 L121.103137,160.593786 L117.80858,155.735917 L113.548661,149.90369 L109.307228,144.071463 L105.088388,138.216038 L100.888034,132.358292 L96.7102732,126.505186 L92.5489444,120.628882 L88.4102091,114.745617 L84.2920135,108.869312 L84.3515784,108.46333 L84.6329713,106.804602 L85.5161754,101.33428 L86.3808938,95.8894761 L90.8010219,68.651539 L91.6657403,63.2067355 L93.4342024,52.3588866 L94.2968668,46.9094433 L96.0673828,36.0615945 L96.9300472,30.660869 L97.8153052,25.2369446 L98.6779696,19.8338992 L93.3931231,18.7203476 L88.1082766,17.6114358 L82.8439696,16.4955642 L77.5796627,15.3402544 L72.2948162,14.2058237 L67.0305093,13.024995 L61.7662024,11.8464861 L56.4998415,10.6401385 L51.2375885,9.43843073 L45.9732816,8.21352393 L40.7069207,6.98629723 L35.4631535,5.73819144 L30.1967926,4.46688665 L24.9530253,3.17470277 L19.707204,1.88019899 L14.4634368,0.588015113 L14.3627926,0.541617128 L13.8000067,0.404743073 L13.9211906,0.99631738 L13.9417302,1.31182368 L13.9211906,1.65748866 L13.2967858,4.33233249 L13.0359325,4.78703275 L12.3334772,5.78458942 L11.628968,6.44344081 L11.5899427,6.62439295 L12.2122934,7.09997229 L13.0564722,8.16712594 L13.6788229,9.35027456 L13.5781788,10.1877582 L13.4590489,10.6401385 L13.5781788,11.412665 L13.6788229,12.1387935 L13.8000067,12.4589395 L13.841086,12.6398917 L13.6788229,13.4100982 L13.6397976,13.7070453 L13.6993626,13.9993526 L13.8205464,14.2731008 L13.9807555,14.5004509 L14.1820438,14.6837229 L13.8000067,15.1361033 L13.7404418,16.087262 L13.7199022,17.9501411 L13.4980742,18.8131436 L12.7545396,20.4022746 L12.2944519,21.9009295 L11.4482192,23.7823678 L10.8669477,24.7126474 L10.4232917,25.756602 L10.0022293,26.1185063 L9.8605059,26.5732065 L9.78040135,27.1183829 L9.80094098,27.529005 L9.68181113,27.9373073 L10.1234132,29.2526902 L10.2035177,29.9347406 L10.0433086,30.591272 L7.972914,34.6789345 L6.74669815,36.0383955 L6.4057403,36.6299698 L6.8268027,36.4930957 L7.27045868,36.0615945 L8.53569983,34.4956625 L8.65688364,34.4283854 L9.48052277,34.7438917 L9.72083642,34.6789345 L9.88104553,34.9062846 L9.96115008,34.9503627 L9.50106239,35.5396171 L9.07794604,35.6973703 L8.61580438,35.6764912 L8.03247892,35.7669673 L7.67098145,36.0615945 L6.92744688,37.1055491 L6.64605396,37.3097003 L6.36466105,38.46733 L6.08532209,38.9869874 L5.66220573,38.6250831 L5.41983811,38.2631788 L5.46091737,38.1495038 L5.68274536,37.5834484 L5.80187521,37.3792972 L5.01931535,38.1263048 L4.51609444,38.7619572 L4.07449241,39.6017607 L4.09503204,39.6945567 L4.13405734,39.8499899 L4.15459696,39.9891839 L4.05395278,40.0123829 L3.97384823,40.0123829 L3.89374368,40.0796599 L3.81363912,40.170136 L3.71299494,40.4879622 L2.90989545,41.506398 L2.66752782,41.8938212 L2.30603035,42.6431486 L1.96507251,43.3924761 L1.82334907,43.8680554 L1.6446543,44.2786776 L1.34066779,44.7333778 L1.12089376,45.1625592 L1.10035413,45.5708615 L1.3016425,46.2737909 L1.54401012,48.2039471 L1.54401012,48.9741537 L1.04078921,50.2918564 L0.960684654,50.9947859 L1.22153794,51.4030882 L1.48239123,51.6513174 L3.67191568,55.0360504 L4.65781788,56.080005 L4.95975042,56.5764635 L5.50199663,58.0774383 L5.52253626,58.3024685 L5.44037774,58.982199 L5.481457,59.2559471 L5.62112648,59.3951411 L6.08532209,59.7106474 L6.2455312,59.8684005 L6.76723777,60.731403 L8.77601349,66.2458035 L8.79655312,66.7677809 L8.63634401,68.0854836 L8.71644857,68.8116121 L8.79655312,69.2175945 L8.8971973,69.4217456 L9.1190253,69.5841385 L9.17859022,69.8555668 L9.21966948,70.1757128 L9.2792344,70.4912191 L9.3182597,70.9899975 L8.85817201,73.0570277 L9.09848567,74.9175869 L8.97730185,75.168136 L8.61580438,75.3722872 L8.27484654,75.9615416 L7.77162563,77.2096474 L7.1698145,79.2047607 L6.64605396,80.1814383 L6.84734233,81.339068 L6.72821248,81.8610453 L6.86788196,82.1115945 L6.94798651,82.5639748 L7.00755143,83.4060982 L7.00755143,84.8119572 L7.08765599,85.4940076 L7.37110287,85.8350327 L7.75313997,88.0598161 L7.73260034,88.3753224 L7.51077234,89.3728791 L7.49023272,89.6698262 L7.57033727,90.3286776 L7.57033727,90.6465038 L7.33002361,91.3703123 L7.04863069,91.7136574 L6.70767285,91.9154887 L6.32563575,92.3701889 L6.2455312,93.2795894 L6.64605396,94.4117003 L7.75313997,96.5460076 L8.67536931,97.8173123 L8.79655312,98.1815365 L8.8971973,98.6571159 L9.25869477,99.2231713 L9.92212479,100.042096 L10.4232917,100.925977 L12.955828,107.07603 L13.5186138,107.939033 L15.7697572,110.026942 L16.2524384,110.936343 L16.4516728,112.817781 L16.8747892,113.52303 L16.5728567,114.998486 L16.7351197,115.520463 L16.7536054,115.316312 L16.8953288,114.701539 L17.940796,115.928766 L18.2201349,116.497141 L18.2612142,116.74537 L18.2612142,117.334625 L18.3002395,117.608373 L18.7438954,118.538652 L19.3867858,120.582484 L20.0296762,121.918746 L20.2515042,122.623995 L20.2515042,123.352443 L19.988597,122.670393 L19.5469949,122.009222 L19.1854975,121.285413 L19.1444182,120.44561 L19.0047487,119.898113 L18.1400304,118.380899 L17.7990725,117.879801 L18.1010051,119.784438 L18.0209005,120.605683 L16.774145,123.373322 L15.9710455,124.414957 L15.7492175,124.846458 L16.3120034,125.02973 L16.4722125,125.02973 L16.6529612,124.936935 L16.6940405,124.869657 L16.7125261,124.80238 L17.0349983,124.461355 L17.1952074,124.234005 L17.4170354,124.008975 L17.7579933,123.828023 L17.6183238,123.691149 L17.5567049,123.554275 L17.4170354,123.101894 L17.6183238,123.076375 L17.7785329,122.985899 L17.940796,122.851345 L18.1010051,122.647194 L18.3207791,123.623872 L18.8034604,124.34768 L20.0091366,125.414834 L20.1097808,125.551708 L20.3316088,125.869534 L20.4918179,126.277836 L20.5513828,127.11764 L20.7526712,127.433146 L21.2148128,127.846088 L21.4366408,128.184793 L21.7981383,129.138272 L22.0384519,129.342423 L22.2993052,129.205549 L22.4821079,128.820446 L22.4821079,128.344866 L23.4454165,129.727526 L23.9280978,130.634607 L24.5504486,131.363055 L24.7928162,131.748159 L25.1132344,132.156461 L25.5753761,132.448768 L26.0580573,132.520685 L26.4195548,132.244617 L26.4791197,131.72496 L26.3189106,131.24938 L26.2388061,130.864277 L26.5797639,130.56733 L26.6804081,131.068428 L26.9227757,131.316657 L27.1425497,131.202982 L27.183629,130.727403 L27.0213659,130.249504 L26.4791197,129.476977 L26.2572917,129.024597 L26.4195548,128.978199 L26.6393288,128.797247 L26.7810523,128.72997 L26.6208432,128.368065 L26.7009477,128.047919 L26.961801,127.820569 L27.6046914,127.730093 L27.4444823,127.412267 L26.961801,126.843892 L26.9022361,126.256957 L27.2021147,124.528632 L27.2431939,123.735227 L28.0668331,123.8953 L28.6296189,123.872101 L29.1123002,123.533395 L29.6566003,122.804947 L31.6242968,124.732783 L31.9056897,125.324358 L31.946769,125.618985 L32.1275177,125.915932 L32.4068567,126.143282 L33.051801,126.437909 L34.0356492,127.208116 L34.4587656,127.298592 L34.7401585,127.298592 L35.0194975,127.161718 L35.9047555,126.549264 L36.0649646,126.391511 L36.206688,126.164161 L36.4470017,125.595786 L36.5476459,125.438033 L36.7879595,125.28028 L37.2110759,125.143406 L37.6321383,125.052929 L37.9546105,125.120207 L38.256543,125.50531 L38.2154637,125.892733 L37.6526779,126.753416 L38.5564216,127.298592 L39.6018887,127.616418 L39.361575,127.934244 L39.2403912,128.047919 L39.0596425,128.138395 L39.2999562,128.298469 L39.640914,128.344866 L40.0434907,128.321668 L40.3865025,128.25439 L40.4666071,127.934244 L40.7274604,127.934244 L41.4504553,128.25439 L41.7318482,128.298469 L42.5554874,128.298469 L43.0381686,128.115196 L43.6009545,127.616418 L44.4451332,126.572463 L44.5642631,126.618861 L44.344489,127.275393 L44.0630961,127.79737 L43.681059,128.184793 L43.2189174,128.435343 L42.9765497,128.479421 L42.7362361,128.479421 L42.4753828,128.50262 L42.2535548,128.662693 L42.1549646,128.910922 L42.134425,129.18235 L42.1939899,129.386501 L42.354199,129.523375 L43.3195616,129.546574 L43.8618078,129.453778 L44.122661,129.18235 L44.2027656,128.774048 L44.3054637,128.572217 L44.6649073,128.231191 L44.8271703,128.163914 L44.9463002,128.25439 L45.067484,128.368065 L45.2276931,128.458542 L45.3488769,128.435343 L45.5501653,128.207992 L45.6508094,128.163914 L46.1519764,128.25439 L46.4929342,128.458542 L46.7558415,128.706771 L47.9615177,130.409577 L48.3024755,130.634607 L48.4832243,130.908355 L48.7646172,131.47673 L48.9659056,132.042786 L48.9268803,132.267816 L48.6044081,132.019587 L48.2429106,131.544008 L47.9204384,130.977952 L47.8013086,130.520932 L47.4192715,130.520932 L46.9756155,130.159028 L46.3532648,129.342423 L46.2936998,129.138272 L46.2936998,128.887723 L46.2526206,128.639494 L46.0533862,128.435343 L45.8315582,128.412144 L45.6302698,128.50262 L45.4700607,128.639494 L45.3283373,128.683572 L44.8661956,128.549018 L44.625882,128.593096 L44.4841585,128.820446 L44.4245936,129.068675 L44.3239494,129.363302 L44.2233052,129.613851 L44.1021214,129.704327 L43.902887,129.681128 L43.6605194,129.748406 L43.459231,129.88528 L43.3606408,130.068552 L43.459231,130.159028 L44.0425565,130.520932 L43.5804148,130.683325 L43.1388128,130.520932 L42.354199,129.952557 L39.8442563,129.068675 L38.8994334,128.458542 L36.3853828,127.525942 L35.8842159,127.57234 L34.7791838,128.071118 L34.2574772,128.115196 L33.8549005,127.866967 L33.1914705,126.957567 L32.7704081,126.709338 L32.2877268,126.686139 L31.9262293,126.843892 L30.7205531,127.753292 L30.4802395,127.820569 L30.1783069,127.79737 L29.9770185,127.686015 L29.7962698,127.525942 L29.6340067,127.505063 L29.3320742,128.138395 L29.011656,128.549018 L28.6090793,128.843645 L28.2475818,128.843645 L28.6296189,130.001275 L29.3936931,130.634607 L29.9975582,131.363055 L29.9359393,132.836191 L29.453258,133.882466 L29.3135885,134.538997 L29.6566003,134.900902 L30.0776627,135.084174 L31.0820506,135.812622 L31.4435481,136.174526 L30.4987251,136.378678 L30.6199089,136.445955 L30.9013019,136.696504 L30.6794739,137.102486 L30.8417369,137.216161 L31.4230084,137.23936 L31.6448364,137.487589 L31.724941,137.761338 L31.9262293,139.011763 L32.2076223,142.665605 L32.3678314,143.368534 L32.6286847,143.867312 L33.1524452,143.980987 L33.271575,144.071463 L33.3516796,144.231537 L33.4338381,144.502965 L33.4338381,144.660718 L33.3722192,144.84167 L33.3331939,145.022622 L33.3927589,145.113098 L33.552968,145.185015 L33.8754401,145.456443 L33.5139427,145.683793 L33.051801,145.704673 L32.610199,145.570118 L32.2281619,145.275491 L32.0474132,144.84167 L31.9056897,144.275615 L31.724941,143.846433 L31.4435481,143.800035 L31.2422597,143.551806 L31.061511,143.23166 L30.8622766,143.027509 L30.3590556,143.141184 L30.2789511,142.890635 L30.2584115,142.526411 L30.2193862,142.254982 L29.9359393,141.983554 L29.7161653,141.893078 L29.5929275,141.712126 L29.6340067,141.190149 L29.5128229,141.053275 L28.789828,141.009196 L28.5495143,140.941919 L28.3071467,140.259869 L28.1880169,140.074277 L28.0278078,139.962922 L27.6457707,139.849247 L27.4855616,139.712373 L27.2637336,139.373668 L27.2637336,139.146317 L27.2822192,138.898088 L27.183629,138.489786 L27.2226543,138.192839 L27.7053356,136.33228 L27.8059798,136.08405 L27.9867285,135.947176 L28.348226,135.879899 L28.0072681,135.812622 L27.9251096,135.62935 L27.9867285,135.402 L28.0072681,135.151451 L27.9456492,133.882466 L27.7854401,133.518242 L27.3623238,133.316411 L26.4606341,133.154018 L25.9964384,133.154018 L25.634941,133.33729 L25.0516155,134.425322 L24.9530253,135.743025 L25.0125902,137.102486 L24.8914064,138.262436 L24.6510927,138.784413 L24.1293862,139.577819 L23.9075582,140.259869 L23.806914,141.62165 L24.0082024,141.937156 L24.2690556,142.050831 L24.5299089,142.118108 L24.7517369,142.278181 L24.971511,142.869756 L24.971511,144.208338 L25.1132344,144.818471 L25.3145228,145.365967 L25.4151669,146.024819 L25.4151669,146.704549 L25.3535481,147.317003 L25.0125902,148.588307 L24.5894739,149.699539 L24.3696998,150.810771 L24.6510927,152.037997 L25.1748533,152.764126 L25.3946273,153.218826 L25.4151669,153.808081 L25.5548364,154.216383 L26.7214874,155.715038 L27.6046914,157.73567 L28.1284519,158.621872 L29.5539022,160.139086 L29.9359393,160.412834 L30.3980809,160.593786 L30.9218415,160.593786 L31.4230084,160.50331 L31.8461248,160.549708 L32.1480573,161.004408 L32.9306172,160.663383 L33.5735076,160.73066 L34.0952142,161.231758 L34.5388702,162.182917 L35.3029444,165.11063 L35.6623879,166.043229 L34.9003676,167.787793 L35.0605767,167.947866 L35.2413255,168.038343 L35.4426138,168.038343 L35.6439022,167.947866 L35.6829275,168.198416 L35.6829275,168.402567 L35.6233626,168.585839 L35.5021788,168.766791 L35.0194975,168.493043 L34.7196189,168.379368 L34.4977909,168.653116 L34.1362934,170.056655 L33.8343609,170.62503 L33.493403,171.126128 L33.1113659,171.534431 L32.6286847,171.692184 L32.3082664,171.397557 L32.0474132,170.942856 L31.6448364,170.671428 L31.2627993,170.829181 L30.8807622,171.239804 L30.2994907,172.281438 L30.6199089,172.485589 L30.8622766,172.780217 L31.0820506,172.986688 L31.2627993,173.258116 L31.283339,173.691937 L31.1416155,173.940166 L30.7205531,173.896088 L30.5788297,174.144317 L30.560344,174.687174 L30.8211973,176.234547 L30.8211973,177.54761 L30.6404486,178.865312 L30.6404486,179.115861 L30.7595784,180.043821 L30.7595784,180.405725 L30.7410927,180.635395 L30.7595784,180.816348 L30.8622766,181.136494 L31.061511,181.384723 L31.2627993,181.565675 L31.4230084,181.793025 L31.4230084,182.222207 L31.4640877,182.540033 L31.6448364,182.901937 L31.8851501,183.178005 L32.4890152,183.539909 L34.2780169,185.560542 L34.7606981,186.469942 L35.5021788,188.785202 L35.6623879,189.940511 L35.8246509,190.532086 L36.1265835,190.847592 L36.6277504,191.028544 L37.0097875,191.34869 L37.3117201,191.733793 L37.5109545,192.186174 L37.6526779,192.708151 L37.7327825,193.322924 L37.7533221,193.981776 L37.6937572,194.684705 L37.7122428,195.294839 L37.9546105,195.819136 L38.5564216,196.705338 L38.9179191,197.679695 L39.1602867,198.134395 L39.8442563,198.770048 L39.9839258,199.496176 L39.9839258,200.857957 L40.5056324,202.853071 L40.9492884,203.057222 L42.07486,204.080297 L42.8163406,204.398123 L43.3195616,205.305204 L43.7221383,206.873456 L44.3054637,208.028766 L44.7655514,209.095919 L45.2687723,209.889325 L45.8110185,210.501778 L47.2385228,211.093353 L47.7396897,211.480776 L47.9409781,211.909957 L48.000543,212.385537 L48.0621619,213.22766 L48.1607521,213.612763 L48.4832243,214.362091 L48.5838685,214.814471 L48.2018314,214.995423 L47.8608735,214.974544 L47.7602293,214.770393 L48.0416223,214.294814 L47.9204384,214.067463 L46.9961551,215.881625 L46.7763811,216.948778 L46.7558415,217.470756 L46.895511,217.969534 L47.3576526,218.672463 L48.5633288,219.558665 L49.0460101,220.12472 L49.1671939,220.011045 L49.5677167,219.943768 L50.050398,219.966967 L50.3728702,220.080642 L50.5330793,220.284793 L50.8555514,220.853169 L51.0363002,220.987723 L51.3977976,221.238272 L51.5374671,221.419224 L51.5785464,222.372703 L51.5169275,223.439856 L51.2560742,224.597486 L50.9151164,225.752796 L49.9312681,227.502 L49.7299798,228.18173 L49.7895447,228.455479 L50.3317909,229.251204 L50.4735143,229.499433 L50.5536189,229.773181 L50.6131838,230.04461 L50.6131838,230.383315 L50.4529747,231.088564 L49.9312681,232.202116 L49.7299798,232.858647 L49.9312681,233.357426 L50.0709376,233.94668 L50.1510422,234.561453 L49.9518078,235.33166 L49.6683609,235.830438 L49.4075076,236.217861 L49.1856796,236.649363 L48.8056965,237.556443 L48.5243035,238.008824 L48.6044081,238.393927 L48.8262361,238.737272 L49.3684823,239.055098 L49.9908331,239.419322 L50.494054,239.509798 L51.1965093,240.414559 L51.6586509,241.574509 L51.9790691,242.843494 L52.9238921,243.070844 L55.0743912,243.003567 L58.3894874,243.455947 L59.4349545,243.776093 L60.2996728,244.388547 L61.4848094,244.253992 L62.6904857,245.024199 L64.7403406,246.773403 L65.161403,246.773403 L65.6851636,246.634209 L66.1863305,246.590131 L66.5272884,246.84068 L66.769656,247.158506 L67.211258,247.610887 L67.7144789,247.99599 L68.096516,248.132864 L68.3963946,247.972791 L68.6182226,247.724562 L68.8790759,247.54361 L70.0251872,247.474013 L70.4667892,247.747761 L71.0090354,247.815038 L71.2698887,247.905514 L71.4917167,248.086466 L71.9127791,248.67804 L73.1985599,249.677917 L73.9626341,250.107098 L76.1932378,253.306239 L76.4746307,253.533589 L76.9983912,253.626385 L77.2387049,253.716861 L77.4399933,253.921013 L77.4790185,254.192441 L77.4399933,254.512587 L77.4605329,254.807214 L77.7213862,255.055443 L77.5591231,255.37327 L77.5591231,255.802451 L77.7008465,256.259471 L77.8610556,256.688652 L77.9206206,256.895123 L77.9411602,257.280227 L77.9822395,257.43798 L78.0828836,257.551655 L78.284172,257.642131 L78.4033019,257.755806 L79.226941,258.959834 L79.7507015,259.437733 L80.4531568,259.618685 L80.1512243,259.481811 L79.9704755,259.368136 L79.8102664,259.368136 L79.7507015,259.071189 L80.4531568,259.391335 L82.1004351,261.022224 L84.2119089,262.182174 L85.2943474,262.523199 L86.0995008,263.112453 L86.4199191,263.608912 L86.8820607,263.42796 L87.3462563,263.293406 L90.6408128,263.497557 L90.9427454,263.588033 L91.1440337,263.748106 L91.3247825,263.794504 L91.5856358,263.724907 L91.9471332,263.564834 L92.4688398,263.815383 L93.0727049,264.453355 L93.6539764,265.26764 L94.2783811,266.924048 L94.5803137,268.425023 L94.8801922,269.624411 L94.9418111,270.192786 L94.9007319,270.647486 L94.7405228,271.624164 L94.5002091,272.009267 L94.116118,272.350292 L93.9374233,272.825872 L94.2783811,273.575199 L94.4180506,273.712073 L94.6398786,273.848947 L94.8801922,273.913904 L95.1225599,273.825748 L95.3628735,273.802549 L95.5436223,274.120375 L95.724371,274.505479 L95.9256594,274.71195 L96.1269477,274.825625 L96.3672614,275.006577 L96.609629,275.141131 L96.8704823,275.117932 L97.0101518,274.93698 L97.0697167,274.71195 L97.0902563,274.415003 L97.3716492,273.55432 L97.5339123,273.391927 L97.8337909,273.391927 L98.0145396,273.347849 L98.215828,273.257373 L98.437656,273.234174 L98.9203373,273.802549 L99.2818347,273.869826 L99.7439764,273.890705 L100.325248,274.050778 L100.707285,274.345406 L103.260361,278.317073 L103.923791,279.159196 L106.355683,281.200708 L107.279966,282.360657 L108.002961,283.880191 L108.424024,284.242096 L109.307228,285.105098 L109.6297,285.490202 L110.714192,287.283484 L112.544273,289.304116 L115.074755,294.888113 L115.879909,297.95038 L116.099683,299.583589 L116.079143,300.154285 L116.220867,300.557947 L116.381076,303.71765 L116.300971,304.193229 L115.999039,304.759285 L115.69916,305.033033 L115.477332,305.32766 L115.417767,305.984191 L115.83883,307.051345 L115.859369,307.506045 L115.738185,308.118499 L115.376688,309.431562 L115.397228,309.751708 L115.536897,310.320083 L115.577976,310.726065 L115.7197,310.480156 L115.980553,309.547557 L116.239352,309.252929 L116.561825,309.141574 L116.722034,309.162453 L117.104071,309.322526 L117.447083,309.638033 L117.929764,309.979058 L118.128998,310.276005 L118.430931,310.932537 L118.652759,311.681864 L118.652759,312.247919 L118.45147,312.47527 L118.170078,312.338395 L118.048894,311.906894 L117.80858,311.273562 L117.646317,310.658788 L117.406003,310.343282 L117.426543,309.93266 L117.023966,309.661232 L116.703548,309.593955 L116.442695,309.888582 L116.220867,310.16233 L116.863757,310.276005 L117.305359,310.774783 L117.586752,311.524111 L117.847605,312.498469 L117.827066,313.270995 L117.646317,313.973924 L117.666857,314.857806 L117.80858,315.110675 L119.494884,315.22435 L121.162702,315.335705 L122.851059,315.472579 L124.539417,315.586254 L126.207234,315.699929 L127.895592,315.813605 L129.583949,315.92496 L131.270253,316.061834 L132.938071,316.175509 L134.626428,316.289184 L136.314786,316.38198 L137.982604,316.493335 L139.670961,316.60701 L141.357265,316.720685 L143.045622,316.811161 L146.401798,317.036191 L148.090155,317.128987 L149.757973,317.219463 L151.446331,317.333139 L153.132634,317.423615 L154.800452,317.514091 L156.488809,317.630086 L158.177167,317.720562 L159.844985,317.811038 L161.533342,317.901514 L163.219646,317.99199 L164.887464,318.082466 L166.575821,318.172942 L168.264179,318.240219 L169.931997,318.328375 L171.620354,318.423491 L172.544637,318.467569 L172.544637,318.513967 L172.684307,318.128864 L173.62913,317.558169 L175.921352,318.44437 L176.905201,318.353894 L177.166054,317.924713 L177.266698,317.377217 L177.305723,316.83436 L177.447447,316.312383 L177.788405,315.948159 L178.712688,315.428501 L179.014621,315.064277 L179.15429,314.428625 L179.014621,312.431191 L179.094725,312.043768 L179.17483,311.77234 L179.215909,311.477713 L179.17483,311.069411 L178.673663,309.955859 L177.948614,309.343406 L175.921352,308.867826 L175.07512,308.345849 L174.532874,307.16502 L174.734162,306.121065 L175.196304,305.033033 L175.477696,303.738529 L175.457157,301.968446 L175.358567,301.536945 L174.754702,300.516189 L174.754702,300.061489 L175.07512,299.242564 L175.377052,298.973456 L175.498236,298.722907 L175.397592,298.381882 L175.255868,298.110453 L175.056634,297.678952 L174.995015,297.314728 L175.237383,297.177854 L176.342415,297.26833 L176.923686,297.156975 L177.367342,296.883227 L178.39227,295.226819 L178.694202,294.523889 L178.955056,294.247821 L179.456223,293.797761 L179.819774,293.410338 L179.918364,293.206186 L180.039548,292.821083 L179.998469,292.139033 L180.060088,291.73305 L180.259322,291.596176 L180.359966,291.459302 L180.421585,291.120597 L180.48115,290.461746 L180.661899,289.733297 L180.963831,289.348194 L181.265764,289.030368 L181.464998,288.624385 L181.28425,288.032811 L181.224685,287.691786 L181.366408,287.557232 L181.464998,287.397159 L181.526617,287.056134 L181.547157,286.694229 L181.485538,286.513277 L181.245224,286.149053 L181.265764,285.399725 L181.345868,284.627199 L181.345868,284.174819 L181.80801,283.856992 L182.007245,283.608763 L182.007245,283.332695 L181.647801,282.676164 L181.506078,282.314259 L181.464998,281.950035 L181.686826,281.293504 L182.089403,280.92696 L183.052712,280.407302 L183.455288,280.043078 L183.878405,279.611577 L184.198823,279.06872 L184.521295,277.797416 L184.821174,277.275438 L185.22375,276.888015 L186.067929,276.730262 L188.559386,275.229287 L189.000988,275.16433 L189.824627,274.23405 L190.668806,273.507922 L191.43288,273.006824 L191.673194,272.62172 L191.613629,271.962869 L191.613629,271.962869 Z M14.4839764,133.497363 L14.3627926,133.631917 L14.3833322,133.722393 L14.3627926,133.768791 L14.3833322,133.722393 L14.4018179,133.745592 L14.3627926,133.79199 L14.504516,133.518242 L14.4839764,133.541441 L14.4839764,133.497363 L14.4839764,133.497363 Z M27.3828634,131.272579 L27.3438381,131.339856 L27.2431939,131.316657 L27.1630894,131.430332 L27.1425497,131.678562 L27.1425497,131.701761 L27.2637336,131.815436 L27.4444823,131.792237 L27.625231,131.453531 L27.6046914,131.453531 L27.625231,131.453531 L27.3828634,131.272579 L27.3828634,131.272579 Z M28.348226,132.724836 L28.348226,133.10994 L28.3687656,133.130819 L28.5495143,133.518242 L28.5905936,133.427766 L28.5905936,133.406887 L28.4694098,133.316411 L28.5905936,132.815312 L28.348226,132.724836 L28.348226,132.724836 Z M73.5004924,261.045423 L73.1985599,260.910869 L73.0178111,260.750796 L72.7774975,260.613922 L72.5556695,260.569844 L72.4961046,260.66032 L72.5371838,260.750796 L72.8781417,261.045423 L73.07943,261.045423 L73.3793086,261.138219 L73.7017808,261.11502 L73.6812411,261.022224 L73.5004924,261.045423 L73.5004924,261.045423 Z M79.1879157,278.272995 L79.0256526,278.340272 L78.785339,278.363471 L78.7052344,278.407549 L78.7463137,278.546743 L78.785339,278.818171 L78.8449039,278.975924 L78.8449039,278.996804 L79.1468364,278.546743 L79.1879157,278.296194 L79.1673761,278.296194 L79.1879157,278.272995 L79.1879157,278.272995 Z" id="Stroke-93" stroke="#F9F9F9" stroke-width="0.25" stroke-linecap="round" stroke-linejoin="round"></path>
            </g>
        </g>
    </g>
</svg>