<?xml version="1.0" encoding="UTF-8"?>
<svg width="156px" height="131px" viewBox="0 0 156 131" version="1.1" xmlns="http://www.w3.org/2000/svg" xmlns:xlink="http://www.w3.org/1999/xlink">
    <!-- Generator: Sketch 51 (57462) - http://www.bohemiancoding.com/sketch -->
    <title>Colorado</title>
    <desc>Created with Sketch.</desc>
    <defs></defs>
    <g id="Page-1" stroke="none" stroke-width="1" fill="none" fill-rule="evenodd">
        <g id="A5" transform="translate(-401.000000, -318.000000)">
            <g id="Colorado" transform="translate(401.000000, 319.000000)">
                <polygon id="Fill-90" fill="#D6D6D6" points="154.570921 38.4222872 154.410712 49.7457154 154.390172 52.5829521 153.950624 83.8366348 153.930084 86.6715516 153.808901 95.206461 153.767821 98.0645768 153.646637 106.599486 153.626098 109.459922 153.346759 129.408736 150.672499 129.341458 147.979754 129.29506 145.289062 129.227783 142.616857 129.160506 139.922057 129.093229 137.229312 129.023632 134.557106 128.933156 131.866415 128.865879 123.664941 128.594451 119.546745 128.457577 115.447035 128.297504 111.349379 128.137431 107.249669 127.956479 103.12942 127.775526 99.0297099 127.592254 94.932054 127.411302 90.8118044 127.207151 86.7141484 127.003 82.6144384 126.77565 78.5147285 126.55062 74.4150185 126.32327 70.3173626 126.07504 66.2197066 125.822171 62.099457 125.573942 57.999747 125.302514 53.9000371 125.028766 49.8003272 124.755018 45.7006172 124.483589 41.6029612 124.188962 37.5032513 123.873456 33.4035413 123.55563 29.3038314 123.235484 25.2061754 122.917657 21.1085194 122.576632 17.0272951 122.235607 12.9275852 121.873703 8.82787521 121.534997 4.72816526 121.170773 0.630509275 120.78335 0.913956155 116.994955 1.19329511 113.204239 1.4541484 109.413524 2.01693423 101.832093 2.27778752 98.0645768 2.55918044 94.2761814 2.84057336 90.485466 3.10348061 86.6947506 3.38487352 82.9272343 3.66626644 79.1365189 3.92711973 75.3458035 4.20645868 71.5782872 4.4878516 67.7898917 4.75075885 64.0223753 5.31149073 56.4641436 5.57439798 52.6966272 5.85579089 48.9291108 6.11664418 45.1639144 6.67737605 37.6288816 6.93822934 33.8590453 7.22167622 30.0938489 7.48252951 26.3240126 8.04531535 18.8098589 8.30616863 15.0446625 8.86895447 7.53282872 9.12980776 3.76299244 9.39271501 0.0209949622 12.6482462 0.315622166 15.9017234 0.61024937 19.1593086 0.904876574 22.4127858 1.17630479 25.670371 1.447733 28.9217943 1.72380101 32.1588398 1.99290932 35.414371 2.24345844 38.6699022 2.51720655 41.9233794 2.76543577 45.1768567 3.01598489 48.4364958 3.24101511 51.6879191 3.49156423 54.9455042 3.71659446 58.1989815 3.94394458 61.4545126 4.15041562 64.7100438 4.37776574 67.965575 4.58191688 71.2211062 4.78374811 74.4971771 4.99021914 77.7527083 5.17117128 81.0061855 5.37532242 84.2637707 5.55859446 87.5172479 5.7395466 90.7727791 5.89729975 94.0283103 6.07825189 97.2838415 6.23832494 100.539373 6.39607809 103.81339 6.55383123 107.068921 6.69302519 110.322398 6.82989924 113.579983 6.9644534 116.050901 7.07812846 118.523872 7.16860453 120.994789 7.2590806 123.465707 7.35187657 125.936624 7.44235264 128.407541 7.53282872 130.880513 7.60010579 133.35143 7.69058186 135.824401 7.76017884 138.295319 7.85065491 143.239207 7.98520907 145.710125 8.03160705 148.181042 8.09888413 150.65196 8.16848111 153.143417 8.21255919 155.053602 8.25663728 155.012523 10.1427154 154.991983 12.0264736 154.952958 13.9079118 154.932418 15.7939899 154.893393 17.6777481 154.872853 19.5615063 154.831774 21.4429446 154.813288 23.3290227 154.772209 25.2127809 154.751669 27.0988589 154.712644 28.9779773 154.692105 30.8640554 154.651025 32.7478136 154.63254 34.6315718 154.59146 36.5130101"></polygon>
                <polygon id="Stroke-91" stroke="#F9F9F9" stroke-width="0.25" stroke-linecap="round" stroke-linejoin="round" points="154.570921 38.4222872 154.410712 49.7457154 154.390172 52.5829521 153.950624 83.8366348 153.930084 86.6715516 153.808901 95.206461 153.767821 98.0645768 153.646637 106.599486 153.626098 109.459922 153.346759 129.408736 150.672499 129.341458 147.979754 129.29506 145.289062 129.227783 142.616857 129.160506 139.922057 129.093229 137.229312 129.023632 134.557106 128.933156 131.866415 128.865879 123.664941 128.594451 119.546745 128.457577 115.447035 128.297504 111.349379 128.137431 107.249669 127.956479 103.12942 127.775526 99.0297099 127.592254 94.932054 127.411302 90.8118044 127.207151 86.7141484 127.003 82.6144384 126.77565 78.5147285 126.55062 74.4150185 126.32327 70.3173626 126.07504 66.2197066 125.822171 62.099457 125.573942 57.999747 125.302514 53.9000371 125.028766 49.8003272 124.755018 45.7006172 124.483589 41.6029612 124.188962 37.5032513 123.873456 33.4035413 123.55563 29.3038314 123.235484 25.2061754 122.917657 21.1085194 122.576632 17.0272951 122.235607 12.9275852 121.873703 8.82787521 121.534997 4.72816526 121.170773 0.630509275 120.78335 0.913956155 116.994955 1.19329511 113.204239 1.4541484 109.413524 2.01693423 101.832093 2.27778752 98.0645768 2.55918044 94.2761814 2.84057336 90.485466 3.10348061 86.6947506 3.38487352 82.9272343 3.66626644 79.1365189 3.92711973 75.3458035 4.20645868 71.5782872 4.4878516 67.7898917 4.75075885 64.0223753 5.31149073 56.4641436 5.57439798 52.6966272 5.85579089 48.9291108 6.11664418 45.1639144 6.67737605 37.6288816 6.93822934 33.8590453 7.22167622 30.0938489 7.48252951 26.3240126 8.04531535 18.8098589 8.30616863 15.0446625 8.86895447 7.53282872 9.12980776 3.76299244 9.39271501 0.0209949622 12.6482462 0.315622166 15.9017234 0.61024937 19.1593086 0.904876574 22.4127858 1.17630479 25.670371 1.447733 28.9217943 1.72380101 32.1588398 1.99290932 35.414371 2.24345844 38.6699022 2.51720655 41.9233794 2.76543577 45.1768567 3.01598489 48.4364958 3.24101511 51.6879191 3.49156423 54.9455042 3.71659446 58.1989815 3.94394458 61.4545126 4.15041562 64.7100438 4.37776574 67.965575 4.58191688 71.2211062 4.78374811 74.4971771 4.99021914 77.7527083 5.17117128 81.0061855 5.37532242 84.2637707 5.55859446 87.5172479 5.7395466 90.7727791 5.89729975 94.0283103 6.07825189 97.2838415 6.23832494 100.539373 6.39607809 103.81339 6.55383123 107.068921 6.69302519 110.322398 6.82989924 113.579983 6.9644534 116.050901 7.07812846 118.523872 7.16860453 120.994789 7.2590806 123.465707 7.35187657 125.936624 7.44235264 128.407541 7.53282872 130.880513 7.60010579 133.35143 7.69058186 135.824401 7.76017884 138.295319 7.85065491 143.239207 7.98520907 145.710125 8.03160705 148.181042 8.09888413 150.65196 8.16848111 153.143417 8.21255919 155.053602 8.25663728 155.012523 10.1427154 154.991983 12.0264736 154.952958 13.9079118 154.932418 15.7939899 154.893393 17.6777481 154.872853 19.5615063 154.831774 21.4429446 154.813288 23.3290227 154.772209 25.2127809 154.751669 27.0988589 154.712644 28.9779773 154.692105 30.8640554 154.651025 32.7478136 154.63254 34.6315718 154.59146 36.5130101"></polygon>
            </g>
        </g>
    </g>
</svg>