<?xml version="1.0" encoding="UTF-8"?>
<svg width="162px" height="95px" viewBox="0 0 162 95" version="1.1" xmlns="http://www.w3.org/2000/svg" xmlns:xlink="http://www.w3.org/1999/xlink">
    <!-- Generator: Sketch 51 (57462) - http://www.bohemiancoding.com/sketch -->
    <title>Kentucky</title>
    <desc>Created with Sketch.</desc>
    <defs></defs>
    <g id="Page-1" stroke="none" stroke-width="1" fill="none" fill-rule="evenodd">
        <g id="A5" transform="translate(-825.000000, -358.000000)">
            <g id="Kentucky" transform="translate(825.000000, 358.000000)">
                <path d="M160.703616,38.5033098 L160.463302,38.5265088 L159.840951,38.797937 L159.600637,38.821136 L157.811636,38.5265088 L157.489164,38.4128338 L157.328954,38.2550806 L157.310469,38.0926877 L157.310469,37.9117355 L157.24885,37.7771814 L157.189285,37.6403073 L157.088641,37.5266322 L156.887352,37.3456801 L156.141764,36.7796247 L155.961015,36.7796247 L155.860371,36.8469018 L155.780266,36.9164987 L155.720702,36.8701008 L155.240074,36.3017254 L154.999761,36.0975743 L154.819012,36.0070982 L154.638263,35.9398212 L153.750951,35.73567 L153.549663,35.6428741 L153.430533,35.482801 L153.270324,35.0536196 L152.808182,34.1233401 L152.767103,33.9655869 L152.748617,33.8055139 L152.547329,33.5108866 L152.226911,33.1466625 L150.657683,31.8544786 L150.598118,31.7408035 L150.518013,31.6062494 L150.417369,31.3093023 L150.177056,30.3767028 L150.117491,30.1725516 L149.996307,29.9915995 L149.795019,29.6969723 L149.655349,29.5624181 L149.511572,29.4487431 L148.548263,28.9035668 L148.427079,28.7666927 L148.388054,28.6089395 L148.40654,28.5161436 L148.607828,27.9941662 L148.648907,27.8572922 L148.648907,27.745937 L148.488698,27.3817128 L148.346975,27.2239597 L148.26687,27.1334836 L146.94001,26.180005 L146.759261,25.9990529 L146.617538,25.7485038 L146.436789,25.3378816 L146.29712,25.0896524 L144.347909,22.84167 L144.1877,22.5934408 L144.146621,22.4565668 L144.146621,22.2083375 L144.1877,22.1387406 L144.247265,22.0482645 L144.567683,21.6631612 L144.709406,21.438131 L144.748432,21.3012569 L144.768971,21.185262 L144.768971,21.0275088 L144.668327,20.5264106 L144.668327,20.3686574 L144.688867,20.2317834 L144.729946,20.1413073 L144.828536,20.0740302 L145.08939,19.9835542 L145.173602,19.8930781 L145.214681,19.779403 L145.194142,19.6216499 L145.173602,19.4615768 L145.134577,19.3038237 L145.070904,18.9859975 L145.029825,18.3039471 L145.029825,17.9165239 L144.97026,17.6218967 L144.849076,17.2831914 L144.327369,16.4225088 L144.226725,16.1928388 L144.208239,16.1255617 L144.1877,16.0118866 L144.16716,15.2161612 L144.126081,14.8774559 L144.107595,14.6965038 L143.846742,14.3786776 L143.364061,13.4692771 L143.084722,13.0841738 L141.314206,11.6319169 L140.428948,11.2027355 L139.406074,10.9962645 L138.401686,10.5879622 L137.617073,9.54400756 L136.834513,7.63473048 L136.692789,7.06867506 L136.612685,6.47942065 L136.493555,6.0479194 L136.212162,5.89016625 L135.665808,6.09431738 L134.482725,7.04779597 L133.961019,7.22874811 L133.556388,7.45377834 L133.274995,7.8620806 L133.034681,8.33997985 L132.773828,8.70652393 L132.252121,9.04522922 L132.091912,9.22618136 L132.011808,9.47673048 L131.872138,10.133262 L131.750954,10.4719673 L131.405889,10.7921134 L130.964287,10.9081083 L129.982492,10.8593904 L129.499811,10.9962645 L129.195825,11.2700126 L128.973997,11.5646398 L128.253056,11.882466 L128.072307,11.836068 L127.772428,11.5646398 L127.129538,10.7248363 L126.965221,10.5415642 L126.663288,10.3582922 L126.022452,10.156461 L125.722573,10.133262 L124.960553,10.2678161 L124.755157,10.200539 L124.35258,9.85951385 L123.913032,9.63448363 L123.45089,9.49760957 L122.988749,9.54400756 L121.561245,10.3374131 L121.34147,10.5647632 L121.320931,11.1308186 L121.140182,11.6783149 L120.799224,12.0866171 L120.398702,12.3116474 L119.451825,12.2443703 L118.529595,11.7455919 L116.900803,10.3582922 L116.498226,9.92911083 L116.157268,9.45353149 L115.773177,9.06842821 L114.830408,8.93155416 L113.926664,8.61140806 L113.42139,8.61140806 L111.59747,9.33985642 L111.110681,9.36305542 L108.619224,8.75060202 L108.118057,8.43045592 L107.857204,7.95255668 L107.738074,7.22874811 L107.596351,6.6394937 L107.397116,6.11519647 L107.115723,5.66281612 L106.871302,5.412267 L106.550884,5.16171788 L106.248951,4.86709068 L106.088742,4.45878841 L105.988098,3.93913098 L105.788863,3.41483375 L105.50747,2.93693451 L105.145973,2.61910831 L104.178556,2.23400504 L103.638364,2.09945088 L103.215248,2.07625189 L102.956449,1.87210076 L102.654516,1.37332242 L102.288911,0.851345088 L101.808283,0.647193955 L100.925079,0.985899244 L99.2367218,2.18992695 L98.335032,2.23400504 L97.1067622,1.19237028 L96.7658044,1.03229723 L96.6446206,0.965020151 L96.3242024,0.556717884 L96.122914,0.487120907 L95.8641147,0.577596977 L95.7018516,0.781748111 L95.4184047,1.25964736 L94.3339123,2.25720403 L93.9724148,2.59822922 L93.4322226,3.48443073 L93.5924317,4.43790932 L94.2538078,5.02484383 L94.6153052,5.4331461 L94.796054,5.93424433 L94.6563845,6.50261965 L94.0134941,7.43289924 L93.853285,7.74840554 L94.1531636,8.09175063 L94.514661,8.22630479 L95.4368904,8.13582872 L95.9236796,8.24950378 L95.9442192,8.70652393 L95.7223912,9.27257935 L95.4779696,9.70176071 L95.3978651,10.3142141 L95.8024958,11.2700126 L95.5375346,11.4973627 L93.7937201,11.5414408 L93.0871568,11.7687909 L91.80343,12.6062746 L88.9915548,15.2161612 L88.1453221,15.5595063 L87.7037201,15.3298363 L86.8615953,14.5132317 L86.4754503,14.3554786 L85.1321585,14.4923526 L82.7208061,15.1024861 L82.3593086,15.4203123 L82.4188735,15.9886877 L82.6612411,16.603461 L82.8604755,16.9885642 L83.2630523,18.8050453 L83.8443238,19.9162771 L83.8032445,20.5032116 L83.5629309,20.9811108 L82.5400573,22.0946625 L82.2997437,22.5029647 L82.0347825,23.0690202 L81.7328499,23.3891662 L80.8516998,23.6373955 L80.4306374,23.8438665 L79.8842833,24.7950252 L79.7035346,27.5185869 L79.3625767,28.6298186 L78.680661,29.381466 L78.2801383,29.7201713 L77.5140101,30.1052746 L77.2531568,30.1284736 L77.131973,29.8779244 L77.0128432,29.7874484 L76.7314503,29.7201713 L76.4315717,29.6760932 L76.2097437,29.6969723 L75.96943,30.1052746 L75.6490118,31.4229773 L75.4867487,31.7176045 L75.1437369,31.9913526 L74.9219089,32.5574081 L74.8007251,33.2603375 L74.7616998,33.8983098 L74.9013693,36.8028237 L74.7616998,37.6171083 L74.6610556,37.8908564 L74.5213862,38.1622846 L74.3406374,38.4128338 L74.1208634,38.6169849 L73.093882,38.9812091 L72.6317403,39.2526373 L72.4715312,39.7978136 L72.2907825,40.0460428 L71.7896155,39.7073375 L70.8632782,38.844335 L70.380597,38.774738 L69.2981585,38.844335 L68.8360169,38.6401839 L68.4519258,38.3687557 L67.5687218,37.9813325 L67.1887386,37.7075844 L66.946371,37.301602 L66.8662664,36.8469018 L66.7861619,35.552398 L66.5663879,35.2345718 L65.3586577,34.4179673 L64.9375953,34.2602141 L64.4754536,34.2834131 L64.2741653,34.5107632 L64.5966374,35.0304207 L65.0382395,35.2577708 L65.4983272,35.3482469 L65.6996155,35.552398 L65.3791973,36.0743753 L64.5350185,36.6427506 L64.0297437,36.7564257 L63.7709444,36.7123476 L63.6292209,36.4409194 L63.4895514,36.3249244 L63.2286981,36.2112494 L62.9883845,36.2344484 L62.9082799,36.5313955 L63.0274098,36.8469018 L63.4484722,37.255204 L63.6086813,37.5730302 L63.5901956,38.2295617 L63.2677234,38.6633829 L62.8076358,38.9116121 L62.3454941,39.0044081 L62.1051804,39.3222343 L62.0641012,39.9787657 L62.3454941,41.953 L62.3249545,42.4077003 L62.0846408,42.7464055 L60.9775548,43.1779068 L60.8974503,43.655806 L60.9570152,44.2473804 L60.856371,44.8807128 L60.4353086,45.2658161 L59.9341417,45.3122141 L59.5685363,45.061665 L59.693828,44.5188086 L59.8745767,43.8831562 L59.4494064,43.8135592 L58.5271771,44.1569043 L57.7651568,44.0873073 L57.038054,43.588529 L56.4958078,42.8368816 L56.2349545,42.0666751 L55.8344317,41.5678967 L55.0888432,41.999398 L54.3473626,42.8160025 L53.9242462,43.4052569 L53.6449073,43.6094081 L52.4166374,43.9272343 L52.05514,44.1569043 L51.7942867,44.4283325 L51.5745126,44.7902368 L51.3732243,45.3122141 L50.9727015,47.2864484 L50.7118482,48.0566549 L50.0853895,48.6482292 L49.8450759,48.5136751 L49.6253019,48.353602 L49.2638044,47.9221008 L49.1241349,47.6042746 L49.0234907,47.2655693 L48.9023069,47.0150202 L48.6414536,46.9245441 L48.2368229,46.9477431 L47.9369444,46.9013451 L47.6945767,46.810869 L46.8729916,46.3329698 L45.3653828,45.8805894 L44.9422664,45.6277204 L44.521204,45.3122141 L44.0015514,45.0175869 L43.4757369,44.8134358 L43.0135953,44.7461587 L42.1303912,45.131262 L41.3046981,45.7645945 L40.483113,46.0847406 L39.6594739,45.3794912 L39.5793693,45.084864 L39.540344,44.5860856 L39.3945126,44.3819345 L39.2343035,44.3146574 L39.0330152,44.3819345 L38.9138853,44.5860856 L38.8728061,44.9711889 L39.0330152,45.6277204 L39.4992648,46.4698438 L39.6800135,47.0614181 L39.540344,47.9221008 L39.0535548,48.6714282 L38.433258,49.0356524 L37.9115514,48.7387053 L37.8293929,48.284005 L37.9505767,47.2655693 L37.8704722,46.857267 L37.5705936,46.6531159 L37.2090961,46.7203929 L36.9030556,46.9709421 L36.7223069,47.2191713 L36.5230725,47.2655693 L35.6994334,47.6947506 L35.278371,47.8084257 L34.7936358,47.7620277 L34.3725734,47.5810756 L34.0110759,47.2655693 L33.6495784,46.880466 L33.2079764,46.5394408 L32.7273491,46.4930428 L32.3822833,46.78767 L32.2816391,47.4465214 L32.4233626,47.8316247 L33.228516,49.5576297 L32.3617437,50.9194106 L32.2816391,51.1235617 L31.8811164,51.0539647 L31.0595312,50.5992645 L30.6569545,50.4855894 L30.1722192,50.6224635 L30.1331939,51.0330856 L30.1722192,51.645539 L30.0120101,52.3484685 L29.7306172,52.7799698 L28.6276391,54.0976725 L28.4263508,54.5268539 L28.2065767,55.2297834 L28.1223642,55.9791108 L28.3277605,56.5242872 L28.7673086,57.3200126 L28.8884924,57.4777657 L29.6114874,58.1574962 L30.1927589,59.4079219 L30.1126543,60.2686045 L29.4697639,60.8578589 L25.591882,62.1523627 L24.4067454,63.1058413 L24.0473019,63.2635945 L23.0798853,63.3540705 L22.6382833,63.4955844 L22.2973255,63.7414937 L22.0570118,64.0825189 L21.8557234,64.5372191 L21.5743305,65.8502821 L21.5743305,67.0566297 L21.8762631,68.1214635 L22.4369949,69.0749421 L23.1805295,70.0516196 L23.6406172,70.9355013 L23.7453693,71.8912997 L23.4003035,73.1602846 L22.8395717,73.9536902 L22.0364722,74.2042393 L21.1512142,74.0232872 L19.5059899,73.0466096 L13.2948061,70.550398 L12.2287993,70.4367229 L11.2449511,70.6849521 L10.3822867,71.2324484 L9.69626307,72.0049748 L9.49702867,72.3668791 L8.89521754,73.9768892 L8.23178752,74.9999647 L7.84769646,75.9952015 L7.97093423,76.7700479 L8.43307589,77.4729773 L9.25466105,78.3568589 L9.41692411,78.8788363 L9.37584486,80.219738 L9.49702867,81.1732166 L9.49702867,81.4678438 L9.39638449,81.6928741 L9.21563575,81.9689421 L9.03488702,82.3076474 L8.97532209,82.6695516 L9.11499157,83.305204 L9.53605396,84.3282796 L9.63669815,85.0080101 L9.53605396,85.8246146 L8.85413828,88.026199 L8.47415514,89.8194811 L8.07157841,90.7033627 L7.52727825,91.111665 L6.82482293,90.9075139 L6.20247218,90.3855365 L5.61709275,89.752204 L5.03582125,89.2743048 L4.81399325,89.4575768 L4.69486341,89.638529 L4.5346543,90.1813854 L4.31282631,91.341335 L4.29228668,91.8169144 L4.07251265,93.2691713 L3.97186847,93.6310756 L7.72651265,93.2227733 L11.5058044,92.814471 L15.2460708,92.3852897 L19.0192007,91.9537884 L22.7594671,91.5222872 L26.5182192,91.088466 L30.2728634,90.6360856 L34.0316155,90.1813854 L34.0316155,89.4575768 L33.951511,88.3649043 L33.8714064,87.8893249 L33.4298044,86.3697909 L32.9080978,84.9848111 L32.8279933,84.6901839 L32.8074536,84.5324307 L32.8485329,84.4860327 L32.9491771,84.4651537 L34.1322597,84.4419547 L36.1020101,84.4187557 L37.3097403,84.3955567 L37.490489,84.4419547 L37.6096189,84.5997078 L37.7903676,85.0080101 L37.9115514,85.1657632 L38.0306813,85.2585592 L38.1518651,85.2121612 L39.0330152,85.0984861 L39.3349477,85.0544081 L40.1606408,84.940733 L41.425882,84.7597809 L43.0936998,84.5324307 L45.0634503,84.2354836 L47.234489,83.9408564 L49.5842226,83.5998312 L51.995575,83.2356071 L54.4274671,82.8969018 L56.756661,82.5558766 L58.9482395,82.2171713 L60.9179899,81.9225441 L62.5673221,81.6928741 L63.8510489,81.4887229 L64.676742,81.3773678 L64.9581349,81.3309698 L65.9009039,81.1732166 L66.6464924,80.8762695 L66.8477808,80.8298715 L67.7884958,80.7393955 L68.4313862,80.6721184 L70.3004924,80.4911662 L73.1760405,80.196539 L76.912199,79.8114358 L81.3323272,79.3590554 L86.2556762,78.8347582 L91.5425767,78.2663829 L96.9855784,77.6539295 L102.434742,77.020597 L107.696995,76.4058237 L112.620344,75.8142494 L117.040472,75.2945919 L120.778685,74.8190126 L123.652179,74.4547884 L125.500745,74.2297582 L126.162121,74.1578413 L127.209642,74.0000882 L127.951123,73.6381839 L128.493369,73.2275617 L129.317008,72.162728 L129.721639,71.8681008 L129.861309,71.8240227 L131.65031,70.7081511 L133.696057,70.1188967 L133.921993,70.0052217 L134.061663,69.8706675 L134.301976,69.5528413 L135.084536,68.8707909 L137.193956,67.6667632 L139.344455,66.8965567 L139.504664,66.7620025 L139.625848,66.6228086 L139.646388,66.4882544 L139.625848,66.3281814 L139.545744,66.0567531 L139.545744,65.9407582 L139.586823,65.829403 L139.806597,65.4651788 L139.907241,65.1705516 L140.18658,64.126597 L140.548078,63.5373426 L140.65283,63.4445466 L140.794553,63.3772695 L141.716782,63.1963174 L142.963538,62.3797128 L144.1877,61.5839874 L144.487578,61.3357582 L144.567683,61.1988841 L144.629302,61.06433 L144.647788,60.901937 L144.688867,60.7441839 L144.688867,60.5864307 L144.668327,60.1317305 L144.608762,59.7930252 L144.567683,59.635272 L144.508118,59.1596927 L144.588223,58.8836247 L144.768971,58.5889975 L145.235221,58.0670202 L146.979035,56.6843602 L147.180324,56.4778892 L147.299454,56.206461 L147.340533,56.0255088 L147.340533,55.6612846 L147.219349,55.0024332 L147.07968,54.5500529 L147.05914,54.3459018 L147.200863,54.0280756 L147.545929,53.5292972 L148.468159,52.5294207 L150.557039,50.8730126 L152.126266,49.6249068 L153.549663,48.4904761 L154.011804,48.0125768 L155.620057,45.9246675 L157.388519,43.6094081 L158.512037,42.113073 L160.101804,40.0460428 L161.128786,38.684262 L160.703616,38.5033098 L160.703616,38.5033098 Z M1.36128162,91.8169144 L0.67525801,92.2252166 L0.574613828,93.3132494 L0.814927487,93.6751537 L1.03675548,93.9280227 L2.44372007,93.7215516 L2.52382462,93.3132494 L2.14384148,92.1347406 L1.36128162,91.8169144 L1.36128162,91.8169144 Z" id="Fill-67" fill="#D6D6D6"></path>
                <path d="M160.703616,38.5033098 L160.463302,38.5265088 L159.840951,38.797937 L159.600637,38.821136 L157.811636,38.5265088 L157.489164,38.4128338 L157.328954,38.2550806 L157.310469,38.0926877 L157.310469,37.9117355 L157.24885,37.7771814 L157.189285,37.6403073 L157.088641,37.5266322 L156.887352,37.3456801 L156.141764,36.7796247 L155.961015,36.7796247 L155.860371,36.8469018 L155.780266,36.9164987 L155.720702,36.8701008 L155.240074,36.3017254 L154.999761,36.0975743 L154.819012,36.0070982 L154.638263,35.9398212 L153.750951,35.73567 L153.549663,35.6428741 L153.430533,35.482801 L153.270324,35.0536196 L152.808182,34.1233401 L152.767103,33.9655869 L152.748617,33.8055139 L152.547329,33.5108866 L152.226911,33.1466625 L150.657683,31.8544786 L150.598118,31.7408035 L150.518013,31.6062494 L150.417369,31.3093023 L150.177056,30.3767028 L150.117491,30.1725516 L149.996307,29.9915995 L149.795019,29.6969723 L149.655349,29.5624181 L149.511572,29.4487431 L148.548263,28.9035668 L148.427079,28.7666927 L148.388054,28.6089395 L148.40654,28.5161436 L148.607828,27.9941662 L148.648907,27.8572922 L148.648907,27.745937 L148.488698,27.3817128 L148.346975,27.2239597 L148.26687,27.1334836 L146.94001,26.180005 L146.759261,25.9990529 L146.617538,25.7485038 L146.436789,25.3378816 L146.29712,25.0896524 L144.347909,22.84167 L144.1877,22.5934408 L144.146621,22.4565668 L144.146621,22.2083375 L144.1877,22.1387406 L144.247265,22.0482645 L144.567683,21.6631612 L144.709406,21.438131 L144.748432,21.3012569 L144.768971,21.185262 L144.768971,21.0275088 L144.668327,20.5264106 L144.668327,20.3686574 L144.688867,20.2317834 L144.729946,20.1413073 L144.828536,20.0740302 L145.08939,19.9835542 L145.173602,19.8930781 L145.214681,19.779403 L145.194142,19.6216499 L145.173602,19.4615768 L145.134577,19.3038237 L145.070904,18.9859975 L145.029825,18.3039471 L145.029825,17.9165239 L144.97026,17.6218967 L144.849076,17.2831914 L144.327369,16.4225088 L144.226725,16.1928388 L144.208239,16.1255617 L144.1877,16.0118866 L144.16716,15.2161612 L144.126081,14.8774559 L144.107595,14.6965038 L143.846742,14.3786776 L143.364061,13.4692771 L143.084722,13.0841738 L141.314206,11.6319169 L140.428948,11.2027355 L139.406074,10.9962645 L138.401686,10.5879622 L137.617073,9.54400756 L136.834513,7.63473048 L136.692789,7.06867506 L136.612685,6.47942065 L136.493555,6.0479194 L136.212162,5.89016625 L135.665808,6.09431738 L134.482725,7.04779597 L133.961019,7.22874811 L133.556388,7.45377834 L133.274995,7.8620806 L133.034681,8.33997985 L132.773828,8.70652393 L132.252121,9.04522922 L132.091912,9.22618136 L132.011808,9.47673048 L131.872138,10.133262 L131.750954,10.4719673 L131.405889,10.7921134 L130.964287,10.9081083 L129.982492,10.8593904 L129.499811,10.9962645 L129.195825,11.2700126 L128.973997,11.5646398 L128.253056,11.882466 L128.072307,11.836068 L127.772428,11.5646398 L127.129538,10.7248363 L126.965221,10.5415642 L126.663288,10.3582922 L126.022452,10.156461 L125.722573,10.133262 L124.960553,10.2678161 L124.755157,10.200539 L124.35258,9.85951385 L123.913032,9.63448363 L123.45089,9.49760957 L122.988749,9.54400756 L121.561245,10.3374131 L121.34147,10.5647632 L121.320931,11.1308186 L121.140182,11.6783149 L120.799224,12.0866171 L120.398702,12.3116474 L119.451825,12.2443703 L118.529595,11.7455919 L116.900803,10.3582922 L116.498226,9.92911083 L116.157268,9.45353149 L115.773177,9.06842821 L114.830408,8.93155416 L113.926664,8.61140806 L113.42139,8.61140806 L111.59747,9.33985642 L111.110681,9.36305542 L108.619224,8.75060202 L108.118057,8.43045592 L107.857204,7.95255668 L107.738074,7.22874811 L107.596351,6.6394937 L107.397116,6.11519647 L107.115723,5.66281612 L106.871302,5.412267 L106.550884,5.16171788 L106.248951,4.86709068 L106.088742,4.45878841 L105.988098,3.93913098 L105.788863,3.41483375 L105.50747,2.93693451 L105.145973,2.61910831 L104.178556,2.23400504 L103.638364,2.09945088 L103.215248,2.07625189 L102.956449,1.87210076 L102.654516,1.37332242 L102.288911,0.851345088 L101.808283,0.647193955 L100.925079,0.985899244 L99.2367218,2.18992695 L98.335032,2.23400504 L97.1067622,1.19237028 L96.7658044,1.03229723 L96.6446206,0.965020151 L96.3242024,0.556717884 L96.122914,0.487120907 L95.8641147,0.577596977 L95.7018516,0.781748111 L95.4184047,1.25964736 L94.3339123,2.25720403 L93.9724148,2.59822922 L93.4322226,3.48443073 L93.5924317,4.43790932 L94.2538078,5.02484383 L94.6153052,5.4331461 L94.796054,5.93424433 L94.6563845,6.50261965 L94.0134941,7.43289924 L93.853285,7.74840554 L94.1531636,8.09175063 L94.514661,8.22630479 L95.4368904,8.13582872 L95.9236796,8.24950378 L95.9442192,8.70652393 L95.7223912,9.27257935 L95.4779696,9.70176071 L95.3978651,10.3142141 L95.8024958,11.2700126 L95.5375346,11.4973627 L93.7937201,11.5414408 L93.0871568,11.7687909 L91.80343,12.6062746 L88.9915548,15.2161612 L88.1453221,15.5595063 L87.7037201,15.3298363 L86.8615953,14.5132317 L86.4754503,14.3554786 L85.1321585,14.4923526 L82.7208061,15.1024861 L82.3593086,15.4203123 L82.4188735,15.9886877 L82.6612411,16.603461 L82.8604755,16.9885642 L83.2630523,18.8050453 L83.8443238,19.9162771 L83.8032445,20.5032116 L83.5629309,20.9811108 L82.5400573,22.0946625 L82.2997437,22.5029647 L82.0347825,23.0690202 L81.7328499,23.3891662 L80.8516998,23.6373955 L80.4306374,23.8438665 L79.8842833,24.7950252 L79.7035346,27.5185869 L79.3625767,28.6298186 L78.680661,29.381466 L78.2801383,29.7201713 L77.5140101,30.1052746 L77.2531568,30.1284736 L77.131973,29.8779244 L77.0128432,29.7874484 L76.7314503,29.7201713 L76.4315717,29.6760932 L76.2097437,29.6969723 L75.96943,30.1052746 L75.6490118,31.4229773 L75.4867487,31.7176045 L75.1437369,31.9913526 L74.9219089,32.5574081 L74.8007251,33.2603375 L74.7616998,33.8983098 L74.9013693,36.8028237 L74.7616998,37.6171083 L74.6610556,37.8908564 L74.5213862,38.1622846 L74.3406374,38.4128338 L74.1208634,38.6169849 L73.093882,38.9812091 L72.6317403,39.2526373 L72.4715312,39.7978136 L72.2907825,40.0460428 L71.7896155,39.7073375 L70.8632782,38.844335 L70.380597,38.774738 L69.2981585,38.844335 L68.8360169,38.6401839 L68.4519258,38.3687557 L67.5687218,37.9813325 L67.1887386,37.7075844 L66.946371,37.301602 L66.8662664,36.8469018 L66.7861619,35.552398 L66.5663879,35.2345718 L65.3586577,34.4179673 L64.9375953,34.2602141 L64.4754536,34.2834131 L64.2741653,34.5107632 L64.5966374,35.0304207 L65.0382395,35.2577708 L65.4983272,35.3482469 L65.6996155,35.552398 L65.3791973,36.0743753 L64.5350185,36.6427506 L64.0297437,36.7564257 L63.7709444,36.7123476 L63.6292209,36.4409194 L63.4895514,36.3249244 L63.2286981,36.2112494 L62.9883845,36.2344484 L62.9082799,36.5313955 L63.0274098,36.8469018 L63.4484722,37.255204 L63.6086813,37.5730302 L63.5901956,38.2295617 L63.2677234,38.6633829 L62.8076358,38.9116121 L62.3454941,39.0044081 L62.1051804,39.3222343 L62.0641012,39.9787657 L62.3454941,41.953 L62.3249545,42.4077003 L62.0846408,42.7464055 L60.9775548,43.1779068 L60.8974503,43.655806 L60.9570152,44.2473804 L60.856371,44.8807128 L60.4353086,45.2658161 L59.9341417,45.3122141 L59.5685363,45.061665 L59.693828,44.5188086 L59.8745767,43.8831562 L59.4494064,43.8135592 L58.5271771,44.1569043 L57.7651568,44.0873073 L57.038054,43.588529 L56.4958078,42.8368816 L56.2349545,42.0666751 L55.8344317,41.5678967 L55.0888432,41.999398 L54.3473626,42.8160025 L53.9242462,43.4052569 L53.6449073,43.6094081 L52.4166374,43.9272343 L52.05514,44.1569043 L51.7942867,44.4283325 L51.5745126,44.7902368 L51.3732243,45.3122141 L50.9727015,47.2864484 L50.7118482,48.0566549 L50.0853895,48.6482292 L49.8450759,48.5136751 L49.6253019,48.353602 L49.2638044,47.9221008 L49.1241349,47.6042746 L49.0234907,47.2655693 L48.9023069,47.0150202 L48.6414536,46.9245441 L48.2368229,46.9477431 L47.9369444,46.9013451 L47.6945767,46.810869 L46.8729916,46.3329698 L45.3653828,45.8805894 L44.9422664,45.6277204 L44.521204,45.3122141 L44.0015514,45.0175869 L43.4757369,44.8134358 L43.0135953,44.7461587 L42.1303912,45.131262 L41.3046981,45.7645945 L40.483113,46.0847406 L39.6594739,45.3794912 L39.5793693,45.084864 L39.540344,44.5860856 L39.3945126,44.3819345 L39.2343035,44.3146574 L39.0330152,44.3819345 L38.9138853,44.5860856 L38.8728061,44.9711889 L39.0330152,45.6277204 L39.4992648,46.4698438 L39.6800135,47.0614181 L39.540344,47.9221008 L39.0535548,48.6714282 L38.433258,49.0356524 L37.9115514,48.7387053 L37.8293929,48.284005 L37.9505767,47.2655693 L37.8704722,46.857267 L37.5705936,46.6531159 L37.2090961,46.7203929 L36.9030556,46.9709421 L36.7223069,47.2191713 L36.5230725,47.2655693 L35.6994334,47.6947506 L35.278371,47.8084257 L34.7936358,47.7620277 L34.3725734,47.5810756 L34.0110759,47.2655693 L33.6495784,46.880466 L33.2079764,46.5394408 L32.7273491,46.4930428 L32.3822833,46.78767 L32.2816391,47.4465214 L32.4233626,47.8316247 L33.228516,49.5576297 L32.3617437,50.9194106 L32.2816391,51.1235617 L31.8811164,51.0539647 L31.0595312,50.5992645 L30.6569545,50.4855894 L30.1722192,50.6224635 L30.1331939,51.0330856 L30.1722192,51.645539 L30.0120101,52.3484685 L29.7306172,52.7799698 L28.6276391,54.0976725 L28.4263508,54.5268539 L28.2065767,55.2297834 L28.1223642,55.9791108 L28.3277605,56.5242872 L28.7673086,57.3200126 L28.8884924,57.4777657 L29.6114874,58.1574962 L30.1927589,59.4079219 L30.1126543,60.2686045 L29.4697639,60.8578589 L25.591882,62.1523627 L24.4067454,63.1058413 L24.0473019,63.2635945 L23.0798853,63.3540705 L22.6382833,63.4955844 L22.2973255,63.7414937 L22.0570118,64.0825189 L21.8557234,64.5372191 L21.5743305,65.8502821 L21.5743305,67.0566297 L21.8762631,68.1214635 L22.4369949,69.0749421 L23.1805295,70.0516196 L23.6406172,70.9355013 L23.7453693,71.8912997 L23.4003035,73.1602846 L22.8395717,73.9536902 L22.0364722,74.2042393 L21.1512142,74.0232872 L19.5059899,73.0466096 L13.2948061,70.550398 L12.2287993,70.4367229 L11.2449511,70.6849521 L10.3822867,71.2324484 L9.69626307,72.0049748 L9.49702867,72.3668791 L8.89521754,73.9768892 L8.23178752,74.9999647 L7.84769646,75.9952015 L7.97093423,76.7700479 L8.43307589,77.4729773 L9.25466105,78.3568589 L9.41692411,78.8788363 L9.37584486,80.219738 L9.49702867,81.1732166 L9.49702867,81.4678438 L9.39638449,81.6928741 L9.21563575,81.9689421 L9.03488702,82.3076474 L8.97532209,82.6695516 L9.11499157,83.305204 L9.53605396,84.3282796 L9.63669815,85.0080101 L9.53605396,85.8246146 L8.85413828,88.026199 L8.47415514,89.8194811 L8.07157841,90.7033627 L7.52727825,91.111665 L6.82482293,90.9075139 L6.20247218,90.3855365 L5.61709275,89.752204 L5.03582125,89.2743048 L4.81399325,89.4575768 L4.69486341,89.638529 L4.5346543,90.1813854 L4.31282631,91.341335 L4.29228668,91.8169144 L4.07251265,93.2691713 L3.97186847,93.6310756 L7.72651265,93.2227733 L11.5058044,92.814471 L15.2460708,92.3852897 L19.0192007,91.9537884 L22.7594671,91.5222872 L26.5182192,91.088466 L30.2728634,90.6360856 L34.0316155,90.1813854 L34.0316155,89.4575768 L33.951511,88.3649043 L33.8714064,87.8893249 L33.4298044,86.3697909 L32.9080978,84.9848111 L32.8279933,84.6901839 L32.8074536,84.5324307 L32.8485329,84.4860327 L32.9491771,84.4651537 L34.1322597,84.4419547 L36.1020101,84.4187557 L37.3097403,84.3955567 L37.490489,84.4419547 L37.6096189,84.5997078 L37.7903676,85.0080101 L37.9115514,85.1657632 L38.0306813,85.2585592 L38.1518651,85.2121612 L39.0330152,85.0984861 L39.3349477,85.0544081 L40.1606408,84.940733 L41.425882,84.7597809 L43.0936998,84.5324307 L45.0634503,84.2354836 L47.234489,83.9408564 L49.5842226,83.5998312 L51.995575,83.2356071 L54.4274671,82.8969018 L56.756661,82.5558766 L58.9482395,82.2171713 L60.9179899,81.9225441 L62.5673221,81.6928741 L63.8510489,81.4887229 L64.676742,81.3773678 L64.9581349,81.3309698 L65.9009039,81.1732166 L66.6464924,80.8762695 L66.8477808,80.8298715 L67.7884958,80.7393955 L68.4313862,80.6721184 L70.3004924,80.4911662 L73.1760405,80.196539 L76.912199,79.8114358 L81.3323272,79.3590554 L86.2556762,78.8347582 L91.5425767,78.2663829 L96.9855784,77.6539295 L102.434742,77.020597 L107.696995,76.4058237 L112.620344,75.8142494 L117.040472,75.2945919 L120.778685,74.8190126 L123.652179,74.4547884 L125.500745,74.2297582 L126.162121,74.1578413 L127.209642,74.0000882 L127.951123,73.6381839 L128.493369,73.2275617 L129.317008,72.162728 L129.721639,71.8681008 L129.861309,71.8240227 L131.65031,70.7081511 L133.696057,70.1188967 L133.921993,70.0052217 L134.061663,69.8706675 L134.301976,69.5528413 L135.084536,68.8707909 L137.193956,67.6667632 L139.344455,66.8965567 L139.504664,66.7620025 L139.625848,66.6228086 L139.646388,66.4882544 L139.625848,66.3281814 L139.545744,66.0567531 L139.545744,65.9407582 L139.586823,65.829403 L139.806597,65.4651788 L139.907241,65.1705516 L140.18658,64.126597 L140.548078,63.5373426 L140.65283,63.4445466 L140.794553,63.3772695 L141.716782,63.1963174 L142.963538,62.3797128 L144.1877,61.5839874 L144.487578,61.3357582 L144.567683,61.1988841 L144.629302,61.06433 L144.647788,60.901937 L144.688867,60.7441839 L144.688867,60.5864307 L144.668327,60.1317305 L144.608762,59.7930252 L144.567683,59.635272 L144.508118,59.1596927 L144.588223,58.8836247 L144.768971,58.5889975 L145.235221,58.0670202 L146.979035,56.6843602 L147.180324,56.4778892 L147.299454,56.206461 L147.340533,56.0255088 L147.340533,55.6612846 L147.219349,55.0024332 L147.07968,54.5500529 L147.05914,54.3459018 L147.200863,54.0280756 L147.545929,53.5292972 L148.468159,52.5294207 L150.557039,50.8730126 L152.126266,49.6249068 L153.549663,48.4904761 L154.011804,48.0125768 L155.620057,45.9246675 L157.388519,43.6094081 L158.512037,42.113073 L160.101804,40.0460428 L161.128786,38.684262 L160.703616,38.5033098 L160.703616,38.5033098 Z M1.36128162,91.8169144 L0.67525801,92.2252166 L0.574613828,93.3132494 L0.814927487,93.6751537 L1.03675548,93.9280227 L2.44372007,93.7215516 L2.52382462,93.3132494 L2.14384148,92.1347406 L1.36128162,91.8169144 L1.36128162,91.8169144 Z" id="Stroke-68" stroke="#F9F9F9" stroke-width="0.25" stroke-linecap="round" stroke-linejoin="round"></path>
            </g>
        </g>
    </g>
</svg>