<?xml version="1.0" encoding="UTF-8"?>
<svg width="87px" height="154px" viewBox="0 0 87 154" version="1.1" xmlns="http://www.w3.org/2000/svg" xmlns:xlink="http://www.w3.org/1999/xlink">
    <!-- Generator: Sketch 51 (57462) - http://www.bohemiancoding.com/sketch -->
    <title>Alabama</title>
    <desc>Created with Sketch.</desc>
    <defs></defs>
    <g id="Page-1" stroke="none" stroke-width="1" fill="none" fill-rule="evenodd">
        <g id="A5" transform="translate(-859.000000, -486.000000)">
            <g id="Alabama" transform="translate(860.000000, 486.000000)">
                <path d="M15.6276358,151.264773 L15.446887,151.422526 L15.2866779,151.647557 L15.0853895,151.830829 L14.7444317,151.918985 L13.4607049,152.081378 L11.351285,152.737909 L11.0472985,153.009338 L16.1534503,152.148655 L16.2931197,152.104577 L16.5950523,151.918985 L16.5745126,151.717154 L15.6276358,151.264773 L15.6276358,151.264773 Z M85.1337403,118.491557 L84.872887,118.196929 L84.4107454,116.835149 L83.7082901,115.631121 L82.9627015,114.768118 L82.4615346,114.563967 L82.161656,114.225262 L82.0794975,113.747363 L82.0610118,112.631491 L81.9809073,112.362383 L81.6995143,111.796327 L81.6399494,111.566657 L81.660489,111.248831 L81.9008027,110.729174 L81.9809073,110.434547 L81.8391838,108.096088 L81.8597234,106.961657 L82.2602462,106.165932 L81.9192884,105.326128 L81.9809073,104.690476 L82.161656,104.078023 L82.2212209,103.328695 L82.1205767,102.922713 L81.8391838,102.352018 L81.7796189,102.126987 L81.660489,101.305743 L81.5598449,100.92296 L81.2989916,100.403302 L80.3726543,99.2897506 L80.109747,98.8118514 L79.0868735,95.5454332 L78.8670995,94.951539 L78.9266644,94.2741285 L78.9266644,94.0931763 L78.947204,93.9331033 L79.006769,93.524801 L79.0683879,92.4808463 L79.3682664,91.2536196 L79.8694334,89.9614358 L79.9495379,89.7990428 L80.0912614,89.3257834 L80.109747,89.2121083 L80.0912614,88.4395819 L79.8304081,87.7830504 L79.8304081,87.0801209 L79.9906172,86.5349446 L80.0111568,86.1243224 L79.9105126,85.3773149 L79.9105126,85.1035668 L80.1508263,84.061932 L80.2720101,83.7649849 L80.4116796,83.6281108 L80.7136121,83.5121159 L81.0771636,83.3334836 L81.438661,83.0852544 L81.6789747,82.8138262 L81.2784519,82.5841562 L81.3174772,82.3336071 L81.660489,82.1758539 L82.0794975,82.312728 L82.2602462,82.1317758 L82.4204553,81.8812267 L82.4409949,81.5657204 L82.2602462,81.2223753 L82.4615346,81.1782972 L82.6422833,81.0646222 L82.7819528,80.860471 L82.823032,80.6099219 L82.7429275,80.4057708 L82.6422833,80.3616927 L82.5416391,80.3384937 L82.3608904,80.0206675 L82.1205767,79.8605945 L80.9580337,79.317738 L80.4527589,78.8839169 L80.2904958,78.3410605 L80.7136121,77.66133 L80.5513491,77.3411839 L80.612968,77.0256776 L80.7320978,76.6614534 L80.7136121,76.2740302 L80.6335076,75.865728 L80.39114,75.4597456 L80.109747,75.0491234 L79.8694334,74.6153023 L79.6496594,73.6641436 L79.5099899,73.2790403 L79.1875177,72.8266599 L77.3594907,70.7828287 L77.4395953,70.3513275 L77.2383069,70.1494962 L76.9384283,69.9871033 L76.7782192,69.7156751 L76.7576796,69.1728186 L76.6960607,68.7853955 L76.3961821,68.1961411 L76.1312209,67.1730655 L75.9114469,66.8343602 L75.6690793,66.562932 L75.5499494,66.2891839 L75.6896189,65.9713577 L75.5499494,65.7880856 L75.0282428,65.2916272 L74.8680337,65.1338741 L74.7283642,64.927403 L74.6277201,64.7000529 L74.5661012,64.4495038 L74.5270759,63.5656222 L73.5391197,61.4777128 L73.5596594,61.2039647 L73.2392411,60.0486549 L73.1981619,59.8653829 L73.0584924,59.3666045 L72.8366644,58.5708791 L72.5367858,57.4851662 L72.1568027,56.1210655 L71.7110927,54.5319345 L71.2099258,52.7409723 L70.64714,50.7203401 L70.0247892,48.5396348 L69.3798449,46.2034962 L68.6979292,43.7536826 L67.9954739,41.1646751 L67.2498853,38.5083904 L66.5063508,35.7848287 L65.7443305,33.0171889 L64.9597167,30.2263501 L64.1956425,27.4331914 L63.4336223,24.6632317 L62.6880337,21.9187909 L61.9465531,19.2625063 L61.2440978,16.6990176 L60.5786138,14.2236851 L59.9357234,11.9107456 L59.3339123,9.70916121 L58.7937201,7.70940806 L58.2863912,5.89292695 L57.8673828,4.30843577 L57.4853457,2.96753401 L57.2039528,1.87950126 L56.9636391,1.06057683 L56.8424553,0.559478589 L56.80343,0.401725441 L53.3055312,0.854105793 L49.830226,1.31112594 L46.3528668,1.7658262 L42.8796155,2.21820655 L39.4002024,2.6729068 L35.9064115,3.10208816 L32.4290523,3.53358942 L28.9496391,3.96509068 L25.4763879,4.37571285 L21.978489,4.78401511 L18.5031838,5.19231738 L15.0258246,5.59829975 L11.5320337,6.00660202 L8.05467454,6.39402519 L4.55882968,6.78144836 L1.08147049,7.16655164 L0.319450253,7.23382872 L0.0585969646,7.25702771 L0.379015177,8.02723426 L0.900721754,9.20806297 L1.50253288,10.0269874 L2.26866105,10.5025668 L2.66918381,10.5025668 L2.66918381,26.3451587 L2.65069815,29.6788539 L2.65069815,33.2422191 L2.63015852,37.0097355 L2.63015852,40.9373249 L2.60961889,45.0017884 L2.60961889,49.1776071 L2.55005396,61.9300932 L2.55005396,66.1755088 L2.5089747,70.3513275 L2.5089747,74.4157909 L2.44940978,85.6951411 L2.42887015,89.0311562 L2.41038449,92.0957431 L2.38984486,94.861063 L2.36930523,97.2923174 L2.3487656,99.3570277 L2.3487656,101.013436 L2.32822597,102.261542 L2.32822597,103.284617 L3.47228331,111.796327 L3.87280607,114.631244 L4.25484317,117.468481 L4.63893423,120.303398 L5.78299157,128.817428 L6.18351433,131.650025 L6.56555143,134.491902 L6.9496425,137.329139 L7.3316796,140.164055 L7.73220236,143.001292 L8.4942226,148.675766 L9.06111636,148.427537 L9.54174368,148.063312 L10.0038853,148.016914 L10.4845126,148.654887 L10.6262361,148.654887 L10.6652614,148.471615 L10.7042867,148.35794 L10.7453659,148.244264 L10.7453659,148.016914 L11.3923642,148.290662 L12.8547858,148.494814 L13.5613491,148.698965 L13.4216796,149.355496 L13.4812445,149.652443 L13.7215582,149.71972 L14.1241349,149.71972 L14.1241349,149.698841 L14.6047622,149.652443 L14.6643272,149.766118 L14.725946,149.947071 L14.8450759,150.014348 L15.0853895,149.789317 L15.1860337,149.399574 L15.2065734,147.156232 L15.0463642,145.884927 L15.0463642,145.339751 L15.1654941,144.293476 L15.1654941,143.797018 L15.1860337,143.525589 L15.3667825,143.135846 L15.4078617,142.910816 L15.3257032,142.344761 L15.3257032,142.071013 L15.3873221,141.841343 L15.6070961,141.481758 L15.7529275,141.140733 L15.8124924,140.732431 L15.7714132,140.119977 L15.8515177,139.598 L16.0322664,139.254655 L16.1329106,138.939149 L15.9521619,138.530846 L16.2335548,138.236219 L16.3732243,137.848796 L16.334199,137.419615 L16.1329106,137.011312 L16.4533288,137.05539 L16.6135379,137.282741 L16.6936425,137.667844 L16.7141821,138.120224 L16.8148263,138.463569 L16.995575,138.530846 L17.2564283,138.507647 L17.5378212,138.530846 L18.0821214,138.781395 L18.384054,139.120101 L19.3062833,141.344884 L19.487032,141.959657 L19.4459528,142.412038 L19.267258,142.797141 L19.0659696,143.365516 L18.9447858,143.97797 L18.9447858,144.499947 L19.0248904,144.66002 L19.2261788,144.88505 L19.4069275,145.202877 L19.5281113,145.562461 L19.5876762,145.931325 L19.6677808,146.246831 L19.8279899,146.520579 L20.0292782,146.768809 L20.2326206,146.924242 L20.4544486,147.065756 L20.6947622,147.156232 L20.9556155,147.179431 L21.315059,147.156232 L21.3355987,147.088955 L21.2760337,146.947441 L21.5574266,146.49738 L21.6169916,146.337307 L21.7176358,146.316428 L21.9374098,146.541458 L21.9990287,146.74561 L21.8573052,147.450859 L21.8388196,147.789564 L22.038054,148.12827 L23.2663238,149.174544 L23.6463069,150.151222 L23.0444958,150.738156 L21.9990287,151.218375 L21.1753895,151.647557 L20.2326206,151.557081 L19.7068061,151.1047 L19.5281113,151.218375 L19.4274671,151.445725 L19.2261788,151.603479 L18.3635143,151.963063 L17.8582395,152.285529 L17.6179258,152.624234 L18.3635143,152.533758 L20.374344,151.895786 L23.2457841,151.536202 L26.2589477,150.670879 L27.6864519,149.789317 L28.1670793,148.562091 L27.9883845,148.722164 L27.7460169,148.835839 L27.5057032,148.903116 L27.2448499,148.903116 L27.3454941,148.381139 L27.2263642,148.063312 L27.0250759,147.768685 L26.9449713,147.269907 L27.0846408,147.246708 L27.2058246,147.42766 L27.6474266,147.789564 L27.8076358,148.040113 L27.846661,148.218746 L27.9473052,148.33706 L28.3293423,148.35794 L28.8510489,148.151469 L29.0913626,147.745486 L29.2556796,147.337184 L29.5760978,147.133033 L30.1388836,146.880164 L30.3791973,146.474181 L30.4983272,145.952204 L30.6996155,145.430227 L31.5848735,144.203 L31.5848735,143.931572 L31.7656223,143.887494 L31.4862833,143.773819 L31.2603474,143.616065 L31.061113,143.411914 L30.8803642,143.182244 L30.8598246,142.978093 L31.0200337,143.066249 L30.9994941,143.04305 L30.4387622,141.639511 L30.3175784,141.163932 L30.338118,141.027058 L30.397683,140.75563 L30.7201551,139.892627 L30.8207993,139.076023 L30.8598246,138.006549 L30.839285,137.554169 L30.7797201,137.238662 L30.6790759,137.148186 L30.4777875,136.988113 L28.4895514,135.92096 L28.1485936,135.67273 L27.7665565,135.194831 L27.185285,134.259912 L27.0250759,134.037202 L25.7968061,132.944529 L25.4969275,132.608144 L25.2155346,132.22072 L25.0943508,131.972491 L25.0347858,131.742821 L25.0347858,131.561869 L25.0553255,131.357718 L25.1148904,131.042212 L25.4763879,129.814985 L25.4969275,129.657232 L25.3161788,128.251373 L25.4168229,127.794353 L26.4602361,127.659798 L30.118344,127.205098 L33.7969916,126.70632 L37.4509916,126.228421 L41.1090995,125.752841 L44.7651535,125.251743 L48.443801,124.755285 L52.1019089,124.230987 L55.7559089,123.732209 L59.4140169,123.212552 L63.0741788,122.688254 L66.7281788,122.168597 L70.3862867,121.621101 L74.0423406,121.078244 L77.6799089,120.533068 L81.3380169,119.964693 L84.9940708,119.421836 L85.0536358,119.284962 L85.1727656,119.055292 L85.2138449,118.807063 L85.1337403,118.491557 L85.1337403,118.491557 Z" id="Fill-98" fill="#D6D6D6"></path>
                <path d="M15.6276358,151.264773 L15.446887,151.422526 L15.2866779,151.647557 L15.0853895,151.830829 L14.7444317,151.918985 L13.4607049,152.081378 L11.351285,152.737909 L11.0472985,153.009338 L16.1534503,152.148655 L16.2931197,152.104577 L16.5950523,151.918985 L16.5745126,151.717154 L15.6276358,151.264773 L15.6276358,151.264773 Z M85.1337403,118.491557 L84.872887,118.196929 L84.4107454,116.835149 L83.7082901,115.631121 L82.9627015,114.768118 L82.4615346,114.563967 L82.161656,114.225262 L82.0794975,113.747363 L82.0610118,112.631491 L81.9809073,112.362383 L81.6995143,111.796327 L81.6399494,111.566657 L81.660489,111.248831 L81.9008027,110.729174 L81.9809073,110.434547 L81.8391838,108.096088 L81.8597234,106.961657 L82.2602462,106.165932 L81.9192884,105.326128 L81.9809073,104.690476 L82.161656,104.078023 L82.2212209,103.328695 L82.1205767,102.922713 L81.8391838,102.352018 L81.7796189,102.126987 L81.660489,101.305743 L81.5598449,100.92296 L81.2989916,100.403302 L80.3726543,99.2897506 L80.109747,98.8118514 L79.0868735,95.5454332 L78.8670995,94.951539 L78.9266644,94.2741285 L78.9266644,94.0931763 L78.947204,93.9331033 L79.006769,93.524801 L79.0683879,92.4808463 L79.3682664,91.2536196 L79.8694334,89.9614358 L79.9495379,89.7990428 L80.0912614,89.3257834 L80.109747,89.2121083 L80.0912614,88.4395819 L79.8304081,87.7830504 L79.8304081,87.0801209 L79.9906172,86.5349446 L80.0111568,86.1243224 L79.9105126,85.3773149 L79.9105126,85.1035668 L80.1508263,84.061932 L80.2720101,83.7649849 L80.4116796,83.6281108 L80.7136121,83.5121159 L81.0771636,83.3334836 L81.438661,83.0852544 L81.6789747,82.8138262 L81.2784519,82.5841562 L81.3174772,82.3336071 L81.660489,82.1758539 L82.0794975,82.312728 L82.2602462,82.1317758 L82.4204553,81.8812267 L82.4409949,81.5657204 L82.2602462,81.2223753 L82.4615346,81.1782972 L82.6422833,81.0646222 L82.7819528,80.860471 L82.823032,80.6099219 L82.7429275,80.4057708 L82.6422833,80.3616927 L82.5416391,80.3384937 L82.3608904,80.0206675 L82.1205767,79.8605945 L80.9580337,79.317738 L80.4527589,78.8839169 L80.2904958,78.3410605 L80.7136121,77.66133 L80.5513491,77.3411839 L80.612968,77.0256776 L80.7320978,76.6614534 L80.7136121,76.2740302 L80.6335076,75.865728 L80.39114,75.4597456 L80.109747,75.0491234 L79.8694334,74.6153023 L79.6496594,73.6641436 L79.5099899,73.2790403 L79.1875177,72.8266599 L77.3594907,70.7828287 L77.4395953,70.3513275 L77.2383069,70.1494962 L76.9384283,69.9871033 L76.7782192,69.7156751 L76.7576796,69.1728186 L76.6960607,68.7853955 L76.3961821,68.1961411 L76.1312209,67.1730655 L75.9114469,66.8343602 L75.6690793,66.562932 L75.5499494,66.2891839 L75.6896189,65.9713577 L75.5499494,65.7880856 L75.0282428,65.2916272 L74.8680337,65.1338741 L74.7283642,64.927403 L74.6277201,64.7000529 L74.5661012,64.4495038 L74.5270759,63.5656222 L73.5391197,61.4777128 L73.5596594,61.2039647 L73.2392411,60.0486549 L73.1981619,59.8653829 L73.0584924,59.3666045 L72.8366644,58.5708791 L72.5367858,57.4851662 L72.1568027,56.1210655 L71.7110927,54.5319345 L71.2099258,52.7409723 L70.64714,50.7203401 L70.0247892,48.5396348 L69.3798449,46.2034962 L68.6979292,43.7536826 L67.9954739,41.1646751 L67.2498853,38.5083904 L66.5063508,35.7848287 L65.7443305,33.0171889 L64.9597167,30.2263501 L64.1956425,27.4331914 L63.4336223,24.6632317 L62.6880337,21.9187909 L61.9465531,19.2625063 L61.2440978,16.6990176 L60.5786138,14.2236851 L59.9357234,11.9107456 L59.3339123,9.70916121 L58.7937201,7.70940806 L58.2863912,5.89292695 L57.8673828,4.30843577 L57.4853457,2.96753401 L57.2039528,1.87950126 L56.9636391,1.06057683 L56.8424553,0.559478589 L56.80343,0.401725441 L53.3055312,0.854105793 L49.830226,1.31112594 L46.3528668,1.7658262 L42.8796155,2.21820655 L39.4002024,2.6729068 L35.9064115,3.10208816 L32.4290523,3.53358942 L28.9496391,3.96509068 L25.4763879,4.37571285 L21.978489,4.78401511 L18.5031838,5.19231738 L15.0258246,5.59829975 L11.5320337,6.00660202 L8.05467454,6.39402519 L4.55882968,6.78144836 L1.08147049,7.16655164 L0.319450253,7.23382872 L0.0585969646,7.25702771 L0.379015177,8.02723426 L0.900721754,9.20806297 L1.50253288,10.0269874 L2.26866105,10.5025668 L2.66918381,10.5025668 L2.66918381,26.3451587 L2.65069815,29.6788539 L2.65069815,33.2422191 L2.63015852,37.0097355 L2.63015852,40.9373249 L2.60961889,45.0017884 L2.60961889,49.1776071 L2.55005396,61.9300932 L2.55005396,66.1755088 L2.5089747,70.3513275 L2.5089747,74.4157909 L2.44940978,85.6951411 L2.42887015,89.0311562 L2.41038449,92.0957431 L2.38984486,94.861063 L2.36930523,97.2923174 L2.3487656,99.3570277 L2.3487656,101.013436 L2.32822597,102.261542 L2.32822597,103.284617 L3.47228331,111.796327 L3.87280607,114.631244 L4.25484317,117.468481 L4.63893423,120.303398 L5.78299157,128.817428 L6.18351433,131.650025 L6.56555143,134.491902 L6.9496425,137.329139 L7.3316796,140.164055 L7.73220236,143.001292 L8.4942226,148.675766 L9.06111636,148.427537 L9.54174368,148.063312 L10.0038853,148.016914 L10.4845126,148.654887 L10.6262361,148.654887 L10.6652614,148.471615 L10.7042867,148.35794 L10.7453659,148.244264 L10.7453659,148.016914 L11.3923642,148.290662 L12.8547858,148.494814 L13.5613491,148.698965 L13.4216796,149.355496 L13.4812445,149.652443 L13.7215582,149.71972 L14.1241349,149.71972 L14.1241349,149.698841 L14.6047622,149.652443 L14.6643272,149.766118 L14.725946,149.947071 L14.8450759,150.014348 L15.0853895,149.789317 L15.1860337,149.399574 L15.2065734,147.156232 L15.0463642,145.884927 L15.0463642,145.339751 L15.1654941,144.293476 L15.1654941,143.797018 L15.1860337,143.525589 L15.3667825,143.135846 L15.4078617,142.910816 L15.3257032,142.344761 L15.3257032,142.071013 L15.3873221,141.841343 L15.6070961,141.481758 L15.7529275,141.140733 L15.8124924,140.732431 L15.7714132,140.119977 L15.8515177,139.598 L16.0322664,139.254655 L16.1329106,138.939149 L15.9521619,138.530846 L16.2335548,138.236219 L16.3732243,137.848796 L16.334199,137.419615 L16.1329106,137.011312 L16.4533288,137.05539 L16.6135379,137.282741 L16.6936425,137.667844 L16.7141821,138.120224 L16.8148263,138.463569 L16.995575,138.530846 L17.2564283,138.507647 L17.5378212,138.530846 L18.0821214,138.781395 L18.384054,139.120101 L19.3062833,141.344884 L19.487032,141.959657 L19.4459528,142.412038 L19.267258,142.797141 L19.0659696,143.365516 L18.9447858,143.97797 L18.9447858,144.499947 L19.0248904,144.66002 L19.2261788,144.88505 L19.4069275,145.202877 L19.5281113,145.562461 L19.5876762,145.931325 L19.6677808,146.246831 L19.8279899,146.520579 L20.0292782,146.768809 L20.2326206,146.924242 L20.4544486,147.065756 L20.6947622,147.156232 L20.9556155,147.179431 L21.315059,147.156232 L21.3355987,147.088955 L21.2760337,146.947441 L21.5574266,146.49738 L21.6169916,146.337307 L21.7176358,146.316428 L21.9374098,146.541458 L21.9990287,146.74561 L21.8573052,147.450859 L21.8388196,147.789564 L22.038054,148.12827 L23.2663238,149.174544 L23.6463069,150.151222 L23.0444958,150.738156 L21.9990287,151.218375 L21.1753895,151.647557 L20.2326206,151.557081 L19.7068061,151.1047 L19.5281113,151.218375 L19.4274671,151.445725 L19.2261788,151.603479 L18.3635143,151.963063 L17.8582395,152.285529 L17.6179258,152.624234 L18.3635143,152.533758 L20.374344,151.895786 L23.2457841,151.536202 L26.2589477,150.670879 L27.6864519,149.789317 L28.1670793,148.562091 L27.9883845,148.722164 L27.7460169,148.835839 L27.5057032,148.903116 L27.2448499,148.903116 L27.3454941,148.381139 L27.2263642,148.063312 L27.0250759,147.768685 L26.9449713,147.269907 L27.0846408,147.246708 L27.2058246,147.42766 L27.6474266,147.789564 L27.8076358,148.040113 L27.846661,148.218746 L27.9473052,148.33706 L28.3293423,148.35794 L28.8510489,148.151469 L29.0913626,147.745486 L29.2556796,147.337184 L29.5760978,147.133033 L30.1388836,146.880164 L30.3791973,146.474181 L30.4983272,145.952204 L30.6996155,145.430227 L31.5848735,144.203 L31.5848735,143.931572 L31.7656223,143.887494 L31.4862833,143.773819 L31.2603474,143.616065 L31.061113,143.411914 L30.8803642,143.182244 L30.8598246,142.978093 L31.0200337,143.066249 L30.9994941,143.04305 L30.4387622,141.639511 L30.3175784,141.163932 L30.338118,141.027058 L30.397683,140.75563 L30.7201551,139.892627 L30.8207993,139.076023 L30.8598246,138.006549 L30.839285,137.554169 L30.7797201,137.238662 L30.6790759,137.148186 L30.4777875,136.988113 L28.4895514,135.92096 L28.1485936,135.67273 L27.7665565,135.194831 L27.185285,134.259912 L27.0250759,134.037202 L25.7968061,132.944529 L25.4969275,132.608144 L25.2155346,132.22072 L25.0943508,131.972491 L25.0347858,131.742821 L25.0347858,131.561869 L25.0553255,131.357718 L25.1148904,131.042212 L25.4763879,129.814985 L25.4969275,129.657232 L25.3161788,128.251373 L25.4168229,127.794353 L26.4602361,127.659798 L30.118344,127.205098 L33.7969916,126.70632 L37.4509916,126.228421 L41.1090995,125.752841 L44.7651535,125.251743 L48.443801,124.755285 L52.1019089,124.230987 L55.7559089,123.732209 L59.4140169,123.212552 L63.0741788,122.688254 L66.7281788,122.168597 L70.3862867,121.621101 L74.0423406,121.078244 L77.6799089,120.533068 L81.3380169,119.964693 L84.9940708,119.421836 L85.0536358,119.284962 L85.1727656,119.055292 L85.2138449,118.807063 L85.1337403,118.491557 L85.1337403,118.491557 Z" id="Stroke-99" stroke="#F9F9F9" stroke-width="0.25" stroke-linecap="round" stroke-linejoin="round"></path>
            </g>
        </g>
    </g>
</svg>