<?xml version="1.0" encoding="UTF-8"?>
<svg width="100px" height="54px" viewBox="0 0 100 54" version="1.1" xmlns="http://www.w3.org/2000/svg" xmlns:xlink="http://www.w3.org/1999/xlink">
    <!-- Generator: Sketch 51 (57462) - http://www.bohemiancoding.com/sketch -->
    <title>Maryland</title>
    <desc>Created with Sketch.</desc>
    <defs></defs>
    <g id="Page-1" stroke="none" stroke-width="1" fill="none" fill-rule="evenodd">
        <g id="A5" transform="translate(-1028.000000, -303.000000)">
            <g id="Maryland" transform="translate(1028.000000, 303.000000)">
                <path d="M81.6274132,51.5154534 L81.3829916,51.3136222 L81.1221383,51.2231461 L80.9413895,51.3577003 L80.9208499,51.7892015 L81.1015987,52.0838287 L81.7075177,52.2647809 L81.9889106,52.4898111 L81.7280573,52.6498841 L81.081059,52.7635592 L81.0009545,52.9468312 L81.1817032,53.1718615 L81.8081619,53.3319345 L82.0279359,53.5569647 L82.1285801,52.9909093 L82.2086847,52.3088589 L82.0875008,51.7428035 L81.6274132,51.5154534 L81.6274132,51.5154534 Z M80.6209713,46.9313325 L80.3991433,46.7039824 L80.0191602,46.4789521 L79.5775582,46.7271814 L79.312597,47.2259597 L79.5364789,47.7688161 L79.7583069,47.8152141 L80.5798921,47.701539 L80.7606408,47.4301108 L80.7606408,47.1795617 L80.6209713,46.9313325 L80.6209713,46.9313325 Z M98.9443744,39.5099748 L98.5643912,41.8693123 L98.2624587,43.1638161 L98.1823541,43.9827406 L98.2624587,44.8643023 L98.2234334,45.1821285 L97.7818314,46.3652771 L97.5415177,47.4533098 L97.6811872,47.3837128 L97.8824755,47.2932368 L97.9420405,46.9986096 L98.463747,45.8873778 L98.8252445,43.2542922 L98.8047049,41.46333 L99.2257673,39.644529 L99.2668465,38.7165693 L99.1456627,38.7629673 L98.9443744,39.5099748 L98.9443744,39.5099748 Z M99.5276998,34.8353778 L99.3674907,33.9955743 L99.0860978,34.0628514 L99.0860978,34.0860504 L99.2257673,34.993131 L99.2257673,36.7400151 L99.3469511,37.6470957 L99.5913727,37.0346423 L99.630398,35.9930076 L99.5276998,34.8353778 L99.5276998,34.8353778 Z M98.3446172,40.8926348 L98.5849309,39.4194987 L98.7636256,38.9879975 L98.9443744,38.3755441 L99.0244789,37.7607708 L98.9854536,37.2851914 L98.74514,37.0137632 L98.5048263,37.0578413 L98.2234334,37.1947154 L97.9215008,37.1483174 L98.0837639,36.9673652 L98.1638685,36.8536902 L98.1227892,36.672738 L97.9625801,36.719136 L97.9215008,36.4917859 L98.0426847,36.0394055 L97.6811872,35.8561335 L96.7343103,35.7656574 L97.0567825,35.4246322 L97.4203339,35.4246322 L97.802371,35.5615063 L98.1823541,35.5823854 L98.523312,35.4246322 L98.5048263,35.2181612 L97.9831197,34.5848287 L98.3035379,34.6289068 L98.523312,34.5848287 L98.5849309,34.3806776 L98.5438516,34.2206045 L98.0426847,34.3342796 L96.915059,34.6289068 L95.2903744,35.0604081 L93.6821214,35.4733501 L92.0327892,35.8770126 L90.4245363,36.2876348 L88.7998516,36.695937 L87.171059,37.1042393 L85.5422664,37.5102217 L85.180769,36.1530806 L84.8398111,34.7425819 L84.3181046,32.6082746 L83.7922901,30.4530882 L83.2726374,28.3187809 L82.7509309,26.1659144 L82.2477099,24.0316071 L81.7280573,21.8741008 L80.6805363,17.5846071 L80.1588297,15.4526196 L79.6576627,13.2974332 L79.1318482,11.1631259 L78.6101417,9.02881864 L78.0884351,6.87131234 L77.5667285,4.73932494 L77.040914,2.58413854 L76.539747,0.449831234 L74.1694739,1.04140554 L71.778661,1.63065995 L69.4083879,2.21759446 L64.6657875,3.40074307 L62.2749747,3.96911839 L59.9047015,4.5560529 L57.5138887,5.12674811 L55.1415616,5.69512343 L52.7712884,6.28437783 L50.3804755,6.82723426 L48.0102024,7.39328967 L45.6193895,7.96166499 L43.2429545,8.5300403 L40.8521417,9.07521662 L38.4613288,9.64127204 L36.0910556,10.1864484 L33.7002428,10.7316247 L31.30943,11.276801 L28.9391568,11.8196574 L26.5462901,12.3416348 L24.1554772,12.8868111 L21.785204,13.4343073 L19.3943912,13.9539647 L17.0035784,14.4759421 L14.6127656,14.9955995 L12.2219528,15.5198967 L9.83113997,16.044194 L7.44032715,16.5638514 L5.04540641,17.0626297 L2.67307926,17.5846071 L0.282266442,18.0833854 L2.57448904,33.357602 L2.63405396,33.450398 L2.73469815,33.4295189 L2.91955481,33.2671259 L3.13932884,33.0188967 L5.0844317,30.202539 L5.24874874,30.112063 L6.07238786,29.7501587 L6.23259696,29.6364836 L6.29216189,29.4996096 L6.43183137,28.8198791 L6.53247555,28.5252519 L6.75430354,28.1610277 L7.25547049,27.5253753 L8.12224283,26.7319698 L8.22288702,26.6414937 L8.28245194,26.5046196 L8.46320067,26.0754383 L8.80415852,25.6648161 L8.86372344,25.5511411 L8.92328836,25.437466 L8.96436762,25.3029118 L9.00339292,25.2124358 L9.12457673,24.3935113 L9.16565599,24.2566373 L9.22522091,24.0988841 L9.32586509,23.9852091 L10.0303744,23.3750756 L10.1905835,23.3031587 L10.3713322,23.2822796 L10.7533693,23.3750756 L11.1333524,23.5096297 L11.5954941,23.8506549 L11.8358078,23.941131 L12.0001248,23.941131 L12.1808735,23.894733 L12.3821619,23.7369798 L12.5012917,23.6001058 L12.5629106,23.4655516 L12.7231197,23.0549295 L13.704914,21.3544433 L13.9062024,20.9229421 L14.0273862,20.4682418 L14.0869511,20.3545668 L14.1506239,20.2408917 L14.2307285,20.1504156 L14.3108331,20.0576196 L14.4114772,19.9903426 L14.7524351,19.8302695 L14.8736189,19.7397935 L14.9126442,19.6516373 L14.8736189,19.5820403 L14.7729747,19.4242872 L14.7318954,19.3106121 L14.7134098,19.150539 L14.7318954,18.9695869 L14.7729747,18.8350327 L14.9927487,18.2434584 L15.0543676,17.9720302 L15.1139325,17.723801 L15.1344722,17.607806 L15.1940371,17.494131 L15.253602,17.447733 L15.3542462,17.447733 L15.5349949,17.5614081 L15.6150995,17.677403 L15.8348735,17.8583552 L16.0977808,17.9929093 L16.1573457,18.0833854 L16.1573457,18.1529824 L16.0567015,18.2202594 L15.8964924,18.3803325 L15.8759528,18.4499295 L15.8348735,18.5404055 L15.8348735,18.6540806 L15.8554132,18.7654358 L15.8759528,18.8559118 L15.8759528,18.9023098 L15.917032,18.9255088 L16.0567015,19.083262 L16.1162664,19.1296599 L16.196371,19.173738 L17.0035784,19.4010882 L17.4041012,19.6052393 L17.5047454,19.6748363 L17.6259292,19.7397935 L18.1661214,19.8302695 L19.8955582,19.7629924 L19.9366374,19.6516373 L20.5980135,19.2410151 L22.1261619,19.1296599 L22.6684081,18.4708086 L22.727973,18.1297834 L22.5883035,18.0161083 L22.1467015,17.9488312 L22.1467015,17.5150101 L22.4671197,17.3108589 L22.8676425,17.2203829 L23.114118,17.0626297 L22.3870152,16.2924232 L22.5677639,16.088272 L22.7485126,16.020995 L23.173683,16.020995 L23.3544317,15.951398 L23.835059,15.5198967 L24.2355818,15.3389446 L25.0982462,15.3389446 L25.5049309,15.2484685 L25.6446003,15.0651965 L25.9259933,14.4527431 L26.1252277,14.1813149 L26.5873693,13.2046373 L26.7270388,13.0468841 L26.9077875,12.8868111 L27.1296155,12.7522569 L28.2161619,12.5921839 L29.2801147,13.0677632 L31.1677066,14.4968212 L31.6298482,14.7009723 L32.1145835,14.7914484 L32.5767251,14.7009723 L32.858118,14.4295441 L33.0573524,14.2949899 L33.6797032,14.339068 L33.7803474,14.2253929 L33.8399123,13.9771637 L34.080226,13.8634887 L34.3862664,13.8634887 L34.6060405,13.9098866 L34.9880776,14.2949899 L34.9675379,14.7705693 L34.6471197,15.2275894 L34.1603305,15.4966977 L34.3410793,15.7936448 L34.8463541,16.8352796 L34.9675379,16.7912015 L34.9675379,16.4965743 L35.0271029,16.1555491 L35.1482867,15.9305189 L35.3475211,15.974597 L35.5282698,16.2692242 L35.5097841,16.5197733 L35.40914,16.7007254 L35.4296796,16.9048766 L35.7500978,17.1995038 L36.0499764,17.1322267 L36.3909342,16.9257557 L36.7565396,16.8144005 L36.7976189,17.0185516 L36.5326577,17.1554257 L36.4320135,17.424534 L36.4915784,17.747 L36.6969747,18.0833854 L36.3108297,18.5612846 L36.6353558,18.7886348 L37.6582293,19.036864 L37.9396223,19.4915642 L37.9211366,20.0576196 L37.8595177,20.649194 L37.9807015,21.1943703 L38.3812243,21.6931486 L38.4223035,21.6931486 L38.8659595,21.8300227 L39.9093727,21.5794736 L40.3119494,21.5794736 L41.277312,21.7604257 L42.2611602,21.8068237 L42.5220135,21.9877758 L43.0622057,22.6443073 L43.5079157,22.8507783 L44.0090826,22.8971763 L44.4506847,23.0085315 L44.7711029,23.4191537 L44.7916425,24.0316071 L44.5718685,24.5535844 L44.0090826,25.3933879 L43.9495177,25.9385642 L44.1508061,26.3700655 L44.4917639,26.6855718 L44.871747,26.9361209 L45.759059,27.6158514 L46.3197909,27.7991234 L48.1909511,27.5694534 L48.8913524,27.6390504 L49.5547825,27.8687204 L50.1196223,28.2979018 L50.3209106,28.6853249 L50.4996054,29.1377053 L50.7008938,29.4996096 L51.021312,29.5900856 L51.3232445,29.5900856 L52.0852648,29.7037607 L52.7507487,29.6805617 L53.011602,29.8406348 L53.3320202,30.1561411 L54.5561821,27.8432015 L57.552914,30.9541864 L56.1438954,33.8146222 L56.2445396,34.3134005 L56.7272209,34.993131 L56.667656,35.2668791 L56.6060371,35.4733501 L56.5259325,35.6287834 L56.4068027,35.7424584 L56.7272209,36.2876348 L56.5464722,36.695937 L55.7639123,37.1715164 L55.503059,37.4220655 L55.3633895,37.6030176 L55.2422057,37.8303678 L55.1621012,38.124995 L55.1826408,38.6492922 L55.0819966,39.1689496 L55.0409174,39.690927 L54.9608128,39.8950781 L54.7615784,40.0296322 L54.2953288,40.0992292 L54.176199,40.1897053 L54.0344755,40.3729773 L53.9153457,40.4634534 L53.8147015,40.5771285 L53.7530826,40.8253577 L53.7530826,41.1455038 L53.8147015,41.3496549 L53.9338314,41.3496549 L54.1351197,41.1687028 L54.3158685,41.3264559 L53.7941619,41.7556373 L53.6134132,41.9389093 L53.1718111,42.2103375 L53.0526813,42.8459899 L53.0321417,43.4816423 L52.8924722,43.7994685 L52.8123676,44.2077708 L52.9725767,45.0243753 L53.2519157,45.8873778 L53.453204,46.4325542 L53.7941619,46.9081335 L54.2747892,47.4301108 L54.8006037,47.6783401 L55.2216661,47.3837128 L55.4024148,47.1354836 L55.8234772,46.7944584 L56.0247656,46.4557531 L56.2650793,45.3190025 L55.9836863,45.0011763 L55.8645565,44.8875013 L55.724887,44.8202242 L55.944661,44.525597 L56.1849747,44.2773678 L56.2445396,44.3214458 L56.2650793,44.3655239 L56.3061585,44.3887229 L56.3862631,44.4351209 L56.4252884,44.6601511 L56.3451838,44.9107003 L56.445828,45.2285264 L56.667656,45.5022746 L56.9120776,45.6182695 L57.1729309,45.5022746 L57.3927049,45.2053275 L57.6330185,44.5696751 L57.6946374,44.3214458 L57.7336627,44.0500176 L57.7336627,43.7785894 L57.6946374,43.4816423 L58.1341855,43.8458665 L58.5552479,44.525597 L59.5637437,46.5694282 L59.9642664,47.0682065 L61.7121889,48.4508665 L62.3550793,48.7246146 L62.7761417,48.5900605 L62.7350624,47.8384131 L62.4146442,47.0218086 L62.0736863,46.3652771 L61.3075582,45.1821285 L62.0736863,45.5022746 L62.6364722,45.9778539 L63.0369949,46.7039824 L63.3183879,47.7920151 L63.4375177,48.0657632 L63.6634536,48.4276675 L64.1440809,48.9983627 L64.526118,49.2465919 L64.8465363,49.2929899 L66.795747,48.5436625 L67.5577673,48.4508665 L68.2232513,48.7478136 L68.5642091,48.9983627 L68.8866813,49.1561159 L69.2070995,49.383466 L69.5480573,49.8126474 L69.7493457,50.1745516 L70.0286847,50.879801 L70.1087892,51.13267 L70.4353693,51.2672242 L70.5339595,50.9934761 L70.5154739,50.1745516 L71.0967454,50.6547708 L71.4171636,50.8125239 L71.4972681,50.3555038 L71.5773727,50.1745516 L71.6389916,49.9031234 L71.6184519,49.6084962 L71.558887,49.4043451 L71.3575987,48.9983627 L71.2959798,48.7246146 L71.8587656,49.1097179 L72.1997234,50.0399975 L72.4605767,50.9702771 L72.7851029,51.3577003 L73.386914,51.4481763 L75.2169949,52.6498841 L75.1163508,52.2183829 L74.935602,51.9933526 L74.7302057,51.8124005 L74.549457,51.5618514 L74.5104317,51.086272 L74.5699966,50.4714987 L74.5699966,49.8590453 L74.3502226,49.360267 L73.4875582,48.4067884 L72.8056425,47.9752872 L72.6248938,47.7920151 L72.3804722,47.2491587 L72.4194975,46.7735793 L72.5201417,46.3188791 L72.5406813,45.7737028 L72.2387487,45.3654005 L71.7581214,45.4558766 L71.2158752,45.7505038 L70.7557875,45.8873778 L70.2689983,45.6832267 L69.8089106,45.2726045 L69.4268735,44.7529471 L69.2276391,44.2309698 L68.9852715,44.0940957 L67.4776627,43.6857935 L66.6355379,43.1406171 L65.9536223,42.4585668 L65.4072681,41.5306071 L65.0868499,40.4402544 L65.0067454,40.2337834 L64.8465363,40.0992292 L64.9677201,39.827801 L64.7253524,39.4194987 L64.526118,38.7838463 L64.0044115,36.649539 L63.9633322,36.3108338 L63.9037673,36.0834836 L63.9037673,35.8561335 L64.2652648,36.535864 L65.7092007,40.9158338 L65.8735177,41.1223048 L66.134371,41.2591788 L67.9192648,42.936466 L68.3238954,43.1638161 L69.0263508,43.1638161 L69.2666644,43.2310932 L69.6671872,43.3679673 L69.8479359,43.5512393 L69.9095548,43.7089924 L69.9691197,43.8899446 L70.1293288,44.1404937 L70.5339595,44.525597 L70.8749174,44.616073 L71.5979123,44.4119219 L72.0189747,44.0500176 L71.9984351,43.4584433 L71.7190961,42.8251108 L71.4171636,42.3008136 L70.6346037,41.440131 L68.8250624,39.8950781 L68.2047656,38.8534433 L68.0404486,38.192272 L67.8596998,36.2876348 L67.6789511,35.7656574 L67.4386374,35.2413602 L67.2578887,34.6753048 L67.2784283,33.9723753 L66.5554334,33.404 L66.2144755,32.9539395 L66.0727521,32.3623652 L66.2144755,31.884466 L66.8963912,31.1583375 L67.0976796,30.6363602 L67.0976796,29.9751889 L66.8758516,30.0215869 L66.3336054,30.5899622 L66.0932917,30.434529 L66.1939359,29.3882544 L65.9330826,29.2049824 L65.7893052,29.0472292 L65.748226,28.9567531 L65.7092007,28.8430781 L66.1939359,28.706204 L66.4157639,28.706204 L66.5944587,28.8198791 L66.855312,28.3419798 L66.575973,28.0473526 L65.7893052,27.7318463 L65.5079123,27.4580982 L65.2675987,27.0706751 L65.2265194,26.7087708 L65.5489916,26.5278186 L66.0131872,26.7087708 L66.9169309,27.4580982 L67.3174536,27.5694534 L67.4180978,27.233068 L67.017575,26.5742166 L65.8940573,25.2797128 L65.3066239,24.7786146 L65.0663103,24.6208615 L64.585683,24.5303854 L64.3453693,24.3935113 L64.1440809,24.1220831 L64.084516,23.8274559 L64.1440809,23.5560277 L64.3843946,23.4191537 L64.6062226,23.5096297 L64.8670759,23.7601788 L65.2881383,24.2566373 L66.7361821,25.3493098 L66.8963912,25.2333149 L66.9764958,25.0059647 L67.0976796,24.8690907 L67.5783069,24.7136574 L67.9192648,24.4839874 L67.9398044,24.1684811 L67.5577673,23.7137809 L67.1161653,23.4655516 L65.912543,23.1454055 L65.4278078,23.1454055 L65.2675987,23.0781285 L65.0868499,22.8971763 L64.9862057,22.6211083 L65.0663103,22.3960781 L65.247059,22.3960781 L66.0542664,22.8067003 L66.2740405,22.5306322 L66.5554334,22.5306322 L66.8162867,22.7162242 L66.9764958,23.0085315 L67.1367049,22.9644534 L67.1161653,22.282403 L66.7752074,21.6931486 L66.354145,21.1502922 L65.8529781,20.1272166 L65.5880169,20.2176927 L65.1874941,20.6723929 L64.9471804,20.5587179 L64.5651433,20.0808186 L64.4049342,20.0112217 L64.3042901,19.8534685 L64.1646206,19.5356423 L63.9037673,19.2410151 L63.2382833,19.150539 L63.0760202,18.9927859 L62.9363508,18.7445567 L62.6960371,18.5172065 L62.535828,18.5172065 L62.1537909,18.4499295 L61.8539123,18.3803325 L61.9935818,18.2666574 L62.5152884,18.0833854 L62.6960371,17.9256322 L62.8357066,17.654204 L63.1170995,17.8351562 L64.2652648,18.1297834 L64.585683,18.3803325 L64.9061012,18.6749597 L65.1279292,18.8559118 L65.2675987,18.7213577 L65.4483474,18.9255088 L65.5674772,18.6981587 L65.748226,18.6540806 L65.9741619,18.7445567 L66.1939359,18.9255088 L66.9374705,18.1065844 L66.8963912,17.9256322 L66.1549106,17.9929093 L65.5079123,17.5614081 L64.9471804,16.9048766 L64.4644992,16.1555491 L65.1874941,16.2460252 L65.3867285,16.3597003 L65.8735177,16.9489547 L66.1138314,17.1995038 L66.4753288,17.3572569 L66.6355379,17.0394307 L66.6149983,16.8352796 L65.748226,15.997796 L65.5079123,15.6776499 L65.6085565,15.4734987 L66.8162867,15.4966977 L66.855312,15.3621436 L66.6355379,15.0187985 L66.8162867,14.7473703 L67.0360607,14.6800932 L67.2373491,14.568738 L67.3564789,14.2045139 L67.2373491,14.2253929 L67.1777841,13.6825365 L66.6951029,13.5456625 L66.0932917,13.5456625 L65.7092007,13.3206322 L67.1962698,12.4761889 L67.4982024,12.5689849 L68.184226,13.8170907 L68.5847487,15.1579924 L69.0468904,14.1117179 L69.1865599,13.9771637 L69.1660202,13.7962116 L68.9667858,13.4783854 L68.5642091,13.0468841 L68.4245396,10.7548237 L68.5251838,10.5947506 L68.6052884,10.3001234 L68.7264722,10.0495743 L68.9257066,9.97997733 L69.1064553,10.1632494 L69.1475346,10.4137985 L69.1269949,11.0053728 L69.2276391,12.2952368 L69.4083879,12.8636121 L69.8294503,13.1582393 L70.2505126,12.4993879 L71.3781383,11.3440781 L72.1401585,9.97997733 L72.2387487,9.68535013 L72.1997234,9.30024685 L72.0189747,9.20977078 L71.2158752,9.09609572 L70.9365363,8.87106549 L71.1768499,7.07546348 L71.337059,6.80403526 L71.5383474,6.62308312 L71.8176863,6.50940806 L73.2267049,6.19158186 L73.4279933,6.01062972 L73.6272277,5.21722418 L73.8079764,4.8506801 L74.1283946,4.66972796 L74.1099089,5.89927456 L74.0482901,6.44213098 L73.9086206,6.94322922 L73.5471231,7.9175869 L73.4670185,8.5300403 L73.6477673,9.05201763 L73.9086206,8.46276322 L75.1163508,6.73675819 L75.4162293,6.19158186 L75.6380573,5.57912846 L75.9173963,5.05947103 L76.3589983,4.73932494 L76.3405126,5.44225441 L76.2398685,6.19158186 L75.9790152,6.85043325 L75.5168735,7.3028136 L75.8188061,7.73431486 L76.1987892,7.98486398 L76.9012445,8.2354131 L76.9217841,8.41636524 L76.3589983,8.46276322 L75.3155852,8.34908816 L74.8760371,8.50916121 L74.5699966,8.8478665 L74.2105531,9.41392191 L73.5882024,10.6388287 L73.6272277,11.207204 L74.1694739,11.276801 L76.5212614,10.7107456 L77.1066408,10.7548237 L77.4475987,11.0726499 L76.9217841,11.230403 L76.761575,11.230403 L75.8578314,11.5041511 L73.5080978,12.0029295 L71.7581214,12.7058589 L71.6985565,12.842733 L71.6780169,13.5247834 L71.5979123,13.7962116 L71.4171636,13.9539647 L70.9961012,14.1581159 L70.8153524,14.4295441 L70.7948128,14.6800932 L70.8749174,15.2925466 L70.8358921,15.5871738 L70.229973,17.9488312 L70.0903035,19.060063 L70.0286847,19.2642141 L69.9691197,19.6284383 L70.0286847,19.9671436 L70.5750388,20.1040176 L70.7763272,20.3313678 L70.9365363,20.602796 L71.0166408,20.832466 L71.2158752,22.1478489 L71.337059,22.6698262 L71.5773727,22.9180554 L71.8793052,22.4401562 L71.838226,21.3080453 L71.9183305,20.1040176 L72.5406813,19.4915642 L72.5797066,19.6980353 L72.3393929,19.9903426 L72.885747,20.0576196 L73.2862698,19.7165945 L73.6477673,19.2410151 L74.0688297,18.9023098 L73.9291602,19.4915642 L73.2061653,20.762869 L72.945312,21.5353955 L73.1466003,21.7163476 L72.9268263,21.8509018 L72.4400371,22.0550529 L72.5612209,22.3264811 L72.7049983,22.5306322 L72.8652074,22.6930252 L73.0459562,22.7603023 L73.0870354,23.3982746 L72.8056425,23.8506549 L72.3599325,24.1684811 L71.9183305,24.3262343 L71.3165194,24.3703123 L70.9159966,24.2125592 L70.229973,23.6905819 L69.9896594,23.5792267 L69.7288061,23.5328287 L69.5480573,23.6233048 L69.5480573,24.3494332 L69.3878482,25.0500428 L69.3673086,25.2797128 L69.4474132,26.0290403 L69.4884924,28.3419798 L69.6281619,28.8430781 L69.9485801,28.752602 L70.3306172,28.3419798 L70.4743946,27.9800756 L70.3306172,27.8223224 L70.0903035,27.6158514 L69.9095548,27.3444232 L69.9095548,27.049796 L70.0697639,26.7992469 L70.229973,26.7087708 L70.8564317,26.5046196 L70.9961012,26.4141436 L71.1768499,26.2331914 L71.1768499,26.1427154 L71.2774941,25.8480882 L71.4171636,25.597539 L71.4972681,25.597539 L71.558887,25.0500428 L71.9183305,25.1405189 L72.7049983,25.6184181 L72.6844587,26.0081612 L72.7255379,26.4837406 L72.885747,26.8897229 L73.1856256,27.003398 L73.2862698,26.8224458 L73.3068094,26.0754383 L73.3458347,25.8944861 L73.6272277,25.8712872 L73.6888465,26.1195164 L73.6683069,26.7783678 L73.828516,26.8456448 L74.771285,27.049796 L74.3892479,27.5021763 L73.8695953,27.8919194 L73.4670185,28.3906977 L73.5471231,29.2513804 L73.9681855,29.8638338 L74.4097875,29.8406348 L74.7918246,29.4323325 L74.9766813,28.8894761 L75.1553761,29.3418564 L75.0567858,29.8638338 L74.8308499,30.272136 L74.6110759,30.4762872 L74.2105531,30.5226851 L73.8079764,30.4530882 L73.4279933,30.272136 L73.0870354,29.9983879 L72.8056425,29.3650554 L72.7255379,29.2513804 L72.499602,29.2745793 L72.3393929,29.1841033 L72.060054,28.8662771 L71.6985565,28.752602 L71.4171636,29.0240302 L70.9550219,29.7037607 L70.9550219,29.9543098 L70.9159966,30.272136 L70.8358921,32.1094962 L70.7557875,32.6778715 L70.7557875,33.1093728 L70.8358921,33.8378212 L70.9961012,33.9723753 L71.2569545,33.8587003 L71.5178078,33.587272 L71.6574772,33.3367229 L71.4972681,32.9307406 L71.4171636,32.2463703 L71.4171636,31.5202418 L71.4972681,31.0237834 L71.7375818,30.5899622 L71.8176863,30.8381914 L71.8587656,32.1094962 L72.0785396,32.3623652 L72.3804722,31.838068 L72.8652074,30.6804383 L73.3068094,30.7941134 L73.3458347,31.2952116 L73.1055211,32.3159673 L73.4074536,32.4505214 L73.7278718,33.0861738 L73.9291602,33.1998489 L74.1489342,32.9956977 L74.2105531,32.6314736 L74.2290388,32.1999723 L74.329683,31.814869 L74.4693524,32.0862972 L74.5309713,32.3832443 L74.4898921,32.6314736 L74.3892479,32.8611436 L74.6501012,33.1766499 L75.0157066,33.0861738 L75.436769,32.8611436 L75.878371,32.7219496 L75.9173963,32.9307406 L75.656543,33.1093728 L75.1759157,33.543194 L75.0157066,33.7682242 L75.0567858,33.9723753 L75.4963339,34.0628514 L75.7982664,33.9259773 L76.0180405,33.6777481 L76.319973,33.450398 L76.319973,34.0860504 L76.8006003,34.4943526 L77.4660843,34.7193829 L77.9877909,34.7425819 L78.4293929,34.4479547 L78.6512209,33.9723753 L78.8915346,32.8147456 L79.0106644,32.7915466 L79.090769,32.8611436 L79.2119528,32.9307406 L79.090769,33.4295189 L79.1523879,34.3806776 L78.9921788,34.923534 L78.7908904,35.1740831 L78.4910118,35.3782343 L77.8481214,35.6287834 L75.5579528,35.2413602 L75.1964553,35.4246322 L74.935602,35.3109572 L74.6706408,35.1276851 L74.7918246,35.0140101 L75.0362462,34.6289068 L74.7507454,34.7657809 L74.270118,35.1508841 L73.9681855,35.3109572 L73.6272277,35.4014332 L72.6454334,35.4246322 L72.9268263,35.7424584 L73.0459562,35.8561335 L73.2061653,35.9234106 L73.2472445,36.1298816 L72.9062867,36.8536902 L72.8261821,37.3060705 L73.1260607,37.4220655 L73.7689511,37.2619924 L74.0092648,37.1042393 L74.1900135,36.8536902 L74.270118,36.605461 L74.2495784,36.4477078 L74.2886037,36.3340327 L74.5104317,36.2435567 L74.6911804,36.1971587 L74.8308499,36.1971587 L74.9561417,36.2203577 L75.0567858,36.3108338 L75.1964553,36.605461 L74.935602,37.0810403 L75.1163508,37.3524685 L74.7507454,37.6934937 L74.3091433,37.9672418 L73.9681855,38.3059471 L73.9086206,38.8302443 L73.9681855,39.6004509 L73.8490556,40.0760302 L73.6272277,40.0528312 L73.4074536,39.3962997 L73.16714,39.1689496 L72.7851029,39.1921486 L72.499602,39.4867758 L72.6454334,40.0992292 L72.7851029,40.2337834 L73.0254165,40.3497783 L73.2472445,40.5307305 L73.5080978,41.1455038 L73.7073322,41.46333 L73.9086206,41.7347582 L74.0688297,41.8693123 L74.8965767,42.8251108 L75.436769,43.4584433 L75.6976223,44.2309698 L75.8188061,44.2077708 L75.7571872,43.5512393 L75.2169949,42.2776146 L75.3977437,41.9829874 L75.7982664,42.1639395 L77.3859798,43.6185164 L77.6879123,44.1172947 L77.868661,44.2773678 L78.4499325,44.3214458 L78.6902462,44.502398 L79.6371231,45.6600277 L79.918516,45.8177809 L80.0581855,45.4790756 L80.1382901,44.6601511 L80.0581855,44.2541688 L79.9370017,43.8690655 L79.7377673,43.6185164 L79.476914,43.5280403 L79.7172277,42.6859169 L80.1588297,41.7347582 L80.6209713,41.2591788 L80.9413895,41.8693123 L80.9003103,42.3448917 L80.3786037,42.7995919 L80.3190388,43.2078942 L80.4587083,43.4584433 L80.6805363,43.6649144 L80.9208499,43.8226675 L81.081059,43.9827406 L81.1611636,44.2541688 L81.2022428,44.548796 L81.2412681,44.8202242 L81.3829916,44.9547783 L81.4815818,44.639272 L81.6479528,42.753194 L81.746543,42.4817657 L82.5496425,40.8253577 L82.5886678,40.5307305 L82.5701821,40.1665063 L82.5886678,39.8718791 L82.7098516,39.735005 L82.9912445,39.690927 L83.0508094,39.804602 L83.0302698,39.9623552 L83.0302698,40.6444055 L82.9316796,41.1455038 L82.5085632,42.5954408 L82.3894334,43.3006902 L82.4284587,43.9827406 L82.7509309,44.525597 L83.1719933,44.6833501 L84.1188702,44.525597 L84.4988533,44.639272 L83.7922901,45.2494055 L82.9912445,45.7273048 L82.4284587,46.3884761 L82.3688938,47.587864 L82.5085632,48.1794383 L82.629747,48.4067884 L82.7694165,48.4508665 L82.9316796,48.3163123 L82.9316796,48.0657632 L82.8906003,47.7920151 L82.9707049,47.564665 L83.3712277,47.3164358 L84.3591838,47.2027607 L84.8007858,46.8640554 L85.0801248,46.8640554 L85.4416223,46.7271814 L85.7640944,46.7503804 L85.8832243,47.0450076 L85.7640944,47.2491587 L85.1602293,47.5205869 L84.9609949,47.701539 L85.121204,47.8592922 L85.0801248,48.1585592 L84.9404553,48.4276675 L84.7597066,48.6805365 L84.5584182,48.8382897 L84.6200371,49.0656398 L84.7001417,49.0888388 L84.7391669,49.1097179 L84.7391669,49.1561159 L84.8007858,49.2233929 L85.0205599,48.9983627 L85.3224924,48.8614887 L85.842145,48.7478136 L86.1276459,48.5204635 L86.287855,48.1585592 L86.4686037,47.8848111 L86.7910759,47.8848111 L86.6103272,48.4972645 L85.8626847,49.7453703 L85.7230152,50.1536725 L85.6018314,50.2882267 L85.0410995,50.5410957 L84.9609949,50.7893249 L84.9199157,51.13267 L84.6200371,52.0374307 L84.4988533,52.2647809 L84.5584182,52.2879798 L84.6200371,52.2879798 L84.6590624,52.3088589 L84.679602,52.468932 L84.8192715,52.422534 L84.8808904,52.2183829 L84.9815346,52.0606297 L85.1417437,51.9469547 L85.3224924,51.8796776 L85.3019528,52.2879798 L85.1602293,52.5594081 L85.0205599,52.7844383 L84.9404553,53.0373073 L84.9609949,53.3087355 L85.0410995,53.4224106 L85.121204,53.5128866 L85.2013086,53.7193577 L85.4231366,53.8098338 L85.7825801,53.3992116 L86.287855,52.5826071 L86.6698921,52.1070277 L87.1505194,51.9237557 L89.0812445,51.6291285 L89.5023069,51.6291285 L89.7631602,51.6987254 L89.8432648,51.2231461 L89.9233693,50.7452469 L90.0240135,50.5619748 L90.5251804,50.3555038 L91.4124924,49.9935995 L92.0944081,49.6989723 L93.1213895,49.2929899 L94.0230793,48.9055668 L94.6043508,48.6805365 L95.0069275,48.4972645 L95.0069275,48.2467154 L95.1691906,46.6367053 L95.0254132,46.4325542 L95.1301653,46.274801 L95.3499393,45.6832267 L95.5122024,45.4790756 L95.7114368,45.4349975 L96.1324992,45.5022746 L96.2742226,45.4558766 L96.3728128,45.1357305 L96.4138921,44.1404937 L96.473457,43.9131436 L96.6336661,43.5976373 L96.5741012,41.7788363 L96.7158246,41.3728539 L96.9355987,41.0318287 L97.5209781,40.4402544 L97.3813086,41.1455038 L97.5004384,41.3728539 L98.1823541,41.1455038 L98.3446172,40.8926348 L98.3446172,40.8926348 Z" id="Fill-61" fill="#D6D6D6"></path>
                <path d="M81.6274132,51.5154534 L81.3829916,51.3136222 L81.1221383,51.2231461 L80.9413895,51.3577003 L80.9208499,51.7892015 L81.1015987,52.0838287 L81.7075177,52.2647809 L81.9889106,52.4898111 L81.7280573,52.6498841 L81.081059,52.7635592 L81.0009545,52.9468312 L81.1817032,53.1718615 L81.8081619,53.3319345 L82.0279359,53.5569647 L82.1285801,52.9909093 L82.2086847,52.3088589 L82.0875008,51.7428035 L81.6274132,51.5154534 L81.6274132,51.5154534 Z M80.6209713,46.9313325 L80.3991433,46.7039824 L80.0191602,46.4789521 L79.5775582,46.7271814 L79.312597,47.2259597 L79.5364789,47.7688161 L79.7583069,47.8152141 L80.5798921,47.701539 L80.7606408,47.4301108 L80.7606408,47.1795617 L80.6209713,46.9313325 L80.6209713,46.9313325 Z M98.9443744,39.5099748 L98.5643912,41.8693123 L98.2624587,43.1638161 L98.1823541,43.9827406 L98.2624587,44.8643023 L98.2234334,45.1821285 L97.7818314,46.3652771 L97.5415177,47.4533098 L97.6811872,47.3837128 L97.8824755,47.2932368 L97.9420405,46.9986096 L98.463747,45.8873778 L98.8252445,43.2542922 L98.8047049,41.46333 L99.2257673,39.644529 L99.2668465,38.7165693 L99.1456627,38.7629673 L98.9443744,39.5099748 L98.9443744,39.5099748 Z M99.5276998,34.8353778 L99.3674907,33.9955743 L99.0860978,34.0628514 L99.0860978,34.0860504 L99.2257673,34.993131 L99.2257673,36.7400151 L99.3469511,37.6470957 L99.5913727,37.0346423 L99.630398,35.9930076 L99.5276998,34.8353778 L99.5276998,34.8353778 Z M98.3446172,40.8926348 L98.5849309,39.4194987 L98.7636256,38.9879975 L98.9443744,38.3755441 L99.0244789,37.7607708 L98.9854536,37.2851914 L98.74514,37.0137632 L98.5048263,37.0578413 L98.2234334,37.1947154 L97.9215008,37.1483174 L98.0837639,36.9673652 L98.1638685,36.8536902 L98.1227892,36.672738 L97.9625801,36.719136 L97.9215008,36.4917859 L98.0426847,36.0394055 L97.6811872,35.8561335 L96.7343103,35.7656574 L97.0567825,35.4246322 L97.4203339,35.4246322 L97.802371,35.5615063 L98.1823541,35.5823854 L98.523312,35.4246322 L98.5048263,35.2181612 L97.9831197,34.5848287 L98.3035379,34.6289068 L98.523312,34.5848287 L98.5849309,34.3806776 L98.5438516,34.2206045 L98.0426847,34.3342796 L96.915059,34.6289068 L95.2903744,35.0604081 L93.6821214,35.4733501 L92.0327892,35.8770126 L90.4245363,36.2876348 L88.7998516,36.695937 L87.171059,37.1042393 L85.5422664,37.5102217 L85.180769,36.1530806 L84.8398111,34.7425819 L84.3181046,32.6082746 L83.7922901,30.4530882 L83.2726374,28.3187809 L82.7509309,26.1659144 L82.2477099,24.0316071 L81.7280573,21.8741008 L80.6805363,17.5846071 L80.1588297,15.4526196 L79.6576627,13.2974332 L79.1318482,11.1631259 L78.6101417,9.02881864 L78.0884351,6.87131234 L77.5667285,4.73932494 L77.040914,2.58413854 L76.539747,0.449831234 L74.1694739,1.04140554 L71.778661,1.63065995 L69.4083879,2.21759446 L64.6657875,3.40074307 L62.2749747,3.96911839 L59.9047015,4.5560529 L57.5138887,5.12674811 L55.1415616,5.69512343 L52.7712884,6.28437783 L50.3804755,6.82723426 L48.0102024,7.39328967 L45.6193895,7.96166499 L43.2429545,8.5300403 L40.8521417,9.07521662 L38.4613288,9.64127204 L36.0910556,10.1864484 L33.7002428,10.7316247 L31.30943,11.276801 L28.9391568,11.8196574 L26.5462901,12.3416348 L24.1554772,12.8868111 L21.785204,13.4343073 L19.3943912,13.9539647 L17.0035784,14.4759421 L14.6127656,14.9955995 L12.2219528,15.5198967 L9.83113997,16.044194 L7.44032715,16.5638514 L5.04540641,17.0626297 L2.67307926,17.5846071 L0.282266442,18.0833854 L2.57448904,33.357602 L2.63405396,33.450398 L2.73469815,33.4295189 L2.91955481,33.2671259 L3.13932884,33.0188967 L5.0844317,30.202539 L5.24874874,30.112063 L6.07238786,29.7501587 L6.23259696,29.6364836 L6.29216189,29.4996096 L6.43183137,28.8198791 L6.53247555,28.5252519 L6.75430354,28.1610277 L7.25547049,27.5253753 L8.12224283,26.7319698 L8.22288702,26.6414937 L8.28245194,26.5046196 L8.46320067,26.0754383 L8.80415852,25.6648161 L8.86372344,25.5511411 L8.92328836,25.437466 L8.96436762,25.3029118 L9.00339292,25.2124358 L9.12457673,24.3935113 L9.16565599,24.2566373 L9.22522091,24.0988841 L9.32586509,23.9852091 L10.0303744,23.3750756 L10.1905835,23.3031587 L10.3713322,23.2822796 L10.7533693,23.3750756 L11.1333524,23.5096297 L11.5954941,23.8506549 L11.8358078,23.941131 L12.0001248,23.941131 L12.1808735,23.894733 L12.3821619,23.7369798 L12.5012917,23.6001058 L12.5629106,23.4655516 L12.7231197,23.0549295 L13.704914,21.3544433 L13.9062024,20.9229421 L14.0273862,20.4682418 L14.0869511,20.3545668 L14.1506239,20.2408917 L14.2307285,20.1504156 L14.3108331,20.0576196 L14.4114772,19.9903426 L14.7524351,19.8302695 L14.8736189,19.7397935 L14.9126442,19.6516373 L14.8736189,19.5820403 L14.7729747,19.4242872 L14.7318954,19.3106121 L14.7134098,19.150539 L14.7318954,18.9695869 L14.7729747,18.8350327 L14.9927487,18.2434584 L15.0543676,17.9720302 L15.1139325,17.723801 L15.1344722,17.607806 L15.1940371,17.494131 L15.253602,17.447733 L15.3542462,17.447733 L15.5349949,17.5614081 L15.6150995,17.677403 L15.8348735,17.8583552 L16.0977808,17.9929093 L16.1573457,18.0833854 L16.1573457,18.1529824 L16.0567015,18.2202594 L15.8964924,18.3803325 L15.8759528,18.4499295 L15.8348735,18.5404055 L15.8348735,18.6540806 L15.8554132,18.7654358 L15.8759528,18.8559118 L15.8759528,18.9023098 L15.917032,18.9255088 L16.0567015,19.083262 L16.1162664,19.1296599 L16.196371,19.173738 L17.0035784,19.4010882 L17.4041012,19.6052393 L17.5047454,19.6748363 L17.6259292,19.7397935 L18.1661214,19.8302695 L19.8955582,19.7629924 L19.9366374,19.6516373 L20.5980135,19.2410151 L22.1261619,19.1296599 L22.6684081,18.4708086 L22.727973,18.1297834 L22.5883035,18.0161083 L22.1467015,17.9488312 L22.1467015,17.5150101 L22.4671197,17.3108589 L22.8676425,17.2203829 L23.114118,17.0626297 L22.3870152,16.2924232 L22.5677639,16.088272 L22.7485126,16.020995 L23.173683,16.020995 L23.3544317,15.951398 L23.835059,15.5198967 L24.2355818,15.3389446 L25.0982462,15.3389446 L25.5049309,15.2484685 L25.6446003,15.0651965 L25.9259933,14.4527431 L26.1252277,14.1813149 L26.5873693,13.2046373 L26.7270388,13.0468841 L26.9077875,12.8868111 L27.1296155,12.7522569 L28.2161619,12.5921839 L29.2801147,13.0677632 L31.1677066,14.4968212 L31.6298482,14.7009723 L32.1145835,14.7914484 L32.5767251,14.7009723 L32.858118,14.4295441 L33.0573524,14.2949899 L33.6797032,14.339068 L33.7803474,14.2253929 L33.8399123,13.9771637 L34.080226,13.8634887 L34.3862664,13.8634887 L34.6060405,13.9098866 L34.9880776,14.2949899 L34.9675379,14.7705693 L34.6471197,15.2275894 L34.1603305,15.4966977 L34.3410793,15.7936448 L34.8463541,16.8352796 L34.9675379,16.7912015 L34.9675379,16.4965743 L35.0271029,16.1555491 L35.1482867,15.9305189 L35.3475211,15.974597 L35.5282698,16.2692242 L35.5097841,16.5197733 L35.40914,16.7007254 L35.4296796,16.9048766 L35.7500978,17.1995038 L36.0499764,17.1322267 L36.3909342,16.9257557 L36.7565396,16.8144005 L36.7976189,17.0185516 L36.5326577,17.1554257 L36.4320135,17.424534 L36.4915784,17.747 L36.6969747,18.0833854 L36.3108297,18.5612846 L36.6353558,18.7886348 L37.6582293,19.036864 L37.9396223,19.4915642 L37.9211366,20.0576196 L37.8595177,20.649194 L37.9807015,21.1943703 L38.3812243,21.6931486 L38.4223035,21.6931486 L38.8659595,21.8300227 L39.9093727,21.5794736 L40.3119494,21.5794736 L41.277312,21.7604257 L42.2611602,21.8068237 L42.5220135,21.9877758 L43.0622057,22.6443073 L43.5079157,22.8507783 L44.0090826,22.8971763 L44.4506847,23.0085315 L44.7711029,23.4191537 L44.7916425,24.0316071 L44.5718685,24.5535844 L44.0090826,25.3933879 L43.9495177,25.9385642 L44.1508061,26.3700655 L44.4917639,26.6855718 L44.871747,26.9361209 L45.759059,27.6158514 L46.3197909,27.7991234 L48.1909511,27.5694534 L48.8913524,27.6390504 L49.5547825,27.8687204 L50.1196223,28.2979018 L50.3209106,28.6853249 L50.4996054,29.1377053 L50.7008938,29.4996096 L51.021312,29.5900856 L51.3232445,29.5900856 L52.0852648,29.7037607 L52.7507487,29.6805617 L53.011602,29.8406348 L53.3320202,30.1561411 L54.5561821,27.8432015 L57.552914,30.9541864 L56.1438954,33.8146222 L56.2445396,34.3134005 L56.7272209,34.993131 L56.667656,35.2668791 L56.6060371,35.4733501 L56.5259325,35.6287834 L56.4068027,35.7424584 L56.7272209,36.2876348 L56.5464722,36.695937 L55.7639123,37.1715164 L55.503059,37.4220655 L55.3633895,37.6030176 L55.2422057,37.8303678 L55.1621012,38.124995 L55.1826408,38.6492922 L55.0819966,39.1689496 L55.0409174,39.690927 L54.9608128,39.8950781 L54.7615784,40.0296322 L54.2953288,40.0992292 L54.176199,40.1897053 L54.0344755,40.3729773 L53.9153457,40.4634534 L53.8147015,40.5771285 L53.7530826,40.8253577 L53.7530826,41.1455038 L53.8147015,41.3496549 L53.9338314,41.3496549 L54.1351197,41.1687028 L54.3158685,41.3264559 L53.7941619,41.7556373 L53.6134132,41.9389093 L53.1718111,42.2103375 L53.0526813,42.8459899 L53.0321417,43.4816423 L52.8924722,43.7994685 L52.8123676,44.2077708 L52.9725767,45.0243753 L53.2519157,45.8873778 L53.453204,46.4325542 L53.7941619,46.9081335 L54.2747892,47.4301108 L54.8006037,47.6783401 L55.2216661,47.3837128 L55.4024148,47.1354836 L55.8234772,46.7944584 L56.0247656,46.4557531 L56.2650793,45.3190025 L55.9836863,45.0011763 L55.8645565,44.8875013 L55.724887,44.8202242 L55.944661,44.525597 L56.1849747,44.2773678 L56.2445396,44.3214458 L56.2650793,44.3655239 L56.3061585,44.3887229 L56.3862631,44.4351209 L56.4252884,44.6601511 L56.3451838,44.9107003 L56.445828,45.2285264 L56.667656,45.5022746 L56.9120776,45.6182695 L57.1729309,45.5022746 L57.3927049,45.2053275 L57.6330185,44.5696751 L57.6946374,44.3214458 L57.7336627,44.0500176 L57.7336627,43.7785894 L57.6946374,43.4816423 L58.1341855,43.8458665 L58.5552479,44.525597 L59.5637437,46.5694282 L59.9642664,47.0682065 L61.7121889,48.4508665 L62.3550793,48.7246146 L62.7761417,48.5900605 L62.7350624,47.8384131 L62.4146442,47.0218086 L62.0736863,46.3652771 L61.3075582,45.1821285 L62.0736863,45.5022746 L62.6364722,45.9778539 L63.0369949,46.7039824 L63.3183879,47.7920151 L63.4375177,48.0657632 L63.6634536,48.4276675 L64.1440809,48.9983627 L64.526118,49.2465919 L64.8465363,49.2929899 L66.795747,48.5436625 L67.5577673,48.4508665 L68.2232513,48.7478136 L68.5642091,48.9983627 L68.8866813,49.1561159 L69.2070995,49.383466 L69.5480573,49.8126474 L69.7493457,50.1745516 L70.0286847,50.879801 L70.1087892,51.13267 L70.4353693,51.2672242 L70.5339595,50.9934761 L70.5154739,50.1745516 L71.0967454,50.6547708 L71.4171636,50.8125239 L71.4972681,50.3555038 L71.5773727,50.1745516 L71.6389916,49.9031234 L71.6184519,49.6084962 L71.558887,49.4043451 L71.3575987,48.9983627 L71.2959798,48.7246146 L71.8587656,49.1097179 L72.1997234,50.0399975 L72.4605767,50.9702771 L72.7851029,51.3577003 L73.386914,51.4481763 L75.2169949,52.6498841 L75.1163508,52.2183829 L74.935602,51.9933526 L74.7302057,51.8124005 L74.549457,51.5618514 L74.5104317,51.086272 L74.5699966,50.4714987 L74.5699966,49.8590453 L74.3502226,49.360267 L73.4875582,48.4067884 L72.8056425,47.9752872 L72.6248938,47.7920151 L72.3804722,47.2491587 L72.4194975,46.7735793 L72.5201417,46.3188791 L72.5406813,45.7737028 L72.2387487,45.3654005 L71.7581214,45.4558766 L71.2158752,45.7505038 L70.7557875,45.8873778 L70.2689983,45.6832267 L69.8089106,45.2726045 L69.4268735,44.7529471 L69.2276391,44.2309698 L68.9852715,44.0940957 L67.4776627,43.6857935 L66.6355379,43.1406171 L65.9536223,42.4585668 L65.4072681,41.5306071 L65.0868499,40.4402544 L65.0067454,40.2337834 L64.8465363,40.0992292 L64.9677201,39.827801 L64.7253524,39.4194987 L64.526118,38.7838463 L64.0044115,36.649539 L63.9633322,36.3108338 L63.9037673,36.0834836 L63.9037673,35.8561335 L64.2652648,36.535864 L65.7092007,40.9158338 L65.8735177,41.1223048 L66.134371,41.2591788 L67.9192648,42.936466 L68.3238954,43.1638161 L69.0263508,43.1638161 L69.2666644,43.2310932 L69.6671872,43.3679673 L69.8479359,43.5512393 L69.9095548,43.7089924 L69.9691197,43.8899446 L70.1293288,44.1404937 L70.5339595,44.525597 L70.8749174,44.616073 L71.5979123,44.4119219 L72.0189747,44.0500176 L71.9984351,43.4584433 L71.7190961,42.8251108 L71.4171636,42.3008136 L70.6346037,41.440131 L68.8250624,39.8950781 L68.2047656,38.8534433 L68.0404486,38.192272 L67.8596998,36.2876348 L67.6789511,35.7656574 L67.4386374,35.2413602 L67.2578887,34.6753048 L67.2784283,33.9723753 L66.5554334,33.404 L66.2144755,32.9539395 L66.0727521,32.3623652 L66.2144755,31.884466 L66.8963912,31.1583375 L67.0976796,30.6363602 L67.0976796,29.9751889 L66.8758516,30.0215869 L66.3336054,30.5899622 L66.0932917,30.434529 L66.1939359,29.3882544 L65.9330826,29.2049824 L65.7893052,29.0472292 L65.748226,28.9567531 L65.7092007,28.8430781 L66.1939359,28.706204 L66.4157639,28.706204 L66.5944587,28.8198791 L66.855312,28.3419798 L66.575973,28.0473526 L65.7893052,27.7318463 L65.5079123,27.4580982 L65.2675987,27.0706751 L65.2265194,26.7087708 L65.5489916,26.5278186 L66.0131872,26.7087708 L66.9169309,27.4580982 L67.3174536,27.5694534 L67.4180978,27.233068 L67.017575,26.5742166 L65.8940573,25.2797128 L65.3066239,24.7786146 L65.0663103,24.6208615 L64.585683,24.5303854 L64.3453693,24.3935113 L64.1440809,24.1220831 L64.084516,23.8274559 L64.1440809,23.5560277 L64.3843946,23.4191537 L64.6062226,23.5096297 L64.8670759,23.7601788 L65.2881383,24.2566373 L66.7361821,25.3493098 L66.8963912,25.2333149 L66.9764958,25.0059647 L67.0976796,24.8690907 L67.5783069,24.7136574 L67.9192648,24.4839874 L67.9398044,24.1684811 L67.5577673,23.7137809 L67.1161653,23.4655516 L65.912543,23.1454055 L65.4278078,23.1454055 L65.2675987,23.0781285 L65.0868499,22.8971763 L64.9862057,22.6211083 L65.0663103,22.3960781 L65.247059,22.3960781 L66.0542664,22.8067003 L66.2740405,22.5306322 L66.5554334,22.5306322 L66.8162867,22.7162242 L66.9764958,23.0085315 L67.1367049,22.9644534 L67.1161653,22.282403 L66.7752074,21.6931486 L66.354145,21.1502922 L65.8529781,20.1272166 L65.5880169,20.2176927 L65.1874941,20.6723929 L64.9471804,20.5587179 L64.5651433,20.0808186 L64.4049342,20.0112217 L64.3042901,19.8534685 L64.1646206,19.5356423 L63.9037673,19.2410151 L63.2382833,19.150539 L63.0760202,18.9927859 L62.9363508,18.7445567 L62.6960371,18.5172065 L62.535828,18.5172065 L62.1537909,18.4499295 L61.8539123,18.3803325 L61.9935818,18.2666574 L62.5152884,18.0833854 L62.6960371,17.9256322 L62.8357066,17.654204 L63.1170995,17.8351562 L64.2652648,18.1297834 L64.585683,18.3803325 L64.9061012,18.6749597 L65.1279292,18.8559118 L65.2675987,18.7213577 L65.4483474,18.9255088 L65.5674772,18.6981587 L65.748226,18.6540806 L65.9741619,18.7445567 L66.1939359,18.9255088 L66.9374705,18.1065844 L66.8963912,17.9256322 L66.1549106,17.9929093 L65.5079123,17.5614081 L64.9471804,16.9048766 L64.4644992,16.1555491 L65.1874941,16.2460252 L65.3867285,16.3597003 L65.8735177,16.9489547 L66.1138314,17.1995038 L66.4753288,17.3572569 L66.6355379,17.0394307 L66.6149983,16.8352796 L65.748226,15.997796 L65.5079123,15.6776499 L65.6085565,15.4734987 L66.8162867,15.4966977 L66.855312,15.3621436 L66.6355379,15.0187985 L66.8162867,14.7473703 L67.0360607,14.6800932 L67.2373491,14.568738 L67.3564789,14.2045139 L67.2373491,14.2253929 L67.1777841,13.6825365 L66.6951029,13.5456625 L66.0932917,13.5456625 L65.7092007,13.3206322 L67.1962698,12.4761889 L67.4982024,12.5689849 L68.184226,13.8170907 L68.5847487,15.1579924 L69.0468904,14.1117179 L69.1865599,13.9771637 L69.1660202,13.7962116 L68.9667858,13.4783854 L68.5642091,13.0468841 L68.4245396,10.7548237 L68.5251838,10.5947506 L68.6052884,10.3001234 L68.7264722,10.0495743 L68.9257066,9.97997733 L69.1064553,10.1632494 L69.1475346,10.4137985 L69.1269949,11.0053728 L69.2276391,12.2952368 L69.4083879,12.8636121 L69.8294503,13.1582393 L70.2505126,12.4993879 L71.3781383,11.3440781 L72.1401585,9.97997733 L72.2387487,9.68535013 L72.1997234,9.30024685 L72.0189747,9.20977078 L71.2158752,9.09609572 L70.9365363,8.87106549 L71.1768499,7.07546348 L71.337059,6.80403526 L71.5383474,6.62308312 L71.8176863,6.50940806 L73.2267049,6.19158186 L73.4279933,6.01062972 L73.6272277,5.21722418 L73.8079764,4.8506801 L74.1283946,4.66972796 L74.1099089,5.89927456 L74.0482901,6.44213098 L73.9086206,6.94322922 L73.5471231,7.9175869 L73.4670185,8.5300403 L73.6477673,9.05201763 L73.9086206,8.46276322 L75.1163508,6.73675819 L75.4162293,6.19158186 L75.6380573,5.57912846 L75.9173963,5.05947103 L76.3589983,4.73932494 L76.3405126,5.44225441 L76.2398685,6.19158186 L75.9790152,6.85043325 L75.5168735,7.3028136 L75.8188061,7.73431486 L76.1987892,7.98486398 L76.9012445,8.2354131 L76.9217841,8.41636524 L76.3589983,8.46276322 L75.3155852,8.34908816 L74.8760371,8.50916121 L74.5699966,8.8478665 L74.2105531,9.41392191 L73.5882024,10.6388287 L73.6272277,11.207204 L74.1694739,11.276801 L76.5212614,10.7107456 L77.1066408,10.7548237 L77.4475987,11.0726499 L76.9217841,11.230403 L76.761575,11.230403 L75.8578314,11.5041511 L73.5080978,12.0029295 L71.7581214,12.7058589 L71.6985565,12.842733 L71.6780169,13.5247834 L71.5979123,13.7962116 L71.4171636,13.9539647 L70.9961012,14.1581159 L70.8153524,14.4295441 L70.7948128,14.6800932 L70.8749174,15.2925466 L70.8358921,15.5871738 L70.229973,17.9488312 L70.0903035,19.060063 L70.0286847,19.2642141 L69.9691197,19.6284383 L70.0286847,19.9671436 L70.5750388,20.1040176 L70.7763272,20.3313678 L70.9365363,20.602796 L71.0166408,20.832466 L71.2158752,22.1478489 L71.337059,22.6698262 L71.5773727,22.9180554 L71.8793052,22.4401562 L71.838226,21.3080453 L71.9183305,20.1040176 L72.5406813,19.4915642 L72.5797066,19.6980353 L72.3393929,19.9903426 L72.885747,20.0576196 L73.2862698,19.7165945 L73.6477673,19.2410151 L74.0688297,18.9023098 L73.9291602,19.4915642 L73.2061653,20.762869 L72.945312,21.5353955 L73.1466003,21.7163476 L72.9268263,21.8509018 L72.4400371,22.0550529 L72.5612209,22.3264811 L72.7049983,22.5306322 L72.8652074,22.6930252 L73.0459562,22.7603023 L73.0870354,23.3982746 L72.8056425,23.8506549 L72.3599325,24.1684811 L71.9183305,24.3262343 L71.3165194,24.3703123 L70.9159966,24.2125592 L70.229973,23.6905819 L69.9896594,23.5792267 L69.7288061,23.5328287 L69.5480573,23.6233048 L69.5480573,24.3494332 L69.3878482,25.0500428 L69.3673086,25.2797128 L69.4474132,26.0290403 L69.4884924,28.3419798 L69.6281619,28.8430781 L69.9485801,28.752602 L70.3306172,28.3419798 L70.4743946,27.9800756 L70.3306172,27.8223224 L70.0903035,27.6158514 L69.9095548,27.3444232 L69.9095548,27.049796 L70.0697639,26.7992469 L70.229973,26.7087708 L70.8564317,26.5046196 L70.9961012,26.4141436 L71.1768499,26.2331914 L71.1768499,26.1427154 L71.2774941,25.8480882 L71.4171636,25.597539 L71.4972681,25.597539 L71.558887,25.0500428 L71.9183305,25.1405189 L72.7049983,25.6184181 L72.6844587,26.0081612 L72.7255379,26.4837406 L72.885747,26.8897229 L73.1856256,27.003398 L73.2862698,26.8224458 L73.3068094,26.0754383 L73.3458347,25.8944861 L73.6272277,25.8712872 L73.6888465,26.1195164 L73.6683069,26.7783678 L73.828516,26.8456448 L74.771285,27.049796 L74.3892479,27.5021763 L73.8695953,27.8919194 L73.4670185,28.3906977 L73.5471231,29.2513804 L73.9681855,29.8638338 L74.4097875,29.8406348 L74.7918246,29.4323325 L74.9766813,28.8894761 L75.1553761,29.3418564 L75.0567858,29.8638338 L74.8308499,30.272136 L74.6110759,30.4762872 L74.2105531,30.5226851 L73.8079764,30.4530882 L73.4279933,30.272136 L73.0870354,29.9983879 L72.8056425,29.3650554 L72.7255379,29.2513804 L72.499602,29.2745793 L72.3393929,29.1841033 L72.060054,28.8662771 L71.6985565,28.752602 L71.4171636,29.0240302 L70.9550219,29.7037607 L70.9550219,29.9543098 L70.9159966,30.272136 L70.8358921,32.1094962 L70.7557875,32.6778715 L70.7557875,33.1093728 L70.8358921,33.8378212 L70.9961012,33.9723753 L71.2569545,33.8587003 L71.5178078,33.587272 L71.6574772,33.3367229 L71.4972681,32.9307406 L71.4171636,32.2463703 L71.4171636,31.5202418 L71.4972681,31.0237834 L71.7375818,30.5899622 L71.8176863,30.8381914 L71.8587656,32.1094962 L72.0785396,32.3623652 L72.3804722,31.838068 L72.8652074,30.6804383 L73.3068094,30.7941134 L73.3458347,31.2952116 L73.1055211,32.3159673 L73.4074536,32.4505214 L73.7278718,33.0861738 L73.9291602,33.1998489 L74.1489342,32.9956977 L74.2105531,32.6314736 L74.2290388,32.1999723 L74.329683,31.814869 L74.4693524,32.0862972 L74.5309713,32.3832443 L74.4898921,32.6314736 L74.3892479,32.8611436 L74.6501012,33.1766499 L75.0157066,33.0861738 L75.436769,32.8611436 L75.878371,32.7219496 L75.9173963,32.9307406 L75.656543,33.1093728 L75.1759157,33.543194 L75.0157066,33.7682242 L75.0567858,33.9723753 L75.4963339,34.0628514 L75.7982664,33.9259773 L76.0180405,33.6777481 L76.319973,33.450398 L76.319973,34.0860504 L76.8006003,34.4943526 L77.4660843,34.7193829 L77.9877909,34.7425819 L78.4293929,34.4479547 L78.6512209,33.9723753 L78.8915346,32.8147456 L79.0106644,32.7915466 L79.090769,32.8611436 L79.2119528,32.9307406 L79.090769,33.4295189 L79.1523879,34.3806776 L78.9921788,34.923534 L78.7908904,35.1740831 L78.4910118,35.3782343 L77.8481214,35.6287834 L75.5579528,35.2413602 L75.1964553,35.4246322 L74.935602,35.3109572 L74.6706408,35.1276851 L74.7918246,35.0140101 L75.0362462,34.6289068 L74.7507454,34.7657809 L74.270118,35.1508841 L73.9681855,35.3109572 L73.6272277,35.4014332 L72.6454334,35.4246322 L72.9268263,35.7424584 L73.0459562,35.8561335 L73.2061653,35.9234106 L73.2472445,36.1298816 L72.9062867,36.8536902 L72.8261821,37.3060705 L73.1260607,37.4220655 L73.7689511,37.2619924 L74.0092648,37.1042393 L74.1900135,36.8536902 L74.270118,36.605461 L74.2495784,36.4477078 L74.2886037,36.3340327 L74.5104317,36.2435567 L74.6911804,36.1971587 L74.8308499,36.1971587 L74.9561417,36.2203577 L75.0567858,36.3108338 L75.1964553,36.605461 L74.935602,37.0810403 L75.1163508,37.3524685 L74.7507454,37.6934937 L74.3091433,37.9672418 L73.9681855,38.3059471 L73.9086206,38.8302443 L73.9681855,39.6004509 L73.8490556,40.0760302 L73.6272277,40.0528312 L73.4074536,39.3962997 L73.16714,39.1689496 L72.7851029,39.1921486 L72.499602,39.4867758 L72.6454334,40.0992292 L72.7851029,40.2337834 L73.0254165,40.3497783 L73.2472445,40.5307305 L73.5080978,41.1455038 L73.7073322,41.46333 L73.9086206,41.7347582 L74.0688297,41.8693123 L74.8965767,42.8251108 L75.436769,43.4584433 L75.6976223,44.2309698 L75.8188061,44.2077708 L75.7571872,43.5512393 L75.2169949,42.2776146 L75.3977437,41.9829874 L75.7982664,42.1639395 L77.3859798,43.6185164 L77.6879123,44.1172947 L77.868661,44.2773678 L78.4499325,44.3214458 L78.6902462,44.502398 L79.6371231,45.6600277 L79.918516,45.8177809 L80.0581855,45.4790756 L80.1382901,44.6601511 L80.0581855,44.2541688 L79.9370017,43.8690655 L79.7377673,43.6185164 L79.476914,43.5280403 L79.7172277,42.6859169 L80.1588297,41.7347582 L80.6209713,41.2591788 L80.9413895,41.8693123 L80.9003103,42.3448917 L80.3786037,42.7995919 L80.3190388,43.2078942 L80.4587083,43.4584433 L80.6805363,43.6649144 L80.9208499,43.8226675 L81.081059,43.9827406 L81.1611636,44.2541688 L81.2022428,44.548796 L81.2412681,44.8202242 L81.3829916,44.9547783 L81.4815818,44.639272 L81.6479528,42.753194 L81.746543,42.4817657 L82.5496425,40.8253577 L82.5886678,40.5307305 L82.5701821,40.1665063 L82.5886678,39.8718791 L82.7098516,39.735005 L82.9912445,39.690927 L83.0508094,39.804602 L83.0302698,39.9623552 L83.0302698,40.6444055 L82.9316796,41.1455038 L82.5085632,42.5954408 L82.3894334,43.3006902 L82.4284587,43.9827406 L82.7509309,44.525597 L83.1719933,44.6833501 L84.1188702,44.525597 L84.4988533,44.639272 L83.7922901,45.2494055 L82.9912445,45.7273048 L82.4284587,46.3884761 L82.3688938,47.587864 L82.5085632,48.1794383 L82.629747,48.4067884 L82.7694165,48.4508665 L82.9316796,48.3163123 L82.9316796,48.0657632 L82.8906003,47.7920151 L82.9707049,47.564665 L83.3712277,47.3164358 L84.3591838,47.2027607 L84.8007858,46.8640554 L85.0801248,46.8640554 L85.4416223,46.7271814 L85.7640944,46.7503804 L85.8832243,47.0450076 L85.7640944,47.2491587 L85.1602293,47.5205869 L84.9609949,47.701539 L85.121204,47.8592922 L85.0801248,48.1585592 L84.9404553,48.4276675 L84.7597066,48.6805365 L84.5584182,48.8382897 L84.6200371,49.0656398 L84.7001417,49.0888388 L84.7391669,49.1097179 L84.7391669,49.1561159 L84.8007858,49.2233929 L85.0205599,48.9983627 L85.3224924,48.8614887 L85.842145,48.7478136 L86.1276459,48.5204635 L86.287855,48.1585592 L86.4686037,47.8848111 L86.7910759,47.8848111 L86.6103272,48.4972645 L85.8626847,49.7453703 L85.7230152,50.1536725 L85.6018314,50.2882267 L85.0410995,50.5410957 L84.9609949,50.7893249 L84.9199157,51.13267 L84.6200371,52.0374307 L84.4988533,52.2647809 L84.5584182,52.2879798 L84.6200371,52.2879798 L84.6590624,52.3088589 L84.679602,52.468932 L84.8192715,52.422534 L84.8808904,52.2183829 L84.9815346,52.0606297 L85.1417437,51.9469547 L85.3224924,51.8796776 L85.3019528,52.2879798 L85.1602293,52.5594081 L85.0205599,52.7844383 L84.9404553,53.0373073 L84.9609949,53.3087355 L85.0410995,53.4224106 L85.121204,53.5128866 L85.2013086,53.7193577 L85.4231366,53.8098338 L85.7825801,53.3992116 L86.287855,52.5826071 L86.6698921,52.1070277 L87.1505194,51.9237557 L89.0812445,51.6291285 L89.5023069,51.6291285 L89.7631602,51.6987254 L89.8432648,51.2231461 L89.9233693,50.7452469 L90.0240135,50.5619748 L90.5251804,50.3555038 L91.4124924,49.9935995 L92.0944081,49.6989723 L93.1213895,49.2929899 L94.0230793,48.9055668 L94.6043508,48.6805365 L95.0069275,48.4972645 L95.0069275,48.2467154 L95.1691906,46.6367053 L95.0254132,46.4325542 L95.1301653,46.274801 L95.3499393,45.6832267 L95.5122024,45.4790756 L95.7114368,45.4349975 L96.1324992,45.5022746 L96.2742226,45.4558766 L96.3728128,45.1357305 L96.4138921,44.1404937 L96.473457,43.9131436 L96.6336661,43.5976373 L96.5741012,41.7788363 L96.7158246,41.3728539 L96.9355987,41.0318287 L97.5209781,40.4402544 L97.3813086,41.1455038 L97.5004384,41.3728539 L98.1823541,41.1455038 L98.3446172,40.8926348 L98.3446172,40.8926348 Z" id="Stroke-62" stroke="#F9F9F9" stroke-width="0.25" stroke-linecap="round" stroke-linejoin="round"></path>
            </g>
        </g>
    </g>
</svg>