<?xml version="1.0" encoding="UTF-8"?>
<svg width="69px" height="130px" viewBox="0 0 69 130" version="1.1" xmlns="http://www.w3.org/2000/svg" xmlns:xlink="http://www.w3.org/1999/xlink">
    <!-- Generator: Sketch 51 (57462) - http://www.bohemiancoding.com/sketch -->
    <title>Indiana</title>
    <desc>Created with Sketch.</desc>
    <defs></defs>
    <g id="Page-1" stroke="none" stroke-width="1" fill="none" fill-rule="evenodd">
        <g id="A5" transform="translate(-853.000000, -280.000000)">
            <g id="Indiana" transform="translate(853.000000, 280.000000)">
                <polygon id="Fill-71" fill="#D6D6D6" points="67.7223912 87.2725793 67.9442192 86.7065239 67.9236796 86.2495038 67.4368904 86.1358287 66.514661 86.2263048 66.1531636 86.0917506 65.853285 85.7484055 66.0134941 85.4328992 66.6563845 84.5026196 66.796054 83.9342443 66.6153052 83.4331461 66.2538078 83.0248438 65.5924317 82.4379093 65.4322226 81.4844307 65.9724148 80.5982292 66.3339123 80.257204 65.7731804 75.3552569 65.4917875 72.9263224 65.2062867 70.4741889 64.9269477 68.0243753 64.6455548 65.5954408 64.3641619 63.1433073 64.0848229 60.7143728 63.80343 58.2668791 63.5425767 55.8379446 63.2611838 53.41133 62.975683 50.9568766 62.696344 48.5279421 62.4149511 46.0781285 61.8542192 41.2202594 61.5728263 38.7704458 61.0120944 33.9148967 60.7265936 31.4859622 60.4657403 29.0570277 60.1843474 26.6280932 59.9050084 24.1759597 58.7814907 14.4625416 58.4959899 12.0336071 57.935258 7.19893703 57.6744047 4.77000252 57.3930118 2.34106801 57.1711838 0.617382872 55.5834705 0.847052897 53.9957572 1.09528212 52.4306374 1.34583123 50.8408702 1.57086146 49.2531568 1.82141058 47.6674975 2.04644081 46.0797841 2.29698992 44.5105565 2.54521914 42.9269511 2.77488917 41.3371838 2.9999194 39.7494705 3.22726952 38.1617572 3.48013854 36.5966374 3.70516877 33.4191568 4.15754912 31.8334975 4.38489924 30.2457841 4.61224937 28.6580708 4.8372796 27.0683035 5.06462972 23.8949309 5.49845088 22.3257032 5.72348111 20.7215582 5.92763224 19.1543845 6.15730227 17.5646172 6.3614534 15.9810118 6.58648363 15.3750927 6.6560806 11.8011973 9.51419647 8.42242833 11.3538766 6.59234739 11.8062569 4.62259696 11.6925819 4.16250927 11.5812267 3.82155143 11.3770756 3.6408027 11.0105315 3.6408027 10.377199 3.01845194 10.7391033 2.25232378 10.2635239 1.59094772 9.4469194 1.62997302 9.7415466 2.05103541 14.0774383 2.4782597 18.4110101 2.89726813 22.7445819 3.29984486 27.0804736 4.56303204 40.0881486 4.98820236 44.4217204 5.40926476 48.7784912 5.83032715 53.112063 6.25138954 57.4711537 7.09967622 66.1870151 7.50019899 70.5437859 7.94180101 74.8796776 8.36286341 79.2387683 8.46145363 80.3940781 8.4018887 80.5286322 7.19826644 81.3707557 6.85320067 81.869534 6.69299157 82.5051864 6.85320067 83.0039647 7.4385801 83.9574433 7.53922428 85.2496272 6.3314941 86.9083552 6.37257336 88.063665 6.51224283 88.3142141 6.67245194 88.4278892 7.01751771 88.6111612 7.74051265 89.2700126 8.00136594 89.7687909 8.30124452 90.8777028 8.46145363 91.355602 8.74284654 91.6734282 9.42887015 92.1977254 9.60961889 92.5596297 9.7308027 93.7845365 9.68972344 94.1464408 9.44940978 94.647539 9.41038449 95.0117632 9.74928836 96.099796 10.3326138 97.1901486 10.712597 98.3454584 10.2709949 100.637519 10.1908904 100.864869 9.95057673 100.955345 9.65069815 101.001743 9.44940978 101.06902 9.12488364 101.433244 8.86403035 101.978421 8.74284654 102.614073 8.90305565 103.203327 8.86403035 103.361081 8.80446543 103.497955 8.74284654 103.588431 8.66274199 103.658028 8.7839258 103.658028 8.54361214 103.862179 8.28275885 104.156806 8.10201012 104.52103 8.04244519 104.99661 8.16157504 105.45131 8.58263744 106.038244 8.62371669 106.404788 8.50253288 106.743494 8.4018887 106.743494 8.26221922 106.629819 8.06093086 106.655338 7.92126138 106.810771 7.71997302 107.154116 7.55976391 107.358267 6.91892749 107.810647 6.2924688 108.128474 6.3314941 108.355824 6.67245194 108.67133 6.63342664 109.286103 6.37257336 109.968154 6.09118044 110.466932 5.95151096 110.578287 5.5509882 110.805637 5.38872513 110.96571 5.24905565 111.329935 5.12787184 112.032864 5.00874199 112.397088 4.96766273 112.668516 4.98820236 113.05362 4.96766273 113.392325 4.82799325 113.575597 4.62259696 113.461922 4.50346712 113.188174 4.42336256 112.895866 4.32271838 112.782191 4.1830489 112.895866 4.02078583 113.144096 3.92219562 113.392325 3.8010118 113.983899 3.56069815 113.849345 3.32038449 113.529199 3.27930523 113.348247 2.87878246 113.506 2.71857336 113.893423 2.6384688 114.41772 2.53782462 114.916499 2.37350759 115.211126 2.21329848 115.392078 2.07157504 115.617108 2.05103541 116.002212 2.13319393 116.322358 2.3118887 116.526509 2.4782597 116.707461 2.57684992 116.888413 2.79867791 117.141282 3.24027993 117.366312 3.54015852 117.66094 3.35940978 118.226995 3.17866105 118.387068 2.71857336 118.56802 2.53782462 118.774491 2.1126543 119.340547 1.67105228 119.795247 2.03254975 119.953 2.6774941 119.772048 3.03899157 120.066675 2.75759865 120.4077 2.43718044 120.702327 2.07157504 120.950557 1.71007757 121.064232 1.46976391 121.221985 1.83126138 121.927234 1.61148735 122.314657 1.7306172 122.609285 1.85180101 123.084864 1.91136594 123.560443 1.83126138 123.764594 1.65051265 123.947866 1.67105228 124.33297 1.85180101 124.924544 1.95244519 125.332846 2.03254975 125.627474 1.99147049 125.852504 1.67105228 126.079854 1.46976391 126.103053 0.487969646 126.035776 0.888492411 126.490476 2.05103541 127.490353 2.21329848 127.805859 2.01201012 127.965932 1.67105228 128.033209 1.04870152 128.056408 0.989136594 128.123685 0.989136594 128.281438 1.08978078 128.418312 1.22945025 128.46239 1.65051265 128.46239 2.17221922 128.622463 2.65695447 128.485589 3.0595312 128.599264 3.88111636 129.053965 4.28163912 129.123562 4.36174368 128.919411 5.22851602 127.55763 4.42336256 125.831625 4.28163912 125.446521 4.38228331 124.78767 4.72734907 124.493043 5.20797639 124.539441 5.64957841 124.880466 6.01107589 125.265569 6.37257336 125.581076 6.79363575 125.762028 7.27837099 125.808426 7.69943339 125.694751 8.52307251 125.265569 8.72230691 125.219171 8.90305565 124.970942 9.20909612 124.720393 9.57059359 124.653116 9.87047218 124.857267 9.95057673 125.265569 9.82939292 126.284005 9.91155143 126.738705 10.433258 127.035652 11.0535548 126.671428 11.540344 125.922101 11.6800135 125.061418 11.4992648 124.469844 11.0330152 123.62772 10.8728061 122.971189 10.9138853 122.586086 11.0330152 122.381935 11.2343035 122.314657 11.3945126 122.381935 11.540344 122.586086 11.5793693 123.084864 11.6594739 123.379491 12.483113 124.084741 13.3046981 123.764594 14.1303912 123.131262 15.0135953 122.746159 15.4757369 122.813436 16.0015514 123.017587 16.521204 123.312214 16.9422664 123.62772 17.3653828 123.880589 18.8729916 124.33297 19.6945767 124.810869 19.9369444 124.901345 20.2368229 124.947743 20.6414536 124.924544 20.9023069 125.01502 21.0234907 125.265569 21.1241349 125.604275 21.2638044 125.922101 21.6253019 126.353602 21.8450759 126.513675 22.0853895 126.648229 22.7118482 126.056655 22.9727015 125.286448 23.3732243 123.312214 23.5745126 122.790237 23.7942867 122.428332 24.05514 122.156904 24.4166374 121.927234 25.6449073 121.609408 25.9242462 121.405257 26.3473626 120.816003 27.0888432 119.999398 27.8344317 119.567897 28.2349545 120.066675 28.4958078 120.836882 29.038054 121.588529 29.7651568 122.087307 30.5271771 122.156904 31.4494064 121.813559 31.8745767 121.883156 31.693828 122.518809 31.5685363 123.061665 31.9341417 123.312214 32.4353086 123.265816 32.856371 122.880713 32.9570152 122.24738 32.8974503 121.655806 32.9775548 121.177907 34.0846408 120.746406 34.3249545 120.4077 34.3454941 119.953 34.0641012 117.978766 34.1051804 117.322234 34.3454941 117.004408 34.8076358 116.911612 35.2677234 116.663383 35.5901956 116.229562 35.6086813 115.57303 35.4484722 115.255204 35.0274098 114.846902 34.9082799 114.531395 34.9883845 114.234448 35.2286981 114.211249 35.4895514 114.324924 35.6292209 114.440919 35.7709444 114.712348 36.0297437 114.756426 36.5350185 114.642751 37.3791973 114.074375 37.6996155 113.552398 37.4983272 113.348247 37.0382395 113.257771 36.5966374 113.030421 36.2741653 112.510763 36.4754536 112.283413 36.9375953 112.260214 37.3586577 112.417967 38.5663879 113.234572 38.7861619 113.552398 38.8662664 114.846902 38.946371 115.301602 39.1887386 115.707584 39.5687218 115.981332 40.4519258 116.368756 40.8360169 116.640184 41.2981585 116.844335 42.380597 116.774738 42.8632782 116.844335 43.7896155 117.707338 44.2907825 118.046043 44.4715312 117.797814 44.6317403 117.252637 45.093882 116.981209 46.1208634 116.616985 46.3406374 116.412834 46.5213862 116.162285 46.6610556 115.890856 46.7616998 115.617108 46.9013693 114.802824 46.7616998 111.89831 46.8007251 111.260338 46.9219089 110.557408 47.1437369 109.991353 47.4867487 109.717605 47.6490118 109.422977 47.96943 108.105275 48.2097437 107.696972 48.4315717 107.676093 48.7314503 107.720171 49.0128432 107.787448 49.131973 107.877924 49.2531568 108.128474 49.5140101 108.105275 50.2801383 107.720171 50.680661 107.381466 51.3625767 106.629819 51.7035346 105.518587 51.8842833 102.795025 52.4306374 101.843866 52.8516998 101.637395 53.7328499 101.389166 54.0347825 101.06902 54.2997437 100.502965 54.5400573 100.094662 55.5629309 98.9811108 55.8032445 98.5032116 55.8443238 97.9162771 55.2630523 96.8050453 54.8604755 94.9885642 54.6612411 94.603461 54.4188735 93.9886877 54.3593086 93.4203123 54.7208061 93.1024861 57.1321585 92.4923526 58.4754503 92.3554786 58.8615953 92.5132317 59.7037201 93.3298363 60.1453221 93.5595063 60.9915548 93.2161612 63.80343 90.6062746 65.0871568 89.7687909 65.7937201 89.5414408 67.5375346 89.4973627 67.8024958 89.2700126 67.3978651 88.3142141 67.4779696 87.7017607"></polygon>
                <polygon id="Stroke-72" stroke="#F9F9F9" stroke-width="0.25" stroke-linecap="round" stroke-linejoin="round" points="67.7223912 87.2725793 67.9442192 86.7065239 67.9236796 86.2495038 67.4368904 86.1358287 66.514661 86.2263048 66.1531636 86.0917506 65.853285 85.7484055 66.0134941 85.4328992 66.6563845 84.5026196 66.796054 83.9342443 66.6153052 83.4331461 66.2538078 83.0248438 65.5924317 82.4379093 65.4322226 81.4844307 65.9724148 80.5982292 66.3339123 80.257204 65.7731804 75.3552569 65.4917875 72.9263224 65.2062867 70.4741889 64.9269477 68.0243753 64.6455548 65.5954408 64.3641619 63.1433073 64.0848229 60.7143728 63.80343 58.2668791 63.5425767 55.8379446 63.2611838 53.41133 62.975683 50.9568766 62.696344 48.5279421 62.4149511 46.0781285 61.8542192 41.2202594 61.5728263 38.7704458 61.0120944 33.9148967 60.7265936 31.4859622 60.4657403 29.0570277 60.1843474 26.6280932 59.9050084 24.1759597 58.7814907 14.4625416 58.4959899 12.0336071 57.935258 7.19893703 57.6744047 4.77000252 57.3930118 2.34106801 57.1711838 0.617382872 55.5834705 0.847052897 53.9957572 1.09528212 52.4306374 1.34583123 50.8408702 1.57086146 49.2531568 1.82141058 47.6674975 2.04644081 46.0797841 2.29698992 44.5105565 2.54521914 42.9269511 2.77488917 41.3371838 2.9999194 39.7494705 3.22726952 38.1617572 3.48013854 36.5966374 3.70516877 33.4191568 4.15754912 31.8334975 4.38489924 30.2457841 4.61224937 28.6580708 4.8372796 27.0683035 5.06462972 23.8949309 5.49845088 22.3257032 5.72348111 20.7215582 5.92763224 19.1543845 6.15730227 17.5646172 6.3614534 15.9810118 6.58648363 15.3750927 6.6560806 11.8011973 9.51419647 8.42242833 11.3538766 6.59234739 11.8062569 4.62259696 11.6925819 4.16250927 11.5812267 3.82155143 11.3770756 3.6408027 11.0105315 3.6408027 10.377199 3.01845194 10.7391033 2.25232378 10.2635239 1.59094772 9.4469194 1.62997302 9.7415466 2.05103541 14.0774383 2.4782597 18.4110101 2.89726813 22.7445819 3.29984486 27.0804736 4.56303204 40.0881486 4.98820236 44.4217204 5.40926476 48.7784912 5.83032715 53.112063 6.25138954 57.4711537 7.09967622 66.1870151 7.50019899 70.5437859 7.94180101 74.8796776 8.36286341 79.2387683 8.46145363 80.3940781 8.4018887 80.5286322 7.19826644 81.3707557 6.85320067 81.869534 6.69299157 82.5051864 6.85320067 83.0039647 7.4385801 83.9574433 7.53922428 85.2496272 6.3314941 86.9083552 6.37257336 88.063665 6.51224283 88.3142141 6.67245194 88.4278892 7.01751771 88.6111612 7.74051265 89.2700126 8.00136594 89.7687909 8.30124452 90.8777028 8.46145363 91.355602 8.74284654 91.6734282 9.42887015 92.1977254 9.60961889 92.5596297 9.7308027 93.7845365 9.68972344 94.1464408 9.44940978 94.647539 9.41038449 95.0117632 9.74928836 96.099796 10.3326138 97.1901486 10.712597 98.3454584 10.2709949 100.637519 10.1908904 100.864869 9.95057673 100.955345 9.65069815 101.001743 9.44940978 101.06902 9.12488364 101.433244 8.86403035 101.978421 8.74284654 102.614073 8.90305565 103.203327 8.86403035 103.361081 8.80446543 103.497955 8.74284654 103.588431 8.66274199 103.658028 8.7839258 103.658028 8.54361214 103.862179 8.28275885 104.156806 8.10201012 104.52103 8.04244519 104.99661 8.16157504 105.45131 8.58263744 106.038244 8.62371669 106.404788 8.50253288 106.743494 8.4018887 106.743494 8.26221922 106.629819 8.06093086 106.655338 7.92126138 106.810771 7.71997302 107.154116 7.55976391 107.358267 6.91892749 107.810647 6.2924688 108.128474 6.3314941 108.355824 6.67245194 108.67133 6.63342664 109.286103 6.37257336 109.968154 6.09118044 110.466932 5.95151096 110.578287 5.5509882 110.805637 5.38872513 110.96571 5.24905565 111.329935 5.12787184 112.032864 5.00874199 112.397088 4.96766273 112.668516 4.98820236 113.05362 4.96766273 113.392325 4.82799325 113.575597 4.62259696 113.461922 4.50346712 113.188174 4.42336256 112.895866 4.32271838 112.782191 4.1830489 112.895866 4.02078583 113.144096 3.92219562 113.392325 3.8010118 113.983899 3.56069815 113.849345 3.32038449 113.529199 3.27930523 113.348247 2.87878246 113.506 2.71857336 113.893423 2.6384688 114.41772 2.53782462 114.916499 2.37350759 115.211126 2.21329848 115.392078 2.07157504 115.617108 2.05103541 116.002212 2.13319393 116.322358 2.3118887 116.526509 2.4782597 116.707461 2.57684992 116.888413 2.79867791 117.141282 3.24027993 117.366312 3.54015852 117.66094 3.35940978 118.226995 3.17866105 118.387068 2.71857336 118.56802 2.53782462 118.774491 2.1126543 119.340547 1.67105228 119.795247 2.03254975 119.953 2.6774941 119.772048 3.03899157 120.066675 2.75759865 120.4077 2.43718044 120.702327 2.07157504 120.950557 1.71007757 121.064232 1.46976391 121.221985 1.83126138 121.927234 1.61148735 122.314657 1.7306172 122.609285 1.85180101 123.084864 1.91136594 123.560443 1.83126138 123.764594 1.65051265 123.947866 1.67105228 124.33297 1.85180101 124.924544 1.95244519 125.332846 2.03254975 125.627474 1.99147049 125.852504 1.67105228 126.079854 1.46976391 126.103053 0.487969646 126.035776 0.888492411 126.490476 2.05103541 127.490353 2.21329848 127.805859 2.01201012 127.965932 1.67105228 128.033209 1.04870152 128.056408 0.989136594 128.123685 0.989136594 128.281438 1.08978078 128.418312 1.22945025 128.46239 1.65051265 128.46239 2.17221922 128.622463 2.65695447 128.485589 3.0595312 128.599264 3.88111636 129.053965 4.28163912 129.123562 4.36174368 128.919411 5.22851602 127.55763 4.42336256 125.831625 4.28163912 125.446521 4.38228331 124.78767 4.72734907 124.493043 5.20797639 124.539441 5.64957841 124.880466 6.01107589 125.265569 6.37257336 125.581076 6.79363575 125.762028 7.27837099 125.808426 7.69943339 125.694751 8.52307251 125.265569 8.72230691 125.219171 8.90305565 124.970942 9.20909612 124.720393 9.57059359 124.653116 9.87047218 124.857267 9.95057673 125.265569 9.82939292 126.284005 9.91155143 126.738705 10.433258 127.035652 11.0535548 126.671428 11.540344 125.922101 11.6800135 125.061418 11.4992648 124.469844 11.0330152 123.62772 10.8728061 122.971189 10.9138853 122.586086 11.0330152 122.381935 11.2343035 122.314657 11.3945126 122.381935 11.540344 122.586086 11.5793693 123.084864 11.6594739 123.379491 12.483113 124.084741 13.3046981 123.764594 14.1303912 123.131262 15.0135953 122.746159 15.4757369 122.813436 16.0015514 123.017587 16.521204 123.312214 16.9422664 123.62772 17.3653828 123.880589 18.8729916 124.33297 19.6945767 124.810869 19.9369444 124.901345 20.2368229 124.947743 20.6414536 124.924544 20.9023069 125.01502 21.0234907 125.265569 21.1241349 125.604275 21.2638044 125.922101 21.6253019 126.353602 21.8450759 126.513675 22.0853895 126.648229 22.7118482 126.056655 22.9727015 125.286448 23.3732243 123.312214 23.5745126 122.790237 23.7942867 122.428332 24.05514 122.156904 24.4166374 121.927234 25.6449073 121.609408 25.9242462 121.405257 26.3473626 120.816003 27.0888432 119.999398 27.8344317 119.567897 28.2349545 120.066675 28.4958078 120.836882 29.038054 121.588529 29.7651568 122.087307 30.5271771 122.156904 31.4494064 121.813559 31.8745767 121.883156 31.693828 122.518809 31.5685363 123.061665 31.9341417 123.312214 32.4353086 123.265816 32.856371 122.880713 32.9570152 122.24738 32.8974503 121.655806 32.9775548 121.177907 34.0846408 120.746406 34.3249545 120.4077 34.3454941 119.953 34.0641012 117.978766 34.1051804 117.322234 34.3454941 117.004408 34.8076358 116.911612 35.2677234 116.663383 35.5901956 116.229562 35.6086813 115.57303 35.4484722 115.255204 35.0274098 114.846902 34.9082799 114.531395 34.9883845 114.234448 35.2286981 114.211249 35.4895514 114.324924 35.6292209 114.440919 35.7709444 114.712348 36.0297437 114.756426 36.5350185 114.642751 37.3791973 114.074375 37.6996155 113.552398 37.4983272 113.348247 37.0382395 113.257771 36.5966374 113.030421 36.2741653 112.510763 36.4754536 112.283413 36.9375953 112.260214 37.3586577 112.417967 38.5663879 113.234572 38.7861619 113.552398 38.8662664 114.846902 38.946371 115.301602 39.1887386 115.707584 39.5687218 115.981332 40.4519258 116.368756 40.8360169 116.640184 41.2981585 116.844335 42.380597 116.774738 42.8632782 116.844335 43.7896155 117.707338 44.2907825 118.046043 44.4715312 117.797814 44.6317403 117.252637 45.093882 116.981209 46.1208634 116.616985 46.3406374 116.412834 46.5213862 116.162285 46.6610556 115.890856 46.7616998 115.617108 46.9013693 114.802824 46.7616998 111.89831 46.8007251 111.260338 46.9219089 110.557408 47.1437369 109.991353 47.4867487 109.717605 47.6490118 109.422977 47.96943 108.105275 48.2097437 107.696972 48.4315717 107.676093 48.7314503 107.720171 49.0128432 107.787448 49.131973 107.877924 49.2531568 108.128474 49.5140101 108.105275 50.2801383 107.720171 50.680661 107.381466 51.3625767 106.629819 51.7035346 105.518587 51.8842833 102.795025 52.4306374 101.843866 52.8516998 101.637395 53.7328499 101.389166 54.0347825 101.06902 54.2997437 100.502965 54.5400573 100.094662 55.5629309 98.9811108 55.8032445 98.5032116 55.8443238 97.9162771 55.2630523 96.8050453 54.8604755 94.9885642 54.6612411 94.603461 54.4188735 93.9886877 54.3593086 93.4203123 54.7208061 93.1024861 57.1321585 92.4923526 58.4754503 92.3554786 58.8615953 92.5132317 59.7037201 93.3298363 60.1453221 93.5595063 60.9915548 93.2161612 63.80343 90.6062746 65.0871568 89.7687909 65.7937201 89.5414408 67.5375346 89.4973627 67.8024958 89.2700126 67.3978651 88.3142141 67.4779696 87.7017607"></polygon>
            </g>
        </g>
    </g>
</svg>