<?xml version="1.0" encoding="UTF-8"?>
<svg width="142px" height="187px" viewBox="0 0 142 187" version="1.1" xmlns="http://www.w3.org/2000/svg" xmlns:xlink="http://www.w3.org/1999/xlink">
    <!-- Generator: Sketch 51 (57462) - http://www.bohemiancoding.com/sketch -->
    <title>Arizona</title>
    <desc>Created with Sketch.</desc>
    <defs></defs>
    <g id="Page-1" stroke="none" stroke-width="1" fill="none" fill-rule="evenodd">
        <g id="A5" transform="translate(-260.000000, -426.000000)">
            <g id="Arizona" transform="translate(260.000000, 426.000000)">
                <polygon id="Fill-94" fill="#D6D6D6" points="139.683352 40.6547431 139.299261 46.0369093 138.896685 51.4144358 138.514648 56.7942821 138.114125 62.1741285 137.734142 67.5748539 137.329511 72.9523804 136.565437 83.735272 135.764391 94.5135239 135.382354 99.8956902 134.998263 105.273217 134.59774 110.673942 134.195164 116.051469 133.433143 126.857559 133.030567 132.235086 132.64853 137.635811 132.248007 143.015657 131.863916 148.418703 131.463393 153.819428 131.081356 159.199275 130.680833 164.6 130.296742 170.000725 129.894165 175.380572 129.514182 180.783617 129.111605 186.184343 129.111605 186.318897 128.589899 186.274819 127.603997 186.184343 126.620148 186.093866 125.6363 186.00339 124.650398 185.912914 123.66655 185.822438 122.680648 185.731962 121.698853 185.641486 120.712951 185.54869 119.729103 185.435015 118.743201 185.342219 117.759352 185.251743 116.775504 185.163587 115.789602 185.070791 114.8037 184.959436 113.819852 184.86664 112.836003 184.755285 111.850101 184.664809 110.868307 184.574332 109.882405 184.460657 108.898556 184.370181 107.912654 184.279705 106.928806 184.16371 105.944958 184.070914 104.959056 183.959559 103.975207 183.869083 102.989305 183.755408 102.005457 183.664932 101.021609 183.551257 100.035707 183.460781 99.070344 183.347106 98.0659562 183.25663 97.1026476 183.142955 96.1167454 183.02928 95.1328971 182.938804 94.1490489 182.822809 93.1631467 182.711453 92.1792985 182.620977 91.1933963 182.507302 90.2095481 182.393627 89.2256998 182.279952 88.2397976 182.189476 87.2559494 182.075801 86.2721012 181.964446 85.286199 181.850771 83.9613929 181.711577 82.5934536 181.349673 81.9916425 181.008647 80.8455312 180.372995 79.7014739 179.739662 78.5759022 179.10169 77.4297909 178.445159 76.2857336 177.809506 75.1601619 177.173854 74.0140506 176.538202 72.8884789 175.88167 63.8469342 170.910126 54.8649545 165.917703 45.8829747 160.855683 36.9400202 155.793662 28.0196594 150.664365 19.1362698 145.514189 10.2960135 140.338494 1.47424283 135.116401 0.671143339 134.638501 0.570499157 134.573544 0.892971332 134.278917 1.35511298 133.074889 1.4537032 132.439237 1.33457336 131.782705 1.79671501 131.031058 1.93638449 130.847786 2.51970995 130.397725 2.72099831 130.216773 3.04141653 129.738874 3.28378415 129.240096 3.54463744 128.513967 3.68430691 128.128864 4.62912985 127.558169 6.92135245 128.44437 7.90520067 128.353894 8.16605396 127.924713 8.26669815 127.377217 8.30572344 126.83436 8.44744688 126.312383 8.78840472 125.948159 9.71268803 125.428501 10.0146206 125.064277 10.1542901 124.428625 10.0146206 122.431191 10.0947251 122.043768 10.1748297 121.77234 10.2159089 121.477713 10.1748297 121.069411 9.67366273 119.955859 8.94861383 119.343406 6.92135245 118.867826 6.07511973 118.345849 5.53287352 117.16502 5.73416189 116.121065 6.19630354 115.033033 6.47769646 113.738529 6.45715683 111.968446 6.35856661 111.536945 5.75470152 110.516189 5.75470152 110.061489 6.07511973 109.242564 6.37705228 108.973456 6.49823609 108.722907 6.39759191 108.381882 6.25586847 108.110453 6.05663406 107.678952 5.99501518 107.314728 6.2373828 107.177854 7.34241484 107.26833 7.92368634 107.156975 8.36734233 106.883227 9.39226981 105.226819 9.69420236 104.523889 9.95505565 104.247821 10.4562226 103.797761 10.819774 103.410338 10.9183642 103.206186 11.0395481 102.821083 10.9984688 102.139033 11.0600877 101.73305 11.2593221 101.596176 11.3599663 101.459302 11.4215852 101.120597 11.4811501 100.461746 11.6618988 99.7332972 11.9638314 99.348194 12.2657639 99.0303678 12.4649983 98.6243854 12.2842496 98.0328111 12.2246847 97.6917859 12.3664081 97.5572317 12.4649983 97.3971587 12.5266172 97.0561335 12.5471568 96.6942292 12.4855379 96.5132771 12.2452243 96.1490529 12.2657639 95.3997254 12.3458685 94.627199 12.3458685 94.1748186 12.8080101 93.8569924 13.0072445 93.6087632 13.0072445 93.3326952 12.647801 92.6761637 12.5060776 92.3142594 12.4649983 91.9500353 12.6868263 91.2935038 13.089403 90.9269597 14.0527116 90.4073023 14.4552884 90.0430781 14.8784047 89.6115768 15.1988229 89.0687204 15.5212951 87.7974156 15.8211737 87.2754383 16.2237504 86.8880151 17.0679292 86.730262 19.5593862 85.2292872 20.0009882 85.16433 20.8246273 84.2340504 21.6688061 83.5079219 22.4328803 83.0068237 22.6731939 82.6217204 22.613629 81.962869 22.6547083 81.5545668 22.0097639 80.9212343 21.7899899 80.5570101 21.5887015 80.3296599 21.227204 80.0350327 19.5593862 78.2417506 19.2779933 77.7429723 19.1773491 77.6292972 18.7768263 77.220995 18.6967218 77.105 18.5344587 76.8567708 18.4543541 76.7662947 18.3742496 76.7198967 18.2736054 76.6758186 17.9716728 76.6294207 17.850489 76.5621436 17.7518988 76.4043904 17.6697403 76.2002393 17.6512546 75.8128161 17.6512546 75.539068 17.6697403 75.5181889 17.8320034 75.0634887 17.9922125 74.6575063 17.8114637 74.3164811 17.7703845 74.2909622 17.7313592 73.6576297 17.5300708 73.3166045 17.2692175 73.0219773 17.0473895 72.476801 17.0473895 72.2726499 17.1685734 71.5697204 17.1685734 71.3191713 17.0884688 71.1614181 17.0083642 71.0222242 15.9628971 67.4611788 15.3795717 67.2570277 14.9585093 66.8719244 14.7366813 66.259471 14.7983002 65.3941486 14.7572209 65.0113652 14.6360371 64.5125869 14.4347487 64.0555668 14.1328162 63.8305365 13.812398 63.6495844 13.6932681 63.2621612 13.8719629 59.6779169 13.8925025 59.4505668 13.9130422 59.1095416 13.812398 58.086466 14.4142091 57.4067355 14.5353929 57.1121083 14.4963676 56.703806 14.1554098 56.0913526 14.0732513 55.7944055 14.1944351 55.3861033 14.4347487 55.3188262 14.7366813 55.3629043 15.0591535 55.3188262 15.3405464 55.2283501 15.4411906 55.1378741 15.7821484 53.9570453 15.8827926 53.319073 15.9033322 52.0964861 15.7821484 50.5978312 15.8211737 49.8276247 15.9423575 49.0087003 15.8211737 48.2593728 15.3200067 46.5820856 15.0776391 45.0602317 14.8578651 43.8121259 15.4802159 42.4039471 15.5007555 41.0653652 15.7616088 40.4505919 15.6609646 39.9309345 15.1577437 37.6156751 15.1187184 37.0032217 15.1577437 36.1634181 15.3795717 34.4838111 15.5397808 34.0546297 16.0224621 33.3493804 16.1436459 33.0083552 16.1436459 32.66733 16.0430017 32.3727028 15.3200067 30.9877229 15.0776391 30.2383955 14.9585093 29.4009118 15.0180742 28.5611083 15.4411906 28.1736851 15.58086 27.8558589 15.6198853 27.5148338 15.640425 26.8142242 15.6815042 26.473199 15.7410691 26.2226499 15.8211737 26.1089748 16.0039764 25.8816247 16.1025666 25.7911486 16.2032108 25.6983526 16.9878246 25.4269244 17.7518988 25.0418212 19.0561653 24.860869 19.4197167 24.747194 19.5984115 24.723995 19.8017538 24.7703929 20.9252715 25.3364484 21.00743 25.4037254 21.1060202 25.4942015 21.2662293 25.6751537 21.4675177 25.8816247 21.7489106 26.0416977 21.9296594 26.0857758 22.0919224 26.1089748 22.2315919 26.1089748 22.3733153 26.0625768 22.9751265 25.7679496 23.0963103 25.7215516 23.2359798 25.6983526 23.5379123 25.6983526 23.6775818 25.7470705 23.8603845 25.8584257 24.0411332 26.0184987 24.2403676 26.3363249 24.4231703 26.6541511 24.5423002 26.9719773 24.9058516 28.2873602 25.0660607 28.6724635 25.2858347 29.1062846 25.6473322 29.558665 26.1300135 29.8764912 26.6722597 29.9901662 27.7772917 29.9437683 28.5803912 29.581864 29.0630725 28.3105592 29.4861889 27.2202065 29.8271467 26.3131259 30.309828 25.7679496 30.8315346 25.1554962 30.9116391 24.860869 30.973258 24.5662418 31.1129275 23.294937 31.1540067 23.0443879 31.2341113 22.3414584 31.3552951 21.2279068 31.5155042 19.7988489 31.7167926 18.0960428 31.916027 16.2122846 32.1583946 14.1939723 32.6410759 10.0158338 32.8608499 7.99520151 33.0826779 6.11376322 33.2839663 4.41095718 33.4441754 2.97957935 33.5653592 1.87066751 33.6454637 1.16541814 33.684489 0.917188917 37.0406644 1.41596725 40.4173794 1.8938665 43.7715008 2.36944584 47.1482159 2.8218262 50.5043912 3.29972544 53.8790523 3.75442569 57.2557673 4.20912594 60.6119427 4.6615063 63.9866037 5.09068766 67.3633187 5.52218892 70.7379798 5.95369018 74.0941551 6.38751134 77.4708702 6.81901259 80.8455312 7.22499496 84.2222462 7.63329723 87.5969073 8.0415995 90.9736223 8.42902267 94.3297976 8.83964484 97.7044587 9.22474811 101.081174 9.60985139 104.476374 9.99495466 107.853089 10.3568589 111.22775 10.7210831 114.604465 11.0829874 117.979126 11.4495315 121.355841 11.7882368 124.732556 12.129262 128.107218 12.4679673 131.502418 12.8089924 134.879133 13.1500176 138.253794 13.4678438 141.630509 13.7833501 140.866435 24.5198438 140.063336 35.2772166"></polygon>
                <polygon id="Stroke-95" stroke="#F9F9F9" stroke-width="0.25" stroke-linecap="round" stroke-linejoin="round" points="139.683352 40.6547431 139.299261 46.0369093 138.896685 51.4144358 138.514648 56.7942821 138.114125 62.1741285 137.734142 67.5748539 137.329511 72.9523804 136.565437 83.735272 135.764391 94.5135239 135.382354 99.8956902 134.998263 105.273217 134.59774 110.673942 134.195164 116.051469 133.433143 126.857559 133.030567 132.235086 132.64853 137.635811 132.248007 143.015657 131.863916 148.418703 131.463393 153.819428 131.081356 159.199275 130.680833 164.6 130.296742 170.000725 129.894165 175.380572 129.514182 180.783617 129.111605 186.184343 129.111605 186.318897 128.589899 186.274819 127.603997 186.184343 126.620148 186.093866 125.6363 186.00339 124.650398 185.912914 123.66655 185.822438 122.680648 185.731962 121.698853 185.641486 120.712951 185.54869 119.729103 185.435015 118.743201 185.342219 117.759352 185.251743 116.775504 185.163587 115.789602 185.070791 114.8037 184.959436 113.819852 184.86664 112.836003 184.755285 111.850101 184.664809 110.868307 184.574332 109.882405 184.460657 108.898556 184.370181 107.912654 184.279705 106.928806 184.16371 105.944958 184.070914 104.959056 183.959559 103.975207 183.869083 102.989305 183.755408 102.005457 183.664932 101.021609 183.551257 100.035707 183.460781 99.070344 183.347106 98.0659562 183.25663 97.1026476 183.142955 96.1167454 183.02928 95.1328971 182.938804 94.1490489 182.822809 93.1631467 182.711453 92.1792985 182.620977 91.1933963 182.507302 90.2095481 182.393627 89.2256998 182.279952 88.2397976 182.189476 87.2559494 182.075801 86.2721012 181.964446 85.286199 181.850771 83.9613929 181.711577 82.5934536 181.349673 81.9916425 181.008647 80.8455312 180.372995 79.7014739 179.739662 78.5759022 179.10169 77.4297909 178.445159 76.2857336 177.809506 75.1601619 177.173854 74.0140506 176.538202 72.8884789 175.88167 63.8469342 170.910126 54.8649545 165.917703 45.8829747 160.855683 36.9400202 155.793662 28.0196594 150.664365 19.1362698 145.514189 10.2960135 140.338494 1.47424283 135.116401 0.671143339 134.638501 0.570499157 134.573544 0.892971332 134.278917 1.35511298 133.074889 1.4537032 132.439237 1.33457336 131.782705 1.79671501 131.031058 1.93638449 130.847786 2.51970995 130.397725 2.72099831 130.216773 3.04141653 129.738874 3.28378415 129.240096 3.54463744 128.513967 3.68430691 128.128864 4.62912985 127.558169 6.92135245 128.44437 7.90520067 128.353894 8.16605396 127.924713 8.26669815 127.377217 8.30572344 126.83436 8.44744688 126.312383 8.78840472 125.948159 9.71268803 125.428501 10.0146206 125.064277 10.1542901 124.428625 10.0146206 122.431191 10.0947251 122.043768 10.1748297 121.77234 10.2159089 121.477713 10.1748297 121.069411 9.67366273 119.955859 8.94861383 119.343406 6.92135245 118.867826 6.07511973 118.345849 5.53287352 117.16502 5.73416189 116.121065 6.19630354 115.033033 6.47769646 113.738529 6.45715683 111.968446 6.35856661 111.536945 5.75470152 110.516189 5.75470152 110.061489 6.07511973 109.242564 6.37705228 108.973456 6.49823609 108.722907 6.39759191 108.381882 6.25586847 108.110453 6.05663406 107.678952 5.99501518 107.314728 6.2373828 107.177854 7.34241484 107.26833 7.92368634 107.156975 8.36734233 106.883227 9.39226981 105.226819 9.69420236 104.523889 9.95505565 104.247821 10.4562226 103.797761 10.819774 103.410338 10.9183642 103.206186 11.0395481 102.821083 10.9984688 102.139033 11.0600877 101.73305 11.2593221 101.596176 11.3599663 101.459302 11.4215852 101.120597 11.4811501 100.461746 11.6618988 99.7332972 11.9638314 99.348194 12.2657639 99.0303678 12.4649983 98.6243854 12.2842496 98.0328111 12.2246847 97.6917859 12.3664081 97.5572317 12.4649983 97.3971587 12.5266172 97.0561335 12.5471568 96.6942292 12.4855379 96.5132771 12.2452243 96.1490529 12.2657639 95.3997254 12.3458685 94.627199 12.3458685 94.1748186 12.8080101 93.8569924 13.0072445 93.6087632 13.0072445 93.3326952 12.647801 92.6761637 12.5060776 92.3142594 12.4649983 91.9500353 12.6868263 91.2935038 13.089403 90.9269597 14.0527116 90.4073023 14.4552884 90.0430781 14.8784047 89.6115768 15.1988229 89.0687204 15.5212951 87.7974156 15.8211737 87.2754383 16.2237504 86.8880151 17.0679292 86.730262 19.5593862 85.2292872 20.0009882 85.16433 20.8246273 84.2340504 21.6688061 83.5079219 22.4328803 83.0068237 22.6731939 82.6217204 22.613629 81.962869 22.6547083 81.5545668 22.0097639 80.9212343 21.7899899 80.5570101 21.5887015 80.3296599 21.227204 80.0350327 19.5593862 78.2417506 19.2779933 77.7429723 19.1773491 77.6292972 18.7768263 77.220995 18.6967218 77.105 18.5344587 76.8567708 18.4543541 76.7662947 18.3742496 76.7198967 18.2736054 76.6758186 17.9716728 76.6294207 17.850489 76.5621436 17.7518988 76.4043904 17.6697403 76.2002393 17.6512546 75.8128161 17.6512546 75.539068 17.6697403 75.5181889 17.8320034 75.0634887 17.9922125 74.6575063 17.8114637 74.3164811 17.7703845 74.2909622 17.7313592 73.6576297 17.5300708 73.3166045 17.2692175 73.0219773 17.0473895 72.476801 17.0473895 72.2726499 17.1685734 71.5697204 17.1685734 71.3191713 17.0884688 71.1614181 17.0083642 71.0222242 15.9628971 67.4611788 15.3795717 67.2570277 14.9585093 66.8719244 14.7366813 66.259471 14.7983002 65.3941486 14.7572209 65.0113652 14.6360371 64.5125869 14.4347487 64.0555668 14.1328162 63.8305365 13.812398 63.6495844 13.6932681 63.2621612 13.8719629 59.6779169 13.8925025 59.4505668 13.9130422 59.1095416 13.812398 58.086466 14.4142091 57.4067355 14.5353929 57.1121083 14.4963676 56.703806 14.1554098 56.0913526 14.0732513 55.7944055 14.1944351 55.3861033 14.4347487 55.3188262 14.7366813 55.3629043 15.0591535 55.3188262 15.3405464 55.2283501 15.4411906 55.1378741 15.7821484 53.9570453 15.8827926 53.319073 15.9033322 52.0964861 15.7821484 50.5978312 15.8211737 49.8276247 15.9423575 49.0087003 15.8211737 48.2593728 15.3200067 46.5820856 15.0776391 45.0602317 14.8578651 43.8121259 15.4802159 42.4039471 15.5007555 41.0653652 15.7616088 40.4505919 15.6609646 39.9309345 15.1577437 37.6156751 15.1187184 37.0032217 15.1577437 36.1634181 15.3795717 34.4838111 15.5397808 34.0546297 16.0224621 33.3493804 16.1436459 33.0083552 16.1436459 32.66733 16.0430017 32.3727028 15.3200067 30.9877229 15.0776391 30.2383955 14.9585093 29.4009118 15.0180742 28.5611083 15.4411906 28.1736851 15.58086 27.8558589 15.6198853 27.5148338 15.640425 26.8142242 15.6815042 26.473199 15.7410691 26.2226499 15.8211737 26.1089748 16.0039764 25.8816247 16.1025666 25.7911486 16.2032108 25.6983526 16.9878246 25.4269244 17.7518988 25.0418212 19.0561653 24.860869 19.4197167 24.747194 19.5984115 24.723995 19.8017538 24.7703929 20.9252715 25.3364484 21.00743 25.4037254 21.1060202 25.4942015 21.2662293 25.6751537 21.4675177 25.8816247 21.7489106 26.0416977 21.9296594 26.0857758 22.0919224 26.1089748 22.2315919 26.1089748 22.3733153 26.0625768 22.9751265 25.7679496 23.0963103 25.7215516 23.2359798 25.6983526 23.5379123 25.6983526 23.6775818 25.7470705 23.8603845 25.8584257 24.0411332 26.0184987 24.2403676 26.3363249 24.4231703 26.6541511 24.5423002 26.9719773 24.9058516 28.2873602 25.0660607 28.6724635 25.2858347 29.1062846 25.6473322 29.558665 26.1300135 29.8764912 26.6722597 29.9901662 27.7772917 29.9437683 28.5803912 29.581864 29.0630725 28.3105592 29.4861889 27.2202065 29.8271467 26.3131259 30.309828 25.7679496 30.8315346 25.1554962 30.9116391 24.860869 30.973258 24.5662418 31.1129275 23.294937 31.1540067 23.0443879 31.2341113 22.3414584 31.3552951 21.2279068 31.5155042 19.7988489 31.7167926 18.0960428 31.916027 16.2122846 32.1583946 14.1939723 32.6410759 10.0158338 32.8608499 7.99520151 33.0826779 6.11376322 33.2839663 4.41095718 33.4441754 2.97957935 33.5653592 1.87066751 33.6454637 1.16541814 33.684489 0.917188917 37.0406644 1.41596725 40.4173794 1.8938665 43.7715008 2.36944584 47.1482159 2.8218262 50.5043912 3.29972544 53.8790523 3.75442569 57.2557673 4.20912594 60.6119427 4.6615063 63.9866037 5.09068766 67.3633187 5.52218892 70.7379798 5.95369018 74.0941551 6.38751134 77.4708702 6.81901259 80.8455312 7.22499496 84.2222462 7.63329723 87.5969073 8.0415995 90.9736223 8.42902267 94.3297976 8.83964484 97.7044587 9.22474811 101.081174 9.60985139 104.476374 9.99495466 107.853089 10.3568589 111.22775 10.7210831 114.604465 11.0829874 117.979126 11.4495315 121.355841 11.7882368 124.732556 12.129262 128.107218 12.4679673 131.502418 12.8089924 134.879133 13.1500176 138.253794 13.4678438 141.630509 13.7833501 140.866435 24.5198438 140.063336 35.2772166"></polygon>
            </g>
        </g>
    </g>
</svg>