<?xml version="1.0" encoding="UTF-8"?>
<svg width="183px" height="93px" viewBox="0 0 183 93" version="1.1" xmlns="http://www.w3.org/2000/svg" xmlns:xlink="http://www.w3.org/1999/xlink">
    <!-- Generator: Sketch 51 (57462) - http://www.bohemiancoding.com/sketch -->
    <title>Nebraska</title>
    <desc>Created with Sketch.</desc>
    <defs></defs>
    <g id="Page-1" stroke="none" stroke-width="1" fill="none" fill-rule="evenodd">
        <g id="A5" transform="translate(-514.000000, -265.000000)">
            <g id="Nebraska" transform="translate(514.000000, 265.000000)">
                <polygon id="Fill-43" fill="#D6D6D6" points="155.88628 15.7774559 156.78797 15.9120101 157.274759 16.0720831 157.636256 16.3667103 157.956675 17.5916171 157.716361 18.9093199 157.654742 20.1806247 158.357197 21.0900252 158.398277 21.5656045 158.698155 21.8138338 158.938469 22.198937 159.059653 22.7000353 159.119218 23.4052846 159.039113 23.9713401 158.878904 24.4909975 158.819339 25.0361738 159.039113 25.7623023 159.345153 26.2170025 160.045555 26.6925819 160.427592 27.056806 160.667906 27.5555844 160.708985 28.1239597 160.72747 28.7364131 160.828115 29.4161436 161.434034 30.2559471 162.296698 30.7779244 163.058718 31.4158967 163.340111 32.6152846 163.280546 32.8890327 163.079258 33.503806 163.079258 33.8448312 163.159363 34.1162594 163.52086 34.8887859 163.600965 35.0674181 164.86826 36.4315189 165.088034 37.1112494 165.028469 37.7005038 164.86826 38.2456801 164.788155 38.8140554 164.829234 39.2223577 164.86826 39.3801108 164.808695 39.5401839 164.607406 39.8556902 164.488277 40.1062393 164.426658 40.3312695 164.467737 41.6048942 164.547841 42.2846247 164.708051 42.806602 165.009983 43.036272 165.009983 43.2845013 164.909339 43.8992746 164.948364 44.5094081 165.410506 44.8504332 165.65082 44.8272343 166.05545 44.5094081 166.236199 44.442131 166.497052 44.5094081 166.757906 44.7135592 166.918115 44.9177103 166.897575 45.0105063 166.798985 45.1450605 166.698341 45.5069647 166.618236 45.8943879 166.577157 46.191335 166.71888 46.5300403 166.998219 46.7109924 167.840344 46.8942645 168.021093 46.8710655 168.162816 46.9383426 168.306594 47.2329698 168.142277 48.4810756 168.142277 48.8244207 167.721214 50.7522569 168.062172 50.9540882 169.009049 51.2742343 169.368492 51.3206322 169.569781 51.5688615 169.288388 52.1813149 168.867325 52.7473703 168.647551 52.8842443 168.526368 54.1787481 168.546907 54.6775264 168.84884 55.0394307 169.791609 55.3340579 170.070948 55.5614081 169.59032 55.8351562 169.70945 56.2898564 169.791609 57.2642141 169.931278 57.6748363 169.670425 58.5355189 169.549241 58.73967 169.549241 58.9229421 169.649885 58.9902191 169.70945 59.0806952 169.75053 59.1943703 169.830634 59.3544433 169.951818 59.5794736 169.890199 59.7395466 169.771069 59.8972997 169.72999 60.1710479 169.851174 60.5097531 170.031922 60.7371033 170.411906 61.0549295 170.557737 61.3750756 170.576223 61.6697028 170.516658 62.3030353 170.557737 62.6904584 170.837076 63.4165869 170.93772 64.1659144 170.837076 64.7551688 170.697406 65.3212242 170.637841 66.0264736 170.697406 66.3906977 170.91718 66.775801 170.95826 67.0240302 170.557737 67.7756776 170.272236 68.135262 170.192132 68.295335 170.132567 68.6131612 170.171592 69.0446625 170.272236 69.2720126 170.411906 69.4761637 170.477632 69.7475919 170.717946 70.2463703 171.841464 70.6987506 172.241987 70.9956977 172.461761 71.6545491 172.461761 72.3134005 172.402196 72.8098589 172.322091 73.6055844 172.443275 74.3781108 172.726722 74.649539 173.147784 74.719136 173.651005 74.9000882 173.989909 75.2179144 174.010449 75.5566196 173.950884 75.8976448 173.989909 76.3291461 174.191197 76.7629673 174.573234 77.2594257 174.753983 77.735005 174.772469 77.9159572 174.753983 78.3729773 174.772469 78.5771285 174.873113 78.8021587 175.238718 79.3728539 175.520111 80.2544156 175.579676 80.3680907 175.479032 80.5954408 175.277744 80.8251108 175.018944 81.0501411 175.179153 81.4352443 175.520111 81.4816423 175.941174 81.3911662 176.321157 81.3911662 176.703194 81.6649144 176.922968 82.0268186 177.124256 82.4351209 177.389218 82.8202242 177.709636 82.9779773 178.471656 83.0011763 178.833153 83.1357305 179.073467 83.4558766 179.052927 83.8409798 178.753049 84.6135063 179.35486 85.3837128 179.658847 85.8848111 179.80057 86.3163123 180.482486 86.9983627 180.542051 87.1329169 180.482486 87.4739421 180.281197 88.0399975 180.221632 88.7220479 180.281197 89.2440252 180.542051 89.5850504 181.523845 89.7428035 181.88945 89.9469547 182.491261 90.4898111 178.071133 90.6939622 173.69003 90.8981134 169.288388 91.0813854 164.888799 91.2646574 160.466617 91.4224106 156.067029 91.5824836 151.665386 91.7425567 147.265798 91.8771108 142.864155 92.0139849 138.464567 92.1253401 134.062924 92.2390151 129.642796 92.3526902 125.241153 92.4431662 120.843619 92.5127632 116.441976 92.6032393 112.042388 92.6705164 107.640745 92.7169144 103.243211 92.7609924 98.8415683 92.8050705 94.4214401 92.8282695 90.0197976 92.8514685 81.2185666 92.8514685 76.7984384 92.8282695 72.396796 92.8050705 67.9951535 92.7841914 63.5955649 92.7377935 59.1939224 92.6937154 54.7737943 92.6473174 50.3721518 92.5800403 45.9725632 92.4895642 41.5709207 92.4222872 41.5914604 90.5130101 41.6325396 88.6315718 41.6510253 86.7478136 41.6921046 84.8640554 41.7126442 82.9779773 41.7516695 81.0988589 41.7722091 79.2127809 41.8132884 77.3290227 41.831774 75.4429446 41.8728533 73.5615063 41.8933929 71.6777481 41.9324182 69.7939899 41.9529578 67.9079118 41.9919831 66.0264736 42.0125228 64.1427154 42.053602 62.2566373 40.1434165 62.2125592 37.6519595 62.1684811 35.1810422 62.0988841 32.7101248 62.0316071 30.2392074 61.9852091 25.2953187 61.8506549 22.8244013 61.7601788 20.35143 61.6905819 17.8805126 61.6001058 15.4075413 61.5328287 12.9366239 61.4423526 10.4657066 61.3518766 7.99478921 61.2590806 5.52387184 61.1686045 3.05090051 61.0781285 0.579983137 60.9644534 0.820296796 53.4526196 0.920940978 49.6851033 1.04212479 45.9175869 1.14276897 42.1709496 1.26189882 38.4034332 1.362543 34.6591159 1.48372681 30.9147985 1.58437099 27.1472821 1.70350084 23.4052846 1.80414503 19.6563275 1.92532884 15.9120101 2.04651265 12.1676927 2.14715683 8.42337531 2.26834064 4.69993703 2.36693086 0.957939547 5.82375042 1.0924937 9.28056998 1.22936776 12.7353356 1.36392191 16.1942091 1.47759698 19.6469207 1.59127204 23.1057943 1.7049471 26.5605599 1.79542317 30.0173794 1.90909824 33.474199 1.99957431 36.9289646 2.06685139 40.3857841 2.15732746 43.8426037 2.22692443 50.7541889 2.36147859 54.2110084 2.40787657 57.665774 2.45427456 61.1246476 2.50067254 64.5773592 2.54475063 68.0362327 2.56794962 71.4909983 2.58882872 74.9478179 2.61202771 78.4046374 2.6329068 88.7730422 2.6329068 92.2504013 2.61202771 95.7051669 2.61202771 99.1619865 2.58882872 102.616752 2.54475063 106.075626 2.52155164 112.987211 2.43107557 114.735133 2.40787657 114.856317 2.40787657 114.915882 2.45427456 115.336944 2.99945088 115.478668 3.15952393 117.629167 4.65353904 117.768836 4.67673804 118.00915 4.69993703 118.109794 4.72313602 118.976567 5.33558942 119.818691 6.13131486 122.651106 7.40029975 122.852395 7.65084887 122.953039 7.99187406 123.195406 8.1751461 124.659882 8.69712343 125.202128 8.74120151 125.746428 8.67392443 125.986742 8.53705038 126.389319 8.12874811 126.508449 8.03827204 126.588553 7.90139798 126.830921 7.10567254 126.890486 6.69737028 127.071234 6.44914106 127.291008 6.26818892 127.531322 6.15451385 128.038651 5.99676071 129.420968 6.33546599 130.248715 6.08723678 130.509568 6.13131486 130.930631 6.40274307 131.170944 6.49321914 131.651572 6.44914106 132.438239 5.97356171 132.879841 5.83436776 134.364857 6.20091184 134.909157 6.20091184 138.949302 5.26831234 139.450469 5.33558942 139.871531 5.56293955 140.233029 5.90628463 140.855379 6.76696725 141.621508 7.49309572 142.06311 7.83412091 142.543737 8.08235013 143.024364 8.19834509 144.092425 8.19834509 144.291659 8.26330227 144.753801 8.51617128 145.296047 8.62752645 145.497336 8.7644005 145.637005 8.96855164 145.860887 9.17270277 146.242924 9.30725693 148.070951 9.397733 148.452988 9.62508312 148.734381 9.94290932 148.954155 10.3071335 149.093825 10.5785617 149.173929 10.7827128 149.295113 10.9427859 149.535427 11.1028589 149.79628 11.146937 150.642513 11.056461 150.864341 11.0796599 151.145734 11.170136 151.386047 11.3278892 151.505177 11.5552393 151.445612 11.8266675 151.324428 12.0308186 151.223784 12.2813678 151.244324 12.6687909 151.505177 13.0306952 152.347302 13.7127456 152.552698 14.1883249 152.653342 14.7543804 152.873116 15.1418035 153.234614 15.3900327"></polygon>
                <polygon id="Stroke-44" stroke="#F9F9F9" stroke-width="0.25" stroke-linecap="round" stroke-linejoin="round" points="155.88628 15.7774559 156.78797 15.9120101 157.274759 16.0720831 157.636256 16.3667103 157.956675 17.5916171 157.716361 18.9093199 157.654742 20.1806247 158.357197 21.0900252 158.398277 21.5656045 158.698155 21.8138338 158.938469 22.198937 159.059653 22.7000353 159.119218 23.4052846 159.039113 23.9713401 158.878904 24.4909975 158.819339 25.0361738 159.039113 25.7623023 159.345153 26.2170025 160.045555 26.6925819 160.427592 27.056806 160.667906 27.5555844 160.708985 28.1239597 160.72747 28.7364131 160.828115 29.4161436 161.434034 30.2559471 162.296698 30.7779244 163.058718 31.4158967 163.340111 32.6152846 163.280546 32.8890327 163.079258 33.503806 163.079258 33.8448312 163.159363 34.1162594 163.52086 34.8887859 163.600965 35.0674181 164.86826 36.4315189 165.088034 37.1112494 165.028469 37.7005038 164.86826 38.2456801 164.788155 38.8140554 164.829234 39.2223577 164.86826 39.3801108 164.808695 39.5401839 164.607406 39.8556902 164.488277 40.1062393 164.426658 40.3312695 164.467737 41.6048942 164.547841 42.2846247 164.708051 42.806602 165.009983 43.036272 165.009983 43.2845013 164.909339 43.8992746 164.948364 44.5094081 165.410506 44.8504332 165.65082 44.8272343 166.05545 44.5094081 166.236199 44.442131 166.497052 44.5094081 166.757906 44.7135592 166.918115 44.9177103 166.897575 45.0105063 166.798985 45.1450605 166.698341 45.5069647 166.618236 45.8943879 166.577157 46.191335 166.71888 46.5300403 166.998219 46.7109924 167.840344 46.8942645 168.021093 46.8710655 168.162816 46.9383426 168.306594 47.2329698 168.142277 48.4810756 168.142277 48.8244207 167.721214 50.7522569 168.062172 50.9540882 169.009049 51.2742343 169.368492 51.3206322 169.569781 51.5688615 169.288388 52.1813149 168.867325 52.7473703 168.647551 52.8842443 168.526368 54.1787481 168.546907 54.6775264 168.84884 55.0394307 169.791609 55.3340579 170.070948 55.5614081 169.59032 55.8351562 169.70945 56.2898564 169.791609 57.2642141 169.931278 57.6748363 169.670425 58.5355189 169.549241 58.73967 169.549241 58.9229421 169.649885 58.9902191 169.70945 59.0806952 169.75053 59.1943703 169.830634 59.3544433 169.951818 59.5794736 169.890199 59.7395466 169.771069 59.8972997 169.72999 60.1710479 169.851174 60.5097531 170.031922 60.7371033 170.411906 61.0549295 170.557737 61.3750756 170.576223 61.6697028 170.516658 62.3030353 170.557737 62.6904584 170.837076 63.4165869 170.93772 64.1659144 170.837076 64.7551688 170.697406 65.3212242 170.637841 66.0264736 170.697406 66.3906977 170.91718 66.775801 170.95826 67.0240302 170.557737 67.7756776 170.272236 68.135262 170.192132 68.295335 170.132567 68.6131612 170.171592 69.0446625 170.272236 69.2720126 170.411906 69.4761637 170.477632 69.7475919 170.717946 70.2463703 171.841464 70.6987506 172.241987 70.9956977 172.461761 71.6545491 172.461761 72.3134005 172.402196 72.8098589 172.322091 73.6055844 172.443275 74.3781108 172.726722 74.649539 173.147784 74.719136 173.651005 74.9000882 173.989909 75.2179144 174.010449 75.5566196 173.950884 75.8976448 173.989909 76.3291461 174.191197 76.7629673 174.573234 77.2594257 174.753983 77.735005 174.772469 77.9159572 174.753983 78.3729773 174.772469 78.5771285 174.873113 78.8021587 175.238718 79.3728539 175.520111 80.2544156 175.579676 80.3680907 175.479032 80.5954408 175.277744 80.8251108 175.018944 81.0501411 175.179153 81.4352443 175.520111 81.4816423 175.941174 81.3911662 176.321157 81.3911662 176.703194 81.6649144 176.922968 82.0268186 177.124256 82.4351209 177.389218 82.8202242 177.709636 82.9779773 178.471656 83.0011763 178.833153 83.1357305 179.073467 83.4558766 179.052927 83.8409798 178.753049 84.6135063 179.35486 85.3837128 179.658847 85.8848111 179.80057 86.3163123 180.482486 86.9983627 180.542051 87.1329169 180.482486 87.4739421 180.281197 88.0399975 180.221632 88.7220479 180.281197 89.2440252 180.542051 89.5850504 181.523845 89.7428035 181.88945 89.9469547 182.491261 90.4898111 178.071133 90.6939622 173.69003 90.8981134 169.288388 91.0813854 164.888799 91.2646574 160.466617 91.4224106 156.067029 91.5824836 151.665386 91.7425567 147.265798 91.8771108 142.864155 92.0139849 138.464567 92.1253401 134.062924 92.2390151 129.642796 92.3526902 125.241153 92.4431662 120.843619 92.5127632 116.441976 92.6032393 112.042388 92.6705164 107.640745 92.7169144 103.243211 92.7609924 98.8415683 92.8050705 94.4214401 92.8282695 90.0197976 92.8514685 81.2185666 92.8514685 76.7984384 92.8282695 72.396796 92.8050705 67.9951535 92.7841914 63.5955649 92.7377935 59.1939224 92.6937154 54.7737943 92.6473174 50.3721518 92.5800403 45.9725632 92.4895642 41.5709207 92.4222872 41.5914604 90.5130101 41.6325396 88.6315718 41.6510253 86.7478136 41.6921046 84.8640554 41.7126442 82.9779773 41.7516695 81.0988589 41.7722091 79.2127809 41.8132884 77.3290227 41.831774 75.4429446 41.8728533 73.5615063 41.8933929 71.6777481 41.9324182 69.7939899 41.9529578 67.9079118 41.9919831 66.0264736 42.0125228 64.1427154 42.053602 62.2566373 40.1434165 62.2125592 37.6519595 62.1684811 35.1810422 62.0988841 32.7101248 62.0316071 30.2392074 61.9852091 25.2953187 61.8506549 22.8244013 61.7601788 20.35143 61.6905819 17.8805126 61.6001058 15.4075413 61.5328287 12.9366239 61.4423526 10.4657066 61.3518766 7.99478921 61.2590806 5.52387184 61.1686045 3.05090051 61.0781285 0.579983137 60.9644534 0.820296796 53.4526196 0.920940978 49.6851033 1.04212479 45.9175869 1.14276897 42.1709496 1.26189882 38.4034332 1.362543 34.6591159 1.48372681 30.9147985 1.58437099 27.1472821 1.70350084 23.4052846 1.80414503 19.6563275 1.92532884 15.9120101 2.04651265 12.1676927 2.14715683 8.42337531 2.26834064 4.69993703 2.36693086 0.957939547 5.82375042 1.0924937 9.28056998 1.22936776 12.7353356 1.36392191 16.1942091 1.47759698 19.6469207 1.59127204 23.1057943 1.7049471 26.5605599 1.79542317 30.0173794 1.90909824 33.474199 1.99957431 36.9289646 2.06685139 40.3857841 2.15732746 43.8426037 2.22692443 50.7541889 2.36147859 54.2110084 2.40787657 57.665774 2.45427456 61.1246476 2.50067254 64.5773592 2.54475063 68.0362327 2.56794962 71.4909983 2.58882872 74.9478179 2.61202771 78.4046374 2.6329068 88.7730422 2.6329068 92.2504013 2.61202771 95.7051669 2.61202771 99.1619865 2.58882872 102.616752 2.54475063 106.075626 2.52155164 112.987211 2.43107557 114.735133 2.40787657 114.856317 2.40787657 114.915882 2.45427456 115.336944 2.99945088 115.478668 3.15952393 117.629167 4.65353904 117.768836 4.67673804 118.00915 4.69993703 118.109794 4.72313602 118.976567 5.33558942 119.818691 6.13131486 122.651106 7.40029975 122.852395 7.65084887 122.953039 7.99187406 123.195406 8.1751461 124.659882 8.69712343 125.202128 8.74120151 125.746428 8.67392443 125.986742 8.53705038 126.389319 8.12874811 126.508449 8.03827204 126.588553 7.90139798 126.830921 7.10567254 126.890486 6.69737028 127.071234 6.44914106 127.291008 6.26818892 127.531322 6.15451385 128.038651 5.99676071 129.420968 6.33546599 130.248715 6.08723678 130.509568 6.13131486 130.930631 6.40274307 131.170944 6.49321914 131.651572 6.44914106 132.438239 5.97356171 132.879841 5.83436776 134.364857 6.20091184 134.909157 6.20091184 138.949302 5.26831234 139.450469 5.33558942 139.871531 5.56293955 140.233029 5.90628463 140.855379 6.76696725 141.621508 7.49309572 142.06311 7.83412091 142.543737 8.08235013 143.024364 8.19834509 144.092425 8.19834509 144.291659 8.26330227 144.753801 8.51617128 145.296047 8.62752645 145.497336 8.7644005 145.637005 8.96855164 145.860887 9.17270277 146.242924 9.30725693 148.070951 9.397733 148.452988 9.62508312 148.734381 9.94290932 148.954155 10.3071335 149.093825 10.5785617 149.173929 10.7827128 149.295113 10.9427859 149.535427 11.1028589 149.79628 11.146937 150.642513 11.056461 150.864341 11.0796599 151.145734 11.170136 151.386047 11.3278892 151.505177 11.5552393 151.445612 11.8266675 151.324428 12.0308186 151.223784 12.2813678 151.244324 12.6687909 151.505177 13.0306952 152.347302 13.7127456 152.552698 14.1883249 152.653342 14.7543804 152.873116 15.1418035 153.234614 15.3900327"></polygon>
            </g>
        </g>
    </g>
</svg>