<?xml version="1.0" encoding="UTF-8"?>
<svg width="162px" height="94px" viewBox="0 0 162 94" version="1.1" xmlns="http://www.w3.org/2000/svg" xmlns:xlink="http://www.w3.org/1999/xlink">
    <!-- Generator: Sketch 51 (57462) - http://www.bohemiancoding.com/sketch -->
    <title>Kansas</title>
    <desc>Created with Sketch.</desc>
    <defs></defs>
    <g id="Page-1" stroke="none" stroke-width="1" fill="none" fill-rule="evenodd">
        <g id="A5" transform="translate(-554.000000, -355.000000)">
            <g id="Kansas" transform="translate(554.000000, 355.000000)">
                <polygon id="Fill-69" fill="#D6D6D6" points="161.077572 90.6410957 156.055632 90.9125239 151.052179 91.163073 146.026132 91.4113023 141.004192 91.6595315 135.980199 91.8892015 130.95826 92.0933526 125.93632 92.2975038 120.908219 92.4807758 115.88628 92.638529 110.864341 92.8194811 105.840347 92.9563552 100.8143 93.0932292 95.8129005 93.2277834 90.7704216 93.3414584 85.766968 93.4551335 80.7429747 93.5456096 75.7189815 93.6360856 70.6970422 93.6801637 65.6545632 93.7497607 60.6490556 93.7938388 55.6045228 93.8170378 50.5825835 93.8402368 45.5585902 93.8611159 40.534597 93.8611159 35.5106037 93.8402368 30.4866105 93.8170378 25.4626172 93.7729597 20.4386239 93.7265617 15.4146307 93.6592846 10.3926914 93.5896877 5.37075211 93.4992116 0.346758853 93.4087355 0.626097808 73.4599219 0.646637437 70.5994861 0.767821248 62.0645768 0.808900506 59.206461 0.930084317 50.6715516 0.950623946 47.8366348 1.39017201 16.5829521 1.41071164 13.7457154 1.57092074 2.42228715 5.97256324 2.48956423 10.3721518 2.5800403 14.7737943 2.64731738 19.1939224 2.69371537 23.5955649 2.73779345 27.9951535 2.78419144 32.396796 2.80507053 36.7984384 2.82826952 41.2185666 2.85146851 50.0197976 2.85146851 54.4214401 2.82826952 58.8415683 2.80507053 63.2432108 2.76099244 67.6407454 2.71691436 72.0423879 2.67051637 76.4419764 2.60323929 80.8436189 2.51276322 85.2411535 2.44316625 89.642796 2.35269018 94.0629241 2.23901511 98.4645666 2.12534005 102.864155 2.01398489 107.265798 1.87711083 111.665386 1.74255668 116.067029 1.58248363 120.466617 1.42241058 124.888799 1.26465743 129.288388 1.08138539 133.69003 0.89811335 138.071133 0.693962217 142.491261 0.489811083 143.715423 1.6729597 144.01941 2.12534005 144.261777 2.17173804 144.520577 2.21813602 144.701325 2.30861209 144.861535 2.55684131 144.943693 2.80507053 145.062823 3.00922166 145.243572 3.1924937 145.42432 3.23657179 145.865922 3.28296977 146.106236 3.37344584 146.350658 3.55671788 146.952469 4.25964736 147.394071 4.48699748 147.874698 4.30604534 148.295761 3.96502015 148.922219 3.30384887 149.224152 3.09969773 149.583595 2.98834257 150.066277 2.94194458 150.345616 3.09969773 150.507879 3.44304282 150.507879 3.85134509 150.345616 4.16917128 150.668088 4.57747355 151.614965 5.14352897 151.834739 5.46135516 151.814199 5.75598237 151.754634 6.37075567 151.734094 6.71178086 151.834739 7.07368514 151.994948 7.27783627 152.116132 7.48198741 152.095592 7.82301259 151.775174 8.20811587 151.292492 8.20811587 150.265511 7.91348866 150.105302 8.02484383 150.004658 8.27539295 149.945093 8.59553904 149.924553 9.3448665 149.805423 9.52581864 149.624675 9.6394937 149.402847 9.82044584 148.76201 10.6138514 148.460078 11.1358287 148.3163 11.657806 148.375865 12.3166574 148.357379 12.6576826 148.295761 12.9059118 148.075987 13.086864 147.515255 13.156461 147.352992 13.2446171 147.352992 13.8825894 147.634384 14.4741637 148.016422 14.9265441 148.396405 15.0866171 148.521696 15.3116474 149.043403 16.355602 149.263177 16.6966272 149.423386 16.8126222 149.823909 16.9935743 150.7523 17.6501058 150.832405 17.8310579 150.972074 18.3066373 151.072718 18.4643904 152.015487 18.6499824 151.834739 19.1928388 152.054513 20.3945466 152.576219 21.5753753 153.303322 22.0996725 153.523096 22.3711008 153.584715 23.0044332 153.703845 23.6424055 154.106422 23.9138338 154.54597 24.0275088 155.513386 24.6863602 155.994013 24.8673123 156.636904 24.8000353 156.957322 24.8232343 157.17915 24.7768363 157.27774 24.8000353 157.398924 24.8905113 157.444111 25.1387406 157.524216 25.1851385 158.025383 25.2083375 158.384826 25.3428917 158.425906 25.5934408 158.144513 25.9785441 158.185592 26.0226222 158.185592 26.1130982 158.206132 26.2058942 158.304722 26.2522922 158.325261 26.4564433 158.405366 28.6812267 158.586115 32.5392191 159.066742 44.1363955 159.247491 48.0175869 159.569963 55.7567708 159.73428 59.6170831 159.915029 63.4959547 160.235447 71.2560176 160.416196 75.139529 160.736614 82.8787128 160.917363 86.7599043"></polygon>
                <polygon id="Stroke-70" stroke="#F9F9F9" stroke-width="0.25" stroke-linecap="round" stroke-linejoin="round" points="161.077572 90.6410957 156.055632 90.9125239 151.052179 91.163073 146.026132 91.4113023 141.004192 91.6595315 135.980199 91.8892015 130.95826 92.0933526 125.93632 92.2975038 120.908219 92.4807758 115.88628 92.638529 110.864341 92.8194811 105.840347 92.9563552 100.8143 93.0932292 95.8129005 93.2277834 90.7704216 93.3414584 85.766968 93.4551335 80.7429747 93.5456096 75.7189815 93.6360856 70.6970422 93.6801637 65.6545632 93.7497607 60.6490556 93.7938388 55.6045228 93.8170378 50.5825835 93.8402368 45.5585902 93.8611159 40.534597 93.8611159 35.5106037 93.8402368 30.4866105 93.8170378 25.4626172 93.7729597 20.4386239 93.7265617 15.4146307 93.6592846 10.3926914 93.5896877 5.37075211 93.4992116 0.346758853 93.4087355 0.626097808 73.4599219 0.646637437 70.5994861 0.767821248 62.0645768 0.808900506 59.206461 0.930084317 50.6715516 0.950623946 47.8366348 1.39017201 16.5829521 1.41071164 13.7457154 1.57092074 2.42228715 5.97256324 2.48956423 10.3721518 2.5800403 14.7737943 2.64731738 19.1939224 2.69371537 23.5955649 2.73779345 27.9951535 2.78419144 32.396796 2.80507053 36.7984384 2.82826952 41.2185666 2.85146851 50.0197976 2.85146851 54.4214401 2.82826952 58.8415683 2.80507053 63.2432108 2.76099244 67.6407454 2.71691436 72.0423879 2.67051637 76.4419764 2.60323929 80.8436189 2.51276322 85.2411535 2.44316625 89.642796 2.35269018 94.0629241 2.23901511 98.4645666 2.12534005 102.864155 2.01398489 107.265798 1.87711083 111.665386 1.74255668 116.067029 1.58248363 120.466617 1.42241058 124.888799 1.26465743 129.288388 1.08138539 133.69003 0.89811335 138.071133 0.693962217 142.491261 0.489811083 143.715423 1.6729597 144.01941 2.12534005 144.261777 2.17173804 144.520577 2.21813602 144.701325 2.30861209 144.861535 2.55684131 144.943693 2.80507053 145.062823 3.00922166 145.243572 3.1924937 145.42432 3.23657179 145.865922 3.28296977 146.106236 3.37344584 146.350658 3.55671788 146.952469 4.25964736 147.394071 4.48699748 147.874698 4.30604534 148.295761 3.96502015 148.922219 3.30384887 149.224152 3.09969773 149.583595 2.98834257 150.066277 2.94194458 150.345616 3.09969773 150.507879 3.44304282 150.507879 3.85134509 150.345616 4.16917128 150.668088 4.57747355 151.614965 5.14352897 151.834739 5.46135516 151.814199 5.75598237 151.754634 6.37075567 151.734094 6.71178086 151.834739 7.07368514 151.994948 7.27783627 152.116132 7.48198741 152.095592 7.82301259 151.775174 8.20811587 151.292492 8.20811587 150.265511 7.91348866 150.105302 8.02484383 150.004658 8.27539295 149.945093 8.59553904 149.924553 9.3448665 149.805423 9.52581864 149.624675 9.6394937 149.402847 9.82044584 148.76201 10.6138514 148.460078 11.1358287 148.3163 11.657806 148.375865 12.3166574 148.357379 12.6576826 148.295761 12.9059118 148.075987 13.086864 147.515255 13.156461 147.352992 13.2446171 147.352992 13.8825894 147.634384 14.4741637 148.016422 14.9265441 148.396405 15.0866171 148.521696 15.3116474 149.043403 16.355602 149.263177 16.6966272 149.423386 16.8126222 149.823909 16.9935743 150.7523 17.6501058 150.832405 17.8310579 150.972074 18.3066373 151.072718 18.4643904 152.015487 18.6499824 151.834739 19.1928388 152.054513 20.3945466 152.576219 21.5753753 153.303322 22.0996725 153.523096 22.3711008 153.584715 23.0044332 153.703845 23.6424055 154.106422 23.9138338 154.54597 24.0275088 155.513386 24.6863602 155.994013 24.8673123 156.636904 24.8000353 156.957322 24.8232343 157.17915 24.7768363 157.27774 24.8000353 157.398924 24.8905113 157.444111 25.1387406 157.524216 25.1851385 158.025383 25.2083375 158.384826 25.3428917 158.425906 25.5934408 158.144513 25.9785441 158.185592 26.0226222 158.185592 26.1130982 158.206132 26.2058942 158.304722 26.2522922 158.325261 26.4564433 158.405366 28.6812267 158.586115 32.5392191 159.066742 44.1363955 159.247491 48.0175869 159.569963 55.7567708 159.73428 59.6170831 159.915029 63.4959547 160.235447 71.2560176 160.416196 75.139529 160.736614 82.8787128 160.917363 86.7599043"></polygon>
            </g>
        </g>
    </g>
</svg>