<?xml version="1.0" encoding="UTF-8" standalone="no"?>
<svg width="133px" height="117px" viewBox="0 0 133 117" version="1.1" xmlns="http://www.w3.org/2000/svg" xmlns:xlink="http://www.w3.org/1999/xlink">
    <!-- Generator: Sketch 46.1 (44463) - http://www.bohemiancoding.com/sketch -->
    <title>warning</title>
    <desc>Created with Sketch.</desc>
    <defs></defs>
    <g id="Page-1" stroke="none" stroke-width="1" fill="none" fill-rule="evenodd">
        <g id="warning" transform="translate(3.000000, 3.000000)">
            <g id="Combined-Shape" transform="translate(8.000000, 88.000000)" stroke="#8A6D3B" fill="#8A6D3B">
                <path d="M60,0 L52,0 L52,20 L2.5,20 C1.1192881,20 0,21.119288 0,22.5 C0,23.880712 1.1192881,25 2.5,25 L109.5,25 C110.880712,25 112,23.880712 112,22.5 C112,21.119288 110.880712,20 109.5,20 L60,20 L60,15 L60,0 Z" id="Shape"></path>
            </g>
            <path d="M65.6623526,11.5899551 L97.6770459,71.6790717 L97.6770459,71.6790717 C98.45612,73.1413336 97.9022866,74.9582953 96.4400247,75.7373692 C96.005817,75.9687094 95.5213771,76.0897099 95.0293866,76.0897099 L31,76.0897099 L31,76.0897099 C29.3431458,76.0897099 28,74.7465641 28,73.0897099 C28,72.5977194 28.1210005,72.1132795 28.3523407,71.6790717 L60.3670339,11.5899551 L60.3670339,11.5899551 C61.1461079,10.1276932 62.9630696,9.57386001 64.4253314,10.3529339 C64.9514102,10.6332218 65.3820647,11.0638763 65.6623526,11.5899551 Z" id="Triangle" stroke="#F5A623" fill="#F5A623" fill-rule="nonzero"></path>
            <rect id="Rectangle" stroke="#8A6D3B" stroke-width="5" x="0" y="0" width="127" height="87" rx="5"></rect>
            <path d="M60.28125,49.75 L59.28125,34.78125 C59.0937491,31.8645687 59,29.7708397 59,28.5 C59,26.7708247 59.4531205,25.4218798 60.359375,24.453125 C61.2656295,23.4843702 62.4583259,23 63.9375,23 C65.7291756,23 66.9270803,23.6197855 67.53125,24.859375 C68.1354197,26.0989645 68.4375,27.885405 68.4375,30.21875 C68.4375,31.5937569 68.3645841,32.9895762 68.21875,34.40625 L66.875,49.8125 C66.7291659,51.6458425 66.4166691,53.0520784 65.9375,54.03125 C65.4583309,55.0104216 64.6666722,55.5 63.5625,55.5 C62.4374944,55.5 61.6562522,55.0260464 61.21875,54.078125 C60.7812478,53.1302036 60.4687509,51.6875097 60.28125,49.75 Z M63.75,70.3125 C62.4791603,70.3125 61.3697964,69.9010458 60.421875,69.078125 C59.4739536,68.2552042 59,67.1041741 59,65.625 C59,64.3333269 59.4531205,63.2343795 60.359375,62.328125 C61.2656295,61.4218705 62.3749934,60.96875 63.6875,60.96875 C65.0000066,60.96875 66.119787,61.4218705 67.046875,62.328125 C67.973963,63.2343795 68.4375,64.3333269 68.4375,65.625 C68.4375,67.0833406 67.9687547,68.2291625 67.03125,69.0625 C66.0937453,69.8958375 65.0000062,70.3125 63.75,70.3125 Z" id="!" fill="#FFFFFF"></path>
        </g>
    </g>
</svg>