<?xml version="1.0" encoding="UTF-8"?>
<svg width="216px" height="191px" viewBox="0 0 216 191" version="1.1" xmlns="http://www.w3.org/2000/svg" xmlns:xlink="http://www.w3.org/1999/xlink">
    <!-- Generator: Sketch 51 (57462) - http://www.bohemiancoding.com/sketch -->
    <title>add-user</title>
    <desc>Created with Sketch.</desc>
    <defs></defs>
    <g id="Page-1" stroke="none" stroke-width="1" fill="none" fill-rule="evenodd">
        <g id="Users--Empty-State-" transform="translate(-563.000000, -402.000000)" fill="#E1E1E1">
            <g id="add-user" transform="translate(563.000000, 404.000000)">
                <g id="Group-6">
                    <g id="Group-2">
                        <path d="M177.984045,112.066929 C199.062198,112.066929 216,129.223954 216,150.340293 C216,171.268092 199.062198,188.425117 177.984045,188.425117 C156.905891,188.425117 139.779892,171.268092 139.779892,150.340293 C139.779892,129.223954 156.905891,112.066929 177.984045,112.066929 Z M183.065385,129.223954 L183.065385,145.249747 L198.874,145.249747 L198.874,155.430838 L183.065385,155.430838 L183.065385,171.268092 L172.902704,171.268092 L172.902704,155.430838 L157.094089,155.430838 L157.094089,145.249747 L172.902704,145.249747 L172.902704,129.223954 L183.065385,129.223954 Z M131.687386,164.10362 L5.03026796,164.10362 C1.83090539,164.10362 -0.615665994,161.275539 0.1371252,158.070381 C8.79422393,112.444007 51.1387286,82.6548862 96.3062002,82.6548862 C120.019123,82.6548862 142.979254,90.9505906 160.669847,105.090996 C142.602859,112.066929 129.805408,129.78957 129.805408,150.340293 C129.805408,155.053761 130.370002,159.767229 131.687386,164.10362 Z" id="Shape"></path>
                        <path d="M95.7391318,0 C123.780604,0 146.552537,22.8131871 146.552537,50.9054588 C146.552537,78.9977306 123.780604,101.622379 95.7391318,101.622379 C67.8858577,101.622379 45.1139241,78.9977306 45.1139241,50.9054588 C45.1139241,22.8131871 67.8858577,0 95.7391318,0 Z" id="Path" stroke="#FFFFFF" stroke-width="3"></path>
                    </g>
                </g>
            </g>
        </g>
    </g>
</svg>