<?xml version="1.0" encoding="UTF-8"?>
<svg width="91px" height="82px" viewBox="0 0 91 82" version="1.1" xmlns="http://www.w3.org/2000/svg" xmlns:xlink="http://www.w3.org/1999/xlink">
    <!-- Generator: Sketch 48.2 (47327) - http://www.bohemiancoding.com/sketch -->
    <title>finished</title>
    <desc>Created with Sketch.</desc>
    <defs></defs>
    <g id="Page-1" stroke="none" stroke-width="1" fill="none" fill-rule="evenodd">
        <g id="finished" fill="#555555" fill-rule="nonzero">
            <path d="M83.348,3.828 C82.615,4.061 81.747,4.145 80.747,4.078 C80.181,4.045 79.348,3.945 78.247,3.778 C76.114,3.511 72.864,3.061 68.497,2.428 C67.931,2.328 67.264,2.345 66.497,2.478 C65.431,2.711 64.914,2.461 64.947,1.728 C65.013,1.328 65.23,1.111 65.597,1.078 C65.63,1.078 65.963,1.095 66.597,1.128 L81.597,2.778 C82.23,2.878 82.564,2.928 82.597,2.928 C82.964,3.028 83.214,3.328 83.348,3.828 Z M74.348,8.228 C74.815,8.162 75.631,8.245 76.797,8.478 C77.831,8.611 78.648,8.628 79.247,8.528 C79.514,8.428 79.747,8.461 79.947,8.628 C80.18,8.795 80.263,9.028 80.197,9.328 C80.197,9.795 79.831,10.028 79.097,10.028 L72.996,9.728 C69.43,9.495 64.113,9.128 57.046,8.628 C43.779,7.795 35.33,7.295 31.696,7.128 C24.563,6.861 19.213,6.961 15.646,7.428 C13.313,7.695 11.313,8.795 9.646,10.728 C8.045,12.561 7.146,14.695 6.946,17.128 C6.446,23.128 6.596,28.545 7.396,33.378 C7.896,33.311 8.33,33.078 8.696,32.678 C9.063,32.145 9.363,31.745 9.596,31.478 C9.829,31.111 10.029,30.861 10.196,30.728 C10.496,30.461 10.813,30.495 11.146,30.828 C11.379,31.061 11.379,31.328 11.146,31.628 C11.012,31.761 10.779,31.944 10.446,32.178 L10.046,32.528 C7.746,34.661 6.88,37.178 7.446,40.078 C7.913,42.245 8.213,45.545 8.346,49.978 C8.779,53.945 9.262,59.945 9.795,67.978 C9.962,70.045 10.429,71.595 11.195,72.628 C11.962,73.661 13.261,74.461 15.095,75.028 C16.228,75.361 17.011,75.445 17.445,75.278 C17.912,75.145 18.545,74.611 19.345,73.678 C23.244,69.078 26.544,65.395 29.244,62.628 C28.944,63.728 28.294,64.878 27.294,66.078 C26.694,66.711 25.812,67.678 24.645,68.978 C24.278,69.445 23.412,70.412 22.044,71.878 C20.911,73.078 20.062,74.128 19.494,75.028 C20.428,75.628 21.678,75.978 23.244,76.078 C25.411,76.178 26.661,76.278 26.994,76.378 C27.194,76.411 27.328,76.328 27.394,76.128 C27.427,75.828 27.494,75.628 27.594,75.528 C28.66,74.028 30.027,72.445 31.694,70.778 C33.661,68.844 35.161,67.395 36.194,66.428 L36.844,66.528 C36.077,67.795 34.96,69.094 33.493,70.428 L29.793,74.178 C29.094,74.878 28.827,75.445 28.993,75.878 C29.06,76.245 29.31,76.444 29.743,76.478 C30.177,76.478 30.493,76.478 30.693,76.478 L32.793,76.478 C34.193,76.512 35.344,75.978 36.243,74.878 C36.844,74.111 37.677,73.228 38.743,72.228 C39.91,71.128 40.793,70.295 41.393,69.728 C41.593,69.528 41.926,69.561 42.393,69.828 C41.959,70.728 41.077,71.762 39.743,72.928 C38.143,74.295 37.06,75.361 36.493,76.128 L44.643,76.128 C44.976,76.128 45.292,76.011 45.593,75.778 C45.86,75.445 46.076,75.195 46.242,75.028 C47.843,73.395 50.259,70.995 53.492,67.828 C53.792,67.461 54.242,67.328 54.843,67.428 C54.11,68.561 52.876,69.961 51.143,71.628 C49.209,73.361 47.91,74.711 47.243,75.678 C48.177,75.945 49.327,75.995 50.693,75.828 C52.493,75.628 53.593,75.528 53.993,75.528 C54.327,75.528 54.643,75.344 54.943,74.978 C55.276,74.611 55.543,74.378 55.743,74.278 C55.943,74.844 56.094,75.128 56.193,75.128 C57.026,75.561 58.21,75.611 59.743,75.278 C61.21,74.978 62.276,74.495 62.943,73.828 L67.093,69.278 C67.459,68.911 67.659,68.711 67.693,68.678 C67.993,68.478 68.36,68.445 68.793,68.578 C68.327,69.512 67.526,70.545 66.394,71.678 C64.76,73.245 63.793,74.211 63.494,74.578 C64.527,74.911 65.644,75.045 66.845,74.978 C67.244,74.912 68.278,74.762 69.945,74.528 C70.412,74.461 70.812,74.094 71.145,73.428 C71.544,72.528 71.829,72.011 71.995,71.878 C72.162,71.545 72.295,71.295 72.395,71.128 C72.562,70.895 72.812,70.878 73.145,71.078 C73.412,71.278 73.495,71.512 73.395,71.778 C73.362,71.945 73.195,72.211 72.895,72.578 L71.845,74.228 C75.378,74.195 78.878,73.378 82.345,71.778 C82.778,71.578 83.128,71.011 83.395,70.078 C84.362,66.578 84.745,63.512 84.544,60.878 C84.345,58.578 84.312,55.861 84.444,52.728 C84.644,49.128 84.794,46.428 84.894,44.628 C85.361,37.094 85.144,31.094 84.244,26.628 C84.111,26.061 84.027,25.328 83.994,24.428 C83.994,23.461 83.994,22.728 83.994,22.228 C83.994,21.461 84.311,21.078 84.944,21.078 C85.477,21.078 85.794,21.395 85.894,22.028 C86.061,24.594 86.361,28.428 86.793,33.528 C87.026,37.895 86.927,41.711 86.493,44.978 C86.327,46.178 86.243,48.028 86.243,50.528 C86.243,51.228 86.177,53.078 86.043,56.078 C85.943,58.311 85.993,60.128 86.193,61.528 C86.36,62.761 86.276,64.278 85.943,66.078 C85.776,67.045 85.509,68.528 85.143,70.528 C84.976,71.695 84.292,72.578 83.093,73.178 C80.56,74.545 77.093,75.411 72.693,75.778 C69.693,76.045 65.693,76.328 60.693,76.628 C54.593,76.928 50.577,77.161 48.643,77.328 C45.843,77.595 42.243,77.745 37.843,77.778 C31.876,77.811 28.292,77.844 27.093,77.878 C25.626,77.911 23.742,77.811 21.443,77.578 C18.443,77.311 16.543,77.145 15.743,77.078 C13.543,76.978 11.743,76.211 10.344,74.778 C9.043,73.478 8.16,71.678 7.694,69.378 C7.594,68.711 7.494,67.278 7.394,65.078 C7.293,61.911 6.96,57.061 6.394,50.528 C6.094,47.728 5.828,43.478 5.594,37.778 C5.16,29.478 4.927,23.261 4.894,19.128 C4.894,14.061 6.793,10.194 10.594,7.528 C11.561,6.895 12.727,6.428 14.094,6.128 C14.927,5.961 16.177,5.828 17.844,5.728 C20.144,5.528 22.844,5.478 25.944,5.578 C29.578,5.745 32.294,5.878 34.094,5.978 C39.793,6.211 44.077,6.412 46.944,6.578 C51.977,6.811 56.26,7.078 59.794,7.378 C62.994,7.678 65.411,7.911 67.044,8.078 C69.881,8.344 72.314,8.395 74.348,8.228 Z M83.547,15.578 C81.648,16.811 80.497,17.595 80.098,17.928 C78.831,18.795 77.797,19.778 76.997,20.878 C74.764,23.811 71.098,28.078 65.997,33.678 C63.764,36.111 60.381,39.695 55.848,44.428 C51.848,48.661 48.615,52.345 46.148,55.478 C45.948,55.711 44.898,56.778 42.998,58.678 C41.765,59.978 40.865,61.195 40.298,62.328 C41.732,63.762 43.215,64.845 44.748,65.578 C45.849,66.145 46.748,65.945 47.448,64.978 C48.681,63.378 49.598,62.178 50.198,61.378 C51.264,59.944 52.098,58.694 52.698,57.628 C52.898,57.361 52.681,57.011 52.048,56.578 L47.149,62.528 L46.499,61.978 C46.732,61.245 47.466,60.262 48.699,59.028 L58.199,49.528 C59.066,48.695 60.133,47.411 61.399,45.678 C62.765,43.778 63.749,42.478 64.349,41.778 C65.748,40.211 67.682,37.678 70.149,34.178 C72.583,30.678 74.515,28.111 75.949,26.478 C76.649,25.678 77.916,24.095 79.749,21.728 C81.282,19.662 82.583,18.078 83.649,16.978 C84.282,16.345 84.616,15.828 84.649,15.428 L84.349,15.278 L83.547,15.578 Z M46.297,13.578 C42.431,13.245 37.197,13.211 30.598,13.478 C29.731,13.512 28.481,13.678 26.848,13.978 C25.815,14.078 25.297,13.778 25.297,13.078 C25.331,12.512 25.848,12.228 26.848,12.228 L44.047,12.128 C45.481,11.961 46.547,11.895 47.247,11.928 C47.914,11.928 48.297,12.295 48.397,13.028 C48.03,13.461 47.331,13.645 46.297,13.578 Z M57.997,1.428 C56.497,1.928 54.78,1.911 52.848,1.378 L53.198,0.778 C55.365,0.211 57.014,0.278 58.148,0.978 C58.147,1.278 58.098,1.428 57.997,1.428 Z M53.447,38.378 C53.147,38.311 52.881,38.361 52.647,38.528 C52.48,38.628 52.28,38.811 52.046,39.078 L47.147,43.228 C46.581,43.695 46.213,43.995 46.046,44.128 C45.58,44.361 45.113,44.311 44.647,43.978 C43.68,43.345 42.796,43.595 41.997,44.728 C41.264,45.728 40.264,46.861 38.997,48.128 C38.297,48.828 37.214,49.861 35.747,51.228 C34.28,52.628 33.147,53.828 32.348,54.828 C31.815,55.561 31.831,56.161 32.398,56.628 C32.797,56.928 33.115,57.128 33.348,57.228 C33.714,57.361 34.081,57.262 34.448,56.928 L35.098,56.328 C37.565,54.195 40.631,51.328 44.297,47.728 C49.131,42.995 52.164,40.061 53.398,38.928 C53.431,38.895 53.447,38.711 53.447,38.378 Z M57.897,34.528 L57.597,35.028 C56.996,36.361 55.73,37.945 53.796,39.778 C52.064,41.478 49.48,44.061 46.046,47.528 C43.013,50.528 40.38,53.028 38.147,55.028 C36.28,56.695 35.364,57.828 35.397,58.428 C35.463,58.995 36.581,59.928 38.747,61.228 C38.98,61.195 39.164,61.178 39.297,61.178 C42.864,56.911 48.864,50.311 57.297,41.378 C65.264,32.911 71.214,26.261 75.148,21.428 C72.281,22.661 69.231,24.611 65.998,27.278 C64.131,28.878 61.431,31.294 57.897,34.528 Z M63.497,27.528 C64.931,26.094 66.681,24.711 68.747,23.378 C74.614,19.478 77.564,17.511 77.598,17.478 C80.997,15.245 84.065,13.461 86.797,12.128 C87.331,11.828 88.381,11.361 89.947,10.728 C90.314,10.561 90.631,10.745 90.897,11.278 C91.097,11.711 91.013,12.028 90.647,12.228 C88.38,13.828 86.147,15.878 83.947,18.378 C82.614,19.944 80.747,22.361 78.347,25.628 C77.447,26.861 76.064,28.611 74.197,30.878 C73.364,31.811 72.447,33.028 71.447,34.528 C70.881,35.361 70.047,36.611 68.947,38.278 C66.447,41.878 64.331,44.661 62.597,46.628 C61.33,47.995 59.913,49.895 58.347,52.328 C56.213,55.495 54.864,57.478 54.296,58.278 C51.33,62.211 49.363,64.945 48.397,66.478 C47.897,67.245 47.414,67.678 46.947,67.778 C46.48,67.844 45.797,67.661 44.897,67.228 C41.564,65.561 38.864,63.795 36.796,61.928 C36.43,61.595 35.88,61.078 35.147,60.378 C34.447,59.811 33.713,59.528 32.947,59.528 C32.68,59.528 32.464,59.328 32.297,58.928 C32.098,58.428 31.931,58.128 31.797,58.028 C31.264,57.628 30.297,56.811 28.898,55.578 C27.665,54.512 26.681,53.711 25.948,53.178 C25.181,52.611 23.764,51.445 21.698,49.678 C21.531,49.511 21.298,49.245 20.998,48.878 C20.731,48.578 20.432,48.461 20.099,48.528 C19.599,48.628 19.298,48.645 19.199,48.578 C18.999,48.478 18.932,48.195 18.999,47.728 C19.133,47.162 19.016,46.695 18.649,46.328 C18.382,46.128 17.949,45.878 17.349,45.578 C16.949,45.378 16.582,45.395 16.248,45.628 C16.115,45.661 15.832,45.911 15.398,46.378 L11.297,50.078 C11.631,48.911 12.264,47.795 13.197,46.728 C14.43,45.561 15.331,44.678 15.897,44.078 C16.63,43.345 17.947,41.828 19.847,39.528 C22.847,36.295 24.98,33.778 26.246,31.978 C27.513,30.111 28.896,29.162 30.396,29.128 C31.863,29.094 33.346,29.961 34.846,31.728 C37.379,34.795 40.646,37.945 44.646,41.178 C45.512,41.878 46.346,41.878 47.146,41.178 C50.846,38.245 53.629,36.061 55.496,34.628 C58.797,31.961 61.464,29.594 63.497,27.528 Z M59.197,71.478 C58.03,72.711 56.93,73.595 55.897,74.128 C57.164,71.761 59.213,69.828 62.046,68.328 C61.348,69.028 60.397,70.078 59.197,71.478 Z M78.348,80.578 C75.981,80.545 72.781,80.861 68.747,81.528 C67.747,81.728 66.881,81.528 66.147,80.928 C67.88,80.395 69.98,79.995 72.447,79.728 C75.18,79.495 77.214,79.262 78.547,79.028 C79.28,78.995 79.831,78.961 80.197,78.928 C80.864,78.795 81.381,78.495 81.747,78.028 C82.081,77.661 82.397,77.711 82.697,78.178 C82.897,78.545 82.881,78.911 82.647,79.278 C82.447,79.611 82.046,79.861 81.447,80.028 L79.847,80.378 C79.247,80.511 78.747,80.578 78.348,80.578 Z M2.297,23.628 C1.53,23.761 1.098,23.344 0.997,22.378 L0.997,13.978 C0.997,13.345 1.28,12.995 1.848,12.928 C2.381,12.861 2.648,13.161 2.648,13.828 C2.781,15.695 2.931,18.495 3.098,22.228 C3.098,23.094 2.831,23.561 2.297,23.628 Z M19.797,15.278 C18.697,16.011 17.981,16.561 17.648,16.928 C16.948,17.595 16.547,18.361 16.448,19.228 L16.148,19.328 C15.315,19.262 14.948,18.811 15.047,17.978 C15.081,17.412 15.598,16.611 16.598,15.578 C17.631,14.611 18.431,14.128 18.997,14.128 C19.23,14.128 19.447,14.261 19.647,14.528 C19.914,14.961 19.964,15.211 19.797,15.278 Z M13.447,38.328 C13.047,38.895 11.597,40.545 9.097,43.278 C9.163,42.445 9.43,41.661 9.897,40.928 C10.43,40.195 11.78,38.661 13.947,36.328 C14.014,37.094 13.848,37.761 13.447,38.328 Z M32.797,32.578 C31.231,31.445 30.231,30.895 29.797,30.928 C29.264,30.928 28.481,31.628 27.447,33.028 C26.68,34.028 25.513,35.428 23.947,37.228 C22.28,39.061 21.081,40.445 20.347,41.378 C19.847,42.078 19.463,42.844 19.197,43.678 C19.03,44.345 19.331,44.911 20.097,45.378 C20.43,45.711 20.913,45.561 21.546,44.928 C23.113,43.195 24.314,41.928 25.147,41.128 C25.447,40.895 26.347,39.895 27.847,38.128 C28.913,36.961 29.88,36.094 30.746,35.528 C30.68,34.995 30.996,34.478 31.696,33.978 C32.364,33.511 32.73,33.044 32.797,32.578 Z M30.897,35.578 C30.897,36.111 30.564,36.745 29.897,37.478 C26.331,41.378 24.364,43.512 23.997,43.878 C22.364,45.444 21.547,46.361 21.547,46.628 C21.547,46.895 22.431,47.928 24.197,49.728 L25.147,50.478 C25.546,50.845 25.963,50.778 26.397,50.278 C29.296,47.111 32.93,43.445 37.296,39.278 C38.097,38.578 38.097,37.861 37.296,37.128 C36.43,36.428 35.314,35.411 33.946,34.078 C33.413,33.978 32.863,34.228 32.296,34.828 C31.797,35.361 31.331,35.611 30.897,35.578 Z M37.897,40.278 L30.147,47.728 C29.747,48.128 29.03,48.695 27.997,49.428 C27.23,50.128 26.881,50.811 26.947,51.478 C27.013,52.145 27.513,52.778 28.447,53.378 C29.747,54.245 30.547,54.828 30.847,55.128 C32.614,52.895 35.18,50.228 38.546,47.128 C39.413,46.328 40.413,45.145 41.546,43.578 C42.013,42.978 42.163,42.445 41.996,41.978 C41.83,41.578 41.263,40.928 40.296,40.028 C39.83,39.594 39.397,39.428 38.996,39.528 C38.697,39.628 38.331,39.878 37.897,40.278 Z M26.197,61.228 C25.797,61.795 25.147,62.445 24.247,63.178 C19.814,67.011 16.647,70.028 14.747,72.228 C14.647,72.295 14.414,72.328 14.047,72.328 C15.148,70.195 17.247,67.795 20.348,65.128 C23.781,62.261 26.031,60.061 27.098,58.528 C27.098,59.495 26.797,60.395 26.197,61.228 Z M13.098,53.728 C14.797,51.628 16.131,50.328 17.098,49.828 C16.865,50.661 16.031,51.945 14.598,53.678 C13.164,55.445 11.565,57.178 9.797,58.878 C10.264,57.544 11.364,55.828 13.098,53.728 Z M16.247,61.328 C13.681,63.762 11.98,65.845 11.147,67.578 C10.847,66.978 10.78,66.411 10.947,65.878 C11.081,65.611 11.347,65.228 11.747,64.728 C13.681,62.662 15.147,61.095 16.147,60.028 C18.28,57.661 19.497,56.278 19.796,55.878 C20.23,55.278 20.796,55.028 21.496,55.128 C20.631,56.694 18.881,58.761 16.247,61.328 Z" id="Shape"></path>
        </g>
    </g>
</svg>