<?xml version="1.0" encoding="UTF-8"?>
<svg width="64px" height="86px" viewBox="0 0 64 86" version="1.1" xmlns="http://www.w3.org/2000/svg" xmlns:xlink="http://www.w3.org/1999/xlink">
    <!-- Generator: Sketch 48.2 (47327) - http://www.bohemiancoding.com/sketch -->
    <title>phantom-clipboard</title>
    <desc>Created with Sketch.</desc>
    <defs></defs>
    <g id="Page-1" stroke="none" stroke-width="1" fill="none" fill-rule="evenodd">
        <g id="phantom-clipboard" stroke="#979797">
            <g id="Board" fill-rule="nonzero" stroke-dasharray="2,1,2,1">
                <path d="M55.2,10 C59.6,10 63.2,13.6 63.3,18 L63.3,77 C63.3,81.4 59.7,85 55.3,85 L8.8,85 C4.4,85 0.8,81.4 0.8,77 L0.8,18 C0.8,13.6 4.4,10 8.8,10 L15.9,9.8 C15.9,8.1 17.3,6.8 18.9,6.8 L24.3,6.8 C25.2,3.4 28.4,0.8 32.1,0.8 C35.8,0.8 39,3.4 39.9,6.8 L45.1,6.8 C46.7,6.8 48.1,8.1 48.1,10 L55.2,10 Z M32.1,6.8 C30.9,6.8 29.9,7.7 30,8.9 C30,10.1 30.9,11 32.1,11 C33.3,11 34.2,10.1 34.2,8.9 C34.2,7.7 33.3,6.8 32.1,6.8 Z M57.2,76.9 L57.3,76.9 L57.3,18 C57.3,16.9 56.4,16 55.3,16 L48.2,16 L48.2,16.1 C48.2,17.8 46.8,19.1 45.2,19.1 L18.9,19.1 C17.3,19.1 15.9,17.8 15.9,16.1 L15.9,16 L8.8,16 C7.7,16 6.8,16.9 6.8,18 L6.8,76.9 C6.8,78 7.7,78.9 8.8,78.9 L55.2,78.9 C56.3,78.9 57.2,78 57.2,76.9 Z" id="Shape"></path>
                <path d="M17,51.925 C16.2,51.925 15.4,51.625 14.9,51.025 C14.3,50.425 14,49.725 14,48.925 C14,48.125 14.3,47.325 14.9,46.825 C16,45.725 18,45.725 19.1,46.825 C19.7,47.425 20,48.125 20,48.925 C20,49.725 19.7,50.525 19.1,51.025 C18.6,51.525 17.8,51.925 17,51.925 Z" id="Shape"></path>
                <path d="M17,35.925 C16.2,35.925 15.4,35.625 14.9,35.025 C14.3,34.425 14,33.725 14,32.925 C14,32.125 14.3,31.325 14.9,30.825 C16,29.725 18,29.725 19.1,30.825 C19.7,31.425 20,32.125 20,32.925 C20,33.725 19.7,34.525 19.1,35.025 C18.6,35.625 17.8,35.925 17,35.925 Z" id="Shape"></path>
                <path d="M17,67.925 C16.2,67.925 15.4,67.625 14.9,67.025 C14.3,66.425 14,65.725 14,64.925 C14,64.125 14.3,63.325 14.9,62.825 C16,61.725 18,61.725 19.1,62.825 C19.7,63.425 20,64.125 20,64.925 C20,65.725 19.7,66.525 19.1,67.025 C18.6,67.625 17.8,67.925 17,67.925 Z" id="Shape"></path>
            </g>
            <path d="M23.5,32.5 L48.519992,32.5" id="Line" stroke-linecap="square" stroke-dasharray="2,2,2,2"></path>
            <path d="M23.5,49.5 L48.519992,49.5" id="Line-Copy" stroke-linecap="square" stroke-dasharray="2,2,2,2"></path>
            <path d="M23.5,65.5 L48.519992,65.5" id="Line-Copy-2" stroke-linecap="square" stroke-dasharray="2,2,2,2"></path>
        </g>
    </g>
</svg>