<?xml version="1.0" encoding="UTF-8" standalone="no"?>
<svg width="292px" height="283px" viewBox="0 0 292 283" version="1.1" xmlns="http://www.w3.org/2000/svg" xmlns:xlink="http://www.w3.org/1999/xlink">
    <!-- Generator: Sketch 46.1 (44463) - http://www.bohemiancoding.com/sketch -->
    <title>scale</title>
    <desc>Created with Sketch.</desc>
    <defs></defs>
    <g id="Page-1" stroke="none" stroke-width="1" fill="none" fill-rule="evenodd">
        <g  fill-rule="nonzero" fill="#F18805">
            <g id="scale">
                <path d="M146.5,41.1666667 C156.610833,41.1666667 164.833333,49.3891667 164.833333,59.5 C164.833333,69.6108333 156.610833,77.8333333 146.5,77.8333333 C136.389167,77.8333333 128.166667,69.6108333 128.166667,59.5 C128.166667,49.3891667 136.389167,41.1666667 146.5,41.1666667 L146.5,41.1666667 Z M146.5,32 C131.310833,32 119,44.3108333 119,59.5 C119,74.6891667 131.310833,87 146.5,87 C161.689167,87 174,74.6891667 174,59.5 C174,44.3108333 161.689167,32 146.5,32 L146.5,32 Z" id="Shape"></path>
                <rect id="Rectangle-path" x="137" y="78" width="18" height="173"></rect>
                <path d="M170.202812,58 L259,16.6199367 L251.296803,0 L164,40.6734177 C168.967739,44.821519 171.035343,51.6126582 170.202812,58 Z" id="Shape"></path>
                <path d="M121.585001,60 L33,101.355165 L40.6887507,118 L127,77.7092232 C122.288129,73.2956811 120.452691,66.3679798 121.585001,60 Z" id="Shape"></path>
                <path d="M155,41 L137,41 L137,18.0986636 C137,13.0762013 141.032,9 146,9 C150.968,9 155,13.0762013 155,18.0986636 L155,41 Z" id="Shape"></path>
                <path d="M182,264 L109,264 L109,255 C109,245.064 117.176,237 127.25,237 L163.75,237 C173.824,237 182,245.064 182,255 L182,264 Z" id="Shape"></path>
                <path d="M200,283 L91,283 L91,274 C91,264.064 99.1386667,256 109.166667,256 L181.833333,256 C191.861333,256 200,264.064 200,274 L200,283 Z" id="Shape"></path>
                <path d="M45.5,229 C70.6342,229 91,208.4104 91,183 L0,183 C0,208.4104 20.3658,229 45.5,229 Z" id="Shape"></path>
                <polygon id="Shape" points="77.6946376 193 45.5 120.41614 13.3053624 193 5 189.303431 45.5 98 86 189.303431"></polygon>
                <path d="M246.5,137 C271.6342,137 292,116.4104 292,91 L201,91 C201,116.4104 221.3658,137 246.5,137 Z" id="Shape"></path>
                <polygon id="Shape" points="278.694638 102 246.5 29.4161395 214.305362 102 206 98.3034311 246.5 7 287 98.3034311"></polygon>
            </g>
        </g>
    </g>
</svg>