<?xml version="1.0" encoding="UTF-8"?>
<svg width="140px" height="145px" viewBox="0 0 140 145" version="1.1" xmlns="http://www.w3.org/2000/svg" xmlns:xlink="http://www.w3.org/1999/xlink">
    <!-- Generator: Sketch 48.2 (47327) - http://www.bohemiancoding.com/sketch -->
    <title>score-card</title>
    <desc>Created with Sketch.</desc>
    <defs></defs>
    <g id="Page-1" stroke="none" stroke-width="1" fill="none" fill-rule="evenodd" opacity="0.0765964674">
        <g id="score-card" fill="#555555" fill-rule="nonzero">
            <path d="M139.859701,71.9736493 C139.704967,71.3786442 139.553873,71.0179796 139.346348,70.673792 C139.04052,70.239896 138.898529,70.0238633 138.718309,69.8352925 L125.087135,55.5936162 C124.899634,55.3665989 124.683006,55.1322584 124.448174,54.9327029 L123.237606,53.6694612 C122.25823,52.4410045 121.566477,51.023977 121.611987,49.7222889 L121.611987,23.3351852 C121.611987,20.7794094 119.554932,18.7124531 117.015471,18.7124531 L93.4066709,18.7124531 C91.8174596,18.7124531 89.1614924,17.9636621 87.7142724,16.5539577 C87.709418,16.547855 82.8726087,11.5028219 73.2038444,1.41885835 C72.3682796,0.556558629 71.2323485,0.0640774738 70.0381645,0.0183078496 C68.769344,0.0640774738 67.6315924,0.554727844 66.7942073,1.41885835 L52.3110853,16.5448037 C50.8383797,17.9636621 48.1805921,18.7124531 46.5913807,18.7124531 L22.9862219,18.7124531 C20.4449401,18.7124531 18.3897057,20.7812401 18.3897057,23.3351852 L18.3897057,49.7222889 C18.4333954,51.0221462 17.7434628,52.4410045 16.7640863,53.6694612 L15.5516983,54.9327029 C15.3186867,55.1304276 15.1020589,55.3665989 14.8508433,55.5386927 C14.8326393,55.5508979 10.3101528,60.3164312 1.28338374,69.8352925 C1.10316389,70.0238633 0.959352099,70.2417267 0.815540305,70.4486054 C0.447819007,71.0179796 0.296725602,71.3786442 0.187501454,71.7576167 C0.0709956962,72.2903751 0.027306037,72.6071009 0.0182040247,72.9219959 C0.0182040247,72.9512885 0.0121360164,95.4363792 0,140.377268 C0,142.933044 2.05705479,145 4.59833663,145 L69.963528,145 L135.403356,145 C137.944638,145 139.999872,142.931213 139.999872,140.377268 L139.999872,73.0391662 C139.974386,72.6071009 139.928876,72.2903751 139.859701,71.9736493 Z M27.5827382,30.5594626 C27.77206,29.1424351 28.920734,28.0311486 30.3843376,28.0311486 C30.4571537,28.0311486 30.4462312,27.976225 30.4935617,27.9579172 L69.963528,27.9579172 L70.0381645,27.9579172 L109.508131,27.9579172 C109.55182,27.976225 109.544539,28.0311486 109.615534,28.0311486 C111.080958,28.0311486 112.231453,29.1406043 112.418954,30.5594626 L112.418954,71.0436106 C112.455362,72.9494577 111.015424,75.0896453 109.249634,76.497519 L97.7774572,84.5419881 L95.7586309,85.9571849 L91.7610271,88.7601167 L83.5437304,94.5197662 L72.6395196,102.165124 C71.7766488,102.721683 70.8646272,102.950531 69.999936,102.981654 C69.1370652,102.9487 68.226864,102.719852 67.3639932,102.165124 L48.2424857,88.7601167 L42.2260556,84.5419881 L30.7520589,76.497519 C28.9826277,75.0878145 27.5463301,72.9494577 27.5827382,71.0436106 L27.5827382,30.5594626 Z M9.19485285,78.5937678 C9.19485285,76.5707504 10.9897697,73.8996351 12.7064092,75.1079532 L35.4050076,91.03029 C35.3868035,91.0394439 35.2976038,91.0485979 35.3158078,91.0669057 C36.2041642,91.5996641 36.7976154,92.5846265 36.7976154,93.7032361 C36.7976154,94.461181 36.4845062,95.1202636 36.0257648,95.662176 L9.19667326,127.005215 L9.19667326,78.5937678 L9.19485285,78.5937678 Z M70.0381645,135.754536 L69.963528,135.754536 L13.8223159,135.754536 L43.8808014,100.810343 C43.8990055,100.819497 43.9081075,100.901883 43.9172095,100.881744 C44.7709782,99.9608591 45.4263231,99.4006389 46.5404094,99.4006389 C47.4287658,99.4006389 47.9494009,99.8180579 48.8286553,100.519248 C48.8468594,100.528402 48.8559614,100.47714 48.8741654,100.47714 L67.4823194,113.525145 C68.2286844,114.048749 69.0933756,114.30689 69.9653484,114.332521 L69.9653484,114.347167 C69.9780912,114.347167 69.9926544,114.341675 70.0017564,114.341675 C70.0144992,114.341675 70.0290625,114.347167 70.0399849,114.347167 L70.0399849,114.334352 C70.9119577,114.30689 71.7784692,114.05058 72.5230138,113.526976 L91.127527,100.478971 C91.1475515,100.478971 91.1548331,100.530233 91.1730371,100.521079 C92.0522915,99.8180579 92.574747,99.4024697 93.4631034,99.4024697 C94.5753693,99.4024697 95.2325346,99.9626899 96.0826625,100.883575 C96.093585,100.903713 96.102687,100.821328 96.120891,100.812174 L126.177556,135.754536 L70.0381645,135.754536 Z M130.80684,127.005215 L103.977748,95.662176 C103.688304,95.3179884 103.468035,94.9243696 103.335146,94.4923044 C103.256869,94.2396561 103.204077,93.9815154 103.204077,93.7014053 C103.204077,92.5827957 103.795708,91.5978334 104.684064,91.0650749 C104.704089,91.0467671 104.614889,91.0376132 104.594864,91.0284592 L107.187118,89.2104898 L127.295283,75.1061224 C129.008282,73.8978043 130.80684,76.5689196 130.80684,78.591937 L130.80684,127.005215 Z" id="Score-Card"></path>
        </g>
    </g>
</svg>