<?xml version="1.0" encoding="UTF-8"?>
<svg width="191px" height="104px" viewBox="0 0 191 104" version="1.1" xmlns="http://www.w3.org/2000/svg" xmlns:xlink="http://www.w3.org/1999/xlink">
    <!-- Generator: Sketch 51 (57462) - http://www.bohemiancoding.com/sketch -->
    <title>Oklahoma</title>
    <desc>Created with Sketch.</desc>
    <defs></defs>
    <g id="Page-1" stroke="none" stroke-width="1" fill="none" fill-rule="evenodd">
        <g id="A5" transform="translate(-532.000000, -445.000000)">
            <g id="Oklahoma" transform="translate(532.000000, 445.000000)">
                <polygon id="Fill-29" fill="#D6D6D6" points="183.718408 15.8480353 184.404432 20.0702519 185.067862 24.2646297 186.435801 32.6881839 187.097177 36.8848816 187.779093 41.1070982 188.465116 45.3084358 189.147032 49.5260126 189.327781 56.1562846 189.648199 69.4075491 189.828948 76.0610202 189.989157 82.6843325 190.169906 89.3122846 190.490324 102.591388 190.371194 102.568189 189.808408 102.591388 189.387346 102.364038 189.387346 102.591388 188.300799 102.227164 187.959841 102.046212 188.039946 101.886139 188.099511 101.751584 187.618884 101.726065 187.037612 101.886139 186.856863 101.61471 186.59601 101.456957 186.275592 101.366481 185.949012 101.320083 185.788803 101.320083 185.548489 101.480156 185.38828 101.524234 185.267096 101.480156 185.067862 101.208728 184.665285 101.004577 184.264762 100.299327 183.944344 100.162453 183.658843 100.162453 183.077572 99.9815013 181.608988 99.7541511 180.727838 98.8702695 180.366341 98.2114181 180.245157 98.0281461 180.004843 97.868073 179.803555 97.7799169 179.663885 97.5989647 179.583781 97.1442645 179.524216 97.0073904 179.359899 96.8496373 179.17915 96.7127632 179.016887 96.6663652 178.236381 96.6663652 177.895423 96.5758892 177.533926 96.304461 176.767798 95.5087355 176.365221 95.2373073 175.66482 95.0795542 175.523096 94.898602 175.422452 94.6944509 175.303322 94.5111788 175.042469 94.3302267 173.53486 93.8546474 173.173363 93.9219244 172.770786 94.3302267 172.647548 94.8081259 172.627008 95.3254635 172.526364 95.6688086 172.247025 95.5087355 172.125841 95.7592846 171.965632 95.8938388 171.764344 96.0098338 171.52403 96.1699068 171.263177 96.0098338 171.102968 96.0098338 171.043403 96.304461 171.043403 96.5318111 171.002324 96.6663652 170.90168 96.7568413 170.76201 96.8496373 170.581261 96.8705164 168.691616 96.8937154 168.451302 96.9609924 168.291093 96.7359622 168.145261 96.6199673 167.966567 96.5550101 167.744739 96.5550101 167.664634 96.6199673 167.524965 96.7359622 167.42432 96.8032393 167.364755 96.6895642 167.264111 96.5318111 167.204546 96.418136 167.204546 96.3740579 166.502091 96.394937 166.200159 96.2371839 166.401447 95.7824836 166.220698 95.3254635 165.959845 95.1027531 165.655858 94.9426801 165.353926 94.6944509 165.054047 94.5784559 164.81168 94.852204 164.532341 95.4414584 164.372132 95.4414584 163.990094 95.3045844 163.93053 95.3718615 163.404715 95.7128866 163.164401 95.7824836 162.922034 95.9657557 162.70226 96.1699068 162.56259 96.3740579 162.340762 96.3740579 161.999804 96.418136 161.274755 96.441335 161.114546 96.6431662 161.233676 97.4852897 160.993363 97.7126398 160.833153 97.6430428 160.71197 97.5084887 160.59284 97.3043375 160.412091 97.3716146 160.290907 97.5316877 160.151238 97.7335189 159.528887 97.891272 159.268034 97.823995 157.961713 96.9609924 157.719346 96.6895642 157.479032 96.6199673 157.197639 96.8264383 156.977865 97.1210655 156.893653 97.3484156 156.733444 97.3484156 156.392486 97.5757657 155.989909 97.914471 155.227889 98.3227733 154.92801 98.3691713 153.761359 98.4132494 153.539531 98.4851662 153.097929 98.8006725 152.857616 98.8702695 152.637841 99.0952997 152.272236 100.162453 152.070948 100.570756 151.649885 100.888582 151.249363 100.955859 150.286054 100.865383 149.700675 100.979058 149.561005 101.276005 149.579491 101.726065 149.480901 102.364038 148.85855 102.886015 148.176634 102.180766 147.49061 101.071854 146.948364 100.366605 146.527302 100.276128 145.019693 100.431562 144.838944 100.343406 144.75884 100.095176 144.699275 99.8237481 144.617116 99.5940781 144.477447 99.480403 143.97628 99.2089748 143.049943 98.9143476 142.76855 98.5988413 142.667906 98.4851662 142.608341 98.3459723 142.567261 98.1882191 142.567261 98.0281461 142.587801 97.868073 142.828115 97.3043375 142.76855 97.1210655 142.567261 96.9169144 142.00653 96.6663652 141.704597 96.5967683 141.464283 96.5967683 141.345153 96.6895642 141.265049 96.7800403 141.119218 97.0514685 140.858364 98.007267 140.798799 98.1650202 140.739234 98.2995743 140.65913 98.4132494 140.558486 98.5060453 140.377737 98.5988413 140.155909 98.6893174 139.734847 98.7565945 139.494533 98.7565945 139.295298 98.7333955 139.174115 98.6661184 138.568196 98.1650202 138.327882 98.0513451 138.147133 98.0281461 137.364573 98.1650202 137.144799 98.1650202 136.964051 98.0977431 136.863406 98.0281461 136.577906 97.7126398 136.438236 97.4620907 136.317052 97.1651436 136.156843 96.304461 136.056199 96.0098338 135.957609 95.8497607 135.77686 95.7360856 135.474927 95.5783325 135.255153 95.5551335 135.074405 95.5551335 134.308277 95.7360856 134.166553 95.8033627 134.067963 95.8729597 133.9057 96.1235088 133.926239 96.5318111 133.887214 97.2579395 133.564742 98.0977431 133.223784 98.6197204 132.743157 98.8006725 131.938003 98.5756423 131.977029 99.0512217 132.137238 99.2553728 132.322094 99.389927 132.422739 99.6845542 132.322094 99.9142242 131.896924 100.208851 131.81682 100.547557 131.77574 101.433758 131.594992 102.227164 131.194469 102.728262 130.473528 102.795539 129.927174 102.433635 129.485572 101.751584 129.165153 100.955859 129.04397 100.208851 129.124074 99.6845542 129.526651 98.9143476 129.606755 98.4132494 129.545137 98.0281461 129.366442 97.6894408 129.105589 97.4180126 128.824196 97.1883426 128.684526 97.2811385 128.403133 97.4180126 128.281949 97.5316877 128.201845 97.6662418 128.12174 97.891272 127.741757 98.6893174 127.616465 98.8911486 126.994115 98.2995743 126.733261 98.2114181 126.373818 98.5060453 126.332739 98.5988413 126.213609 98.9143476 126.15199 99.0280227 126.03286 99.1834559 125.790492 99.3458489 125.710388 99.4595239 125.529639 99.6172771 125.285218 99.7077531 123.820742 99.8678262 123.461298 99.6172771 123.301089 98.9143476 123.23947 98.2786952 123.054614 97.891272 122.713656 97.6894408 122.191949 97.5989647 120.764445 97.7335189 120.423487 97.5316877 120.203713 96.9609924 120.203713 95.8265617 119.981885 95.3045844 119.139761 94.852204 118.254503 95.2141083 117.471943 95.9402368 115.582297 98.1882191 114.719632 98.8238715 113.731676 99.0280227 112.770422 98.7101965 112.248715 98.4132494 112.026887 98.1186222 112.086452 97.6662418 112.106992 97.4620907 112.148071 97.1651436 112.28774 96.5318111 112.28774 96.2371839 112.127531 95.8938388 112.267201 95.5551335 112.207636 95.2373073 112.047427 94.9890781 111.823545 95.0563552 111.020445 94.761728 109.917467 94.5320579 109.050695 94.0541587 108.99113 93.0589219 108.869946 92.4023904 108.950051 91.4929899 108.950051 90.6972645 108.588553 90.3585592 108.027821 90.4490353 106.9803 90.9014156 106.298384 91.0174106 103.287275 90.6299874 102.722435 90.8341385 102.360938 91.2888388 102.100084 91.8316952 101.798152 92.3559924 101.658482 92.6274207 101.116236 92.7410957 99.9886105 92.7642947 99.6681922 92.5601436 98.906172 91.5811461 98.6042395 91.3561159 98.462516 91.1983627 98.0804789 90.4699144 97.8381113 90.2866423 97.0966307 90.1312091 96.8357774 90.1312091 96.3325565 90.2425642 94.8270017 90.9710126 94.5661484 90.8109395 91.7522192 90.1544081 91.2880236 89.9734559 89.5811804 88.7462292 89.0779595 88.6116751 88.7164621 88.7253501 88.3755042 88.8831033 87.8948769 88.9944584 87.4512209 88.9271814 86.5865025 88.6348741 86.1243609 88.5652771 85.0809477 88.6348741 84.5756728 88.521199 84.1956897 88.1569748 84.1155852 87.6790756 84.0354806 86.0249874 84.1155852 85.6584433 84.1956897 85.4102141 83.8136526 84.8882368 83.1132513 84.1853073 82.9099089 83.7074081 82.7702395 83.1622317 82.5484115 82.7075315 82.1047555 82.5057003 81.6631535 82.4825013 81.4433794 82.4152242 81.2420911 82.3247481 81.0613423 82.120597 80.9627521 81.890927 80.9011332 81.6867758 80.7820034 81.5058237 80.358887 81.1671184 80.0343609 81.1671184 79.8145868 81.5058237 79.695457 83.0276776 79.5147083 83.4823778 79.1737504 83.686529 78.6520438 83.616932 78.1673086 83.4151008 77.3231298 82.8676045 76.2406914 82.7075315 76.0373491 82.7771285 75.8381147 82.9140025 75.5936931 83.2527078 75.433484 83.4151008 75.0329612 83.5496549 73.6670759 83.4151008 73.2439595 83.2527078 72.9625666 82.9140025 72.5209646 82.1646751 68.7437268 78.0793325 68.5218988 77.9192594 68.0412715 77.8079043 67.8399831 77.6710302 67.4784857 77.5550353 66.4720438 77.7174282 66.131086 77.7615063 66.131086 76.0378212 66.1105464 72.5626121 66.1105464 58.6965743 66.0900067 55.2236851 66.0900067 41.3576474 66.0715211 37.9079572 66.0715211 24.0395995 66.0509815 20.5922292 66.0509815 19.0680554 58.7183339 19.0680554 54.61657 19.0448564 49.7527858 19.0007783 44.3467555 18.9543804 38.5402024 18.8871033 32.5734401 18.8198262 26.5840843 18.7061511 20.8001248 18.5924761 15.3920405 18.478801 10.5303103 18.3442469 6.43060034 18.2305718 3.27571332 18.1400957 1.24639798 18.0936977 0.525456998 18.0704987 0.605561551 14.2565844 0.704151771 10.4681889 0.86641484 2.86587909 3.55710624 2.93315617 6.22931197 3.02363224 8.92205734 3.09322922 11.6168567 3.1605063 14.2890624 3.22778338 16.9797538 3.29506045 19.6724992 3.34145844 22.3467589 3.40873552 27.3707521 3.49921159 32.3926914 3.58968766 37.4146307 3.65928463 42.4386239 3.72656171 47.4626172 3.7729597 52.4866105 3.81703778 57.5106037 3.84023678 62.534597 3.86111587 67.5585902 3.86111587 72.5825835 3.84023678 77.6045228 3.81703778 82.6490556 3.79383879 87.6545632 3.74976071 92.6970422 3.68016373 97.7189815 3.63608564 102.742975 3.54560957 107.766968 3.4551335 112.770422 3.34145844 117.812901 3.22778338 122.8143 3.09322922 127.840347 2.95635516 132.864341 2.81948111 137.88628 2.63852897 142.908219 2.48077582 147.93632 2.29750378 152.95826 2.09335264 157.980199 1.88920151 163.004192 1.65953149 168.026132 1.41130227 173.052179 1.16307305 178.055632 0.912523929 183.077572 0.641095718"></polygon>
                <polygon id="Stroke-30" stroke="#F9F9F9" stroke-width="0.25" stroke-linecap="round" stroke-linejoin="round" points="183.718408 15.8480353 184.404432 20.0702519 185.067862 24.2646297 186.435801 32.6881839 187.097177 36.8848816 187.779093 41.1070982 188.465116 45.3084358 189.147032 49.5260126 189.327781 56.1562846 189.648199 69.4075491 189.828948 76.0610202 189.989157 82.6843325 190.169906 89.3122846 190.490324 102.591388 190.371194 102.568189 189.808408 102.591388 189.387346 102.364038 189.387346 102.591388 188.300799 102.227164 187.959841 102.046212 188.039946 101.886139 188.099511 101.751584 187.618884 101.726065 187.037612 101.886139 186.856863 101.61471 186.59601 101.456957 186.275592 101.366481 185.949012 101.320083 185.788803 101.320083 185.548489 101.480156 185.38828 101.524234 185.267096 101.480156 185.067862 101.208728 184.665285 101.004577 184.264762 100.299327 183.944344 100.162453 183.658843 100.162453 183.077572 99.9815013 181.608988 99.7541511 180.727838 98.8702695 180.366341 98.2114181 180.245157 98.0281461 180.004843 97.868073 179.803555 97.7799169 179.663885 97.5989647 179.583781 97.1442645 179.524216 97.0073904 179.359899 96.8496373 179.17915 96.7127632 179.016887 96.6663652 178.236381 96.6663652 177.895423 96.5758892 177.533926 96.304461 176.767798 95.5087355 176.365221 95.2373073 175.66482 95.0795542 175.523096 94.898602 175.422452 94.6944509 175.303322 94.5111788 175.042469 94.3302267 173.53486 93.8546474 173.173363 93.9219244 172.770786 94.3302267 172.647548 94.8081259 172.627008 95.3254635 172.526364 95.6688086 172.247025 95.5087355 172.125841 95.7592846 171.965632 95.8938388 171.764344 96.0098338 171.52403 96.1699068 171.263177 96.0098338 171.102968 96.0098338 171.043403 96.304461 171.043403 96.5318111 171.002324 96.6663652 170.90168 96.7568413 170.76201 96.8496373 170.581261 96.8705164 168.691616 96.8937154 168.451302 96.9609924 168.291093 96.7359622 168.145261 96.6199673 167.966567 96.5550101 167.744739 96.5550101 167.664634 96.6199673 167.524965 96.7359622 167.42432 96.8032393 167.364755 96.6895642 167.264111 96.5318111 167.204546 96.418136 167.204546 96.3740579 166.502091 96.394937 166.200159 96.2371839 166.401447 95.7824836 166.220698 95.3254635 165.959845 95.1027531 165.655858 94.9426801 165.353926 94.6944509 165.054047 94.5784559 164.81168 94.852204 164.532341 95.4414584 164.372132 95.4414584 163.990094 95.3045844 163.93053 95.3718615 163.404715 95.7128866 163.164401 95.7824836 162.922034 95.9657557 162.70226 96.1699068 162.56259 96.3740579 162.340762 96.3740579 161.999804 96.418136 161.274755 96.441335 161.114546 96.6431662 161.233676 97.4852897 160.993363 97.7126398 160.833153 97.6430428 160.71197 97.5084887 160.59284 97.3043375 160.412091 97.3716146 160.290907 97.5316877 160.151238 97.7335189 159.528887 97.891272 159.268034 97.823995 157.961713 96.9609924 157.719346 96.6895642 157.479032 96.6199673 157.197639 96.8264383 156.977865 97.1210655 156.893653 97.3484156 156.733444 97.3484156 156.392486 97.5757657 155.989909 97.914471 155.227889 98.3227733 154.92801 98.3691713 153.761359 98.4132494 153.539531 98.4851662 153.097929 98.8006725 152.857616 98.8702695 152.637841 99.0952997 152.272236 100.162453 152.070948 100.570756 151.649885 100.888582 151.249363 100.955859 150.286054 100.865383 149.700675 100.979058 149.561005 101.276005 149.579491 101.726065 149.480901 102.364038 148.85855 102.886015 148.176634 102.180766 147.49061 101.071854 146.948364 100.366605 146.527302 100.276128 145.019693 100.431562 144.838944 100.343406 144.75884 100.095176 144.699275 99.8237481 144.617116 99.5940781 144.477447 99.480403 143.97628 99.2089748 143.049943 98.9143476 142.76855 98.5988413 142.667906 98.4851662 142.608341 98.3459723 142.567261 98.1882191 142.567261 98.0281461 142.587801 97.868073 142.828115 97.3043375 142.76855 97.1210655 142.567261 96.9169144 142.00653 96.6663652 141.704597 96.5967683 141.464283 96.5967683 141.345153 96.6895642 141.265049 96.7800403 141.119218 97.0514685 140.858364 98.007267 140.798799 98.1650202 140.739234 98.2995743 140.65913 98.4132494 140.558486 98.5060453 140.377737 98.5988413 140.155909 98.6893174 139.734847 98.7565945 139.494533 98.7565945 139.295298 98.7333955 139.174115 98.6661184 138.568196 98.1650202 138.327882 98.0513451 138.147133 98.0281461 137.364573 98.1650202 137.144799 98.1650202 136.964051 98.0977431 136.863406 98.0281461 136.577906 97.7126398 136.438236 97.4620907 136.317052 97.1651436 136.156843 96.304461 136.056199 96.0098338 135.957609 95.8497607 135.77686 95.7360856 135.474927 95.5783325 135.255153 95.5551335 135.074405 95.5551335 134.308277 95.7360856 134.166553 95.8033627 134.067963 95.8729597 133.9057 96.1235088 133.926239 96.5318111 133.887214 97.2579395 133.564742 98.0977431 133.223784 98.6197204 132.743157 98.8006725 131.938003 98.5756423 131.977029 99.0512217 132.137238 99.2553728 132.322094 99.389927 132.422739 99.6845542 132.322094 99.9142242 131.896924 100.208851 131.81682 100.547557 131.77574 101.433758 131.594992 102.227164 131.194469 102.728262 130.473528 102.795539 129.927174 102.433635 129.485572 101.751584 129.165153 100.955859 129.04397 100.208851 129.124074 99.6845542 129.526651 98.9143476 129.606755 98.4132494 129.545137 98.0281461 129.366442 97.6894408 129.105589 97.4180126 128.824196 97.1883426 128.684526 97.2811385 128.403133 97.4180126 128.281949 97.5316877 128.201845 97.6662418 128.12174 97.891272 127.741757 98.6893174 127.616465 98.8911486 126.994115 98.2995743 126.733261 98.2114181 126.373818 98.5060453 126.332739 98.5988413 126.213609 98.9143476 126.15199 99.0280227 126.03286 99.1834559 125.790492 99.3458489 125.710388 99.4595239 125.529639 99.6172771 125.285218 99.7077531 123.820742 99.8678262 123.461298 99.6172771 123.301089 98.9143476 123.23947 98.2786952 123.054614 97.891272 122.713656 97.6894408 122.191949 97.5989647 120.764445 97.7335189 120.423487 97.5316877 120.203713 96.9609924 120.203713 95.8265617 119.981885 95.3045844 119.139761 94.852204 118.254503 95.2141083 117.471943 95.9402368 115.582297 98.1882191 114.719632 98.8238715 113.731676 99.0280227 112.770422 98.7101965 112.248715 98.4132494 112.026887 98.1186222 112.086452 97.6662418 112.106992 97.4620907 112.148071 97.1651436 112.28774 96.5318111 112.28774 96.2371839 112.127531 95.8938388 112.267201 95.5551335 112.207636 95.2373073 112.047427 94.9890781 111.823545 95.0563552 111.020445 94.761728 109.917467 94.5320579 109.050695 94.0541587 108.99113 93.0589219 108.869946 92.4023904 108.950051 91.4929899 108.950051 90.6972645 108.588553 90.3585592 108.027821 90.4490353 106.9803 90.9014156 106.298384 91.0174106 103.287275 90.6299874 102.722435 90.8341385 102.360938 91.2888388 102.100084 91.8316952 101.798152 92.3559924 101.658482 92.6274207 101.116236 92.7410957 99.9886105 92.7642947 99.6681922 92.5601436 98.906172 91.5811461 98.6042395 91.3561159 98.462516 91.1983627 98.0804789 90.4699144 97.8381113 90.2866423 97.0966307 90.1312091 96.8357774 90.1312091 96.3325565 90.2425642 94.8270017 90.9710126 94.5661484 90.8109395 91.7522192 90.1544081 91.2880236 89.9734559 89.5811804 88.7462292 89.0779595 88.6116751 88.7164621 88.7253501 88.3755042 88.8831033 87.8948769 88.9944584 87.4512209 88.9271814 86.5865025 88.6348741 86.1243609 88.5652771 85.0809477 88.6348741 84.5756728 88.521199 84.1956897 88.1569748 84.1155852 87.6790756 84.0354806 86.0249874 84.1155852 85.6584433 84.1956897 85.4102141 83.8136526 84.8882368 83.1132513 84.1853073 82.9099089 83.7074081 82.7702395 83.1622317 82.5484115 82.7075315 82.1047555 82.5057003 81.6631535 82.4825013 81.4433794 82.4152242 81.2420911 82.3247481 81.0613423 82.120597 80.9627521 81.890927 80.9011332 81.6867758 80.7820034 81.5058237 80.358887 81.1671184 80.0343609 81.1671184 79.8145868 81.5058237 79.695457 83.0276776 79.5147083 83.4823778 79.1737504 83.686529 78.6520438 83.616932 78.1673086 83.4151008 77.3231298 82.8676045 76.2406914 82.7075315 76.0373491 82.7771285 75.8381147 82.9140025 75.5936931 83.2527078 75.433484 83.4151008 75.0329612 83.5496549 73.6670759 83.4151008 73.2439595 83.2527078 72.9625666 82.9140025 72.5209646 82.1646751 68.7437268 78.0793325 68.5218988 77.9192594 68.0412715 77.8079043 67.8399831 77.6710302 67.4784857 77.5550353 66.4720438 77.7174282 66.131086 77.7615063 66.131086 76.0378212 66.1105464 72.5626121 66.1105464 58.6965743 66.0900067 55.2236851 66.0900067 41.3576474 66.0715211 37.9079572 66.0715211 24.0395995 66.0509815 20.5922292 66.0509815 19.0680554 58.7183339 19.0680554 54.61657 19.0448564 49.7527858 19.0007783 44.3467555 18.9543804 38.5402024 18.8871033 32.5734401 18.8198262 26.5840843 18.7061511 20.8001248 18.5924761 15.3920405 18.478801 10.5303103 18.3442469 6.43060034 18.2305718 3.27571332 18.1400957 1.24639798 18.0936977 0.525456998 18.0704987 0.605561551 14.2565844 0.704151771 10.4681889 0.86641484 2.86587909 3.55710624 2.93315617 6.22931197 3.02363224 8.92205734 3.09322922 11.6168567 3.1605063 14.2890624 3.22778338 16.9797538 3.29506045 19.6724992 3.34145844 22.3467589 3.40873552 27.3707521 3.49921159 32.3926914 3.58968766 37.4146307 3.65928463 42.4386239 3.72656171 47.4626172 3.7729597 52.4866105 3.81703778 57.5106037 3.84023678 62.534597 3.86111587 67.5585902 3.86111587 72.5825835 3.84023678 77.6045228 3.81703778 82.6490556 3.79383879 87.6545632 3.74976071 92.6970422 3.68016373 97.7189815 3.63608564 102.742975 3.54560957 107.766968 3.4551335 112.770422 3.34145844 117.812901 3.22778338 122.8143 3.09322922 127.840347 2.95635516 132.864341 2.81948111 137.88628 2.63852897 142.908219 2.48077582 147.93632 2.29750378 152.95826 2.09335264 157.980199 1.88920151 163.004192 1.65953149 168.026132 1.41130227 173.052179 1.16307305 178.055632 0.912523929 183.077572 0.641095718"></polygon>
            </g>
        </g>
    </g>
</svg>