<?xml version="1.0" encoding="UTF-8"?>
<svg width="83px" height="138px" viewBox="0 0 83 138" version="1.1" xmlns="http://www.w3.org/2000/svg" xmlns:xlink="http://www.w3.org/1999/xlink">
    <!-- Generator: Sketch 51 (57462) - http://www.bohemiancoding.com/sketch -->
    <title>Maine</title>
    <desc>Created with Sketch.</desc>
    <defs></defs>
    <g id="Page-1" stroke="none" stroke-width="1" fill="none" fill-rule="evenodd">
        <g id="A5" transform="translate(-1162.000000, -40.000000)">
            <g id="Maine" transform="translate(1162.000000, 40.000000)">
                <path d="M53.2175379,95.7721537 L52.3343339,95.9067078 L51.8947858,95.8835088 L51.0711467,95.5888816 L50.7260809,95.6793577 L50.7055413,96.270932 L51.1923305,96.294131 L51.6339325,96.4727632 L51.8742462,96.8161083 L51.8331669,97.3612846 L52.5951872,97.5190378 L52.9772243,97.4981587 L53.0963541,97.2940076 L53.157973,96.9761814 L53.4023946,96.7256322 L53.5626037,96.3846071 L53.4414199,95.7930327 L53.2175379,95.7721537 L53.2175379,95.7721537 Z M55.1667487,92.0487154 L54.986,91.9373602 L54.8052513,91.7100101 L55.0065396,91.526738 L55.4481417,91.2344307 L55.6329983,91.0279597 L55.4481417,90.7333325 L55.3084722,90.3691083 L55.0866442,90.053602 L54.6450422,89.893529 L54.0843103,89.7589748 L53.8645363,89.8494509 L53.7228128,90.1881562 L53.6837875,90.5059824 L53.7433524,90.8238086 L53.8645363,91.1184358 L54.0042057,91.3689849 L53.8439966,91.389864 L53.5215245,91.549937 L53.3613153,91.573136 L53.7022732,92.0255164 L53.8439966,92.2992645 L53.8029174,92.8885189 L53.9035616,93.002194 L54.6655818,93.2063451 L55.0270793,92.978995 L55.6720236,92.2992645 L55.6329983,92.1159924 L55.1667487,92.0487154 L55.1667487,92.0487154 Z M61.2362091,83.2191788 L61.0369747,82.6763224 L60.3735447,82.4489723 L59.5889309,82.7667985 L58.9460405,83.4024509 L58.6851872,84.1053804 L58.9665801,84.2654534 L58.9665801,84.5368816 L58.806371,84.8106297 L58.5660573,84.9915819 L58.4448735,85.172534 L58.3442293,85.5576373 L58.2435852,86.6711889 L58.2435852,87.0794912 L58.3236897,87.4437154 L58.5044384,87.5341914 L58.806371,87.5341914 L58.9871197,87.6687456 L58.9871197,87.8960957 L58.7262664,88.1002469 L59.026145,88.4853501 L59.7696796,88.6245441 L60.0942057,88.9377305 L60.1743103,88.8472544 L60.3735447,88.6686222 L60.4351636,88.6013451 L60.6754772,89.0305264 L60.9568702,88.8472544 L61.1971838,88.3948741 L61.3573929,87.9865718 L61.2772884,87.6687456 L60.9363305,87.4669144 L60.634398,87.1490882 L60.5748331,86.4183199 L60.7145025,86.3742418 L61.2772884,86.6943879 L62.0803879,86.3510428 L62.7848971,85.6945113 L63.0662901,84.9915819 L62.684253,84.2213753 L61.2362091,83.2191788 L61.2362091,83.2191788 Z M82.1537673,63.2726851 L81.7327049,62.6579118 L81.6916256,62.5442368 L81.67314,62.4096826 L81.6526003,62.2960076 L81.5724958,62.2960076 L81.3116425,62.4096826 L81.2500236,62.4096826 L80.6502664,61.7717103 L80.3688735,61.5675592 L80.0422934,61.5675592 L80.7098314,62.6811108 L80.8289612,63.2726851 L80.4880034,63.7459446 L80.3093086,63.1102922 L79.9437032,62.4305617 L79.5616661,62.0245793 L79.2412479,62.2960076 L79.3809174,62.4096826 L79.5616661,62.6579118 L79.6417707,62.7715869 L79.4219966,63.0198161 L79.6417707,63.1798892 L79.3809174,63.3631612 L78.9393153,62.952539 L78.7400809,63.0662141 L78.7585666,63.2958841 L78.9393153,64.1774458 L78.9803946,64.4743929 L78.3190185,63.1102922 L78.0581653,62.885262 L77.5919157,62.6138338 L77.2509578,62.2960076 L77.2714975,61.8621864 L77.5118111,61.8413073 L78.3190185,62.2264106 L78.5983575,62.2728086 L78.8797504,62.0686574 L78.9803946,61.7276322 L78.8797504,61.4121259 L78.518253,61.226534 L78.5593322,60.5004055 L78.7791062,60.5004055 L79.1015784,60.7973526 L79.3624317,60.9342267 L79.7218752,60.6372796 L79.7424148,60.1848992 L79.6828499,59.7093199 L79.8225194,59.2986977 L79.5226408,59.0945466 L78.9208297,58.347539 L78.7585666,58.187466 L78.4792277,58.141068 L78.0971906,57.8905189 L77.852769,57.4845365 L77.9328735,56.9625592 L77.5528904,56.551937 L77.1503137,56.1900327 L76.8709747,56.0299597 L76.7292513,55.9603627 L76.5895818,55.9603627 L76.5485025,55.9162846 L76.3492681,55.5752594 L76.1479798,55.3270302 L76.0473356,55.1460781 L75.9282057,55.009204 L75.7638887,54.9883249 L75.3818516,55.1460781 L75.301747,55.1460781 L75.1209983,54.8514509 L74.7595008,54.8050529 L74.2377943,54.6704987 L73.976941,54.6936977 L73.7777066,54.8282519 L73.6359831,55.0996801 L73.6565228,55.3502292 L73.7181417,55.5752594 L73.697602,55.8722065 L73.1512479,56.551937 L72.368688,56.4405819 L71.5265632,55.8930856 L70.4790422,54.918728 L69.435629,54.3526725 L69.2363946,53.9211713 L69.215855,53.3319169 L69.2754199,52.8076196 L69.4972479,51.740466 L69.3164992,50.6524332 L67.7883508,49.0633023 L67.3056695,48.0889446 L67.6671669,47.4741713 L68.0286644,46.9313149 L68.2484384,46.4974937 L68.0697437,45.476738 L67.6671669,44.7065315 L67.2255649,44.4791814 L66.7202901,44.5928564 L66.1595582,44.8642846 L65.3174334,45.1357128 L64.1898078,45.2261889 L63.0662901,45.0684358 L62.3638347,44.7970076 L62.018769,44.5928564 L61.8195346,44.3214282 L61.6182462,44.0685592 L61.3779325,43.957204 L61.2362091,44.0476801 L61.1971838,44.2750302 L61.0965396,44.5023804 L60.8356863,44.5255793 L60.2934401,44.3655063 L59.9483744,44.2077531 L59.7286003,43.866728 L59.2459191,42.391272 L59.2274334,41.9156927 L59.3280776,41.3473174 L59.467747,40.7998212 L59.5067723,40.4147179 L59.3465632,40.0528136 L58.9049612,39.6677103 L58.6646476,39.2362091 L58.7652917,38.7583098 L59.0056054,38.2363325 L59.1062496,37.7375542 L59.0056054,37.4893249 L58.806371,37.3292519 L58.584543,37.1946977 L58.4037943,37.0114257 L58.305204,36.7399975 L57.2371433,32.9724811 L56.1937302,29.2049647 L55.1482631,25.4374484 L54.0843103,21.669932 L53.0367892,17.9000957 L51.9933761,14.1348992 L50.945855,10.388262 L49.9044958,6.62306549 L49.5429983,5.53271285 L49.4033288,5.3726398 L48.5160169,5.19400756 L48.1545194,5.03161461 L47.3924992,4.33100504 L46.3860573,3.87630479 L46.2053086,3.69535264 L46.0245599,3.33112846 L45.7842462,3.05970025 L45.022226,2.53540302 L44.0137302,2.21757683 L42.5697943,1.44737028 L42.2699157,1.35689421 L41.643457,1.28961713 L41.4031433,1.22234005 L40.6801484,0.653964736 L40.3802698,0.493891688 L39.3327487,0.266541562 L38.3098752,0.377896725 L37.4841821,0.94859194 L37.0631197,2.01342569 L37.102145,2.35445088 L37.2027892,2.6026801 L37.2027892,2.76275315 L36.7611872,3.03650126 L36.5804384,3.24297229 L36.3606644,3.35432746 L35.6787487,3.15017632 L35.1734739,3.26617128 L34.7113322,3.48888161 L34.3518887,3.76262972 L33.6494334,4.53283627 L33.3084755,5.01073552 L33.0866476,5.53271285 L32.8216863,5.91781612 L32.3821383,6.12196725 L31.457855,6.37251637 L30.6917268,6.87129471 L28.6665194,8.96152393 L28.3604789,9.07287909 L25.4500135,8.20987657 L24.9878718,7.75517632 L24.7270185,7.2123199 L24.646914,7.03136776 L24.4066003,6.12196725 L24.1847723,4.37508312 L23.98143,3.55847859 L23.5993929,3.26617128 L20.5862293,3.39840554 L20.3068904,3.5120806 L20.105602,3.76262972 L19.883774,4.21732997 L18.8383069,7.27959698 L17.8154334,10.341864 L16.7679123,13.4087708 L15.7039595,16.4733577 L14.6584924,19.5356247 L13.6150793,22.6002116 L12.5470185,25.6624786 L11.4851197,28.7270655 L11.2838314,29.3186398 L11.2838314,30.6317028 L11.4645801,32.1326776 L11.8260776,35.0139924 L12.0663912,36.9673476 L12.0047723,37.7607531 L10.862769,39.5540353 L10.6224553,39.7581864 L10.2773895,40.1664887 L10.2773895,40.8230202 L10.3780337,41.4586725 L10.3965194,41.7347406 L10.0165363,42.0061688 L9.87481282,42.4353501 L9.79470826,43.5721008 L9.5543946,44.8642846 L9.63449916,45.453539 L10.0966408,45.569534 L10.4971636,46.0659924 L10.7415852,46.6575668 L10.7826644,47.2700202 L10.6019157,47.7455995 L10.0370759,48.448529 L9.87481282,48.794194 L9.95491737,49.0169043 L10.1171804,49.1305793 L10.2178246,49.2442544 L10.3369545,49.3138514 L10.417059,49.4043275 L10.4766239,49.5644005 L10.4581383,49.6757557 L10.3369545,49.9031058 L10.3164148,50.0167809 L10.3574941,51.1048136 L10.4766239,51.5595139 L10.803204,51.900539 L11.3249106,52.0142141 L11.6638145,51.9910151 L11.8445632,52.1742872 L11.9061821,52.9444937 L11.745973,53.9884484 L11.3433963,54.8050529 L10.1767454,56.4846599 L9.89535245,57.0066373 L9.83578752,57.2107884 L9.87481282,57.5286146 L9.975457,57.6863678 L10.1171804,57.8232418 L10.2773895,58.09467 L10.4581383,58.7071234 L10.4971636,59.2522997 L10.3574941,59.730199 L10.0555616,60.1617003 L9.87481282,60.2753753 L9.43526476,60.4099295 L9.23397639,60.5932015 L8.79237437,61.296131 L7.82495784,62.1823325 L7.58464418,62.5674358 L6.28037774,65.4046725 L5.89628668,67.4925819 L5.97639123,67.9681612 L6.30091737,68.5156574 L6.68295447,68.8311637 L7.54561889,69.1049118 L7.96668128,69.3299421 L8.26655987,69.8078413 L8.12689039,70.2602217 L7.74485329,70.5780479 L7.34433052,70.6917229 L6.88218887,70.5780479 L6.05649578,70.0560705 L5.63543339,69.9679144 L5.19383137,70.0792695 L4.89395278,70.3970957 L4.73168971,70.828597 L4.71320405,71.3737733 L4.81384823,71.9630277 L5.17329174,73.2111335 L5.25339629,73.7539899 L5.17329174,74.0532569 L4.85287352,74.4824383 L4.77276897,74.7329874 L4.7933086,74.9835365 L4.95351771,75.5263929 L4.95351771,75.8210202 L4.67212479,76.2293224 L4.33116695,75.9810932 L2.8831231,73.8003879 L2.48260034,73.5312796 L1.98143339,73.5985567 L1.57885666,73.8467859 L1.41453963,74.166932 L1.31594941,74.5288363 L1.07358179,75.0044156 L0.913372681,75.1644887 L0.533389545,75.3454408 L0.974991568,76.8649748 L1.41453963,78.3636297 L1.83970995,79.8854836 L2.28131197,81.3794987 L2.722914,82.8804736 L3.60611804,85.8986625 L4.03128836,87.4205164 L4.47289039,88.9168514 L4.91243845,90.4387053 L5.35404047,91.9373602 L5.7956425,93.4568942 L6.22081282,94.9787481 L6.66241484,96.4727632 L7.10401686,97.9946171 L7.54561889,99.4955919 L7.98722091,101.012806 L8.4308769,102.53466 L8.87247892,104.033315 L9.29354132,105.552849 L9.75568297,107.077023 L10.197285,108.594237 L10.6224553,110.092892 L11.9452074,114.656134 L12.3868094,116.152469 L12.8325194,117.674322 L14.1552715,122.237564 L14.5968735,123.754778 L14.8577268,124.594582 L14.9789106,125.527181 L15.0836627,125.956363 L15.122688,126.387864 L15.122688,126.522418 L15.1432277,126.728889 L15.2027926,126.979438 L15.3630017,127.366861 L15.5047251,127.842441 L15.5232108,128.181146 L15.5047251,128.951353 L15.5047251,129.132305 L15.5642901,129.341096 L15.623855,129.542927 L15.7840641,129.839874 L15.9463272,130.067224 L16.1455616,130.248176 L16.9075818,130.837431 L17.7948938,131.651715 L18.6164789,132.449761 L19.499683,132.767587 L19.664,132.881262 L19.8036695,133.062214 L19.9844182,133.447317 L20.0460371,133.695547 L20.0850624,133.946096 L20.0850624,134.876375 L20.1261417,135.196521 L20.2062462,135.354275 L20.7279528,135.966728 L21.6091029,136.60006 L22.3156661,137.124358 L22.3156661,136.987484 L22.3567454,136.14768 L22.2745868,135.987607 L22.6175987,135.829854 L22.9975818,136.14768 L23.3796189,136.532783 L23.7205767,136.623259 L23.8807858,136.307753 L24.0841282,134.604947 L24.2854165,133.741945 L24.4661653,133.400919 L24.7475582,133.129491 L24.425086,133.015816 L24.5462698,132.403363 L24.7270185,131.881385 L24.3059562,131.336209 L24.1662867,130.63328 L24.2258516,129.886272 L24.3655211,129.204222 L24.7660438,128.137068 L24.9283069,127.842441 L25.1090556,127.728766 L25.6903272,127.501416 L26.1113895,127.137191 L26.3558111,126.684811 L26.5550455,126.183713 L26.8364384,125.708134 L26.9781619,125.571259 L27.2184755,125.457584 L27.2985801,125.32303 L27.3191197,125.165277 L27.3191197,124.756975 L27.3376054,124.573703 L27.579973,123.93573 L27.7607218,123.641103 L27.9804958,123.392874 L27.9394165,123.232801 L27.7401821,123.325597 L27.5594334,123.48335 L27.2390152,123.868453 L26.9781619,123.256 L26.7974132,122.713144 L26.7357943,122.165647 L26.7974132,121.462718 L26.9370826,121.031217 L27.2390152,120.622914 L27.5183541,120.578836 L27.7196425,121.168091 L27.9804958,120.873463 L28.2208094,120.103257 L28.5617673,119.850388 L28.522742,120.307408 L28.7671636,120.147335 L29.2067116,119.718154 L29.4881046,119.57896 L29.4881046,119.374809 L29.3689747,118.444529 L29.2888702,118.126703 L28.8657538,117.49337 L28.4015582,117.426093 L27.9209309,117.607045 L27.3191197,117.718401 L27.2780405,117.49337 L27.859312,117.333297 L28.0996256,117.131466 L28.2413491,116.764922 L28.1407049,116.539892 L27.9599562,116.152469 L27.859312,115.788244 L28.3419933,115.178111 L28.5412277,113.81401 L28.9068331,113.405708 L29.629828,111.930252 L29.8105767,111.772499 L30.0098111,111.682023 L30.2316391,111.501071 L30.6527015,111.090448 L30.8129106,110.842219 L31.016253,110.252965 L31.1579764,109.935139 L31.3572108,109.705469 L31.6180641,109.573234 L31.5790388,109.958338 L31.4783946,110.297043 L31.3387251,110.568471 L31.1970017,110.772622 L31.457855,110.728544 L31.9795616,109.958338 L32.3821383,109.751866 L32.3615987,110.638068 L31.8398921,112.477748 L31.679683,113.36163 L32.0206408,113.201557 L32.2404148,112.816453 L32.341059,112.294476 L32.2999798,111.795698 L32.2999798,111.317798 L32.4417032,110.59167 L32.6224519,109.935139 L32.782661,109.640511 L33.0024351,110.206567 L32.4601889,113.565781 L32.6019123,113.496184 L32.7025565,113.36163 L32.7415818,113.178358 L32.7025565,112.681899 L32.782661,112.568224 L32.9017909,112.477748 L33.0024351,112.315355 L33.5077099,110.886297 L33.7089983,111.248202 L33.889747,111.136846 L34.0499562,110.728544 L34.0889815,110.297043 L33.9698516,109.775065 L33.7685632,109.480438 L33.5077099,109.320365 L33.2468567,109.253088 L33.3269612,109.004859 L33.4686847,108.821587 L33.6288938,108.707912 L33.8281282,108.661514 L34.0889815,108.707912 L34.1300607,108.798388 L34.0889815,109.004859 L34.1095211,109.320365 L34.2512445,109.573234 L34.5922024,109.751866 L34.7318718,109.981537 L34.7708971,110.297043 L34.7113322,110.433917 L34.6517673,110.547592 L34.6312277,110.751743 L34.7318718,111.433793 L34.8530556,111.909373 L35.0317504,112.092645 L35.274118,112.227199 L35.5390793,113.087882 L35.8389578,113.338431 L35.8594975,112.974207 L35.939602,112.591423 L36.0998111,112.294476 L36.3195852,112.115844 L36.3401248,111.953451 L36.3010995,111.180924 L36.1799157,110.909496 L35.8800371,110.457116 L35.4589747,109.526836 L35.1734739,108.52696 L34.3703744,106.323055 L33.8281282,105.281421 L33.5878145,105.893874 L33.448145,106.165302 L33.2468567,106.302176 L33.0435143,106.255778 L32.8627656,106.074826 L32.782661,105.824277 L32.8216863,105.485572 L33.6288938,103.69229 L33.8692074,103.374463 L34.0294165,103.21439 L34.1506003,102.738811 L34.3703744,102.581058 L34.5120978,102.694733 L34.4114536,103.079836 L34.1506003,103.69229 L34.1300607,104.37434 L34.2307049,105.009992 L34.4504789,105.576048 L34.610688,106.098025 L34.7914368,106.394972 L34.8920809,106.710479 L34.9516459,107.053824 L35.0728297,107.415728 L35.2124992,107.710355 L35.4589747,108.05138 L35.5986442,108.322809 L36.0587319,109.686909 L36.1203508,109.686909 L36.2209949,109.66371 L36.3195852,109.686909 L36.3996897,109.867861 L36.3996897,109.958338 L36.3606644,110.048814 L36.3401248,110.183368 L36.381204,110.387519 L36.7611872,111.157725 L37.0035548,111.090448 L37.1637639,110.524393 L37.2438685,108.914383 L37.2027892,108.457363 L37.0035548,108.29961 L36.8412917,108.503761 L36.7427015,109.253088 L36.6009781,109.503637 L36.662597,108.638315 L36.6215177,108.209134 L36.4818482,107.847229 L36.2805599,107.733554 L35.9991669,107.687156 L35.8389578,107.529403 L35.9190624,107.053824 L36.9213963,103.374463 L37.102145,102.942962 L37.323973,102.694733 L37.6279595,102.627456 L37.6074199,102.898884 L37.4431029,103.237589 L37.3629983,103.397662 L37.2828938,104.534413 L37.323973,104.919516 L37.5232074,105.348698 L37.7491433,105.462373 L37.989457,105.508771 L38.2503103,105.803398 L38.1085868,105.780199 L37.8497875,105.803398 L37.6895784,105.757 L37.6690388,106.007549 L37.6690388,106.188501 L37.7286037,106.348574 L37.8682732,106.529526 L37.6484992,107.348451 L37.7286037,107.529403 L38.0099966,107.754433 L38.4495447,107.981783 L38.7720169,108.072259 L39.0534098,107.937705 L39.2731838,107.573481 L39.4929578,108.547839 L39.6141417,108.75199 L39.7332715,108.276411 L39.7147858,107.754433 L39.5545767,107.276534 L39.3142631,106.893751 L39.0328702,106.594484 L39.0924351,106.394972 L39.0718954,106.165302 L38.9733052,105.937952 L38.8315818,105.803398 L38.8911467,105.599247 L38.932226,105.327819 L38.9116863,105.05639 L38.8110422,104.873118 L38.7309376,104.666647 L38.7720169,104.395219 L38.9116863,103.875562 L38.9917909,103.033438 L39.0718954,102.604257 L39.2136189,102.286431 L39.4333929,102.717932 L39.1335143,104.054194 L39.1335143,104.759443 L39.2321046,104.963594 L39.4539325,105.100469 L39.5545767,105.281421 L39.5730624,105.418295 L39.5545767,105.780199 L39.5730624,105.98435 L39.5730624,106.302176 L39.5340371,106.594484 L39.6346813,106.870552 L40.0187723,107.121101 L39.9181282,107.37165 L40.3001653,107.710355 L40.0598516,106.756877 L39.979747,106.302176 L39.979747,105.847476 L40.0988769,105.824277 L40.2796256,106.2117 L40.5404789,106.529526 L40.7807926,106.893751 L40.9615413,107.483005 L41.201855,106.893751 L41.2840135,105.961151 L41.2634739,103.283987 L41.3024992,102.852486 L41.423683,102.446504 L41.5428128,102.446504 L41.8447454,102.263232 L42.0254941,101.947725 L41.7235616,101.309753 L41.9043103,101.082403 L42.1487319,100.855053 L42.2288364,100.583625 L42.2103508,100.108045 L42.4095852,100.038448 L42.6108735,100.265798 L42.6108735,100.674101 L42.3705599,101.263355 L42.4301248,101.423428 L42.7916223,101.37935 L42.9107521,101.511584 L42.8922664,101.924526 L42.750543,102.648335 L43.0524755,102.557859 L43.4529983,102.08228 L43.7138516,101.924526 L43.9541653,101.991804 L43.9356796,102.831607 L44.0958887,103.170312 L44.2560978,102.852486 L45.022226,100.855053 L45.3816695,100.6973 L45.3221046,101.240156 L44.9811467,102.467383 L45.1023305,103.21439 L45.2214604,103.237589 L45.5624182,103.012559 L45.7637066,102.831607 L46.3244384,102.126358 L46.0656391,101.968605 L45.9649949,101.694856 L45.9444553,101.332952 L46.0245599,100.968728 L46.2258482,100.991927 L46.3244384,100.92233 L46.3655177,100.718179 L46.3244384,100.423552 L46.9324115,100.493149 L47.0720809,100.038448 L47.012516,99.4723929 L47.0926206,99.1313678 L47.5732479,98.8808186 L47.8341012,98.5397935 L47.9142057,98.0410151 L47.9737707,97.3380856 L47.3514199,97.6327128 L47.2322901,97.3148866 L47.2322901,96.7929093 L47.012516,96.3846071 L46.9714368,96.2268539 L47.1111062,95.9067078 L47.2117504,95.4543275 L47.291855,94.6145239 L47.2733693,93.139068 L47.4520641,92.6170907 L47.5321686,91.1416348 L47.7745363,90.8678866 L48.1154941,90.5523804 L48.3948331,90.1649572 L48.4564519,89.6893778 L48.1955987,89.2601965 L47.3924992,88.418073 L47.2733693,88.1443249 L47.2528297,87.8056196 L46.9919764,87.6478665 L46.850253,87.4437154 L47.1912108,87.0098942 L47.9943103,86.4415189 L48.1955987,86.1724106 L48.5570961,85.4230831 L48.840543,85.1284559 L49.1424755,85.1052569 L49.0808567,85.6481134 L49.3232243,85.6272343 L49.6621282,85.3094081 L49.9229815,84.8570277 L49.6025632,84.7874307 L49.4834334,84.8106297 L49.4628938,83.1055038 L49.3827892,82.3144181 L49.4834334,82.2471411 L49.8038516,82.1543451 L50.4857673,82.133466 L50.6870556,82.6090453 L50.4652277,84.2445743 L50.4857673,84.4464055 L50.5658718,84.8779068 L50.5658718,85.0820579 L50.4857673,85.2630101 L50.3050185,85.4903602 L50.2454536,85.5808363 L50.2043744,85.9659395 L50.1838347,86.4670378 L50.2639393,86.9194181 L50.5063069,87.1931662 L50.7260809,87.0794912 L50.8678044,86.7175869 L51.0711467,85.9659395 L51.2108162,85.7385894 L51.8126273,85.0820579 L51.9338111,85.4671612 L52.4555177,85.9891385 L52.3959528,86.1724106 L52.1741248,86.1956096 L51.7140371,86.0564156 L51.5928533,86.1260126 L51.4531838,86.4415189 L51.2518954,86.7639849 L51.4326442,86.9426171 L51.6339325,87.2395642 L51.7140371,87.5109924 L51.5723137,87.7151436 L51.3915649,87.6919446 L51.1512513,87.4877935 L50.945855,87.4877935 L50.7466206,87.7824207 L50.7055413,88.3484761 L50.8061855,89.4620277 L51.3525396,89.2114786 L51.9132715,88.4853501 L52.4144384,88.5085491 L53.1168938,88.9864484 L53.603683,89.1674005 L53.8830219,88.9609295 L54.544398,88.8054962 L56.7359764,89.893529 L57.2166037,89.4620277 L56.9762901,89.3970705 L56.756516,89.3042746 L56.5552277,89.1442015 L56.3744789,88.8704534 L56.6948971,89.0073275 L56.8551062,88.8704534 L56.8160809,88.5526272 L56.6147926,88.1675239 L56.4155582,88.0538489 L56.1752445,88.0770479 L55.9534165,88.0329698 L55.7932074,87.7151436 L55.7726678,87.3532393 L55.8527723,86.4902368 L55.7521282,86.2396877 L55.5077066,85.9659395 L55.1277234,85.3766851 L54.8257909,85.149335 L55.3474975,85.149335 L55.7932074,84.9915819 L56.1547049,84.6528766 L56.3950185,83.9917053 L56.5552277,84.2445743 L56.6764115,84.5368816 L56.8551062,85.218932 L56.9557504,85.3326071 L57.0974739,85.0588589 L57.1775784,84.6737557 L57.2166037,84.3768086 L57.1570388,84.1517783 L57.0974739,84.0613023 L56.9968297,84.0149043 L56.8756459,83.9476272 L56.756516,83.7852343 L56.756516,83.653 L56.7955413,83.513806 L56.7955413,83.3328539 L56.6558718,82.9709496 L56.0540607,82.2007431 L56.594253,82.017471 L56.9968297,82.087068 L57.2782226,82.4953703 L57.6191804,84.0381033 L57.7793895,84.3582494 L58.0443508,84.2886524 L58.5044384,83.9476272 L58.3236897,83.5857229 L58.6461619,82.8131965 L58.6256223,82.2007431 L59.026145,82.4048942 L59.467747,82.3816952 L60.3139798,82.087068 L60.2133356,81.994272 L60.1537707,81.903796 L60.0490185,81.8156398 L59.9298887,81.7692418 L60.1126914,81.0871914 L59.7696796,80.7693652 L59.0857099,80.6788892 L59.0466847,80.1128338 L59.3280776,80.0432368 L59.7286003,80.1337128 L60.0736661,80.0200378 L60.1743103,80.4956171 L60.355059,80.7693652 L61.1561046,81.3354207 L61.1766442,81.1567884 L61.0554604,80.7693652 L60.9958954,80.337864 L61.1170793,79.5421385 L61.3163137,79.6372544 L61.5381417,80.2473879 L61.7579157,81.0431134 L61.8585599,81.2240655 L61.9982293,81.2890227 L62.2796223,81.2008665 L62.4233997,81.0871914 L62.3638347,80.9271184 L62.240597,80.7461662 L62.1995177,80.6092922 L62.1995177,80.384262 L62.1604924,80.2241889 L62.1604924,80.0664358 L62.3001619,79.8854836 L62.404914,79.8854836 L62.4644789,80.0200378 L62.5035042,80.1801108 L62.6041484,80.2473879 L63.1669342,80.2473879 L63.3661686,80.6788892 L63.4483272,81.3586196 L63.7276661,82.0615491 L64.1487285,82.8340756 L64.450661,83.2423778 L64.5307656,83.1287028 L64.8142125,82.9036725 L64.7751872,83.3560529 L64.8142125,83.7434761 L64.9764755,84.0381033 L65.2968938,84.2445743 L65.3975379,83.8316322 L65.6974165,82.6090453 L65.7384958,82.3144181 L65.6768769,82.1775441 L65.6583912,82.087068 L65.8186003,81.926995 L65.9377302,81.926995 L66.0178347,82.110267 L66.1390185,82.2471411 L66.3197673,82.1775441 L66.3998718,82.017471 L66.4204115,81.7692418 L66.4204115,81.5186927 L66.3793322,81.3122217 L66.2992277,81.2449446 L65.8987049,80.5420151 L65.8576256,80.407461 L65.1551703,80.2241889 L64.8552917,80.0432368 L65.0565801,79.8390856 L65.4365632,79.9086826 L65.617312,79.8390856 L65.617312,79.5421385 L65.557747,79.2498312 L65.5372074,79.0224811 L65.5782867,78.8392091 L65.7590354,78.725534 L66.3197673,80.5884131 L66.4204115,80.8134433 L66.5210556,80.9039194 L66.6607251,80.9735164 L66.8003946,81.0663123 L67.0448162,81.1567884 L67.0448162,80.9271184 L66.8455818,80.407461 L66.7613693,79.9295617 L66.7613693,79.4075844 L66.8846071,78.955204 L67.1249207,78.702335 L67.0263305,79.3843854 L67.0858954,80.2473879 L67.3262091,80.9735164 L67.7883508,81.2681436 L67.6671669,80.5420151 L67.607602,79.1593552 L67.385774,78.6373778 L67.6281417,78.6814559 L67.9074806,78.6814559 L68.108769,78.5005038 L68.0882293,78.0690025 L67.9074806,77.7743753 L67.385774,77.275597 L67.2255649,76.9554509 L67.3262091,76.8417758 L67.5274975,76.7304207 L67.7082462,76.5030705 L67.6877066,75.7073451 L67.8088904,75.4591159 L68.0081248,75.3895189 L68.2689781,75.5727909 L68.3100573,75.1412897 L68.4086476,74.7793854 L68.5298314,74.6889093 L68.7311197,75.0948917 L68.7105801,75.5727909 L68.6304755,76.0947683 L68.6510152,76.5030705 L68.9303541,76.7095416 L69.0309983,76.7976977 L69.0125126,76.5030705 L68.9303541,76.3893955 L69.1562901,74.8466625 L69.3164992,74.5984332 L69.435629,74.7793854 L69.5978921,76.2734005 L69.7971265,76.7095416 L70.0394941,77.0018489 L70.3188331,77.1155239 L70.600226,77.0946448 L70.8405396,75.5495919 L71.0212884,75.0740126 L71.1609578,74.8698615 L71.3458145,74.7561864 L71.4669983,74.8466625 L71.6066678,75.0740126 L71.6662327,75.2758438 L71.7668769,75.503194 L71.7668769,75.640068 L71.8079562,75.7305441 L72.0482698,75.7746222 L72.1879393,75.7537431 L72.3502024,75.7073451 L72.5104115,75.59367 L72.6090017,75.479995 L72.7301855,75.3686398 L72.9499595,75.2317657 L73.091683,75.0740126 L73.0115784,74.9139395 L72.869855,74.6889093 L72.8308297,74.4360403 L72.8308297,74.166932 L72.8102901,73.9163829 L72.6090017,73.0301814 L72.4097673,72.8701083 L72.0277302,73.0301814 L72.5699764,71.9862267 L72.8513693,71.8261537 L73.1307083,72.417728 L73.2518921,72.3736499 L73.3525363,72.0094257 L73.5764182,71.9630277 L73.7777066,72.2135768 L73.7571669,72.6450781 L74.0981248,72.6891562 L74.4390826,72.6218791 L74.7800405,72.4641259 L75.0799191,72.2135768 L74.7410152,72.0094257 L74.6198314,71.6475214 L74.5191872,71.2137003 L74.2583339,70.759 L74.7410152,70.782199 L75.0408938,71.2809773 L75.301747,71.9630277 L75.7022698,72.417728 L75.7022698,72.0999018 L75.7823744,71.8957506 L76.0083103,71.4410504 L76.0884148,71.4897683 L76.2280843,71.4201713 L76.2691636,71.2345793 L75.9076661,71.0559471 L75.9466914,70.4202947 L75.7433491,70.0792695 L75.4208769,69.8310403 L75.1805632,69.3972191 L75.4208769,69.5596121 L75.7022698,69.6268892 L75.9466914,69.5596121 L76.1479798,69.262665 L75.8481012,69.1721889 L76.3081889,68.6710907 L76.7087116,68.8102846 L76.91,69.3067431 L76.7497909,69.9215164 L76.8093558,70.1256675 L77.2119325,70.2161436 L77.5528904,70.4202947 L77.8733086,70.5548489 L78.3190185,70.4643728 L77.9924384,70.0560705 L77.9123339,69.8310403 L78.0335177,69.6941662 L78.238914,69.6268892 L78.2984789,69.6732872 L78.6784621,69.8078413 L78.8592108,69.8310403 L79.3809174,69.6500882 L79.2207083,69.4204181 L79.1406037,69.3299421 L79.2617875,69.1049118 L79.5616661,68.8543627 L79.7013356,68.7151688 L80.4078988,67.0634005 L80.4880034,66.6295793 L80.5290826,66.061204 L80.728317,66.2189572 L80.7693963,66.0171259 L80.7899359,65.4487506 L80.7693963,65.3582746 L80.950145,65.2445995 L81.3712074,65.1773224 L81.5519562,65.0868463 L81.7327049,64.7690202 L82.1743069,63.6995466 L82.2338718,63.3399622 L82.1537673,63.2726851 L82.1537673,63.2726851 Z" id="Fill-59" fill="#D6D6D6"></path>
                <path d="M53.2175379,95.7721537 L52.3343339,95.9067078 L51.8947858,95.8835088 L51.0711467,95.5888816 L50.7260809,95.6793577 L50.7055413,96.270932 L51.1923305,96.294131 L51.6339325,96.4727632 L51.8742462,96.8161083 L51.8331669,97.3612846 L52.5951872,97.5190378 L52.9772243,97.4981587 L53.0963541,97.2940076 L53.157973,96.9761814 L53.4023946,96.7256322 L53.5626037,96.3846071 L53.4414199,95.7930327 L53.2175379,95.7721537 L53.2175379,95.7721537 Z M55.1667487,92.0487154 L54.986,91.9373602 L54.8052513,91.7100101 L55.0065396,91.526738 L55.4481417,91.2344307 L55.6329983,91.0279597 L55.4481417,90.7333325 L55.3084722,90.3691083 L55.0866442,90.053602 L54.6450422,89.893529 L54.0843103,89.7589748 L53.8645363,89.8494509 L53.7228128,90.1881562 L53.6837875,90.5059824 L53.7433524,90.8238086 L53.8645363,91.1184358 L54.0042057,91.3689849 L53.8439966,91.389864 L53.5215245,91.549937 L53.3613153,91.573136 L53.7022732,92.0255164 L53.8439966,92.2992645 L53.8029174,92.8885189 L53.9035616,93.002194 L54.6655818,93.2063451 L55.0270793,92.978995 L55.6720236,92.2992645 L55.6329983,92.1159924 L55.1667487,92.0487154 L55.1667487,92.0487154 Z M61.2362091,83.2191788 L61.0369747,82.6763224 L60.3735447,82.4489723 L59.5889309,82.7667985 L58.9460405,83.4024509 L58.6851872,84.1053804 L58.9665801,84.2654534 L58.9665801,84.5368816 L58.806371,84.8106297 L58.5660573,84.9915819 L58.4448735,85.172534 L58.3442293,85.5576373 L58.2435852,86.6711889 L58.2435852,87.0794912 L58.3236897,87.4437154 L58.5044384,87.5341914 L58.806371,87.5341914 L58.9871197,87.6687456 L58.9871197,87.8960957 L58.7262664,88.1002469 L59.026145,88.4853501 L59.7696796,88.6245441 L60.0942057,88.9377305 L60.1743103,88.8472544 L60.3735447,88.6686222 L60.4351636,88.6013451 L60.6754772,89.0305264 L60.9568702,88.8472544 L61.1971838,88.3948741 L61.3573929,87.9865718 L61.2772884,87.6687456 L60.9363305,87.4669144 L60.634398,87.1490882 L60.5748331,86.4183199 L60.7145025,86.3742418 L61.2772884,86.6943879 L62.0803879,86.3510428 L62.7848971,85.6945113 L63.0662901,84.9915819 L62.684253,84.2213753 L61.2362091,83.2191788 L61.2362091,83.2191788 Z M82.1537673,63.2726851 L81.7327049,62.6579118 L81.6916256,62.5442368 L81.67314,62.4096826 L81.6526003,62.2960076 L81.5724958,62.2960076 L81.3116425,62.4096826 L81.2500236,62.4096826 L80.6502664,61.7717103 L80.3688735,61.5675592 L80.0422934,61.5675592 L80.7098314,62.6811108 L80.8289612,63.2726851 L80.4880034,63.7459446 L80.3093086,63.1102922 L79.9437032,62.4305617 L79.5616661,62.0245793 L79.2412479,62.2960076 L79.3809174,62.4096826 L79.5616661,62.6579118 L79.6417707,62.7715869 L79.4219966,63.0198161 L79.6417707,63.1798892 L79.3809174,63.3631612 L78.9393153,62.952539 L78.7400809,63.0662141 L78.7585666,63.2958841 L78.9393153,64.1774458 L78.9803946,64.4743929 L78.3190185,63.1102922 L78.0581653,62.885262 L77.5919157,62.6138338 L77.2509578,62.2960076 L77.2714975,61.8621864 L77.5118111,61.8413073 L78.3190185,62.2264106 L78.5983575,62.2728086 L78.8797504,62.0686574 L78.9803946,61.7276322 L78.8797504,61.4121259 L78.518253,61.226534 L78.5593322,60.5004055 L78.7791062,60.5004055 L79.1015784,60.7973526 L79.3624317,60.9342267 L79.7218752,60.6372796 L79.7424148,60.1848992 L79.6828499,59.7093199 L79.8225194,59.2986977 L79.5226408,59.0945466 L78.9208297,58.347539 L78.7585666,58.187466 L78.4792277,58.141068 L78.0971906,57.8905189 L77.852769,57.4845365 L77.9328735,56.9625592 L77.5528904,56.551937 L77.1503137,56.1900327 L76.8709747,56.0299597 L76.7292513,55.9603627 L76.5895818,55.9603627 L76.5485025,55.9162846 L76.3492681,55.5752594 L76.1479798,55.3270302 L76.0473356,55.1460781 L75.9282057,55.009204 L75.7638887,54.9883249 L75.3818516,55.1460781 L75.301747,55.1460781 L75.1209983,54.8514509 L74.7595008,54.8050529 L74.2377943,54.6704987 L73.976941,54.6936977 L73.7777066,54.8282519 L73.6359831,55.0996801 L73.6565228,55.3502292 L73.7181417,55.5752594 L73.697602,55.8722065 L73.1512479,56.551937 L72.368688,56.4405819 L71.5265632,55.8930856 L70.4790422,54.918728 L69.435629,54.3526725 L69.2363946,53.9211713 L69.215855,53.3319169 L69.2754199,52.8076196 L69.4972479,51.740466 L69.3164992,50.6524332 L67.7883508,49.0633023 L67.3056695,48.0889446 L67.6671669,47.4741713 L68.0286644,46.9313149 L68.2484384,46.4974937 L68.0697437,45.476738 L67.6671669,44.7065315 L67.2255649,44.4791814 L66.7202901,44.5928564 L66.1595582,44.8642846 L65.3174334,45.1357128 L64.1898078,45.2261889 L63.0662901,45.0684358 L62.3638347,44.7970076 L62.018769,44.5928564 L61.8195346,44.3214282 L61.6182462,44.0685592 L61.3779325,43.957204 L61.2362091,44.0476801 L61.1971838,44.2750302 L61.0965396,44.5023804 L60.8356863,44.5255793 L60.2934401,44.3655063 L59.9483744,44.2077531 L59.7286003,43.866728 L59.2459191,42.391272 L59.2274334,41.9156927 L59.3280776,41.3473174 L59.467747,40.7998212 L59.5067723,40.4147179 L59.3465632,40.0528136 L58.9049612,39.6677103 L58.6646476,39.2362091 L58.7652917,38.7583098 L59.0056054,38.2363325 L59.1062496,37.7375542 L59.0056054,37.4893249 L58.806371,37.3292519 L58.584543,37.1946977 L58.4037943,37.0114257 L58.305204,36.7399975 L57.2371433,32.9724811 L56.1937302,29.2049647 L55.1482631,25.4374484 L54.0843103,21.669932 L53.0367892,17.9000957 L51.9933761,14.1348992 L50.945855,10.388262 L49.9044958,6.62306549 L49.5429983,5.53271285 L49.4033288,5.3726398 L48.5160169,5.19400756 L48.1545194,5.03161461 L47.3924992,4.33100504 L46.3860573,3.87630479 L46.2053086,3.69535264 L46.0245599,3.33112846 L45.7842462,3.05970025 L45.022226,2.53540302 L44.0137302,2.21757683 L42.5697943,1.44737028 L42.2699157,1.35689421 L41.643457,1.28961713 L41.4031433,1.22234005 L40.6801484,0.653964736 L40.3802698,0.493891688 L39.3327487,0.266541562 L38.3098752,0.377896725 L37.4841821,0.94859194 L37.0631197,2.01342569 L37.102145,2.35445088 L37.2027892,2.6026801 L37.2027892,2.76275315 L36.7611872,3.03650126 L36.5804384,3.24297229 L36.3606644,3.35432746 L35.6787487,3.15017632 L35.1734739,3.26617128 L34.7113322,3.48888161 L34.3518887,3.76262972 L33.6494334,4.53283627 L33.3084755,5.01073552 L33.0866476,5.53271285 L32.8216863,5.91781612 L32.3821383,6.12196725 L31.457855,6.37251637 L30.6917268,6.87129471 L28.6665194,8.96152393 L28.3604789,9.07287909 L25.4500135,8.20987657 L24.9878718,7.75517632 L24.7270185,7.2123199 L24.646914,7.03136776 L24.4066003,6.12196725 L24.1847723,4.37508312 L23.98143,3.55847859 L23.5993929,3.26617128 L20.5862293,3.39840554 L20.3068904,3.5120806 L20.105602,3.76262972 L19.883774,4.21732997 L18.8383069,7.27959698 L17.8154334,10.341864 L16.7679123,13.4087708 L15.7039595,16.4733577 L14.6584924,19.5356247 L13.6150793,22.6002116 L12.5470185,25.6624786 L11.4851197,28.7270655 L11.2838314,29.3186398 L11.2838314,30.6317028 L11.4645801,32.1326776 L11.8260776,35.0139924 L12.0663912,36.9673476 L12.0047723,37.7607531 L10.862769,39.5540353 L10.6224553,39.7581864 L10.2773895,40.1664887 L10.2773895,40.8230202 L10.3780337,41.4586725 L10.3965194,41.7347406 L10.0165363,42.0061688 L9.87481282,42.4353501 L9.79470826,43.5721008 L9.5543946,44.8642846 L9.63449916,45.453539 L10.0966408,45.569534 L10.4971636,46.0659924 L10.7415852,46.6575668 L10.7826644,47.2700202 L10.6019157,47.7455995 L10.0370759,48.448529 L9.87481282,48.794194 L9.95491737,49.0169043 L10.1171804,49.1305793 L10.2178246,49.2442544 L10.3369545,49.3138514 L10.417059,49.4043275 L10.4766239,49.5644005 L10.4581383,49.6757557 L10.3369545,49.9031058 L10.3164148,50.0167809 L10.3574941,51.1048136 L10.4766239,51.5595139 L10.803204,51.900539 L11.3249106,52.0142141 L11.6638145,51.9910151 L11.8445632,52.1742872 L11.9061821,52.9444937 L11.745973,53.9884484 L11.3433963,54.8050529 L10.1767454,56.4846599 L9.89535245,57.0066373 L9.83578752,57.2107884 L9.87481282,57.5286146 L9.975457,57.6863678 L10.1171804,57.8232418 L10.2773895,58.09467 L10.4581383,58.7071234 L10.4971636,59.2522997 L10.3574941,59.730199 L10.0555616,60.1617003 L9.87481282,60.2753753 L9.43526476,60.4099295 L9.23397639,60.5932015 L8.79237437,61.296131 L7.82495784,62.1823325 L7.58464418,62.5674358 L6.28037774,65.4046725 L5.89628668,67.4925819 L5.97639123,67.9681612 L6.30091737,68.5156574 L6.68295447,68.8311637 L7.54561889,69.1049118 L7.96668128,69.3299421 L8.26655987,69.8078413 L8.12689039,70.2602217 L7.74485329,70.5780479 L7.34433052,70.6917229 L6.88218887,70.5780479 L6.05649578,70.0560705 L5.63543339,69.9679144 L5.19383137,70.0792695 L4.89395278,70.3970957 L4.73168971,70.828597 L4.71320405,71.3737733 L4.81384823,71.9630277 L5.17329174,73.2111335 L5.25339629,73.7539899 L5.17329174,74.0532569 L4.85287352,74.4824383 L4.77276897,74.7329874 L4.7933086,74.9835365 L4.95351771,75.5263929 L4.95351771,75.8210202 L4.67212479,76.2293224 L4.33116695,75.9810932 L2.8831231,73.8003879 L2.48260034,73.5312796 L1.98143339,73.5985567 L1.57885666,73.8467859 L1.41453963,74.166932 L1.31594941,74.5288363 L1.07358179,75.0044156 L0.913372681,75.1644887 L0.533389545,75.3454408 L0.974991568,76.8649748 L1.41453963,78.3636297 L1.83970995,79.8854836 L2.28131197,81.3794987 L2.722914,82.8804736 L3.60611804,85.8986625 L4.03128836,87.4205164 L4.47289039,88.9168514 L4.91243845,90.4387053 L5.35404047,91.9373602 L5.7956425,93.4568942 L6.22081282,94.9787481 L6.66241484,96.4727632 L7.10401686,97.9946171 L7.54561889,99.4955919 L7.98722091,101.012806 L8.4308769,102.53466 L8.87247892,104.033315 L9.29354132,105.552849 L9.75568297,107.077023 L10.197285,108.594237 L10.6224553,110.092892 L11.9452074,114.656134 L12.3868094,116.152469 L12.8325194,117.674322 L14.1552715,122.237564 L14.5968735,123.754778 L14.8577268,124.594582 L14.9789106,125.527181 L15.0836627,125.956363 L15.122688,126.387864 L15.122688,126.522418 L15.1432277,126.728889 L15.2027926,126.979438 L15.3630017,127.366861 L15.5047251,127.842441 L15.5232108,128.181146 L15.5047251,128.951353 L15.5047251,129.132305 L15.5642901,129.341096 L15.623855,129.542927 L15.7840641,129.839874 L15.9463272,130.067224 L16.1455616,130.248176 L16.9075818,130.837431 L17.7948938,131.651715 L18.6164789,132.449761 L19.499683,132.767587 L19.664,132.881262 L19.8036695,133.062214 L19.9844182,133.447317 L20.0460371,133.695547 L20.0850624,133.946096 L20.0850624,134.876375 L20.1261417,135.196521 L20.2062462,135.354275 L20.7279528,135.966728 L21.6091029,136.60006 L22.3156661,137.124358 L22.3156661,136.987484 L22.3567454,136.14768 L22.2745868,135.987607 L22.6175987,135.829854 L22.9975818,136.14768 L23.3796189,136.532783 L23.7205767,136.623259 L23.8807858,136.307753 L24.0841282,134.604947 L24.2854165,133.741945 L24.4661653,133.400919 L24.7475582,133.129491 L24.425086,133.015816 L24.5462698,132.403363 L24.7270185,131.881385 L24.3059562,131.336209 L24.1662867,130.63328 L24.2258516,129.886272 L24.3655211,129.204222 L24.7660438,128.137068 L24.9283069,127.842441 L25.1090556,127.728766 L25.6903272,127.501416 L26.1113895,127.137191 L26.3558111,126.684811 L26.5550455,126.183713 L26.8364384,125.708134 L26.9781619,125.571259 L27.2184755,125.457584 L27.2985801,125.32303 L27.3191197,125.165277 L27.3191197,124.756975 L27.3376054,124.573703 L27.579973,123.93573 L27.7607218,123.641103 L27.9804958,123.392874 L27.9394165,123.232801 L27.7401821,123.325597 L27.5594334,123.48335 L27.2390152,123.868453 L26.9781619,123.256 L26.7974132,122.713144 L26.7357943,122.165647 L26.7974132,121.462718 L26.9370826,121.031217 L27.2390152,120.622914 L27.5183541,120.578836 L27.7196425,121.168091 L27.9804958,120.873463 L28.2208094,120.103257 L28.5617673,119.850388 L28.522742,120.307408 L28.7671636,120.147335 L29.2067116,119.718154 L29.4881046,119.57896 L29.4881046,119.374809 L29.3689747,118.444529 L29.2888702,118.126703 L28.8657538,117.49337 L28.4015582,117.426093 L27.9209309,117.607045 L27.3191197,117.718401 L27.2780405,117.49337 L27.859312,117.333297 L28.0996256,117.131466 L28.2413491,116.764922 L28.1407049,116.539892 L27.9599562,116.152469 L27.859312,115.788244 L28.3419933,115.178111 L28.5412277,113.81401 L28.9068331,113.405708 L29.629828,111.930252 L29.8105767,111.772499 L30.0098111,111.682023 L30.2316391,111.501071 L30.6527015,111.090448 L30.8129106,110.842219 L31.016253,110.252965 L31.1579764,109.935139 L31.3572108,109.705469 L31.6180641,109.573234 L31.5790388,109.958338 L31.4783946,110.297043 L31.3387251,110.568471 L31.1970017,110.772622 L31.457855,110.728544 L31.9795616,109.958338 L32.3821383,109.751866 L32.3615987,110.638068 L31.8398921,112.477748 L31.679683,113.36163 L32.0206408,113.201557 L32.2404148,112.816453 L32.341059,112.294476 L32.2999798,111.795698 L32.2999798,111.317798 L32.4417032,110.59167 L32.6224519,109.935139 L32.782661,109.640511 L33.0024351,110.206567 L32.4601889,113.565781 L32.6019123,113.496184 L32.7025565,113.36163 L32.7415818,113.178358 L32.7025565,112.681899 L32.782661,112.568224 L32.9017909,112.477748 L33.0024351,112.315355 L33.5077099,110.886297 L33.7089983,111.248202 L33.889747,111.136846 L34.0499562,110.728544 L34.0889815,110.297043 L33.9698516,109.775065 L33.7685632,109.480438 L33.5077099,109.320365 L33.2468567,109.253088 L33.3269612,109.004859 L33.4686847,108.821587 L33.6288938,108.707912 L33.8281282,108.661514 L34.0889815,108.707912 L34.1300607,108.798388 L34.0889815,109.004859 L34.1095211,109.320365 L34.2512445,109.573234 L34.5922024,109.751866 L34.7318718,109.981537 L34.7708971,110.297043 L34.7113322,110.433917 L34.6517673,110.547592 L34.6312277,110.751743 L34.7318718,111.433793 L34.8530556,111.909373 L35.0317504,112.092645 L35.274118,112.227199 L35.5390793,113.087882 L35.8389578,113.338431 L35.8594975,112.974207 L35.939602,112.591423 L36.0998111,112.294476 L36.3195852,112.115844 L36.3401248,111.953451 L36.3010995,111.180924 L36.1799157,110.909496 L35.8800371,110.457116 L35.4589747,109.526836 L35.1734739,108.52696 L34.3703744,106.323055 L33.8281282,105.281421 L33.5878145,105.893874 L33.448145,106.165302 L33.2468567,106.302176 L33.0435143,106.255778 L32.8627656,106.074826 L32.782661,105.824277 L32.8216863,105.485572 L33.6288938,103.69229 L33.8692074,103.374463 L34.0294165,103.21439 L34.1506003,102.738811 L34.3703744,102.581058 L34.5120978,102.694733 L34.4114536,103.079836 L34.1506003,103.69229 L34.1300607,104.37434 L34.2307049,105.009992 L34.4504789,105.576048 L34.610688,106.098025 L34.7914368,106.394972 L34.8920809,106.710479 L34.9516459,107.053824 L35.0728297,107.415728 L35.2124992,107.710355 L35.4589747,108.05138 L35.5986442,108.322809 L36.0587319,109.686909 L36.1203508,109.686909 L36.2209949,109.66371 L36.3195852,109.686909 L36.3996897,109.867861 L36.3996897,109.958338 L36.3606644,110.048814 L36.3401248,110.183368 L36.381204,110.387519 L36.7611872,111.157725 L37.0035548,111.090448 L37.1637639,110.524393 L37.2438685,108.914383 L37.2027892,108.457363 L37.0035548,108.29961 L36.8412917,108.503761 L36.7427015,109.253088 L36.6009781,109.503637 L36.662597,108.638315 L36.6215177,108.209134 L36.4818482,107.847229 L36.2805599,107.733554 L35.9991669,107.687156 L35.8389578,107.529403 L35.9190624,107.053824 L36.9213963,103.374463 L37.102145,102.942962 L37.323973,102.694733 L37.6279595,102.627456 L37.6074199,102.898884 L37.4431029,103.237589 L37.3629983,103.397662 L37.2828938,104.534413 L37.323973,104.919516 L37.5232074,105.348698 L37.7491433,105.462373 L37.989457,105.508771 L38.2503103,105.803398 L38.1085868,105.780199 L37.8497875,105.803398 L37.6895784,105.757 L37.6690388,106.007549 L37.6690388,106.188501 L37.7286037,106.348574 L37.8682732,106.529526 L37.6484992,107.348451 L37.7286037,107.529403 L38.0099966,107.754433 L38.4495447,107.981783 L38.7720169,108.072259 L39.0534098,107.937705 L39.2731838,107.573481 L39.4929578,108.547839 L39.6141417,108.75199 L39.7332715,108.276411 L39.7147858,107.754433 L39.5545767,107.276534 L39.3142631,106.893751 L39.0328702,106.594484 L39.0924351,106.394972 L39.0718954,106.165302 L38.9733052,105.937952 L38.8315818,105.803398 L38.8911467,105.599247 L38.932226,105.327819 L38.9116863,105.05639 L38.8110422,104.873118 L38.7309376,104.666647 L38.7720169,104.395219 L38.9116863,103.875562 L38.9917909,103.033438 L39.0718954,102.604257 L39.2136189,102.286431 L39.4333929,102.717932 L39.1335143,104.054194 L39.1335143,104.759443 L39.2321046,104.963594 L39.4539325,105.100469 L39.5545767,105.281421 L39.5730624,105.418295 L39.5545767,105.780199 L39.5730624,105.98435 L39.5730624,106.302176 L39.5340371,106.594484 L39.6346813,106.870552 L40.0187723,107.121101 L39.9181282,107.37165 L40.3001653,107.710355 L40.0598516,106.756877 L39.979747,106.302176 L39.979747,105.847476 L40.0988769,105.824277 L40.2796256,106.2117 L40.5404789,106.529526 L40.7807926,106.893751 L40.9615413,107.483005 L41.201855,106.893751 L41.2840135,105.961151 L41.2634739,103.283987 L41.3024992,102.852486 L41.423683,102.446504 L41.5428128,102.446504 L41.8447454,102.263232 L42.0254941,101.947725 L41.7235616,101.309753 L41.9043103,101.082403 L42.1487319,100.855053 L42.2288364,100.583625 L42.2103508,100.108045 L42.4095852,100.038448 L42.6108735,100.265798 L42.6108735,100.674101 L42.3705599,101.263355 L42.4301248,101.423428 L42.7916223,101.37935 L42.9107521,101.511584 L42.8922664,101.924526 L42.750543,102.648335 L43.0524755,102.557859 L43.4529983,102.08228 L43.7138516,101.924526 L43.9541653,101.991804 L43.9356796,102.831607 L44.0958887,103.170312 L44.2560978,102.852486 L45.022226,100.855053 L45.3816695,100.6973 L45.3221046,101.240156 L44.9811467,102.467383 L45.1023305,103.21439 L45.2214604,103.237589 L45.5624182,103.012559 L45.7637066,102.831607 L46.3244384,102.126358 L46.0656391,101.968605 L45.9649949,101.694856 L45.9444553,101.332952 L46.0245599,100.968728 L46.2258482,100.991927 L46.3244384,100.92233 L46.3655177,100.718179 L46.3244384,100.423552 L46.9324115,100.493149 L47.0720809,100.038448 L47.012516,99.4723929 L47.0926206,99.1313678 L47.5732479,98.8808186 L47.8341012,98.5397935 L47.9142057,98.0410151 L47.9737707,97.3380856 L47.3514199,97.6327128 L47.2322901,97.3148866 L47.2322901,96.7929093 L47.012516,96.3846071 L46.9714368,96.2268539 L47.1111062,95.9067078 L47.2117504,95.4543275 L47.291855,94.6145239 L47.2733693,93.139068 L47.4520641,92.6170907 L47.5321686,91.1416348 L47.7745363,90.8678866 L48.1154941,90.5523804 L48.3948331,90.1649572 L48.4564519,89.6893778 L48.1955987,89.2601965 L47.3924992,88.418073 L47.2733693,88.1443249 L47.2528297,87.8056196 L46.9919764,87.6478665 L46.850253,87.4437154 L47.1912108,87.0098942 L47.9943103,86.4415189 L48.1955987,86.1724106 L48.5570961,85.4230831 L48.840543,85.1284559 L49.1424755,85.1052569 L49.0808567,85.6481134 L49.3232243,85.6272343 L49.6621282,85.3094081 L49.9229815,84.8570277 L49.6025632,84.7874307 L49.4834334,84.8106297 L49.4628938,83.1055038 L49.3827892,82.3144181 L49.4834334,82.2471411 L49.8038516,82.1543451 L50.4857673,82.133466 L50.6870556,82.6090453 L50.4652277,84.2445743 L50.4857673,84.4464055 L50.5658718,84.8779068 L50.5658718,85.0820579 L50.4857673,85.2630101 L50.3050185,85.4903602 L50.2454536,85.5808363 L50.2043744,85.9659395 L50.1838347,86.4670378 L50.2639393,86.9194181 L50.5063069,87.1931662 L50.7260809,87.0794912 L50.8678044,86.7175869 L51.0711467,85.9659395 L51.2108162,85.7385894 L51.8126273,85.0820579 L51.9338111,85.4671612 L52.4555177,85.9891385 L52.3959528,86.1724106 L52.1741248,86.1956096 L51.7140371,86.0564156 L51.5928533,86.1260126 L51.4531838,86.4415189 L51.2518954,86.7639849 L51.4326442,86.9426171 L51.6339325,87.2395642 L51.7140371,87.5109924 L51.5723137,87.7151436 L51.3915649,87.6919446 L51.1512513,87.4877935 L50.945855,87.4877935 L50.7466206,87.7824207 L50.7055413,88.3484761 L50.8061855,89.4620277 L51.3525396,89.2114786 L51.9132715,88.4853501 L52.4144384,88.5085491 L53.1168938,88.9864484 L53.603683,89.1674005 L53.8830219,88.9609295 L54.544398,88.8054962 L56.7359764,89.893529 L57.2166037,89.4620277 L56.9762901,89.3970705 L56.756516,89.3042746 L56.5552277,89.1442015 L56.3744789,88.8704534 L56.6948971,89.0073275 L56.8551062,88.8704534 L56.8160809,88.5526272 L56.6147926,88.1675239 L56.4155582,88.0538489 L56.1752445,88.0770479 L55.9534165,88.0329698 L55.7932074,87.7151436 L55.7726678,87.3532393 L55.8527723,86.4902368 L55.7521282,86.2396877 L55.5077066,85.9659395 L55.1277234,85.3766851 L54.8257909,85.149335 L55.3474975,85.149335 L55.7932074,84.9915819 L56.1547049,84.6528766 L56.3950185,83.9917053 L56.5552277,84.2445743 L56.6764115,84.5368816 L56.8551062,85.218932 L56.9557504,85.3326071 L57.0974739,85.0588589 L57.1775784,84.6737557 L57.2166037,84.3768086 L57.1570388,84.1517783 L57.0974739,84.0613023 L56.9968297,84.0149043 L56.8756459,83.9476272 L56.756516,83.7852343 L56.756516,83.653 L56.7955413,83.513806 L56.7955413,83.3328539 L56.6558718,82.9709496 L56.0540607,82.2007431 L56.594253,82.017471 L56.9968297,82.087068 L57.2782226,82.4953703 L57.6191804,84.0381033 L57.7793895,84.3582494 L58.0443508,84.2886524 L58.5044384,83.9476272 L58.3236897,83.5857229 L58.6461619,82.8131965 L58.6256223,82.2007431 L59.026145,82.4048942 L59.467747,82.3816952 L60.3139798,82.087068 L60.2133356,81.994272 L60.1537707,81.903796 L60.0490185,81.8156398 L59.9298887,81.7692418 L60.1126914,81.0871914 L59.7696796,80.7693652 L59.0857099,80.6788892 L59.0466847,80.1128338 L59.3280776,80.0432368 L59.7286003,80.1337128 L60.0736661,80.0200378 L60.1743103,80.4956171 L60.355059,80.7693652 L61.1561046,81.3354207 L61.1766442,81.1567884 L61.0554604,80.7693652 L60.9958954,80.337864 L61.1170793,79.5421385 L61.3163137,79.6372544 L61.5381417,80.2473879 L61.7579157,81.0431134 L61.8585599,81.2240655 L61.9982293,81.2890227 L62.2796223,81.2008665 L62.4233997,81.0871914 L62.3638347,80.9271184 L62.240597,80.7461662 L62.1995177,80.6092922 L62.1995177,80.384262 L62.1604924,80.2241889 L62.1604924,80.0664358 L62.3001619,79.8854836 L62.404914,79.8854836 L62.4644789,80.0200378 L62.5035042,80.1801108 L62.6041484,80.2473879 L63.1669342,80.2473879 L63.3661686,80.6788892 L63.4483272,81.3586196 L63.7276661,82.0615491 L64.1487285,82.8340756 L64.450661,83.2423778 L64.5307656,83.1287028 L64.8142125,82.9036725 L64.7751872,83.3560529 L64.8142125,83.7434761 L64.9764755,84.0381033 L65.2968938,84.2445743 L65.3975379,83.8316322 L65.6974165,82.6090453 L65.7384958,82.3144181 L65.6768769,82.1775441 L65.6583912,82.087068 L65.8186003,81.926995 L65.9377302,81.926995 L66.0178347,82.110267 L66.1390185,82.2471411 L66.3197673,82.1775441 L66.3998718,82.017471 L66.4204115,81.7692418 L66.4204115,81.5186927 L66.3793322,81.3122217 L66.2992277,81.2449446 L65.8987049,80.5420151 L65.8576256,80.407461 L65.1551703,80.2241889 L64.8552917,80.0432368 L65.0565801,79.8390856 L65.4365632,79.9086826 L65.617312,79.8390856 L65.617312,79.5421385 L65.557747,79.2498312 L65.5372074,79.0224811 L65.5782867,78.8392091 L65.7590354,78.725534 L66.3197673,80.5884131 L66.4204115,80.8134433 L66.5210556,80.9039194 L66.6607251,80.9735164 L66.8003946,81.0663123 L67.0448162,81.1567884 L67.0448162,80.9271184 L66.8455818,80.407461 L66.7613693,79.9295617 L66.7613693,79.4075844 L66.8846071,78.955204 L67.1249207,78.702335 L67.0263305,79.3843854 L67.0858954,80.2473879 L67.3262091,80.9735164 L67.7883508,81.2681436 L67.6671669,80.5420151 L67.607602,79.1593552 L67.385774,78.6373778 L67.6281417,78.6814559 L67.9074806,78.6814559 L68.108769,78.5005038 L68.0882293,78.0690025 L67.9074806,77.7743753 L67.385774,77.275597 L67.2255649,76.9554509 L67.3262091,76.8417758 L67.5274975,76.7304207 L67.7082462,76.5030705 L67.6877066,75.7073451 L67.8088904,75.4591159 L68.0081248,75.3895189 L68.2689781,75.5727909 L68.3100573,75.1412897 L68.4086476,74.7793854 L68.5298314,74.6889093 L68.7311197,75.0948917 L68.7105801,75.5727909 L68.6304755,76.0947683 L68.6510152,76.5030705 L68.9303541,76.7095416 L69.0309983,76.7976977 L69.0125126,76.5030705 L68.9303541,76.3893955 L69.1562901,74.8466625 L69.3164992,74.5984332 L69.435629,74.7793854 L69.5978921,76.2734005 L69.7971265,76.7095416 L70.0394941,77.0018489 L70.3188331,77.1155239 L70.600226,77.0946448 L70.8405396,75.5495919 L71.0212884,75.0740126 L71.1609578,74.8698615 L71.3458145,74.7561864 L71.4669983,74.8466625 L71.6066678,75.0740126 L71.6662327,75.2758438 L71.7668769,75.503194 L71.7668769,75.640068 L71.8079562,75.7305441 L72.0482698,75.7746222 L72.1879393,75.7537431 L72.3502024,75.7073451 L72.5104115,75.59367 L72.6090017,75.479995 L72.7301855,75.3686398 L72.9499595,75.2317657 L73.091683,75.0740126 L73.0115784,74.9139395 L72.869855,74.6889093 L72.8308297,74.4360403 L72.8308297,74.166932 L72.8102901,73.9163829 L72.6090017,73.0301814 L72.4097673,72.8701083 L72.0277302,73.0301814 L72.5699764,71.9862267 L72.8513693,71.8261537 L73.1307083,72.417728 L73.2518921,72.3736499 L73.3525363,72.0094257 L73.5764182,71.9630277 L73.7777066,72.2135768 L73.7571669,72.6450781 L74.0981248,72.6891562 L74.4390826,72.6218791 L74.7800405,72.4641259 L75.0799191,72.2135768 L74.7410152,72.0094257 L74.6198314,71.6475214 L74.5191872,71.2137003 L74.2583339,70.759 L74.7410152,70.782199 L75.0408938,71.2809773 L75.301747,71.9630277 L75.7022698,72.417728 L75.7022698,72.0999018 L75.7823744,71.8957506 L76.0083103,71.4410504 L76.0884148,71.4897683 L76.2280843,71.4201713 L76.2691636,71.2345793 L75.9076661,71.0559471 L75.9466914,70.4202947 L75.7433491,70.0792695 L75.4208769,69.8310403 L75.1805632,69.3972191 L75.4208769,69.5596121 L75.7022698,69.6268892 L75.9466914,69.5596121 L76.1479798,69.262665 L75.8481012,69.1721889 L76.3081889,68.6710907 L76.7087116,68.8102846 L76.91,69.3067431 L76.7497909,69.9215164 L76.8093558,70.1256675 L77.2119325,70.2161436 L77.5528904,70.4202947 L77.8733086,70.5548489 L78.3190185,70.4643728 L77.9924384,70.0560705 L77.9123339,69.8310403 L78.0335177,69.6941662 L78.238914,69.6268892 L78.2984789,69.6732872 L78.6784621,69.8078413 L78.8592108,69.8310403 L79.3809174,69.6500882 L79.2207083,69.4204181 L79.1406037,69.3299421 L79.2617875,69.1049118 L79.5616661,68.8543627 L79.7013356,68.7151688 L80.4078988,67.0634005 L80.4880034,66.6295793 L80.5290826,66.061204 L80.728317,66.2189572 L80.7693963,66.0171259 L80.7899359,65.4487506 L80.7693963,65.3582746 L80.950145,65.2445995 L81.3712074,65.1773224 L81.5519562,65.0868463 L81.7327049,64.7690202 L82.1743069,63.6995466 L82.2338718,63.3399622 L82.1537673,63.2726851 L82.1537673,63.2726851 Z" id="Stroke-60" stroke="#F9F9F9" stroke-width="0.25" stroke-linecap="round" stroke-linejoin="round"></path>
            </g>
        </g>
    </g>
</svg>