<?xml version="1.0" encoding="UTF-8"?>
<svg width="77px" height="46px" viewBox="0 0 77 46" version="1.1" xmlns="http://www.w3.org/2000/svg" xmlns:xlink="http://www.w3.org/1999/xlink">
    <!-- Generator: Sketch 51 (57462) - http://www.bohemiancoding.com/sketch -->
    <title>Massachusetts</title>
    <desc>Created with Sketch.</desc>
    <defs></defs>
    <g id="Page-1" stroke="none" stroke-width="1" fill="none" fill-rule="evenodd">
        <g id="A5" transform="translate(-1136.000000, -183.000000)">
            <g id="Massachusetts" transform="translate(1136.000000, 183.000000)">
                <path d="M76.0236256,40.9445642 L75.1424755,39.9493275 L74.4954772,38.7916977 L74.3558078,38.5852267 L74.2161383,38.4947506 L74.0538752,38.4715516 L73.8546408,38.5620277 L74.2757032,39.2904761 L74.2962428,39.9493275 L73.955285,41.3111083 L74.2161383,41.0582393 L74.616661,40.2207557 L74.9411872,39.9493275 L74.9206476,40.4017078 L74.7974098,40.8540882 L74.5755818,41.2183123 L74.1154941,41.5570176 L73.9737707,41.9003627 L73.8341012,42.0140378 L73.6533524,42.0604358 L73.4520641,41.9699597 L73.2322901,41.9699597 L72.6304789,42.1253929 L70.962661,42.8979194 L71.0016863,43.0788715 L73.3719595,43.2389446 L74.5365565,43.1020705 L75.6231029,42.7169673 L76.444688,41.8307657 L76.0236256,40.9445642 L76.0236256,40.9445642 Z M65.8585632,40.6290579 L65.5340371,40.2207557 L65.3142631,40.5826599 L65.1129747,41.1951134 L64.8911467,41.5570176 L65.0924351,41.8539647 L65.4539325,42.1253929 L65.8380236,42.3063451 L66.0988769,42.262267 L66.1604958,41.9908388 L66.0988769,41.5570176 L65.8585632,40.6290579 L65.8585632,40.6290579 Z M63.769683,41.2391914 L63.4636425,41.2183123 L63.1432243,41.0350403 L63.4841821,40.649937 L63.6279595,40.3553098 L63.5683946,40.0838816 L63.2623541,39.7196574 L62.9419359,39.6523804 L62.8228061,39.9493275 L62.7221619,40.3344307 L62.4613086,40.6058589 L62.5003339,39.8565315 L62.2394806,39.8565315 L61.274118,40.696335 L60.8530556,41.5570176 L60.6312277,41.8075668 L60.4319933,42.102194 L60.1506003,43.2830227 L59.9903912,43.7145239 L59.6494334,44.011471 L58.3821383,44.3965743 L58.4211636,44.6239244 L58.7210422,44.7352796 L59.228371,45.1899798 L59.4871703,45.3500529 L59.9102867,45.4846071 L60.1300607,45.41733 L60.4114536,44.8930327 L60.7914368,44.3965743 L61.274118,43.965073 L61.8594975,43.6240479 L64.6508331,42.6937683 L64.9733052,42.4896171 L64.431059,41.0814383 L63.769683,41.2391914 L63.769683,41.2391914 Z M73.6923777,33.8201537 L73.7930219,31.9595945 L73.9737707,31.2775441 L73.9142057,31.026995 L73.8341012,30.8692418 L73.733457,30.7555668 L73.5527083,30.7323678 L73.5937875,31.5489723 L73.3329342,34.0219849 L73.6923777,33.8201537 L73.6923777,33.8201537 Z M74.0949545,29.9389622 L73.733457,27.964728 L73.3329342,26.4637531 L73.0926206,26.1273678 L72.790688,26.1714458 L72.406597,26.6215063 L72.3860573,26.2178438 L72.2648735,25.3757204 L72.2648735,24.946539 L72.6099393,25.1947683 L72.9714368,25.3757204 L73.0515413,25.3316423 L73.1111062,25.2852443 L73.1727251,25.2179673 L73.2117504,25.1042922 L72.7701484,24.603194 L71.0612513,21.47133 L70.3793356,20.8147985 L68.9518314,19.7940428 L68.4896897,19.5875718 L67.5243272,19.3834207 L67.1422901,19.2047884 L66.7807926,19.1375113 L65.9592074,19.5202947 L65.593602,19.4530176 L65.4333929,19.4970957 L65.2731838,19.7244458 L65.1725396,20.0445919 L65.1725396,20.3392191 L65.2526442,20.4505743 L65.3923137,20.5201713 L65.5545767,20.5642494 L65.6737066,20.6106474 L66.3001653,21.2022217 L66.6205835,21.3135768 L66.9410017,21.0653476 L66.8814368,20.8588766 L66.8013322,20.9052746 L66.5014536,20.9725516 L66.7212277,20.135068 L67.4031433,19.9077179 L68.1898111,20.2487431 L68.6909781,21.0421486 L68.8306476,21.3576549 L69.5125632,22.6080806 L69.6542867,23.0395819 L69.9541653,24.4013627 L70.0958887,24.0116196 L69.9952445,23.0836599 L70.2150185,22.8122317 L70.4409545,22.8586297 L70.6812681,23.0395819 L70.9811467,23.150937 L71.3816695,23.0836599 L71.4432884,23.3110101 L71.1413558,23.5615592 L71.0016863,23.6520353 L70.800398,23.7193123 L71.3631838,24.3108866 L71.7431669,25.2179673 L71.8643508,26.1946448 L71.6240371,27.0785264 L71.3631838,27.3035567 L70.6812681,27.6701008 L70.2150185,28.2802343 L68.5697943,29.3961058 L67.6845363,30.3913426 L67.1217504,30.8460428 L66.3207049,31.0733929 L65.8996425,31.094272 L65.7743508,30.9365189 L65.979747,30.6882897 L66.7212277,30.4609395 L66.9820809,30.2335894 L64.4105194,30.7555668 L63.5683946,30.6650907 L62.0402462,30.0758363 L61.2926037,29.484262 L61.1323946,28.7372544 L61.111855,27.91833 L60.7318718,26.8534962 L60.1896256,25.9649748 L59.6679191,25.6703476 L58.9017909,25.9881738 L58.5218078,26.0345718 L58.1007454,25.8304207 L56.6321619,24.879262 L56.792371,24.69367 L56.9361484,24.603194 L57.0984115,24.603194 L57.3181855,24.6727909 L57.1764621,23.243733 L57.2586206,22.9931839 L57.4989342,23.1068589 L57.7988128,23.4687632 L58.2198752,24.1995315 L58.1007454,24.2668086 L57.9405363,24.4222418 L57.8604317,24.4918388 L58.1007454,24.5823149 L58.2999798,24.5823149 L58.5012681,24.4918388 L58.6614772,24.2436096 L58.7415818,24.0116196 L58.7025565,23.9443426 L58.5608331,23.9002645 L57.7187083,23.0395819 L57.4373153,22.6080806 L57.4188297,22.0837834 L56.8765835,21.747398 L56.1309949,20.8820756 L55.6483137,20.4064962 L55.3278954,20.2487431 L55.2477909,20.2696222 L55.2067116,20.1791461 L55.0074772,19.3161436 L54.9068331,19.1607103 L54.2413491,18.6132141 L53.7607218,18.339466 L53.2390152,18.1817128 L52.2305194,18.1817128 L51.6492479,17.9102846 L50.5668094,17.1586373 L50.6263744,17.5019824 L50.8872277,17.9311637 L51.2076459,18.2489899 L51.5095784,18.362665 L51.5486037,18.522738 L51.4684992,18.8614433 L51.2692648,19.0655945 L50.9467926,18.7477683 L50.7660438,18.9959975 L50.5051906,19.2929446 L50.2258516,19.5202947 L50.1046678,19.5434937 L50.0841282,19.6571688 L49.9608904,19.6780479 L49.8191669,19.6339698 L49.7000371,19.5643728 L49.6794975,19.4298186 L49.8191669,19.1375113 L49.8602462,18.9751184 L49.5583137,18.6596121 L49.1577909,18.7918463 L48.8168331,18.7709673 L48.7367285,17.9543627 L48.3362057,18.409063 L48.155457,18.4531411 L47.8740641,18.2953879 L47.6091029,17.9543627 L47.6296425,17.6388564 L47.8350388,17.3883073 L48.1349174,17.2746322 L47.9747083,17.0472821 L47.7713659,16.9104081 L47.5495379,16.8872091 L47.3092243,16.8640101 L47.4488938,16.4325088 L47.7898516,16.4997859 L48.1759966,16.6853778 L48.5354401,16.4997859 L48.2951265,16.4557078 L48.0958921,16.2956348 L48.0157875,16.0938035 L48.1944823,15.9569295 L48.4758752,15.9801285 L48.9174772,16.3420327 L49.2173558,16.2956348 L48.9975818,16.0729244 L48.8784519,15.8200554 L48.6566239,15.1867229 L48.3957707,14.7784207 L48.3567454,14.5278715 L48.4553356,14.0754912 L48.7983474,13.7089471 L49.4987487,14.2541234 L49.9403508,13.9362972 L49.6589578,13.8458212 L49.3385396,13.6857481 L49.098226,13.4143199 L49.0776863,13.0524156 L49.1783305,12.8923426 L49.5192884,12.8250655 L49.6589578,12.7577884 L49.759602,12.6209144 L50.0615346,12.075738 L50.1252074,11.938864 L50.205312,11.7811108 L50.3655211,11.6906348 L50.5051906,11.5792796 L50.425086,11.4168866 L50.1662867,11.2127355 L50.0204553,10.9645063 L49.8602462,11.1663375 L49.6589578,11.5560806 L49.4186442,11.7811108 L49.3981046,11.4841637 L49.4391838,11.2568136 L49.5192884,11.0341033 L49.6404722,10.8508312 L49.4597234,10.6907582 L49.7205767,10.3288539 L50.6263744,9.55632746 L52.7563339,8.30822166 L52.8775177,8.08087154 L52.916543,7.78624433 L53.0377268,7.47073804 L53.2184755,7.22018892 L53.3376054,7.22018892 L53.3992243,7.28978589 L53.4382496,7.33386398 L53.8202867,7.28978589 L53.9003912,7.19930982 L54.0606003,6.94644081 L54.1797302,6.67501259 L54.2208094,6.40126448 L54.3214536,6.19711335 L54.6069545,6.10663728 L54.5617673,5.94888413 L54.4015582,5.7424131 L54.4015582,5.47098489 L54.3604789,5.24595466 L54.1612445,5.22275567 L53.8798516,5.26683375 L53.6991029,5.22275567 L53.5594334,5.01860453 L53.4998685,4.58942317 L53.0377268,5.06268262 L52.8364384,5.33643073 L52.7563339,5.65425693 L52.9781619,6.40126448 L52.9370826,6.69821159 L52.5365599,6.56365743 L52.4153761,6.19711335 L51.3082901,6.42446348 L50.8276627,6.0370403 L51.0268971,5.97208312 L51.1686206,5.90480605 L51.4294739,5.63105793 L50.1847723,5.38050882 L49.6404722,5.01860453 L49.3385396,4.15560202 L49.6199325,4.31335516 L50.4456256,5.08588161 L50.5257302,4.83765239 L49.5192884,3.15572544 L49.2173558,2.86109824 L49.0571467,2.63606801 L48.9770422,2.56647103 L48.8969376,2.56647103 L48.7572681,2.63606801 L48.6977032,2.6569471 L48.2355616,2.56647103 L48.0157875,2.47599496 L47.7508263,2.27184383 L48.6566239,2.07001259 L48.8168331,1.95401763 L48.7983474,1.68258942 L48.3957707,0.705911839 L48.375231,0.501760705 L47.709747,0.912382872 L47.268145,0.912382872 L46.547204,0.796387909 L46.3068904,0.840465995 L46.1261417,0.889183879 L44.4357302,2.38551889 L44.2570354,2.63606801 L44.1769309,2.77062217 L43.9756425,3.22532242 L43.8749983,3.42947355 L43.6737099,3.72178086 L43.4929612,3.83545592 L43.2690793,3.902733 L43.0287656,3.92825189 L42.7083474,4.02104786 L42.507059,4.10920403 L42.3673895,4.22287909 L42.285231,4.33655416 L42.2071804,4.45022922 L42.0859966,4.74717632 L42.0264317,4.90492947 L41.9463272,5.26683375 L41.9052479,5.85608816 L41.8662226,6.08343829 L41.7244992,6.37806549 L41.5232108,6.58685642 L41.1637673,6.81188665 L40.9789106,6.9696398 L40.8577268,7.12971285 L40.6769781,7.5844131 L40.457204,7.96951637 L40.2353761,8.30822166 L40.0957066,8.42421662 L39.8964722,8.5146927 L39.4548702,8.64692695 L38.025312,9.01579093 L36.6224553,9.37537531 L35.2134368,9.7395995 L33.8064722,10.1015038 L32.4015616,10.465728 L30.992543,10.8276322 L29.5650388,11.1895365 L28.1621821,11.5560806 L26.7531636,11.9179849 L23.9412884,12.6209144 L22.5322698,12.9851385 L21.1088735,13.3470428 L19.699855,13.6857481 L18.2928904,14.0522922 L16.8879798,14.3909975 L16.8674401,14.3909975 L16.8674401,14.4141965 L16.8489545,14.4141965 L15.8609983,14.6415466 L14.879204,14.8920957 L13.9117875,15.1194458 L12.9299933,15.3676751 L11.946145,15.5950252 L10.9602428,15.8200554 L9.99693423,16.0729244 L9.00897808,16.2956348 L8.02718381,16.5229849 L7.05976728,16.773534 L6.07797302,17.0008841 L5.09412479,17.2282343 L4.1082226,17.4555844 L1.17516358,18.1585139 L0.953335582,18.7245693 L0.934849916,19.4530176 L0.692482293,28.4171083 L0.614431703,30.6650907 L0.489139966,35.1587355 L0.429575042,37.404398 L0.388495784,38.5620277 L0.388495784,39.1280831 L1.07451939,39.6964584 L3.52489713,39.1048841 L5.97732884,38.5388287 L8.42770658,37.9727733 L10.8595987,37.381199 L12.2275379,37.0633728 L13.5112648,36.7687456 L14.6183508,36.5645945 L14.7990995,37.3139219 L15.6412243,36.9752166 L15.600145,36.2954861 L18.3524553,35.5438388 L18.8577302,35.5670378 L19.1185835,35.5438388 L19.2787926,35.4997607 L19.6012648,35.1819345 L20.6035987,34.9313854 L23.5592513,34.1356599 L26.5128499,33.3422544 L29.4643946,32.5720479 L32.4221012,31.7763224 L34.6917302,31.117471 L34.7923744,31.4352972 L36.5587825,30.8692418 L38.3662698,30.2799874 L40.1367858,29.7116121 L41.9257875,29.1432368 L42.9692007,28.8486096 L43.0677909,29.2337128 L43.3327521,30.1431134 L43.8339191,31.9363955 L43.8955379,32.1173476 L43.9961821,32.2519018 L44.1563912,32.2519018 L44.5363744,32.1173476 L44.6965835,32.1173476 L44.7972277,32.2078237 L44.9184115,32.5047708 L44.9574368,32.729801 L44.9779764,32.913073 L44.9779764,33.1613023 L45.0190556,33.3190554 L45.1176459,33.5904836 L45.2388297,34.6135592 L45.2983946,34.7481134 L45.3600135,34.9313854 L45.5407622,35.1146574 L45.8447487,35.3860856 L46.2247319,35.5670378 L46.4876391,35.6343149 L46.7074132,35.6575139 L47.1490152,35.861665 L48.0342732,36.8638615 L48.1143777,36.4741184 L48.1349174,36.3163652 L48.1944823,36.1098942 L48.4758752,36.1098942 L48.9770422,36.1794912 L49.1187656,35.998539 L49.2173558,35.7479899 L49.5192884,34.202937 L49.6794975,33.7737557 L49.9403508,33.5464055 L49.7390624,34.9105063 L49.1187656,37.2675239 L49.0571467,38.4947506 L49.1393052,39.1048841 L49.2995143,39.8101335 L49.6589578,41.0582393 L50.145747,42.0836348 L50.1847723,42.3063451 L50.145747,42.6496902 L50.2854165,42.9443174 L50.7064789,43.5335718 L51.6697875,41.8771637 L52.0908499,41.4224635 L51.9696661,41.3111083 L51.6903272,40.9004861 L52.4564553,40.8308892 L52.6556897,40.6058589 L52.5160202,40.0166045 L52.8569781,40.2880327 L53.0582664,40.696335 L53.0377268,41.1278363 L52.6762293,41.4224635 L53.3376054,41.5338186 L53.799747,41.2391914 L54.522742,40.2439547 L54.5022024,40.3112317 L54.5022024,40.4481058 L54.7877032,40.3553098 L54.9869376,40.1302796 L55.3278954,39.5827834 L55.0074772,38.7684987 L55.0875818,38.1769244 L55.2477909,37.610869 L55.1081214,36.8638615 L55.6893929,37.0633728 L55.849602,37.1770479 L55.9892715,37.358 L56.2501248,37.8590982 L56.4103339,37.9727733 L56.6321619,37.8822972 L56.5910826,37.541272 L56.291204,36.8383426 L56.4719528,36.7919446 L56.8375582,36.4949975 L57.0984115,36.1794912 L57.0573322,36.0890151 L57.016253,35.9521411 L57.1374368,35.6807128 L57.3387251,35.5438388 L57.679683,35.884864 L57.9199966,35.2956096 L57.9405363,34.7713123 L58.0596661,34.411728 L58.6224519,34.318932 L58.341059,33.9547078 L58.2198752,33.6136826 L58.0596661,32.6625239 L58.2404148,32.5488489 L58.7025565,32.6625239 L59.4686847,33.0012292 L59.5878145,32.9571511 L59.5878145,32.5720479 L59.6884587,32.3214987 L59.889747,32.2982997 L60.1095211,32.5720479 L60.0294165,32.6393249 L59.8692074,32.8666751 L60.0704958,33.1381033 L59.9698516,33.4559295 L59.7891029,33.7737557 L59.7295379,34.089262 L59.8486678,34.479005 L60.0704958,34.9105063 L60.5716627,37.1329698 L60.5922024,37.9959723 L60.2512445,38.6989018 L60.8715413,38.4483526 L61.8800371,37.5203929 L62.440769,37.1770479 L63.102145,36.9543375 L63.6279595,36.6318715 L64.0490219,36.2003703 L64.3304148,35.5438388 L64.6508331,34.202937 L64.8110422,33.8874307 L65.0718954,33.8874307 L65.4744722,34.3444509 L65.6737066,34.1588589 L65.8996425,33.7969547 L66.1604958,33.6368816 L66.8218718,33.5000076 L67.1422901,33.3422544 L67.6044317,32.8898741 L67.8837707,32.753 L67.865285,33.5464055 L67.9043103,33.8665516 L68.0439798,33.6368816 L68.2103508,32.9803501 L68.3294806,32.7089219 L68.5102293,32.5488489 L68.750543,32.4142947 L69.2927892,31.8691184 L70.2560978,31.5698514 L73.2528297,29.9621612 L74.0949545,29.9389622 L74.0949545,29.9389622 Z" id="Fill-63" fill="#D6D6D6"></path>
                <path d="M76.0236256,40.9445642 L75.1424755,39.9493275 L74.4954772,38.7916977 L74.3558078,38.5852267 L74.2161383,38.4947506 L74.0538752,38.4715516 L73.8546408,38.5620277 L74.2757032,39.2904761 L74.2962428,39.9493275 L73.955285,41.3111083 L74.2161383,41.0582393 L74.616661,40.2207557 L74.9411872,39.9493275 L74.9206476,40.4017078 L74.7974098,40.8540882 L74.5755818,41.2183123 L74.1154941,41.5570176 L73.9737707,41.9003627 L73.8341012,42.0140378 L73.6533524,42.0604358 L73.4520641,41.9699597 L73.2322901,41.9699597 L72.6304789,42.1253929 L70.962661,42.8979194 L71.0016863,43.0788715 L73.3719595,43.2389446 L74.5365565,43.1020705 L75.6231029,42.7169673 L76.444688,41.8307657 L76.0236256,40.9445642 L76.0236256,40.9445642 Z M65.8585632,40.6290579 L65.5340371,40.2207557 L65.3142631,40.5826599 L65.1129747,41.1951134 L64.8911467,41.5570176 L65.0924351,41.8539647 L65.4539325,42.1253929 L65.8380236,42.3063451 L66.0988769,42.262267 L66.1604958,41.9908388 L66.0988769,41.5570176 L65.8585632,40.6290579 L65.8585632,40.6290579 Z M63.769683,41.2391914 L63.4636425,41.2183123 L63.1432243,41.0350403 L63.4841821,40.649937 L63.6279595,40.3553098 L63.5683946,40.0838816 L63.2623541,39.7196574 L62.9419359,39.6523804 L62.8228061,39.9493275 L62.7221619,40.3344307 L62.4613086,40.6058589 L62.5003339,39.8565315 L62.2394806,39.8565315 L61.274118,40.696335 L60.8530556,41.5570176 L60.6312277,41.8075668 L60.4319933,42.102194 L60.1506003,43.2830227 L59.9903912,43.7145239 L59.6494334,44.011471 L58.3821383,44.3965743 L58.4211636,44.6239244 L58.7210422,44.7352796 L59.228371,45.1899798 L59.4871703,45.3500529 L59.9102867,45.4846071 L60.1300607,45.41733 L60.4114536,44.8930327 L60.7914368,44.3965743 L61.274118,43.965073 L61.8594975,43.6240479 L64.6508331,42.6937683 L64.9733052,42.4896171 L64.431059,41.0814383 L63.769683,41.2391914 L63.769683,41.2391914 Z M73.6923777,33.8201537 L73.7930219,31.9595945 L73.9737707,31.2775441 L73.9142057,31.026995 L73.8341012,30.8692418 L73.733457,30.7555668 L73.5527083,30.7323678 L73.5937875,31.5489723 L73.3329342,34.0219849 L73.6923777,33.8201537 L73.6923777,33.8201537 Z M74.0949545,29.9389622 L73.733457,27.964728 L73.3329342,26.4637531 L73.0926206,26.1273678 L72.790688,26.1714458 L72.406597,26.6215063 L72.3860573,26.2178438 L72.2648735,25.3757204 L72.2648735,24.946539 L72.6099393,25.1947683 L72.9714368,25.3757204 L73.0515413,25.3316423 L73.1111062,25.2852443 L73.1727251,25.2179673 L73.2117504,25.1042922 L72.7701484,24.603194 L71.0612513,21.47133 L70.3793356,20.8147985 L68.9518314,19.7940428 L68.4896897,19.5875718 L67.5243272,19.3834207 L67.1422901,19.2047884 L66.7807926,19.1375113 L65.9592074,19.5202947 L65.593602,19.4530176 L65.4333929,19.4970957 L65.2731838,19.7244458 L65.1725396,20.0445919 L65.1725396,20.3392191 L65.2526442,20.4505743 L65.3923137,20.5201713 L65.5545767,20.5642494 L65.6737066,20.6106474 L66.3001653,21.2022217 L66.6205835,21.3135768 L66.9410017,21.0653476 L66.8814368,20.8588766 L66.8013322,20.9052746 L66.5014536,20.9725516 L66.7212277,20.135068 L67.4031433,19.9077179 L68.1898111,20.2487431 L68.6909781,21.0421486 L68.8306476,21.3576549 L69.5125632,22.6080806 L69.6542867,23.0395819 L69.9541653,24.4013627 L70.0958887,24.0116196 L69.9952445,23.0836599 L70.2150185,22.8122317 L70.4409545,22.8586297 L70.6812681,23.0395819 L70.9811467,23.150937 L71.3816695,23.0836599 L71.4432884,23.3110101 L71.1413558,23.5615592 L71.0016863,23.6520353 L70.800398,23.7193123 L71.3631838,24.3108866 L71.7431669,25.2179673 L71.8643508,26.1946448 L71.6240371,27.0785264 L71.3631838,27.3035567 L70.6812681,27.6701008 L70.2150185,28.2802343 L68.5697943,29.3961058 L67.6845363,30.3913426 L67.1217504,30.8460428 L66.3207049,31.0733929 L65.8996425,31.094272 L65.7743508,30.9365189 L65.979747,30.6882897 L66.7212277,30.4609395 L66.9820809,30.2335894 L64.4105194,30.7555668 L63.5683946,30.6650907 L62.0402462,30.0758363 L61.2926037,29.484262 L61.1323946,28.7372544 L61.111855,27.91833 L60.7318718,26.8534962 L60.1896256,25.9649748 L59.6679191,25.6703476 L58.9017909,25.9881738 L58.5218078,26.0345718 L58.1007454,25.8304207 L56.6321619,24.879262 L56.792371,24.69367 L56.9361484,24.603194 L57.0984115,24.603194 L57.3181855,24.6727909 L57.1764621,23.243733 L57.2586206,22.9931839 L57.4989342,23.1068589 L57.7988128,23.4687632 L58.2198752,24.1995315 L58.1007454,24.2668086 L57.9405363,24.4222418 L57.8604317,24.4918388 L58.1007454,24.5823149 L58.2999798,24.5823149 L58.5012681,24.4918388 L58.6614772,24.2436096 L58.7415818,24.0116196 L58.7025565,23.9443426 L58.5608331,23.9002645 L57.7187083,23.0395819 L57.4373153,22.6080806 L57.4188297,22.0837834 L56.8765835,21.747398 L56.1309949,20.8820756 L55.6483137,20.4064962 L55.3278954,20.2487431 L55.2477909,20.2696222 L55.2067116,20.1791461 L55.0074772,19.3161436 L54.9068331,19.1607103 L54.2413491,18.6132141 L53.7607218,18.339466 L53.2390152,18.1817128 L52.2305194,18.1817128 L51.6492479,17.9102846 L50.5668094,17.1586373 L50.6263744,17.5019824 L50.8872277,17.9311637 L51.2076459,18.2489899 L51.5095784,18.362665 L51.5486037,18.522738 L51.4684992,18.8614433 L51.2692648,19.0655945 L50.9467926,18.7477683 L50.7660438,18.9959975 L50.5051906,19.2929446 L50.2258516,19.5202947 L50.1046678,19.5434937 L50.0841282,19.6571688 L49.9608904,19.6780479 L49.8191669,19.6339698 L49.7000371,19.5643728 L49.6794975,19.4298186 L49.8191669,19.1375113 L49.8602462,18.9751184 L49.5583137,18.6596121 L49.1577909,18.7918463 L48.8168331,18.7709673 L48.7367285,17.9543627 L48.3362057,18.409063 L48.155457,18.4531411 L47.8740641,18.2953879 L47.6091029,17.9543627 L47.6296425,17.6388564 L47.8350388,17.3883073 L48.1349174,17.2746322 L47.9747083,17.0472821 L47.7713659,16.9104081 L47.5495379,16.8872091 L47.3092243,16.8640101 L47.4488938,16.4325088 L47.7898516,16.4997859 L48.1759966,16.6853778 L48.5354401,16.4997859 L48.2951265,16.4557078 L48.0958921,16.2956348 L48.0157875,16.0938035 L48.1944823,15.9569295 L48.4758752,15.9801285 L48.9174772,16.3420327 L49.2173558,16.2956348 L48.9975818,16.0729244 L48.8784519,15.8200554 L48.6566239,15.1867229 L48.3957707,14.7784207 L48.3567454,14.5278715 L48.4553356,14.0754912 L48.7983474,13.7089471 L49.4987487,14.2541234 L49.9403508,13.9362972 L49.6589578,13.8458212 L49.3385396,13.6857481 L49.098226,13.4143199 L49.0776863,13.0524156 L49.1783305,12.8923426 L49.5192884,12.8250655 L49.6589578,12.7577884 L49.759602,12.6209144 L50.0615346,12.075738 L50.1252074,11.938864 L50.205312,11.7811108 L50.3655211,11.6906348 L50.5051906,11.5792796 L50.425086,11.4168866 L50.1662867,11.2127355 L50.0204553,10.9645063 L49.8602462,11.1663375 L49.6589578,11.5560806 L49.4186442,11.7811108 L49.3981046,11.4841637 L49.4391838,11.2568136 L49.5192884,11.0341033 L49.6404722,10.8508312 L49.4597234,10.6907582 L49.7205767,10.3288539 L50.6263744,9.55632746 L52.7563339,8.30822166 L52.8775177,8.08087154 L52.916543,7.78624433 L53.0377268,7.47073804 L53.2184755,7.22018892 L53.3376054,7.22018892 L53.3992243,7.28978589 L53.4382496,7.33386398 L53.8202867,7.28978589 L53.9003912,7.19930982 L54.0606003,6.94644081 L54.1797302,6.67501259 L54.2208094,6.40126448 L54.3214536,6.19711335 L54.6069545,6.10663728 L54.5617673,5.94888413 L54.4015582,5.7424131 L54.4015582,5.47098489 L54.3604789,5.24595466 L54.1612445,5.22275567 L53.8798516,5.26683375 L53.6991029,5.22275567 L53.5594334,5.01860453 L53.4998685,4.58942317 L53.0377268,5.06268262 L52.8364384,5.33643073 L52.7563339,5.65425693 L52.9781619,6.40126448 L52.9370826,6.69821159 L52.5365599,6.56365743 L52.4153761,6.19711335 L51.3082901,6.42446348 L50.8276627,6.0370403 L51.0268971,5.97208312 L51.1686206,5.90480605 L51.4294739,5.63105793 L50.1847723,5.38050882 L49.6404722,5.01860453 L49.3385396,4.15560202 L49.6199325,4.31335516 L50.4456256,5.08588161 L50.5257302,4.83765239 L49.5192884,3.15572544 L49.2173558,2.86109824 L49.0571467,2.63606801 L48.9770422,2.56647103 L48.8969376,2.56647103 L48.7572681,2.63606801 L48.6977032,2.6569471 L48.2355616,2.56647103 L48.0157875,2.47599496 L47.7508263,2.27184383 L48.6566239,2.07001259 L48.8168331,1.95401763 L48.7983474,1.68258942 L48.3957707,0.705911839 L48.375231,0.501760705 L47.709747,0.912382872 L47.268145,0.912382872 L46.547204,0.796387909 L46.3068904,0.840465995 L46.1261417,0.889183879 L44.4357302,2.38551889 L44.2570354,2.63606801 L44.1769309,2.77062217 L43.9756425,3.22532242 L43.8749983,3.42947355 L43.6737099,3.72178086 L43.4929612,3.83545592 L43.2690793,3.902733 L43.0287656,3.92825189 L42.7083474,4.02104786 L42.507059,4.10920403 L42.3673895,4.22287909 L42.285231,4.33655416 L42.2071804,4.45022922 L42.0859966,4.74717632 L42.0264317,4.90492947 L41.9463272,5.26683375 L41.9052479,5.85608816 L41.8662226,6.08343829 L41.7244992,6.37806549 L41.5232108,6.58685642 L41.1637673,6.81188665 L40.9789106,6.9696398 L40.8577268,7.12971285 L40.6769781,7.5844131 L40.457204,7.96951637 L40.2353761,8.30822166 L40.0957066,8.42421662 L39.8964722,8.5146927 L39.4548702,8.64692695 L38.025312,9.01579093 L36.6224553,9.37537531 L35.2134368,9.7395995 L33.8064722,10.1015038 L32.4015616,10.465728 L30.992543,10.8276322 L29.5650388,11.1895365 L28.1621821,11.5560806 L26.7531636,11.9179849 L23.9412884,12.6209144 L22.5322698,12.9851385 L21.1088735,13.3470428 L19.699855,13.6857481 L18.2928904,14.0522922 L16.8879798,14.3909975 L16.8674401,14.3909975 L16.8674401,14.4141965 L16.8489545,14.4141965 L15.8609983,14.6415466 L14.879204,14.8920957 L13.9117875,15.1194458 L12.9299933,15.3676751 L11.946145,15.5950252 L10.9602428,15.8200554 L9.99693423,16.0729244 L9.00897808,16.2956348 L8.02718381,16.5229849 L7.05976728,16.773534 L6.07797302,17.0008841 L5.09412479,17.2282343 L4.1082226,17.4555844 L1.17516358,18.1585139 L0.953335582,18.7245693 L0.934849916,19.4530176 L0.692482293,28.4171083 L0.614431703,30.6650907 L0.489139966,35.1587355 L0.429575042,37.404398 L0.388495784,38.5620277 L0.388495784,39.1280831 L1.07451939,39.6964584 L3.52489713,39.1048841 L5.97732884,38.5388287 L8.42770658,37.9727733 L10.8595987,37.381199 L12.2275379,37.0633728 L13.5112648,36.7687456 L14.6183508,36.5645945 L14.7990995,37.3139219 L15.6412243,36.9752166 L15.600145,36.2954861 L18.3524553,35.5438388 L18.8577302,35.5670378 L19.1185835,35.5438388 L19.2787926,35.4997607 L19.6012648,35.1819345 L20.6035987,34.9313854 L23.5592513,34.1356599 L26.5128499,33.3422544 L29.4643946,32.5720479 L32.4221012,31.7763224 L34.6917302,31.117471 L34.7923744,31.4352972 L36.5587825,30.8692418 L38.3662698,30.2799874 L40.1367858,29.7116121 L41.9257875,29.1432368 L42.9692007,28.8486096 L43.0677909,29.2337128 L43.3327521,30.1431134 L43.8339191,31.9363955 L43.8955379,32.1173476 L43.9961821,32.2519018 L44.1563912,32.2519018 L44.5363744,32.1173476 L44.6965835,32.1173476 L44.7972277,32.2078237 L44.9184115,32.5047708 L44.9574368,32.729801 L44.9779764,32.913073 L44.9779764,33.1613023 L45.0190556,33.3190554 L45.1176459,33.5904836 L45.2388297,34.6135592 L45.2983946,34.7481134 L45.3600135,34.9313854 L45.5407622,35.1146574 L45.8447487,35.3860856 L46.2247319,35.5670378 L46.4876391,35.6343149 L46.7074132,35.6575139 L47.1490152,35.861665 L48.0342732,36.8638615 L48.1143777,36.4741184 L48.1349174,36.3163652 L48.1944823,36.1098942 L48.4758752,36.1098942 L48.9770422,36.1794912 L49.1187656,35.998539 L49.2173558,35.7479899 L49.5192884,34.202937 L49.6794975,33.7737557 L49.9403508,33.5464055 L49.7390624,34.9105063 L49.1187656,37.2675239 L49.0571467,38.4947506 L49.1393052,39.1048841 L49.2995143,39.8101335 L49.6589578,41.0582393 L50.145747,42.0836348 L50.1847723,42.3063451 L50.145747,42.6496902 L50.2854165,42.9443174 L50.7064789,43.5335718 L51.6697875,41.8771637 L52.0908499,41.4224635 L51.9696661,41.3111083 L51.6903272,40.9004861 L52.4564553,40.8308892 L52.6556897,40.6058589 L52.5160202,40.0166045 L52.8569781,40.2880327 L53.0582664,40.696335 L53.0377268,41.1278363 L52.6762293,41.4224635 L53.3376054,41.5338186 L53.799747,41.2391914 L54.522742,40.2439547 L54.5022024,40.3112317 L54.5022024,40.4481058 L54.7877032,40.3553098 L54.9869376,40.1302796 L55.3278954,39.5827834 L55.0074772,38.7684987 L55.0875818,38.1769244 L55.2477909,37.610869 L55.1081214,36.8638615 L55.6893929,37.0633728 L55.849602,37.1770479 L55.9892715,37.358 L56.2501248,37.8590982 L56.4103339,37.9727733 L56.6321619,37.8822972 L56.5910826,37.541272 L56.291204,36.8383426 L56.4719528,36.7919446 L56.8375582,36.4949975 L57.0984115,36.1794912 L57.0573322,36.0890151 L57.016253,35.9521411 L57.1374368,35.6807128 L57.3387251,35.5438388 L57.679683,35.884864 L57.9199966,35.2956096 L57.9405363,34.7713123 L58.0596661,34.411728 L58.6224519,34.318932 L58.341059,33.9547078 L58.2198752,33.6136826 L58.0596661,32.6625239 L58.2404148,32.5488489 L58.7025565,32.6625239 L59.4686847,33.0012292 L59.5878145,32.9571511 L59.5878145,32.5720479 L59.6884587,32.3214987 L59.889747,32.2982997 L60.1095211,32.5720479 L60.0294165,32.6393249 L59.8692074,32.8666751 L60.0704958,33.1381033 L59.9698516,33.4559295 L59.7891029,33.7737557 L59.7295379,34.089262 L59.8486678,34.479005 L60.0704958,34.9105063 L60.5716627,37.1329698 L60.5922024,37.9959723 L60.2512445,38.6989018 L60.8715413,38.4483526 L61.8800371,37.5203929 L62.440769,37.1770479 L63.102145,36.9543375 L63.6279595,36.6318715 L64.0490219,36.2003703 L64.3304148,35.5438388 L64.6508331,34.202937 L64.8110422,33.8874307 L65.0718954,33.8874307 L65.4744722,34.3444509 L65.6737066,34.1588589 L65.8996425,33.7969547 L66.1604958,33.6368816 L66.8218718,33.5000076 L67.1422901,33.3422544 L67.6044317,32.8898741 L67.8837707,32.753 L67.865285,33.5464055 L67.9043103,33.8665516 L68.0439798,33.6368816 L68.2103508,32.9803501 L68.3294806,32.7089219 L68.5102293,32.5488489 L68.750543,32.4142947 L69.2927892,31.8691184 L70.2560978,31.5698514 L73.2528297,29.9621612 L74.0949545,29.9389622 L74.0949545,29.9389622 Z" id="Stroke-64" stroke="#F9F9F9" stroke-width="0.25" stroke-linecap="round" stroke-linejoin="round"></path>
            </g>
        </g>
    </g>
</svg>