<?xml version="1.0" encoding="UTF-8"?>
<svg width="148px" height="174px" viewBox="0 0 148 174" version="1.1" xmlns="http://www.w3.org/2000/svg" xmlns:xlink="http://www.w3.org/1999/xlink">
    <!-- Generator: Sketch 51 (57462) - http://www.bohemiancoding.com/sketch -->
    <title>Minnesota</title>
    <desc>Created with Sketch.</desc>
    <defs></defs>
    <g id="Page-1" stroke="none" stroke-width="1" fill="none" fill-rule="evenodd">
        <g id="A5" transform="translate(-650.000000, -78.000000)">
            <g id="Minnesota" transform="translate(650.000000, 78.000000)">
                <polygon id="Fill-55" fill="#D6D6D6" points="146.697949 31.5804912 145.475841 31.3763401 145.052725 31.3972191 144.407781 31.6268892 144.188007 31.5804912 143.746405 31.3972191 143.423933 31.3299421 143.085029 31.3763401 142.661912 31.5132141 140.833885 32.5107708 140.492927 32.5107708 139.305737 31.9679144 139.003804 31.7405642 138.724465 31.4436171 137.5763 29.7872091 137.315447 29.5157809 136.393218 29.1979547 135.286132 29.2652317 129.802051 30.5806146 129.660327 30.5597355 129.541197 30.4692594 129.399474 30.4460605 129.200239 30.5156574 128.653885 30.8543627 128.454651 30.8984408 128.052074 30.7847657 127.811761 30.5365365 127.550907 30.3787834 127.088766 30.4460605 125.420948 31.1721889 124.478179 31.262665 123.771616 30.8543627 123.531302 30.4019824 123.350553 29.5389798 123.130779 29.1538766 122.908951 28.9706045 122.709717 28.8778086 122.528968 28.7432544 122.368759 28.3813501 122.368759 28.1284811 122.547454 27.7665768 122.487889 27.4951486 121.822405 27.1332443 120.900175 27.4278715 119.351487 28.5414232 118.98999 28.8337305 118.20743 29.3116297 115.816617 31.3763401 115.210698 32.1697456 114.508243 32.735801 112.840425 33.1000252 111.675828 33.8261537 111.336924 33.7356776 110.954887 33.5129673 110.529717 33.4201713 108.863953 33.7124786 108.619531 33.6243224 108.640071 33.3737733 108.724283 33.0791461 108.683204 32.782199 108.500401 32.5780479 108.358678 32.5339698 107.958155 32.6012469 106.534759 32.4643728 106.04797 32.1024685 106.388927 31.3299421 105.727551 30.4924584 105.386594 30.1955113 104.965531 29.9913602 103.295659 29.9008841 101.245804 29.1306776 100.886361 28.9010076 100.545403 28.6087003 100.222931 28.1980781 99.9230523 27.4951486 99.7012243 26.7690202 99.4177774 26.1774458 98.8755312 25.8619395 97.2672782 25.9083375 95.3016358 26.358398 94.8970051 26.634466 94.514968 27.2445995 94.5950725 27.8361738 94.7963609 28.4277481 94.8559258 29.0170025 94.6361518 29.3348287 94.1945497 29.650335 93.7118685 29.8776851 93.3709106 29.9240831 93.1100573 29.650335 92.3850084 28.2653552 91.7030927 27.4278715 91.4627791 26.9499723 91.3415953 26.2679219 91.2614907 25.0894131 91.1012816 24.6347128 90.7397841 24.0013804 90.0332209 23.6812343 89.2116358 23.7276322 87.5828432 24.0918564 87.2008061 24.0245793 86.6811535 23.9549824 86.3792209 23.549 86.5004047 22.8669496 86.8413626 22.6372796 87.6834874 22.3658514 88.0449848 22.1848992 87.9443406 21.7093199 87.5828432 21.2314207 86.0937201 20.9831914 83.0415312 20.3243401 81.6345666 19.4845365 81.172425 19.3476625 75.8896324 19.3476625 73.4782799 19.9601159 72.8970084 20.3243401 72.2705497 20.5493703 72.2500101 20.8695164 72.2910894 21.2754987 72.1699056 21.730199 71.5886341 22.2080982 70.1796155 22.4099295 69.5593187 22.7973526 69.2368465 22.6836776 66.6057201 23.272932 66.1846577 23.203335 65.558199 22.5468035 64.9563879 20.4565743 64.1943676 19.9601159 61.1586105 19.9369169 57.4039663 19.9137179 57.0424688 19.7791637 57.0013895 19.6190907 56.9171771 19.0298363 56.8576121 18.8233652 56.7179427 18.621534 56.5371939 18.4405819 56.3564452 18.3292267 56.1756965 18.2364307 55.814199 18.2132317 52.6613659 18.7792872 51.8952378 18.7120101 50.4903272 18.1436348 48.6006813 16.7377758 48.341882 16.4199496 48.1405936 15.9211713 48.0810287 15.4641511 48.0810287 14.9212947 48.060489 14.3320403 48.060489 14.3088413 48.0194098 12.8310655 47.0725329 9.65512343 46.2304081 6.82020655 45.9900944 6.25415113 45.8298853 5.66489673 45.8689106 4.39127204 45.7703204 3.84609572 45.5649241 3.23596222 45.3636358 2.0528136 45.1233221 1.60043325 44.8029039 1.34988413 43.4596121 0.626075567 42.3710118 0.37088665 40.1219224 0.556478589 39.0189444 0.169055416 39.0990489 1.80458438 39.1976391 4.36807305 39.3393626 7.66001008 39.4400067 10.471728 39.4194671 10.770995 39.2982833 10.9496272 39.1380742 11.0401033 34.9787993 11.2442544 30.8380101 11.4275264 26.6992749 11.6084786 22.537946 11.7894307 18.3971568 11.9495038 14.2419899 12.0840579 10.1012007 12.244131 5.9419258 12.3786851 1.80113659 12.4923602 0.47427656 12.5387582 0.433197302 13.2440076 0.593406408 13.717267 0.798802698 14.1510882 0.878907251 14.5361914 0.979551433 15.1045668 1.10073524 15.3736751 1.21986509 15.6242242 1.32050927 15.8770932 1.48071838 16.8746499 2.08252951 18.4197028 2.24273862 19.5286146 2.42348735 20.004194 2.88562901 20.9831914 3.0684317 22.3658514 2.70488027 23.479403 2.22219899 24.5442368 2.08252951 25.7714635 2.56521079 27.4278715 2.68434064 28.3349521 2.80552445 28.8105315 2.80552445 29.1306776 2.7254199 29.4461839 2.50359191 29.9681612 2.42348735 30.3323854 2.80552445 32.2161436 2.94930185 32.6244458 3.04994604 33.0791461 2.80552445 35.0974584 2.84454975 36.3014861 3.00886678 37.3895189 3.34982462 38.4125945 4.23302867 40.5469018 4.47334233 41.6140554 4.79376054 42.5884131 5.47978415 43.3794987 5.21893086 44.087068 5.30108938 44.7435995 5.82074199 46.1517783 5.82074199 46.3350504 5.72215177 46.5368816 5.76117707 46.6737557 5.82074199 46.7201537 5.90290051 46.7433526 5.9419258 46.7874307 5.9809511 46.8570277 6.04256998 46.9683829 6.5231973 47.5344383 6.66286678 47.8986625 6.92372007 48.9194181 7.20511298 49.5109924 7.4700742 49.9424937 7.68984823 50.4389521 7.83157167 51.4852267 8.07188533 52.2786322 8.39230354 52.5291814 8.47240809 52.6637355 8.49294772 52.8678866 8.45392243 53.0279597 8.37381788 53.1648338 8.35327825 53.2785088 8.39230354 53.9814383 8.37381788 54.5498136 8.41284317 55.069471 8.61413153 55.5450504 8.63467116 55.9765516 8.35327825 57.4775264 8.35327825 58.0667809 8.47240809 58.2268539 8.63467116 58.407806 8.81336594 58.6560353 8.89552445 58.9529824 8.85444519 62.6741008 8.93454975 63.3329521 9.25496796 64.7388111 9.33507251 65.3512645 9.31658685 65.5786146 9.25496796 65.8291637 9.19540304 66.1237909 9.21594266 66.467136 9.51582125 67.6665239 9.55690051 68.2325793 9.45625632 70.1627355 9.51582125 70.5478388 9.61646543 70.8215869 9.88142664 71.2530882 9.9615312 71.6405113 9.9615312 71.8678615 9.88142664 71.8678615 10.0005565 71.9351385 10.2223845 72.0024156 10.4236728 72.1392897 10.6434469 72.2065668 10.7646307 72.3202418 10.8447352 72.501194 10.8241956 72.638068 10.7646307 72.7726222 10.6639865 73.2482015 10.4031332 73.6565038 10.3435683 73.9534509 10.4031332 74.9533275 10.3825936 75.2711537 10.3230287 75.4729849 10.1628196 75.9485642 10.1217403 76.2455113 10.2018449 76.7257305 10.5037774 77.7209673 10.583882 78.3774987 10.524317 79.03867 10.3230287 80.0594257 10.3825936 80.6927582 10.583882 81.1033804 11.2247184 81.9895819 11.3664418 82.5556373 11.5061113 83.6459899 11.5451366 84.2607632 11.4260067 84.8708967 11.5451366 85.0750479 11.8676088 85.4369521 11.9908465 85.6643023 12.0319258 85.8916524 12.0319258 86.1422015 12.0709511 86.4368287 12.2126745 86.7569748 13.3957572 88.6384131 14.0776728 89.4109395 14.3816594 89.9097179 14.5233828 90.5221713 14.5233828 92.4291285 14.5829477 93.0183829 14.6630523 93.3362091 14.7431568 93.5844383 15.2237841 94.3592846 15.2237841 94.5634358 15.1847589 94.7907859 15.1847589 95.1294912 15.2648634 95.2872443 15.4250725 96.3799169 15.4250725 96.7395013 15.3244283 97.5816247 15.1046543 98.2381562 15.1251939 98.9457254 15.564742 101.119471 15.4661518 101.441937 15.3860472 101.553292 15.3244283 101.711045 15.285403 101.847919 15.1642192 103.662081 15.0450894 104.163179 14.6630523 104.956584 14.1187521 106.43204 14.0365936 106.568914 13.8969241 106.793945 13.7161754 107.021295 13.1944688 107.499194 11.7875042 108.408594 11.5862159 108.610426 11.1651535 109.178801 10.4236728 109.770375 10.2614098 109.928128 10.1217403 110.109081 9.88142664 110.742413 9.82186172 111.378065 10.362054 112.106514 11.3664418 113.264144 11.7669646 113.920675 12.5330927 115.690758 12.9952344 116.556081 13.4162968 116.917985 14.9834705 117.052539 15.8276492 117.305408 16.4089207 117.734589 16.6328027 117.985139 17.11343 118.391121 17.3147184 118.597592 17.8754503 119.685625 18.0171737 119.982572 18.1178179 120.073048 18.1178179 120.096247 18.1568432 121.228358 18.5183406 134.233713 18.7237369 140.74799 19.4446779 166.870055 19.6459663 173.407531 26.196054 173.159302 32.7481956 172.887874 39.2982833 172.590927 45.8689106 172.29862 52.4169444 171.952955 58.967032 171.59105 65.5191737 171.205947 72.0692614 170.820844 78.621403 170.391662 85.1714907 169.934642 91.7236324 169.482262 98.2531804 168.981164 104.805322 168.482385 111.35541 167.939529 117.887012 167.394353 124.437099 166.802778 124.498718 166.099849 124.519258 165.714746 124.457639 165.329642 124.272782 164.580315 124.233757 164.172013 124.252243 163.239413 124.233757 162.923907 124.011929 162.1537 123.993444 161.877632 124.133113 160.244423 124.092034 159.678368 123.972904 159.109992 123.892799 158.836244 123.751076 158.632093 123.451197 158.293388 123.330013 158.089237 123.229369 157.861887 123.169804 157.613657 123.149265 157.339909 123.130779 156.476907 123.06916 155.794856 122.929491 155.071048 122.808307 154.750902 122.668637 154.479474 122.448863 154.249804 122.163363 154.09437 121.280159 153.820622 121.09941 153.435519 120.598243 152.846264 120.438034 152.435642 120.378469 152.208292 120.31685 152.02966 120.21826 151.869587 120.076536 151.732713 119.832115 151.619038 119.090634 151.619038 118.909885 151.57264 118.770216 151.507683 117.562486 150.598282 117.441302 150.554204 115.516739 150.711957 115.251777 150.667879 115.00941 150.531005 112.538492 148.463975 111.737447 148.148469 111.316384 147.603292 109.607487 144.564224 108.763309 143.221003 105.526263 140.476562 104.443825 140.135537 102.094091 139.884987 101.80859 139.771312 101.586762 139.546282 101.408067 139.228456 100.806256 137.98035 100.183906 137.251902 99.4773423 136.709045 98.7543474 136.479375 95.6425936 136.163869 94.734742 135.641892 94.6361518 135.484139 94.5355076 135.21039 94.3937841 134.962161 94.013801 134.732491 92.5452175 133.303433 91.2614907 132.556426 90.7007589 132.078526 91.4216998 130.171569 91.5018044 129.357285 91.4627791 128.990741 91.30257 128.060461 91.3415953 127.744955 91.5819089 127.220657 91.6435278 127.016506 91.4833187 125.768401 91.2204115 124.520295 90.6761113 123.225791 90.4953626 122.592458 90.7603238 122.274632 91.1423609 122.09136 91.3826745 121.662179 91.4627791 121.072924 91.4011602 120.414073 91.0006374 119.458275 90.8999933 119.300521 90.9205329 118.959496 91.0211771 118.323844 90.9616121 117.008461 91.0006374 116.460965 91.1423609 115.964506 91.4011602 115.579403 91.6825531 115.282456 91.9228668 114.920552 92.0029713 114.375375 92.0830759 113.693325 92.6047825 112.628491 92.6458617 112.106514 92.5246779 111.540458 92.2247993 111.106637 91.8427622 110.721534 91.4833187 110.266834 91.30257 109.860851 90.9410725 108.74498 90.7007589 108.315798 89.9346307 108.065249 88.9302428 108.155725 88.0840101 107.997972 87.6424081 106.998096 87.6629477 104.754753 87.704027 104.253655 87.8642361 103.889431 89.4519494 102.007992 89.9531164 101.096272 89.8134469 100.258788 90.4953626 98.6000605 91.0211771 97.8298539 91.6024486 97.4679496 91.9434064 97.3542746 92.9703879 96.5585491 93.4715548 96.4448741 93.6132782 96.3335189 93.7118685 96.1943249 93.9131568 95.7651436 93.9336965 95.6955466 93.9932614 95.6282695 94.1144452 95.4705164 94.2541147 95.3336423 94.4348634 95.2431662 95.2400169 95.1758892 95.5214098 94.994937 95.9034469 94.1992116 96.1848398 93.9045844 96.5237437 93.9045844 97.0269646 93.9718615 97.4726745 93.9718615 97.6513693 93.6981134 97.7129882 93.2898111 97.8937369 92.8815088 98.1340506 92.5428035 98.3743642 92.3154534 98.7358617 92.2017783 98.6947825 91.2482997 98.6557572 90.8167985 98.555113 88.9562393 98.3147993 85.232801 98.2141551 83.3722418 98.0929713 81.5116826 97.9923272 79.6743224 97.8731973 77.8114433 97.7725531 75.9485642 97.7314739 75.3152317 97.7725531 75.2015567 97.8526577 75.2247557 98.1340506 75.3152317 98.4955481 75.3152317 98.8159663 75.2711537 99.0973592 75.1574786 99.1959494 75.0878816 99.2575683 74.9742065 99.2965936 74.9069295 99.3376728 74.7723753 99.3766981 74.020728 99.3972378 73.8397758 99.4568027 73.6820227 99.5369073 73.5451486 99.6170118 73.4546725 99.7423035 73.3850756 100.042182 73.2714005 100.142826 73.1809244 100.204445 73.0672494 100.344115 72.568471 100.463245 72.2761637 100.765177 72.0024156 101.02603 71.8678615 100.945926 71.7286675 101.266344 70.7751889 102.112577 69.8240302 103.79888 68.4854484 104.885427 67.3278186 105.587882 67.0099924 106.715508 66.054194 107.658277 64.717932 108.278573 64.3537078 109.326094 63.3793501 109.426739 63.1937582 109.586948 62.7413778 109.687592 62.5836247 109.868341 62.4467506 110.129194 62.3121965 110.348968 62.1289244 110.429073 61.7902191 110.609821 61.4283149 111.938735 60.5629924 120.758452 48.8962191 121.923049 48.2164887 124.718492 44.9245516 129.461093 41.6813325 132.012115 40.5469018 132.954884 40.3172317 133.275302 40.1826776 134.02089 39.5934232 137.777589 37.9370151 144.025744 33.8052746 144.348216 33.4642494 144.892516 32.6685239 145.395737 32.3298186 145.675076 31.7637632 145.896904 31.6036902 146.478175 31.7637632 146.778054 31.7637632 146.942371 31.5804912"></polygon>
                <polygon id="Stroke-56" stroke="#F9F9F9" stroke-width="0.25" stroke-linecap="round" stroke-linejoin="round" points="146.697949 31.5804912 145.475841 31.3763401 145.052725 31.3972191 144.407781 31.6268892 144.188007 31.5804912 143.746405 31.3972191 143.423933 31.3299421 143.085029 31.3763401 142.661912 31.5132141 140.833885 32.5107708 140.492927 32.5107708 139.305737 31.9679144 139.003804 31.7405642 138.724465 31.4436171 137.5763 29.7872091 137.315447 29.5157809 136.393218 29.1979547 135.286132 29.2652317 129.802051 30.5806146 129.660327 30.5597355 129.541197 30.4692594 129.399474 30.4460605 129.200239 30.5156574 128.653885 30.8543627 128.454651 30.8984408 128.052074 30.7847657 127.811761 30.5365365 127.550907 30.3787834 127.088766 30.4460605 125.420948 31.1721889 124.478179 31.262665 123.771616 30.8543627 123.531302 30.4019824 123.350553 29.5389798 123.130779 29.1538766 122.908951 28.9706045 122.709717 28.8778086 122.528968 28.7432544 122.368759 28.3813501 122.368759 28.1284811 122.547454 27.7665768 122.487889 27.4951486 121.822405 27.1332443 120.900175 27.4278715 119.351487 28.5414232 118.98999 28.8337305 118.20743 29.3116297 115.816617 31.3763401 115.210698 32.1697456 114.508243 32.735801 112.840425 33.1000252 111.675828 33.8261537 111.336924 33.7356776 110.954887 33.5129673 110.529717 33.4201713 108.863953 33.7124786 108.619531 33.6243224 108.640071 33.3737733 108.724283 33.0791461 108.683204 32.782199 108.500401 32.5780479 108.358678 32.5339698 107.958155 32.6012469 106.534759 32.4643728 106.04797 32.1024685 106.388927 31.3299421 105.727551 30.4924584 105.386594 30.1955113 104.965531 29.9913602 103.295659 29.9008841 101.245804 29.1306776 100.886361 28.9010076 100.545403 28.6087003 100.222931 28.1980781 99.9230523 27.4951486 99.7012243 26.7690202 99.4177774 26.1774458 98.8755312 25.8619395 97.2672782 25.9083375 95.3016358 26.358398 94.8970051 26.634466 94.514968 27.2445995 94.5950725 27.8361738 94.7963609 28.4277481 94.8559258 29.0170025 94.6361518 29.3348287 94.1945497 29.650335 93.7118685 29.8776851 93.3709106 29.9240831 93.1100573 29.650335 92.3850084 28.2653552 91.7030927 27.4278715 91.4627791 26.9499723 91.3415953 26.2679219 91.2614907 25.0894131 91.1012816 24.6347128 90.7397841 24.0013804 90.0332209 23.6812343 89.2116358 23.7276322 87.5828432 24.0918564 87.2008061 24.0245793 86.6811535 23.9549824 86.3792209 23.549 86.5004047 22.8669496 86.8413626 22.6372796 87.6834874 22.3658514 88.0449848 22.1848992 87.9443406 21.7093199 87.5828432 21.2314207 86.0937201 20.9831914 83.0415312 20.3243401 81.6345666 19.4845365 81.172425 19.3476625 75.8896324 19.3476625 73.4782799 19.9601159 72.8970084 20.3243401 72.2705497 20.5493703 72.2500101 20.8695164 72.2910894 21.2754987 72.1699056 21.730199 71.5886341 22.2080982 70.1796155 22.4099295 69.5593187 22.7973526 69.2368465 22.6836776 66.6057201 23.272932 66.1846577 23.203335 65.558199 22.5468035 64.9563879 20.4565743 64.1943676 19.9601159 61.1586105 19.9369169 57.4039663 19.9137179 57.0424688 19.7791637 57.0013895 19.6190907 56.9171771 19.0298363 56.8576121 18.8233652 56.7179427 18.621534 56.5371939 18.4405819 56.3564452 18.3292267 56.1756965 18.2364307 55.814199 18.2132317 52.6613659 18.7792872 51.8952378 18.7120101 50.4903272 18.1436348 48.6006813 16.7377758 48.341882 16.4199496 48.1405936 15.9211713 48.0810287 15.4641511 48.0810287 14.9212947 48.060489 14.3320403 48.060489 14.3088413 48.0194098 12.8310655 47.0725329 9.65512343 46.2304081 6.82020655 45.9900944 6.25415113 45.8298853 5.66489673 45.8689106 4.39127204 45.7703204 3.84609572 45.5649241 3.23596222 45.3636358 2.0528136 45.1233221 1.60043325 44.8029039 1.34988413 43.4596121 0.626075567 42.3710118 0.37088665 40.1219224 0.556478589 39.0189444 0.169055416 39.0990489 1.80458438 39.1976391 4.36807305 39.3393626 7.66001008 39.4400067 10.471728 39.4194671 10.770995 39.2982833 10.9496272 39.1380742 11.0401033 34.9787993 11.2442544 30.8380101 11.4275264 26.6992749 11.6084786 22.537946 11.7894307 18.3971568 11.9495038 14.2419899 12.0840579 10.1012007 12.244131 5.9419258 12.3786851 1.80113659 12.4923602 0.47427656 12.5387582 0.433197302 13.2440076 0.593406408 13.717267 0.798802698 14.1510882 0.878907251 14.5361914 0.979551433 15.1045668 1.10073524 15.3736751 1.21986509 15.6242242 1.32050927 15.8770932 1.48071838 16.8746499 2.08252951 18.4197028 2.24273862 19.5286146 2.42348735 20.004194 2.88562901 20.9831914 3.0684317 22.3658514 2.70488027 23.479403 2.22219899 24.5442368 2.08252951 25.7714635 2.56521079 27.4278715 2.68434064 28.3349521 2.80552445 28.8105315 2.80552445 29.1306776 2.7254199 29.4461839 2.50359191 29.9681612 2.42348735 30.3323854 2.80552445 32.2161436 2.94930185 32.6244458 3.04994604 33.0791461 2.80552445 35.0974584 2.84454975 36.3014861 3.00886678 37.3895189 3.34982462 38.4125945 4.23302867 40.5469018 4.47334233 41.6140554 4.79376054 42.5884131 5.47978415 43.3794987 5.21893086 44.087068 5.30108938 44.7435995 5.82074199 46.1517783 5.82074199 46.3350504 5.72215177 46.5368816 5.76117707 46.6737557 5.82074199 46.7201537 5.90290051 46.7433526 5.9419258 46.7874307 5.9809511 46.8570277 6.04256998 46.9683829 6.5231973 47.5344383 6.66286678 47.8986625 6.92372007 48.9194181 7.20511298 49.5109924 7.4700742 49.9424937 7.68984823 50.4389521 7.83157167 51.4852267 8.07188533 52.2786322 8.39230354 52.5291814 8.47240809 52.6637355 8.49294772 52.8678866 8.45392243 53.0279597 8.37381788 53.1648338 8.35327825 53.2785088 8.39230354 53.9814383 8.37381788 54.5498136 8.41284317 55.069471 8.61413153 55.5450504 8.63467116 55.9765516 8.35327825 57.4775264 8.35327825 58.0667809 8.47240809 58.2268539 8.63467116 58.407806 8.81336594 58.6560353 8.89552445 58.9529824 8.85444519 62.6741008 8.93454975 63.3329521 9.25496796 64.7388111 9.33507251 65.3512645 9.31658685 65.5786146 9.25496796 65.8291637 9.19540304 66.1237909 9.21594266 66.467136 9.51582125 67.6665239 9.55690051 68.2325793 9.45625632 70.1627355 9.51582125 70.5478388 9.61646543 70.8215869 9.88142664 71.2530882 9.9615312 71.6405113 9.9615312 71.8678615 9.88142664 71.8678615 10.0005565 71.9351385 10.2223845 72.0024156 10.4236728 72.1392897 10.6434469 72.2065668 10.7646307 72.3202418 10.8447352 72.501194 10.8241956 72.638068 10.7646307 72.7726222 10.6639865 73.2482015 10.4031332 73.6565038 10.3435683 73.9534509 10.4031332 74.9533275 10.3825936 75.2711537 10.3230287 75.4729849 10.1628196 75.9485642 10.1217403 76.2455113 10.2018449 76.7257305 10.5037774 77.7209673 10.583882 78.3774987 10.524317 79.03867 10.3230287 80.0594257 10.3825936 80.6927582 10.583882 81.1033804 11.2247184 81.9895819 11.3664418 82.5556373 11.5061113 83.6459899 11.5451366 84.2607632 11.4260067 84.8708967 11.5451366 85.0750479 11.8676088 85.4369521 11.9908465 85.6643023 12.0319258 85.8916524 12.0319258 86.1422015 12.0709511 86.4368287 12.2126745 86.7569748 13.3957572 88.6384131 14.0776728 89.4109395 14.3816594 89.9097179 14.5233828 90.5221713 14.5233828 92.4291285 14.5829477 93.0183829 14.6630523 93.3362091 14.7431568 93.5844383 15.2237841 94.3592846 15.2237841 94.5634358 15.1847589 94.7907859 15.1847589 95.1294912 15.2648634 95.2872443 15.4250725 96.3799169 15.4250725 96.7395013 15.3244283 97.5816247 15.1046543 98.2381562 15.1251939 98.9457254 15.564742 101.119471 15.4661518 101.441937 15.3860472 101.553292 15.3244283 101.711045 15.285403 101.847919 15.1642192 103.662081 15.0450894 104.163179 14.6630523 104.956584 14.1187521 106.43204 14.0365936 106.568914 13.8969241 106.793945 13.7161754 107.021295 13.1944688 107.499194 11.7875042 108.408594 11.5862159 108.610426 11.1651535 109.178801 10.4236728 109.770375 10.2614098 109.928128 10.1217403 110.109081 9.88142664 110.742413 9.82186172 111.378065 10.362054 112.106514 11.3664418 113.264144 11.7669646 113.920675 12.5330927 115.690758 12.9952344 116.556081 13.4162968 116.917985 14.9834705 117.052539 15.8276492 117.305408 16.4089207 117.734589 16.6328027 117.985139 17.11343 118.391121 17.3147184 118.597592 17.8754503 119.685625 18.0171737 119.982572 18.1178179 120.073048 18.1178179 120.096247 18.1568432 121.228358 18.5183406 134.233713 18.7237369 140.74799 19.4446779 166.870055 19.6459663 173.407531 26.196054 173.159302 32.7481956 172.887874 39.2982833 172.590927 45.8689106 172.29862 52.4169444 171.952955 58.967032 171.59105 65.5191737 171.205947 72.0692614 170.820844 78.621403 170.391662 85.1714907 169.934642 91.7236324 169.482262 98.2531804 168.981164 104.805322 168.482385 111.35541 167.939529 117.887012 167.394353 124.437099 166.802778 124.498718 166.099849 124.519258 165.714746 124.457639 165.329642 124.272782 164.580315 124.233757 164.172013 124.252243 163.239413 124.233757 162.923907 124.011929 162.1537 123.993444 161.877632 124.133113 160.244423 124.092034 159.678368 123.972904 159.109992 123.892799 158.836244 123.751076 158.632093 123.451197 158.293388 123.330013 158.089237 123.229369 157.861887 123.169804 157.613657 123.149265 157.339909 123.130779 156.476907 123.06916 155.794856 122.929491 155.071048 122.808307 154.750902 122.668637 154.479474 122.448863 154.249804 122.163363 154.09437 121.280159 153.820622 121.09941 153.435519 120.598243 152.846264 120.438034 152.435642 120.378469 152.208292 120.31685 152.02966 120.21826 151.869587 120.076536 151.732713 119.832115 151.619038 119.090634 151.619038 118.909885 151.57264 118.770216 151.507683 117.562486 150.598282 117.441302 150.554204 115.516739 150.711957 115.251777 150.667879 115.00941 150.531005 112.538492 148.463975 111.737447 148.148469 111.316384 147.603292 109.607487 144.564224 108.763309 143.221003 105.526263 140.476562 104.443825 140.135537 102.094091 139.884987 101.80859 139.771312 101.586762 139.546282 101.408067 139.228456 100.806256 137.98035 100.183906 137.251902 99.4773423 136.709045 98.7543474 136.479375 95.6425936 136.163869 94.734742 135.641892 94.6361518 135.484139 94.5355076 135.21039 94.3937841 134.962161 94.013801 134.732491 92.5452175 133.303433 91.2614907 132.556426 90.7007589 132.078526 91.4216998 130.171569 91.5018044 129.357285 91.4627791 128.990741 91.30257 128.060461 91.3415953 127.744955 91.5819089 127.220657 91.6435278 127.016506 91.4833187 125.768401 91.2204115 124.520295 90.6761113 123.225791 90.4953626 122.592458 90.7603238 122.274632 91.1423609 122.09136 91.3826745 121.662179 91.4627791 121.072924 91.4011602 120.414073 91.0006374 119.458275 90.8999933 119.300521 90.9205329 118.959496 91.0211771 118.323844 90.9616121 117.008461 91.0006374 116.460965 91.1423609 115.964506 91.4011602 115.579403 91.6825531 115.282456 91.9228668 114.920552 92.0029713 114.375375 92.0830759 113.693325 92.6047825 112.628491 92.6458617 112.106514 92.5246779 111.540458 92.2247993 111.106637 91.8427622 110.721534 91.4833187 110.266834 91.30257 109.860851 90.9410725 108.74498 90.7007589 108.315798 89.9346307 108.065249 88.9302428 108.155725 88.0840101 107.997972 87.6424081 106.998096 87.6629477 104.754753 87.704027 104.253655 87.8642361 103.889431 89.4519494 102.007992 89.9531164 101.096272 89.8134469 100.258788 90.4953626 98.6000605 91.0211771 97.8298539 91.6024486 97.4679496 91.9434064 97.3542746 92.9703879 96.5585491 93.4715548 96.4448741 93.6132782 96.3335189 93.7118685 96.1943249 93.9131568 95.7651436 93.9336965 95.6955466 93.9932614 95.6282695 94.1144452 95.4705164 94.2541147 95.3336423 94.4348634 95.2431662 95.2400169 95.1758892 95.5214098 94.994937 95.9034469 94.1992116 96.1848398 93.9045844 96.5237437 93.9045844 97.0269646 93.9718615 97.4726745 93.9718615 97.6513693 93.6981134 97.7129882 93.2898111 97.8937369 92.8815088 98.1340506 92.5428035 98.3743642 92.3154534 98.7358617 92.2017783 98.6947825 91.2482997 98.6557572 90.8167985 98.555113 88.9562393 98.3147993 85.232801 98.2141551 83.3722418 98.0929713 81.5116826 97.9923272 79.6743224 97.8731973 77.8114433 97.7725531 75.9485642 97.7314739 75.3152317 97.7725531 75.2015567 97.8526577 75.2247557 98.1340506 75.3152317 98.4955481 75.3152317 98.8159663 75.2711537 99.0973592 75.1574786 99.1959494 75.0878816 99.2575683 74.9742065 99.2965936 74.9069295 99.3376728 74.7723753 99.3766981 74.020728 99.3972378 73.8397758 99.4568027 73.6820227 99.5369073 73.5451486 99.6170118 73.4546725 99.7423035 73.3850756 100.042182 73.2714005 100.142826 73.1809244 100.204445 73.0672494 100.344115 72.568471 100.463245 72.2761637 100.765177 72.0024156 101.02603 71.8678615 100.945926 71.7286675 101.266344 70.7751889 102.112577 69.8240302 103.79888 68.4854484 104.885427 67.3278186 105.587882 67.0099924 106.715508 66.054194 107.658277 64.717932 108.278573 64.3537078 109.326094 63.3793501 109.426739 63.1937582 109.586948 62.7413778 109.687592 62.5836247 109.868341 62.4467506 110.129194 62.3121965 110.348968 62.1289244 110.429073 61.7902191 110.609821 61.4283149 111.938735 60.5629924 120.758452 48.8962191 121.923049 48.2164887 124.718492 44.9245516 129.461093 41.6813325 132.012115 40.5469018 132.954884 40.3172317 133.275302 40.1826776 134.02089 39.5934232 137.777589 37.9370151 144.025744 33.8052746 144.348216 33.4642494 144.892516 32.6685239 145.395737 32.3298186 145.675076 31.7637632 145.896904 31.6036902 146.478175 31.7637632 146.778054 31.7637632 146.942371 31.5804912"></polygon>
            </g>
        </g>
    </g>
</svg>