<?xml version="1.0" encoding="UTF-8"?>
<svg width="78px" height="153px" viewBox="0 0 78 153" version="1.1" xmlns="http://www.w3.org/2000/svg" xmlns:xlink="http://www.w3.org/1999/xlink">
    <!-- Generator: Sketch 51 (57462) - http://www.bohemiancoding.com/sketch -->
    <title>Mississippi</title>
    <desc>Created with Sketch.</desc>
    <defs></defs>
    <g id="Page-1" stroke="none" stroke-width="1" fill="none" fill-rule="evenodd">
        <g id="A5" transform="translate(-791.000000, -493.000000)">
            <g id="Mississippi" transform="translate(791.000000, 494.000000)">
                <path d="M62.4468904,146.417516 L62.2271164,146.962693 L61.6602226,147.213242 L60.4381147,147.280519 L60.4566003,147.48467 L61.2001349,147.370995 L61.5410927,147.461471 L61.7608668,147.753778 L61.9025902,147.528748 L62.1018246,147.730579 L62.0011804,147.872093 L61.8820506,148.053045 L61.801946,148.16672 L61.9025902,148.257196 L61.9621551,148.324474 L62.0422597,148.347673 L62.1429039,148.347673 L62.46743,147.394194 L62.5064553,147.053169 L62.46743,146.735343 L62.5064553,146.647186 L62.6481788,146.55439 L62.6070995,146.394317 L62.4468904,146.417516 L62.4468904,146.417516 Z M54.1673659,150.776607 L54.0461821,151.071234 L54.2474705,151.138511 L54.3686543,150.843884 L54.3070354,150.662932 L54.1673659,150.776607 L54.1673659,150.776607 Z M64.8377032,147.48467 L64.7986779,147.598345 L65.400489,147.438272 L65.7414469,147.280519 L65.4395143,147.303718 L64.8377032,147.48467 L64.8377032,147.48467 Z M75.645656,146.166967 L76.4323238,146.257443 L77.2539089,146.190166 L77.3935784,145.965136 L75.6045767,145.941937 L75.645656,146.166967 L75.645656,146.166967 Z M77.4942226,140.675766 L76.7322024,135.001292 L76.3316796,132.164055 L75.9496425,129.329139 L75.5655514,126.491902 L75.1835143,123.650025 L74.7829916,120.817428 L73.6389342,112.303398 L73.2548432,109.468481 L72.8728061,106.631244 L72.4722833,103.796327 L71.328226,95.2846171 L71.328226,94.2615416 L71.3487656,93.0134358 L71.3487656,91.3570277 L71.3693052,89.2923174 L71.3898449,86.861063 L71.4103845,84.0957431 L71.4288702,81.0311562 L71.4699494,74.1085768 L71.5089747,66.4157909 L71.5089747,62.3513275 L71.550054,58.1755088 L71.550054,53.9300932 L71.6096189,41.1776071 L71.6096189,37.0017884 L71.6301585,32.9373249 L71.6301585,29.0097355 L71.6506981,25.2422191 L71.6506981,21.6788539 L71.6691838,18.3451587 L71.6691838,2.50256675 L71.268661,2.50256675 L70.5025329,2.02698741 L69.9007218,1.20806297 L69.3790152,0.0272342569 L69.1797808,0.0504332494 L68.3725734,0.14090932 L65.5196189,0.481934509 L62.6481788,0.822959698 L59.7726307,1.16398489 L56.878597,1.50501008 L54.0071568,1.82283627 L51.1336627,2.13834257 L48.2581147,2.45616877 L45.3866745,2.77399496 L42.5131804,3.06862217 L39.6376324,3.38876826 L36.7641383,3.68107557 L33.8721585,3.97802267 L31.0007184,4.27264987 L28.1231164,4.56727708 L25.2516762,4.86190428 L22.3596965,5.13333249 L22.439801,5.27020655 L23.2018212,6.13320907 L23.2613862,7.40451385 L22.6000101,8.51574559 L21.612054,9.38106801 L19.2212411,10.7196499 L19.0014671,11.1488312 L19.1411366,11.6476096 L19.4471771,12.2391839 L19.5868465,12.7820403 L19.3013457,13.2158615 L19.120597,13.5104887 L18.6605093,13.7146398 L18.1593423,13.7355189 L17.7177403,13.4640907 L17.4363474,13.6009647 L17.1754941,14.2366171 L16.8715076,15.3478489 L16.7708634,16.6400327 L17.3357032,18.707063 L17.2966779,21.2937506 L17.3767825,22.3609043 L17.2761383,23.2471058 L16.6106543,24.1982645 L15.8280944,24.7898388 L15.3474671,25.061267 L14.4190759,25.2654181 L14.1582226,25.2654181 L13.9774739,25.1749421 L13.6775953,24.9475919 L13.5974907,25.130864 L13.5974907,25.4022922 L13.7186745,25.8337935 L13.9589882,26.3789698 L14.0185531,26.764073 L13.9589882,27.0146222 L13.6981349,27.6038766 L13.63857,27.9217028 L13.5584654,28.0585768 L13.3366374,28.0376977 L12.9546003,27.8753048 L12.6506138,27.9217028 L12.5109444,27.9889798 L12.4308398,28.1722519 L11.7283845,30.4851914 L11.4675312,30.7589395 L11.1265734,30.9398917 L10.0585126,31.8237733 L9.79765936,32.1671184 L9.87776391,33.027801 L11.5681754,33.7771285 L11.7078449,34.9324383 L11.4469916,35.5008136 L11.1060337,35.7745617 L10.6644317,35.8882368 L10.1386172,35.9346348 L9.63745025,36.0691889 L8.43382799,36.9113123 L7.26717707,37.3172947 L7.08642833,37.5446448 L7.20761214,37.9761461 L7.4479258,38.1594181 L7.74780438,38.2730932 L8.07027656,38.4308463 L8.49544688,39.245131 L8.23459359,39.9944584 L7.84844857,40.7229068 L8.07027656,41.7668615 L8.35372344,42.2215617 L8.53447218,42.7876171 L8.29415852,43.4696675 L8.07027656,43.5833426 L7.46846543,43.6738186 L7.22609781,43.7642947 L7.00632378,43.9684458 L6.58526138,44.5600202 L6.44559191,44.6713753 L6.26484317,44.8987254 L5.47817538,46.3254635 L5.07559865,46.6896877 L4.75518044,46.9402368 L4.71615514,47.2371839 L5.19678246,47.7127632 L6.16419899,48.1442645 L6.54418212,48.5084887 L6.68590556,49.2786952 L6.52569646,49.9143476 L6.16419899,50.2553728 L5.67946374,50.4131259 L5.13721754,50.4595239 L4.7962597,50.7077531 L4.93592917,51.2088514 L5.31796627,51.6844307 L5.69794941,51.8653829 L6.12311973,52.0045768 L6.60580101,52.3896801 L7.42738617,53.2039647 L7.4869511,53.751461 L7.56705565,54.6144635 L7.56705565,55.5192242 L7.4869511,56.1107985 L6.72493086,57.4493804 L6.52569646,58.1291108 L6.88513997,58.6974861 L7.14599325,58.7206851 L7.84844857,58.9480353 L8.1729747,59.1962645 L8.33318381,59.5581688 L8.45436762,61.0823426 L8.77478583,62.0775793 L8.87543002,62.5786776 L8.77478583,63.144733 L8.49544688,63.374403 L8.0291973,63.5553552 L7.60813491,63.8267834 L7.4479258,64.2118866 L7.54856998,67.3901486 L7.56705565,68.4132242 L7.72931872,68.6846524 L8.04973693,68.8888035 L8.43382799,69.0024786 L8.79532546,69.0256776 L9.09725801,69.1138338 L9.39713659,69.4107809 L9.87776391,69.9791562 L9.69701518,70.5220126 L9.41767622,71.0903879 L9.09725801,71.5427683 L8.83640472,71.7445995 L8.63511636,72.0879446 L8.37426307,73.5865995 L8.29415852,74.8138262 L8.37426307,75.2430076 L8.67414165,75.4680378 L9.81819899,75.5840327 L10.2392614,75.922738 L10.3809848,76.4470353 L10.0585126,77.1267657 L9.65798988,77.2868388 L9.03563912,77.3773149 L8.47490725,77.558267 L8.25307926,78.0106474 L8.35372344,78.6718186 L8.51393255,79.2378741 L8.73576054,79.7134534 L9.03563912,80.1240756 L9.27800675,80.3282267 L9.85927825,80.666932 L10.040027,80.8942821 L10.1201315,81.2353073 L10.0790523,81.6204106 L9.99894772,81.9614358 L9.95786847,82.2583829 L10.0194874,83.5064887 L10.1201315,84.005267 L10.424118,84.4089295 L11.2272175,84.8682695 L11.9481585,85.1396977 L12.5109444,85.6570353 L12.7943912,86.8401839 L12.97514,87.044335 L13.3571771,87.1812091 L14.1582226,87.2484861 L14.7004688,87.4317582 L14.8812175,87.8841385 L14.8421922,88.3156398 L14.6614435,88.4293149 L14.6799292,88.656665 L13.7371602,89.9047708 L13.1558887,91.9230831 L12.4698651,93.5354131 L11.2477572,93.5794912 L11.0464688,93.8555592 L10.9848499,94.1710655 L11.0053895,94.4633728 L11.0259292,94.6698438 L11.7879494,95.5096474 L11.8475143,96.623199 L11.4264519,97.7135516 L10.6438921,98.4837582 L9.95786847,98.8015844 L9.73809444,98.9825365 L9.57788533,99.2562846 L9.39713659,99.915136 L9.27800675,100.186564 L8.31469815,101.66202 L7.91006745,102.088882 L7.46846543,102.318552 L6.52569646,102.638698 L6.14365936,102.977403 L5.83967285,103.522579 L5.65892411,104.090955 L5.43709612,105.248584 L4.83528499,106.768118 L4.77572007,107.290096 L4.7962597,107.902549 L4.53540641,110.582033 L4.5744317,111.308161 L4.47584148,111.646866 L4.47584148,111.851018 L2.94563912,113.303275 L2.4650118,114.256753 L2.66630017,115.574456 L2.78543002,115.778607 L3.02574368,116.114992 L3.36875548,116.732086 L3.4283204,116.913038 L3.4283204,117.502292 L3.38724115,117.77604 L3.18800675,118.070668 L3.02574368,120.065781 L2.90661383,120.566879 L2.64576054,120.928783 L2.16513322,121.086537 L1.05804722,121.130615 L0.536340641,121.223411 L0.195382799,121.47628 L0.195382799,121.951859 L0.474721754,122.564312 L0.877298482,123.042212 L1.19771669,123.246363 L1.33738617,123.404116 L1.31890051,123.742821 L1.23674199,124.086166 L1.17717707,124.199841 L1.13815177,124.538547 L0.936863406,125.081403 L0.936863406,125.37835 L1.25728162,126.215834 L2.02340978,127.125234 L2.22469815,127.897761 L0.536340641,129.75832 L0.676010118,129.735121 L1.74201686,129.644645 L2.20415852,129.600567 L3.52896459,129.486892 L5.55827993,129.329139 L8.21405396,129.078589 L11.3463474,128.802521 L14.8421922,128.487015 L18.5804047,128.14831 L22.439801,127.786406 L26.2991973,127.417542 L30.0333019,127.034758 L33.5312007,126.696053 L36.6655481,126.378227 L39.2966745,126.104479 L41.3465295,125.900327 L42.6549039,125.763453 L43.1149916,125.719375 L44.1173255,125.628899 L44.9840978,125.515224 L45.084742,125.967605 L45.0251771,127.057957 L44.8033491,128.171509 L44.363801,129.350018 L44.1378651,131.1433 L43.6366981,131.983103 L43.476489,132.52596 L43.6572378,133.096655 L43.3162799,134.231086 L43.1950961,134.910816 L43.2156358,135.455992 L43.476489,135.887494 L43.8564722,136.314355 L44.0988398,136.817773 L43.8564722,137.474305 L44.583575,138.880164 L44.9656121,139.269907 L45.746118,139.518136 L46.1486948,139.789564 L46.5327858,140.698965 L47.2352411,141.151345 L47.6768432,141.923872 L47.7569477,142.128023 L47.795973,142.378572 L47.8165126,142.923748 L47.8575919,143.171977 L48.0568263,143.647557 L48.8044688,144.761108 L48.9646779,145.257567 L49.0242428,146.505673 L49.5459494,147.347796 L50.3880742,149.143398 L50.9734536,149.77673 L51.1336627,149.438025 L51.4150556,149.301151 L51.7169882,149.368428 L51.8977369,149.54938 L51.9367622,149.458904 L52.0969713,149.458904 L52.3578246,149.618977 L52.6987825,149.595778 L53.0192007,149.414826 L53.2040573,149.097 L53.4258853,149.277952 L53.4854503,149.345229 L53.3848061,149.528501 L53.5655548,149.730332 L53.8264081,149.438025 L53.9065126,149.210675 L53.9065126,148.960126 L53.9475919,148.619101 L54.2864958,148.029846 L54.3686543,147.70738 L54.1468263,147.324597 L56.157656,145.714587 L56.3568904,145.41996 L56.37743,145.055736 L56.3178651,144.466481 L56.1966813,144.376005 L55.6544351,144.422403 L55.434661,144.352806 L55.434661,144.104577 L55.6359494,143.761232 L55.9173423,143.466605 L56.157656,143.33205 L56.6588229,143.399327 L57.4619224,143.963063 L57.9055784,144.195053 L57.5810523,144.443282 L57.4003035,144.737909 L57.4804081,144.965259 L57.9055784,145.032537 L58.207511,144.965259 L59.6103676,144.285529 L61.0399258,143.670756 L62.6481788,142.856471 L63.0281619,142.761355 L63.3300944,142.64768 L64.0120101,142.151222 L64.3118887,141.993469 L65.7619865,141.900673 L66.4623879,141.742919 L66.8279933,141.311418 L63.9319056,141.197743 L63.9113659,140.993592 L64.293403,140.947194 L64.6179292,140.81264 L65.1601754,140.450736 L67.0888465,140.835839 L69.6994334,142.624481 L70.4224283,142.670879 L71.550054,142.399451 L72.5523879,141.812516 L72.9138853,140.993592 L73.0946341,140.970393 L73.1952782,141.311418 L73.540344,141.561967 L73.760118,142.174421 L73.9798921,142.308975 L74.2818246,142.332174 L74.5632175,142.288096 L75.204054,142.399451 L75.6703035,142.670879 L76.0913659,142.810073 L76.5925329,142.489927 L76.7322024,142.264897 L76.8123069,142.037547 L76.9334907,141.856594 L77.2333693,141.742919 L77.4551973,141.561967 L77.4551973,141.220942 L77.3935784,140.879917 L77.4757369,140.698965 L77.4942226,140.675766 L77.4942226,140.675766 Z M72.8543204,146.032413 L72.3120742,145.828262 L71.769828,145.510436 L70.9831602,145.443159 L70.22114,145.556834 L69.6604081,145.828262 L69.6604081,146.009214 L74.4030084,146.303841 L74.6227825,146.166967 L74.8035312,146.032413 L74.2818246,145.87466 L72.8543204,146.032413 L72.8543204,146.032413 Z M66.6041113,146.482474 L66.4829275,146.623987 L66.3227184,146.918615 L66.5240067,146.828139 L66.8875582,146.459275 L66.8690725,146.350239 L66.6041113,146.482474 L66.6041113,146.482474 Z" id="Fill-51" fill="#D6D6D6"></path>
                <path d="M62.4468904,146.417516 L62.2271164,146.962693 L61.6602226,147.213242 L60.4381147,147.280519 L60.4566003,147.48467 L61.2001349,147.370995 L61.5410927,147.461471 L61.7608668,147.753778 L61.9025902,147.528748 L62.1018246,147.730579 L62.0011804,147.872093 L61.8820506,148.053045 L61.801946,148.16672 L61.9025902,148.257196 L61.9621551,148.324474 L62.0422597,148.347673 L62.1429039,148.347673 L62.46743,147.394194 L62.5064553,147.053169 L62.46743,146.735343 L62.5064553,146.647186 L62.6481788,146.55439 L62.6070995,146.394317 L62.4468904,146.417516 L62.4468904,146.417516 Z M54.1673659,150.776607 L54.0461821,151.071234 L54.2474705,151.138511 L54.3686543,150.843884 L54.3070354,150.662932 L54.1673659,150.776607 L54.1673659,150.776607 Z M64.8377032,147.48467 L64.7986779,147.598345 L65.400489,147.438272 L65.7414469,147.280519 L65.4395143,147.303718 L64.8377032,147.48467 L64.8377032,147.48467 Z M75.645656,146.166967 L76.4323238,146.257443 L77.2539089,146.190166 L77.3935784,145.965136 L75.6045767,145.941937 L75.645656,146.166967 L75.645656,146.166967 Z M77.4942226,140.675766 L76.7322024,135.001292 L76.3316796,132.164055 L75.9496425,129.329139 L75.5655514,126.491902 L75.1835143,123.650025 L74.7829916,120.817428 L73.6389342,112.303398 L73.2548432,109.468481 L72.8728061,106.631244 L72.4722833,103.796327 L71.328226,95.2846171 L71.328226,94.2615416 L71.3487656,93.0134358 L71.3487656,91.3570277 L71.3693052,89.2923174 L71.3898449,86.861063 L71.4103845,84.0957431 L71.4288702,81.0311562 L71.4699494,74.1085768 L71.5089747,66.4157909 L71.5089747,62.3513275 L71.550054,58.1755088 L71.550054,53.9300932 L71.6096189,41.1776071 L71.6096189,37.0017884 L71.6301585,32.9373249 L71.6301585,29.0097355 L71.6506981,25.2422191 L71.6506981,21.6788539 L71.6691838,18.3451587 L71.6691838,2.50256675 L71.268661,2.50256675 L70.5025329,2.02698741 L69.9007218,1.20806297 L69.3790152,0.0272342569 L69.1797808,0.0504332494 L68.3725734,0.14090932 L65.5196189,0.481934509 L62.6481788,0.822959698 L59.7726307,1.16398489 L56.878597,1.50501008 L54.0071568,1.82283627 L51.1336627,2.13834257 L48.2581147,2.45616877 L45.3866745,2.77399496 L42.5131804,3.06862217 L39.6376324,3.38876826 L36.7641383,3.68107557 L33.8721585,3.97802267 L31.0007184,4.27264987 L28.1231164,4.56727708 L25.2516762,4.86190428 L22.3596965,5.13333249 L22.439801,5.27020655 L23.2018212,6.13320907 L23.2613862,7.40451385 L22.6000101,8.51574559 L21.612054,9.38106801 L19.2212411,10.7196499 L19.0014671,11.1488312 L19.1411366,11.6476096 L19.4471771,12.2391839 L19.5868465,12.7820403 L19.3013457,13.2158615 L19.120597,13.5104887 L18.6605093,13.7146398 L18.1593423,13.7355189 L17.7177403,13.4640907 L17.4363474,13.6009647 L17.1754941,14.2366171 L16.8715076,15.3478489 L16.7708634,16.6400327 L17.3357032,18.707063 L17.2966779,21.2937506 L17.3767825,22.3609043 L17.2761383,23.2471058 L16.6106543,24.1982645 L15.8280944,24.7898388 L15.3474671,25.061267 L14.4190759,25.2654181 L14.1582226,25.2654181 L13.9774739,25.1749421 L13.6775953,24.9475919 L13.5974907,25.130864 L13.5974907,25.4022922 L13.7186745,25.8337935 L13.9589882,26.3789698 L14.0185531,26.764073 L13.9589882,27.0146222 L13.6981349,27.6038766 L13.63857,27.9217028 L13.5584654,28.0585768 L13.3366374,28.0376977 L12.9546003,27.8753048 L12.6506138,27.9217028 L12.5109444,27.9889798 L12.4308398,28.1722519 L11.7283845,30.4851914 L11.4675312,30.7589395 L11.1265734,30.9398917 L10.0585126,31.8237733 L9.79765936,32.1671184 L9.87776391,33.027801 L11.5681754,33.7771285 L11.7078449,34.9324383 L11.4469916,35.5008136 L11.1060337,35.7745617 L10.6644317,35.8882368 L10.1386172,35.9346348 L9.63745025,36.0691889 L8.43382799,36.9113123 L7.26717707,37.3172947 L7.08642833,37.5446448 L7.20761214,37.9761461 L7.4479258,38.1594181 L7.74780438,38.2730932 L8.07027656,38.4308463 L8.49544688,39.245131 L8.23459359,39.9944584 L7.84844857,40.7229068 L8.07027656,41.7668615 L8.35372344,42.2215617 L8.53447218,42.7876171 L8.29415852,43.4696675 L8.07027656,43.5833426 L7.46846543,43.6738186 L7.22609781,43.7642947 L7.00632378,43.9684458 L6.58526138,44.5600202 L6.44559191,44.6713753 L6.26484317,44.8987254 L5.47817538,46.3254635 L5.07559865,46.6896877 L4.75518044,46.9402368 L4.71615514,47.2371839 L5.19678246,47.7127632 L6.16419899,48.1442645 L6.54418212,48.5084887 L6.68590556,49.2786952 L6.52569646,49.9143476 L6.16419899,50.2553728 L5.67946374,50.4131259 L5.13721754,50.4595239 L4.7962597,50.7077531 L4.93592917,51.2088514 L5.31796627,51.6844307 L5.69794941,51.8653829 L6.12311973,52.0045768 L6.60580101,52.3896801 L7.42738617,53.2039647 L7.4869511,53.751461 L7.56705565,54.6144635 L7.56705565,55.5192242 L7.4869511,56.1107985 L6.72493086,57.4493804 L6.52569646,58.1291108 L6.88513997,58.6974861 L7.14599325,58.7206851 L7.84844857,58.9480353 L8.1729747,59.1962645 L8.33318381,59.5581688 L8.45436762,61.0823426 L8.77478583,62.0775793 L8.87543002,62.5786776 L8.77478583,63.144733 L8.49544688,63.374403 L8.0291973,63.5553552 L7.60813491,63.8267834 L7.4479258,64.2118866 L7.54856998,67.3901486 L7.56705565,68.4132242 L7.72931872,68.6846524 L8.04973693,68.8888035 L8.43382799,69.0024786 L8.79532546,69.0256776 L9.09725801,69.1138338 L9.39713659,69.4107809 L9.87776391,69.9791562 L9.69701518,70.5220126 L9.41767622,71.0903879 L9.09725801,71.5427683 L8.83640472,71.7445995 L8.63511636,72.0879446 L8.37426307,73.5865995 L8.29415852,74.8138262 L8.37426307,75.2430076 L8.67414165,75.4680378 L9.81819899,75.5840327 L10.2392614,75.922738 L10.3809848,76.4470353 L10.0585126,77.1267657 L9.65798988,77.2868388 L9.03563912,77.3773149 L8.47490725,77.558267 L8.25307926,78.0106474 L8.35372344,78.6718186 L8.51393255,79.2378741 L8.73576054,79.7134534 L9.03563912,80.1240756 L9.27800675,80.3282267 L9.85927825,80.666932 L10.040027,80.8942821 L10.1201315,81.2353073 L10.0790523,81.6204106 L9.99894772,81.9614358 L9.95786847,82.2583829 L10.0194874,83.5064887 L10.1201315,84.005267 L10.424118,84.4089295 L11.2272175,84.8682695 L11.9481585,85.1396977 L12.5109444,85.6570353 L12.7943912,86.8401839 L12.97514,87.044335 L13.3571771,87.1812091 L14.1582226,87.2484861 L14.7004688,87.4317582 L14.8812175,87.8841385 L14.8421922,88.3156398 L14.6614435,88.4293149 L14.6799292,88.656665 L13.7371602,89.9047708 L13.1558887,91.9230831 L12.4698651,93.5354131 L11.2477572,93.5794912 L11.0464688,93.8555592 L10.9848499,94.1710655 L11.0053895,94.4633728 L11.0259292,94.6698438 L11.7879494,95.5096474 L11.8475143,96.623199 L11.4264519,97.7135516 L10.6438921,98.4837582 L9.95786847,98.8015844 L9.73809444,98.9825365 L9.57788533,99.2562846 L9.39713659,99.915136 L9.27800675,100.186564 L8.31469815,101.66202 L7.91006745,102.088882 L7.46846543,102.318552 L6.52569646,102.638698 L6.14365936,102.977403 L5.83967285,103.522579 L5.65892411,104.090955 L5.43709612,105.248584 L4.83528499,106.768118 L4.77572007,107.290096 L4.7962597,107.902549 L4.53540641,110.582033 L4.5744317,111.308161 L4.47584148,111.646866 L4.47584148,111.851018 L2.94563912,113.303275 L2.4650118,114.256753 L2.66630017,115.574456 L2.78543002,115.778607 L3.02574368,116.114992 L3.36875548,116.732086 L3.4283204,116.913038 L3.4283204,117.502292 L3.38724115,117.77604 L3.18800675,118.070668 L3.02574368,120.065781 L2.90661383,120.566879 L2.64576054,120.928783 L2.16513322,121.086537 L1.05804722,121.130615 L0.536340641,121.223411 L0.195382799,121.47628 L0.195382799,121.951859 L0.474721754,122.564312 L0.877298482,123.042212 L1.19771669,123.246363 L1.33738617,123.404116 L1.31890051,123.742821 L1.23674199,124.086166 L1.17717707,124.199841 L1.13815177,124.538547 L0.936863406,125.081403 L0.936863406,125.37835 L1.25728162,126.215834 L2.02340978,127.125234 L2.22469815,127.897761 L0.536340641,129.75832 L0.676010118,129.735121 L1.74201686,129.644645 L2.20415852,129.600567 L3.52896459,129.486892 L5.55827993,129.329139 L8.21405396,129.078589 L11.3463474,128.802521 L14.8421922,128.487015 L18.5804047,128.14831 L22.439801,127.786406 L26.2991973,127.417542 L30.0333019,127.034758 L33.5312007,126.696053 L36.6655481,126.378227 L39.2966745,126.104479 L41.3465295,125.900327 L42.6549039,125.763453 L43.1149916,125.719375 L44.1173255,125.628899 L44.9840978,125.515224 L45.084742,125.967605 L45.0251771,127.057957 L44.8033491,128.171509 L44.363801,129.350018 L44.1378651,131.1433 L43.6366981,131.983103 L43.476489,132.52596 L43.6572378,133.096655 L43.3162799,134.231086 L43.1950961,134.910816 L43.2156358,135.455992 L43.476489,135.887494 L43.8564722,136.314355 L44.0988398,136.817773 L43.8564722,137.474305 L44.583575,138.880164 L44.9656121,139.269907 L45.746118,139.518136 L46.1486948,139.789564 L46.5327858,140.698965 L47.2352411,141.151345 L47.6768432,141.923872 L47.7569477,142.128023 L47.795973,142.378572 L47.8165126,142.923748 L47.8575919,143.171977 L48.0568263,143.647557 L48.8044688,144.761108 L48.9646779,145.257567 L49.0242428,146.505673 L49.5459494,147.347796 L50.3880742,149.143398 L50.9734536,149.77673 L51.1336627,149.438025 L51.4150556,149.301151 L51.7169882,149.368428 L51.8977369,149.54938 L51.9367622,149.458904 L52.0969713,149.458904 L52.3578246,149.618977 L52.6987825,149.595778 L53.0192007,149.414826 L53.2040573,149.097 L53.4258853,149.277952 L53.4854503,149.345229 L53.3848061,149.528501 L53.5655548,149.730332 L53.8264081,149.438025 L53.9065126,149.210675 L53.9065126,148.960126 L53.9475919,148.619101 L54.2864958,148.029846 L54.3686543,147.70738 L54.1468263,147.324597 L56.157656,145.714587 L56.3568904,145.41996 L56.37743,145.055736 L56.3178651,144.466481 L56.1966813,144.376005 L55.6544351,144.422403 L55.434661,144.352806 L55.434661,144.104577 L55.6359494,143.761232 L55.9173423,143.466605 L56.157656,143.33205 L56.6588229,143.399327 L57.4619224,143.963063 L57.9055784,144.195053 L57.5810523,144.443282 L57.4003035,144.737909 L57.4804081,144.965259 L57.9055784,145.032537 L58.207511,144.965259 L59.6103676,144.285529 L61.0399258,143.670756 L62.6481788,142.856471 L63.0281619,142.761355 L63.3300944,142.64768 L64.0120101,142.151222 L64.3118887,141.993469 L65.7619865,141.900673 L66.4623879,141.742919 L66.8279933,141.311418 L63.9319056,141.197743 L63.9113659,140.993592 L64.293403,140.947194 L64.6179292,140.81264 L65.1601754,140.450736 L67.0888465,140.835839 L69.6994334,142.624481 L70.4224283,142.670879 L71.550054,142.399451 L72.5523879,141.812516 L72.9138853,140.993592 L73.0946341,140.970393 L73.1952782,141.311418 L73.540344,141.561967 L73.760118,142.174421 L73.9798921,142.308975 L74.2818246,142.332174 L74.5632175,142.288096 L75.204054,142.399451 L75.6703035,142.670879 L76.0913659,142.810073 L76.5925329,142.489927 L76.7322024,142.264897 L76.8123069,142.037547 L76.9334907,141.856594 L77.2333693,141.742919 L77.4551973,141.561967 L77.4551973,141.220942 L77.3935784,140.879917 L77.4757369,140.698965 L77.4942226,140.675766 L77.4942226,140.675766 Z M72.8543204,146.032413 L72.3120742,145.828262 L71.769828,145.510436 L70.9831602,145.443159 L70.22114,145.556834 L69.6604081,145.828262 L69.6604081,146.009214 L74.4030084,146.303841 L74.6227825,146.166967 L74.8035312,146.032413 L74.2818246,145.87466 L72.8543204,146.032413 L72.8543204,146.032413 Z M66.6041113,146.482474 L66.4829275,146.623987 L66.3227184,146.918615 L66.5240067,146.828139 L66.8875582,146.459275 L66.8690725,146.350239 L66.6041113,146.482474 L66.6041113,146.482474 Z" id="Stroke-52" stroke="#F9F9F9" stroke-width="0.25" stroke-linecap="round" stroke-linejoin="round"></path>
            </g>
        </g>
    </g>
</svg>