<?xml version="1.0" encoding="UTF-8"?>
<svg width="129px" height="92px" viewBox="0 0 129 92" version="1.1" xmlns="http://www.w3.org/2000/svg" xmlns:xlink="http://www.w3.org/1999/xlink">
    <!-- Generator: Sketch 51 (57462) - http://www.bohemiancoding.com/sketch -->
    <title>Pennsylvania</title>
    <desc>Created with Sketch.</desc>
    <defs></defs>
    <g id="Page-1" stroke="none" stroke-width="1" fill="none" fill-rule="evenodd">
        <g id="A5" transform="translate(-995.000000, -234.000000)">
            <g id="Pennsylvania" transform="translate(996.000000, 234.000000)">
                <polygon id="Fill-25" fill="#D6D6D6" points="126.565325 49.7956448 125.281599 49.0463174 124.453852 48.341068 123.552162 47.4363073 123.451518 47.2762343 123.190664 47.051204 121.923369 46.2786776 121.401663 45.2115239 121.040165 44.7800227 120.315116 45.3228791 119.79341 45.0978489 119.292243 44.5990705 118.969771 44.0979723 118.36796 41.8499899 117.842145 41.1702594 116.739167 41.0589043 116.157895 41.3512116 115.878556 41.2839345 115.551976 40.5114081 115.412307 40.2399798 115.311663 39.9221537 115.352742 39.6066474 115.091889 38.6972469 115.050809 38.4234987 115.071349 38.1729496 114.93168 37.9015214 114.789956 37.5628161 114.789956 37.1313149 114.8906 36.2242343 114.831035 36.2242343 114.709852 36.0409622 114.629747 35.7904131 114.709852 35.653539 114.831035 35.5189849 114.93168 35.2475567 115.011784 34.7023804 115.432847 34.8160554 115.81283 34.6583023 116.098331 34.2708791 116.11887 33.7048237 116.098331 32.9531763 116.279079 32.614471 116.519393 32.3198438 116.620037 31.7746675 116.439288 31.2294912 116.038766 30.7979899 115.632081 30.4801637 115.432847 30.2760126 115.352742 30.0950605 115.272637 30.0277834 115.130914 30.0277834 115.011784 30.0509824 114.93168 30.0277834 114.91114 29.9141083 114.91114 29.7772343 114.870061 29.6635592 114.549642 29.3712519 114.389433 29.1647809 114.309329 28.9606297 114.428459 28.4386524 114.789956 27.8702771 115.192533 27.3946977 115.453386 27.1673476 115.878556 26.9191184 116.198975 26.4876171 116.780246 25.1235164 116.860351 25.0562393 116.839811 24.9889622 116.759707 24.6270579 116.819272 24.4669849 116.981535 24.2396348 117.160229 24.0563627 117.281413 23.9473275 117.503241 23.6503804 118.24883 21.8130202 118.450118 20.4025214 118.489143 19.5186398 118.450118 19.3168086 118.530223 18.8853073 119.390833 17.4748086 119.411373 17.3843325 119.452452 17.0688262 119.491477 16.9319521 119.571582 16.8182771 119.79341 16.751 120.013184 16.4099748 120.193933 16.2731008 120.639642 16.1153476 120.9806 15.7302443 120.960061 15.6838463 120.740287 15.115471 120.294577 14.5726146 120.054263 14.3452645 119.79341 13.9114433 119.651686 13.7096121 119.472992 13.6400151 119.271703 13.7792091 119.090954 13.9346423 118.869126 13.9810403 118.569248 13.7792091 118.107106 13.6168161 117.141744 13.9578413 116.640577 13.9578413 116.299619 13.7560101 116.038766 13.482262 115.712185 13.2781108 114.769417 13.2549118 114.348354 13.0043627 114.007396 12.6192594 112.499788 10.4849521 112.179369 10.280801 112.058185 9.9861738 111.877437 8.44344081 111.758307 7.82866751 111.250978 6.81023174 111.271518 6.51328463 111.497454 6.19777834 111.497454 5.89851134 111.271518 5.28837783 110.971639 5.0842267 110.610142 5.03782872 110.129514 4.88007557 110.470472 4.13306801 110.491012 3.83612091 110.209619 3.78972292 110.008331 3.72476574 109.607808 3.2445466 109.022428 3.17726952 108.480182 2.88032242 108.219329 2.83624433 107.155376 3.33502267 106.750745 3.13319144 106.510432 2.51841814 106.329683 1.79460957 106.089369 1.29351134 105.606688 1.06616121 104.926826 0.90840806 104.359933 0.636979849 104.279828 0.226357683 104.039514 0.293634761 103.597912 0.407309824 100.866142 1.0916801 98.1549106 1.79460957 95.419032 2.47434005 92.6852074 3.15639043 89.9534368 3.83612091 87.2422057 4.49497229 84.5104351 5.17470277 81.7745565 5.83123426 79.0427858 6.49008564 76.3110152 7.14893703 73.5792445 7.80778841 70.8433659 8.4666398 68.1115953 9.09997229 65.3798246 9.75882368 62.648054 10.3944761 59.9142293 11.0301285 57.1598651 11.6681008 54.4280944 12.2782343 51.6963238 12.9138866 48.9624992 13.5263401 46.2101889 14.1387935 43.4763642 14.7535668 40.7425396 15.3637003 37.9922833 15.9529547 35.2605126 16.567728 32.5040944 17.1593023 29.7723238 17.7717557 27.0200135 18.3610101 24.2882428 18.9317053 21.5359325 19.5186398 18.7795143 20.0846952 16.0477437 20.6739496 15.3062631 20.8363426 15.146054 19.813267 15.0043305 18.9734635 14.7249916 17.2497783 14.5791602 16.3890957 14.4394907 15.5237733 14.1580978 13.8000882 14.0184283 12.9579647 13.9978887 12.8906877 11.6461012 14.5726146 10.8840809 15.4541763 10.0974132 15.9297557 9.33539292 16.9551511 8.53434739 17.4748086 7.64703541 18.3818892 7.18489376 18.6556373 7.14586847 18.4282872 7.24651265 18.270534 7.44574705 17.8390327 7.52790556 17.7253577 8.03318044 17.6116826 8.21392917 17.4539295 8.37413828 17.1593023 7.891457 17.0456272 7.54639123 17.3634534 7.28553794 17.8158338 6.82545025 18.270534 6.68372681 18.9966625 6.48449241 19.2031335 6.32428331 19.2936096 5.82311636 19.9501411 2.80584486 22.6737028 1.58168297 23.2165592 1.30029005 23.4879874 1.03532884 23.8545315 0.074074199 24.4229068 0.454057336 26.7590453 1.42147386 32.9763753 2.40326813 39.1751461 2.88594941 42.2838111 3.39122428 45.3924761 4.35453288 51.609806 4.85569983 54.6999118 5.33632715 57.8294559 5.84160202 60.9381209 6.32428331 64.0491058 6.32428331 64.1395819 6.34276897 64.1395819 6.34276897 64.1836599 7.08630354 68.9510529 7.84832378 73.7161259 8.23241484 76.0986625 8.61445194 78.4835189 8.97594941 80.8660554 9.35593255 83.2717909 9.67635076 85.3388212 10.0173086 87.4035315 10.6643069 91.5538312 13.3755379 91.0109748 16.0682833 90.4657985 18.7795143 89.8997431 21.4763676 89.3545668 24.1875987 88.7861914 26.8782901 88.220136 29.5710354 87.6540806 32.2822664 87.0833854 34.6730793 86.5846071 37.0454064 86.0626297 39.4403272 85.5638514 41.83114 85.044194 44.2219528 84.5198967 46.6127656 83.9955995 49.0035784 83.4759421 51.3943912 82.9539647 53.785204 82.4343073 56.1554772 81.8868111 58.5462901 81.3416348 60.9391568 80.8196574 63.30943 80.276801 65.7002428 79.7316247 68.0910556 79.1864484 70.4613288 78.641272 72.8521417 78.0752166 75.2429545 77.5300403 77.6193895 76.961665 80.0102024 76.3932897 82.3804755 75.8272343 84.7712884 75.2843778 87.1415616 74.6951234 89.5138887 74.1267481 91.9047015 73.5560529 94.2749747 72.9691184 96.6657875 72.4007431 101.408388 71.2175945 103.778661 70.6306599 106.169474 70.0414055 108.539747 69.4498312 108.699956 69.4266322 108.720496 69.3593552 109.022428 68.4081965 109.305875 67.475597 109.626293 66.4316423 109.928226 65.9305441 110.310263 65.4781637 110.651221 65.1835365 111.271518 64.7984332 111.717228 64.5942821 112.620971 64.320534 113.627413 64.2300579 114.428459 64.320534 115.112428 64.5710831 115.512951 64.8216322 115.531437 64.8448312 115.917582 63.9145516 116.198975 63.6616826 116.558418 63.4807305 117.681936 62.4599748 118.20775 62.5736499 118.690432 62.3462997 119.431912 61.5969723 120.559538 60.7780479 120.799852 60.3952645 120.559538 59.8060101 120.538998 59.1239597 120.699207 58.5091864 121.019626 58.2145592 121.440688 57.943131 121.982934 57.1056474 122.424536 56.7623023 123.071535 56.193927 123.291309 55.9224987 123.89312 54.7207909 124.153973 54.4052846 124.879022 53.9250655 125.059771 53.7673123 125.641042 52.8811108 125.801251 52.7001587 126.304472 52.4960076 126.924769 52.0668262 127.430044 51.51933 127.571767 50.8604786 127.21027 50.2944232"></polygon>
                <polygon id="Stroke-26" stroke="#F9F9F9" stroke-width="0.25" stroke-linecap="round" stroke-linejoin="round" points="126.565325 49.7956448 125.281599 49.0463174 124.453852 48.341068 123.552162 47.4363073 123.451518 47.2762343 123.190664 47.051204 121.923369 46.2786776 121.401663 45.2115239 121.040165 44.7800227 120.315116 45.3228791 119.79341 45.0978489 119.292243 44.5990705 118.969771 44.0979723 118.36796 41.8499899 117.842145 41.1702594 116.739167 41.0589043 116.157895 41.3512116 115.878556 41.2839345 115.551976 40.5114081 115.412307 40.2399798 115.311663 39.9221537 115.352742 39.6066474 115.091889 38.6972469 115.050809 38.4234987 115.071349 38.1729496 114.93168 37.9015214 114.789956 37.5628161 114.789956 37.1313149 114.8906 36.2242343 114.831035 36.2242343 114.709852 36.0409622 114.629747 35.7904131 114.709852 35.653539 114.831035 35.5189849 114.93168 35.2475567 115.011784 34.7023804 115.432847 34.8160554 115.81283 34.6583023 116.098331 34.2708791 116.11887 33.7048237 116.098331 32.9531763 116.279079 32.614471 116.519393 32.3198438 116.620037 31.7746675 116.439288 31.2294912 116.038766 30.7979899 115.632081 30.4801637 115.432847 30.2760126 115.352742 30.0950605 115.272637 30.0277834 115.130914 30.0277834 115.011784 30.0509824 114.93168 30.0277834 114.91114 29.9141083 114.91114 29.7772343 114.870061 29.6635592 114.549642 29.3712519 114.389433 29.1647809 114.309329 28.9606297 114.428459 28.4386524 114.789956 27.8702771 115.192533 27.3946977 115.453386 27.1673476 115.878556 26.9191184 116.198975 26.4876171 116.780246 25.1235164 116.860351 25.0562393 116.839811 24.9889622 116.759707 24.6270579 116.819272 24.4669849 116.981535 24.2396348 117.160229 24.0563627 117.281413 23.9473275 117.503241 23.6503804 118.24883 21.8130202 118.450118 20.4025214 118.489143 19.5186398 118.450118 19.3168086 118.530223 18.8853073 119.390833 17.4748086 119.411373 17.3843325 119.452452 17.0688262 119.491477 16.9319521 119.571582 16.8182771 119.79341 16.751 120.013184 16.4099748 120.193933 16.2731008 120.639642 16.1153476 120.9806 15.7302443 120.960061 15.6838463 120.740287 15.115471 120.294577 14.5726146 120.054263 14.3452645 119.79341 13.9114433 119.651686 13.7096121 119.472992 13.6400151 119.271703 13.7792091 119.090954 13.9346423 118.869126 13.9810403 118.569248 13.7792091 118.107106 13.6168161 117.141744 13.9578413 116.640577 13.9578413 116.299619 13.7560101 116.038766 13.482262 115.712185 13.2781108 114.769417 13.2549118 114.348354 13.0043627 114.007396 12.6192594 112.499788 10.4849521 112.179369 10.280801 112.058185 9.9861738 111.877437 8.44344081 111.758307 7.82866751 111.250978 6.81023174 111.271518 6.51328463 111.497454 6.19777834 111.497454 5.89851134 111.271518 5.28837783 110.971639 5.0842267 110.610142 5.03782872 110.129514 4.88007557 110.470472 4.13306801 110.491012 3.83612091 110.209619 3.78972292 110.008331 3.72476574 109.607808 3.2445466 109.022428 3.17726952 108.480182 2.88032242 108.219329 2.83624433 107.155376 3.33502267 106.750745 3.13319144 106.510432 2.51841814 106.329683 1.79460957 106.089369 1.29351134 105.606688 1.06616121 104.926826 0.90840806 104.359933 0.636979849 104.279828 0.226357683 104.039514 0.293634761 103.597912 0.407309824 100.866142 1.0916801 98.1549106 1.79460957 95.419032 2.47434005 92.6852074 3.15639043 89.9534368 3.83612091 87.2422057 4.49497229 84.5104351 5.17470277 81.7745565 5.83123426 79.0427858 6.49008564 76.3110152 7.14893703 73.5792445 7.80778841 70.8433659 8.4666398 68.1115953 9.09997229 65.3798246 9.75882368 62.648054 10.3944761 59.9142293 11.0301285 57.1598651 11.6681008 54.4280944 12.2782343 51.6963238 12.9138866 48.9624992 13.5263401 46.2101889 14.1387935 43.4763642 14.7535668 40.7425396 15.3637003 37.9922833 15.9529547 35.2605126 16.567728 32.5040944 17.1593023 29.7723238 17.7717557 27.0200135 18.3610101 24.2882428 18.9317053 21.5359325 19.5186398 18.7795143 20.0846952 16.0477437 20.6739496 15.3062631 20.8363426 15.146054 19.813267 15.0043305 18.9734635 14.7249916 17.2497783 14.5791602 16.3890957 14.4394907 15.5237733 14.1580978 13.8000882 14.0184283 12.9579647 13.9978887 12.8906877 11.6461012 14.5726146 10.8840809 15.4541763 10.0974132 15.9297557 9.33539292 16.9551511 8.53434739 17.4748086 7.64703541 18.3818892 7.18489376 18.6556373 7.14586847 18.4282872 7.24651265 18.270534 7.44574705 17.8390327 7.52790556 17.7253577 8.03318044 17.6116826 8.21392917 17.4539295 8.37413828 17.1593023 7.891457 17.0456272 7.54639123 17.3634534 7.28553794 17.8158338 6.82545025 18.270534 6.68372681 18.9966625 6.48449241 19.2031335 6.32428331 19.2936096 5.82311636 19.9501411 2.80584486 22.6737028 1.58168297 23.2165592 1.30029005 23.4879874 1.03532884 23.8545315 0.074074199 24.4229068 0.454057336 26.7590453 1.42147386 32.9763753 2.40326813 39.1751461 2.88594941 42.2838111 3.39122428 45.3924761 4.35453288 51.609806 4.85569983 54.6999118 5.33632715 57.8294559 5.84160202 60.9381209 6.32428331 64.0491058 6.32428331 64.1395819 6.34276897 64.1395819 6.34276897 64.1836599 7.08630354 68.9510529 7.84832378 73.7161259 8.23241484 76.0986625 8.61445194 78.4835189 8.97594941 80.8660554 9.35593255 83.2717909 9.67635076 85.3388212 10.0173086 87.4035315 10.6643069 91.5538312 13.3755379 91.0109748 16.0682833 90.4657985 18.7795143 89.8997431 21.4763676 89.3545668 24.1875987 88.7861914 26.8782901 88.220136 29.5710354 87.6540806 32.2822664 87.0833854 34.6730793 86.5846071 37.0454064 86.0626297 39.4403272 85.5638514 41.83114 85.044194 44.2219528 84.5198967 46.6127656 83.9955995 49.0035784 83.4759421 51.3943912 82.9539647 53.785204 82.4343073 56.1554772 81.8868111 58.5462901 81.3416348 60.9391568 80.8196574 63.30943 80.276801 65.7002428 79.7316247 68.0910556 79.1864484 70.4613288 78.641272 72.8521417 78.0752166 75.2429545 77.5300403 77.6193895 76.961665 80.0102024 76.3932897 82.3804755 75.8272343 84.7712884 75.2843778 87.1415616 74.6951234 89.5138887 74.1267481 91.9047015 73.5560529 94.2749747 72.9691184 96.6657875 72.4007431 101.408388 71.2175945 103.778661 70.6306599 106.169474 70.0414055 108.539747 69.4498312 108.699956 69.4266322 108.720496 69.3593552 109.022428 68.4081965 109.305875 67.475597 109.626293 66.4316423 109.928226 65.9305441 110.310263 65.4781637 110.651221 65.1835365 111.271518 64.7984332 111.717228 64.5942821 112.620971 64.320534 113.627413 64.2300579 114.428459 64.320534 115.112428 64.5710831 115.512951 64.8216322 115.531437 64.8448312 115.917582 63.9145516 116.198975 63.6616826 116.558418 63.4807305 117.681936 62.4599748 118.20775 62.5736499 118.690432 62.3462997 119.431912 61.5969723 120.559538 60.7780479 120.799852 60.3952645 120.559538 59.8060101 120.538998 59.1239597 120.699207 58.5091864 121.019626 58.2145592 121.440688 57.943131 121.982934 57.1056474 122.424536 56.7623023 123.071535 56.193927 123.291309 55.9224987 123.89312 54.7207909 124.153973 54.4052846 124.879022 53.9250655 125.059771 53.7673123 125.641042 52.8811108 125.801251 52.7001587 126.304472 52.4960076 126.924769 52.0668262 127.430044 51.51933 127.571767 50.8604786 127.21027 50.2944232"></polygon>
            </g>
        </g>
    </g>
</svg>