<?xml version="1.0" encoding="UTF-8"?>
<svg width="184px" height="77px" viewBox="0 0 184 77" version="1.1" xmlns="http://www.w3.org/2000/svg" xmlns:xlink="http://www.w3.org/1999/xlink">
    <!-- Generator: Sketch 51 (57462) - http://www.bohemiancoding.com/sketch -->
    <title>Tennessee</title>
    <desc>Created with Sketch.</desc>
    <defs></defs>
    <g id="Page-1" stroke="none" stroke-width="1" fill="none" fill-rule="evenodd">
        <g id="A5" transform="translate(-813.000000, -423.000000)">
            <g id="Tennessee" transform="translate(813.000000, 423.000000)">
                <polygon id="Fill-17" fill="#D6D6D6" points="140.493369 8.22756171 142.744513 7.86565743 144.995656 7.50375315 147.244745 7.13952897 149.495889 6.75442569 151.747032 6.39020151 153.996121 6.00277834 156.247265 5.61767506 158.498408 5.23257179 160.747497 4.84746851 162.998641 4.46236524 165.249784 4.07494207 167.500927 3.68983879 169.731531 3.27921662 171.980621 2.89411335 174.231764 2.48581108 176.482907 2.10070781 177.528374 1.89655668 177.688583 1.78520151 178.09116 1.23770529 178.271909 1.14722922 178.452658 1.10315113 179.939727 0.896680101 181.7657 0.625251889 183.795015 0.330624685 183.053535 2.41853401 182.95289 3.07506549 183.012455 3.21193955 183.433518 3.87079093 183.474597 4.14221914 183.293848 5.32304786 182.932351 6.68482872 182.893325 6.98177582 182.893325 7.18592695 182.95289 7.29960202 183.252769 7.77518136 183.614266 8.18116373 183.694371 8.31803778 183.774476 8.45491184 183.73545 8.5685869 183.634806 8.61498489 182.95289 8.63818388 181.74516 8.40851385 181.644516 8.43171285 181.545926 8.49898992 180.040371 10.0904408 179.535096 10.7469723 179.454992 10.8815264 177.969976 15.9203476 177.830307 16.2172947 177.649558 16.4678438 177.44827 16.625597 177.144283 17.0362191 176.963535 17.2403703 176.782786 17.3517254 176.643116 17.3981234 176.462368 17.3981234 176.12141 17.3517254 175.961201 17.3076474 175.720887 17.1707733 175.620243 17.0594181 175.558624 16.9457431 175.519599 16.808869 175.478519 16.648796 175.418954 16.5119219 175.35939 16.3982469 175.279285 16.3077708 175.178641 16.2404937 175.053349 16.1940957 174.91368 16.1940957 174.611747 16.2404937 174.451538 16.2404937 174.332408 16.1940957 174.11058 16.0572217 173.99145 16.0340227 173.911346 16.0572217 173.790162 16.1012997 173.570388 16.2636927 172.968577 16.9457431 172.863825 17.0362191 172.401683 17.1034962 172.220934 17.1498942 171.719767 17.5558766 170.998826 17.9201008 170.797538 18.0546549 170.473012 18.328403 170.132054 18.7367053 169.509703 19.7597809 169.328954 20.1448841 169.148206 20.9150907 169.088641 21.1192418 168.768223 21.7780932 168.626499 22.0054433 168.507369 22.1655164 168.427265 22.2559924 168.343052 22.3232695 167.439309 23.2071511 167.25856 23.3440252 167.11889 23.4113023 166.979221 23.4345013 166.837497 23.4113023 166.697828 23.3649043 166.576644 23.2976272 166.457514 23.1839521 166.37741 23.0934761 166.297305 22.979801 166.112449 22.5946977 166.071369 22.4369446 166.05083 22.2559924 166.071369 22.0286423 166.135042 21.6180202 166.155582 21.483466 166.135042 21.3929899 166.091909 21.3257128 165.650307 20.8014156 165.549663 20.7341385 165.389454 20.7109395 165.190219 20.8014156 164.24745 21.5739421 163.740121 21.8940882 162.378344 23.0702771 162.357804 23.1166751 162.316725 23.2071511 162.316725 23.3208262 162.378344 23.7523275 162.357804 23.9124005 162.316725 24.0469547 162.096951 24.4111788 162.037386 24.684927 162.016847 24.8658791 161.916202 25.1141083 161.795019 25.2277834 161.655349 25.2950605 161.530057 25.2741814 161.269204 25.0932292 160.948786 24.8890781 160.648907 24.798602 160.447619 24.775403 160.227845 24.8194811 159.905373 24.9563552 159.745164 25.0932292 159.626034 25.2277834 159.545929 25.4992116 159.50485 25.6801637 159.50485 25.8611159 159.52539 26.0211889 159.564415 26.1789421 159.626034 26.318136 159.886887 26.7705164 159.905373 26.9329093 159.866347 27.1138615 159.665059 27.5198438 159.626034 27.6567179 159.626034 27.9745441 159.605494 28.1322972 159.52539 28.4269244 159.100219 29.4291209 158.658617 30.2666045 158.498408 30.4243577 158.377224 30.4939547 158.036266 30.4475567 157.109929 30.5148338 156.849076 30.4707557 156.729946 30.5148338 156.629302 30.5844307 155.565349 31.4474332 154.838246 31.8325365 154.678037 31.9485315 154.558907 32.0598866 154.117305 32.7628161 153.916017 32.9437683 153.39431 33.2847935 153.234101 33.3984685 153.135511 33.5330227 153.073892 33.6698967 152.673369 34.261471 152.328304 35.0339975 152.18658 35.1244736 152.026371 35.1685516 151.866162 35.1453526 151.666927 35.1685516 151.445099 35.2590277 151.264351 35.3959018 150.985012 35.804204 150.783723 36.1429093 150.54341 36.4398564 149.436324 37.2123829 149.255575 37.393335 149.134391 37.5534081 148.953642 37.9153123 148.53258 38.5277657 148.392911 38.6855189 148.271727 38.775995 146.883248 39.3443703 146.723039 39.3675693 146.56283 39.3443703 146.4437 39.2770932 146.322516 39.1866171 146.203386 39.0961411 146.041123 39.0729421 145.837781 39.0961411 145.416718 39.3211713 145.176405 39.3907683 144.975116 39.4348463 144.853933 39.4116474 144.714263 39.4116474 144.57254 39.4580453 144.43287 39.5044433 144.231582 39.6413174 144.151477 39.6645164 144.071373 39.6853955 143.284705 39.7317935 143.145035 39.7549924 142.723973 39.9591436 142.32345 40.2073728 141.840769 40.6597531 141.54089 41.0239773 141.335494 41.1817305 141.175285 41.2954055 140.493369 41.5923526 140.152411 41.7965038 139.971663 41.9542569 139.871019 42.0934509 139.610165 42.9750126 139.530061 43.1350856 139.390391 43.3833149 139.250722 43.5201889 138.383949 44.0212872 138.203201 44.1790403 138.063531 44.3599924 137.640415 45.0420428 137.60139 45.2021159 137.56031 45.313471 137.56031 45.5408212 137.722573 45.9259244 137.741059 46.0604786 137.741059 46.2437506 137.722573 46.4038237 137.681494 46.5615768 137.381616 47.2436272 137.340536 47.4245793 137.280971 47.7192065 137.280971 47.9001587 137.361076 48.8745164 137.299457 49.1505844 137.139248 49.4452116 136.775696 49.9903879 136.594948 50.2386171 136.453224 50.3754912 136.37312 50.3986902 135.812388 50.4891662 134.649845 50.8278715 134.323265 50.8742695 134.183595 50.8742695 134.062411 50.8278715 133.943282 50.7605945 133.741993 50.5796423 133.602324 50.5564433 133.421575 50.5796423 133.101157 50.7605945 132.938894 50.8974685 132.819764 51.0320227 132.478806 51.5099219 132.27341 51.9182242 132.172766 52.2151713 132.13374 52.3520453 132.13374 52.6002746 132.172766 53.6419093 132.234384 54.7786599 132.314489 56.481466 132.374054 57.9337229 132.458266 59.3627809 130.509056 59.566932 128.418121 59.773403 126.850948 59.9311562 126.690739 59.8870781 125.926664 59.9984332 123.151761 60.4531335 120.39945 60.8823149 117.6266 61.3138161 114.855804 61.7453174 112.099386 62.1536196 109.326536 62.5642418 106.55574 62.9934232 103.80343 63.4017254 100.305531 63.8541058 96.830226 64.3111259 93.3528668 64.7658262 89.8796155 65.2182065 86.4002024 65.6729068 82.9064115 66.1020882 79.4290523 66.5335894 75.9496391 66.9650907 72.4763879 67.3757128 68.978489 67.7840151 65.5031838 68.1923174 62.0258246 68.5982997 58.5320337 69.006602 55.0546745 69.3940252 51.5588297 69.7814484 48.0814705 70.1665516 47.3194503 70.2338287 47.058597 70.2570277 47.3790152 71.0272343 47.1797808 71.0504332 46.3725734 71.1409093 43.5196189 71.4819345 40.6481788 71.8229597 37.7726307 72.1639849 34.878597 72.5050101 32.0071568 72.8228363 29.1336627 73.1383426 26.2581147 73.4561688 23.3866745 73.773995 20.5131804 74.0686222 17.6376324 74.3887683 14.7641383 74.6810756 11.8721585 74.9780227 9.00071838 75.2726499 6.12311636 75.5672771 3.25167622 75.8619043 0.359696459 76.1333325 0.158408094 75.7946272 0.378182125 75.546398 0.801298482 75.4095239 1.30246543 75.1148967 2.06859359 74.5001234 2.36847218 74.0918212 2.56976054 73.5930428 2.67040472 73.0710655 2.67040472 72.4586121 2.84909949 71.9134358 3.3913457 71.8461587 3.99315683 71.9598338 4.45940641 71.9598338 4.85992917 71.1409093 4.77982462 69.9183224 4.45940641 68.6678967 3.89251265 67.1924408 3.75284317 66.6031864 3.61317369 65.2182065 3.65219899 64.4920781 3.89251265 63.9909798 4.98111298 62.7683929 5.28099157 62.2928136 5.50281956 61.7685164 5.58292411 61.2442191 5.52130523 60.4740126 5.58292411 59.9543552 5.82323777 59.6110101 6.34494435 59.3859798 6.88924452 59.2491058 7.3719258 59.0449547 7.5711602 58.6343325 7.21171669 57.9337229 6.8296796 57.3885466 6.70849578 57.0475214 6.8296796 56.7528942 7.17063744 56.365471 7.51159528 55.8434937 7.49105565 55.4583904 6.80913997 54.6209068 6.42915683 53.9365365 6.38396965 53.3936801 6.66947049 52.9621788 9.88186847 50.9647456 11.1697032 49.5124887 10.9293895 48.9905113 10.3029309 48.5590101 9.70111973 48.308461 9.8633828 47.7424055 10.1632614 47.3132242 10.5452985 47.0371562 11.0300337 46.925801 11.7119494 47.4245793 12.0529073 47.4941763 12.1740911 46.902602 11.792054 46.0164005 11.1697032 45.4039471 10.684968 44.6801385 10.7055076 44.4504685 10.8040978 43.3833149 11.3709916 42.0702519 11.4120708 41.5459547 11.5517403 41.2490076 11.8721585 40.9103023 12.2726813 40.6156751 12.6136391 40.502 12.7553626 39.9127456 12.0734469 38.752796 10.7260472 36.9154358 11.1101383 36.7112846 13.1353457 36.4166574 13.4003069 36.3053023 13.6015953 36.0988312 13.6611602 35.757806 13.4208465 35.5768539 12.8560067 35.4191008 12.4144047 35.0339975 12.0323676 34.4447431 11.9317234 33.8972469 12.3343002 33.6026196 12.895032 33.5562217 13.4208465 33.4193476 13.782344 33.0806423 13.9630927 32.3777128 13.8419089 31.7188615 13.2606374 30.5148338 13.2400978 30.0392544 13.340742 29.45 13.1353457 29.0184987 13.0367555 28.9280227 14.4437201 28.7215516 14.4026408 28.9952997 14.2629713 29.610073 14.3225363 30.0624534 14.9058617 30.1761285 15.1852007 29.9719773 15.5117808 29.542796 15.9328432 28.8143476 15.9718685 28.6310756 19.7265126 28.2227733 23.5058044 27.814471 27.2460708 27.3852897 31.0192007 26.9537884 34.7594671 26.5222872 38.5182192 26.088466 42.2728634 25.6360856 46.0316155 25.1813854 46.0316155 24.4575768 45.951511 23.3649043 45.8714064 22.8893249 45.4298044 21.3697909 44.9080978 19.9848111 44.8279933 19.6901839 44.8074536 19.5324307 44.8485329 19.4860327 44.9491771 19.4651537 46.1322597 19.4419547 48.1020101 19.4187557 49.3097403 19.3955567 49.490489 19.4419547 49.6096189 19.5997078 49.7903676 20.0080101 49.9115514 20.1657632 50.0306813 20.2585592 50.1518651 20.2121612 51.0330152 20.0984861 51.3349477 20.0544081 52.1606408 19.940733 53.425882 19.7597809 55.0936998 19.5324307 57.0634503 19.2354836 59.234489 18.9408564 61.5842226 18.5998312 63.995575 18.2356071 66.4274671 17.8969018 68.756661 17.5558766 70.9482395 17.2171713 72.9179899 16.9225441 74.5673221 16.6928741 75.8510489 16.4887229 76.676742 16.3773678 76.9581349 16.3309698 77.9009039 16.1732166 78.6464924 15.8762695 78.8477808 15.8298715 79.7884958 15.7393955 80.4313862 15.6721184 82.3004924 15.4911662 85.1760405 15.196539 88.912199 14.8114358 93.3323272 14.3590554 98.2556762 13.8347582 103.542577 13.2663829 108.985578 12.6539295 114.434742 12.020597 119.696995 11.4058237 124.620344 10.8142494 129.040472 10.2945919 132.778685 9.81901259 135.652179 9.45478841 137.500745 9.22975819 138.162121 9.15784131 139.209642 9.00008816 139.951123 8.63818388"></polygon>
                <polygon id="Stroke-18" stroke="#F9F9F9" stroke-width="0.25" stroke-linecap="round" stroke-linejoin="round" points="140.493369 8.22756171 142.744513 7.86565743 144.995656 7.50375315 147.244745 7.13952897 149.495889 6.75442569 151.747032 6.39020151 153.996121 6.00277834 156.247265 5.61767506 158.498408 5.23257179 160.747497 4.84746851 162.998641 4.46236524 165.249784 4.07494207 167.500927 3.68983879 169.731531 3.27921662 171.980621 2.89411335 174.231764 2.48581108 176.482907 2.10070781 177.528374 1.89655668 177.688583 1.78520151 178.09116 1.23770529 178.271909 1.14722922 178.452658 1.10315113 179.939727 0.896680101 181.7657 0.625251889 183.795015 0.330624685 183.053535 2.41853401 182.95289 3.07506549 183.012455 3.21193955 183.433518 3.87079093 183.474597 4.14221914 183.293848 5.32304786 182.932351 6.68482872 182.893325 6.98177582 182.893325 7.18592695 182.95289 7.29960202 183.252769 7.77518136 183.614266 8.18116373 183.694371 8.31803778 183.774476 8.45491184 183.73545 8.5685869 183.634806 8.61498489 182.95289 8.63818388 181.74516 8.40851385 181.644516 8.43171285 181.545926 8.49898992 180.040371 10.0904408 179.535096 10.7469723 179.454992 10.8815264 177.969976 15.9203476 177.830307 16.2172947 177.649558 16.4678438 177.44827 16.625597 177.144283 17.0362191 176.963535 17.2403703 176.782786 17.3517254 176.643116 17.3981234 176.462368 17.3981234 176.12141 17.3517254 175.961201 17.3076474 175.720887 17.1707733 175.620243 17.0594181 175.558624 16.9457431 175.519599 16.808869 175.478519 16.648796 175.418954 16.5119219 175.35939 16.3982469 175.279285 16.3077708 175.178641 16.2404937 175.053349 16.1940957 174.91368 16.1940957 174.611747 16.2404937 174.451538 16.2404937 174.332408 16.1940957 174.11058 16.0572217 173.99145 16.0340227 173.911346 16.0572217 173.790162 16.1012997 173.570388 16.2636927 172.968577 16.9457431 172.863825 17.0362191 172.401683 17.1034962 172.220934 17.1498942 171.719767 17.5558766 170.998826 17.9201008 170.797538 18.0546549 170.473012 18.328403 170.132054 18.7367053 169.509703 19.7597809 169.328954 20.1448841 169.148206 20.9150907 169.088641 21.1192418 168.768223 21.7780932 168.626499 22.0054433 168.507369 22.1655164 168.427265 22.2559924 168.343052 22.3232695 167.439309 23.2071511 167.25856 23.3440252 167.11889 23.4113023 166.979221 23.4345013 166.837497 23.4113023 166.697828 23.3649043 166.576644 23.2976272 166.457514 23.1839521 166.37741 23.0934761 166.297305 22.979801 166.112449 22.5946977 166.071369 22.4369446 166.05083 22.2559924 166.071369 22.0286423 166.135042 21.6180202 166.155582 21.483466 166.135042 21.3929899 166.091909 21.3257128 165.650307 20.8014156 165.549663 20.7341385 165.389454 20.7109395 165.190219 20.8014156 164.24745 21.5739421 163.740121 21.8940882 162.378344 23.0702771 162.357804 23.1166751 162.316725 23.2071511 162.316725 23.3208262 162.378344 23.7523275 162.357804 23.9124005 162.316725 24.0469547 162.096951 24.4111788 162.037386 24.684927 162.016847 24.8658791 161.916202 25.1141083 161.795019 25.2277834 161.655349 25.2950605 161.530057 25.2741814 161.269204 25.0932292 160.948786 24.8890781 160.648907 24.798602 160.447619 24.775403 160.227845 24.8194811 159.905373 24.9563552 159.745164 25.0932292 159.626034 25.2277834 159.545929 25.4992116 159.50485 25.6801637 159.50485 25.8611159 159.52539 26.0211889 159.564415 26.1789421 159.626034 26.318136 159.886887 26.7705164 159.905373 26.9329093 159.866347 27.1138615 159.665059 27.5198438 159.626034 27.6567179 159.626034 27.9745441 159.605494 28.1322972 159.52539 28.4269244 159.100219 29.4291209 158.658617 30.2666045 158.498408 30.4243577 158.377224 30.4939547 158.036266 30.4475567 157.109929 30.5148338 156.849076 30.4707557 156.729946 30.5148338 156.629302 30.5844307 155.565349 31.4474332 154.838246 31.8325365 154.678037 31.9485315 154.558907 32.0598866 154.117305 32.7628161 153.916017 32.9437683 153.39431 33.2847935 153.234101 33.3984685 153.135511 33.5330227 153.073892 33.6698967 152.673369 34.261471 152.328304 35.0339975 152.18658 35.1244736 152.026371 35.1685516 151.866162 35.1453526 151.666927 35.1685516 151.445099 35.2590277 151.264351 35.3959018 150.985012 35.804204 150.783723 36.1429093 150.54341 36.4398564 149.436324 37.2123829 149.255575 37.393335 149.134391 37.5534081 148.953642 37.9153123 148.53258 38.5277657 148.392911 38.6855189 148.271727 38.775995 146.883248 39.3443703 146.723039 39.3675693 146.56283 39.3443703 146.4437 39.2770932 146.322516 39.1866171 146.203386 39.0961411 146.041123 39.0729421 145.837781 39.0961411 145.416718 39.3211713 145.176405 39.3907683 144.975116 39.4348463 144.853933 39.4116474 144.714263 39.4116474 144.57254 39.4580453 144.43287 39.5044433 144.231582 39.6413174 144.151477 39.6645164 144.071373 39.6853955 143.284705 39.7317935 143.145035 39.7549924 142.723973 39.9591436 142.32345 40.2073728 141.840769 40.6597531 141.54089 41.0239773 141.335494 41.1817305 141.175285 41.2954055 140.493369 41.5923526 140.152411 41.7965038 139.971663 41.9542569 139.871019 42.0934509 139.610165 42.9750126 139.530061 43.1350856 139.390391 43.3833149 139.250722 43.5201889 138.383949 44.0212872 138.203201 44.1790403 138.063531 44.3599924 137.640415 45.0420428 137.60139 45.2021159 137.56031 45.313471 137.56031 45.5408212 137.722573 45.9259244 137.741059 46.0604786 137.741059 46.2437506 137.722573 46.4038237 137.681494 46.5615768 137.381616 47.2436272 137.340536 47.4245793 137.280971 47.7192065 137.280971 47.9001587 137.361076 48.8745164 137.299457 49.1505844 137.139248 49.4452116 136.775696 49.9903879 136.594948 50.2386171 136.453224 50.3754912 136.37312 50.3986902 135.812388 50.4891662 134.649845 50.8278715 134.323265 50.8742695 134.183595 50.8742695 134.062411 50.8278715 133.943282 50.7605945 133.741993 50.5796423 133.602324 50.5564433 133.421575 50.5796423 133.101157 50.7605945 132.938894 50.8974685 132.819764 51.0320227 132.478806 51.5099219 132.27341 51.9182242 132.172766 52.2151713 132.13374 52.3520453 132.13374 52.6002746 132.172766 53.6419093 132.234384 54.7786599 132.314489 56.481466 132.374054 57.9337229 132.458266 59.3627809 130.509056 59.566932 128.418121 59.773403 126.850948 59.9311562 126.690739 59.8870781 125.926664 59.9984332 123.151761 60.4531335 120.39945 60.8823149 117.6266 61.3138161 114.855804 61.7453174 112.099386 62.1536196 109.326536 62.5642418 106.55574 62.9934232 103.80343 63.4017254 100.305531 63.8541058 96.830226 64.3111259 93.3528668 64.7658262 89.8796155 65.2182065 86.4002024 65.6729068 82.9064115 66.1020882 79.4290523 66.5335894 75.9496391 66.9650907 72.4763879 67.3757128 68.978489 67.7840151 65.5031838 68.1923174 62.0258246 68.5982997 58.5320337 69.006602 55.0546745 69.3940252 51.5588297 69.7814484 48.0814705 70.1665516 47.3194503 70.2338287 47.058597 70.2570277 47.3790152 71.0272343 47.1797808 71.0504332 46.3725734 71.1409093 43.5196189 71.4819345 40.6481788 71.8229597 37.7726307 72.1639849 34.878597 72.5050101 32.0071568 72.8228363 29.1336627 73.1383426 26.2581147 73.4561688 23.3866745 73.773995 20.5131804 74.0686222 17.6376324 74.3887683 14.7641383 74.6810756 11.8721585 74.9780227 9.00071838 75.2726499 6.12311636 75.5672771 3.25167622 75.8619043 0.359696459 76.1333325 0.158408094 75.7946272 0.378182125 75.546398 0.801298482 75.4095239 1.30246543 75.1148967 2.06859359 74.5001234 2.36847218 74.0918212 2.56976054 73.5930428 2.67040472 73.0710655 2.67040472 72.4586121 2.84909949 71.9134358 3.3913457 71.8461587 3.99315683 71.9598338 4.45940641 71.9598338 4.85992917 71.1409093 4.77982462 69.9183224 4.45940641 68.6678967 3.89251265 67.1924408 3.75284317 66.6031864 3.61317369 65.2182065 3.65219899 64.4920781 3.89251265 63.9909798 4.98111298 62.7683929 5.28099157 62.2928136 5.50281956 61.7685164 5.58292411 61.2442191 5.52130523 60.4740126 5.58292411 59.9543552 5.82323777 59.6110101 6.34494435 59.3859798 6.88924452 59.2491058 7.3719258 59.0449547 7.5711602 58.6343325 7.21171669 57.9337229 6.8296796 57.3885466 6.70849578 57.0475214 6.8296796 56.7528942 7.17063744 56.365471 7.51159528 55.8434937 7.49105565 55.4583904 6.80913997 54.6209068 6.42915683 53.9365365 6.38396965 53.3936801 6.66947049 52.9621788 9.88186847 50.9647456 11.1697032 49.5124887 10.9293895 48.9905113 10.3029309 48.5590101 9.70111973 48.308461 9.8633828 47.7424055 10.1632614 47.3132242 10.5452985 47.0371562 11.0300337 46.925801 11.7119494 47.4245793 12.0529073 47.4941763 12.1740911 46.902602 11.792054 46.0164005 11.1697032 45.4039471 10.684968 44.6801385 10.7055076 44.4504685 10.8040978 43.3833149 11.3709916 42.0702519 11.4120708 41.5459547 11.5517403 41.2490076 11.8721585 40.9103023 12.2726813 40.6156751 12.6136391 40.502 12.7553626 39.9127456 12.0734469 38.752796 10.7260472 36.9154358 11.1101383 36.7112846 13.1353457 36.4166574 13.4003069 36.3053023 13.6015953 36.0988312 13.6611602 35.757806 13.4208465 35.5768539 12.8560067 35.4191008 12.4144047 35.0339975 12.0323676 34.4447431 11.9317234 33.8972469 12.3343002 33.6026196 12.895032 33.5562217 13.4208465 33.4193476 13.782344 33.0806423 13.9630927 32.3777128 13.8419089 31.7188615 13.2606374 30.5148338 13.2400978 30.0392544 13.340742 29.45 13.1353457 29.0184987 13.0367555 28.9280227 14.4437201 28.7215516 14.4026408 28.9952997 14.2629713 29.610073 14.3225363 30.0624534 14.9058617 30.1761285 15.1852007 29.9719773 15.5117808 29.542796 15.9328432 28.8143476 15.9718685 28.6310756 19.7265126 28.2227733 23.5058044 27.814471 27.2460708 27.3852897 31.0192007 26.9537884 34.7594671 26.5222872 38.5182192 26.088466 42.2728634 25.6360856 46.0316155 25.1813854 46.0316155 24.4575768 45.951511 23.3649043 45.8714064 22.8893249 45.4298044 21.3697909 44.9080978 19.9848111 44.8279933 19.6901839 44.8074536 19.5324307 44.8485329 19.4860327 44.9491771 19.4651537 46.1322597 19.4419547 48.1020101 19.4187557 49.3097403 19.3955567 49.490489 19.4419547 49.6096189 19.5997078 49.7903676 20.0080101 49.9115514 20.1657632 50.0306813 20.2585592 50.1518651 20.2121612 51.0330152 20.0984861 51.3349477 20.0544081 52.1606408 19.940733 53.425882 19.7597809 55.0936998 19.5324307 57.0634503 19.2354836 59.234489 18.9408564 61.5842226 18.5998312 63.995575 18.2356071 66.4274671 17.8969018 68.756661 17.5558766 70.9482395 17.2171713 72.9179899 16.9225441 74.5673221 16.6928741 75.8510489 16.4887229 76.676742 16.3773678 76.9581349 16.3309698 77.9009039 16.1732166 78.6464924 15.8762695 78.8477808 15.8298715 79.7884958 15.7393955 80.4313862 15.6721184 82.3004924 15.4911662 85.1760405 15.196539 88.912199 14.8114358 93.3323272 14.3590554 98.2556762 13.8347582 103.542577 13.2663829 108.985578 12.6539295 114.434742 12.020597 119.696995 11.4058237 124.620344 10.8142494 129.040472 10.2945919 132.778685 9.81901259 135.652179 9.45478841 137.500745 9.22975819 138.162121 9.15784131 139.209642 9.00008816 139.951123 8.63818388"></polygon>
            </g>
        </g>
    </g>
</svg>