<?xml version="1.0" encoding="UTF-8"?>
<svg width="155px" height="103px" viewBox="0 0 155 103" version="1.1" xmlns="http://www.w3.org/2000/svg" xmlns:xlink="http://www.w3.org/1999/xlink">
    <!-- Generator: Sketch 51 (57462) - http://www.bohemiancoding.com/sketch -->
    <title>South Dakota</title>
    <desc>Created with Sketch.</desc>
    <defs></defs>
    <g id="Page-1" stroke="none" stroke-width="1" fill="none" fill-rule="evenodd">
        <g id="A5" transform="translate(-516.000000, -178.000000)">
            <g id="South-Dakota" transform="translate(516.000000, 178.000000)">
                <polygon id="Fill-19" fill="#D6D6D6" points="149.564742 1.11947103 149.466152 1.44193703 149.386047 1.55329219 149.324428 1.71104534 149.285403 1.8479194 149.164219 3.6620806 149.045089 4.16317884 148.663052 4.95658438 148.118752 6.4320403 148.036594 6.56891436 147.896924 6.79394458 147.716175 7.02129471 147.194469 7.49919395 145.787504 8.40859446 145.586216 8.61042569 145.165153 9.17880101 144.423673 9.77037531 144.26141 9.92812846 144.12174 10.1090806 143.881427 10.7424131 143.821862 11.3780655 144.362054 12.1065139 145.366442 13.2641436 145.766965 13.9206751 146.533093 15.6907582 146.995234 16.5560806 147.416297 16.9179849 148.98347 17.052539 149.827649 17.3054081 150.408921 17.7345894 150.632803 17.9851385 151.11343 18.3911209 151.314718 18.5975919 151.87545 19.6856247 152.017174 19.9825718 152.117818 20.0730479 152.117818 20.0962469 152.156843 21.2283577 152.518341 34.2337128 152.723737 40.7479899 153.444678 66.8700554 153.645966 73.4075315 150.793012 73.5444055 150.712907 73.6348816 150.772472 73.8158338 150.834091 73.9735869 150.893656 74.177738 150.914196 74.3818892 150.873116 74.7252343 150.873116 74.9966625 150.893656 75.2240126 150.9943 75.5186398 151.094944 75.6787128 151.474927 76.1078942 151.635137 76.3584433 151.996634 76.7690655 152.076739 76.8804207 152.138358 77.1982469 152.177383 78.7409798 152.117818 79.4671083 152.076739 79.5807834 151.996634 79.6944584 151.89599 79.7617355 151.75632 79.8081335 151.456442 79.7617355 151.335258 79.8081335 151.275693 79.9473275 151.294179 80.1491587 151.474927 80.4669849 151.635137 80.5806599 151.735781 80.694335 151.77686 80.8080101 151.715241 80.9193652 151.534492 81.1467154 151.474927 81.2835894 151.456442 81.4413426 151.495467 81.6014156 151.635137 81.7591688 151.77686 81.8055668 151.957609 81.8287657 152.278027 81.7823678 152.723737 81.8519647 152.883946 81.8519647 153.08318 81.8287657 153.204364 81.8287657 153.325548 81.8960428 153.405653 82.007398 153.465218 82.1465919 153.545322 82.466738 153.74661 83.756602 153.826715 84.0512292 153.88628 84.2785793 153.927359 84.4618514 153.927359 84.7100806 153.74661 85.9141083 153.666506 86.1391385 153.586401 86.2992116 152.943511 87.0253401 152.904486 87.1854131 152.904486 87.3431662 153.003076 87.5009194 153.064695 87.6169144 153.10372 87.7050705 153.12426 87.8442645 153.08318 88.0484156 152.964051 88.4567179 152.883946 88.614471 152.883946 88.660869 152.863406 88.7281461 152.883946 88.8418212 152.922971 89.4078766 152.842867 89.7721008 152.783302 89.9530529 152.417696 90.4309521 152.397157 90.4982292 152.378671 90.7023804 152.358132 91.5189849 152.317052 91.746335 152.278027 91.9040882 152.197922 91.9736851 152.117818 92.0873602 152.076739 92.2242343 152.037713 92.4051864 152.037713 92.7902897 152.017174 92.9503627 151.957609 93.0640378 151.87545 93.1313149 151.575572 93.289068 151.495467 93.335466 151.435902 93.4259421 151.355798 93.5396171 151.294179 93.6764912 151.234614 93.8342443 151.214074 93.9919975 151.154509 94.1520705 151.11343 94.2866247 150.813551 94.7877229 150.653342 95.2215441 150.573238 95.5161713 150.532159 95.9221537 150.573238 96.1727028 150.692368 96.46733 151.033325 97.0101864 151.214074 97.2398564 151.394823 97.4208086 152.497801 98.2606121 152.682658 98.4415642 152.842867 98.6457154 152.922971 98.7593904 152.943511 98.8962645 152.883946 99.0308186 152.65801 99.2349698 152.639524 99.2813678 152.577906 99.3927229 152.577906 99.4623199 152.618985 99.5551159 152.964051 99.7801461 153.08318 99.8497431 153.165339 99.9402191 153.245444 100.074773 153.385113 100.348521 153.444678 100.508594 153.465218 100.689547 153.465218 100.937776 153.485757 101.118728 153.586401 101.278801 153.705531 101.346078 153.845201 101.710302 153.88628 102.777456 151.234614 102.390033 150.873116 102.141804 150.653342 101.75438 150.552698 101.188325 150.347302 100.712746 149.505177 100.030695 149.244324 99.6687909 149.223784 99.2813678 149.324428 99.0308186 149.445612 98.8266675 149.505177 98.5552393 149.386047 98.3278892 149.145734 98.170136 148.864341 98.0796599 148.642513 98.056461 147.79628 98.146937 147.535427 98.1028589 147.295113 97.9427859 147.173929 97.7827128 147.093825 97.5785617 146.954155 97.3071335 146.734381 96.9429093 146.452988 96.6250831 146.070951 96.397733 144.242924 96.3072569 143.860887 96.1727028 143.637005 95.9685516 143.497336 95.7644005 143.296047 95.6275264 142.753801 95.5161713 142.291659 95.2633023 142.092425 95.1983451 141.024364 95.1983451 140.543737 95.0823501 140.06311 94.8341209 139.621508 94.4930957 138.855379 93.7669673 138.233029 92.9062846 137.871531 92.5629395 137.450469 92.3355894 136.949302 92.2683123 132.909157 93.2009118 132.364857 93.2009118 130.879841 92.8343678 130.438239 92.9735617 129.651572 93.4491411 129.170944 93.4932191 128.930631 93.4027431 128.509568 93.1313149 128.248715 93.0872368 127.420968 93.335466 126.038651 92.9967607 125.531322 93.1545139 125.291008 93.2681889 125.071234 93.4491411 124.890486 93.6973703 124.830921 94.1056725 124.588553 94.901398 124.508449 95.038272 124.389319 95.1287481 123.986742 95.5370504 123.746428 95.6739244 123.202128 95.7412015 122.659882 95.6971234 121.195406 95.1751461 120.953039 94.9918741 120.852395 94.6508489 120.651106 94.4002997 117.818691 93.1313149 116.976567 92.3355894 116.109794 91.723136 116.00915 91.699937 115.768836 91.676738 115.629167 91.653539 113.478668 90.1595239 113.336944 89.9994509 112.915882 89.4542746 112.856317 89.4078766 112.735133 89.4078766 110.987211 89.4310756 104.075626 89.5215516 100.616752 89.5447506 97.1619865 89.5888287 93.7051669 89.6120277 90.2504013 89.6120277 86.7730422 89.6329068 76.4046374 89.6329068 72.9478179 89.6120277 69.4909983 89.5888287 66.0362327 89.5679496 62.5773592 89.5447506 59.1246476 89.5006725 55.665774 89.4542746 52.2110084 89.4078766 48.7541889 89.3614786 41.8426037 89.2269244 38.3857841 89.1573275 34.9289646 89.0668514 31.474199 88.9995743 28.0173794 88.9090982 24.5605599 88.7954232 21.1057943 88.7049471 17.6469207 88.591272 14.1942091 88.477597 10.7353356 88.3639219 7.28056998 88.2293678 3.82375042 88.0924937 0.36693086 87.9579395 0.488114671 84.2113023 0.590812816 80.4901839 0.709942664 76.7690655 0.810586847 73.0224282 0.931770658 69.3013098 1.03241484 65.5778715 1.15154469 61.8544332 1.35283305 54.4330756 1.4719629 50.7119572 1.57260708 46.9908388 1.69379089 43.2905995 1.89507926 35.8692418 2.01420911 32.1690025 2.11485329 28.4687632 2.75774368 28.5151612 2.77828331 28.1300579 2.82141653 26.3135768 2.92206071 23.1121159 3.00216526 19.8920957 3.10075548 16.6906348 3.26301855 10.2900327 3.36160877 7.09089169 3.44171332 3.88943073 3.5423575 0.690289673 8.10420911 0.873561713 12.6660607 1.05219395 17.2258583 1.2099471 21.7877099 1.34914106 26.3495616 1.48369521 30.9093592 1.62056927 35.4712108 1.73424433 40.0330624 1.8479194 44.594914 1.93839547 49.1547116 2.00799244 53.7165632 2.09846851 58.2989545 2.1448665 62.8587521 2.21214358 67.4206037 2.25622166 71.9845093 2.27942065 76.5463609 2.30261965 85.6885497 2.30261965 90.2504013 2.27942065 94.812253 2.25622166 99.3720506 2.23302267 103.933902 2.18894458 108.516293 2.12166751 113.057605 2.05207053 117.637943 1.98479345 122.19774 1.89199748 126.759592 1.77832242 131.321444 1.66464736 135.881241 1.55329219 140.443093 1.41873804 145.004944 1.27722418"></polygon>
                <polygon id="Stroke-20" stroke="#F9F9F9" stroke-width="0.25" stroke-linecap="round" stroke-linejoin="round" points="149.564742 1.11947103 149.466152 1.44193703 149.386047 1.55329219 149.324428 1.71104534 149.285403 1.8479194 149.164219 3.6620806 149.045089 4.16317884 148.663052 4.95658438 148.118752 6.4320403 148.036594 6.56891436 147.896924 6.79394458 147.716175 7.02129471 147.194469 7.49919395 145.787504 8.40859446 145.586216 8.61042569 145.165153 9.17880101 144.423673 9.77037531 144.26141 9.92812846 144.12174 10.1090806 143.881427 10.7424131 143.821862 11.3780655 144.362054 12.1065139 145.366442 13.2641436 145.766965 13.9206751 146.533093 15.6907582 146.995234 16.5560806 147.416297 16.9179849 148.98347 17.052539 149.827649 17.3054081 150.408921 17.7345894 150.632803 17.9851385 151.11343 18.3911209 151.314718 18.5975919 151.87545 19.6856247 152.017174 19.9825718 152.117818 20.0730479 152.117818 20.0962469 152.156843 21.2283577 152.518341 34.2337128 152.723737 40.7479899 153.444678 66.8700554 153.645966 73.4075315 150.793012 73.5444055 150.712907 73.6348816 150.772472 73.8158338 150.834091 73.9735869 150.893656 74.177738 150.914196 74.3818892 150.873116 74.7252343 150.873116 74.9966625 150.893656 75.2240126 150.9943 75.5186398 151.094944 75.6787128 151.474927 76.1078942 151.635137 76.3584433 151.996634 76.7690655 152.076739 76.8804207 152.138358 77.1982469 152.177383 78.7409798 152.117818 79.4671083 152.076739 79.5807834 151.996634 79.6944584 151.89599 79.7617355 151.75632 79.8081335 151.456442 79.7617355 151.335258 79.8081335 151.275693 79.9473275 151.294179 80.1491587 151.474927 80.4669849 151.635137 80.5806599 151.735781 80.694335 151.77686 80.8080101 151.715241 80.9193652 151.534492 81.1467154 151.474927 81.2835894 151.456442 81.4413426 151.495467 81.6014156 151.635137 81.7591688 151.77686 81.8055668 151.957609 81.8287657 152.278027 81.7823678 152.723737 81.8519647 152.883946 81.8519647 153.08318 81.8287657 153.204364 81.8287657 153.325548 81.8960428 153.405653 82.007398 153.465218 82.1465919 153.545322 82.466738 153.74661 83.756602 153.826715 84.0512292 153.88628 84.2785793 153.927359 84.4618514 153.927359 84.7100806 153.74661 85.9141083 153.666506 86.1391385 153.586401 86.2992116 152.943511 87.0253401 152.904486 87.1854131 152.904486 87.3431662 153.003076 87.5009194 153.064695 87.6169144 153.10372 87.7050705 153.12426 87.8442645 153.08318 88.0484156 152.964051 88.4567179 152.883946 88.614471 152.883946 88.660869 152.863406 88.7281461 152.883946 88.8418212 152.922971 89.4078766 152.842867 89.7721008 152.783302 89.9530529 152.417696 90.4309521 152.397157 90.4982292 152.378671 90.7023804 152.358132 91.5189849 152.317052 91.746335 152.278027 91.9040882 152.197922 91.9736851 152.117818 92.0873602 152.076739 92.2242343 152.037713 92.4051864 152.037713 92.7902897 152.017174 92.9503627 151.957609 93.0640378 151.87545 93.1313149 151.575572 93.289068 151.495467 93.335466 151.435902 93.4259421 151.355798 93.5396171 151.294179 93.6764912 151.234614 93.8342443 151.214074 93.9919975 151.154509 94.1520705 151.11343 94.2866247 150.813551 94.7877229 150.653342 95.2215441 150.573238 95.5161713 150.532159 95.9221537 150.573238 96.1727028 150.692368 96.46733 151.033325 97.0101864 151.214074 97.2398564 151.394823 97.4208086 152.497801 98.2606121 152.682658 98.4415642 152.842867 98.6457154 152.922971 98.7593904 152.943511 98.8962645 152.883946 99.0308186 152.65801 99.2349698 152.639524 99.2813678 152.577906 99.3927229 152.577906 99.4623199 152.618985 99.5551159 152.964051 99.7801461 153.08318 99.8497431 153.165339 99.9402191 153.245444 100.074773 153.385113 100.348521 153.444678 100.508594 153.465218 100.689547 153.465218 100.937776 153.485757 101.118728 153.586401 101.278801 153.705531 101.346078 153.845201 101.710302 153.88628 102.777456 151.234614 102.390033 150.873116 102.141804 150.653342 101.75438 150.552698 101.188325 150.347302 100.712746 149.505177 100.030695 149.244324 99.6687909 149.223784 99.2813678 149.324428 99.0308186 149.445612 98.8266675 149.505177 98.5552393 149.386047 98.3278892 149.145734 98.170136 148.864341 98.0796599 148.642513 98.056461 147.79628 98.146937 147.535427 98.1028589 147.295113 97.9427859 147.173929 97.7827128 147.093825 97.5785617 146.954155 97.3071335 146.734381 96.9429093 146.452988 96.6250831 146.070951 96.397733 144.242924 96.3072569 143.860887 96.1727028 143.637005 95.9685516 143.497336 95.7644005 143.296047 95.6275264 142.753801 95.5161713 142.291659 95.2633023 142.092425 95.1983451 141.024364 95.1983451 140.543737 95.0823501 140.06311 94.8341209 139.621508 94.4930957 138.855379 93.7669673 138.233029 92.9062846 137.871531 92.5629395 137.450469 92.3355894 136.949302 92.2683123 132.909157 93.2009118 132.364857 93.2009118 130.879841 92.8343678 130.438239 92.9735617 129.651572 93.4491411 129.170944 93.4932191 128.930631 93.4027431 128.509568 93.1313149 128.248715 93.0872368 127.420968 93.335466 126.038651 92.9967607 125.531322 93.1545139 125.291008 93.2681889 125.071234 93.4491411 124.890486 93.6973703 124.830921 94.1056725 124.588553 94.901398 124.508449 95.038272 124.389319 95.1287481 123.986742 95.5370504 123.746428 95.6739244 123.202128 95.7412015 122.659882 95.6971234 121.195406 95.1751461 120.953039 94.9918741 120.852395 94.6508489 120.651106 94.4002997 117.818691 93.1313149 116.976567 92.3355894 116.109794 91.723136 116.00915 91.699937 115.768836 91.676738 115.629167 91.653539 113.478668 90.1595239 113.336944 89.9994509 112.915882 89.4542746 112.856317 89.4078766 112.735133 89.4078766 110.987211 89.4310756 104.075626 89.5215516 100.616752 89.5447506 97.1619865 89.5888287 93.7051669 89.6120277 90.2504013 89.6120277 86.7730422 89.6329068 76.4046374 89.6329068 72.9478179 89.6120277 69.4909983 89.5888287 66.0362327 89.5679496 62.5773592 89.5447506 59.1246476 89.5006725 55.665774 89.4542746 52.2110084 89.4078766 48.7541889 89.3614786 41.8426037 89.2269244 38.3857841 89.1573275 34.9289646 89.0668514 31.474199 88.9995743 28.0173794 88.9090982 24.5605599 88.7954232 21.1057943 88.7049471 17.6469207 88.591272 14.1942091 88.477597 10.7353356 88.3639219 7.28056998 88.2293678 3.82375042 88.0924937 0.36693086 87.9579395 0.488114671 84.2113023 0.590812816 80.4901839 0.709942664 76.7690655 0.810586847 73.0224282 0.931770658 69.3013098 1.03241484 65.5778715 1.15154469 61.8544332 1.35283305 54.4330756 1.4719629 50.7119572 1.57260708 46.9908388 1.69379089 43.2905995 1.89507926 35.8692418 2.01420911 32.1690025 2.11485329 28.4687632 2.75774368 28.5151612 2.77828331 28.1300579 2.82141653 26.3135768 2.92206071 23.1121159 3.00216526 19.8920957 3.10075548 16.6906348 3.26301855 10.2900327 3.36160877 7.09089169 3.44171332 3.88943073 3.5423575 0.690289673 8.10420911 0.873561713 12.6660607 1.05219395 17.2258583 1.2099471 21.7877099 1.34914106 26.3495616 1.48369521 30.9093592 1.62056927 35.4712108 1.73424433 40.0330624 1.8479194 44.594914 1.93839547 49.1547116 2.00799244 53.7165632 2.09846851 58.2989545 2.1448665 62.8587521 2.21214358 67.4206037 2.25622166 71.9845093 2.27942065 76.5463609 2.30261965 85.6885497 2.30261965 90.2504013 2.27942065 94.812253 2.25622166 99.3720506 2.23302267 103.933902 2.18894458 108.516293 2.12166751 113.057605 2.05207053 117.637943 1.98479345 122.19774 1.89199748 126.759592 1.77832242 131.321444 1.66464736 135.881241 1.55329219 140.443093 1.41873804 145.004944 1.27722418"></polygon>
            </g>
        </g>
    </g>
</svg>