<?xml version="1.0" encoding="UTF-8"?>
<svg width="170px" height="186px" viewBox="0 0 170 186" version="1.1" xmlns="http://www.w3.org/2000/svg" xmlns:xlink="http://www.w3.org/1999/xlink">
    <!-- Generator: Sketch 51 (57462) - http://www.bohemiancoding.com/sketch -->
    <title>Michigan</title>
    <desc>Created with Sketch.</desc>
    <defs></defs>
    <g id="Page-1" stroke="none" stroke-width="1" fill="none" fill-rule="evenodd">
        <g id="A5" transform="translate(-784.000000, -101.000000)">
            <g id="Michigan" transform="translate(784.000000, 101.000000)">
                <path d="M128.662641,52.1342796 L128.804364,52.1783577 L128.884469,52.1783577 L128.923494,51.8164534 L129.124782,51.8860504 L129.365096,52.1110806 L129.504766,52.2920327 L129.664975,52.4289068 L130.190789,52.700335 L130.332513,52.9972821 L130.350998,53.0645592 L130.472182,53.0204811 L130.652931,52.8372091 L130.733035,52.7908111 L131.45603,52.677136 L131.655265,52.723534 L131.895578,52.8812872 L132.142054,52.9485642 L132.281723,52.8372091 L132.682246,52.3152317 L133.103309,52.2711537 L133.965973,52.677136 L134.452762,52.7676121 L135.034034,52.746733 L135.55574,52.5657809 L135.876159,52.2479547 L136.137012,51.2712771 L136.356786,50.5451486 L136.356786,50.2041234 L135.935723,49.9326952 L135.455096,49.9094962 L134.992954,49.7285441 L134.693076,48.9815365 L134.491788,48.4340403 L134.087157,48.072136 L133.164927,47.7079118 L131.936658,47.842466 L131.394411,48.048937 L131.45603,48.5036373 L131.716884,48.6405113 L131.996223,48.6637103 L132.242698,48.7750655 L132.261184,49.0256146 L132.302263,49.2761637 L132.222159,49.568471 L132.016762,49.7517431 L131.5957,50.0231713 L131.154098,50.3850756 L130.934324,50.5010705 L130.632391,50.5915466 L130.513261,50.7261008 L130.291433,51.3408741 L130.092199,51.4986272 L129.685514,51.2944761 L129.225427,50.9534509 L128.804364,50.8629748 L128.522971,51.5218262 L128.522971,51.9533275 L128.662641,52.1342796 L128.662641,52.1342796 Z M121.991369,42.8523627 L121.490202,42.9196398 L121.371073,43.191068 L121.389558,43.6016902 L121.350533,44.1445466 L121.792135,44.6224458 L122.213197,45.2557783 L122.673285,45.5736045 L123.17856,45.1653023 L123.199099,44.5319698 L122.833494,43.7826423 L122.352867,43.1469899 L121.991369,42.8523627 L121.991369,42.8523627 Z M158.079497,161.118506 L157.960368,161.322657 L157.859723,163.050982 L157.919288,163.958063 L158.200681,164.208612 L158.40197,163.707514 L158.36089,162.823632 L158.079497,161.118506 L158.079497,161.118506 Z M119.72174,39.1289244 L119.941514,39.4026725 L120.042159,39.7877758 L120.403656,40.8758086 L120.563865,41.2168338 L120.92947,41.4905819 L121.329993,41.671534 L121.590847,41.9661612 L121.549767,42.3744635 L121.549767,42.4881385 L122.011909,42.4881385 L122.252223,42.5322166 L122.693825,42.7827657 L122.75339,42.5786146 L122.73285,42.3280655 L122.73285,42.2839874 L122.652745,42.1262343 L122.453511,41.9893602 L121.430637,40.5579824 L121.288914,40.3097531 L121.229349,39.991927 L121.149245,39.4026725 L121.208809,39.0616474 L121.570307,37.9040176 L121.792135,37.4261184 L121.83116,37.3124433 L121.8517,37.2219673 L121.952344,37.1546902 L121.570307,36.9946171 L120.783639,37.0178161 L120.422142,36.7695869 L120.303012,36.883262 L119.561531,37.8599395 L119.319164,38.2659219 L119.138415,38.8806952 L119.360243,39.0616474 L119.72174,39.1289244 L119.72174,39.1289244 Z M86.7864452,59.0127809 L88.072226,59.2842091 L89.2963879,59.8734635 L89.1361788,59.193733 L89.2368229,58.7413526 L89.5818887,58.4444055 L91.6070961,57.8296322 L94.1232007,57.511806 L94.4230793,57.2867758 L94.6449073,56.7879975 L94.9242462,55.7881209 L95.988199,53.8834836 L96.3538044,53.5633375 L97.9189241,53.4960605 L98.4837639,53.0436801 L98.6645126,52.9740831 L98.8842867,53.0877582 L99.14514,53.3151083 L99.3854536,53.4496625 L99.586742,53.3359874 L99.9482395,52.9485642 L100.369302,53.0645592 L101.176509,53.6329345 L101.597572,53.7257305 L102.903892,53.5633375 L103.366034,53.6329345 L104.469012,54.1549118 L106.418223,54.472738 L106.77972,54.7209673 L107.584874,55.5166927 L107.847781,55.6535668 L108.047015,55.8113199 L108.568722,56.5838463 L108.788496,56.7415995 L109.170533,56.7415995 L109.655268,56.8552746 L110.076331,57.1267028 L110.298159,57.6254811 L110.739761,58.1033804 L111.66199,58.4884836 L112.567788,58.5116826 L113.050469,57.8969093 L112.688971,57.7391562 L112.469197,57.2171788 L112.448658,56.5838463 L112.709511,56.131466 L112.469197,55.969073 L112.327474,55.6976448 L112.306934,55.3566196 L112.428118,54.9483174 L112.668432,54.6768892 L112.86972,54.6072922 L112.98885,54.472738 L113.00939,52.9044861 L113.370887,52.4729849 L113.931619,52.4729849 L114.599157,52.7908111 L114.9586,52.4729849 L115.361177,52.5657809 L115.720621,52.9485642 L115.901369,53.4728615 L115.962988,53.8602846 L116.043093,53.9971587 L116.223841,53.9275617 L116.303946,53.8602846 L116.568907,53.5401385 L116.708577,53.4496625 L117.330927,53.9507607 L117.369953,53.3151083 L117.450057,53.0877582 L118.553035,53.0645592 L119.09939,53.3591864 L119.419808,53.4287834 L119.419808,53.3591864 L119.540992,53.2014332 L119.680661,53.0436801 L119.822384,52.9485642 L120.101723,52.9740831 L120.522786,53.1759144 L120.744614,53.2014332 L121.991369,52.9485642 L126.010975,53.1759144 L126.171184,53.2455113 L126.393012,53.2687103 L126.553221,53.1341562 L126.71343,52.9485642 L126.935258,52.8372091 L127.962239,52.4961839 L128.262118,52.6098589 L128.241578,52.2711537 L128.262118,51.9742065 L128.381248,51.364073 L128.021804,51.3153552 L127.740411,51.1367229 L127.47545,50.9093728 L127.194057,50.7492997 L126.793535,50.7052217 L126.473116,50.7052217 L126.171184,50.6565038 L125.81174,50.3618766 L124.983993,49.501194 L124.844324,49.2761637 L124.803245,48.8446625 L124.903889,48.5036373 L125.064098,48.1858111 L125.205821,47.7983879 L124.924428,47.842466 L124.684115,47.7751889 L124.221973,47.5710378 L124.082304,47.5710378 L123.82145,47.6615139 L123.681781,47.6615139 L123.581137,47.5478388 L123.340823,47.0954584 L122.975218,47.0281814 L122.373406,47.0281814 L121.8517,47.1418564 L121.650411,47.4573627 L121.449123,47.6847128 L120.947956,47.2532116 L120.5043,46.6871562 L120.483761,46.3484509 L120.908931,46.1211008 L121.449123,45.3949723 L121.911265,45.2789773 L121.629872,44.803398 L121.0486,44.1004685 L120.863744,43.5344131 L120.62343,42.4185416 L120.463221,41.8988841 L120.303012,41.671534 L119.499912,40.3097531 L119.179494,39.5604257 L118.292182,38.6301461 L117.932739,38.356398 L117.450057,38.2218438 L116.98997,38.2450428 L116.568907,38.4051159 L116.262867,38.7438212 L115.681595,39.991927 L115.180428,40.5811814 L114.477973,41.1936348 L113.711845,41.5137809 L113.029929,41.1936348 L113.130573,40.5811814 L112.567788,39.8782519 L111.762634,39.4931486 L111.160823,39.7645768 L110.719221,40.3561511 L110.09687,40.7853325 L109.410847,41.1031587 L108.788496,41.2864307 L108.468078,41.2632317 L107.584874,40.8317305 L106.839285,40.7644534 L106.699616,40.6948564 L106.379197,40.3329521 L106.177909,40.2401562 L105.917056,40.3097531 L105.335784,40.7412544 L105.029744,40.8317305 L104.649761,40.7644534 L104.368368,40.5347834 L104.148594,40.1937582 L103.967845,39.7877758 L104.409447,39.0384484 L104.549116,38.4955919 L104.167079,37.5629924 L104.107514,34.0924232 L104.148594,33.658602 L104.388907,33.2502997 L104.688786,32.9533526 L104.949639,32.6378463 L105.050283,32.115869 L104.608681,32.2527431 L103.846661,32.6378463 L103.446138,32.7747204 L101.796806,32.7979194 L100.328223,33.1598237 L98.6234334,34.0228262 L95.3268229,36.4517607 L94.4641585,36.7463879 L87.8524519,36.973738 L87.2711804,37.1987683 L87.1068634,37.0178161 L86.6262361,37.4493174 L83.532968,38.5837481 L82.9907218,38.562869 L82.425882,38.2891209 L79.9939899,40.6739773 L77.9235953,42.0334383 L77.22114,42.8291637 L76.5392243,43.0333149 L76.2598853,43.214267 L75.4732175,44.1236675 L75.2513895,44.4623728 L74.4893693,46.0770227 L73.9491771,46.7776322 L73.3227184,47.0513804 L73.343258,46.9145063 L73.3617437,46.5966801 L73.3822833,46.4621259 L72.8400371,46.529403 L72.4210287,46.483005 L72.0389916,46.276534 L71.6384688,45.7800756 L71.1722192,45.4622494 L70.7901821,45.6895995 L70.2890152,46.483005 L69.9295717,46.7776322 L69.4263508,46.9817834 L68.9416155,46.9817834 L68.7013019,46.5734811 L68.580118,46.3484509 L68.360344,46.3252519 L68.1200304,46.3716499 L67.918742,46.276534 L67.2368263,45.4622494 L67.1156425,45.1885013 L67.0766172,45.0075491 L66.9965126,44.8706751 L66.7520911,44.6897229 L66.4912378,44.5992469 L66.2098449,44.5760479 L65.9695312,44.6897229 L65.7682428,44.9379521 L65.6080337,45.0980252 L65.3677201,45.1421033 L64.8460135,45.1653023 L64.7659089,45.3021763 L64.4804081,45.8473526 L64.3407386,46.0538237 L63.878597,46.1442997 L62.9563676,46.0770227 L62.1512142,46.6198791 L59.7583474,46.506204 L59.2366408,46.3020529 L58.8977369,45.7336776 L58.6553693,44.2814207 L58.5567791,44.0772695 L58.3554907,43.9867935 L57.28743,43.6248892 L57.067656,43.3743401 L57.0471164,42.9428388 L56.6856189,42.7131688 L56.2460708,42.3512645 L55.8845734,41.8756851 L55.7038246,41.4001058 L55.4778887,41.1495567 L54.4960944,40.2401562 L54.1941619,39.8782519 L53.7546138,38.6510252 L53.411602,38.1313678 L53.027511,38.3123199 L52.8262226,38.449194 L52.6660135,38.1986448 L52.4256998,37.5838715 L52.2860304,37.5629924 L51.8238887,37.7903426 L51.6041147,37.7694635 L51.3822867,37.6070705 L51.1378651,37.0874131 L50.9571164,36.860063 L50.7763676,36.813665 L50.5565936,36.860063 L50.3758449,36.860063 L50.2752007,36.6327128 L49.9938078,36.4076826 L47.8843879,36.0875365 L44.7520944,36.1780126 L43.7045734,36.4076826 L42.2195582,37.0642141 L41.9361113,37.4725164 L41.8149275,38.0849698 L41.45343,38.7670202 L40.9728027,39.3121965 L40.5312007,39.5372267 L40.5312007,39.3562746 L40.8516189,38.7206222 L41.1124722,37.8808186 L41.4349444,37.1314912 L42.4619258,36.4076826 L42.9630927,35.7465113 L43.1027622,35.2268539 L42.5420304,35.2500529 L42.2606374,35.431005 L41.4349444,36.2012116 L40.6708702,37.1987683 L40.0895987,37.5397935 L39.5843238,38.2891209 L39.3029309,38.4723929 L38.6620944,38.6510252 L38.4608061,38.8574962 L38.7627386,39.1753224 L37.8589949,40.8549295 L37.2736155,41.717932 L36.9922226,41.5578589 L37.0538415,41.3769068 L37.2140506,41.2400327 L37.3947993,41.1263577 L37.5344688,40.9918035 L37.5550084,40.8317305 L37.4749039,40.6507783 L37.0127622,39.8550529 L36.912118,39.5604257 L36.9737369,39.2657985 L37.0743811,38.9943703 L37.0928668,38.6974232 L37.0538415,38.4283149 L36.912118,38.1754458 L37.1134064,37.6302695 L37.2736155,36.950539 L37.3537201,36.2267305 L37.3537201,35.5887582 L37.193511,35.0203829 L36.8730927,34.4984055 L36.470516,34.0924232 L36.1295582,33.8186751 L35.9898887,33.8418741 L35.8892445,33.9787481 L35.749575,34.0460252 L35.6099056,33.865073 L35.5893659,33.728199 L35.6694705,33.4126927 L35.749575,32.6146474 L35.749575,32.2527431 L35.6283912,31.9581159 L35.1641956,31.6170907 L34.1413221,31.5938917 L33.6401551,31.4825365 L33.1780135,31.0951134 L33.093801,30.596335 L33.1780135,30.0047607 L33.1780135,29.2345542 L32.9335919,28.5965819 L32.4919899,28.6197809 L32.0298482,28.9631259 L29.0783035,32.2295441 L28.552489,32.5682494 L28.4313052,32.6842443 L28.1314266,33.5681259 L28.0718617,33.728199 L27.9712175,34.0019471 L27.4084317,35.270932 L27.1085531,35.6792343 L26.9278044,35.7697103 L26.3218853,35.9529824 L25.5804047,36.3844836 L25.3791164,36.4517607 L24.4158078,36.3148866 L24.0111771,36.4076826 L23.6106543,36.836864 L22.3474671,38.6301461 L20.8994233,40.059204 L19.2295514,41.1031587 L11.6750759,42.8964408 L10.9130556,43.4184181 L7.65547049,47.2323325 L6.89345025,47.7983879 L3.55576054,49.3202418 L2.59245194,50.0904484 L2.35213828,50.1809244 L1.71130185,50.2945995 L1.20602698,50.5010705 L0.743885329,50.7956977 L0.343362563,51.1367229 L0.281743676,51.2944761 L0.423467116,51.8396524 L0.522057336,52.1342796 L0.622701518,52.2479547 L0.764424958,52.3152317 L0.984198988,52.3384307 L1.14440809,52.3152317 L1.26559191,52.2479547 L1.60654975,51.9742065 L1.72978752,51.9533275 L1.87151096,52.0206045 L2.11182462,52.4289068 L2.23300843,52.5425819 L2.59245194,52.5866599 L2.7937403,52.6330579 L2.99502867,52.8140101 L3.15523777,52.9276851 L3.39555143,52.9972821 L3.57630017,52.9972821 L3.77758853,53.0436801 L3.98093086,53.1550353 L4.26232378,53.4496625 L4.52317707,53.7698086 L4.76349073,54.2453879 L5.14347386,55.0387935 L5.76582462,56.2428212 L6.14786172,57.0130277 L6.35120405,57.581403 L6.4313086,57.7391562 L6.53195278,57.8528312 L7.09473862,57.9665063 L7.31451265,58.0105844 L7.89578415,58.1033804 L8.82417538,58.2843325 L10.007258,58.4884836 L11.4142226,58.7622317 L12.9834503,59.0359798 L14.6676998,59.3514861 L16.3971366,59.6693123 L18.147113,59.9639395 L19.8354705,60.2585668 L21.4005902,60.553194 L22.8075548,60.8037431 L24.0111771,61.0078942 L24.9169747,61.1656474 L25.5003002,61.2816423 L25.7200742,61.3048413 L26.4266374,61.4417154 L26.8682395,61.6226675 L28.0718617,62.1887229 L29.2795919,62.7547783 L30.5016998,63.3231537 L31.7299696,63.891529 L32.210597,64.1188791 L32.4714503,64.1188791 L32.6131737,64.0956801 L32.8925126,64.005204 L33.0342361,63.982005 L33.1780135,64.028403 L33.3382226,64.1652771 L33.539511,64.1861562 L33.6997201,64.1652771 L34.0797032,63.9356071 L34.2214266,63.9124081 L34.422715,63.9124081 L34.6219494,63.9611259 L34.9423676,64.0956801 L35.3839696,64.1861562 L36.0905329,64.4807834 L36.3103069,64.5039824 L36.470516,64.4575844 L36.8730927,64.0724811 L36.9922226,64.005204 L37.133946,64.005204 L37.2941551,64.028403 L37.4338246,64.028403 L37.5755481,63.982005 L37.79943,63.8010529 L37.9390995,63.7569748 L38.0808229,63.7082569 L38.241032,63.7082569 L38.4402664,63.7778539 L38.6620944,63.86833 L39.0030523,64.0956801 L39.2043406,64.1420781 L39.3645497,64.1188791 L39.4836796,64.051602 L39.625403,64.028403 L39.7856121,64.0724811 L40.4901214,64.3903073 L40.8516189,64.3903073 L41.233656,64.2093552 L41.4144047,64.2325542 L41.5951535,64.2998312 L42.1353457,64.6849345 L42.2606374,64.7081335 L42.5810556,64.7313325 L43.2629713,64.6617355 L43.4231804,64.6617355 L43.5833895,64.7081335 L43.944887,64.8890856 L44.3063845,64.9795617 L44.4707015,64.9795617 L44.6309106,64.9563627 L44.9123035,64.8658866 L45.0725126,64.8426877 L45.2327218,64.8890856 L45.7544283,65.2741889 L45.8940978,65.3205869 L46.21657,65.411063 L46.3952648,65.5224181 L46.5760135,65.7056902 L47.2024722,66.8192418 L47.2825767,67.0233929 L47.3031164,67.2948212 L47.2435514,67.4757733 L47.1819325,67.6126474 L46.8019494,68.2714987 L46.7608702,68.4292519 L46.7218449,68.5893249 L46.7218449,68.7934761 L46.8019494,68.9976272 L47.0217234,69.2481763 L47.1819325,69.3850504 L47.4838651,69.5196045 L47.8042833,69.6100806 L48.1247015,69.6564786 L48.2869646,69.6564786 L48.6073828,69.5868816 L48.9914739,69.3850504 L49.092118,69.3850504 L49.1927622,69.4059295 L49.2523272,69.4523275 L49.5131804,69.7469547 L49.6138246,69.8374307 L49.7329545,69.9279068 L49.8541383,69.9719849 L50.1950961,70.0415819 L51.0577605,70.0183829 L51.2220776,70.0415819 L51.3432614,70.1088589 L51.4623912,70.176136 L51.5424958,70.2898111 L51.8238887,70.6076373 L51.9245329,70.7236322 L52.4256998,71.0182594 L52.6454739,71.1760126 L52.9083811,71.4729597 L53.2082597,71.7675869 L53.3479292,71.9021411 L53.3890084,71.994937 L53.3890084,72.0830932 L53.3479292,72.2663652 L53.2883642,72.3568413 L53.0870759,72.5818715 L53.0685902,72.7419446 L53.0870759,72.9669748 L53.2678246,73.2639219 L53.6539696,73.8090982 L53.7340742,73.9691713 L53.7936391,74.1733224 L53.8347184,74.5816247 L53.8141788,74.8066549 L53.7546138,74.9876071 L53.6539696,75.1012821 L53.5533255,75.1708791 L53.411602,75.2381562 L53.3273895,75.3750302 L53.3479292,75.6464584 L53.5923508,76.2148338 L53.8347184,77.1010353 L53.853204,77.3028665 L53.853204,77.3956625 L53.8347184,77.5534156 L53.7546138,77.8735617 L53.63343,78.165869 L53.5533255,78.3004232 L53.4732209,78.418738 L52.8878415,79.0079924 L52.8077369,79.1448665 L52.7666577,79.3258186 L52.7871973,79.5508489 L52.8673019,79.9127531 L52.8673019,80.1633023 L52.8467622,80.3697733 L52.6865531,81.0054257 L52.6660135,81.1840579 L52.746118,81.3650101 L52.8878415,81.550602 L53.2082597,81.7083552 L53.3890084,81.7315542 L53.5533255,81.6851562 L53.7730995,81.504204 L53.8942833,81.457806 L54.0544924,81.4346071 L54.5166341,81.527403 L54.6768432,81.527403 L54.8165126,81.504204 L54.9561821,81.4346071 L56.3261754,80.4347305 L56.4453052,80.3929723 L56.566489,80.3929723 L56.7061585,80.4579295 L56.845828,80.6156826 L57.0265767,80.8685516 L57.1867858,81.0935819 L57.2278651,81.2536549 L57.2278651,81.4114081 L57.1477605,81.5946801 L56.8869073,81.9797834 L56.7657234,82.2512116 L56.3857403,83.5016373 L56.124887,84.7497431 L56.0838078,85.1116474 L56.0838078,86.0674458 L56.124887,86.2692771 L56.2850961,86.5175063 L56.626054,86.9049295 L57.1272209,87.3364307 L57.3675346,87.6078589 L57.4887184,87.7888111 L57.5482833,87.928005 L57.9138887,88.1739144 L59.0168668,88.4963804 L59.0374064,88.4012645 L58.7354739,87.1322796 L58.7354739,86.4943073 L59.5385734,85.8818539 L63.0775514,78.5300932 L63.157656,78.1867481 L63.1966813,77.4629395 L63.2767858,77.1683123 L63.6177437,76.669534 L63.7594671,76.3957859 L63.9587015,74.943529 L64.1189106,74.4679496 L64.6858044,73.2639219 L65.1068668,72.6955466 L65.6881383,70.8605063 L66.0085565,70.4939622 L66.8321956,70.0856599 L67.1361821,69.7469547 L67.3169309,68.7702771 L67.3764958,68.703 L67.3580101,67.3852972 L67.5182192,66.1835894 L67.7174536,65.5688161 L68.0193862,65.2741889 L68.14057,64.9122846 L68.360344,63.3695516 L68.5410927,62.9357305 L68.861511,62.8916524 L69.0217201,63.1885995 L69.0422597,63.5945819 L69.0217201,63.891529 L68.9025902,64.3230302 L68.580118,65.0468388 L68.5000135,65.387864 L68.5616324,65.9098413 L68.7403272,66.3204635 L68.9210759,66.6382897 L69.083339,66.9561159 L69.1675514,67.4316952 L69.1429039,68.863073 L69.2866813,69.3154534 L69.5064553,69.6332796 L69.7077437,69.7005567 L69.7488229,69.4059295 L69.8884924,69.1808992 L70.6114874,68.8166751 L71.0921147,68.656602 L71.4166408,68.4756499 L71.6774941,68.2251008 L71.7575987,67.9072746 L71.8582428,67.4525743 L72.2793052,66.5246146 L72.2402799,66.0931134 L72.460054,65.8889622 L72.6202631,65.6616121 L72.7414469,65.364665 L72.8010118,65.0027607 L72.5606981,64.4135063 L72.7804722,64.0956801 L73.2015346,63.9356071 L73.563032,63.891529 L74.3291602,64.3462292 L74.8303272,64.5039824 L75.2329039,64.1861562 L75.4526779,63.7569748 L75.7135312,63.4136297 L76.0175177,63.1422015 L76.3790152,62.8916524 L76.7610523,62.7315793 L77.0219056,62.7547783 L77.22114,62.9589295 L77.5025329,63.3463526 L77.0609309,65.364665 L77.1410354,65.6616121 L77.22114,65.7056902 L77.2622192,65.8425642 L77.2416796,65.9794383 L77.1821147,66.0467154 L77.0424452,66.0467154 L76.7610523,65.9330403 L76.6193288,65.9330403 L76.1592411,66.0003174 L75.9579528,66.0467154 L75.9579528,66.1371914 L75.9784924,66.2763854 L75.9189275,66.5478136 L75.8737403,66.9097179 L75.8532007,67.0465919 L75.7936358,67.113869 L75.6929916,67.137068 L75.5738617,67.1811461 L75.4937572,67.2948212 L75.3725734,68.1810227 L75.2719292,68.4524509 L74.7111973,69.1808992 L74.670118,69.5196045 L74.9720506,70.0183829 L75.2123642,70.3130101 L75.8532007,70.7236322 L76.2188061,71.0182594 L76.4385801,71.1528136 L76.6604081,71.1992116 L76.8411568,71.0391385 L76.8000776,70.7236322 L76.6994334,70.4266851 L76.6193288,70.2898111 L76.5803035,70.1552569 L76.4591197,69.9047078 L76.4200944,69.7237557 L76.4591197,69.4964055 L76.5803035,69.4291285 L76.719973,69.4291285 L76.8000776,69.3618514 L77.0814705,68.2714987 L77.3217841,67.8167985 L77.9235953,67.4989723 L78.0036998,67.2716222 L78.0242395,66.976995 L77.9831602,66.6382897 L78.0632648,66.4341385 L78.2892007,66.3436625 L78.7492884,66.2508665 L79.5133626,65.7288892 L79.6119528,65.5688161 L79.7331366,65.2277909 L79.8543204,65.0468388 L80.1336594,64.9122846 L80.8607622,64.7313325 L81.1401012,64.4807834 L81.261285,64.2766322 L81.1010759,64.0956801 L81.4420337,62.3696751 L81.9432007,61.0078942 L82.7504081,60.0544156 L86.024425,59.0359798 L86.7864452,59.0127809 L86.7864452,59.0127809 Z M72.3203845,44.6665239 L72.4210287,44.8706751 L72.5606981,45.0516272 L72.7209073,45.3230554 L72.8400371,45.6895995 L72.8400371,45.8937506 L72.8811164,46.0074257 L73.0824047,46.0979018 L73.2015346,46.0770227 L73.2220742,45.7568766 L73.3021788,45.6664005 L73.4233626,45.7104786 L73.5240067,45.8241537 L73.6041113,45.9610277 L73.6041113,46.0306247 L74.0292816,46.0074257 L74.2695953,45.8705516 L74.3702395,45.5063275 L74.2490556,45.1885013 L73.9882024,45.1653023 L73.7068094,45.2557783 L73.5034671,45.2117003 L73.4829275,44.9843501 L73.563032,44.6897229 L73.8279933,44.1677456 L73.5424924,43.6016902 L73.4028229,43.3952191 L73.1830489,43.260665 L72.7209073,43.1701889 L72.3594098,43.3511411 L72.1992007,43.7594433 L72.2197403,44.3718967 L72.3203845,44.6665239 L72.3203845,44.6665239 Z M33.5189713,28.4852267 L33.3977875,28.984005 L33.3793019,29.6869345 L33.479946,31.0046373 L33.759285,31.3456625 L35.5092614,31.2783854 L35.7084958,31.4361385 L36.0905329,31.8885189 L36.2302024,31.978995 L37.0743811,31.6866877 L37.2941551,31.3688615 L37.2530759,30.8236851 L36.9922226,30.526738 L36.5321349,30.9605592 L36.6718044,30.4571411 L36.9531973,29.8910856 L37.3146948,29.4155063 L37.5755481,29.2113552 L37.5139292,29.6869345 L37.5344688,30.7308892 L37.4933895,31.2319874 L37.3537201,31.7980428 L37.193511,32.069471 L36.6718044,32.5450504 L36.4109511,32.9092746 L36.3103069,33.2271008 L36.4109511,33.544927 L37.6556526,35.2500529 L37.9206138,35.0435819 L38.1403879,34.6584786 L38.4608061,33.8418741 L38.9229477,32.1831461 L39.0626172,31.8885189 L39.7445329,31.4129395 L39.8862563,31.0487154 L39.9293895,30.596335 L40.1697032,30.3689849 L40.4901214,30.2785088 L40.8721585,30.2344307 L40.8516189,30.0279597 L40.5907656,29.6869345 L40.6113052,29.1208791 L40.8125936,28.5525038 L41.0529073,28.1905995 L41.2932209,28.0769244 L41.5540742,28.0537254 L41.7943879,27.9864484 L42.0162159,27.7590982 L42.7022395,26.6687456 L42.8829882,26.4877935 L43.3430759,26.2395642 L43.5238246,26.0794912 L43.7846779,25.3510428 L43.9058617,25.2164887 L44.3063845,25.0819345 L44.6925295,24.7617884 L45.774968,23.5809597 L45.4340101,23.2445743 L44.7315548,23.0381033 L44.1461754,22.9476272 L44.3474637,22.5857229 L44.7315548,22.446529 L45.5736796,22.4024509 L46.5760135,21.9245516 L46.9826981,21.8131965 L47.4037605,21.8340756 L48.2048061,22.0173476 L48.6279224,22.0173476 L49.0120135,21.8572746 L49.6549039,21.3352972 L50.0944519,21.2471411 L50.0759663,21.04067 L49.7945734,20.8156398 L49.3529713,20.2240655 L49.0325531,19.9503174 L48.2869646,19.6092922 L47.8843879,19.5420151 L43.4437201,20.0871914 L41.8560067,20.5859698 L40.5312007,21.3352972 L40.2703474,21.5858463 L40.0094941,21.9709496 L39.8246374,22.1287028 L39.6048634,22.0846247 L39.3645497,21.9941486 L39.1427218,21.9709496 L39.0235919,22.0846247 L38.5614503,22.653 L37.0743811,23.6528766 L36.4910556,24.195733 L34.9033423,27.0097708 L34.6014098,27.418073 L33.8188499,28.0537254 L33.5189713,28.4852267 L33.5189713,28.4852267 Z M20.63857,10.3737733 L21.2794064,9.98867003 L21.299946,10.1905013 L20.5974907,10.6707204 L20.4372816,10.8725516 L20.2359933,11.5986801 L20.2770725,11.8492292 L20.3366374,11.8701083 L20.416742,11.8260302 L20.5173862,11.8933073 L20.9179089,12.3456877 L21.359511,12.4408035 L21.7805734,12.3248086 L24.898489,10.3505743 L25.9008229,10.0559471 L25.8802833,9.87499496 L24.1960337,10.0559471 L24.3973221,9.69172292 L25.0792378,9.1488665 L25.1388027,8.94471537 L29.8998887,6.22115365 L30.822118,5.4741461 L31.5286813,4.65290176 L31.5903002,4.51602771 L31.5492209,4.29099748 L31.3890118,3.76902015 L31.3684722,3.63446599 L31.7505093,2.97793451 L33.0527218,1.95253904 L33.5189713,1.38648363 L33.7387454,1.04545844 L33.8188499,0.88538539 L33.8599292,0.727632242 L33.6791804,1.04545844 L33.4183272,1.22641058 L32.8925126,1.45376071 L32.9541315,1.20553149 L33.0732614,0.97818136 L33.4594064,0.590758186 L32.1120067,1.59063476 L31.7505093,1.99893703 L31.4095514,1.88526196 L30.822118,2.24948615 L30.5818044,2.13349118 L29.2590523,3.49759194 L29.217973,3.08696977 L28.6777808,3.79221914 L27.8315481,4.56242569 L27.0079089,5.12848111 L26.506742,5.19807809 L26.1822159,5.60870025 L25.7406138,5.97060453 L25.2784722,6.19795466 L24.898489,6.17475567 L24.2761383,6.74313098 L21.7210084,8.55961209 L20.0963238,10.1232242 L20.3160978,10.4201713 L20.63857,10.3737733 L20.63857,10.3737733 Z M88.7561956,86.132403 L88.5959865,86.0442469 L88.4152378,85.902733 L88.072226,86.0883249 L87.8319123,86.5175063 L87.7518078,87.0186045 L87.8935312,87.4269068 L88.3536189,87.6310579 L88.6760911,87.2668338 L88.8958651,86.6567003 L89.1361788,86.178801 L88.9369444,86.178801 L88.7561956,86.132403 L88.7561956,86.132403 Z M90.4835784,85.1789244 L91.005285,84.7033451 L90.7054064,84.452796 L90.725946,84.0908917 L90.8450759,83.7034685 L90.8450759,83.3160453 L90.6643272,82.9773401 L90.4034739,82.7963879 L90.0830556,82.6363149 L89.8016627,82.4344836 L89.5017841,82.5017607 L89.2963879,82.7267909 L89.0766138,83.3392443 L89.9228465,84.7706222 L90.4835784,85.1789244 L90.4835784,85.1789244 Z M118.859076,53.3359874 L118.292182,53.2014332 L118.072408,53.5401385 L117.951224,53.6561335 L117.971764,53.8602846 L118.131973,53.8602846 L118.212078,53.9066826 L118.292182,53.9507607 L118.413366,53.9971587 L118.173052,54.2453879 L118.635194,54.4263401 L119.019285,54.495937 L119.822384,54.4031411 L119.662175,54.0876348 L119.460887,53.8834836 L119.220573,53.8138866 L118.93918,53.9066826 L119.019285,53.4960605 L118.859076,53.3359874 L118.859076,53.3359874 Z M91.8124924,73.4448741 L91.7118482,73.4031159 L91.6276358,73.423995 L91.5269916,73.5817481 L92.553973,75.010806 L92.7347218,75.1708791 L92.7942867,74.6257028 L92.5950523,74.1733224 L92.2540944,73.7858992 L91.8124924,73.4448741 L91.8124924,73.4448741 Z M169.33316,136.17727 L169.513909,135.179713 L169.33316,134.182156 L169.152411,134.022083 L168.951123,133.590582 L168.230182,132.388874 L167.985761,132.161524 L167.805012,131.887776 L166.059143,126.939431 L164.933572,121.877411 L163.970263,119.701345 L161.659555,111.551539 L160.692138,109.985607 L160.531929,109.579625 L160.390206,108.98805 L160.149892,108.53335 L158.862057,106.946539 L158.120577,106.334086 L157.317477,105.877065 L154.908179,104.969985 L154.42139,104.993184 L154.020867,105.130058 L153.078098,105.652035 L152.817245,105.877065 L152.231865,106.879262 L151.911447,107.194768 L151.268556,107.398919 L151.028243,107.535793 L150.62772,108.011373 L150.385352,108.148247 L148.957848,108.440554 L148.777099,108.554229 L148.63743,108.693423 L148.477221,108.918453 L148.015079,109.91833 L147.955514,110.14568 L147.690553,110.417108 L145.965224,110.983164 L146.365747,111.07364 L146.768324,111.006363 L147.129821,111.029562 L147.40916,111.372907 L146.848428,112.303186 L146.546496,112.91332 L146.447906,113.479375 L146.406826,114.161426 L145.644806,115.773756 L145.379845,117.135537 L145.118992,117.724791 L144.718469,117.703912 L144.597285,117.476562 L144.457616,117.158736 L144.297406,116.977783 L144.096118,117.181935 L143.048597,119.634068 L142.446786,120.562028 L141.744331,121.151282 L140.918637,121.128083 L140.016948,120.675703 L138.952995,120.51795 L138.488799,120.244202 L137.463872,119.972773 L136.962705,119.724544 L136.47797,119.223446 L136.015828,118.494997 L135.775514,117.680713 L135.976803,116.884987 L135.997342,116.59036 L135.816594,115.613683 L135.816594,115.161302 L135.997342,114.799398 L136.178091,114.504771 L136.178091,114.231023 L135.775514,113.936395 L136.196577,111.52834 L136.597099,110.507584 L137.365282,109.964728 L137.605595,109.941529 L138.065683,110.032005 L138.326536,110.008806 L138.507285,109.895131 L138.827703,109.579625 L139.033099,109.46595 L139.234388,109.46595 L139.634911,109.556426 L139.875224,109.533227 L139.955329,109.352275 L140.016948,108.577428 L140.055973,108.285121 L140.396931,107.964975 L141.364347,107.760824 L141.705305,107.468516 L141.705305,107.171569 L141.625201,106.809665 L141.604661,106.491839 L141.805949,106.334086 L141.925079,106.174013 L141.945619,105.809788 L141.76487,103.724199 L141.805949,102.406496 L142.085288,101.292945 L142.787744,100.592335 L142.968492,100.522738 L143.594951,100.453141 L143.553872,100.636413 L143.473767,101.114312 L143.434742,101.292945 L143.675056,100.975118 L144.395997,99.5692594 L144.53772,99.1586373 L144.638364,99.0472821 L145.199096,98.9336071 L145.379845,98.819932 L145.620159,98.2956348 L145.683831,98.0265264 L145.724911,97.6159043 L145.704371,96.4141965 L144.979322,90.0367935 L144.979322,89.4243401 L145.219636,88.2875894 L145.199096,87.6310579 L145.059427,87.0186045 L144.718469,85.8586549 L144.457616,84.475995 L144.256327,83.9076196 L144.036553,83.4088413 L143.75516,82.9541411 L143.675056,82.7963879 L143.615491,82.5017607 L143.535386,82.3648866 L143.369015,82.2744106 L143.028057,82.1398564 L142.606995,81.7547531 L142.005184,81.457806 L141.725845,81.2304559 L141.485531,80.9845466 L141.323268,80.7966348 L141.243164,80.5252065 L141.163059,80.0055491 L141.058307,79.824597 L140.898098,79.7109219 L140.737889,79.6413249 L140.657784,79.5740479 L140.637245,79.3026196 L140.717349,79.1657456 L140.817993,79.0520705 L140.838533,78.8247204 L140.799508,78.073073 L140.898098,77.5070176 L141.243164,77.1219144 L141.90454,76.9200831 L142.105828,77.0105592 L142.606995,77.5302166 L142.908927,77.7343678 L143.229346,77.8271637 L143.574411,77.8271637 L144.276867,77.7343678 L144.016013,77.2355894 L143.229346,76.9641612 L142.989032,76.3053098 L143.048597,76.3053098 L143.169781,76.2821108 L143.30945,76.1916348 L143.35053,76.0338816 L143.30945,75.8297305 L143.249885,75.7137355 L143.19032,75.6232594 L143.149241,75.5559824 L143.089676,75.2822343 L142.849363,74.5352267 L142.707639,74.3101965 L142.506351,74.2405995 L142.227012,74.2174005 L141.986698,74.1501234 L141.844975,73.9459723 L141.183599,73.1270479 L140.717349,72.3777204 L140.637245,72.1062922 L140.618759,71.7675869 L140.717349,71.5402368 L141.039821,71.0855365 L140.156617,70.268932 L139.234388,69.6100806 L138.266971,69.1808992 L137.365282,69.0904232 L136.701852,69.2481763 L136.418405,69.2481763 L135.594766,68.9976272 L135.294887,68.9976272 L134.953929,68.9071511 L134.34801,68.2251008 L133.947487,67.9977506 L133.725659,67.9977506 L133.002664,68.1555038 L132.743865,68.1323048 L132.16054,67.9513526 L131.435491,67.8608766 L131.014428,67.5453703 L130.231868,66.7960428 L129.284992,66.4341385 L126.292368,66.8192418 L125.871305,66.6823678 L125.509808,66.2972645 L125.265386,65.7752872 L125.125717,65.2741889 L124.963454,64.8426877 L124.663575,64.4135063 L123.981659,63.7082569 L123.279204,63.2094786 L122.332327,62.8011763 L121.329993,62.5738262 L120.442681,62.6411033 L118.614654,63.1190025 L117.791015,62.9125315 L116.123197,61.7363426 L113.391427,60.713267 L112.709511,60.1912897 L112.368553,60.1008136 L112.007056,60.3026448 L111.822199,60.5995919 L111.721555,60.9406171 L111.540806,61.2607632 L111.179309,61.4625945 L108.568722,61.7363426 L107.806702,61.5762695 L107.827241,61.7804207 L108.12712,61.9845718 L108.88914,62.6643023 L108.969245,62.8011763 L108.74947,63.0262065 L108.12712,64.3903073 L107.081653,65.501539 L106.598971,66.1603904 L106.299093,67.113869 L106.299093,68.2251008 L106.539406,69.2713753 L106.960469,70.176136 L107.424664,70.8141083 L108.12712,71.4265617 L108.468078,71.6075139 L110.298159,71.6307128 L110.678142,71.7675869 L110.298159,72.6050705 L109.371821,73.1502469 L108.287329,73.423995 L106.539406,73.5585491 L105.697282,73.8763753 L102.780654,76.1452368 L102.199383,76.8968841 L101.837885,77.8016448 L101.817346,78.9383955 L102.65947,82.5690378 L102.70055,85.2925995 L102.359592,87.721534 L101.716702,89.9695164 L100.714368,92.6234811 L100.568536,92.8508312 L100.328223,92.9645063 L100.108449,92.8740302 L100.007804,92.6698791 L100.028344,92.3752519 L100.248118,91.8091965 L100.268658,91.4890504 L100.209093,90.830199 L100.268658,90.6260479 L100.673288,90.0367935 L100.854037,89.447539 L100.934142,88.8118866 L100.954681,88.1298363 L100.913602,87.4501058 L100.913602,87.1090806 L101.075865,86.7239773 L101.075865,86.4038312 L100.954681,86.0442469 L100.714368,85.8586549 L100.428867,85.8354559 L100.209093,86.0210479 L100.128988,86.3133552 L100.087909,86.7703753 L100.108449,87.561461 L100.067369,87.928005 L99.9276998,88.2203123 L99.5662024,88.7886877 L99.7264115,88.7886877 L100.128988,88.9232418 L99.9872648,89.2201889 L99.6072816,89.6516902 L99.5456627,89.8999194 L99.5456627,90.783801 L99.5066374,91.2385013 L99.2868634,91.6955214 L99.2663238,92.1711008 L99.1862192,92.465728 L98.8041821,92.2615768 L98.6049477,92.0110277 L98.1592378,91.2176222 L97.978489,90.6260479 L98.1592378,89.6957683 L98.6850523,87.698335 L98.7240776,87.2668338 L98.6645126,86.8608514 L98.4837639,86.5662242 L98.3194469,86.5175063 L97.8182799,86.7912544 L97.9189241,86.2460781 L98.1181585,85.5408287 L98.4036594,84.8842972 L98.7446172,84.58967 L98.865801,84.3182418 L98.6645126,83.7939446 L98.1982631,82.840466 L98.0976189,81.9797834 L98.3584722,81.6178791 L98.6850523,81.4786851 L98.8247218,81.2072569 L98.9253659,80.7293577 L99.1061147,80.1633023 L99.1061147,79.755 L98.643973,79.731801 L98.1797774,80.3929723 L97.8983845,80.4811285 L97.6375312,80.4811285 L97.4157032,80.5716045 L97.1959292,80.8430327 L96.4339089,83.0910151 L96.1935953,83.5480353 L95.4274671,84.5455919 L95.267258,84.8170202 L95.2261788,85.3366776 L94.4641585,87.8352091 L94.2628702,88.1971134 L93.9629916,88.3780655 L93.6179258,88.3107884 L92.9565497,87.8120101 L92.6546172,87.7424131 L92.5149477,87.721534 L92.2540944,87.6310579 L92.0938853,87.6310579 L91.892597,87.721534 L91.8515177,87.8792872 L91.8720573,88.0602393 L91.833032,88.2643904 L91.2661383,89.5612141 L91.0463642,89.8326423 L90.8861551,89.8558413 L90.7444317,89.7862443 L90.6047622,89.7189673 L90.504118,89.6957683 L89.8817673,89.7862443 L89.5613491,89.9903955 L89.5223238,90.3986977 L89.7215582,91.3289773 L89.7420978,93.985262 L89.9228465,94.4631612 L89.8016627,94.8482645 L89.6024283,95.0524156 L89.3580067,95.1660907 L89.0355346,95.2333678 L88.8363002,95.2333678 L88.4953423,95.0964937 L88.3536189,95.0964937 L88.2139494,95.2101688 L87.9325565,95.5303149 L87.2301012,95.8898992 L86.7248263,96.4814736 L86.5050523,97.254 L86.8254705,98.0938035 L87.2301012,98.7549748 L87.4724688,99.4555844 L87.5525734,100.181713 L87.4108499,102.202345 L87.3122597,102.54105 L87.2506408,102.905275 L87.351285,103.858753 L87.3122597,104.267055 L87.6922428,105.197335 L87.571059,106.491839 L87.2116155,107.716746 L86.5050523,109.600504 L85.8827015,112.008559 L85.3815346,113.163869 L84.0341349,114.820277 L83.532968,115.773756 L83.5925329,116.910506 L83.8533862,117.362887 L84.5353019,118.179491 L84.8351804,118.768746 L85.081656,119.021615 L85.2418651,119.290723 L85.1412209,119.995972 L85.2007858,120.334678 L85.3815346,120.791698 L86.0038853,123.285589 L86.024425,124.375942 L85.6218482,125.463975 L84.695511,127.145902 L84.4346577,128.143458 L84.4942226,129.321967 L84.7160506,129.936741 L85.2808904,130.936617 L85.5417437,131.818179 L89.4422192,139.742955 L89.8632816,140.128058 L90.0830556,139.763834 L91.4078617,139.081783 L91.3462428,139.513285 L91.0853895,139.944786 L90.725946,140.30901 L90.4034739,140.489962 L90.1241349,140.717312 L90.2432648,141.172013 L91.6070961,144.099725 L91.9131366,145.255035 L92.2130152,145.937086 L92.5745126,146.572738 L92.8559056,146.911443 L92.8743912,147.048317 L92.8559056,147.115594 L92.8353659,147.138793 L92.8743912,147.138793 L92.8148263,147.164312 L92.7552614,147.187511 L92.7347218,147.231589 L92.7552614,147.345264 L93.0962192,148.069073 L93.9835312,155.627305 L93.6774907,162.846831 L93.3365329,165.162091 L92.2335548,169.588458 L90.3439089,173.648282 L88.6945767,179.594184 L87.8134266,181.661214 L86.6652614,183.384899 L85.521204,184.315179 L85.3609949,184.679403 L85.1802462,185.020428 L84.3750927,185.656081 L84.9810118,185.586484 L86.5646172,185.361453 L88.1543845,185.157302 L89.7215582,184.927632 L91.3257032,184.723481 L92.8949309,184.498451 L96.0683035,184.06463 L97.6580708,183.83728 L99.2457841,183.612249 L100.833497,183.384899 L102.419157,183.157549 L105.596637,182.705169 L107.161757,182.480139 L108.74947,182.22727 L110.337184,181.999919 L111.926951,181.774889 L113.510556,181.545219 L115.079784,181.29699 L116.667497,181.046441 L118.253157,180.821411 L119.84087,180.570861 L121.430637,180.345831 L122.995757,180.095282 L124.58347,179.847053 L126.171184,179.617383 L126.393012,181.341068 L128.081369,181.002363 L129.765619,180.661338 L131.45603,180.322632 L133.144388,179.981607 L134.832745,179.640582 L136.516995,179.299557 L138.207406,178.958531 L139.895764,178.596627 L141.584121,178.255602 L143.270425,177.916897 L144.958782,177.552673 L146.64714,177.213967 L148.335497,176.849743 L150.021801,176.506398 L151.710159,176.144494 L153.38003,175.782589 L153.318411,175.555239 L153.359491,175.146937 L153.49916,174.873189 L153.739474,174.782713 L153.940762,174.921907 L154.100971,174.898708 L154.020867,174.102982 L154.000327,173.490529 L154.100971,172.945353 L154.745916,171.333023 L155.027309,170.901521 L155.429885,170.92472 L155.50999,170.064038 L155.750304,169.405186 L156.191906,169.08736 L156.773177,169.245113 L156.832742,168.85769 L156.812202,168.472587 L156.672533,168.110683 L156.432219,167.839254 L157.038138,167.658302 L157.317477,167.340476 L157.59887,165.953176 L157.720054,166.157327 L157.839184,166.294202 L158.100037,166.521552 L157.980907,166.317401 L157.939828,166.157327 L157.839184,165.728146 L157.759079,165.547194 L157.539305,165.273446 L157.47974,165.162091 L157.47974,164.72827 L157.559845,164.456841 L157.59887,164.229491 L157.47974,163.934864 L157.539305,163.774791 L157.660489,163.276013 L157.880263,159.986395 L158.161656,158.875164 L158.882597,157.513383 L159.207123,156.900929 L159.529595,156.446229 L160.731164,155.650504 L161.374054,155.423154 L161.538371,155.309479 L161.799224,155.017171 L162.101157,154.560151 L162.36201,154.038174 L162.442115,153.583474 L162.421575,153.19837 L162.540705,152.611436 L162.540705,152.247212 L162.4606,151.931705 L162.220287,151.541962 L162.119642,151.249655 L162.080617,150.67896 L162.140182,149.97835 L162.261366,149.389096 L162.4606,149.115348 L163.302725,148.546972 L163.545093,148.433297 L163.748435,148.386899 L163.869619,148.229146 L163.908644,147.820844 L163.384884,147.572615 L162.963821,147.004239 L162.863177,146.412665 L163.302725,146.07164 L163.768975,145.84429 L164.109933,145.459186 L164.430351,145.006806 L164.871953,144.552106 L165.132806,144.68898 L166.038604,144.962728 L166.44118,144.893131 L166.480206,145.255035 L166.381616,145.709736 L166.340536,146.141237 L166.480206,146.319869 L166.702034,146.505461 L166.821164,146.800088 L166.660954,147.322065 L167.143636,147.753567 L167.303845,147.820844 L166.782138,148.250025 L166.660954,148.477375 L166.681494,148.59105 L167.383949,148.3637 L167.985761,147.934519 L168.449956,147.254788 L168.790914,146.319869 L168.971663,145.482385 L169.232516,143.234403 L169.193491,141.965418 L169.232516,141.397043 L169.193491,141.081537 L169.092847,140.851866 L168.790914,140.30901 L168.772428,139.810232 L168.932637,138.898511 L168.932637,138.309257 L169.012742,137.223544 L169.33316,136.17727 L169.33316,136.17727 Z M98.8247218,62.3928741 L98.9048263,62.256 L98.9253659,62.1214458 L98.8842867,61.9172947 L98.7651568,61.9172947 L98.6234334,61.9845718 L98.4837639,61.9613728 L98.1592378,61.7131436 L97.756661,61.4625945 L97.6765565,61.4417154 L97.6169916,61.4417154 L97.536887,61.4161965 L97.4773221,61.3048413 L97.4567825,61.9172947 L97.756661,62.325597 L98.1982631,62.5506272 L98.6234334,62.5738262 L98.7240776,62.5065491 L98.8247218,62.3928741 L98.8247218,62.3928741 Z M116.628472,58.8991058 L116.102658,58.9455038 L115.681595,59.3282872 L115.981474,59.6229144 L117.028995,60.3490428 L117.77253,61.0542922 L118.072408,61.2143652 L118.433906,61.2607632 L118.859076,61.2375642 L119.259599,61.1447683 L119.561531,60.9846952 L119.760766,60.6691889 L120.021619,59.7829874 L120.181828,59.4419622 L119.540992,59.3282872 L119.259599,59.147335 L119.138415,58.7622317 L118.797457,58.4444055 L118.719406,58.6021587 L118.737892,58.9895819 L118.657788,59.2610101 L118.454445,59.2610101 L117.951224,59.0359798 L116.628472,58.8991058 L116.628472,58.8991058 Z M96.8960506,64.4807834 L96.7954064,64.8658866 L96.653683,65.2092317 L96.5140135,65.501539 L96.4133693,65.8193652 L96.3332648,67.113869 L96.1093828,67.7472015 L96.0683035,68.2251008 L96.5550927,68.679801 L97.1753895,68.7702771 L97.8778449,68.4524509 L98.4426847,67.9072746 L98.6850523,67.2275441 L98.643973,66.7960428 L98.3399865,66.0235164 L98.2393423,65.5688161 L98.2393423,64.9122846 L98.2188027,64.5944584 L98.0791332,64.2998312 L97.9579494,64.0724811 L97.9579494,63.86833 L98.0585936,63.6409798 L98.2393423,63.4368287 L97.9189241,63.3463526 L97.2164688,63.3463526 L96.875511,63.2326776 L96.9350759,63.7778539 L96.9350759,64.1652771 L96.8960506,64.4807834 L96.8960506,64.4807834 Z" id="Fill-57" fill="#D6D6D6"></path>
                <path d="M128.662641,52.1342796 L128.804364,52.1783577 L128.884469,52.1783577 L128.923494,51.8164534 L129.124782,51.8860504 L129.365096,52.1110806 L129.504766,52.2920327 L129.664975,52.4289068 L130.190789,52.700335 L130.332513,52.9972821 L130.350998,53.0645592 L130.472182,53.0204811 L130.652931,52.8372091 L130.733035,52.7908111 L131.45603,52.677136 L131.655265,52.723534 L131.895578,52.8812872 L132.142054,52.9485642 L132.281723,52.8372091 L132.682246,52.3152317 L133.103309,52.2711537 L133.965973,52.677136 L134.452762,52.7676121 L135.034034,52.746733 L135.55574,52.5657809 L135.876159,52.2479547 L136.137012,51.2712771 L136.356786,50.5451486 L136.356786,50.2041234 L135.935723,49.9326952 L135.455096,49.9094962 L134.992954,49.7285441 L134.693076,48.9815365 L134.491788,48.4340403 L134.087157,48.072136 L133.164927,47.7079118 L131.936658,47.842466 L131.394411,48.048937 L131.45603,48.5036373 L131.716884,48.6405113 L131.996223,48.6637103 L132.242698,48.7750655 L132.261184,49.0256146 L132.302263,49.2761637 L132.222159,49.568471 L132.016762,49.7517431 L131.5957,50.0231713 L131.154098,50.3850756 L130.934324,50.5010705 L130.632391,50.5915466 L130.513261,50.7261008 L130.291433,51.3408741 L130.092199,51.4986272 L129.685514,51.2944761 L129.225427,50.9534509 L128.804364,50.8629748 L128.522971,51.5218262 L128.522971,51.9533275 L128.662641,52.1342796 L128.662641,52.1342796 Z M121.991369,42.8523627 L121.490202,42.9196398 L121.371073,43.191068 L121.389558,43.6016902 L121.350533,44.1445466 L121.792135,44.6224458 L122.213197,45.2557783 L122.673285,45.5736045 L123.17856,45.1653023 L123.199099,44.5319698 L122.833494,43.7826423 L122.352867,43.1469899 L121.991369,42.8523627 L121.991369,42.8523627 Z M158.079497,161.118506 L157.960368,161.322657 L157.859723,163.050982 L157.919288,163.958063 L158.200681,164.208612 L158.40197,163.707514 L158.36089,162.823632 L158.079497,161.118506 L158.079497,161.118506 Z M119.72174,39.1289244 L119.941514,39.4026725 L120.042159,39.7877758 L120.403656,40.8758086 L120.563865,41.2168338 L120.92947,41.4905819 L121.329993,41.671534 L121.590847,41.9661612 L121.549767,42.3744635 L121.549767,42.4881385 L122.011909,42.4881385 L122.252223,42.5322166 L122.693825,42.7827657 L122.75339,42.5786146 L122.73285,42.3280655 L122.73285,42.2839874 L122.652745,42.1262343 L122.453511,41.9893602 L121.430637,40.5579824 L121.288914,40.3097531 L121.229349,39.991927 L121.149245,39.4026725 L121.208809,39.0616474 L121.570307,37.9040176 L121.792135,37.4261184 L121.83116,37.3124433 L121.8517,37.2219673 L121.952344,37.1546902 L121.570307,36.9946171 L120.783639,37.0178161 L120.422142,36.7695869 L120.303012,36.883262 L119.561531,37.8599395 L119.319164,38.2659219 L119.138415,38.8806952 L119.360243,39.0616474 L119.72174,39.1289244 L119.72174,39.1289244 Z M86.7864452,59.0127809 L88.072226,59.2842091 L89.2963879,59.8734635 L89.1361788,59.193733 L89.2368229,58.7413526 L89.5818887,58.4444055 L91.6070961,57.8296322 L94.1232007,57.511806 L94.4230793,57.2867758 L94.6449073,56.7879975 L94.9242462,55.7881209 L95.988199,53.8834836 L96.3538044,53.5633375 L97.9189241,53.4960605 L98.4837639,53.0436801 L98.6645126,52.9740831 L98.8842867,53.0877582 L99.14514,53.3151083 L99.3854536,53.4496625 L99.586742,53.3359874 L99.9482395,52.9485642 L100.369302,53.0645592 L101.176509,53.6329345 L101.597572,53.7257305 L102.903892,53.5633375 L103.366034,53.6329345 L104.469012,54.1549118 L106.418223,54.472738 L106.77972,54.7209673 L107.584874,55.5166927 L107.847781,55.6535668 L108.047015,55.8113199 L108.568722,56.5838463 L108.788496,56.7415995 L109.170533,56.7415995 L109.655268,56.8552746 L110.076331,57.1267028 L110.298159,57.6254811 L110.739761,58.1033804 L111.66199,58.4884836 L112.567788,58.5116826 L113.050469,57.8969093 L112.688971,57.7391562 L112.469197,57.2171788 L112.448658,56.5838463 L112.709511,56.131466 L112.469197,55.969073 L112.327474,55.6976448 L112.306934,55.3566196 L112.428118,54.9483174 L112.668432,54.6768892 L112.86972,54.6072922 L112.98885,54.472738 L113.00939,52.9044861 L113.370887,52.4729849 L113.931619,52.4729849 L114.599157,52.7908111 L114.9586,52.4729849 L115.361177,52.5657809 L115.720621,52.9485642 L115.901369,53.4728615 L115.962988,53.8602846 L116.043093,53.9971587 L116.223841,53.9275617 L116.303946,53.8602846 L116.568907,53.5401385 L116.708577,53.4496625 L117.330927,53.9507607 L117.369953,53.3151083 L117.450057,53.0877582 L118.553035,53.0645592 L119.09939,53.3591864 L119.419808,53.4287834 L119.419808,53.3591864 L119.540992,53.2014332 L119.680661,53.0436801 L119.822384,52.9485642 L120.101723,52.9740831 L120.522786,53.1759144 L120.744614,53.2014332 L121.991369,52.9485642 L126.010975,53.1759144 L126.171184,53.2455113 L126.393012,53.2687103 L126.553221,53.1341562 L126.71343,52.9485642 L126.935258,52.8372091 L127.962239,52.4961839 L128.262118,52.6098589 L128.241578,52.2711537 L128.262118,51.9742065 L128.381248,51.364073 L128.021804,51.3153552 L127.740411,51.1367229 L127.47545,50.9093728 L127.194057,50.7492997 L126.793535,50.7052217 L126.473116,50.7052217 L126.171184,50.6565038 L125.81174,50.3618766 L124.983993,49.501194 L124.844324,49.2761637 L124.803245,48.8446625 L124.903889,48.5036373 L125.064098,48.1858111 L125.205821,47.7983879 L124.924428,47.842466 L124.684115,47.7751889 L124.221973,47.5710378 L124.082304,47.5710378 L123.82145,47.6615139 L123.681781,47.6615139 L123.581137,47.5478388 L123.340823,47.0954584 L122.975218,47.0281814 L122.373406,47.0281814 L121.8517,47.1418564 L121.650411,47.4573627 L121.449123,47.6847128 L120.947956,47.2532116 L120.5043,46.6871562 L120.483761,46.3484509 L120.908931,46.1211008 L121.449123,45.3949723 L121.911265,45.2789773 L121.629872,44.803398 L121.0486,44.1004685 L120.863744,43.5344131 L120.62343,42.4185416 L120.463221,41.8988841 L120.303012,41.671534 L119.499912,40.3097531 L119.179494,39.5604257 L118.292182,38.6301461 L117.932739,38.356398 L117.450057,38.2218438 L116.98997,38.2450428 L116.568907,38.4051159 L116.262867,38.7438212 L115.681595,39.991927 L115.180428,40.5811814 L114.477973,41.1936348 L113.711845,41.5137809 L113.029929,41.1936348 L113.130573,40.5811814 L112.567788,39.8782519 L111.762634,39.4931486 L111.160823,39.7645768 L110.719221,40.3561511 L110.09687,40.7853325 L109.410847,41.1031587 L108.788496,41.2864307 L108.468078,41.2632317 L107.584874,40.8317305 L106.839285,40.7644534 L106.699616,40.6948564 L106.379197,40.3329521 L106.177909,40.2401562 L105.917056,40.3097531 L105.335784,40.7412544 L105.029744,40.8317305 L104.649761,40.7644534 L104.368368,40.5347834 L104.148594,40.1937582 L103.967845,39.7877758 L104.409447,39.0384484 L104.549116,38.4955919 L104.167079,37.5629924 L104.107514,34.0924232 L104.148594,33.658602 L104.388907,33.2502997 L104.688786,32.9533526 L104.949639,32.6378463 L105.050283,32.115869 L104.608681,32.2527431 L103.846661,32.6378463 L103.446138,32.7747204 L101.796806,32.7979194 L100.328223,33.1598237 L98.6234334,34.0228262 L95.3268229,36.4517607 L94.4641585,36.7463879 L87.8524519,36.973738 L87.2711804,37.1987683 L87.1068634,37.0178161 L86.6262361,37.4493174 L83.532968,38.5837481 L82.9907218,38.562869 L82.425882,38.2891209 L79.9939899,40.6739773 L77.9235953,42.0334383 L77.22114,42.8291637 L76.5392243,43.0333149 L76.2598853,43.214267 L75.4732175,44.1236675 L75.2513895,44.4623728 L74.4893693,46.0770227 L73.9491771,46.7776322 L73.3227184,47.0513804 L73.343258,46.9145063 L73.3617437,46.5966801 L73.3822833,46.4621259 L72.8400371,46.529403 L72.4210287,46.483005 L72.0389916,46.276534 L71.6384688,45.7800756 L71.1722192,45.4622494 L70.7901821,45.6895995 L70.2890152,46.483005 L69.9295717,46.7776322 L69.4263508,46.9817834 L68.9416155,46.9817834 L68.7013019,46.5734811 L68.580118,46.3484509 L68.360344,46.3252519 L68.1200304,46.3716499 L67.918742,46.276534 L67.2368263,45.4622494 L67.1156425,45.1885013 L67.0766172,45.0075491 L66.9965126,44.8706751 L66.7520911,44.6897229 L66.4912378,44.5992469 L66.2098449,44.5760479 L65.9695312,44.6897229 L65.7682428,44.9379521 L65.6080337,45.0980252 L65.3677201,45.1421033 L64.8460135,45.1653023 L64.7659089,45.3021763 L64.4804081,45.8473526 L64.3407386,46.0538237 L63.878597,46.1442997 L62.9563676,46.0770227 L62.1512142,46.6198791 L59.7583474,46.506204 L59.2366408,46.3020529 L58.8977369,45.7336776 L58.6553693,44.2814207 L58.5567791,44.0772695 L58.3554907,43.9867935 L57.28743,43.6248892 L57.067656,43.3743401 L57.0471164,42.9428388 L56.6856189,42.7131688 L56.2460708,42.3512645 L55.8845734,41.8756851 L55.7038246,41.4001058 L55.4778887,41.1495567 L54.4960944,40.2401562 L54.1941619,39.8782519 L53.7546138,38.6510252 L53.411602,38.1313678 L53.027511,38.3123199 L52.8262226,38.449194 L52.6660135,38.1986448 L52.4256998,37.5838715 L52.2860304,37.5629924 L51.8238887,37.7903426 L51.6041147,37.7694635 L51.3822867,37.6070705 L51.1378651,37.0874131 L50.9571164,36.860063 L50.7763676,36.813665 L50.5565936,36.860063 L50.3758449,36.860063 L50.2752007,36.6327128 L49.9938078,36.4076826 L47.8843879,36.0875365 L44.7520944,36.1780126 L43.7045734,36.4076826 L42.2195582,37.0642141 L41.9361113,37.4725164 L41.8149275,38.0849698 L41.45343,38.7670202 L40.9728027,39.3121965 L40.5312007,39.5372267 L40.5312007,39.3562746 L40.8516189,38.7206222 L41.1124722,37.8808186 L41.4349444,37.1314912 L42.4619258,36.4076826 L42.9630927,35.7465113 L43.1027622,35.2268539 L42.5420304,35.2500529 L42.2606374,35.431005 L41.4349444,36.2012116 L40.6708702,37.1987683 L40.0895987,37.5397935 L39.5843238,38.2891209 L39.3029309,38.4723929 L38.6620944,38.6510252 L38.4608061,38.8574962 L38.7627386,39.1753224 L37.8589949,40.8549295 L37.2736155,41.717932 L36.9922226,41.5578589 L37.0538415,41.3769068 L37.2140506,41.2400327 L37.3947993,41.1263577 L37.5344688,40.9918035 L37.5550084,40.8317305 L37.4749039,40.6507783 L37.0127622,39.8550529 L36.912118,39.5604257 L36.9737369,39.2657985 L37.0743811,38.9943703 L37.0928668,38.6974232 L37.0538415,38.4283149 L36.912118,38.1754458 L37.1134064,37.6302695 L37.2736155,36.950539 L37.3537201,36.2267305 L37.3537201,35.5887582 L37.193511,35.0203829 L36.8730927,34.4984055 L36.470516,34.0924232 L36.1295582,33.8186751 L35.9898887,33.8418741 L35.8892445,33.9787481 L35.749575,34.0460252 L35.6099056,33.865073 L35.5893659,33.728199 L35.6694705,33.4126927 L35.749575,32.6146474 L35.749575,32.2527431 L35.6283912,31.9581159 L35.1641956,31.6170907 L34.1413221,31.5938917 L33.6401551,31.4825365 L33.1780135,31.0951134 L33.093801,30.596335 L33.1780135,30.0047607 L33.1780135,29.2345542 L32.9335919,28.5965819 L32.4919899,28.6197809 L32.0298482,28.9631259 L29.0783035,32.2295441 L28.552489,32.5682494 L28.4313052,32.6842443 L28.1314266,33.5681259 L28.0718617,33.728199 L27.9712175,34.0019471 L27.4084317,35.270932 L27.1085531,35.6792343 L26.9278044,35.7697103 L26.3218853,35.9529824 L25.5804047,36.3844836 L25.3791164,36.4517607 L24.4158078,36.3148866 L24.0111771,36.4076826 L23.6106543,36.836864 L22.3474671,38.6301461 L20.8994233,40.059204 L19.2295514,41.1031587 L11.6750759,42.8964408 L10.9130556,43.4184181 L7.65547049,47.2323325 L6.89345025,47.7983879 L3.55576054,49.3202418 L2.59245194,50.0904484 L2.35213828,50.1809244 L1.71130185,50.2945995 L1.20602698,50.5010705 L0.743885329,50.7956977 L0.343362563,51.1367229 L0.281743676,51.2944761 L0.423467116,51.8396524 L0.522057336,52.1342796 L0.622701518,52.2479547 L0.764424958,52.3152317 L0.984198988,52.3384307 L1.14440809,52.3152317 L1.26559191,52.2479547 L1.60654975,51.9742065 L1.72978752,51.9533275 L1.87151096,52.0206045 L2.11182462,52.4289068 L2.23300843,52.5425819 L2.59245194,52.5866599 L2.7937403,52.6330579 L2.99502867,52.8140101 L3.15523777,52.9276851 L3.39555143,52.9972821 L3.57630017,52.9972821 L3.77758853,53.0436801 L3.98093086,53.1550353 L4.26232378,53.4496625 L4.52317707,53.7698086 L4.76349073,54.2453879 L5.14347386,55.0387935 L5.76582462,56.2428212 L6.14786172,57.0130277 L6.35120405,57.581403 L6.4313086,57.7391562 L6.53195278,57.8528312 L7.09473862,57.9665063 L7.31451265,58.0105844 L7.89578415,58.1033804 L8.82417538,58.2843325 L10.007258,58.4884836 L11.4142226,58.7622317 L12.9834503,59.0359798 L14.6676998,59.3514861 L16.3971366,59.6693123 L18.147113,59.9639395 L19.8354705,60.2585668 L21.4005902,60.553194 L22.8075548,60.8037431 L24.0111771,61.0078942 L24.9169747,61.1656474 L25.5003002,61.2816423 L25.7200742,61.3048413 L26.4266374,61.4417154 L26.8682395,61.6226675 L28.0718617,62.1887229 L29.2795919,62.7547783 L30.5016998,63.3231537 L31.7299696,63.891529 L32.210597,64.1188791 L32.4714503,64.1188791 L32.6131737,64.0956801 L32.8925126,64.005204 L33.0342361,63.982005 L33.1780135,64.028403 L33.3382226,64.1652771 L33.539511,64.1861562 L33.6997201,64.1652771 L34.0797032,63.9356071 L34.2214266,63.9124081 L34.422715,63.9124081 L34.6219494,63.9611259 L34.9423676,64.0956801 L35.3839696,64.1861562 L36.0905329,64.4807834 L36.3103069,64.5039824 L36.470516,64.4575844 L36.8730927,64.0724811 L36.9922226,64.005204 L37.133946,64.005204 L37.2941551,64.028403 L37.4338246,64.028403 L37.5755481,63.982005 L37.79943,63.8010529 L37.9390995,63.7569748 L38.0808229,63.7082569 L38.241032,63.7082569 L38.4402664,63.7778539 L38.6620944,63.86833 L39.0030523,64.0956801 L39.2043406,64.1420781 L39.3645497,64.1188791 L39.4836796,64.051602 L39.625403,64.028403 L39.7856121,64.0724811 L40.4901214,64.3903073 L40.8516189,64.3903073 L41.233656,64.2093552 L41.4144047,64.2325542 L41.5951535,64.2998312 L42.1353457,64.6849345 L42.2606374,64.7081335 L42.5810556,64.7313325 L43.2629713,64.6617355 L43.4231804,64.6617355 L43.5833895,64.7081335 L43.944887,64.8890856 L44.3063845,64.9795617 L44.4707015,64.9795617 L44.6309106,64.9563627 L44.9123035,64.8658866 L45.0725126,64.8426877 L45.2327218,64.8890856 L45.7544283,65.2741889 L45.8940978,65.3205869 L46.21657,65.411063 L46.3952648,65.5224181 L46.5760135,65.7056902 L47.2024722,66.8192418 L47.2825767,67.0233929 L47.3031164,67.2948212 L47.2435514,67.4757733 L47.1819325,67.6126474 L46.8019494,68.2714987 L46.7608702,68.4292519 L46.7218449,68.5893249 L46.7218449,68.7934761 L46.8019494,68.9976272 L47.0217234,69.2481763 L47.1819325,69.3850504 L47.4838651,69.5196045 L47.8042833,69.6100806 L48.1247015,69.6564786 L48.2869646,69.6564786 L48.6073828,69.5868816 L48.9914739,69.3850504 L49.092118,69.3850504 L49.1927622,69.4059295 L49.2523272,69.4523275 L49.5131804,69.7469547 L49.6138246,69.8374307 L49.7329545,69.9279068 L49.8541383,69.9719849 L50.1950961,70.0415819 L51.0577605,70.0183829 L51.2220776,70.0415819 L51.3432614,70.1088589 L51.4623912,70.176136 L51.5424958,70.2898111 L51.8238887,70.6076373 L51.9245329,70.7236322 L52.4256998,71.0182594 L52.6454739,71.1760126 L52.9083811,71.4729597 L53.2082597,71.7675869 L53.3479292,71.9021411 L53.3890084,71.994937 L53.3890084,72.0830932 L53.3479292,72.2663652 L53.2883642,72.3568413 L53.0870759,72.5818715 L53.0685902,72.7419446 L53.0870759,72.9669748 L53.2678246,73.2639219 L53.6539696,73.8090982 L53.7340742,73.9691713 L53.7936391,74.1733224 L53.8347184,74.5816247 L53.8141788,74.8066549 L53.7546138,74.9876071 L53.6539696,75.1012821 L53.5533255,75.1708791 L53.411602,75.2381562 L53.3273895,75.3750302 L53.3479292,75.6464584 L53.5923508,76.2148338 L53.8347184,77.1010353 L53.853204,77.3028665 L53.853204,77.3956625 L53.8347184,77.5534156 L53.7546138,77.8735617 L53.63343,78.165869 L53.5533255,78.3004232 L53.4732209,78.418738 L52.8878415,79.0079924 L52.8077369,79.1448665 L52.7666577,79.3258186 L52.7871973,79.5508489 L52.8673019,79.9127531 L52.8673019,80.1633023 L52.8467622,80.3697733 L52.6865531,81.0054257 L52.6660135,81.1840579 L52.746118,81.3650101 L52.8878415,81.550602 L53.2082597,81.7083552 L53.3890084,81.7315542 L53.5533255,81.6851562 L53.7730995,81.504204 L53.8942833,81.457806 L54.0544924,81.4346071 L54.5166341,81.527403 L54.6768432,81.527403 L54.8165126,81.504204 L54.9561821,81.4346071 L56.3261754,80.4347305 L56.4453052,80.3929723 L56.566489,80.3929723 L56.7061585,80.4579295 L56.845828,80.6156826 L57.0265767,80.8685516 L57.1867858,81.0935819 L57.2278651,81.2536549 L57.2278651,81.4114081 L57.1477605,81.5946801 L56.8869073,81.9797834 L56.7657234,82.2512116 L56.3857403,83.5016373 L56.124887,84.7497431 L56.0838078,85.1116474 L56.0838078,86.0674458 L56.124887,86.2692771 L56.2850961,86.5175063 L56.626054,86.9049295 L57.1272209,87.3364307 L57.3675346,87.6078589 L57.4887184,87.7888111 L57.5482833,87.928005 L57.9138887,88.1739144 L59.0168668,88.4963804 L59.0374064,88.4012645 L58.7354739,87.1322796 L58.7354739,86.4943073 L59.5385734,85.8818539 L63.0775514,78.5300932 L63.157656,78.1867481 L63.1966813,77.4629395 L63.2767858,77.1683123 L63.6177437,76.669534 L63.7594671,76.3957859 L63.9587015,74.943529 L64.1189106,74.4679496 L64.6858044,73.2639219 L65.1068668,72.6955466 L65.6881383,70.8605063 L66.0085565,70.4939622 L66.8321956,70.0856599 L67.1361821,69.7469547 L67.3169309,68.7702771 L67.3764958,68.703 L67.3580101,67.3852972 L67.5182192,66.1835894 L67.7174536,65.5688161 L68.0193862,65.2741889 L68.14057,64.9122846 L68.360344,63.3695516 L68.5410927,62.9357305 L68.861511,62.8916524 L69.0217201,63.1885995 L69.0422597,63.5945819 L69.0217201,63.891529 L68.9025902,64.3230302 L68.580118,65.0468388 L68.5000135,65.387864 L68.5616324,65.9098413 L68.7403272,66.3204635 L68.9210759,66.6382897 L69.083339,66.9561159 L69.1675514,67.4316952 L69.1429039,68.863073 L69.2866813,69.3154534 L69.5064553,69.6332796 L69.7077437,69.7005567 L69.7488229,69.4059295 L69.8884924,69.1808992 L70.6114874,68.8166751 L71.0921147,68.656602 L71.4166408,68.4756499 L71.6774941,68.2251008 L71.7575987,67.9072746 L71.8582428,67.4525743 L72.2793052,66.5246146 L72.2402799,66.0931134 L72.460054,65.8889622 L72.6202631,65.6616121 L72.7414469,65.364665 L72.8010118,65.0027607 L72.5606981,64.4135063 L72.7804722,64.0956801 L73.2015346,63.9356071 L73.563032,63.891529 L74.3291602,64.3462292 L74.8303272,64.5039824 L75.2329039,64.1861562 L75.4526779,63.7569748 L75.7135312,63.4136297 L76.0175177,63.1422015 L76.3790152,62.8916524 L76.7610523,62.7315793 L77.0219056,62.7547783 L77.22114,62.9589295 L77.5025329,63.3463526 L77.0609309,65.364665 L77.1410354,65.6616121 L77.22114,65.7056902 L77.2622192,65.8425642 L77.2416796,65.9794383 L77.1821147,66.0467154 L77.0424452,66.0467154 L76.7610523,65.9330403 L76.6193288,65.9330403 L76.1592411,66.0003174 L75.9579528,66.0467154 L75.9579528,66.1371914 L75.9784924,66.2763854 L75.9189275,66.5478136 L75.8737403,66.9097179 L75.8532007,67.0465919 L75.7936358,67.113869 L75.6929916,67.137068 L75.5738617,67.1811461 L75.4937572,67.2948212 L75.3725734,68.1810227 L75.2719292,68.4524509 L74.7111973,69.1808992 L74.670118,69.5196045 L74.9720506,70.0183829 L75.2123642,70.3130101 L75.8532007,70.7236322 L76.2188061,71.0182594 L76.4385801,71.1528136 L76.6604081,71.1992116 L76.8411568,71.0391385 L76.8000776,70.7236322 L76.6994334,70.4266851 L76.6193288,70.2898111 L76.5803035,70.1552569 L76.4591197,69.9047078 L76.4200944,69.7237557 L76.4591197,69.4964055 L76.5803035,69.4291285 L76.719973,69.4291285 L76.8000776,69.3618514 L77.0814705,68.2714987 L77.3217841,67.8167985 L77.9235953,67.4989723 L78.0036998,67.2716222 L78.0242395,66.976995 L77.9831602,66.6382897 L78.0632648,66.4341385 L78.2892007,66.3436625 L78.7492884,66.2508665 L79.5133626,65.7288892 L79.6119528,65.5688161 L79.7331366,65.2277909 L79.8543204,65.0468388 L80.1336594,64.9122846 L80.8607622,64.7313325 L81.1401012,64.4807834 L81.261285,64.2766322 L81.1010759,64.0956801 L81.4420337,62.3696751 L81.9432007,61.0078942 L82.7504081,60.0544156 L86.024425,59.0359798 L86.7864452,59.0127809 L86.7864452,59.0127809 Z M72.3203845,44.6665239 L72.4210287,44.8706751 L72.5606981,45.0516272 L72.7209073,45.3230554 L72.8400371,45.6895995 L72.8400371,45.8937506 L72.8811164,46.0074257 L73.0824047,46.0979018 L73.2015346,46.0770227 L73.2220742,45.7568766 L73.3021788,45.6664005 L73.4233626,45.7104786 L73.5240067,45.8241537 L73.6041113,45.9610277 L73.6041113,46.0306247 L74.0292816,46.0074257 L74.2695953,45.8705516 L74.3702395,45.5063275 L74.2490556,45.1885013 L73.9882024,45.1653023 L73.7068094,45.2557783 L73.5034671,45.2117003 L73.4829275,44.9843501 L73.563032,44.6897229 L73.8279933,44.1677456 L73.5424924,43.6016902 L73.4028229,43.3952191 L73.1830489,43.260665 L72.7209073,43.1701889 L72.3594098,43.3511411 L72.1992007,43.7594433 L72.2197403,44.3718967 L72.3203845,44.6665239 L72.3203845,44.6665239 Z M33.5189713,28.4852267 L33.3977875,28.984005 L33.3793019,29.6869345 L33.479946,31.0046373 L33.759285,31.3456625 L35.5092614,31.2783854 L35.7084958,31.4361385 L36.0905329,31.8885189 L36.2302024,31.978995 L37.0743811,31.6866877 L37.2941551,31.3688615 L37.2530759,30.8236851 L36.9922226,30.526738 L36.5321349,30.9605592 L36.6718044,30.4571411 L36.9531973,29.8910856 L37.3146948,29.4155063 L37.5755481,29.2113552 L37.5139292,29.6869345 L37.5344688,30.7308892 L37.4933895,31.2319874 L37.3537201,31.7980428 L37.193511,32.069471 L36.6718044,32.5450504 L36.4109511,32.9092746 L36.3103069,33.2271008 L36.4109511,33.544927 L37.6556526,35.2500529 L37.9206138,35.0435819 L38.1403879,34.6584786 L38.4608061,33.8418741 L38.9229477,32.1831461 L39.0626172,31.8885189 L39.7445329,31.4129395 L39.8862563,31.0487154 L39.9293895,30.596335 L40.1697032,30.3689849 L40.4901214,30.2785088 L40.8721585,30.2344307 L40.8516189,30.0279597 L40.5907656,29.6869345 L40.6113052,29.1208791 L40.8125936,28.5525038 L41.0529073,28.1905995 L41.2932209,28.0769244 L41.5540742,28.0537254 L41.7943879,27.9864484 L42.0162159,27.7590982 L42.7022395,26.6687456 L42.8829882,26.4877935 L43.3430759,26.2395642 L43.5238246,26.0794912 L43.7846779,25.3510428 L43.9058617,25.2164887 L44.3063845,25.0819345 L44.6925295,24.7617884 L45.774968,23.5809597 L45.4340101,23.2445743 L44.7315548,23.0381033 L44.1461754,22.9476272 L44.3474637,22.5857229 L44.7315548,22.446529 L45.5736796,22.4024509 L46.5760135,21.9245516 L46.9826981,21.8131965 L47.4037605,21.8340756 L48.2048061,22.0173476 L48.6279224,22.0173476 L49.0120135,21.8572746 L49.6549039,21.3352972 L50.0944519,21.2471411 L50.0759663,21.04067 L49.7945734,20.8156398 L49.3529713,20.2240655 L49.0325531,19.9503174 L48.2869646,19.6092922 L47.8843879,19.5420151 L43.4437201,20.0871914 L41.8560067,20.5859698 L40.5312007,21.3352972 L40.2703474,21.5858463 L40.0094941,21.9709496 L39.8246374,22.1287028 L39.6048634,22.0846247 L39.3645497,21.9941486 L39.1427218,21.9709496 L39.0235919,22.0846247 L38.5614503,22.653 L37.0743811,23.6528766 L36.4910556,24.195733 L34.9033423,27.0097708 L34.6014098,27.418073 L33.8188499,28.0537254 L33.5189713,28.4852267 L33.5189713,28.4852267 Z M20.63857,10.3737733 L21.2794064,9.98867003 L21.299946,10.1905013 L20.5974907,10.6707204 L20.4372816,10.8725516 L20.2359933,11.5986801 L20.2770725,11.8492292 L20.3366374,11.8701083 L20.416742,11.8260302 L20.5173862,11.8933073 L20.9179089,12.3456877 L21.359511,12.4408035 L21.7805734,12.3248086 L24.898489,10.3505743 L25.9008229,10.0559471 L25.8802833,9.87499496 L24.1960337,10.0559471 L24.3973221,9.69172292 L25.0792378,9.1488665 L25.1388027,8.94471537 L29.8998887,6.22115365 L30.822118,5.4741461 L31.5286813,4.65290176 L31.5903002,4.51602771 L31.5492209,4.29099748 L31.3890118,3.76902015 L31.3684722,3.63446599 L31.7505093,2.97793451 L33.0527218,1.95253904 L33.5189713,1.38648363 L33.7387454,1.04545844 L33.8188499,0.88538539 L33.8599292,0.727632242 L33.6791804,1.04545844 L33.4183272,1.22641058 L32.8925126,1.45376071 L32.9541315,1.20553149 L33.0732614,0.97818136 L33.4594064,0.590758186 L32.1120067,1.59063476 L31.7505093,1.99893703 L31.4095514,1.88526196 L30.822118,2.24948615 L30.5818044,2.13349118 L29.2590523,3.49759194 L29.217973,3.08696977 L28.6777808,3.79221914 L27.8315481,4.56242569 L27.0079089,5.12848111 L26.506742,5.19807809 L26.1822159,5.60870025 L25.7406138,5.97060453 L25.2784722,6.19795466 L24.898489,6.17475567 L24.2761383,6.74313098 L21.7210084,8.55961209 L20.0963238,10.1232242 L20.3160978,10.4201713 L20.63857,10.3737733 L20.63857,10.3737733 Z M88.7561956,86.132403 L88.5959865,86.0442469 L88.4152378,85.902733 L88.072226,86.0883249 L87.8319123,86.5175063 L87.7518078,87.0186045 L87.8935312,87.4269068 L88.3536189,87.6310579 L88.6760911,87.2668338 L88.8958651,86.6567003 L89.1361788,86.178801 L88.9369444,86.178801 L88.7561956,86.132403 L88.7561956,86.132403 Z M90.4835784,85.1789244 L91.005285,84.7033451 L90.7054064,84.452796 L90.725946,84.0908917 L90.8450759,83.7034685 L90.8450759,83.3160453 L90.6643272,82.9773401 L90.4034739,82.7963879 L90.0830556,82.6363149 L89.8016627,82.4344836 L89.5017841,82.5017607 L89.2963879,82.7267909 L89.0766138,83.3392443 L89.9228465,84.7706222 L90.4835784,85.1789244 L90.4835784,85.1789244 Z M118.859076,53.3359874 L118.292182,53.2014332 L118.072408,53.5401385 L117.951224,53.6561335 L117.971764,53.8602846 L118.131973,53.8602846 L118.212078,53.9066826 L118.292182,53.9507607 L118.413366,53.9971587 L118.173052,54.2453879 L118.635194,54.4263401 L119.019285,54.495937 L119.822384,54.4031411 L119.662175,54.0876348 L119.460887,53.8834836 L119.220573,53.8138866 L118.93918,53.9066826 L119.019285,53.4960605 L118.859076,53.3359874 L118.859076,53.3359874 Z M91.8124924,73.4448741 L91.7118482,73.4031159 L91.6276358,73.423995 L91.5269916,73.5817481 L92.553973,75.010806 L92.7347218,75.1708791 L92.7942867,74.6257028 L92.5950523,74.1733224 L92.2540944,73.7858992 L91.8124924,73.4448741 L91.8124924,73.4448741 Z M169.33316,136.17727 L169.513909,135.179713 L169.33316,134.182156 L169.152411,134.022083 L168.951123,133.590582 L168.230182,132.388874 L167.985761,132.161524 L167.805012,131.887776 L166.059143,126.939431 L164.933572,121.877411 L163.970263,119.701345 L161.659555,111.551539 L160.692138,109.985607 L160.531929,109.579625 L160.390206,108.98805 L160.149892,108.53335 L158.862057,106.946539 L158.120577,106.334086 L157.317477,105.877065 L154.908179,104.969985 L154.42139,104.993184 L154.020867,105.130058 L153.078098,105.652035 L152.817245,105.877065 L152.231865,106.879262 L151.911447,107.194768 L151.268556,107.398919 L151.028243,107.535793 L150.62772,108.011373 L150.385352,108.148247 L148.957848,108.440554 L148.777099,108.554229 L148.63743,108.693423 L148.477221,108.918453 L148.015079,109.91833 L147.955514,110.14568 L147.690553,110.417108 L145.965224,110.983164 L146.365747,111.07364 L146.768324,111.006363 L147.129821,111.029562 L147.40916,111.372907 L146.848428,112.303186 L146.546496,112.91332 L146.447906,113.479375 L146.406826,114.161426 L145.644806,115.773756 L145.379845,117.135537 L145.118992,117.724791 L144.718469,117.703912 L144.597285,117.476562 L144.457616,117.158736 L144.297406,116.977783 L144.096118,117.181935 L143.048597,119.634068 L142.446786,120.562028 L141.744331,121.151282 L140.918637,121.128083 L140.016948,120.675703 L138.952995,120.51795 L138.488799,120.244202 L137.463872,119.972773 L136.962705,119.724544 L136.47797,119.223446 L136.015828,118.494997 L135.775514,117.680713 L135.976803,116.884987 L135.997342,116.59036 L135.816594,115.613683 L135.816594,115.161302 L135.997342,114.799398 L136.178091,114.504771 L136.178091,114.231023 L135.775514,113.936395 L136.196577,111.52834 L136.597099,110.507584 L137.365282,109.964728 L137.605595,109.941529 L138.065683,110.032005 L138.326536,110.008806 L138.507285,109.895131 L138.827703,109.579625 L139.033099,109.46595 L139.234388,109.46595 L139.634911,109.556426 L139.875224,109.533227 L139.955329,109.352275 L140.016948,108.577428 L140.055973,108.285121 L140.396931,107.964975 L141.364347,107.760824 L141.705305,107.468516 L141.705305,107.171569 L141.625201,106.809665 L141.604661,106.491839 L141.805949,106.334086 L141.925079,106.174013 L141.945619,105.809788 L141.76487,103.724199 L141.805949,102.406496 L142.085288,101.292945 L142.787744,100.592335 L142.968492,100.522738 L143.594951,100.453141 L143.553872,100.636413 L143.473767,101.114312 L143.434742,101.292945 L143.675056,100.975118 L144.395997,99.5692594 L144.53772,99.1586373 L144.638364,99.0472821 L145.199096,98.9336071 L145.379845,98.819932 L145.620159,98.2956348 L145.683831,98.0265264 L145.724911,97.6159043 L145.704371,96.4141965 L144.979322,90.0367935 L144.979322,89.4243401 L145.219636,88.2875894 L145.199096,87.6310579 L145.059427,87.0186045 L144.718469,85.8586549 L144.457616,84.475995 L144.256327,83.9076196 L144.036553,83.4088413 L143.75516,82.9541411 L143.675056,82.7963879 L143.615491,82.5017607 L143.535386,82.3648866 L143.369015,82.2744106 L143.028057,82.1398564 L142.606995,81.7547531 L142.005184,81.457806 L141.725845,81.2304559 L141.485531,80.9845466 L141.323268,80.7966348 L141.243164,80.5252065 L141.163059,80.0055491 L141.058307,79.824597 L140.898098,79.7109219 L140.737889,79.6413249 L140.657784,79.5740479 L140.637245,79.3026196 L140.717349,79.1657456 L140.817993,79.0520705 L140.838533,78.8247204 L140.799508,78.073073 L140.898098,77.5070176 L141.243164,77.1219144 L141.90454,76.9200831 L142.105828,77.0105592 L142.606995,77.5302166 L142.908927,77.7343678 L143.229346,77.8271637 L143.574411,77.8271637 L144.276867,77.7343678 L144.016013,77.2355894 L143.229346,76.9641612 L142.989032,76.3053098 L143.048597,76.3053098 L143.169781,76.2821108 L143.30945,76.1916348 L143.35053,76.0338816 L143.30945,75.8297305 L143.249885,75.7137355 L143.19032,75.6232594 L143.149241,75.5559824 L143.089676,75.2822343 L142.849363,74.5352267 L142.707639,74.3101965 L142.506351,74.2405995 L142.227012,74.2174005 L141.986698,74.1501234 L141.844975,73.9459723 L141.183599,73.1270479 L140.717349,72.3777204 L140.637245,72.1062922 L140.618759,71.7675869 L140.717349,71.5402368 L141.039821,71.0855365 L140.156617,70.268932 L139.234388,69.6100806 L138.266971,69.1808992 L137.365282,69.0904232 L136.701852,69.2481763 L136.418405,69.2481763 L135.594766,68.9976272 L135.294887,68.9976272 L134.953929,68.9071511 L134.34801,68.2251008 L133.947487,67.9977506 L133.725659,67.9977506 L133.002664,68.1555038 L132.743865,68.1323048 L132.16054,67.9513526 L131.435491,67.8608766 L131.014428,67.5453703 L130.231868,66.7960428 L129.284992,66.4341385 L126.292368,66.8192418 L125.871305,66.6823678 L125.509808,66.2972645 L125.265386,65.7752872 L125.125717,65.2741889 L124.963454,64.8426877 L124.663575,64.4135063 L123.981659,63.7082569 L123.279204,63.2094786 L122.332327,62.8011763 L121.329993,62.5738262 L120.442681,62.6411033 L118.614654,63.1190025 L117.791015,62.9125315 L116.123197,61.7363426 L113.391427,60.713267 L112.709511,60.1912897 L112.368553,60.1008136 L112.007056,60.3026448 L111.822199,60.5995919 L111.721555,60.9406171 L111.540806,61.2607632 L111.179309,61.4625945 L108.568722,61.7363426 L107.806702,61.5762695 L107.827241,61.7804207 L108.12712,61.9845718 L108.88914,62.6643023 L108.969245,62.8011763 L108.74947,63.0262065 L108.12712,64.3903073 L107.081653,65.501539 L106.598971,66.1603904 L106.299093,67.113869 L106.299093,68.2251008 L106.539406,69.2713753 L106.960469,70.176136 L107.424664,70.8141083 L108.12712,71.4265617 L108.468078,71.6075139 L110.298159,71.6307128 L110.678142,71.7675869 L110.298159,72.6050705 L109.371821,73.1502469 L108.287329,73.423995 L106.539406,73.5585491 L105.697282,73.8763753 L102.780654,76.1452368 L102.199383,76.8968841 L101.837885,77.8016448 L101.817346,78.9383955 L102.65947,82.5690378 L102.70055,85.2925995 L102.359592,87.721534 L101.716702,89.9695164 L100.714368,92.6234811 L100.568536,92.8508312 L100.328223,92.9645063 L100.108449,92.8740302 L100.007804,92.6698791 L100.028344,92.3752519 L100.248118,91.8091965 L100.268658,91.4890504 L100.209093,90.830199 L100.268658,90.6260479 L100.673288,90.0367935 L100.854037,89.447539 L100.934142,88.8118866 L100.954681,88.1298363 L100.913602,87.4501058 L100.913602,87.1090806 L101.075865,86.7239773 L101.075865,86.4038312 L100.954681,86.0442469 L100.714368,85.8586549 L100.428867,85.8354559 L100.209093,86.0210479 L100.128988,86.3133552 L100.087909,86.7703753 L100.108449,87.561461 L100.067369,87.928005 L99.9276998,88.2203123 L99.5662024,88.7886877 L99.7264115,88.7886877 L100.128988,88.9232418 L99.9872648,89.2201889 L99.6072816,89.6516902 L99.5456627,89.8999194 L99.5456627,90.783801 L99.5066374,91.2385013 L99.2868634,91.6955214 L99.2663238,92.1711008 L99.1862192,92.465728 L98.8041821,92.2615768 L98.6049477,92.0110277 L98.1592378,91.2176222 L97.978489,90.6260479 L98.1592378,89.6957683 L98.6850523,87.698335 L98.7240776,87.2668338 L98.6645126,86.8608514 L98.4837639,86.5662242 L98.3194469,86.5175063 L97.8182799,86.7912544 L97.9189241,86.2460781 L98.1181585,85.5408287 L98.4036594,84.8842972 L98.7446172,84.58967 L98.865801,84.3182418 L98.6645126,83.7939446 L98.1982631,82.840466 L98.0976189,81.9797834 L98.3584722,81.6178791 L98.6850523,81.4786851 L98.8247218,81.2072569 L98.9253659,80.7293577 L99.1061147,80.1633023 L99.1061147,79.755 L98.643973,79.731801 L98.1797774,80.3929723 L97.8983845,80.4811285 L97.6375312,80.4811285 L97.4157032,80.5716045 L97.1959292,80.8430327 L96.4339089,83.0910151 L96.1935953,83.5480353 L95.4274671,84.5455919 L95.267258,84.8170202 L95.2261788,85.3366776 L94.4641585,87.8352091 L94.2628702,88.1971134 L93.9629916,88.3780655 L93.6179258,88.3107884 L92.9565497,87.8120101 L92.6546172,87.7424131 L92.5149477,87.721534 L92.2540944,87.6310579 L92.0938853,87.6310579 L91.892597,87.721534 L91.8515177,87.8792872 L91.8720573,88.0602393 L91.833032,88.2643904 L91.2661383,89.5612141 L91.0463642,89.8326423 L90.8861551,89.8558413 L90.7444317,89.7862443 L90.6047622,89.7189673 L90.504118,89.6957683 L89.8817673,89.7862443 L89.5613491,89.9903955 L89.5223238,90.3986977 L89.7215582,91.3289773 L89.7420978,93.985262 L89.9228465,94.4631612 L89.8016627,94.8482645 L89.6024283,95.0524156 L89.3580067,95.1660907 L89.0355346,95.2333678 L88.8363002,95.2333678 L88.4953423,95.0964937 L88.3536189,95.0964937 L88.2139494,95.2101688 L87.9325565,95.5303149 L87.2301012,95.8898992 L86.7248263,96.4814736 L86.5050523,97.254 L86.8254705,98.0938035 L87.2301012,98.7549748 L87.4724688,99.4555844 L87.5525734,100.181713 L87.4108499,102.202345 L87.3122597,102.54105 L87.2506408,102.905275 L87.351285,103.858753 L87.3122597,104.267055 L87.6922428,105.197335 L87.571059,106.491839 L87.2116155,107.716746 L86.5050523,109.600504 L85.8827015,112.008559 L85.3815346,113.163869 L84.0341349,114.820277 L83.532968,115.773756 L83.5925329,116.910506 L83.8533862,117.362887 L84.5353019,118.179491 L84.8351804,118.768746 L85.081656,119.021615 L85.2418651,119.290723 L85.1412209,119.995972 L85.2007858,120.334678 L85.3815346,120.791698 L86.0038853,123.285589 L86.024425,124.375942 L85.6218482,125.463975 L84.695511,127.145902 L84.4346577,128.143458 L84.4942226,129.321967 L84.7160506,129.936741 L85.2808904,130.936617 L85.5417437,131.818179 L89.4422192,139.742955 L89.8632816,140.128058 L90.0830556,139.763834 L91.4078617,139.081783 L91.3462428,139.513285 L91.0853895,139.944786 L90.725946,140.30901 L90.4034739,140.489962 L90.1241349,140.717312 L90.2432648,141.172013 L91.6070961,144.099725 L91.9131366,145.255035 L92.2130152,145.937086 L92.5745126,146.572738 L92.8559056,146.911443 L92.8743912,147.048317 L92.8559056,147.115594 L92.8353659,147.138793 L92.8743912,147.138793 L92.8148263,147.164312 L92.7552614,147.187511 L92.7347218,147.231589 L92.7552614,147.345264 L93.0962192,148.069073 L93.9835312,155.627305 L93.6774907,162.846831 L93.3365329,165.162091 L92.2335548,169.588458 L90.3439089,173.648282 L88.6945767,179.594184 L87.8134266,181.661214 L86.6652614,183.384899 L85.521204,184.315179 L85.3609949,184.679403 L85.1802462,185.020428 L84.3750927,185.656081 L84.9810118,185.586484 L86.5646172,185.361453 L88.1543845,185.157302 L89.7215582,184.927632 L91.3257032,184.723481 L92.8949309,184.498451 L96.0683035,184.06463 L97.6580708,183.83728 L99.2457841,183.612249 L100.833497,183.384899 L102.419157,183.157549 L105.596637,182.705169 L107.161757,182.480139 L108.74947,182.22727 L110.337184,181.999919 L111.926951,181.774889 L113.510556,181.545219 L115.079784,181.29699 L116.667497,181.046441 L118.253157,180.821411 L119.84087,180.570861 L121.430637,180.345831 L122.995757,180.095282 L124.58347,179.847053 L126.171184,179.617383 L126.393012,181.341068 L128.081369,181.002363 L129.765619,180.661338 L131.45603,180.322632 L133.144388,179.981607 L134.832745,179.640582 L136.516995,179.299557 L138.207406,178.958531 L139.895764,178.596627 L141.584121,178.255602 L143.270425,177.916897 L144.958782,177.552673 L146.64714,177.213967 L148.335497,176.849743 L150.021801,176.506398 L151.710159,176.144494 L153.38003,175.782589 L153.318411,175.555239 L153.359491,175.146937 L153.49916,174.873189 L153.739474,174.782713 L153.940762,174.921907 L154.100971,174.898708 L154.020867,174.102982 L154.000327,173.490529 L154.100971,172.945353 L154.745916,171.333023 L155.027309,170.901521 L155.429885,170.92472 L155.50999,170.064038 L155.750304,169.405186 L156.191906,169.08736 L156.773177,169.245113 L156.832742,168.85769 L156.812202,168.472587 L156.672533,168.110683 L156.432219,167.839254 L157.038138,167.658302 L157.317477,167.340476 L157.59887,165.953176 L157.720054,166.157327 L157.839184,166.294202 L158.100037,166.521552 L157.980907,166.317401 L157.939828,166.157327 L157.839184,165.728146 L157.759079,165.547194 L157.539305,165.273446 L157.47974,165.162091 L157.47974,164.72827 L157.559845,164.456841 L157.59887,164.229491 L157.47974,163.934864 L157.539305,163.774791 L157.660489,163.276013 L157.880263,159.986395 L158.161656,158.875164 L158.882597,157.513383 L159.207123,156.900929 L159.529595,156.446229 L160.731164,155.650504 L161.374054,155.423154 L161.538371,155.309479 L161.799224,155.017171 L162.101157,154.560151 L162.36201,154.038174 L162.442115,153.583474 L162.421575,153.19837 L162.540705,152.611436 L162.540705,152.247212 L162.4606,151.931705 L162.220287,151.541962 L162.119642,151.249655 L162.080617,150.67896 L162.140182,149.97835 L162.261366,149.389096 L162.4606,149.115348 L163.302725,148.546972 L163.545093,148.433297 L163.748435,148.386899 L163.869619,148.229146 L163.908644,147.820844 L163.384884,147.572615 L162.963821,147.004239 L162.863177,146.412665 L163.302725,146.07164 L163.768975,145.84429 L164.109933,145.459186 L164.430351,145.006806 L164.871953,144.552106 L165.132806,144.68898 L166.038604,144.962728 L166.44118,144.893131 L166.480206,145.255035 L166.381616,145.709736 L166.340536,146.141237 L166.480206,146.319869 L166.702034,146.505461 L166.821164,146.800088 L166.660954,147.322065 L167.143636,147.753567 L167.303845,147.820844 L166.782138,148.250025 L166.660954,148.477375 L166.681494,148.59105 L167.383949,148.3637 L167.985761,147.934519 L168.449956,147.254788 L168.790914,146.319869 L168.971663,145.482385 L169.232516,143.234403 L169.193491,141.965418 L169.232516,141.397043 L169.193491,141.081537 L169.092847,140.851866 L168.790914,140.30901 L168.772428,139.810232 L168.932637,138.898511 L168.932637,138.309257 L169.012742,137.223544 L169.33316,136.17727 L169.33316,136.17727 Z M98.8247218,62.3928741 L98.9048263,62.256 L98.9253659,62.1214458 L98.8842867,61.9172947 L98.7651568,61.9172947 L98.6234334,61.9845718 L98.4837639,61.9613728 L98.1592378,61.7131436 L97.756661,61.4625945 L97.6765565,61.4417154 L97.6169916,61.4417154 L97.536887,61.4161965 L97.4773221,61.3048413 L97.4567825,61.9172947 L97.756661,62.325597 L98.1982631,62.5506272 L98.6234334,62.5738262 L98.7240776,62.5065491 L98.8247218,62.3928741 L98.8247218,62.3928741 Z M116.628472,58.8991058 L116.102658,58.9455038 L115.681595,59.3282872 L115.981474,59.6229144 L117.028995,60.3490428 L117.77253,61.0542922 L118.072408,61.2143652 L118.433906,61.2607632 L118.859076,61.2375642 L119.259599,61.1447683 L119.561531,60.9846952 L119.760766,60.6691889 L120.021619,59.7829874 L120.181828,59.4419622 L119.540992,59.3282872 L119.259599,59.147335 L119.138415,58.7622317 L118.797457,58.4444055 L118.719406,58.6021587 L118.737892,58.9895819 L118.657788,59.2610101 L118.454445,59.2610101 L117.951224,59.0359798 L116.628472,58.8991058 L116.628472,58.8991058 Z M96.8960506,64.4807834 L96.7954064,64.8658866 L96.653683,65.2092317 L96.5140135,65.501539 L96.4133693,65.8193652 L96.3332648,67.113869 L96.1093828,67.7472015 L96.0683035,68.2251008 L96.5550927,68.679801 L97.1753895,68.7702771 L97.8778449,68.4524509 L98.4426847,67.9072746 L98.6850523,67.2275441 L98.643973,66.7960428 L98.3399865,66.0235164 L98.2393423,65.5688161 L98.2393423,64.9122846 L98.2188027,64.5944584 L98.0791332,64.2998312 L97.9579494,64.0724811 L97.9579494,63.86833 L98.0585936,63.6409798 L98.2393423,63.4368287 L97.9189241,63.3463526 L97.2164688,63.3463526 L96.875511,63.2326776 L96.9350759,63.7778539 L96.9350759,64.1652771 L96.8960506,64.4807834 L96.8960506,64.4807834 Z" id="Stroke-58" stroke="#F9F9F9" stroke-width="0.25" stroke-linecap="round" stroke-linejoin="round"></path>
            </g>
        </g>
    </g>
</svg>