<?xml version="1.0" encoding="UTF-8"?>
<svg width="89px" height="170px" viewBox="0 0 89 170" version="1.1" xmlns="http://www.w3.org/2000/svg" xmlns:xlink="http://www.w3.org/1999/xlink">
    <!-- Generator: Sketch 51 (57462) - http://www.bohemiancoding.com/sketch -->
    <title>Illinois</title>
    <desc>Created with Sketch.</desc>
    <defs></defs>
    <g id="Page-1" stroke="none" stroke-width="1" fill="none" fill-rule="evenodd">
        <g id="A5" transform="translate(-775.000000, -267.000000)">
            <g id="Illinois" transform="translate(775.000000, 267.000000)">
                <polygon id="Fill-73" fill="#D6D6D6" points="87.7492884 109.099796 87.4103845 108.011763 87.4494098 107.647539 87.6897234 107.146441 87.7308027 106.784537 87.6096189 105.55963 87.4288702 105.197725 86.7428465 104.673428 86.4614536 104.355602 86.3012445 103.877703 86.0013659 102.768791 85.7405126 102.270013 85.0175177 101.611161 84.6724519 101.427889 84.5122428 101.314214 84.3725734 101.063665 84.3314941 99.9083552 85.5392243 98.2496272 85.4385801 96.9574433 84.8532007 96.0039647 84.6929916 95.5051864 84.8532007 94.869534 85.1982664 94.3707557 86.4018887 93.5286322 86.4614536 93.3940781 86.3628634 92.2387683 85.941801 87.8796776 85.500199 83.5437859 85.0996762 79.1870151 84.2513895 70.4711537 83.8303272 66.112063 83.4092648 61.7784912 82.9882024 57.4217204 82.563032 53.0881486 81.2998449 40.0804736 80.8972681 35.7445819 80.4782597 31.4110101 80.0510354 27.0774383 79.629973 22.7415466 79.5909477 22.4469194 78.2661417 20.7673123 77.8204317 19.8602317 77.1200304 17.7468035 76.3580101 16.2968665 75.8321956 13.6846599 75.6514469 13.1418035 75.4111332 12.5966272 75.2899494 12.3924761 75.1297403 12.2115239 74.3882597 11.9377758 74.2465363 11.8032217 74.1458921 11.6222695 73.9466577 11.4181184 73.7248297 11.1652494 73.6015919 10.8497431 73.5214874 10.529597 73.3797639 10.2581688 72.5581788 8.87318892 72.1371164 7.89651134 71.8166981 6.7644005 71.5353052 4.51641814 71.5147656 4.17771285 71.5743305 3.92716373 71.6544351 3.76709068 71.716054 3.56293955 71.6154098 0.632906801 71.5743305 0.384677582 68.0374064 0.772100756 64.4388634 1.18040302 60.8238887 1.59102519 57.2253457 1.97380856 53.6309106 2.35891184 50.0323676 2.72313602 46.415339 3.11055919 42.8188499 3.47246348 39.2203069 3.81116877 35.6258718 4.17771285 32.0088432 4.51641814 28.3897605 4.85744332 24.7953255 5.17294962 21.1967825 5.51629471 17.5818078 5.83412091 13.9647791 6.12874811 13.9442395 6.12874811 13.9236998 6.1519471 13.8846745 6.1519471 13.6628465 6.83167758 13.9442395 7.21678086 14.6056155 7.53460705 14.9260337 7.82923426 15.2710995 8.23985642 15.9735548 8.78271285 17.8241754 9.8498665 18.5060911 10.483199 18.9456391 11.4621965 18.9271535 11.2603652 19.1079022 12.9585315 19.3482159 13.6405819 20.0342395 14.004806 20.5354064 14.6613375 20.8167993 14.7982116 21.0961383 14.8422897 22.9467589 15.8189673 23.1665329 16.0231184 23.7293187 16.6378917 23.9285531 16.7724458 24.2530793 16.7956448 24.4153423 16.999796 24.4749073 17.3617003 24.4954469 17.8164005 24.5940371 18.2247028 25.2163879 19.5192065 25.1568229 19.8811108 25.1568229 21.1524156 24.87543 22.2427683 24.8548904 24.1056474 24.6741417 25.4651083 24.4749073 26.1239597 24.1298415 26.4417859 23.8094233 26.6250579 23.0063238 27.4625416 22.7454705 27.8035668 22.5051568 28.2768262 22.2648432 28.9147985 22.1231197 29.5968489 22.0840944 30.2533804 21.8396728 30.8890327 21.8786981 31.0027078 21.9834503 31.1395819 22.0224755 31.297335 22.0840944 32.0257834 22.0635548 32.3412897 21.9834503 32.6591159 21.6979494 33.0442191 20.835285 33.7030705 20.6750759 33.9304207 20.5354064 34.3619219 20.1739089 34.7029471 19.3482159 35.1553275 17.3373862 35.7677809 16.9163238 36.0206499 16.2138685 37.1318816 15.8338853 37.584262 14.967113 37.9925642 9.10099494 39.0597179 8.31638111 39.7417683 7.89531872 40.7161259 7.55436088 41.9433526 7.33253288 43.2796146 7.25242833 44.5764383 7.29350759 45.2097708 7.45371669 45.9358992 7.73510961 46.5483526 8.17465767 46.7780227 8.48069815 46.8916977 9.58367622 47.6851033 10.2450523 48.5457859 10.6907622 49.7498136 10.9310759 51.1115945 10.9516155 52.5406524 10.6661147 53.654204 8.80111636 56.4682418 8.48069815 57.0806952 8.29584148 57.5794736 8.23627656 58.0550529 8.25476223 59.3982746 8.17465767 60.054806 7.85423946 61.3029118 7.37361214 62.2331914 6.71018212 62.8665239 5.90502867 63.256267 5.08138954 63.4348992 4.44055312 63.6831285 3.55324115 64.2283048 2.75219562 64.8662771 2.42972344 65.4323325 2.39069815 65.6364836 2.23048904 65.9751889 2.18940978 66.272136 2.29005396 66.5226851 2.89186509 67.0446625 3.11369309 67.5202418 3.17325801 68.0654181 3.09315346 68.9956977 3.13217875 69.519995 3.29238786 70.2902015 3.35400675 70.7425819 3.19379764 71.0604081 1.99017538 71.5823854 1.38425632 72.2644358 0.981679595 73.6702947 0.782445194 75.2385466 0.720826307 76.4866524 0.802984823 77.8693123 1.68824283 82.7944584 1.82996627 83.2491587 2.15038449 83.724738 2.55090725 84.1794383 2.67209106 84.3835894 2.79122091 84.5900605 2.87132546 84.8174106 2.91240472 85.0888388 2.95143002 85.8126474 2.85078583 86.7220479 2.89186509 87.063073 2.99250927 87.2672242 3.29238786 87.5850504 3.47313659 87.9701537 4.07905565 88.5362091 4.23926476 88.8308363 4.30088364 89.1509824 4.39947386 89.8539118 4.72194604 90.8514685 5.20257336 91.5567179 10.8509713 96.4331461 11.2124688 96.8669673 11.4918078 97.4121436 11.6540708 98.047796 11.7937403 98.4537783 12.1346981 98.7716045 17.3189005 102.316411 17.8241754 102.79199 18.3643676 103.469401 18.9867184 104.536554 19.2886509 105.151327 19.4673457 105.740582 19.5289646 106.148884 19.5474503 106.988688 19.5885295 107.376111 19.7323069 107.738015 20.1739089 108.373668 20.2745531 108.689174 20.2149882 109.030199 20.0732648 109.394423 20.0136998 109.781846 20.1739089 110.16695 20.3751973 110.507975 20.5148668 111.004433 20.5744317 111.503212 20.5148668 111.890635 21.6383845 114.045821 22.3634334 114.887945 23.2671771 115.182572 24.1503811 114.614196 25.3375717 112.528607 26.3809848 112.164383 26.8061551 112.301257 27.5681754 112.776836 27.9686981 112.846433 28.4698651 112.846433 29.5769511 113.094662 31.7685295 114.205894 32.6907589 114.911144 33.0912816 115.68135 32.9721518 116.224207 32.6702192 117.019932 32.3292614 117.74838 32.0478685 118.066207 31.7870152 118.428111 31.8075548 119.177438 32.0088432 120.381466 32.0889477 121.627252 31.7870152 122.606249 30.8812175 124.645441 30.0596324 128.12065 29.1764283 130.094884 28.915575 131.092441 28.915575 132.226872 29.2154536 133.588652 29.3777167 134.064232 29.5379258 134.405257 29.6981349 134.699884 29.8994233 134.975952 31.1667184 135.994388 31.3269275 136.265816 31.9883035 136.903788 32.1485126 137.152018 32.3292614 137.606718 32.7297841 137.924544 33.5760169 138.376924 34.179882 138.9453 34.7611535 139.648229 35.3814503 140.216605 36.168118 140.420756 37.4313052 141.441511 37.7969106 141.622463 38.5794705 141.531987 38.8608634 141.599264 39.5612648 141.757018 40.3479325 142.304514 41.6932782 143.619897 42.2375784 143.937723 43.6014098 144.438821 44.1641956 144.800725 44.749575 145.596451 45.5115953 147.183262 46.0333019 147.751637 48.2043406 148.635519 48.8246374 149.134297 48.684968 149.52172 48.8040978 149.9973 49.0094941 150.542476 49.1306779 151.087652 49.1306779 151.586431 49.071113 152.108408 49.0505734 152.676783 49.1697032 153.289237 49.7119494 154.286793 50.3938651 155.196194 50.9751366 156.193751 51.2996627 157.418657 51.0162159 158.555408 50.3343002 159.460169 49.7715143 160.395088 49.8721585 161.571277 49.9933423 161.661753 50.4349444 161.821826 50.6341788 161.912302 50.9956762 162.18605 50.9956762 162.594353 51.1148061 163.095451 51.3202024 163.547831 51.9014739 164.49899 52.8853221 165.772615 53.2653052 166.589219 53.1852007 167.4963 53.5918853 167.906922 54.7544283 168.790804 55.6807656 169.10863 55.9210793 169.085431 56.0032378 168.767605 55.9025936 168.315224 55.7218449 168.064675 55.5164486 167.906922 55.2966745 167.677252 55.0152816 167.018401 55.1159258 166.700574 55.5164486 166.589219 56.0422631 166.542821 56.1819325 166.679695 56.3441956 167.405824 56.4222462 167.654053 56.6440742 167.839645 57.1247015 168.111073 57.3054503 168.292025 57.4471737 168.609851 57.5272782 168.925358 57.6279224 169.243184 57.8476965 169.470534 58.1126577 169.514612 58.373511 169.424136 58.6138246 169.266383 58.815113 169.175907 59.254661 169.356859 58.4330759 168.472977 57.9709342 167.770048 57.8476965 166.995202 58.2317875 165.999965 58.8952175 164.976889 59.4970287 163.366879 59.6962631 163.004975 60.3822867 162.232448 61.2449511 161.684952 62.2287993 161.436723 63.2948061 161.550398 69.5059899 164.04661 71.1512142 165.023287 72.0364722 165.204239 72.8395717 164.95369 73.4003035 164.160285 73.7453693 162.8913 73.6406172 161.935501 73.1805295 161.05162 72.4369949 160.074942 71.8762631 159.121463 71.5743305 158.05663 71.5743305 156.850282 71.8557234 155.537219 72.0570118 155.082519 72.2973255 154.741494 72.6382833 154.495584 73.0798853 154.354071 74.0473019 154.263594 74.4067454 154.105841 75.591882 153.152363 79.4697639 151.857859 80.1126543 151.268605 80.1927589 150.407922 79.6114874 149.157496 78.8884924 148.477766 78.7673086 148.320013 78.3277605 147.524287 78.1223642 146.979111 78.2065767 146.229783 78.4263508 145.526854 78.6276391 145.097673 79.7306172 143.77997 80.0120101 143.348469 80.1722192 142.645539 80.1331939 142.033086 80.1722192 141.622463 79.6505126 141.46239 79.2294503 141.46239 79.0897808 141.418312 78.9891366 141.281438 78.9891366 141.123685 79.0487015 141.056408 79.6710523 141.033209 80.0120101 140.965932 80.2132985 140.805859 80.0510354 140.490353 78.8884924 139.490476 78.4879696 139.035776 79.4697639 139.103053 79.6710523 139.079854 79.9914705 138.852504 80.0325497 138.627474 79.9524452 138.332846 79.851801 137.924544 79.6710523 137.33297 79.6505126 136.947866 79.8312614 136.764594 79.9113659 136.560443 79.851801 136.084864 79.7306172 135.609285 79.6114874 135.314657 79.8312614 134.927234 79.4697639 134.221985 79.7100776 134.064232 80.071575 133.950557 80.4371804 133.702327 80.7575987 133.4077 81.0389916 133.066675 80.6774941 132.772048 80.0325497 132.953 79.6710523 132.795247 80.1126543 132.340547 80.5378246 131.774491 80.7185734 131.56802 81.178661 131.387068 81.3594098 131.226995 81.5401585 130.66094 81.2402799 130.366312 80.7986779 130.141282 80.5768499 129.888413 80.4782597 129.707461 80.3118887 129.526509 80.1331939 129.322358 80.0510354 129.002212 80.071575 128.617108 80.2132985 128.392078 80.3735076 128.211126 80.5378246 127.916499 80.6384688 127.41772 80.7185734 126.893423 80.8787825 126.506 81.2793052 126.348247 81.3203845 126.529199 81.5606981 126.849345 81.8010118 126.983899 81.9221956 126.392325 82.0207858 126.144096 82.1830489 125.895866 82.3227184 125.782191 82.4233626 125.895866 82.5034671 126.188174 82.622597 126.461922 82.8279933 126.575597 82.9676627 126.392325 82.9882024 126.05362 82.9676627 125.668516 83.008742 125.397088 83.1278718 125.032864 83.2490556 124.329935 83.3887251 123.96571 83.5509882 123.805637 83.951511 123.578287 84.0911804 123.466932 84.3725734 122.968154 84.6334266 122.286103 84.6724519 121.67133 84.3314941 121.355824 84.2924688 121.128474 84.9189275 120.810647 85.5597639 120.358267 85.719973 120.154116 85.9212614 119.810771 86.0609309 119.655338 86.2622192 119.629819 86.4018887 119.743494 86.5025329 119.743494 86.6237167 119.404788 86.5826374 119.038244 86.161575 118.45131 86.0424452 117.99661 86.1020101 117.52103 86.2827589 117.156806 86.5436121 116.862179 86.7839258 116.658028 86.662742 116.658028 86.7428465 116.588431 86.8044654 116.497955 86.8640304 116.361081 86.9030556 116.203327 86.7428465 115.614073 86.8640304 114.978421 87.1248836 114.433244 87.4494098 114.06902 87.6506981 114.001743 87.9505767 113.955345 88.1908904 113.864869 88.2709949 113.637519 88.712597 111.345458 88.3326138 110.190149"></polygon>
                <polygon id="Stroke-74" stroke="#F9F9F9" stroke-width="0.25" stroke-linecap="round" stroke-linejoin="round" points="87.7492884 109.099796 87.4103845 108.011763 87.4494098 107.647539 87.6897234 107.146441 87.7308027 106.784537 87.6096189 105.55963 87.4288702 105.197725 86.7428465 104.673428 86.4614536 104.355602 86.3012445 103.877703 86.0013659 102.768791 85.7405126 102.270013 85.0175177 101.611161 84.6724519 101.427889 84.5122428 101.314214 84.3725734 101.063665 84.3314941 99.9083552 85.5392243 98.2496272 85.4385801 96.9574433 84.8532007 96.0039647 84.6929916 95.5051864 84.8532007 94.869534 85.1982664 94.3707557 86.4018887 93.5286322 86.4614536 93.3940781 86.3628634 92.2387683 85.941801 87.8796776 85.500199 83.5437859 85.0996762 79.1870151 84.2513895 70.4711537 83.8303272 66.112063 83.4092648 61.7784912 82.9882024 57.4217204 82.563032 53.0881486 81.2998449 40.0804736 80.8972681 35.7445819 80.4782597 31.4110101 80.0510354 27.0774383 79.629973 22.7415466 79.5909477 22.4469194 78.2661417 20.7673123 77.8204317 19.8602317 77.1200304 17.7468035 76.3580101 16.2968665 75.8321956 13.6846599 75.6514469 13.1418035 75.4111332 12.5966272 75.2899494 12.3924761 75.1297403 12.2115239 74.3882597 11.9377758 74.2465363 11.8032217 74.1458921 11.6222695 73.9466577 11.4181184 73.7248297 11.1652494 73.6015919 10.8497431 73.5214874 10.529597 73.3797639 10.2581688 72.5581788 8.87318892 72.1371164 7.89651134 71.8166981 6.7644005 71.5353052 4.51641814 71.5147656 4.17771285 71.5743305 3.92716373 71.6544351 3.76709068 71.716054 3.56293955 71.6154098 0.632906801 71.5743305 0.384677582 68.0374064 0.772100756 64.4388634 1.18040302 60.8238887 1.59102519 57.2253457 1.97380856 53.6309106 2.35891184 50.0323676 2.72313602 46.415339 3.11055919 42.8188499 3.47246348 39.2203069 3.81116877 35.6258718 4.17771285 32.0088432 4.51641814 28.3897605 4.85744332 24.7953255 5.17294962 21.1967825 5.51629471 17.5818078 5.83412091 13.9647791 6.12874811 13.9442395 6.12874811 13.9236998 6.1519471 13.8846745 6.1519471 13.6628465 6.83167758 13.9442395 7.21678086 14.6056155 7.53460705 14.9260337 7.82923426 15.2710995 8.23985642 15.9735548 8.78271285 17.8241754 9.8498665 18.5060911 10.483199 18.9456391 11.4621965 18.9271535 11.2603652 19.1079022 12.9585315 19.3482159 13.6405819 20.0342395 14.004806 20.5354064 14.6613375 20.8167993 14.7982116 21.0961383 14.8422897 22.9467589 15.8189673 23.1665329 16.0231184 23.7293187 16.6378917 23.9285531 16.7724458 24.2530793 16.7956448 24.4153423 16.999796 24.4749073 17.3617003 24.4954469 17.8164005 24.5940371 18.2247028 25.2163879 19.5192065 25.1568229 19.8811108 25.1568229 21.1524156 24.87543 22.2427683 24.8548904 24.1056474 24.6741417 25.4651083 24.4749073 26.1239597 24.1298415 26.4417859 23.8094233 26.6250579 23.0063238 27.4625416 22.7454705 27.8035668 22.5051568 28.2768262 22.2648432 28.9147985 22.1231197 29.5968489 22.0840944 30.2533804 21.8396728 30.8890327 21.8786981 31.0027078 21.9834503 31.1395819 22.0224755 31.297335 22.0840944 32.0257834 22.0635548 32.3412897 21.9834503 32.6591159 21.6979494 33.0442191 20.835285 33.7030705 20.6750759 33.9304207 20.5354064 34.3619219 20.1739089 34.7029471 19.3482159 35.1553275 17.3373862 35.7677809 16.9163238 36.0206499 16.2138685 37.1318816 15.8338853 37.584262 14.967113 37.9925642 9.10099494 39.0597179 8.31638111 39.7417683 7.89531872 40.7161259 7.55436088 41.9433526 7.33253288 43.2796146 7.25242833 44.5764383 7.29350759 45.2097708 7.45371669 45.9358992 7.73510961 46.5483526 8.17465767 46.7780227 8.48069815 46.8916977 9.58367622 47.6851033 10.2450523 48.5457859 10.6907622 49.7498136 10.9310759 51.1115945 10.9516155 52.5406524 10.6661147 53.654204 8.80111636 56.4682418 8.48069815 57.0806952 8.29584148 57.5794736 8.23627656 58.0550529 8.25476223 59.3982746 8.17465767 60.054806 7.85423946 61.3029118 7.37361214 62.2331914 6.71018212 62.8665239 5.90502867 63.256267 5.08138954 63.4348992 4.44055312 63.6831285 3.55324115 64.2283048 2.75219562 64.8662771 2.42972344 65.4323325 2.39069815 65.6364836 2.23048904 65.9751889 2.18940978 66.272136 2.29005396 66.5226851 2.89186509 67.0446625 3.11369309 67.5202418 3.17325801 68.0654181 3.09315346 68.9956977 3.13217875 69.519995 3.29238786 70.2902015 3.35400675 70.7425819 3.19379764 71.0604081 1.99017538 71.5823854 1.38425632 72.2644358 0.981679595 73.6702947 0.782445194 75.2385466 0.720826307 76.4866524 0.802984823 77.8693123 1.68824283 82.7944584 1.82996627 83.2491587 2.15038449 83.724738 2.55090725 84.1794383 2.67209106 84.3835894 2.79122091 84.5900605 2.87132546 84.8174106 2.91240472 85.0888388 2.95143002 85.8126474 2.85078583 86.7220479 2.89186509 87.063073 2.99250927 87.2672242 3.29238786 87.5850504 3.47313659 87.9701537 4.07905565 88.5362091 4.23926476 88.8308363 4.30088364 89.1509824 4.39947386 89.8539118 4.72194604 90.8514685 5.20257336 91.5567179 10.8509713 96.4331461 11.2124688 96.8669673 11.4918078 97.4121436 11.6540708 98.047796 11.7937403 98.4537783 12.1346981 98.7716045 17.3189005 102.316411 17.8241754 102.79199 18.3643676 103.469401 18.9867184 104.536554 19.2886509 105.151327 19.4673457 105.740582 19.5289646 106.148884 19.5474503 106.988688 19.5885295 107.376111 19.7323069 107.738015 20.1739089 108.373668 20.2745531 108.689174 20.2149882 109.030199 20.0732648 109.394423 20.0136998 109.781846 20.1739089 110.16695 20.3751973 110.507975 20.5148668 111.004433 20.5744317 111.503212 20.5148668 111.890635 21.6383845 114.045821 22.3634334 114.887945 23.2671771 115.182572 24.1503811 114.614196 25.3375717 112.528607 26.3809848 112.164383 26.8061551 112.301257 27.5681754 112.776836 27.9686981 112.846433 28.4698651 112.846433 29.5769511 113.094662 31.7685295 114.205894 32.6907589 114.911144 33.0912816 115.68135 32.9721518 116.224207 32.6702192 117.019932 32.3292614 117.74838 32.0478685 118.066207 31.7870152 118.428111 31.8075548 119.177438 32.0088432 120.381466 32.0889477 121.627252 31.7870152 122.606249 30.8812175 124.645441 30.0596324 128.12065 29.1764283 130.094884 28.915575 131.092441 28.915575 132.226872 29.2154536 133.588652 29.3777167 134.064232 29.5379258 134.405257 29.6981349 134.699884 29.8994233 134.975952 31.1667184 135.994388 31.3269275 136.265816 31.9883035 136.903788 32.1485126 137.152018 32.3292614 137.606718 32.7297841 137.924544 33.5760169 138.376924 34.179882 138.9453 34.7611535 139.648229 35.3814503 140.216605 36.168118 140.420756 37.4313052 141.441511 37.7969106 141.622463 38.5794705 141.531987 38.8608634 141.599264 39.5612648 141.757018 40.3479325 142.304514 41.6932782 143.619897 42.2375784 143.937723 43.6014098 144.438821 44.1641956 144.800725 44.749575 145.596451 45.5115953 147.183262 46.0333019 147.751637 48.2043406 148.635519 48.8246374 149.134297 48.684968 149.52172 48.8040978 149.9973 49.0094941 150.542476 49.1306779 151.087652 49.1306779 151.586431 49.071113 152.108408 49.0505734 152.676783 49.1697032 153.289237 49.7119494 154.286793 50.3938651 155.196194 50.9751366 156.193751 51.2996627 157.418657 51.0162159 158.555408 50.3343002 159.460169 49.7715143 160.395088 49.8721585 161.571277 49.9933423 161.661753 50.4349444 161.821826 50.6341788 161.912302 50.9956762 162.18605 50.9956762 162.594353 51.1148061 163.095451 51.3202024 163.547831 51.9014739 164.49899 52.8853221 165.772615 53.2653052 166.589219 53.1852007 167.4963 53.5918853 167.906922 54.7544283 168.790804 55.6807656 169.10863 55.9210793 169.085431 56.0032378 168.767605 55.9025936 168.315224 55.7218449 168.064675 55.5164486 167.906922 55.2966745 167.677252 55.0152816 167.018401 55.1159258 166.700574 55.5164486 166.589219 56.0422631 166.542821 56.1819325 166.679695 56.3441956 167.405824 56.4222462 167.654053 56.6440742 167.839645 57.1247015 168.111073 57.3054503 168.292025 57.4471737 168.609851 57.5272782 168.925358 57.6279224 169.243184 57.8476965 169.470534 58.1126577 169.514612 58.373511 169.424136 58.6138246 169.266383 58.815113 169.175907 59.254661 169.356859 58.4330759 168.472977 57.9709342 167.770048 57.8476965 166.995202 58.2317875 165.999965 58.8952175 164.976889 59.4970287 163.366879 59.6962631 163.004975 60.3822867 162.232448 61.2449511 161.684952 62.2287993 161.436723 63.2948061 161.550398 69.5059899 164.04661 71.1512142 165.023287 72.0364722 165.204239 72.8395717 164.95369 73.4003035 164.160285 73.7453693 162.8913 73.6406172 161.935501 73.1805295 161.05162 72.4369949 160.074942 71.8762631 159.121463 71.5743305 158.05663 71.5743305 156.850282 71.8557234 155.537219 72.0570118 155.082519 72.2973255 154.741494 72.6382833 154.495584 73.0798853 154.354071 74.0473019 154.263594 74.4067454 154.105841 75.591882 153.152363 79.4697639 151.857859 80.1126543 151.268605 80.1927589 150.407922 79.6114874 149.157496 78.8884924 148.477766 78.7673086 148.320013 78.3277605 147.524287 78.1223642 146.979111 78.2065767 146.229783 78.4263508 145.526854 78.6276391 145.097673 79.7306172 143.77997 80.0120101 143.348469 80.1722192 142.645539 80.1331939 142.033086 80.1722192 141.622463 79.6505126 141.46239 79.2294503 141.46239 79.0897808 141.418312 78.9891366 141.281438 78.9891366 141.123685 79.0487015 141.056408 79.6710523 141.033209 80.0120101 140.965932 80.2132985 140.805859 80.0510354 140.490353 78.8884924 139.490476 78.4879696 139.035776 79.4697639 139.103053 79.6710523 139.079854 79.9914705 138.852504 80.0325497 138.627474 79.9524452 138.332846 79.851801 137.924544 79.6710523 137.33297 79.6505126 136.947866 79.8312614 136.764594 79.9113659 136.560443 79.851801 136.084864 79.7306172 135.609285 79.6114874 135.314657 79.8312614 134.927234 79.4697639 134.221985 79.7100776 134.064232 80.071575 133.950557 80.4371804 133.702327 80.7575987 133.4077 81.0389916 133.066675 80.6774941 132.772048 80.0325497 132.953 79.6710523 132.795247 80.1126543 132.340547 80.5378246 131.774491 80.7185734 131.56802 81.178661 131.387068 81.3594098 131.226995 81.5401585 130.66094 81.2402799 130.366312 80.7986779 130.141282 80.5768499 129.888413 80.4782597 129.707461 80.3118887 129.526509 80.1331939 129.322358 80.0510354 129.002212 80.071575 128.617108 80.2132985 128.392078 80.3735076 128.211126 80.5378246 127.916499 80.6384688 127.41772 80.7185734 126.893423 80.8787825 126.506 81.2793052 126.348247 81.3203845 126.529199 81.5606981 126.849345 81.8010118 126.983899 81.9221956 126.392325 82.0207858 126.144096 82.1830489 125.895866 82.3227184 125.782191 82.4233626 125.895866 82.5034671 126.188174 82.622597 126.461922 82.8279933 126.575597 82.9676627 126.392325 82.9882024 126.05362 82.9676627 125.668516 83.008742 125.397088 83.1278718 125.032864 83.2490556 124.329935 83.3887251 123.96571 83.5509882 123.805637 83.951511 123.578287 84.0911804 123.466932 84.3725734 122.968154 84.6334266 122.286103 84.6724519 121.67133 84.3314941 121.355824 84.2924688 121.128474 84.9189275 120.810647 85.5597639 120.358267 85.719973 120.154116 85.9212614 119.810771 86.0609309 119.655338 86.2622192 119.629819 86.4018887 119.743494 86.5025329 119.743494 86.6237167 119.404788 86.5826374 119.038244 86.161575 118.45131 86.0424452 117.99661 86.1020101 117.52103 86.2827589 117.156806 86.5436121 116.862179 86.7839258 116.658028 86.662742 116.658028 86.7428465 116.588431 86.8044654 116.497955 86.8640304 116.361081 86.9030556 116.203327 86.7428465 115.614073 86.8640304 114.978421 87.1248836 114.433244 87.4494098 114.06902 87.6506981 114.001743 87.9505767 113.955345 88.1908904 113.864869 88.2709949 113.637519 88.712597 111.345458 88.3326138 110.190149"></polygon>
            </g>
        </g>
    </g>
</svg>