<?xml version="1.0" encoding="UTF-8"?>
<svg width="120px" height="137px" viewBox="0 0 120 137" version="1.1" xmlns="http://www.w3.org/2000/svg" xmlns:xlink="http://www.w3.org/1999/xlink">
    <!-- Generator: Sketch 51 (57462) - http://www.bohemiancoding.com/sketch -->
    <title>Wisconsin</title>
    <desc>Created with Sketch.</desc>
    <defs></defs>
    <g id="Page-1" stroke="none" stroke-width="1" fill="none" fill-rule="evenodd">
        <g id="A5" transform="translate(-737.000000, -137.000000)">
            <g id="Wisconsin" transform="translate(737.000000, 137.000000)">
                <path d="M39.402742,10.3020529 L39.4643609,10.8008312 L39.7478078,10.9377053 L40.5714469,10.1860579 L41.61486,9.78007557 L41.8346341,9.27897733 L41.4936762,9.25577834 L41.6538853,8.89387406 L42.0995953,8.4414937 L42.559683,8.21414358 L43.0629039,8.10046851 L43.3627825,7.89631738 L43.3627825,7.57849118 L43.001285,7.14698992 L42.6213019,7.26066499 L41.5532411,7.94271537 L41.3540067,8.21414358 L41.1527184,8.59924685 L39.7478078,9.6664005 L39.402742,10.3020529 L39.402742,10.3020529 Z M42.8821551,5.71793199 L43.223113,5.73881108 L43.5640708,5.83160705 L43.8639494,6.07983627 L43.7448196,5.64833501 L43.8043845,5.33282872 L43.9851332,5.0590806 L44.165882,4.83173048 L44.1453423,4.40022922 L43.8454637,4.37935013 L43.1019292,4.71805542 L42.1591602,5.0590806 L41.9393862,5.24003275 L41.6538853,5.76201008 L41.8346341,5.92208312 L42.8821551,5.71793199 L42.8821551,5.71793199 Z M35.7097167,5.12635768 L36.0301349,4.94772544 L36.2704486,4.53478338 L36.410118,4.12648111 L36.0896998,3.76457683 L35.8904654,4.05920403 L35.3687589,4.55798237 L35.3687589,4.85492947 L35.7097167,5.12635768 L35.7097167,5.12635768 Z M111.846013,60.4582746 L111.361278,60.3445995 L110.940216,59.9594962 L110.276786,59.0292166 L109.61541,58.5536373 L109.190239,58.9155416 L108.828742,59.3238438 L108.327575,59.0524156 L107.666199,60.0267733 L107.384806,60.3005214 L107.444371,59.7762242 L106.939096,59.7994232 L106.41739,60.2123652 L105.975788,60.7784207 L105.675909,61.254 L105.094637,62.5461839 L104.589363,64.0448388 L104.809137,64.4763401 L104.648927,64.9959975 L104.367535,65.4738967 L104.227865,65.8404408 L104.026577,66.135068 L102.683285,66.9493526 L101.876078,67.770597 L101.475555,68.3134534 L101.354371,68.8586297 L101.235241,69.5615592 L100.834718,69.9234635 L100.308904,70.0348186 L99.8262226,69.9675416 L99.4462395,69.7633904 L99.0251771,69.4014861 L98.7643238,69.0395819 L98.9656121,68.8586297 L99.0436627,67.9492292 L99.0642024,67.2903778 L99.1443069,67.0189496 L99.2654907,66.7915995 L99.4051602,66.3832972 L99.526344,66.2696222 L99.5859089,66.111869 L99.4256998,65.6780479 L99.3866745,65.5202947 L99.4667791,64.7918463 L99.5468836,64.499539 L99.7276324,64.1585139 L100.128155,63.6829345 L100.32739,63.3883073 L100.389008,63.0472821 L100.389008,62.7085768 L100.452681,62.3188338 L100.553325,61.9569295 L100.65397,61.6623023 L101.615224,60.1659673 L101.876078,59.3238438 L101.576199,58.5095592 L102.077366,57.6465567 L102.944138,57.1222594 L104.648927,56.465728 L105.053558,56.2151788 L105.37603,55.9205516 L105.575265,55.4658514 L105.595804,54.830199 L105.5157,54.2177456 L105.49516,53.8767204 L105.536239,53.6284912 L105.975788,52.6982116 L106.016867,52.4963804 L104.913889,52.1739144 L104.548283,51.928005 L104.488718,51.7888111 L104.367535,51.6078589 L104.127221,51.3364307 L103.626054,50.9049295 L103.285096,50.5175063 L103.124887,50.2692771 L103.083808,50.0674458 L103.083808,49.1116474 L103.124887,48.7497431 L103.38574,47.5016373 L103.765723,46.2512116 L103.886907,45.9797834 L104.147761,45.5946801 L104.227865,45.4114081 L104.227865,45.2536549 L104.186786,45.0935819 L104.026577,44.8685516 L103.845828,44.6156826 L103.706159,44.4579295 L103.566489,44.3929723 L103.445305,44.3929723 L103.326175,44.4347305 L101.956182,45.4346071 L101.816513,45.504204 L101.676843,45.527403 L101.516634,45.527403 L101.054492,45.4346071 L100.894283,45.457806 L100.773099,45.504204 L100.553325,45.6851562 L100.389008,45.7315542 L100.20826,45.7083552 L99.8878415,45.550602 L99.746118,45.3650101 L99.6660135,45.1840579 L99.6865531,45.0054257 L99.8467622,44.3697733 L99.8673019,44.1633023 L99.8673019,43.9127531 L99.7871973,43.5508489 L99.7666577,43.3258186 L99.8077369,43.1448665 L99.8878415,43.0079924 L100.473221,42.418738 L100.553325,42.3004232 L100.63343,42.165869 L100.754614,41.8735617 L100.834718,41.5534156 L100.853204,41.3956625 L100.853204,41.3028665 L100.834718,41.1010353 L100.592351,40.2148338 L100.347929,39.6464584 L100.32739,39.3750302 L100.411602,39.2381562 L100.553325,39.1708791 L100.65397,39.1012821 L100.754614,38.9876071 L100.814179,38.8066549 L100.834718,38.5816247 L100.793639,38.1733224 L100.734074,37.9691713 L100.65397,37.8090982 L100.267825,37.2639219 L100.087076,36.9669748 L100.06859,36.7419446 L100.087076,36.5818715 L100.288364,36.3568413 L100.347929,36.2663652 L100.389008,36.0830932 L100.389008,35.994937 L100.347929,35.9021411 L100.20826,35.7675869 L99.9083811,35.4729597 L99.6454739,35.1760126 L99.4256998,35.0182594 L98.9245329,34.7236322 L98.8238887,34.6076373 L98.5424958,34.2898111 L98.4623912,34.176136 L98.3432614,34.1088589 L98.2220776,34.0415819 L98.0577605,34.0183829 L97.1950961,34.0415819 L96.8541383,33.9719849 L96.7329545,33.9279068 L96.6138246,33.8374307 L96.5131804,33.7469547 L96.2523272,33.4523275 L96.1927622,33.4059295 L96.092118,33.3850504 L95.9914739,33.3850504 L95.6073828,33.5868816 L95.2869646,33.6564786 L95.1247015,33.6564786 L94.8042833,33.6100806 L94.4838651,33.5196045 L94.1819325,33.3850504 L94.0217234,33.2481763 L93.8019494,32.9976272 L93.7218449,32.7934761 L93.7218449,32.5893249 L93.7608702,32.4292519 L93.8019494,32.2714987 L94.1819325,31.6126474 L94.2435514,31.4757733 L94.3031164,31.2948212 L94.2825767,31.0233929 L94.2024722,30.8192418 L93.5760135,29.7056902 L93.3952648,29.5224181 L93.21657,29.411063 L92.8940978,29.3205869 L92.7544283,29.2741889 L92.2327218,28.8890856 L92.0725126,28.8426877 L91.9123035,28.8658866 L91.6309106,28.9563627 L91.4707015,28.9795617 L91.3063845,28.9795617 L90.944887,28.8890856 L90.5833895,28.7081335 L90.4231804,28.6617355 L90.2629713,28.6617355 L89.5810556,28.7313325 L89.2606374,28.7081335 L89.1353457,28.6849345 L88.5951535,28.2998312 L88.4144047,28.2325542 L88.233656,28.2093552 L87.8516189,28.3903073 L87.4901214,28.3903073 L86.7856121,28.0724811 L86.625403,28.028403 L86.4836796,28.051602 L86.3645497,28.1188791 L86.2043406,28.1420781 L86.0030523,28.0956801 L85.6620944,27.86833 L85.4402664,27.7778539 L85.241032,27.7082569 L85.0808229,27.7082569 L84.9390995,27.7569748 L84.79943,27.8010529 L84.5755481,27.982005 L84.4338246,28.028403 L84.2941551,28.028403 L84.133946,28.005204 L83.9922226,28.005204 L83.8730927,28.0724811 L83.470516,28.4575844 L83.3103069,28.5039824 L83.0905329,28.4807834 L82.3839696,28.1861562 L81.9423676,28.0956801 L81.6219494,27.9611259 L81.422715,27.9124081 L81.2214266,27.9124081 L81.0797032,27.9356071 L80.6997201,28.1652771 L80.539511,28.1861562 L80.3382226,28.1652771 L80.1780135,28.028403 L80.0342361,27.982005 L79.8925126,28.005204 L79.6131737,28.0956801 L79.4714503,28.1188791 L79.210597,28.1188791 L78.7299696,27.891529 L77.5016998,27.3231537 L76.2795919,26.7547783 L75.0718617,26.1887229 L73.8682395,25.6226675 L73.4266374,25.4417154 L72.7200742,25.3048413 L72.5003002,25.2816423 L71.9169747,25.1656474 L71.0111771,25.0078942 L69.8075548,24.8037431 L68.4005902,24.553194 L66.8354705,24.2585668 L65.147113,23.9639395 L63.3971366,23.6693123 L61.6676998,23.3514861 L59.9834503,23.0359798 L58.4142226,22.7622317 L57.007258,22.4884836 L55.8241754,22.2843325 L54.8957841,22.1033804 L54.3145126,22.0105844 L54.0947386,21.9665063 L53.5319528,21.8528312 L53.4313086,21.7391562 L53.351204,21.581403 L53.1478617,21.0130277 L52.7658246,20.2428212 L52.1434739,19.0387935 L51.7634907,18.2453879 L51.5231771,17.7698086 L51.2623238,17.4496625 L50.9809309,17.1550353 L50.7775885,17.0436801 L50.5763002,16.9972821 L50.3955514,16.9972821 L50.1552378,16.9276851 L49.9950287,16.8140101 L49.7937403,16.6330579 L49.5924519,16.5866599 L49.2330084,16.5425819 L49.1118246,16.4289068 L48.871511,16.0206045 L48.7297875,15.9533275 L48.6065497,15.9742065 L48.2655919,16.2479547 L48.1444081,16.3152317 L47.984199,16.3384307 L47.764425,16.3152317 L47.6227015,16.2479547 L47.5220573,16.1342796 L47.4234671,15.8396524 L47.2817437,15.2944761 L47.3433626,15.1367229 L46.8606813,15.5682242 L46.4806981,15.5914232 L45.6139258,15.1599219 L44.1884755,14.9302519 L42.3193693,13.9999723 L40.7706813,12.6637103 L40.3496189,12.4340403 L40.4913423,12.5268363 L40.9124047,12.9815365 L40.6905767,12.9815365 L40.4913423,13.0488136 L40.3105936,13.1392897 L40.1298449,13.2761637 L40.1503845,13.4571159 L40.8323002,13.3875189 L40.511882,13.9999723 L40.0292007,14.4337935 L37.7780573,15.6818992 L37.2337572,15.8628514 L36.691511,15.6355013 L36.8927993,15.020728 L37.1721383,14.4337935 L38.2997639,12.7286675 L38.3798685,12.3667632 L38.2607386,12.095335 L38.1005295,11.8215869 L37.9998853,11.5478388 L37.9998853,11.0281814 L38.0799899,10.392529 L38.2607386,9.84735264 L38.6016965,9.57360453 L38.901575,9.25577834 L39.3041518,7.89631738 L39.5834907,7.46713602 L39.4643609,7.19106801 L39.402742,7.07739295 L39.8484519,6.78276574 L39.7683474,6.55541562 L39.5033862,6.37446348 L39.3431771,6.19351134 L39.2240472,5.62745592 L39.0227589,5.46738287 L38.4414874,5.55785894 L38.3408432,5.49058186 L38.2792243,5.30962972 L38.240199,5.10315869 L38.2011737,4.99180353 L38.020425,4.89900756 L37.8396762,4.85492947 L37.4576391,4.83173048 L37.3138617,4.94772544 L37.2522428,5.14955668 L37.2132175,5.3769068 L37.1721383,5.51378086 L36.9934435,5.60425693 L36.7716155,5.694733 L36.3710927,5.76201008 L36.2108836,5.73881108 L35.9089511,5.64833501 L35.7898212,5.62745592 L35.6090725,5.694733 L35.4878887,5.83160705 L35.4077841,5.96616121 L35.3482192,6.05663728 L34.5410118,6.53221662 L34.3417774,6.75956675 L34.2616728,6.94283879 L34.2411332,7.14698992 L34.200054,7.30474307 L34.0398449,7.39521914 L33.6578078,7.44161713 L33.4975987,7.51121411 L33.3373895,7.64576826 L33.0765363,8.32781864 L32.8321147,8.57604786 L32.4521315,8.34869773 L32.4706172,8.16774559 L32.4521315,8.10046851 L32.4315919,8.05639043 L32.4110523,7.91951637 L32.0700944,8.39509572 L31.649032,8.59924685 L31.3676391,8.4623728 L31.4682833,7.80584131 L30.9260371,8.00999244 L30.0202395,8.98435013 L28.5968432,10.1442997 L27.7095312,11.1859345 L27.4281383,10.9585844 L26.0211737,11.7287909 L24.4971332,12.095335 L20.2967791,14.1809244 L17.4828499,14.8861738 L17.0186543,14.8861738 L15.7554671,14.3177985 L15.4535346,14.2482015 L15.1125767,14.0672494 L14.6073019,13.638068 L14.1656998,13.1392897 L14.0260304,12.8678615 L13.7651771,13.0024156 L13.4632445,13.2761637 L13.3441147,13.568471 L13.2044452,14.0672494 L13.1428263,14.1809244 L13.0421821,14.2714005 L12.7423035,14.3850756 L12.6170118,14.4546725 L12.5369073,14.5451486 L12.4568027,14.6820227 L12.3972378,14.8397758 L12.3766981,15.020728 L12.3376728,15.7723753 L12.2965936,15.9069295 L12.2575683,15.9742065 L12.1959494,16.0878816 L12.0973592,16.1574786 L11.8159663,16.2711537 L11.4955481,16.3152317 L11.1340506,16.3152317 L10.8526577,16.2247557 L10.7725531,16.2015567 L10.7314739,16.3152317 L10.7725531,16.9485642 L10.8731973,18.8114433 L10.9923272,20.6743224 L11.0929713,22.5116826 L11.2141551,24.3722418 L11.3147993,26.232801 L11.555113,29.9562393 L11.6557572,31.8167985 L11.6947825,32.2482997 L11.7358617,33.2017783 L11.3743642,33.3154534 L11.1340506,33.5428035 L10.8937369,33.8815088 L10.7129882,34.2898111 L10.6513693,34.6981134 L10.4726745,34.9718615 L10.0269646,34.9718615 L9.52374368,34.9045844 L9.1848398,34.9045844 L8.90344688,35.1992116 L8.52140978,35.994937 L8.24001686,36.1758892 L7.43486341,36.2431662 L7.25411467,36.3336423 L7.11444519,36.4705164 L6.99326138,36.6282695 L6.93369646,36.6955466 L6.91315683,36.7651436 L6.71186847,37.1943249 L6.61327825,37.3335189 L6.47155481,37.4448741 L5.97038786,37.5585491 L4.94340641,38.3542746 L4.60244857,38.4679496 L4.02117707,38.8298539 L3.49536256,39.6000605 L2.81344688,41.2587884 L2.95311636,42.096272 L2.45194941,43.0079924 L0.864236088,44.8894307 L0.704026981,45.2536549 L0.662947723,45.7547531 L0.642408094,47.9980957 L1.08401012,48.9979723 L1.93024283,49.1557254 L2.93463069,49.0652494 L3.70075885,49.3157985 L3.94107251,49.7449798 L4.30256998,50.8608514 L4.48331872,51.2668338 L4.84276223,51.721534 L5.22479933,52.1066373 L5.52467791,52.5404584 L5.64586172,53.1065139 L5.60478246,53.6284912 L5.08307589,54.6933249 L5.00297133,55.3753753 L4.92286678,55.9205516 L4.68255312,56.2824559 L4.4011602,56.579403 L4.14236088,56.9645063 L4.00063744,57.4609647 L3.96161214,58.008461 L4.02117707,59.3238438 L3.92053288,59.9594962 L3.89999325,60.3005214 L4.00063744,60.4582746 L4.4011602,61.414073 L4.46277909,62.0729244 L4.38267454,62.6621788 L4.14236088,63.0913602 L3.76032378,63.2746322 L3.49536256,63.5924584 L3.6761113,64.2257909 L4.22041147,65.5202947 L4.48331872,66.7684005 L4.64352782,68.0165063 L4.58190894,68.2206574 L4.34159528,68.7449547 L4.30256998,69.060461 L4.46277909,69.9907406 L4.50180438,70.3572846 L4.42169983,71.1715693 L3.70075885,73.0785264 L4.26149073,73.5564257 L5.54521754,74.3034332 L7.01380101,75.7324912 L7.39378415,75.9621612 L7.53550759,76.2103904 L7.63615177,76.4841385 L7.73474199,76.6418917 L8.64259359,77.163869 L11.7543474,77.4793753 L12.4773423,77.7090453 L13.1839056,78.2519018 L13.8062563,78.9803501 L14.4080675,80.2284559 L14.5867622,80.5462821 L14.8085902,80.7713123 L15.0940911,80.8849874 L17.4438246,81.1355365 L18.5262631,81.4765617 L21.7633086,84.2210025 L22.6074874,85.5642242 L24.3163845,88.6032922 L24.7374469,89.1484685 L25.5384924,89.4639748 L28.0094098,91.531005 L28.2517774,91.6678791 L28.5167386,91.7119572 L30.4413019,91.554204 L30.5624857,91.5982821 L31.7702159,92.5076826 L31.9098853,92.5726398 L32.0906341,92.6190378 L32.8321147,92.6190378 L33.0765363,92.7327128 L33.2182597,92.8695869 L33.3168499,93.0296599 L33.3784688,93.2082922 L33.4380337,93.4356423 L33.5982428,93.8462645 L34.0994098,94.4355189 L34.2801585,94.8206222 L35.1633626,95.0943703 L35.4488634,95.2498035 L35.6686374,95.4794736 L35.8083069,95.7509018 L35.9294907,96.0710479 L36.0691602,96.7948564 L36.1307791,97.4769068 L36.1492648,98.3399093 L36.1698044,98.6136574 L36.2293693,98.8618866 L36.3300135,99.0892368 L36.4511973,99.2933879 L36.7510759,99.6320932 L36.8927993,99.8362443 L36.9729039,100.109992 L37.0920337,100.678368 L37.133113,101.244423 L36.9934435,102.877632 L37.0119292,103.1537 L37.2337572,103.923907 L37.2522428,104.239413 L37.2337572,105.172013 L37.2727825,105.580315 L37.4576391,106.329642 L37.519258,106.714746 L37.4987184,107.099849 L37.4370995,107.802778 L37.4370995,108.236599 L37.4781788,108.596184 L37.5582833,108.939529 L37.6794671,109.255035 L37.9998853,109.84429 L38.1190152,110.118038 L38.2011737,110.433544 L38.3613828,111.254788 L38.5400776,111.549416 L38.7824452,111.730368 L40.5714469,112.342821 L41.1136931,112.976154 L41.2328229,114.089705 L40.9124047,115.019985 L39.9696358,116.722791 L39.8094266,117.789945 L40.0702799,119.877854 L40.290054,120.875411 L40.3701585,121.965763 L40.4297234,122.306788 L40.5509073,122.645494 L40.6720911,124.009594 L40.8323002,124.666126 L41.0931535,125.141705 L41.7134503,125.870154 L41.9599258,126.276136 L42.1201349,126.800433 L42.2598044,128.069418 L42.3809882,128.616914 L43.1614941,130.043652 L43.442887,130.407877 L43.944054,130.748902 L44.8519056,131.092247 L48.3867757,131.521428 L49.3315987,131.816055 L49.8142799,131.839254 L50.3154469,131.973809 L50.6564047,132.382111 L51.14114,133.56294 L51.3424283,133.906285 L51.9236998,134.69737 L52.1249882,135.128872 L52.1044486,135.467577 L51.8846745,136.151947 L51.9236998,136.151947 L51.9442395,136.128748 L51.9647791,136.128748 L55.5818078,135.834121 L59.1967825,135.516295 L62.7953255,135.17295 L66.3897605,134.857443 L70.0088432,134.516418 L73.6258718,134.177713 L77.2203069,133.811169 L80.8188499,133.472463 L84.415339,133.110559 L88.0323676,132.723136 L91.6309106,132.358912 L95.2253457,131.973809 L98.8238887,131.591025 L102.438863,131.180403 L106.037406,130.772101 L109.574331,130.384678 L109.210779,128.113496 L109.231319,127.821189 L109.290884,127.480164 L109.290884,127.139139 L109.069056,126.64268 L109.009491,126.276136 L108.970465,125.870154 L108.970465,125.573207 L109.089595,125.007151 L109.434661,124.009594 L109.455201,121.965763 L109.370988,121.422907 L109.069056,120.808134 L108.107801,119.694582 L107.867487,119.288599 L107.766843,118.993972 L107.464911,116.588237 L107.245137,115.908506 L106.840506,115.316932 L106.25718,115.203257 L106.076432,114.839033 L106.138051,114.293856 L106.437929,113.182625 L106.458469,112.929756 L106.437929,112.567851 L106.337285,112.410098 L105.916223,112.092272 L105.797093,111.820844 L105.815578,111.138793 L105.916223,110.663214 L105.936762,110.164436 L105.716988,109.482385 L105.49516,108.962728 L105.37603,108.644902 L105.254847,107.575428 L105.595804,105.260169 L105.655369,104.332209 L106.659757,101.425375 L106.840506,100.221348 L106.538573,99.2933879 L106.577599,98.5672594 L106.739862,97.954806 L107.725764,95.4121965 L108.107801,93.9599395 L107.927052,93.7789874 L108.027696,93.4356423 L107.986617,93.3451662 L107.867487,93.143335 L108.007157,92.820869 L108.046182,92.5308816 L108.007157,92.2548136 L107.906513,91.9161083 L107.384806,91.1227028 L107.325241,90.9858287 L107.140384,90.6680025 L107.03974,89.897796 L107.000715,87.6242947 L107.019201,87.3111083 L107.325241,86.6290579 L107.343727,86.3553098 L107.343727,85.6059824 L107.425885,84.97033 L108.208445,82.2258892 L108.467245,81.6807128 L108.728098,81.3860856 L109.816698,80.5903602 L110.157656,80.1356599 L110.436995,79.5904836 L110.638283,78.9571511 L110.679363,78.3214987 L110.498614,77.8691184 L109.574331,76.7323678 L109.329909,75.7324912 L109.329909,75.3961058 L109.455201,74.7813325 L109.514766,74.3034332 L109.736594,73.6469018 L109.775619,73.3290756 L109.736594,72.6447053 L109.976907,69.2646121 L110.237761,67.9260302 L110.638283,66.7684005 L111.441383,65.3393426 L111.581052,64.7477683 L111.804934,64.2049118 L111.846013,64.0448388 L111.846013,63.7061335 L111.885039,63.3651083 L112.308155,61.3444761 L112.267076,60.6856247 L111.846013,60.4582746 L111.846013,60.4582746 Z M40.4112378,6.19351134 L40.7706813,5.92208312 L40.95143,5.71793199 L40.8918651,5.42330479 L40.5899325,4.96860453 L40.4502631,4.87580856 L40.0887656,4.71805542 L39.8895312,4.60438035 L39.8299663,4.85492947 L39.7683474,5.0590806 L39.6882428,5.26323174 L39.5629511,5.46738287 L40.1894098,5.92208312 L40.4112378,6.19351134 L40.4112378,6.19351134 Z M46.3163811,2.17544584 L46.156172,1.19876826 L46.1951973,1.0874131 L46.2362766,0.994617128 L46.2547622,0.906460957 L46.2547622,0.769586902 L45.6529511,0.83686398 L45.2935076,1.3820403 L45.1332985,2.24504282 L45.1332985,3.2217204 L45.934344,2.74382116 L46.3163811,2.17544584 L46.3163811,2.17544584 Z M119.560698,43.3026196 L119.679828,42.8247204 L119.801012,42.3004232 L119.761987,41.8016448 L119.501133,41.4861385 L119.139636,41.5070176 L118.778138,41.7111688 L118.43718,41.8016448 L118.133194,41.4629395 L117.911366,41.2587884 L117.751157,41.4861385 L117.691592,41.9617179 L117.691592,42.441937 L117.851801,43.1657456 L117.810722,43.4603728 L117.570408,43.778199 L117.771696,43.8918741 L118.01201,43.8454761 L118.496745,43.6645239 L119.741447,43.6877229 L119.620263,43.4162947 L119.560698,43.3026196 L119.560698,43.3026196 Z M117.490304,46.3208086 L117.451278,46.0702594 L117.510843,45.8220302 L117.570408,45.4114081 L117.410199,45.344131 L116.929572,45.504204 L116.327761,45.5714811 L116.083339,45.4786851 L115.781406,45.2304559 L115.680762,45.457806 L115.621197,45.6619572 L115.600658,45.9125063 L115.621197,46.1839345 L115.580118,46.3416877 L115.419909,46.4344836 L115.23916,46.4785617 L115.12003,46.5690378 L114.939282,47.9076196 L114.918742,48.3182418 L114.799612,48.612869 L114.156722,48.9747733 L114.035538,49.2694005 L113.936948,49.5872267 L113.610368,49.6104257 L113.230384,49.5199496 L112.969531,49.4967506 L112.729218,49.8145768 L112.569008,50.3133552 L112.488904,50.9049295 L112.488904,51.8560882 L112.427285,52.1739144 L112.207511,52.6518136 L112.207511,52.7886877 L112.267076,53.1297128 L112.267076,53.2433879 L112.186971,53.2897859 L111.946658,53.2665869 L111.866553,53.2897859 L110.878597,54.9879521 L110.498614,56.1015038 L110.35689,57.3936877 L110.617744,58.5304383 L111.240094,59.5975919 L112.026762,60.2123652 L112.829862,60.0986902 L113.12974,59.7762242 L113.936948,58.2358111 L114.056078,57.938864 L114.097157,57.3496096 L114.177261,57.0990605 L114.33747,56.8949093 L114.737993,56.6002821 L114.898202,56.3752519 L114.376496,55.8996725 L114.538759,54.9415542 L115.280239,53.2665869 L115.399369,52.6286146 L115.500013,52.3316675 L115.701302,52.1971134 L115.861511,52.2411914 L116.04226,52.3107884 L116.206577,52.3548665 L116.266142,52.2411914 L116.186037,51.698335 L116.206577,51.561461 L116.307221,51.2900327 L116.387325,51.1763577 L116.547535,51.1554786 L116.707744,51.0626826 L116.808388,50.8144534 L115.962155,50.0883249 L115.740327,49.7217809 L115.982695,49.5640277 L116.247656,49.5872267 L116.828927,49.7913778 L116.748823,49.5199496 L116.506455,49.1325264 L116.44689,48.8402191 L116.44689,48.5455919 L116.58656,47.5921134 L116.48797,47.4088413 L116.327761,47.2487683 L116.266142,47.1118942 L116.526995,46.9773401 L116.728283,47.0214181 L117.549868,47.4575592 L117.730617,46.817267 L117.590948,46.5690378 L117.490304,46.3208086 L117.490304,46.3208086 Z" id="Fill-5" fill="#D6D6D6"></path>
                <path d="M39.402742,10.3020529 L39.4643609,10.8008312 L39.7478078,10.9377053 L40.5714469,10.1860579 L41.61486,9.78007557 L41.8346341,9.27897733 L41.4936762,9.25577834 L41.6538853,8.89387406 L42.0995953,8.4414937 L42.559683,8.21414358 L43.0629039,8.10046851 L43.3627825,7.89631738 L43.3627825,7.57849118 L43.001285,7.14698992 L42.6213019,7.26066499 L41.5532411,7.94271537 L41.3540067,8.21414358 L41.1527184,8.59924685 L39.7478078,9.6664005 L39.402742,10.3020529 L39.402742,10.3020529 Z M42.8821551,5.71793199 L43.223113,5.73881108 L43.5640708,5.83160705 L43.8639494,6.07983627 L43.7448196,5.64833501 L43.8043845,5.33282872 L43.9851332,5.0590806 L44.165882,4.83173048 L44.1453423,4.40022922 L43.8454637,4.37935013 L43.1019292,4.71805542 L42.1591602,5.0590806 L41.9393862,5.24003275 L41.6538853,5.76201008 L41.8346341,5.92208312 L42.8821551,5.71793199 L42.8821551,5.71793199 Z M35.7097167,5.12635768 L36.0301349,4.94772544 L36.2704486,4.53478338 L36.410118,4.12648111 L36.0896998,3.76457683 L35.8904654,4.05920403 L35.3687589,4.55798237 L35.3687589,4.85492947 L35.7097167,5.12635768 L35.7097167,5.12635768 Z M111.846013,60.4582746 L111.361278,60.3445995 L110.940216,59.9594962 L110.276786,59.0292166 L109.61541,58.5536373 L109.190239,58.9155416 L108.828742,59.3238438 L108.327575,59.0524156 L107.666199,60.0267733 L107.384806,60.3005214 L107.444371,59.7762242 L106.939096,59.7994232 L106.41739,60.2123652 L105.975788,60.7784207 L105.675909,61.254 L105.094637,62.5461839 L104.589363,64.0448388 L104.809137,64.4763401 L104.648927,64.9959975 L104.367535,65.4738967 L104.227865,65.8404408 L104.026577,66.135068 L102.683285,66.9493526 L101.876078,67.770597 L101.475555,68.3134534 L101.354371,68.8586297 L101.235241,69.5615592 L100.834718,69.9234635 L100.308904,70.0348186 L99.8262226,69.9675416 L99.4462395,69.7633904 L99.0251771,69.4014861 L98.7643238,69.0395819 L98.9656121,68.8586297 L99.0436627,67.9492292 L99.0642024,67.2903778 L99.1443069,67.0189496 L99.2654907,66.7915995 L99.4051602,66.3832972 L99.526344,66.2696222 L99.5859089,66.111869 L99.4256998,65.6780479 L99.3866745,65.5202947 L99.4667791,64.7918463 L99.5468836,64.499539 L99.7276324,64.1585139 L100.128155,63.6829345 L100.32739,63.3883073 L100.389008,63.0472821 L100.389008,62.7085768 L100.452681,62.3188338 L100.553325,61.9569295 L100.65397,61.6623023 L101.615224,60.1659673 L101.876078,59.3238438 L101.576199,58.5095592 L102.077366,57.6465567 L102.944138,57.1222594 L104.648927,56.465728 L105.053558,56.2151788 L105.37603,55.9205516 L105.575265,55.4658514 L105.595804,54.830199 L105.5157,54.2177456 L105.49516,53.8767204 L105.536239,53.6284912 L105.975788,52.6982116 L106.016867,52.4963804 L104.913889,52.1739144 L104.548283,51.928005 L104.488718,51.7888111 L104.367535,51.6078589 L104.127221,51.3364307 L103.626054,50.9049295 L103.285096,50.5175063 L103.124887,50.2692771 L103.083808,50.0674458 L103.083808,49.1116474 L103.124887,48.7497431 L103.38574,47.5016373 L103.765723,46.2512116 L103.886907,45.9797834 L104.147761,45.5946801 L104.227865,45.4114081 L104.227865,45.2536549 L104.186786,45.0935819 L104.026577,44.8685516 L103.845828,44.6156826 L103.706159,44.4579295 L103.566489,44.3929723 L103.445305,44.3929723 L103.326175,44.4347305 L101.956182,45.4346071 L101.816513,45.504204 L101.676843,45.527403 L101.516634,45.527403 L101.054492,45.4346071 L100.894283,45.457806 L100.773099,45.504204 L100.553325,45.6851562 L100.389008,45.7315542 L100.20826,45.7083552 L99.8878415,45.550602 L99.746118,45.3650101 L99.6660135,45.1840579 L99.6865531,45.0054257 L99.8467622,44.3697733 L99.8673019,44.1633023 L99.8673019,43.9127531 L99.7871973,43.5508489 L99.7666577,43.3258186 L99.8077369,43.1448665 L99.8878415,43.0079924 L100.473221,42.418738 L100.553325,42.3004232 L100.63343,42.165869 L100.754614,41.8735617 L100.834718,41.5534156 L100.853204,41.3956625 L100.853204,41.3028665 L100.834718,41.1010353 L100.592351,40.2148338 L100.347929,39.6464584 L100.32739,39.3750302 L100.411602,39.2381562 L100.553325,39.1708791 L100.65397,39.1012821 L100.754614,38.9876071 L100.814179,38.8066549 L100.834718,38.5816247 L100.793639,38.1733224 L100.734074,37.9691713 L100.65397,37.8090982 L100.267825,37.2639219 L100.087076,36.9669748 L100.06859,36.7419446 L100.087076,36.5818715 L100.288364,36.3568413 L100.347929,36.2663652 L100.389008,36.0830932 L100.389008,35.994937 L100.347929,35.9021411 L100.20826,35.7675869 L99.9083811,35.4729597 L99.6454739,35.1760126 L99.4256998,35.0182594 L98.9245329,34.7236322 L98.8238887,34.6076373 L98.5424958,34.2898111 L98.4623912,34.176136 L98.3432614,34.1088589 L98.2220776,34.0415819 L98.0577605,34.0183829 L97.1950961,34.0415819 L96.8541383,33.9719849 L96.7329545,33.9279068 L96.6138246,33.8374307 L96.5131804,33.7469547 L96.2523272,33.4523275 L96.1927622,33.4059295 L96.092118,33.3850504 L95.9914739,33.3850504 L95.6073828,33.5868816 L95.2869646,33.6564786 L95.1247015,33.6564786 L94.8042833,33.6100806 L94.4838651,33.5196045 L94.1819325,33.3850504 L94.0217234,33.2481763 L93.8019494,32.9976272 L93.7218449,32.7934761 L93.7218449,32.5893249 L93.7608702,32.4292519 L93.8019494,32.2714987 L94.1819325,31.6126474 L94.2435514,31.4757733 L94.3031164,31.2948212 L94.2825767,31.0233929 L94.2024722,30.8192418 L93.5760135,29.7056902 L93.3952648,29.5224181 L93.21657,29.411063 L92.8940978,29.3205869 L92.7544283,29.2741889 L92.2327218,28.8890856 L92.0725126,28.8426877 L91.9123035,28.8658866 L91.6309106,28.9563627 L91.4707015,28.9795617 L91.3063845,28.9795617 L90.944887,28.8890856 L90.5833895,28.7081335 L90.4231804,28.6617355 L90.2629713,28.6617355 L89.5810556,28.7313325 L89.2606374,28.7081335 L89.1353457,28.6849345 L88.5951535,28.2998312 L88.4144047,28.2325542 L88.233656,28.2093552 L87.8516189,28.3903073 L87.4901214,28.3903073 L86.7856121,28.0724811 L86.625403,28.028403 L86.4836796,28.051602 L86.3645497,28.1188791 L86.2043406,28.1420781 L86.0030523,28.0956801 L85.6620944,27.86833 L85.4402664,27.7778539 L85.241032,27.7082569 L85.0808229,27.7082569 L84.9390995,27.7569748 L84.79943,27.8010529 L84.5755481,27.982005 L84.4338246,28.028403 L84.2941551,28.028403 L84.133946,28.005204 L83.9922226,28.005204 L83.8730927,28.0724811 L83.470516,28.4575844 L83.3103069,28.5039824 L83.0905329,28.4807834 L82.3839696,28.1861562 L81.9423676,28.0956801 L81.6219494,27.9611259 L81.422715,27.9124081 L81.2214266,27.9124081 L81.0797032,27.9356071 L80.6997201,28.1652771 L80.539511,28.1861562 L80.3382226,28.1652771 L80.1780135,28.028403 L80.0342361,27.982005 L79.8925126,28.005204 L79.6131737,28.0956801 L79.4714503,28.1188791 L79.210597,28.1188791 L78.7299696,27.891529 L77.5016998,27.3231537 L76.2795919,26.7547783 L75.0718617,26.1887229 L73.8682395,25.6226675 L73.4266374,25.4417154 L72.7200742,25.3048413 L72.5003002,25.2816423 L71.9169747,25.1656474 L71.0111771,25.0078942 L69.8075548,24.8037431 L68.4005902,24.553194 L66.8354705,24.2585668 L65.147113,23.9639395 L63.3971366,23.6693123 L61.6676998,23.3514861 L59.9834503,23.0359798 L58.4142226,22.7622317 L57.007258,22.4884836 L55.8241754,22.2843325 L54.8957841,22.1033804 L54.3145126,22.0105844 L54.0947386,21.9665063 L53.5319528,21.8528312 L53.4313086,21.7391562 L53.351204,21.581403 L53.1478617,21.0130277 L52.7658246,20.2428212 L52.1434739,19.0387935 L51.7634907,18.2453879 L51.5231771,17.7698086 L51.2623238,17.4496625 L50.9809309,17.1550353 L50.7775885,17.0436801 L50.5763002,16.9972821 L50.3955514,16.9972821 L50.1552378,16.9276851 L49.9950287,16.8140101 L49.7937403,16.6330579 L49.5924519,16.5866599 L49.2330084,16.5425819 L49.1118246,16.4289068 L48.871511,16.0206045 L48.7297875,15.9533275 L48.6065497,15.9742065 L48.2655919,16.2479547 L48.1444081,16.3152317 L47.984199,16.3384307 L47.764425,16.3152317 L47.6227015,16.2479547 L47.5220573,16.1342796 L47.4234671,15.8396524 L47.2817437,15.2944761 L47.3433626,15.1367229 L46.8606813,15.5682242 L46.4806981,15.5914232 L45.6139258,15.1599219 L44.1884755,14.9302519 L42.3193693,13.9999723 L40.7706813,12.6637103 L40.3496189,12.4340403 L40.4913423,12.5268363 L40.9124047,12.9815365 L40.6905767,12.9815365 L40.4913423,13.0488136 L40.3105936,13.1392897 L40.1298449,13.2761637 L40.1503845,13.4571159 L40.8323002,13.3875189 L40.511882,13.9999723 L40.0292007,14.4337935 L37.7780573,15.6818992 L37.2337572,15.8628514 L36.691511,15.6355013 L36.8927993,15.020728 L37.1721383,14.4337935 L38.2997639,12.7286675 L38.3798685,12.3667632 L38.2607386,12.095335 L38.1005295,11.8215869 L37.9998853,11.5478388 L37.9998853,11.0281814 L38.0799899,10.392529 L38.2607386,9.84735264 L38.6016965,9.57360453 L38.901575,9.25577834 L39.3041518,7.89631738 L39.5834907,7.46713602 L39.4643609,7.19106801 L39.402742,7.07739295 L39.8484519,6.78276574 L39.7683474,6.55541562 L39.5033862,6.37446348 L39.3431771,6.19351134 L39.2240472,5.62745592 L39.0227589,5.46738287 L38.4414874,5.55785894 L38.3408432,5.49058186 L38.2792243,5.30962972 L38.240199,5.10315869 L38.2011737,4.99180353 L38.020425,4.89900756 L37.8396762,4.85492947 L37.4576391,4.83173048 L37.3138617,4.94772544 L37.2522428,5.14955668 L37.2132175,5.3769068 L37.1721383,5.51378086 L36.9934435,5.60425693 L36.7716155,5.694733 L36.3710927,5.76201008 L36.2108836,5.73881108 L35.9089511,5.64833501 L35.7898212,5.62745592 L35.6090725,5.694733 L35.4878887,5.83160705 L35.4077841,5.96616121 L35.3482192,6.05663728 L34.5410118,6.53221662 L34.3417774,6.75956675 L34.2616728,6.94283879 L34.2411332,7.14698992 L34.200054,7.30474307 L34.0398449,7.39521914 L33.6578078,7.44161713 L33.4975987,7.51121411 L33.3373895,7.64576826 L33.0765363,8.32781864 L32.8321147,8.57604786 L32.4521315,8.34869773 L32.4706172,8.16774559 L32.4521315,8.10046851 L32.4315919,8.05639043 L32.4110523,7.91951637 L32.0700944,8.39509572 L31.649032,8.59924685 L31.3676391,8.4623728 L31.4682833,7.80584131 L30.9260371,8.00999244 L30.0202395,8.98435013 L28.5968432,10.1442997 L27.7095312,11.1859345 L27.4281383,10.9585844 L26.0211737,11.7287909 L24.4971332,12.095335 L20.2967791,14.1809244 L17.4828499,14.8861738 L17.0186543,14.8861738 L15.7554671,14.3177985 L15.4535346,14.2482015 L15.1125767,14.0672494 L14.6073019,13.638068 L14.1656998,13.1392897 L14.0260304,12.8678615 L13.7651771,13.0024156 L13.4632445,13.2761637 L13.3441147,13.568471 L13.2044452,14.0672494 L13.1428263,14.1809244 L13.0421821,14.2714005 L12.7423035,14.3850756 L12.6170118,14.4546725 L12.5369073,14.5451486 L12.4568027,14.6820227 L12.3972378,14.8397758 L12.3766981,15.020728 L12.3376728,15.7723753 L12.2965936,15.9069295 L12.2575683,15.9742065 L12.1959494,16.0878816 L12.0973592,16.1574786 L11.8159663,16.2711537 L11.4955481,16.3152317 L11.1340506,16.3152317 L10.8526577,16.2247557 L10.7725531,16.2015567 L10.7314739,16.3152317 L10.7725531,16.9485642 L10.8731973,18.8114433 L10.9923272,20.6743224 L11.0929713,22.5116826 L11.2141551,24.3722418 L11.3147993,26.232801 L11.555113,29.9562393 L11.6557572,31.8167985 L11.6947825,32.2482997 L11.7358617,33.2017783 L11.3743642,33.3154534 L11.1340506,33.5428035 L10.8937369,33.8815088 L10.7129882,34.2898111 L10.6513693,34.6981134 L10.4726745,34.9718615 L10.0269646,34.9718615 L9.52374368,34.9045844 L9.1848398,34.9045844 L8.90344688,35.1992116 L8.52140978,35.994937 L8.24001686,36.1758892 L7.43486341,36.2431662 L7.25411467,36.3336423 L7.11444519,36.4705164 L6.99326138,36.6282695 L6.93369646,36.6955466 L6.91315683,36.7651436 L6.71186847,37.1943249 L6.61327825,37.3335189 L6.47155481,37.4448741 L5.97038786,37.5585491 L4.94340641,38.3542746 L4.60244857,38.4679496 L4.02117707,38.8298539 L3.49536256,39.6000605 L2.81344688,41.2587884 L2.95311636,42.096272 L2.45194941,43.0079924 L0.864236088,44.8894307 L0.704026981,45.2536549 L0.662947723,45.7547531 L0.642408094,47.9980957 L1.08401012,48.9979723 L1.93024283,49.1557254 L2.93463069,49.0652494 L3.70075885,49.3157985 L3.94107251,49.7449798 L4.30256998,50.8608514 L4.48331872,51.2668338 L4.84276223,51.721534 L5.22479933,52.1066373 L5.52467791,52.5404584 L5.64586172,53.1065139 L5.60478246,53.6284912 L5.08307589,54.6933249 L5.00297133,55.3753753 L4.92286678,55.9205516 L4.68255312,56.2824559 L4.4011602,56.579403 L4.14236088,56.9645063 L4.00063744,57.4609647 L3.96161214,58.008461 L4.02117707,59.3238438 L3.92053288,59.9594962 L3.89999325,60.3005214 L4.00063744,60.4582746 L4.4011602,61.414073 L4.46277909,62.0729244 L4.38267454,62.6621788 L4.14236088,63.0913602 L3.76032378,63.2746322 L3.49536256,63.5924584 L3.6761113,64.2257909 L4.22041147,65.5202947 L4.48331872,66.7684005 L4.64352782,68.0165063 L4.58190894,68.2206574 L4.34159528,68.7449547 L4.30256998,69.060461 L4.46277909,69.9907406 L4.50180438,70.3572846 L4.42169983,71.1715693 L3.70075885,73.0785264 L4.26149073,73.5564257 L5.54521754,74.3034332 L7.01380101,75.7324912 L7.39378415,75.9621612 L7.53550759,76.2103904 L7.63615177,76.4841385 L7.73474199,76.6418917 L8.64259359,77.163869 L11.7543474,77.4793753 L12.4773423,77.7090453 L13.1839056,78.2519018 L13.8062563,78.9803501 L14.4080675,80.2284559 L14.5867622,80.5462821 L14.8085902,80.7713123 L15.0940911,80.8849874 L17.4438246,81.1355365 L18.5262631,81.4765617 L21.7633086,84.2210025 L22.6074874,85.5642242 L24.3163845,88.6032922 L24.7374469,89.1484685 L25.5384924,89.4639748 L28.0094098,91.531005 L28.2517774,91.6678791 L28.5167386,91.7119572 L30.4413019,91.554204 L30.5624857,91.5982821 L31.7702159,92.5076826 L31.9098853,92.5726398 L32.0906341,92.6190378 L32.8321147,92.6190378 L33.0765363,92.7327128 L33.2182597,92.8695869 L33.3168499,93.0296599 L33.3784688,93.2082922 L33.4380337,93.4356423 L33.5982428,93.8462645 L34.0994098,94.4355189 L34.2801585,94.8206222 L35.1633626,95.0943703 L35.4488634,95.2498035 L35.6686374,95.4794736 L35.8083069,95.7509018 L35.9294907,96.0710479 L36.0691602,96.7948564 L36.1307791,97.4769068 L36.1492648,98.3399093 L36.1698044,98.6136574 L36.2293693,98.8618866 L36.3300135,99.0892368 L36.4511973,99.2933879 L36.7510759,99.6320932 L36.8927993,99.8362443 L36.9729039,100.109992 L37.0920337,100.678368 L37.133113,101.244423 L36.9934435,102.877632 L37.0119292,103.1537 L37.2337572,103.923907 L37.2522428,104.239413 L37.2337572,105.172013 L37.2727825,105.580315 L37.4576391,106.329642 L37.519258,106.714746 L37.4987184,107.099849 L37.4370995,107.802778 L37.4370995,108.236599 L37.4781788,108.596184 L37.5582833,108.939529 L37.6794671,109.255035 L37.9998853,109.84429 L38.1190152,110.118038 L38.2011737,110.433544 L38.3613828,111.254788 L38.5400776,111.549416 L38.7824452,111.730368 L40.5714469,112.342821 L41.1136931,112.976154 L41.2328229,114.089705 L40.9124047,115.019985 L39.9696358,116.722791 L39.8094266,117.789945 L40.0702799,119.877854 L40.290054,120.875411 L40.3701585,121.965763 L40.4297234,122.306788 L40.5509073,122.645494 L40.6720911,124.009594 L40.8323002,124.666126 L41.0931535,125.141705 L41.7134503,125.870154 L41.9599258,126.276136 L42.1201349,126.800433 L42.2598044,128.069418 L42.3809882,128.616914 L43.1614941,130.043652 L43.442887,130.407877 L43.944054,130.748902 L44.8519056,131.092247 L48.3867757,131.521428 L49.3315987,131.816055 L49.8142799,131.839254 L50.3154469,131.973809 L50.6564047,132.382111 L51.14114,133.56294 L51.3424283,133.906285 L51.9236998,134.69737 L52.1249882,135.128872 L52.1044486,135.467577 L51.8846745,136.151947 L51.9236998,136.151947 L51.9442395,136.128748 L51.9647791,136.128748 L55.5818078,135.834121 L59.1967825,135.516295 L62.7953255,135.17295 L66.3897605,134.857443 L70.0088432,134.516418 L73.6258718,134.177713 L77.2203069,133.811169 L80.8188499,133.472463 L84.415339,133.110559 L88.0323676,132.723136 L91.6309106,132.358912 L95.2253457,131.973809 L98.8238887,131.591025 L102.438863,131.180403 L106.037406,130.772101 L109.574331,130.384678 L109.210779,128.113496 L109.231319,127.821189 L109.290884,127.480164 L109.290884,127.139139 L109.069056,126.64268 L109.009491,126.276136 L108.970465,125.870154 L108.970465,125.573207 L109.089595,125.007151 L109.434661,124.009594 L109.455201,121.965763 L109.370988,121.422907 L109.069056,120.808134 L108.107801,119.694582 L107.867487,119.288599 L107.766843,118.993972 L107.464911,116.588237 L107.245137,115.908506 L106.840506,115.316932 L106.25718,115.203257 L106.076432,114.839033 L106.138051,114.293856 L106.437929,113.182625 L106.458469,112.929756 L106.437929,112.567851 L106.337285,112.410098 L105.916223,112.092272 L105.797093,111.820844 L105.815578,111.138793 L105.916223,110.663214 L105.936762,110.164436 L105.716988,109.482385 L105.49516,108.962728 L105.37603,108.644902 L105.254847,107.575428 L105.595804,105.260169 L105.655369,104.332209 L106.659757,101.425375 L106.840506,100.221348 L106.538573,99.2933879 L106.577599,98.5672594 L106.739862,97.954806 L107.725764,95.4121965 L108.107801,93.9599395 L107.927052,93.7789874 L108.027696,93.4356423 L107.986617,93.3451662 L107.867487,93.143335 L108.007157,92.820869 L108.046182,92.5308816 L108.007157,92.2548136 L107.906513,91.9161083 L107.384806,91.1227028 L107.325241,90.9858287 L107.140384,90.6680025 L107.03974,89.897796 L107.000715,87.6242947 L107.019201,87.3111083 L107.325241,86.6290579 L107.343727,86.3553098 L107.343727,85.6059824 L107.425885,84.97033 L108.208445,82.2258892 L108.467245,81.6807128 L108.728098,81.3860856 L109.816698,80.5903602 L110.157656,80.1356599 L110.436995,79.5904836 L110.638283,78.9571511 L110.679363,78.3214987 L110.498614,77.8691184 L109.574331,76.7323678 L109.329909,75.7324912 L109.329909,75.3961058 L109.455201,74.7813325 L109.514766,74.3034332 L109.736594,73.6469018 L109.775619,73.3290756 L109.736594,72.6447053 L109.976907,69.2646121 L110.237761,67.9260302 L110.638283,66.7684005 L111.441383,65.3393426 L111.581052,64.7477683 L111.804934,64.2049118 L111.846013,64.0448388 L111.846013,63.7061335 L111.885039,63.3651083 L112.308155,61.3444761 L112.267076,60.6856247 L111.846013,60.4582746 L111.846013,60.4582746 Z M40.4112378,6.19351134 L40.7706813,5.92208312 L40.95143,5.71793199 L40.8918651,5.42330479 L40.5899325,4.96860453 L40.4502631,4.87580856 L40.0887656,4.71805542 L39.8895312,4.60438035 L39.8299663,4.85492947 L39.7683474,5.0590806 L39.6882428,5.26323174 L39.5629511,5.46738287 L40.1894098,5.92208312 L40.4112378,6.19351134 L40.4112378,6.19351134 Z M46.3163811,2.17544584 L46.156172,1.19876826 L46.1951973,1.0874131 L46.2362766,0.994617128 L46.2547622,0.906460957 L46.2547622,0.769586902 L45.6529511,0.83686398 L45.2935076,1.3820403 L45.1332985,2.24504282 L45.1332985,3.2217204 L45.934344,2.74382116 L46.3163811,2.17544584 L46.3163811,2.17544584 Z M119.560698,43.3026196 L119.679828,42.8247204 L119.801012,42.3004232 L119.761987,41.8016448 L119.501133,41.4861385 L119.139636,41.5070176 L118.778138,41.7111688 L118.43718,41.8016448 L118.133194,41.4629395 L117.911366,41.2587884 L117.751157,41.4861385 L117.691592,41.9617179 L117.691592,42.441937 L117.851801,43.1657456 L117.810722,43.4603728 L117.570408,43.778199 L117.771696,43.8918741 L118.01201,43.8454761 L118.496745,43.6645239 L119.741447,43.6877229 L119.620263,43.4162947 L119.560698,43.3026196 L119.560698,43.3026196 Z M117.490304,46.3208086 L117.451278,46.0702594 L117.510843,45.8220302 L117.570408,45.4114081 L117.410199,45.344131 L116.929572,45.504204 L116.327761,45.5714811 L116.083339,45.4786851 L115.781406,45.2304559 L115.680762,45.457806 L115.621197,45.6619572 L115.600658,45.9125063 L115.621197,46.1839345 L115.580118,46.3416877 L115.419909,46.4344836 L115.23916,46.4785617 L115.12003,46.5690378 L114.939282,47.9076196 L114.918742,48.3182418 L114.799612,48.612869 L114.156722,48.9747733 L114.035538,49.2694005 L113.936948,49.5872267 L113.610368,49.6104257 L113.230384,49.5199496 L112.969531,49.4967506 L112.729218,49.8145768 L112.569008,50.3133552 L112.488904,50.9049295 L112.488904,51.8560882 L112.427285,52.1739144 L112.207511,52.6518136 L112.207511,52.7886877 L112.267076,53.1297128 L112.267076,53.2433879 L112.186971,53.2897859 L111.946658,53.2665869 L111.866553,53.2897859 L110.878597,54.9879521 L110.498614,56.1015038 L110.35689,57.3936877 L110.617744,58.5304383 L111.240094,59.5975919 L112.026762,60.2123652 L112.829862,60.0986902 L113.12974,59.7762242 L113.936948,58.2358111 L114.056078,57.938864 L114.097157,57.3496096 L114.177261,57.0990605 L114.33747,56.8949093 L114.737993,56.6002821 L114.898202,56.3752519 L114.376496,55.8996725 L114.538759,54.9415542 L115.280239,53.2665869 L115.399369,52.6286146 L115.500013,52.3316675 L115.701302,52.1971134 L115.861511,52.2411914 L116.04226,52.3107884 L116.206577,52.3548665 L116.266142,52.2411914 L116.186037,51.698335 L116.206577,51.561461 L116.307221,51.2900327 L116.387325,51.1763577 L116.547535,51.1554786 L116.707744,51.0626826 L116.808388,50.8144534 L115.962155,50.0883249 L115.740327,49.7217809 L115.982695,49.5640277 L116.247656,49.5872267 L116.828927,49.7913778 L116.748823,49.5199496 L116.506455,49.1325264 L116.44689,48.8402191 L116.44689,48.5455919 L116.58656,47.5921134 L116.48797,47.4088413 L116.327761,47.2487683 L116.266142,47.1118942 L116.526995,46.9773401 L116.728283,47.0214181 L117.549868,47.4575592 L117.730617,46.817267 L117.590948,46.5690378 L117.490304,46.3208086 L117.490304,46.3208086 Z" id="Stroke-6" stroke="#F9F9F9" stroke-width="0.25" stroke-linecap="round" stroke-linejoin="round"></path>
            </g>
        </g>
    </g>
</svg>