<?xml version="1.0" encoding="UTF-8"?>
<svg width="148px" height="112px" viewBox="0 0 148 112" version="1.1" xmlns="http://www.w3.org/2000/svg" xmlns:xlink="http://www.w3.org/1999/xlink">
    <!-- Generator: Sketch 51 (57462) - http://www.bohemiancoding.com/sketch -->
    <title>Washington</title>
    <desc>Created with Sketch.</desc>
    <defs></defs>
    <g id="Page-1" stroke="none" stroke-width="1" fill="none" fill-rule="evenodd">
        <g id="A5" transform="translate(-130.000000, -39.000000)">
            <g id="Washington" transform="translate(130.000000, 40.000000)">
                <path d="M38.3578347,14.7009547 L37.7765632,14.5432015 L37.5752749,14.6336776 L37.4356054,14.7705516 L37.4150658,14.8610277 L37.5547352,15.0419798 L37.5958145,15.176534 L37.6553794,15.246131 L37.6759191,15.4038841 L37.5341956,15.7449093 L37.5958145,15.7913073 L37.6348398,15.7681083 L37.6944047,15.6776322 L37.9983912,15.4943602 L38.2982698,15.176534 L38.3393491,15.0628589 L38.2982698,15.0419798 L38.2387049,14.9515038 L38.2982698,14.7705516 L38.3578347,14.7009547 L38.3578347,14.7009547 Z M37.1131332,17.5381914 L37.4356054,17.3340403 L37.6553794,16.948937 L37.6944047,16.4733577 L37.5341956,16.0186574 L37.1726981,16.2924055 L36.9529241,16.1996096 L36.8317403,15.8377053 L36.8522799,15.3574861 L37.0925936,14.4527254 L37.1521585,13.9307481 L36.9734637,13.1141436 L36.792715,13.1350227 L36.2689545,13.4992469 L36.1888499,13.657 L36.0676661,13.863471 L36.0286408,14.1348992 L36.0882057,14.4527254 L35.7862732,14.5664005 L35.4843406,14.9051058 L35.2851062,15.3806851 L35.2851062,15.9073023 L35.5459595,16.1764106 L35.9670219,16.3828816 L36.2093895,16.6102317 L36.0081012,17.0858111 L37.1131332,17.5381914 L37.1131332,17.5381914 Z M35.4247757,9.84308564 L35.244027,9.91268262 L34.7223204,10.318665 L34.580597,10.455539 L34.521032,10.7524861 L34.5621113,10.9798363 L34.7223204,11.4113375 L34.9215548,11.7059647 L35.1043575,11.5250126 L35.244027,11.1143904 L35.3241315,10.7292872 L35.4453153,10.594733 L35.6466037,10.7756851 L35.907457,11.1607884 L35.9670219,11.4577355 L35.9875616,11.7964408 L36.0882057,12.114267 L36.3695987,12.2952191 L36.9118449,12.3856952 L37.1726981,12.3416171 L37.4540911,12.160665 L36.8522799,10.365063 L36.9734637,10.1609118 L36.9919494,10.0031587 L36.9734637,9.82220655 L37.012489,9.50438035 L37.1336728,9.27703023 L37.3349612,9.23295214 L37.4951703,9.39070529 L37.5341956,9.64125441 L37.5157099,9.95676071 L37.6348398,10.7988841 L37.9367723,11.7059647 L38.0784958,12.0005919 L38.2571906,12.137466 L38.4790185,12.137466 L38.5796627,11.9773929 L38.6392277,11.7964408 L38.7398718,11.6386877 L39.6456695,11.2535844 L39.785339,11.1607884 L39.9250084,10.9102393 L38.0969815,9.16567506 L37.3945261,8.89192695 L36.9919494,8.82464987 L36.7721754,8.84784887 L35.6466037,9.77580856 L35.4247757,9.84308564 L35.4247757,9.84308564 Z M36.9118449,28.2259673 L36.9529241,28.6365894 L37.0925936,29.2513627 L37.3349612,29.7478212 L37.6944047,29.8406171 L37.9367723,29.4091159 L37.9983912,28.6829874 L37.9367723,27.9568589 L37.7950489,27.1843325 L37.6759191,27.0265793 L37.4951703,26.9801814 L37.2733423,27.0938564 L37.5157099,27.5462368 L37.6143002,28.1354912 L37.5341956,28.5716322 L37.2528027,28.5252343 L37.2137774,28.3164433 L37.2733423,27.7063098 L37.1932378,27.4789597 L37.012489,27.4557607 L36.9323845,27.6831108 L36.9118449,28.2259673 L36.9118449,28.2259673 Z M37.2322631,7.39327204 L37.1726981,7.39327204 L37.2137774,7.57422418 L37.293882,7.66470025 L37.2322631,7.68789924 L37.293882,7.75517632 L37.4150658,7.84565239 L37.4540911,7.80157431 L37.4150658,7.73429723 L37.4746307,7.73429723 L37.5547352,7.86885139 L37.7765632,7.95932746 L37.5752749,7.59742317 L37.4951703,7.62062217 L37.3555008,7.46054912 L37.5341956,7.39327204 L37.6944047,7.41647103 L37.9162327,7.5278262 L37.7560236,7.32599496 L37.5157099,7.18912091 L37.2528027,7.2123199 L37.2137774,7.30279597 L37.2733423,7.37007305 L37.2733423,7.41647103 L37.2322631,7.39327204 L37.2322631,7.39327204 Z M34.9215548,12.7963174 L34.9215548,12.9517506 L35.5048803,13.3182947 L35.6466037,13.2486977 L35.687683,13.0886247 L35.7472479,12.9981486 L35.8068128,12.9285516 L35.907457,12.9285516 L36.0286408,12.9749496 L36.1087454,12.9749496 L36.1683103,12.9517506 L36.2894941,12.8844736 L36.4106779,12.6571234 L36.3901383,12.4320932 L36.2484148,12.3856952 L36.1087454,12.3856952 L36.0286408,12.4320932 L36.0081012,12.5666474 L35.9279966,12.5898463 L35.8869174,12.4529723 L35.9279966,12.3184181 L35.907457,12.2511411 L35.5644452,12.091068 L35.4247757,11.9101159 L34.7613457,12.0005919 L34.5415717,11.9565139 L34.5004924,12.0469899 L34.5621113,12.160665 L34.7818853,12.2511411 L34.8414503,12.3184181 L35.0016594,12.6803224 L35.0016594,12.7731184 L34.9215548,12.7963174 L34.9215548,12.7963174 Z M41.3525126,19.0159673 L41.1512243,19.0600453 L40.9109106,19.2641965 L40.6089781,19.3314736 L40.1262968,19.2201184 L39.785339,19.7861738 L37.6553794,22.6442897 L37.4746307,23.1871461 L37.5547352,23.9179144 L37.6759191,24.1452645 L37.8751535,24.3934937 L38.0969815,24.6208438 L38.2777302,24.7113199 L38.3783744,24.869073 L38.6803069,25.8225516 L39.2020135,25.6160806 L39.6045902,25.6624786 L39.8449039,26.0058237 L39.8654435,26.7087531 L39.3026577,28.2050882 L39.3026577,28.6597884 L39.5429713,29.2513627 L39.4443811,29.7269421 L39.5840506,30.3602746 L39.8264182,30.9286499 L40.0461922,31.2000781 L40.1673761,31.4738262 L40.3090995,31.6570982 L40.5494132,31.7243753 L40.7712411,31.6570982 L41.1923035,31.3137531 L41.4326172,31.3369521 L41.6729309,31.6570982 L41.773575,32.2231537 L41.773575,32.9028841 L41.7140101,33.5176574 L41.7941147,33.6754106 L42.0570219,33.6754106 L42.4986239,33.5872544 L42.5787285,33.6754106 L42.5581889,33.8563627 L42.5581889,34.0141159 L42.6793727,34.0628338 L42.7800169,33.9932368 L42.8786071,33.8099647 L42.9997909,33.6986096 L43.4619325,33.1302343 L43.5831164,33.0397582 L43.6632209,32.928403 L43.6426813,32.6082569 L43.5625767,32.1326776 L43.5625767,31.4506272 L43.3612884,30.9077708 L42.0755076,29.4995919 L41.8146543,29.0912897 L41.5948803,28.6133904 L41.2518685,28.2050882 L41.0115548,28.4811562 L40.9109106,29.1376877 L41.0505801,29.7942191 L40.7096223,30.4089924 L40.4076897,30.5226675 L40.2680202,30.1561234 L40.3686644,28.7270655 L40.5884384,27.1379345 L40.5884384,25.7993526 L40.5288735,25.1405013 L40.3275852,24.5976448 L39.9660877,24.3030176 L39.7647993,24.1893426 L39.3827622,23.8019194 L39.1424486,23.6882443 L38.5406374,23.7346423 L38.2777302,23.6209673 L38.0969815,23.2103451 L39.2225531,23.2335441 L39.5244857,23.0757909 L39.6456695,22.7347657 L39.7647993,22.2151083 L39.9065228,22.0318363 L40.0667319,22.6906877 L40.2680202,22.3055844 L40.5678988,21.8740831 L40.890371,21.693131 L41.1923035,22.0550353 L41.3730523,22.4401385 L41.6544452,22.6442897 L41.9563777,22.6442897 L42.2562563,22.4169395 L42.4185194,21.6258539 L41.4531568,20.3777481 L41.5332614,19.7861738 L41.4736965,19.6724987 L41.4736965,19.3546725 L41.3525126,19.0159673 L41.3525126,19.0159673 Z M42.3363609,10.2073098 L42.276796,10.1168338 L42.0364823,10.0936348 L41.8947589,10.0263577 L42.0364823,10.2073098 L42.3979798,10.6852091 L42.5992681,10.617932 L42.6793727,10.2073098 L42.6382934,10.0263577 L42.5191636,9.88948363 L42.5376492,9.95676071 L42.5376492,10.2073098 L42.4780843,10.2305088 L42.3363609,10.2073098 L42.3363609,10.2073098 Z M41.5332614,10.0936348 L41.1717639,9.11927708 L40.890371,8.91512594 L40.7301619,9.30022922 L40.7507015,9.59485642 L40.9499359,9.86628463 L41.2929477,10.5228161 L41.5127218,11.0935113 L41.6133659,11.2976625 L41.9563777,11.7523627 L42.1556121,11.9773929 L42.3158212,11.9333149 L42.3158212,11.6386877 L42.2562563,11.3208615 L42.1761518,11.0471134 L42.0755076,10.8452821 L41.8947589,10.594733 L41.6544452,10.318665 L41.5332614,10.0936348 L41.5332614,10.0936348 Z M40.5678988,12.2952191 L40.8513457,12.6571234 L41.1717639,12.8844736 L41.1923035,12.6362443 L41.1717639,12.4320932 L41.0916594,12.2952191 L40.7096223,12.2511411 L40.5678988,12.2952191 L40.5678988,12.2952191 Z M40.4693086,13.1582217 L40.389204,12.9076725 L40.1879157,12.7035214 L39.9455481,12.7731184 L39.7463137,13.0422267 L39.6456695,13.4087708 L39.7463137,14.2926524 L39.8859831,14.5200025 L40.0872715,14.5664005 L40.2680202,14.5664005 L40.389204,14.4759244 L40.4877943,14.2021763 L40.6500573,14.0212242 L40.7507015,13.9307481 L40.7096223,13.796194 L40.4877943,13.3646927 L40.4693086,13.1582217 L40.4693086,13.1582217 Z M38.7008465,48.838272 L38.4194536,48.8823501 L38.2181653,49.1537783 L38.1380607,49.5412015 L38.177086,49.9263048 L38.6002024,49.6989547 L39.3231973,49.1769773 L40.2084553,48.9937053 L40.3481248,49.0169043 L40.0256526,48.631801 L39.7052344,48.3812519 L39.4443811,48.0657456 L39.284172,47.5205693 L39.284172,47.2259421 L39.3622226,46.6343678 L39.3827622,46.3188615 L39.284172,46.0427935 L39.1424486,45.8618413 L39.1034233,45.6600101 L39.284172,45.2957859 L38.9822395,45.363063 L38.5591231,45.6600101 L38.1976256,46.0195945 L38.0168769,46.3420605 L37.4951703,48.448529 L37.3945261,48.608602 L37.2322631,48.815073 L37.1131332,49.0633023 L37.1336728,49.3811285 L37.2528027,49.6757557 L37.3739865,49.8567078 L37.4951703,49.9263048 L37.6553794,49.8126297 L37.7765632,49.6084786 L37.8751535,49.3370504 L37.9778516,48.770995 L38.0969815,48.608602 L38.3188094,48.515806 L38.7213862,48.42533 L38.620742,48.2026196 L38.9411602,48.2026196 L39.0212648,48.448529 L38.9206206,48.724597 L38.7008465,48.838272 L38.7008465,48.838272 Z M37.5157099,41.8692947 L37.6143002,42.0734458 L37.8751535,42.0734458 L38.1586003,42.2103199 L38.4399933,42.9109295 L38.840516,43.0965214 L39.0828836,42.8436524 L39.2636324,42.7090982 L39.1219089,42.5954232 L39.062344,42.4585491 L39.062344,42.0734458 L39.0212648,41.9156927 L39.062344,41.7115416 L38.9000809,41.4145945 L39.062344,41.3913955 L39.1835278,41.3009194 L39.3827622,41.1222872 L39.2225531,40.8694181 L39.1835278,40.4147179 L39.2636324,39.4635592 L39.1835278,39.2594081 L39.0418044,39.029738 L38.8610556,38.8279068 L38.6803069,38.7165516 L38.4790185,38.7583098 L38.4194536,38.9856599 L38.3783744,39.2826071 L38.2571906,39.5540353 L37.8566678,39.9391385 L37.7765632,40.0992116 L37.735484,40.5307128 L37.7560236,40.8462191 L37.8566678,41.1222872 L37.7560236,41.4377935 L37.5157099,41.8692947 L37.5157099,41.8692947 Z M32.9127791,53.3087179 L32.6519258,53.2855189 L32.5122563,53.5105491 L32.3520472,53.7634181 L32.1692445,53.8538942 L31.9884958,53.9443703 L32.0090354,54.2366776 L32.08914,54.2830756 L32.2904283,54.6472997 L32.5718212,54.9651259 L32.6724654,54.9883249 L32.9127791,54.8746499 L33.2147116,54.6472997 L33.3749207,54.2134786 L33.4570793,53.9443703 L33.4365396,53.6010252 L33.2742766,53.420073 L32.9127791,53.3087179 L32.9127791,53.3087179 Z M30.2816526,50.1072569 L30.3617572,49.8358287 L30.6636897,49.6989547 L30.8444384,49.3602494 L30.6020708,49.4739244 L30.4603474,49.5180025 L30.1009039,49.6084786 L29.9181012,49.7221537 L29.6387622,49.6548766 L29.4785531,49.8799068 L29.3368297,50.2650101 L29.1150017,50.7661083 L29.0554368,50.9911385 L29.1951062,51.3344836 L29.4169342,51.6731889 L29.4970388,51.946937 L29.5175784,52.1742872 L29.5586577,52.5593904 L29.5586577,52.8076196 L29.6572479,52.9653728 L29.9797201,52.7403426 L30.261113,52.3320403 L30.3412175,51.946937 L30.4007825,51.5827128 L30.2816526,51.1999295 L30.1193895,50.8310655 L30.2200337,50.4691612 L30.2816526,50.1072569 L30.2816526,50.1072569 Z M4.90288702,67.5830579 L4.76116358,67.8104081 L4.98299157,68.1259144 L5.32394941,69.1721889 L5.46567285,68.8984408 L5.56426307,68.6038136 L5.70598651,67.9240831 L5.66490725,67.673534 L5.3855683,67.2652317 L5.34448904,66.8778086 L5.34448904,66.7664534 L5.30546374,66.4950252 L5.14320067,66.6295793 L4.96245194,66.7873325 L5.0035312,67.0634005 L4.98299157,67.3348287 L4.90288702,67.5830579 L4.90288702,67.5830579 Z M32.08914,9.59485642 L32.3315076,9.75260957 L32.4711771,9.91268262 L33.0545025,10.1609118 L33.0729882,10.1377128 L33.0339629,10.0704358 L32.974398,10.0472368 L32.8737538,9.91268262 L32.6724654,9.79900756 L32.4116121,9.64125441 L32.310968,9.57165743 L32.1302192,9.48118136 L32.08914,9.59485642 L32.08914,9.59485642 Z M34.580597,8.77825189 L34.521032,9.20975315 L34.6011366,9.27703023 L35.1248971,9.09607809 L35.2234874,8.96152393 L35.244027,8.82464987 L35.3241315,8.27947355 L35.2645666,8.1194005 L34.7408061,8.1194005 L34.6216762,8.23307557 L34.3402833,8.36994962 L34.1985599,8.48362469 L34.521032,8.7341738 L34.580597,8.77825189 L34.580597,8.77825189 Z M32.5923609,10.478738 L32.0090354,10.501937 L31.5674334,10.8684811 L31.5263541,11.4577355 L31.5058145,11.5922897 L31.4873288,12.4761713 L31.5468938,13.3878917 L31.6064587,13.610602 L31.7481821,13.9539471 L31.8878516,14.1580982 L32.1096796,14.3854484 L32.3315076,14.5432015 L32.530742,14.6336776 L32.9333187,14.7009547 L33.0134233,14.7705516 L33.194172,14.9723829 L33.3358954,15.199733 L33.416,15.4270831 L33.5556695,15.6080353 L33.7980371,15.7449093 L34.07943,15.7681083 L34.299204,15.7449093 L34.5004924,15.7681083 L34.7408061,15.9722594 L34.7818853,15.7913073 L34.4799528,15.5384383 L34.3402833,15.4038841 L34.2190995,15.222932 L34.0178111,14.4759244 L33.9787858,14.3854484 L34.0999696,14.0444232 L34.2190995,14.0676222 L34.3608229,14.1812972 L34.5621113,14.0885013 L34.8619899,13.817073 L34.9215548,13.657 L34.4799528,13.3182947 L34.2190995,12.5457683 L33.6563137,12.114267 L33.3749207,11.7291637 L33.1346071,11.2767834 L33.0339629,10.8893602 L32.5923609,10.478738 L32.5923609,10.478738 Z M145.420651,22.9621159 L141.320941,22.2359874 L137.221231,21.5121788 L133.123575,20.7605315 L129.023865,20.011204 L124.944695,19.2409975 L120.844985,18.468471 L116.745275,17.6727456 L112.666105,16.8816599 L108.566395,16.0859345 L104.489278,15.26933 L100.389568,14.4527254 L96.310398,13.633801 L92.2312277,12.7963174 L88.1520573,11.9333149 L84.072887,11.0703123 L79.9937167,10.2073098 L75.9145464,9.3466272 L71.8353761,8.46042569 L67.7562057,7.55102519 L63.6770354,6.66714358 L59.6184047,5.76238287 L55.5392344,4.82746348 L51.4806037,3.89718388 L47.4199191,2.96922418 L43.3428027,2.01342569 L41.5127218,1.58424433 L41.6544452,2.08302267 L41.7345497,2.62587909 L40.9109106,2.26397481 L40.4693086,2.24077582 L40.1879157,2.46812594 L40.1879157,2.99010327 L41.112199,3.17105542 L41.2518685,3.74175063 L41.1512243,3.87630479 L40.9499359,4.01317884 L40.7301619,4.21732997 L40.5884384,4.48875819 L40.6089781,4.87386146 L40.7507015,5.19400756 L41.4326172,6.12196725 L41.553801,6.46299244 L41.553801,6.9176927 L41.331973,7.59742317 L41.5743406,7.25639798 L41.8762732,7.55102519 L42.1556121,8.09852141 L42.2357167,8.50450378 L42.1556121,8.64137783 L41.8351939,8.86872796 L41.7550894,9.00560202 L41.7345497,9.3466272 L41.8351939,9.64125441 L41.9769174,9.79900756 L42.1966914,9.73173048 L42.940226,8.82464987 L43.3222631,8.46042569 L43.7248398,8.36994962 L44.0657976,8.52770277 L44.48686,8.89192695 L44.8093322,9.3466272 L44.9099764,9.84308564 L44.3266509,10.617932 L44.1664418,11.0703123 L44.546425,11.3881385 L44.5279393,11.5250126 L44.48686,12.2952191 L44.5279393,12.6130453 L44.6491231,12.8844736 L44.7887926,13.0213476 L44.930516,13.1350227 L45.0701855,13.3182947 L45.2119089,13.9539471 L45.1708297,14.6104786 L44.9490017,15.1092569 L44.5279393,15.222932 L44.2260067,14.9955819 L43.603656,14.1580982 L43.2421585,13.9307481 L42.8395818,13.9307481 L42.9997909,14.2253753 L43.6426813,14.9283048 L43.8049444,15.3806851 L43.9055885,15.8377053 L43.9240742,16.3156045 L43.8439696,17.0858111 L43.8439696,17.3804383 L43.8645093,17.5613904 L43.82343,17.7423426 L43.6241956,17.9673728 L43.381828,18.0369698 L43.1415143,17.9000957 L42.940226,17.6518665 L42.5992681,16.948937 L42.3158212,16.6311108 L42.0570219,16.7215869 L41.9152985,17.4709144 L41.7140101,16.948937 L41.5332614,16.1300126 L41.2518685,15.5848363 L40.6890826,15.8609043 L40.4282293,15.9073023 L40.1262968,15.8145063 L39.8654435,15.8145063 L39.7647993,16.1300126 L39.8859831,16.3156045 L40.1262968,16.4269597 L40.3481248,16.6775088 L40.3686644,17.1971662 L40.226941,17.4477154 L40.005113,17.5822695 L39.8654435,17.8119395 L39.9660877,18.3339169 L40.1468364,18.5821461 L40.4076897,18.7398992 L40.7301619,18.7630982 L41.0320944,18.6958212 L41.1923035,18.5589471 L41.5948803,18.1042469 L41.7550894,18.0369698 L41.9358381,18.1042469 L42.1966914,18.2434408 L42.2973356,18.468471 L41.9769174,18.6958212 L41.9358381,18.9022922 L42.1371265,19.2201184 L42.3569005,20.057602 L42.5376492,20.2617531 L42.8395818,20.3545491 L43.1004351,20.5099824 L43.3222631,20.7164534 L43.6632209,21.3057078 L44.1664418,21.7836071 L44.6696627,22.5097355 L44.7497673,22.6906877 L44.7887926,22.9180378 L44.7887926,23.2335441 L44.8298718,23.3936171 L44.4478347,23.9179144 L44.3266509,24.1893426 L44.3677302,24.5071688 L44.1253626,24.5976448 L43.9836391,24.3702947 L43.8850489,24.0547884 L43.7043002,23.7787204 L43.4229073,23.6673652 L43.0614098,23.5977683 L42.3774401,23.6673652 L41.9152985,23.9411134 L41.6133659,24.4607708 L41.4531568,25.1196222 L41.4531568,25.8689496 L41.6339056,26.6182771 L41.9152985,27.1843325 L43.2811838,28.7734635 L43.4023676,28.9776146 L43.6632209,29.659665 L43.8439696,29.9078942 L44.1664418,29.9751713 L43.9446138,28.9776146 L43.7433255,28.4579572 L43.4824722,28.2050882 L43.2421585,28.0218161 L42.9607656,27.6599118 L42.718398,27.2516096 L42.5787285,26.9361033 L42.5191636,26.481403 L42.5376492,25.9385466 L42.6793727,25.5256045 L43.1004351,25.3214534 L43.162054,24.732199 L43.3017234,24.4839698 L43.4619325,24.4607708 L43.603656,24.5512469 L43.6837605,24.7113199 L43.7638651,24.801796 L44.48686,25.3214534 L44.546425,26.0058237 L44.3471906,26.8897053 L44.267086,27.9568589 L44.5073997,28.9776146 L44.9900809,29.8174181 L46.095113,31.2464761 L46.4566105,30.9773678 L46.7174637,31.0446448 L46.8181079,31.179199 L46.9392917,31.2928741 L46.9598314,31.4274282 L46.8571332,31.5202242 L46.7380034,31.6107003 L46.6168196,31.7011763 L46.4976897,32.1094786 L46.3559663,32.4713829 L45.9349039,32.6314559 L45.7521012,32.745131 L45.0496459,32.745131 L44.8688971,32.8356071 L44.708688,32.9724811 L44.2876256,33.1743123 L44.1253626,33.2879874 L44.0041788,33.4944584 L43.9446138,33.7658866 L43.6837605,34.1301108 L43.5625767,34.5616121 L43.4023676,35.1717456 L43.0614098,35.5823678 L42.4185194,35.944272 L42.1761518,36.2388992 L41.9769174,36.5822443 L41.7941147,37.0346247 L41.6544452,37.5774811 L41.7140101,38.0577003 L41.8762732,38.3940856 L41.8351939,39.3498841 L41.7140101,39.6445113 L41.3134874,40.0760126 L41.1512243,40.2801637 L41.0711197,40.5307128 L40.9499359,40.7093451 L40.7096223,40.7325441 L40.6295177,40.8462191 L40.668543,41.1454861 L40.8102664,41.4377935 L40.9704755,41.6187456 L41.7345497,42.1871209 L41.9358381,42.5954232 L41.9769174,42.9805264 L41.8762732,43.4329068 L41.6729309,44.0012821 L41.5332614,43.7089748 L41.4141315,43.2519547 L41.2518685,42.9109295 L40.9910152,42.9109295 L40.6890826,43.1869975 L40.5494132,43.3656297 L40.5288735,43.6416977 L40.668543,45.0011587 L40.7301619,45.339864 L40.8698314,45.7713652 L40.890371,46.1123904 L40.6500573,47.3604962 L40.7096223,47.7247204 L41.0916594,48.585403 L41.1717639,48.9937053 L41.112199,49.5412015 L40.9314503,49.9495038 L40.668543,50.197733 L40.0256526,50.244131 L39.6251298,50.3554861 L39.2430927,50.5155592 L38.9616998,50.7220302 L38.7604115,50.9911385 L38.7604115,51.2440076 L38.9000809,51.4922368 L39.1835278,51.810063 L38.7809511,52.0606121 L38.4790185,52.1278892 L38.2181653,51.970136 L37.6348398,51.1744106 L37.0515143,50.5851562 L36.7721754,50.220932 L36.5893727,51.2904055 L36.1477707,52.2647632 L35.5849848,53.1277657 L33.6172884,55.0764811 L32.8737538,55.5984584 L32.08914,55.8722065 L32.0686003,55.5543804 L31.9494705,55.1901562 L31.7687218,54.895529 L31.3456054,54.5568237 L31.2264755,54.2366776 L31.1237774,53.8770932 L31.0251872,53.5778262 L30.702715,53.2623199 L30.5835852,53.3968741 L30.5014266,53.8538942 L30.5014266,53.9443703 L30.3001383,54.0325264 L29.9797201,54.1230025 L29.7188668,54.1021234 L29.8996155,53.9211713 L30.0207993,53.6938212 L30.0803642,53.4409521 L30.0207993,53.1277657 L29.1560809,53.6010252 L28.934253,53.9211713 L28.874688,54.2598766 L28.8952277,54.6704987 L28.8336088,55.009204 L28.5522159,55.2365542 L28.6323204,55.5984584 L28.6939393,56.0299597 L28.6323204,56.3292267 L28.3714671,56.2364307 L28.211258,55.9603627 L28.1907184,55.2806322 L28.0695346,54.918728 L28.2317976,54.6704987 L28.3324418,54.3758715 L28.3529815,54.0557254 L28.2913626,53.7634181 L27.9709444,54.3758715 L27.5272884,54.7841738 L27.046661,54.941927 L26.6030051,54.7841738 L27.0055818,54.6241008 L27.3075143,54.3758715 L28.4515717,52.8980957 L28.6138347,52.5129924 L28.4125464,52.3552393 L27.8497605,53.0349698 L27.7491164,53.1045668 L27.6279325,53.1277657 L25.7999056,53.9884484 L25.3973288,54.0789244 L25.6787218,53.6706222 L26.0812985,53.6010252 L26.4633356,53.5778262 L26.7241889,53.3968741 L26.7241889,52.9653728 L26.3626914,52.8748967 L25.9005497,52.9885718 L25.5801315,53.1045668 L25.8594705,52.7171436 L26.383231,52.5802695 L27.4286981,52.5129924 L27.98943,52.1742872 L28.3920067,51.6267909 L29.3573693,49.6084786 L29.5175784,49.4275264 L29.8379966,49.4275264 L30.0803642,49.3811285 L30.4213221,49.2210554 L30.9635683,48.838272 L31.2264755,48.3580529 L31.807747,47.0449899 L32.1487049,46.6784458 L31.9884958,47.065869 L32.029575,47.2932191 L32.1487049,47.4741713 L32.2493491,47.7015214 L32.2698887,48.1330227 L32.2698887,48.3580529 L32.1302192,49.1537783 L31.9679562,49.6757557 L31.7276425,50.0840579 L31.3250658,50.174534 L31.2059359,50.8542645 L31.2655008,52.2415642 L31.5859191,53.2623199 L32.2493491,52.8540176 L32.2904283,52.6707456 L32.2698887,52.4665945 L32.2288094,52.2856423 L32.2103238,52.2183652 L32.310968,52.1278892 L32.4300978,51.9910151 L32.530742,51.946937 L32.5122563,52.0838111 L32.6724654,51.8796599 L32.8121349,51.763665 L32.8737538,51.6035919 L32.5512816,50.6756322 L32.530742,50.244131 L32.6909511,49.8567078 L33.0729882,49.4507254 L33.194172,49.2210554 L33.2537369,48.9496272 L33.3543811,48.724597 L33.4961046,48.6573199 L33.6768533,48.608602 L33.8370624,48.471728 L34.0178111,48.2907758 L34.1985599,48.1562217 L34.9030691,47.9729496 L35.2050017,47.7455995 L35.4453153,47.2468212 L35.4042361,47.9729496 L35.1248971,48.4044509 L34.7613457,48.747796 L34.5415717,49.1978564 L34.299204,49.5412015 L33.9993255,49.7221537 L33.8966273,49.9703829 L34.299204,50.4691612 L35.6466037,51.4922368 L35.9279966,51.5595139 L36.2484148,51.0143375 L36.2689545,50.5387582 L35.9670219,49.4043275 L36.3285194,49.3811285 L36.6099123,49.2697733 L36.8522799,49.0169043 L37.072054,48.6573199 L36.8317403,47.9497506 L37.0330287,47.3396171 L37.3945261,46.7271637 L37.6759191,46.0427935 L37.9162327,45.546335 L38.2777302,45.0011587 L38.398914,44.5023804 L37.957312,44.1845542 L37.8751535,43.7553728 L37.9778516,43.0269244 L37.8751535,42.5049471 L37.1932378,42.7531763 L36.7310961,43.0501234 L36.2299292,43.2751537 L35.1844621,43.5233829 L35.3241315,43.2519547 L35.7677875,42.9573275 L36.0081012,42.6858992 L36.2299292,42.368073 L36.2299292,42.300796 L36.0882057,42.277597 L35.5048803,41.7347406 L35.3836965,41.5282695 L35.3446712,41.1222872 L35.3836965,40.7325441 L35.4843406,40.4379169 L35.6466037,40.1873678 L35.8273524,39.9855365 L36.2484148,41.7556196 L36.6304519,42.4817481 L37.1521585,42.3448741 L37.0515143,42.0966448 L37.2137774,41.9388917 L37.0515143,39.029738 L36.9919494,38.8279068 L36.8522799,38.6028766 L36.7105565,38.4172846 L36.6099123,38.1899345 L36.6304519,37.8280302 L36.8112007,37.8048312 L37.6553794,39.21533 L37.9778516,39.099335 L38.3393491,38.7583098 L38.6002024,38.3268086 L38.620742,37.9881033 L38.9411602,38.0113023 L39.8058786,38.4172846 L40.005113,38.4172846 L40.0872715,38.3036096 L40.226941,38.1481763 L40.389204,37.9185063 L40.4282293,37.5774811 L40.3481248,37.3292519 L40.2084553,37.1251008 L40.0256526,36.9673476 L39.8654435,36.8768715 L40.226941,36.4894484 L40.2084553,36.1739421 L40.0461922,35.8978741 L39.9866273,35.5823678 L40.0461922,34.5848111 L40.1057572,34.1533098 L40.0256526,33.4271814 L39.6456695,32.8796851 L38.6597673,31.9053275 L38.6392277,32.1767557 L38.8610556,32.9724811 L38.9000809,33.1743123 L38.9616998,34.6056902 L38.9411602,35.2645416 L38.7809511,35.6705239 L38.398914,35.4918917 L38.3578347,35.2413426 L38.4605329,35.0139924 L38.4605329,34.7866423 L38.1586003,34.6288892 L37.9367723,34.6752872 L37.6944047,34.8330403 L35.3241315,37.1714987 L35.0632782,37.5774811 L34.5621113,38.7815088 L34.3793086,39.1248539 L34.1184553,39.305806 L33.635774,39.4635592 L32.1096796,39.7141083 L30.8033592,40.2569647 L30.5014266,40.3474408 L28.7329646,42.1407229 L27.6073929,43.843529 L27.3876189,44.1149572 L26.7447285,44.7297305 L26.442796,45.1148338 L26.3216121,45.499937 L26.6030051,46.2747834 L27.3465396,46.4534156 L28.8952277,46.1123904 L30.3802428,45.499937 L31.1853963,45.3189849 L31.7071029,45.569534 L30.9841079,46.0427935 L30.261113,46.3188615 L26.8042934,46.9985919 L25.7403406,46.8640378 L25.2371197,46.2515844 L25.3583035,45.8386423 L26.0607589,44.7970076 L26.5229005,43.7994509 L26.9460169,43.4329068 L27.4081585,43.1405995 L27.769656,42.7972544 L28.6939393,41.3241184 L28.9958718,40.9366952 L30.8444384,39.305806 L31.1032378,39.168932 L31.3456054,39.1248539 L31.5263541,39.0088589 L31.7687218,38.3940856 L32.1692445,38.0345013 L32.4711771,37.442927 L32.8737538,36.8536725 L33.3749207,36.5822443 L33.1551467,35.6705239 L33.1140675,35.1276675 L33.1736324,34.6752872 L33.4570793,34.2437859 L33.6172884,34.447937 L33.635774,34.9907935 L33.5556695,35.5591688 L33.9377066,35.3550176 L34.0999696,34.8330403 L34.2190995,34.2901839 L34.5004924,33.9700378 L34.4409275,35.0371914 L34.2601788,35.8746751 L33.5967487,37.6238791 L33.2742766,38.1249773 L33.2352513,38.4404836 L33.5166442,38.6492746 L33.7364182,38.6492746 L33.9787858,38.5796776 L34.1595346,38.3940856 L34.2786644,38.1017783 L34.4203879,37.6470781 L34.6422159,37.1482997 L35.1844621,36.1739421 L35.5459595,35.6705239 L36.570887,34.7866423 L36.792715,34.5152141 L37.0330287,34.0141159 L37.2322631,33.7890856 L37.4150658,33.7890856 L37.9983912,33.9027607 L38.1586003,33.8099647 L38.1175211,33.4480605 L37.3739865,31.9053275 L37.3349612,31.6570982 L37.3945261,31.0214458 L37.3739865,30.7917758 L37.293882,30.5876247 L36.9734637,30.2697985 L36.8522799,30.0447683 L36.3285194,28.4324383 L36.2894941,27.9800579 L36.2484148,27.7735869 L36.1087454,27.5253577 L36.0286408,27.2075315 L36.1087454,26.8224282 L36.2689545,26.6855542 L36.7721754,26.527801 L36.9734637,26.411806 L36.7310961,25.6392796 L36.2689545,25.5488035 L35.687683,25.7065567 L35.0427386,25.7297557 L34.7818853,25.8457506 L34.5415717,26.1635768 L34.3998482,26.5718791 L34.4203879,26.9361033 L35.0016594,27.9568589 L35.1639224,28.4092393 L34.7017808,29.2049647 L34.3998482,29.4323149 L34.0383508,29.3859169 L34.07943,29.1817657 L34.5004924,29.0008136 L34.521032,28.4324383 L34.3402833,27.7967859 L34.1389949,27.3652846 L33.9171669,27.2075315 L33.7179325,27.1611335 L33.5967487,27.0033804 L33.6172884,26.551 L33.5556695,26.2540529 L33.3153558,26.1171788 L33.0134233,26.0731008 L32.1897841,26.0522217 L32.0090354,26.3886071 L31.9679562,27.5694358 L31.7481821,27.5253577 L31.3866847,27.2307305 L31.1648567,26.7551511 L31.4257099,26.1171788 L31.1237774,25.2773753 L30.702715,24.5976448 L30.1604688,24.1220655 L29.4580135,23.8251184 L29.4970388,23.5977683 L29.7784317,23.5977683 L30.0598246,23.5096121 L30.2816526,23.349539 L30.4213221,23.006194 L29.6572479,23.3031411 L28.1701788,24.1893426 L27.4882631,24.3470957 L24.4340202,23.419136 L24.0910084,23.119869 L24.1320877,22.9853149 L24.3128364,22.9621159 L24.4730455,22.9412368 L24.6743339,22.8739597 L23.3084486,22.7347657 L22.9674907,22.6002116 L22.1623373,22.0550353 L21.016226,21.9645592 L20.4965734,22.0782343 L20.2131265,21.830005 L19.7920641,21.2593098 L19.1697133,20.9461234 L17.801774,20.7164534 L15.0289241,19.8302519 L12.6381113,18.468471 L12.2971535,18.1970428 L11.8740371,17.1762872 L11.5536189,16.7679849 L10.2062192,15.7008312 L9.80569646,15.4943602 L8.94097808,15.4038841 L8.63904553,15.222932 L8.27754806,14.6568766 L8.11733895,14.5200025 L6.85004384,13.796194 L6.24823272,12.9749496 L3.55548735,10.6620101 L2.69282293,10.1377128 L1.70692074,9.79900756 L1.58573693,10.2073098 L1.64735582,10.594733 L2.06841821,11.3208615 L2.42991568,11.8196398 L2.49153457,11.9333149 L2.37035076,12.2047431 L2.00885329,12.5666474 L1.88766948,12.8171965 L1.68638111,13.863471 L1.60627656,14.0003451 L1.4049882,14.1580982 L1.34542327,14.2926524 L1.32488364,14.4295264 L1.4049882,14.6568766 L1.3659629,14.8146297 L1.06403035,15.7240302 L0.823716695,16.1091335 L0.48070489,16.2204887 L0.382114671,16.4501587 L0.723072513,18.0137708 L0.542323777,19.0600453 L0.421139966,20.1016801 L0.421139966,21.1920327 L0.521784148,22.3264635 L0.681993255,23.3704181 L1.08456998,24.755398 L1.20369983,24.915471 L1.68638111,25.1196222 L1.88766948,25.2773753 L2.04993255,25.4815264 L2.93313659,27.1379345 L3.0933457,27.7063098 L3.17345025,28.7270655 L3.27409444,29.0912897 L3.45484317,29.3186398 L3.67667116,29.4555139 L3.83688027,29.636466 L3.81634064,30.6549018 L4.15935245,32.4713829 L4.17989207,32.9724811 L3.91698482,35.3318186 L3.93752445,36.5335264 L3.55548735,40.9366952 L3.69721079,41.1222872 L4.07719393,41.3241184 L4.25999663,41.5282695 L4.11827319,41.7347406 L4.03816863,42.0502469 L4.05870826,42.3448741 L4.19837774,42.5258262 L4.44074536,42.6395013 L4.53933558,42.8436524 L4.76116358,43.866728 L4.90288702,45.1589118 L4.90288702,46.3420605 L4.66051939,48.701398 L4.68105902,50.0167809 L4.61944013,50.6524332 L4.09773356,52.6498665 L3.97654975,52.9444937 L3.87795953,53.0790479 L3.79785497,53.3968741 L3.77731535,53.7402191 L3.8574199,53.9443703 L3.99708938,53.8770932 L4.7817032,53.1950428 L4.90288702,53.1718438 L4.98299157,53.0790479 L4.94191231,52.8748967 L4.84126813,52.5802695 L4.84126813,52.4457154 L4.88234739,51.900539 L4.80224283,51.4226398 L4.80224283,51.1999295 L5.06309612,50.8125063 L5.5457774,50.6988312 L6.06748398,50.7429093 L6.49060034,50.9006625 L6.83155818,51.1999295 L7.09241147,51.6499899 L7.21359528,52.2183652 L7.19305565,52.8308186 L7.33272513,53.2391209 L7.83594604,53.420073 L8.81979427,53.5337481 L8.78076897,53.7170202 L8.72120405,53.7634181 L8.6185059,53.9002922 L9.78515683,54.0789244 L10.3684823,54.2830756 L10.7690051,54.6472997 L9.24291062,54.7377758 L7.71476223,55.0996801 L7.07187184,55.3734282 L6.76993929,55.4407053 L6.3488769,55.3943073 L6.00791906,55.5311814 L5.78609106,55.9162846 L5.80663069,56.2364307 L6.14758853,56.1436348 L6.26877234,56.5078589 L6.3488769,56.7792872 L6.30779764,57.0298363 L6.10856324,57.2803854 L5.98737943,57.2107884 L5.76555143,56.9857582 L5.48415852,56.7560882 L5.2027656,56.7328892 L5.2027656,56.2573098 L4.92342664,55.6216574 L5.08363575,55.3038312 L4.94191231,54.6009018 L4.50031029,54.895529 L4.36064081,55.2365542 L4.45923103,56.3733048 L4.45923103,57.5750126 L4.34010118,59.5724458 L4.42020573,59.9807481 L4.66051939,60.2289773 L5.32394941,60.4563275 L5.64436762,60.5004055 L5.80663069,60.5700025 L5.98737943,60.7764736 L6.1270489,60.9991839 L6.28725801,61.1128589 L6.57070489,60.9991839 L6.32833727,60.7068766 L6.36941653,60.5236045 L7.31423946,60.9991839 L7.59563238,60.9342267 L7.83594604,60.7068766 L7.99615514,60.5932015 L8.19744351,60.6372796 L8.47883642,60.8437506 L8.92043845,61.4353249 L9.22237099,62.0918564 L9.56332884,62.6579118 L10.1466543,62.9061411 L9.84472175,63.1566902 L9.44419899,63.2726851 L9.14226644,63.1334912 L9.08064755,62.7483879 L9.04162226,62.2055315 L8.73968971,62.0013804 L8.07831366,61.9781814 L7.37380438,62.1150554 L7.01230691,62.7483879 L6.97328162,63.6090705 L7.23413491,64.4535139 L6.95274199,64.3143199 L6.509086,63.7714635 L6.18866779,63.5881914 L6.30779764,64.1333678 L6.63026981,64.9731713 L6.79047892,65.7665768 L6.85004384,65.9266499 L6.87058347,66.1284811 L6.83155818,66.5182242 L6.75145363,66.7873325 L6.63026981,66.9938035 L6.47006071,67.1074786 L5.98737943,67.1538766 L5.86619562,67.3580277 L5.84770995,67.696733 L5.86619562,68.0145592 L5.9278145,68.1723123 L6.02640472,68.3323854 L6.14758853,68.4692594 L6.24823272,68.5156574 L6.28725801,68.6038136 L6.26877234,68.8984408 L6.26877234,69.0608338 L6.57070489,69.3763401 L6.97328162,69.6941662 L7.23413491,70.0792695 L7.01230691,70.6012469 L6.75145363,70.1929446 L6.04694435,69.3763401 L5.94630017,69.0840327 L5.78609106,69.0608338 L5.60534233,69.7173652 L5.24384486,70.2834207 L4.7817032,70.6012469 L4.29902192,70.5107708 L4.07719393,70.0560705 L3.97654975,69.3299421 L3.99708938,67.7872091 L4.11827319,67.0170025 L4.70159865,64.8594962 L4.68105902,64.1774458 L4.53933558,63.6322695 L4.52084992,63.1566902 L4.86180776,62.6347128 L4.31956155,62.7715869 L4.01762901,63.8619395 L3.37473862,68.6942897 L3.0933457,69.9215164 L2.73184823,70.759 L2.79141315,71.1441033 L2.73184823,71.4410504 L2.49153457,71.9398287 L2.16906239,72.4641259 L1.94928836,72.7796322 L1.76648567,72.9629043 L1.92874874,73.1879345 L2.10949747,73.2575315 L2.53055987,73.1647355 L2.63120405,73.2111335 L2.69282293,73.3248086 L2.75238786,73.3944055 L2.93313659,73.2575315 L2.89205734,73.2111335 L2.87151771,73.0301814 L2.87151771,72.8028312 L2.91259696,72.6659572 L3.29463406,72.417728 L3.63559191,72.440927 L3.95806408,72.6659572 L4.21891737,72.9837834 L4.98299157,74.3687632 L5.3855683,74.6889093 L5.88673524,74.7793854 L6.30779764,74.5752343 L6.68983474,74.3014861 L7.15197639,74.120534 L7.37380438,74.166932 L7.95507589,74.5056373 L8.15841821,74.5056373 L8.4582968,74.3223652 L9.08064755,74.2550882 L9.30247555,74.0300579 L9.48322428,73.937262 L9.70505228,74.3455642 L9.7646172,74.6193123 L9.7646172,74.8698615 L9.80569646,75.0948917 L10.8901889,75.663267 L13.3426206,75.7746222 L13.8848668,76.0042922 L14.3059292,76.3893955 L14.3860337,77.0018489 L14.4065734,77.5470252 L14.646887,78.0226045 L15.8936425,79.6581335 L16.2161147,79.9527607 L16.7378212,80.1569118 L17.1999629,80.1569118 L18.1242462,79.9086826 L18.6069275,79.9991587 L19.8721686,80.0432368 L20.2131265,80.2473879 L20.4349545,80.5652141 L20.9977403,81.2681436 L21.238054,81.4954937 L21.8008398,81.7483627 L22.3636256,82.1775441 L22.8873862,82.6995214 L23.3084486,83.2191788 L23.5693019,83.7666751 L23.7911298,84.4232065 L23.9307993,85.1284559 L23.9307993,86.2860856 L24.1320877,86.6711889 L24.392941,87.0098942 L24.5942293,87.4437154 L24.614769,87.9424937 L24.5346644,89.2833955 L24.6948735,90.3691083 L24.5736897,90.8910856 L24.3724013,91.4571411 L24.2532715,92.1159924 L24.555204,93.0253929 L24.5736897,93.3200202 L24.4935852,93.6378463 L24.3128364,94.1830227 L24.2327319,94.5008489 L24.1115481,95.6352796 L24.1115481,96.31733 L24.2121922,96.8393073 L24.4730455,97.3148866 L24.8550826,97.813665 L25.278199,98.2219673 L26.7241889,98.8808186 L27.547828,98.8599395 L27.8292209,98.9272166 L28.3920067,99.4283149 L29.3368297,99.9247733 L29.8379966,100.402673 L31.4667892,100.808655 L32.9127791,101.785332 L33.2948162,101.764453 L33.6768533,101.60438 L35.2050017,101.469826 L38.9000809,100.855053 L39.7647993,100.516348 L41.2929477,99.6301461 L42.1761518,99.3355189 L42.7389376,99.356398 L44.1253626,99.9943703 L47.0604755,100.084846 L52.7068196,101.947725 L53.569484,102.490582 L53.8919562,102.922083 L54.011086,103.397662 L54.0911906,103.942839 L54.232914,104.60169 L54.5348465,104.942715 L54.9764486,104.986793 L56.8250152,104.534413 L56.9256594,104.534413 L57.3467218,104.645768 L57.5500641,104.759443 L57.6486543,104.782642 L58.2915447,104.896317 L58.4928331,104.963594 L58.7536863,105.167746 L59.5588398,105.441494 L60.4235582,105.371897 L60.6823575,105.418295 L60.8035413,105.395096 L61.7689039,104.852239 L61.929113,104.82904 L63.3566172,104.82904 L64.3199258,104.624889 L64.4411096,104.418418 L64.6013187,104.283864 L65.1641046,104.033315 L65.3838786,104.033315 L68.1978078,105.237343 L68.4196358,105.258222 L68.9228567,105.123668 L69.1036054,105.123668 L70.066914,105.508771 L70.288742,105.53197 L70.7714233,105.441494 L71.6135481,105.123668 L71.8148364,105.100469 L72.116769,105.167746 L72.6590152,105.418295 L72.9609477,105.441494 L73.5442732,105.30462 L74.107059,105.009992 L74.7889747,104.511214 L75.1915514,104.351141 L76.1158347,104.37434 L79.1495379,103.69229 L84.5555683,103.782766 L85.4798516,103.260788 L86.1412277,102.627456 L86.4842395,102.513781 L87.005946,102.53466 L88.3328061,102.875685 L91.0851164,102.875685 L95.8893356,103.736368 L96.8916695,103.46494 L97.857032,102.627456 L98.0377808,102.648335 L98.9230388,102.831607 L101.414496,103.307186 L103.905953,103.782766 L106.39741,104.260665 L108.868327,104.713045 L111.359784,105.190945 L116.342698,106.118904 L118.834155,106.573605 L121.327666,107.030625 L123.819123,107.483005 L126.31058,107.937705 L128.802037,108.366887 L131.293494,108.821587 L133.784951,109.253088 L136.276408,109.686909 L138.909589,110.13929 L138.628196,108.75199 L137.804556,107.186058 L137.724452,106.847353 L138.406368,106.278977 L138.687761,105.917073 L138.969153,105.348698 L139.049258,104.736244 L138.72884,103.875562 L138.7083,102.423305 L138.527551,101.764453 L138.04487,100.493149 L137.301336,99.0849698 L137.221231,98.6302695 L137.360901,98.1082922 L137.784017,97.2476096 L137.884661,96.407806 L138.507012,91.802806 L139.131417,87.2163652 L139.733228,82.6090453 L140.355578,78.0226045 L140.959444,73.4408035 L141.581794,68.8775617 L142.185659,64.2911209 L142.80801,59.730199 L144.013686,50.6083552 L144.636037,46.0427935 L145.841713,36.9673476 L146.466118,32.4273048 L147.067929,27.8895819 L147.66974,23.3704181 L145.420651,22.9621159 L145.420651,22.9621159 Z M36.3100337,0.33381864 L35.2851062,0.106468514 L35.2851062,0.243342569 L35.2050017,0.698042821 L36.0676661,0.540289673 L36.3100337,0.33381864 L36.3100337,0.33381864 Z M31.6865632,9.09607809 L31.807747,9.02880101 L31.7892614,8.86872796 L31.6269983,8.7573728 L31.6064587,8.68777582 L31.7481821,8.7341738 L31.9289309,8.89192695 L32.0501147,8.91512594 L32.1487049,8.80145088 L32.1302192,8.66457683 L32.0686003,8.57410076 L32.0090354,8.55090176 L31.807747,8.64137783 L31.6865632,8.61817884 L31.4873288,8.41402771 L31.4667892,8.32587154 L31.366145,8.16579849 L31.0847521,8.02660453 L30.9040034,8.09852141 L30.9430287,8.30267254 L31.6865632,9.09607809 L31.6865632,9.09607809 Z M41.1512243,15.176534 L41.4942361,15.26933 L41.9358381,15.176534 L42.0960472,15.199733 L42.2357167,15.3806851 L42.3569005,15.3806851 L42.3979798,15.176534 L42.3979798,14.9051058 L41.6729309,14.0885013 L41.4736965,13.5897229 L41.331973,13.4992469 L41.2313288,13.703398 L41.1717639,13.9539471 L41.2107892,14.0885013 L41.0115548,14.7473526 L41.1512243,15.176534 L41.1512243,15.176534 Z" id="Fill-7" fill="#D6D6D6"></path>
                <path d="M38.3578347,14.7009547 L37.7765632,14.5432015 L37.5752749,14.6336776 L37.4356054,14.7705516 L37.4150658,14.8610277 L37.5547352,15.0419798 L37.5958145,15.176534 L37.6553794,15.246131 L37.6759191,15.4038841 L37.5341956,15.7449093 L37.5958145,15.7913073 L37.6348398,15.7681083 L37.6944047,15.6776322 L37.9983912,15.4943602 L38.2982698,15.176534 L38.3393491,15.0628589 L38.2982698,15.0419798 L38.2387049,14.9515038 L38.2982698,14.7705516 L38.3578347,14.7009547 L38.3578347,14.7009547 Z M37.1131332,17.5381914 L37.4356054,17.3340403 L37.6553794,16.948937 L37.6944047,16.4733577 L37.5341956,16.0186574 L37.1726981,16.2924055 L36.9529241,16.1996096 L36.8317403,15.8377053 L36.8522799,15.3574861 L37.0925936,14.4527254 L37.1521585,13.9307481 L36.9734637,13.1141436 L36.792715,13.1350227 L36.2689545,13.4992469 L36.1888499,13.657 L36.0676661,13.863471 L36.0286408,14.1348992 L36.0882057,14.4527254 L35.7862732,14.5664005 L35.4843406,14.9051058 L35.2851062,15.3806851 L35.2851062,15.9073023 L35.5459595,16.1764106 L35.9670219,16.3828816 L36.2093895,16.6102317 L36.0081012,17.0858111 L37.1131332,17.5381914 L37.1131332,17.5381914 Z M35.4247757,9.84308564 L35.244027,9.91268262 L34.7223204,10.318665 L34.580597,10.455539 L34.521032,10.7524861 L34.5621113,10.9798363 L34.7223204,11.4113375 L34.9215548,11.7059647 L35.1043575,11.5250126 L35.244027,11.1143904 L35.3241315,10.7292872 L35.4453153,10.594733 L35.6466037,10.7756851 L35.907457,11.1607884 L35.9670219,11.4577355 L35.9875616,11.7964408 L36.0882057,12.114267 L36.3695987,12.2952191 L36.9118449,12.3856952 L37.1726981,12.3416171 L37.4540911,12.160665 L36.8522799,10.365063 L36.9734637,10.1609118 L36.9919494,10.0031587 L36.9734637,9.82220655 L37.012489,9.50438035 L37.1336728,9.27703023 L37.3349612,9.23295214 L37.4951703,9.39070529 L37.5341956,9.64125441 L37.5157099,9.95676071 L37.6348398,10.7988841 L37.9367723,11.7059647 L38.0784958,12.0005919 L38.2571906,12.137466 L38.4790185,12.137466 L38.5796627,11.9773929 L38.6392277,11.7964408 L38.7398718,11.6386877 L39.6456695,11.2535844 L39.785339,11.1607884 L39.9250084,10.9102393 L38.0969815,9.16567506 L37.3945261,8.89192695 L36.9919494,8.82464987 L36.7721754,8.84784887 L35.6466037,9.77580856 L35.4247757,9.84308564 L35.4247757,9.84308564 Z M36.9118449,28.2259673 L36.9529241,28.6365894 L37.0925936,29.2513627 L37.3349612,29.7478212 L37.6944047,29.8406171 L37.9367723,29.4091159 L37.9983912,28.6829874 L37.9367723,27.9568589 L37.7950489,27.1843325 L37.6759191,27.0265793 L37.4951703,26.9801814 L37.2733423,27.0938564 L37.5157099,27.5462368 L37.6143002,28.1354912 L37.5341956,28.5716322 L37.2528027,28.5252343 L37.2137774,28.3164433 L37.2733423,27.7063098 L37.1932378,27.4789597 L37.012489,27.4557607 L36.9323845,27.6831108 L36.9118449,28.2259673 L36.9118449,28.2259673 Z M37.2322631,7.39327204 L37.1726981,7.39327204 L37.2137774,7.57422418 L37.293882,7.66470025 L37.2322631,7.68789924 L37.293882,7.75517632 L37.4150658,7.84565239 L37.4540911,7.80157431 L37.4150658,7.73429723 L37.4746307,7.73429723 L37.5547352,7.86885139 L37.7765632,7.95932746 L37.5752749,7.59742317 L37.4951703,7.62062217 L37.3555008,7.46054912 L37.5341956,7.39327204 L37.6944047,7.41647103 L37.9162327,7.5278262 L37.7560236,7.32599496 L37.5157099,7.18912091 L37.2528027,7.2123199 L37.2137774,7.30279597 L37.2733423,7.37007305 L37.2733423,7.41647103 L37.2322631,7.39327204 L37.2322631,7.39327204 Z M34.9215548,12.7963174 L34.9215548,12.9517506 L35.5048803,13.3182947 L35.6466037,13.2486977 L35.687683,13.0886247 L35.7472479,12.9981486 L35.8068128,12.9285516 L35.907457,12.9285516 L36.0286408,12.9749496 L36.1087454,12.9749496 L36.1683103,12.9517506 L36.2894941,12.8844736 L36.4106779,12.6571234 L36.3901383,12.4320932 L36.2484148,12.3856952 L36.1087454,12.3856952 L36.0286408,12.4320932 L36.0081012,12.5666474 L35.9279966,12.5898463 L35.8869174,12.4529723 L35.9279966,12.3184181 L35.907457,12.2511411 L35.5644452,12.091068 L35.4247757,11.9101159 L34.7613457,12.0005919 L34.5415717,11.9565139 L34.5004924,12.0469899 L34.5621113,12.160665 L34.7818853,12.2511411 L34.8414503,12.3184181 L35.0016594,12.6803224 L35.0016594,12.7731184 L34.9215548,12.7963174 L34.9215548,12.7963174 Z M41.3525126,19.0159673 L41.1512243,19.0600453 L40.9109106,19.2641965 L40.6089781,19.3314736 L40.1262968,19.2201184 L39.785339,19.7861738 L37.6553794,22.6442897 L37.4746307,23.1871461 L37.5547352,23.9179144 L37.6759191,24.1452645 L37.8751535,24.3934937 L38.0969815,24.6208438 L38.2777302,24.7113199 L38.3783744,24.869073 L38.6803069,25.8225516 L39.2020135,25.6160806 L39.6045902,25.6624786 L39.8449039,26.0058237 L39.8654435,26.7087531 L39.3026577,28.2050882 L39.3026577,28.6597884 L39.5429713,29.2513627 L39.4443811,29.7269421 L39.5840506,30.3602746 L39.8264182,30.9286499 L40.0461922,31.2000781 L40.1673761,31.4738262 L40.3090995,31.6570982 L40.5494132,31.7243753 L40.7712411,31.6570982 L41.1923035,31.3137531 L41.4326172,31.3369521 L41.6729309,31.6570982 L41.773575,32.2231537 L41.773575,32.9028841 L41.7140101,33.5176574 L41.7941147,33.6754106 L42.0570219,33.6754106 L42.4986239,33.5872544 L42.5787285,33.6754106 L42.5581889,33.8563627 L42.5581889,34.0141159 L42.6793727,34.0628338 L42.7800169,33.9932368 L42.8786071,33.8099647 L42.9997909,33.6986096 L43.4619325,33.1302343 L43.5831164,33.0397582 L43.6632209,32.928403 L43.6426813,32.6082569 L43.5625767,32.1326776 L43.5625767,31.4506272 L43.3612884,30.9077708 L42.0755076,29.4995919 L41.8146543,29.0912897 L41.5948803,28.6133904 L41.2518685,28.2050882 L41.0115548,28.4811562 L40.9109106,29.1376877 L41.0505801,29.7942191 L40.7096223,30.4089924 L40.4076897,30.5226675 L40.2680202,30.1561234 L40.3686644,28.7270655 L40.5884384,27.1379345 L40.5884384,25.7993526 L40.5288735,25.1405013 L40.3275852,24.5976448 L39.9660877,24.3030176 L39.7647993,24.1893426 L39.3827622,23.8019194 L39.1424486,23.6882443 L38.5406374,23.7346423 L38.2777302,23.6209673 L38.0969815,23.2103451 L39.2225531,23.2335441 L39.5244857,23.0757909 L39.6456695,22.7347657 L39.7647993,22.2151083 L39.9065228,22.0318363 L40.0667319,22.6906877 L40.2680202,22.3055844 L40.5678988,21.8740831 L40.890371,21.693131 L41.1923035,22.0550353 L41.3730523,22.4401385 L41.6544452,22.6442897 L41.9563777,22.6442897 L42.2562563,22.4169395 L42.4185194,21.6258539 L41.4531568,20.3777481 L41.5332614,19.7861738 L41.4736965,19.6724987 L41.4736965,19.3546725 L41.3525126,19.0159673 L41.3525126,19.0159673 Z M42.3363609,10.2073098 L42.276796,10.1168338 L42.0364823,10.0936348 L41.8947589,10.0263577 L42.0364823,10.2073098 L42.3979798,10.6852091 L42.5992681,10.617932 L42.6793727,10.2073098 L42.6382934,10.0263577 L42.5191636,9.88948363 L42.5376492,9.95676071 L42.5376492,10.2073098 L42.4780843,10.2305088 L42.3363609,10.2073098 L42.3363609,10.2073098 Z M41.5332614,10.0936348 L41.1717639,9.11927708 L40.890371,8.91512594 L40.7301619,9.30022922 L40.7507015,9.59485642 L40.9499359,9.86628463 L41.2929477,10.5228161 L41.5127218,11.0935113 L41.6133659,11.2976625 L41.9563777,11.7523627 L42.1556121,11.9773929 L42.3158212,11.9333149 L42.3158212,11.6386877 L42.2562563,11.3208615 L42.1761518,11.0471134 L42.0755076,10.8452821 L41.8947589,10.594733 L41.6544452,10.318665 L41.5332614,10.0936348 L41.5332614,10.0936348 Z M40.5678988,12.2952191 L40.8513457,12.6571234 L41.1717639,12.8844736 L41.1923035,12.6362443 L41.1717639,12.4320932 L41.0916594,12.2952191 L40.7096223,12.2511411 L40.5678988,12.2952191 L40.5678988,12.2952191 Z M40.4693086,13.1582217 L40.389204,12.9076725 L40.1879157,12.7035214 L39.9455481,12.7731184 L39.7463137,13.0422267 L39.6456695,13.4087708 L39.7463137,14.2926524 L39.8859831,14.5200025 L40.0872715,14.5664005 L40.2680202,14.5664005 L40.389204,14.4759244 L40.4877943,14.2021763 L40.6500573,14.0212242 L40.7507015,13.9307481 L40.7096223,13.796194 L40.4877943,13.3646927 L40.4693086,13.1582217 L40.4693086,13.1582217 Z M38.7008465,48.838272 L38.4194536,48.8823501 L38.2181653,49.1537783 L38.1380607,49.5412015 L38.177086,49.9263048 L38.6002024,49.6989547 L39.3231973,49.1769773 L40.2084553,48.9937053 L40.3481248,49.0169043 L40.0256526,48.631801 L39.7052344,48.3812519 L39.4443811,48.0657456 L39.284172,47.5205693 L39.284172,47.2259421 L39.3622226,46.6343678 L39.3827622,46.3188615 L39.284172,46.0427935 L39.1424486,45.8618413 L39.1034233,45.6600101 L39.284172,45.2957859 L38.9822395,45.363063 L38.5591231,45.6600101 L38.1976256,46.0195945 L38.0168769,46.3420605 L37.4951703,48.448529 L37.3945261,48.608602 L37.2322631,48.815073 L37.1131332,49.0633023 L37.1336728,49.3811285 L37.2528027,49.6757557 L37.3739865,49.8567078 L37.4951703,49.9263048 L37.6553794,49.8126297 L37.7765632,49.6084786 L37.8751535,49.3370504 L37.9778516,48.770995 L38.0969815,48.608602 L38.3188094,48.515806 L38.7213862,48.42533 L38.620742,48.2026196 L38.9411602,48.2026196 L39.0212648,48.448529 L38.9206206,48.724597 L38.7008465,48.838272 L38.7008465,48.838272 Z M37.5157099,41.8692947 L37.6143002,42.0734458 L37.8751535,42.0734458 L38.1586003,42.2103199 L38.4399933,42.9109295 L38.840516,43.0965214 L39.0828836,42.8436524 L39.2636324,42.7090982 L39.1219089,42.5954232 L39.062344,42.4585491 L39.062344,42.0734458 L39.0212648,41.9156927 L39.062344,41.7115416 L38.9000809,41.4145945 L39.062344,41.3913955 L39.1835278,41.3009194 L39.3827622,41.1222872 L39.2225531,40.8694181 L39.1835278,40.4147179 L39.2636324,39.4635592 L39.1835278,39.2594081 L39.0418044,39.029738 L38.8610556,38.8279068 L38.6803069,38.7165516 L38.4790185,38.7583098 L38.4194536,38.9856599 L38.3783744,39.2826071 L38.2571906,39.5540353 L37.8566678,39.9391385 L37.7765632,40.0992116 L37.735484,40.5307128 L37.7560236,40.8462191 L37.8566678,41.1222872 L37.7560236,41.4377935 L37.5157099,41.8692947 L37.5157099,41.8692947 Z M32.9127791,53.3087179 L32.6519258,53.2855189 L32.5122563,53.5105491 L32.3520472,53.7634181 L32.1692445,53.8538942 L31.9884958,53.9443703 L32.0090354,54.2366776 L32.08914,54.2830756 L32.2904283,54.6472997 L32.5718212,54.9651259 L32.6724654,54.9883249 L32.9127791,54.8746499 L33.2147116,54.6472997 L33.3749207,54.2134786 L33.4570793,53.9443703 L33.4365396,53.6010252 L33.2742766,53.420073 L32.9127791,53.3087179 L32.9127791,53.3087179 Z M30.2816526,50.1072569 L30.3617572,49.8358287 L30.6636897,49.6989547 L30.8444384,49.3602494 L30.6020708,49.4739244 L30.4603474,49.5180025 L30.1009039,49.6084786 L29.9181012,49.7221537 L29.6387622,49.6548766 L29.4785531,49.8799068 L29.3368297,50.2650101 L29.1150017,50.7661083 L29.0554368,50.9911385 L29.1951062,51.3344836 L29.4169342,51.6731889 L29.4970388,51.946937 L29.5175784,52.1742872 L29.5586577,52.5593904 L29.5586577,52.8076196 L29.6572479,52.9653728 L29.9797201,52.7403426 L30.261113,52.3320403 L30.3412175,51.946937 L30.4007825,51.5827128 L30.2816526,51.1999295 L30.1193895,50.8310655 L30.2200337,50.4691612 L30.2816526,50.1072569 L30.2816526,50.1072569 Z M4.90288702,67.5830579 L4.76116358,67.8104081 L4.98299157,68.1259144 L5.32394941,69.1721889 L5.46567285,68.8984408 L5.56426307,68.6038136 L5.70598651,67.9240831 L5.66490725,67.673534 L5.3855683,67.2652317 L5.34448904,66.8778086 L5.34448904,66.7664534 L5.30546374,66.4950252 L5.14320067,66.6295793 L4.96245194,66.7873325 L5.0035312,67.0634005 L4.98299157,67.3348287 L4.90288702,67.5830579 L4.90288702,67.5830579 Z M32.08914,9.59485642 L32.3315076,9.75260957 L32.4711771,9.91268262 L33.0545025,10.1609118 L33.0729882,10.1377128 L33.0339629,10.0704358 L32.974398,10.0472368 L32.8737538,9.91268262 L32.6724654,9.79900756 L32.4116121,9.64125441 L32.310968,9.57165743 L32.1302192,9.48118136 L32.08914,9.59485642 L32.08914,9.59485642 Z M34.580597,8.77825189 L34.521032,9.20975315 L34.6011366,9.27703023 L35.1248971,9.09607809 L35.2234874,8.96152393 L35.244027,8.82464987 L35.3241315,8.27947355 L35.2645666,8.1194005 L34.7408061,8.1194005 L34.6216762,8.23307557 L34.3402833,8.36994962 L34.1985599,8.48362469 L34.521032,8.7341738 L34.580597,8.77825189 L34.580597,8.77825189 Z M32.5923609,10.478738 L32.0090354,10.501937 L31.5674334,10.8684811 L31.5263541,11.4577355 L31.5058145,11.5922897 L31.4873288,12.4761713 L31.5468938,13.3878917 L31.6064587,13.610602 L31.7481821,13.9539471 L31.8878516,14.1580982 L32.1096796,14.3854484 L32.3315076,14.5432015 L32.530742,14.6336776 L32.9333187,14.7009547 L33.0134233,14.7705516 L33.194172,14.9723829 L33.3358954,15.199733 L33.416,15.4270831 L33.5556695,15.6080353 L33.7980371,15.7449093 L34.07943,15.7681083 L34.299204,15.7449093 L34.5004924,15.7681083 L34.7408061,15.9722594 L34.7818853,15.7913073 L34.4799528,15.5384383 L34.3402833,15.4038841 L34.2190995,15.222932 L34.0178111,14.4759244 L33.9787858,14.3854484 L34.0999696,14.0444232 L34.2190995,14.0676222 L34.3608229,14.1812972 L34.5621113,14.0885013 L34.8619899,13.817073 L34.9215548,13.657 L34.4799528,13.3182947 L34.2190995,12.5457683 L33.6563137,12.114267 L33.3749207,11.7291637 L33.1346071,11.2767834 L33.0339629,10.8893602 L32.5923609,10.478738 L32.5923609,10.478738 Z M145.420651,22.9621159 L141.320941,22.2359874 L137.221231,21.5121788 L133.123575,20.7605315 L129.023865,20.011204 L124.944695,19.2409975 L120.844985,18.468471 L116.745275,17.6727456 L112.666105,16.8816599 L108.566395,16.0859345 L104.489278,15.26933 L100.389568,14.4527254 L96.310398,13.633801 L92.2312277,12.7963174 L88.1520573,11.9333149 L84.072887,11.0703123 L79.9937167,10.2073098 L75.9145464,9.3466272 L71.8353761,8.46042569 L67.7562057,7.55102519 L63.6770354,6.66714358 L59.6184047,5.76238287 L55.5392344,4.82746348 L51.4806037,3.89718388 L47.4199191,2.96922418 L43.3428027,2.01342569 L41.5127218,1.58424433 L41.6544452,2.08302267 L41.7345497,2.62587909 L40.9109106,2.26397481 L40.4693086,2.24077582 L40.1879157,2.46812594 L40.1879157,2.99010327 L41.112199,3.17105542 L41.2518685,3.74175063 L41.1512243,3.87630479 L40.9499359,4.01317884 L40.7301619,4.21732997 L40.5884384,4.48875819 L40.6089781,4.87386146 L40.7507015,5.19400756 L41.4326172,6.12196725 L41.553801,6.46299244 L41.553801,6.9176927 L41.331973,7.59742317 L41.5743406,7.25639798 L41.8762732,7.55102519 L42.1556121,8.09852141 L42.2357167,8.50450378 L42.1556121,8.64137783 L41.8351939,8.86872796 L41.7550894,9.00560202 L41.7345497,9.3466272 L41.8351939,9.64125441 L41.9769174,9.79900756 L42.1966914,9.73173048 L42.940226,8.82464987 L43.3222631,8.46042569 L43.7248398,8.36994962 L44.0657976,8.52770277 L44.48686,8.89192695 L44.8093322,9.3466272 L44.9099764,9.84308564 L44.3266509,10.617932 L44.1664418,11.0703123 L44.546425,11.3881385 L44.5279393,11.5250126 L44.48686,12.2952191 L44.5279393,12.6130453 L44.6491231,12.8844736 L44.7887926,13.0213476 L44.930516,13.1350227 L45.0701855,13.3182947 L45.2119089,13.9539471 L45.1708297,14.6104786 L44.9490017,15.1092569 L44.5279393,15.222932 L44.2260067,14.9955819 L43.603656,14.1580982 L43.2421585,13.9307481 L42.8395818,13.9307481 L42.9997909,14.2253753 L43.6426813,14.9283048 L43.8049444,15.3806851 L43.9055885,15.8377053 L43.9240742,16.3156045 L43.8439696,17.0858111 L43.8439696,17.3804383 L43.8645093,17.5613904 L43.82343,17.7423426 L43.6241956,17.9673728 L43.381828,18.0369698 L43.1415143,17.9000957 L42.940226,17.6518665 L42.5992681,16.948937 L42.3158212,16.6311108 L42.0570219,16.7215869 L41.9152985,17.4709144 L41.7140101,16.948937 L41.5332614,16.1300126 L41.2518685,15.5848363 L40.6890826,15.8609043 L40.4282293,15.9073023 L40.1262968,15.8145063 L39.8654435,15.8145063 L39.7647993,16.1300126 L39.8859831,16.3156045 L40.1262968,16.4269597 L40.3481248,16.6775088 L40.3686644,17.1971662 L40.226941,17.4477154 L40.005113,17.5822695 L39.8654435,17.8119395 L39.9660877,18.3339169 L40.1468364,18.5821461 L40.4076897,18.7398992 L40.7301619,18.7630982 L41.0320944,18.6958212 L41.1923035,18.5589471 L41.5948803,18.1042469 L41.7550894,18.0369698 L41.9358381,18.1042469 L42.1966914,18.2434408 L42.2973356,18.468471 L41.9769174,18.6958212 L41.9358381,18.9022922 L42.1371265,19.2201184 L42.3569005,20.057602 L42.5376492,20.2617531 L42.8395818,20.3545491 L43.1004351,20.5099824 L43.3222631,20.7164534 L43.6632209,21.3057078 L44.1664418,21.7836071 L44.6696627,22.5097355 L44.7497673,22.6906877 L44.7887926,22.9180378 L44.7887926,23.2335441 L44.8298718,23.3936171 L44.4478347,23.9179144 L44.3266509,24.1893426 L44.3677302,24.5071688 L44.1253626,24.5976448 L43.9836391,24.3702947 L43.8850489,24.0547884 L43.7043002,23.7787204 L43.4229073,23.6673652 L43.0614098,23.5977683 L42.3774401,23.6673652 L41.9152985,23.9411134 L41.6133659,24.4607708 L41.4531568,25.1196222 L41.4531568,25.8689496 L41.6339056,26.6182771 L41.9152985,27.1843325 L43.2811838,28.7734635 L43.4023676,28.9776146 L43.6632209,29.659665 L43.8439696,29.9078942 L44.1664418,29.9751713 L43.9446138,28.9776146 L43.7433255,28.4579572 L43.4824722,28.2050882 L43.2421585,28.0218161 L42.9607656,27.6599118 L42.718398,27.2516096 L42.5787285,26.9361033 L42.5191636,26.481403 L42.5376492,25.9385466 L42.6793727,25.5256045 L43.1004351,25.3214534 L43.162054,24.732199 L43.3017234,24.4839698 L43.4619325,24.4607708 L43.603656,24.5512469 L43.6837605,24.7113199 L43.7638651,24.801796 L44.48686,25.3214534 L44.546425,26.0058237 L44.3471906,26.8897053 L44.267086,27.9568589 L44.5073997,28.9776146 L44.9900809,29.8174181 L46.095113,31.2464761 L46.4566105,30.9773678 L46.7174637,31.0446448 L46.8181079,31.179199 L46.9392917,31.2928741 L46.9598314,31.4274282 L46.8571332,31.5202242 L46.7380034,31.6107003 L46.6168196,31.7011763 L46.4976897,32.1094786 L46.3559663,32.4713829 L45.9349039,32.6314559 L45.7521012,32.745131 L45.0496459,32.745131 L44.8688971,32.8356071 L44.708688,32.9724811 L44.2876256,33.1743123 L44.1253626,33.2879874 L44.0041788,33.4944584 L43.9446138,33.7658866 L43.6837605,34.1301108 L43.5625767,34.5616121 L43.4023676,35.1717456 L43.0614098,35.5823678 L42.4185194,35.944272 L42.1761518,36.2388992 L41.9769174,36.5822443 L41.7941147,37.0346247 L41.6544452,37.5774811 L41.7140101,38.0577003 L41.8762732,38.3940856 L41.8351939,39.3498841 L41.7140101,39.6445113 L41.3134874,40.0760126 L41.1512243,40.2801637 L41.0711197,40.5307128 L40.9499359,40.7093451 L40.7096223,40.7325441 L40.6295177,40.8462191 L40.668543,41.1454861 L40.8102664,41.4377935 L40.9704755,41.6187456 L41.7345497,42.1871209 L41.9358381,42.5954232 L41.9769174,42.9805264 L41.8762732,43.4329068 L41.6729309,44.0012821 L41.5332614,43.7089748 L41.4141315,43.2519547 L41.2518685,42.9109295 L40.9910152,42.9109295 L40.6890826,43.1869975 L40.5494132,43.3656297 L40.5288735,43.6416977 L40.668543,45.0011587 L40.7301619,45.339864 L40.8698314,45.7713652 L40.890371,46.1123904 L40.6500573,47.3604962 L40.7096223,47.7247204 L41.0916594,48.585403 L41.1717639,48.9937053 L41.112199,49.5412015 L40.9314503,49.9495038 L40.668543,50.197733 L40.0256526,50.244131 L39.6251298,50.3554861 L39.2430927,50.5155592 L38.9616998,50.7220302 L38.7604115,50.9911385 L38.7604115,51.2440076 L38.9000809,51.4922368 L39.1835278,51.810063 L38.7809511,52.0606121 L38.4790185,52.1278892 L38.2181653,51.970136 L37.6348398,51.1744106 L37.0515143,50.5851562 L36.7721754,50.220932 L36.5893727,51.2904055 L36.1477707,52.2647632 L35.5849848,53.1277657 L33.6172884,55.0764811 L32.8737538,55.5984584 L32.08914,55.8722065 L32.0686003,55.5543804 L31.9494705,55.1901562 L31.7687218,54.895529 L31.3456054,54.5568237 L31.2264755,54.2366776 L31.1237774,53.8770932 L31.0251872,53.5778262 L30.702715,53.2623199 L30.5835852,53.3968741 L30.5014266,53.8538942 L30.5014266,53.9443703 L30.3001383,54.0325264 L29.9797201,54.1230025 L29.7188668,54.1021234 L29.8996155,53.9211713 L30.0207993,53.6938212 L30.0803642,53.4409521 L30.0207993,53.1277657 L29.1560809,53.6010252 L28.934253,53.9211713 L28.874688,54.2598766 L28.8952277,54.6704987 L28.8336088,55.009204 L28.5522159,55.2365542 L28.6323204,55.5984584 L28.6939393,56.0299597 L28.6323204,56.3292267 L28.3714671,56.2364307 L28.211258,55.9603627 L28.1907184,55.2806322 L28.0695346,54.918728 L28.2317976,54.6704987 L28.3324418,54.3758715 L28.3529815,54.0557254 L28.2913626,53.7634181 L27.9709444,54.3758715 L27.5272884,54.7841738 L27.046661,54.941927 L26.6030051,54.7841738 L27.0055818,54.6241008 L27.3075143,54.3758715 L28.4515717,52.8980957 L28.6138347,52.5129924 L28.4125464,52.3552393 L27.8497605,53.0349698 L27.7491164,53.1045668 L27.6279325,53.1277657 L25.7999056,53.9884484 L25.3973288,54.0789244 L25.6787218,53.6706222 L26.0812985,53.6010252 L26.4633356,53.5778262 L26.7241889,53.3968741 L26.7241889,52.9653728 L26.3626914,52.8748967 L25.9005497,52.9885718 L25.5801315,53.1045668 L25.8594705,52.7171436 L26.383231,52.5802695 L27.4286981,52.5129924 L27.98943,52.1742872 L28.3920067,51.6267909 L29.3573693,49.6084786 L29.5175784,49.4275264 L29.8379966,49.4275264 L30.0803642,49.3811285 L30.4213221,49.2210554 L30.9635683,48.838272 L31.2264755,48.3580529 L31.807747,47.0449899 L32.1487049,46.6784458 L31.9884958,47.065869 L32.029575,47.2932191 L32.1487049,47.4741713 L32.2493491,47.7015214 L32.2698887,48.1330227 L32.2698887,48.3580529 L32.1302192,49.1537783 L31.9679562,49.6757557 L31.7276425,50.0840579 L31.3250658,50.174534 L31.2059359,50.8542645 L31.2655008,52.2415642 L31.5859191,53.2623199 L32.2493491,52.8540176 L32.2904283,52.6707456 L32.2698887,52.4665945 L32.2288094,52.2856423 L32.2103238,52.2183652 L32.310968,52.1278892 L32.4300978,51.9910151 L32.530742,51.946937 L32.5122563,52.0838111 L32.6724654,51.8796599 L32.8121349,51.763665 L32.8737538,51.6035919 L32.5512816,50.6756322 L32.530742,50.244131 L32.6909511,49.8567078 L33.0729882,49.4507254 L33.194172,49.2210554 L33.2537369,48.9496272 L33.3543811,48.724597 L33.4961046,48.6573199 L33.6768533,48.608602 L33.8370624,48.471728 L34.0178111,48.2907758 L34.1985599,48.1562217 L34.9030691,47.9729496 L35.2050017,47.7455995 L35.4453153,47.2468212 L35.4042361,47.9729496 L35.1248971,48.4044509 L34.7613457,48.747796 L34.5415717,49.1978564 L34.299204,49.5412015 L33.9993255,49.7221537 L33.8966273,49.9703829 L34.299204,50.4691612 L35.6466037,51.4922368 L35.9279966,51.5595139 L36.2484148,51.0143375 L36.2689545,50.5387582 L35.9670219,49.4043275 L36.3285194,49.3811285 L36.6099123,49.2697733 L36.8522799,49.0169043 L37.072054,48.6573199 L36.8317403,47.9497506 L37.0330287,47.3396171 L37.3945261,46.7271637 L37.6759191,46.0427935 L37.9162327,45.546335 L38.2777302,45.0011587 L38.398914,44.5023804 L37.957312,44.1845542 L37.8751535,43.7553728 L37.9778516,43.0269244 L37.8751535,42.5049471 L37.1932378,42.7531763 L36.7310961,43.0501234 L36.2299292,43.2751537 L35.1844621,43.5233829 L35.3241315,43.2519547 L35.7677875,42.9573275 L36.0081012,42.6858992 L36.2299292,42.368073 L36.2299292,42.300796 L36.0882057,42.277597 L35.5048803,41.7347406 L35.3836965,41.5282695 L35.3446712,41.1222872 L35.3836965,40.7325441 L35.4843406,40.4379169 L35.6466037,40.1873678 L35.8273524,39.9855365 L36.2484148,41.7556196 L36.6304519,42.4817481 L37.1521585,42.3448741 L37.0515143,42.0966448 L37.2137774,41.9388917 L37.0515143,39.029738 L36.9919494,38.8279068 L36.8522799,38.6028766 L36.7105565,38.4172846 L36.6099123,38.1899345 L36.6304519,37.8280302 L36.8112007,37.8048312 L37.6553794,39.21533 L37.9778516,39.099335 L38.3393491,38.7583098 L38.6002024,38.3268086 L38.620742,37.9881033 L38.9411602,38.0113023 L39.8058786,38.4172846 L40.005113,38.4172846 L40.0872715,38.3036096 L40.226941,38.1481763 L40.389204,37.9185063 L40.4282293,37.5774811 L40.3481248,37.3292519 L40.2084553,37.1251008 L40.0256526,36.9673476 L39.8654435,36.8768715 L40.226941,36.4894484 L40.2084553,36.1739421 L40.0461922,35.8978741 L39.9866273,35.5823678 L40.0461922,34.5848111 L40.1057572,34.1533098 L40.0256526,33.4271814 L39.6456695,32.8796851 L38.6597673,31.9053275 L38.6392277,32.1767557 L38.8610556,32.9724811 L38.9000809,33.1743123 L38.9616998,34.6056902 L38.9411602,35.2645416 L38.7809511,35.6705239 L38.398914,35.4918917 L38.3578347,35.2413426 L38.4605329,35.0139924 L38.4605329,34.7866423 L38.1586003,34.6288892 L37.9367723,34.6752872 L37.6944047,34.8330403 L35.3241315,37.1714987 L35.0632782,37.5774811 L34.5621113,38.7815088 L34.3793086,39.1248539 L34.1184553,39.305806 L33.635774,39.4635592 L32.1096796,39.7141083 L30.8033592,40.2569647 L30.5014266,40.3474408 L28.7329646,42.1407229 L27.6073929,43.843529 L27.3876189,44.1149572 L26.7447285,44.7297305 L26.442796,45.1148338 L26.3216121,45.499937 L26.6030051,46.2747834 L27.3465396,46.4534156 L28.8952277,46.1123904 L30.3802428,45.499937 L31.1853963,45.3189849 L31.7071029,45.569534 L30.9841079,46.0427935 L30.261113,46.3188615 L26.8042934,46.9985919 L25.7403406,46.8640378 L25.2371197,46.2515844 L25.3583035,45.8386423 L26.0607589,44.7970076 L26.5229005,43.7994509 L26.9460169,43.4329068 L27.4081585,43.1405995 L27.769656,42.7972544 L28.6939393,41.3241184 L28.9958718,40.9366952 L30.8444384,39.305806 L31.1032378,39.168932 L31.3456054,39.1248539 L31.5263541,39.0088589 L31.7687218,38.3940856 L32.1692445,38.0345013 L32.4711771,37.442927 L32.8737538,36.8536725 L33.3749207,36.5822443 L33.1551467,35.6705239 L33.1140675,35.1276675 L33.1736324,34.6752872 L33.4570793,34.2437859 L33.6172884,34.447937 L33.635774,34.9907935 L33.5556695,35.5591688 L33.9377066,35.3550176 L34.0999696,34.8330403 L34.2190995,34.2901839 L34.5004924,33.9700378 L34.4409275,35.0371914 L34.2601788,35.8746751 L33.5967487,37.6238791 L33.2742766,38.1249773 L33.2352513,38.4404836 L33.5166442,38.6492746 L33.7364182,38.6492746 L33.9787858,38.5796776 L34.1595346,38.3940856 L34.2786644,38.1017783 L34.4203879,37.6470781 L34.6422159,37.1482997 L35.1844621,36.1739421 L35.5459595,35.6705239 L36.570887,34.7866423 L36.792715,34.5152141 L37.0330287,34.0141159 L37.2322631,33.7890856 L37.4150658,33.7890856 L37.9983912,33.9027607 L38.1586003,33.8099647 L38.1175211,33.4480605 L37.3739865,31.9053275 L37.3349612,31.6570982 L37.3945261,31.0214458 L37.3739865,30.7917758 L37.293882,30.5876247 L36.9734637,30.2697985 L36.8522799,30.0447683 L36.3285194,28.4324383 L36.2894941,27.9800579 L36.2484148,27.7735869 L36.1087454,27.5253577 L36.0286408,27.2075315 L36.1087454,26.8224282 L36.2689545,26.6855542 L36.7721754,26.527801 L36.9734637,26.411806 L36.7310961,25.6392796 L36.2689545,25.5488035 L35.687683,25.7065567 L35.0427386,25.7297557 L34.7818853,25.8457506 L34.5415717,26.1635768 L34.3998482,26.5718791 L34.4203879,26.9361033 L35.0016594,27.9568589 L35.1639224,28.4092393 L34.7017808,29.2049647 L34.3998482,29.4323149 L34.0383508,29.3859169 L34.07943,29.1817657 L34.5004924,29.0008136 L34.521032,28.4324383 L34.3402833,27.7967859 L34.1389949,27.3652846 L33.9171669,27.2075315 L33.7179325,27.1611335 L33.5967487,27.0033804 L33.6172884,26.551 L33.5556695,26.2540529 L33.3153558,26.1171788 L33.0134233,26.0731008 L32.1897841,26.0522217 L32.0090354,26.3886071 L31.9679562,27.5694358 L31.7481821,27.5253577 L31.3866847,27.2307305 L31.1648567,26.7551511 L31.4257099,26.1171788 L31.1237774,25.2773753 L30.702715,24.5976448 L30.1604688,24.1220655 L29.4580135,23.8251184 L29.4970388,23.5977683 L29.7784317,23.5977683 L30.0598246,23.5096121 L30.2816526,23.349539 L30.4213221,23.006194 L29.6572479,23.3031411 L28.1701788,24.1893426 L27.4882631,24.3470957 L24.4340202,23.419136 L24.0910084,23.119869 L24.1320877,22.9853149 L24.3128364,22.9621159 L24.4730455,22.9412368 L24.6743339,22.8739597 L23.3084486,22.7347657 L22.9674907,22.6002116 L22.1623373,22.0550353 L21.016226,21.9645592 L20.4965734,22.0782343 L20.2131265,21.830005 L19.7920641,21.2593098 L19.1697133,20.9461234 L17.801774,20.7164534 L15.0289241,19.8302519 L12.6381113,18.468471 L12.2971535,18.1970428 L11.8740371,17.1762872 L11.5536189,16.7679849 L10.2062192,15.7008312 L9.80569646,15.4943602 L8.94097808,15.4038841 L8.63904553,15.222932 L8.27754806,14.6568766 L8.11733895,14.5200025 L6.85004384,13.796194 L6.24823272,12.9749496 L3.55548735,10.6620101 L2.69282293,10.1377128 L1.70692074,9.79900756 L1.58573693,10.2073098 L1.64735582,10.594733 L2.06841821,11.3208615 L2.42991568,11.8196398 L2.49153457,11.9333149 L2.37035076,12.2047431 L2.00885329,12.5666474 L1.88766948,12.8171965 L1.68638111,13.863471 L1.60627656,14.0003451 L1.4049882,14.1580982 L1.34542327,14.2926524 L1.32488364,14.4295264 L1.4049882,14.6568766 L1.3659629,14.8146297 L1.06403035,15.7240302 L0.823716695,16.1091335 L0.48070489,16.2204887 L0.382114671,16.4501587 L0.723072513,18.0137708 L0.542323777,19.0600453 L0.421139966,20.1016801 L0.421139966,21.1920327 L0.521784148,22.3264635 L0.681993255,23.3704181 L1.08456998,24.755398 L1.20369983,24.915471 L1.68638111,25.1196222 L1.88766948,25.2773753 L2.04993255,25.4815264 L2.93313659,27.1379345 L3.0933457,27.7063098 L3.17345025,28.7270655 L3.27409444,29.0912897 L3.45484317,29.3186398 L3.67667116,29.4555139 L3.83688027,29.636466 L3.81634064,30.6549018 L4.15935245,32.4713829 L4.17989207,32.9724811 L3.91698482,35.3318186 L3.93752445,36.5335264 L3.55548735,40.9366952 L3.69721079,41.1222872 L4.07719393,41.3241184 L4.25999663,41.5282695 L4.11827319,41.7347406 L4.03816863,42.0502469 L4.05870826,42.3448741 L4.19837774,42.5258262 L4.44074536,42.6395013 L4.53933558,42.8436524 L4.76116358,43.866728 L4.90288702,45.1589118 L4.90288702,46.3420605 L4.66051939,48.701398 L4.68105902,50.0167809 L4.61944013,50.6524332 L4.09773356,52.6498665 L3.97654975,52.9444937 L3.87795953,53.0790479 L3.79785497,53.3968741 L3.77731535,53.7402191 L3.8574199,53.9443703 L3.99708938,53.8770932 L4.7817032,53.1950428 L4.90288702,53.1718438 L4.98299157,53.0790479 L4.94191231,52.8748967 L4.84126813,52.5802695 L4.84126813,52.4457154 L4.88234739,51.900539 L4.80224283,51.4226398 L4.80224283,51.1999295 L5.06309612,50.8125063 L5.5457774,50.6988312 L6.06748398,50.7429093 L6.49060034,50.9006625 L6.83155818,51.1999295 L7.09241147,51.6499899 L7.21359528,52.2183652 L7.19305565,52.8308186 L7.33272513,53.2391209 L7.83594604,53.420073 L8.81979427,53.5337481 L8.78076897,53.7170202 L8.72120405,53.7634181 L8.6185059,53.9002922 L9.78515683,54.0789244 L10.3684823,54.2830756 L10.7690051,54.6472997 L9.24291062,54.7377758 L7.71476223,55.0996801 L7.07187184,55.3734282 L6.76993929,55.4407053 L6.3488769,55.3943073 L6.00791906,55.5311814 L5.78609106,55.9162846 L5.80663069,56.2364307 L6.14758853,56.1436348 L6.26877234,56.5078589 L6.3488769,56.7792872 L6.30779764,57.0298363 L6.10856324,57.2803854 L5.98737943,57.2107884 L5.76555143,56.9857582 L5.48415852,56.7560882 L5.2027656,56.7328892 L5.2027656,56.2573098 L4.92342664,55.6216574 L5.08363575,55.3038312 L4.94191231,54.6009018 L4.50031029,54.895529 L4.36064081,55.2365542 L4.45923103,56.3733048 L4.45923103,57.5750126 L4.34010118,59.5724458 L4.42020573,59.9807481 L4.66051939,60.2289773 L5.32394941,60.4563275 L5.64436762,60.5004055 L5.80663069,60.5700025 L5.98737943,60.7764736 L6.1270489,60.9991839 L6.28725801,61.1128589 L6.57070489,60.9991839 L6.32833727,60.7068766 L6.36941653,60.5236045 L7.31423946,60.9991839 L7.59563238,60.9342267 L7.83594604,60.7068766 L7.99615514,60.5932015 L8.19744351,60.6372796 L8.47883642,60.8437506 L8.92043845,61.4353249 L9.22237099,62.0918564 L9.56332884,62.6579118 L10.1466543,62.9061411 L9.84472175,63.1566902 L9.44419899,63.2726851 L9.14226644,63.1334912 L9.08064755,62.7483879 L9.04162226,62.2055315 L8.73968971,62.0013804 L8.07831366,61.9781814 L7.37380438,62.1150554 L7.01230691,62.7483879 L6.97328162,63.6090705 L7.23413491,64.4535139 L6.95274199,64.3143199 L6.509086,63.7714635 L6.18866779,63.5881914 L6.30779764,64.1333678 L6.63026981,64.9731713 L6.79047892,65.7665768 L6.85004384,65.9266499 L6.87058347,66.1284811 L6.83155818,66.5182242 L6.75145363,66.7873325 L6.63026981,66.9938035 L6.47006071,67.1074786 L5.98737943,67.1538766 L5.86619562,67.3580277 L5.84770995,67.696733 L5.86619562,68.0145592 L5.9278145,68.1723123 L6.02640472,68.3323854 L6.14758853,68.4692594 L6.24823272,68.5156574 L6.28725801,68.6038136 L6.26877234,68.8984408 L6.26877234,69.0608338 L6.57070489,69.3763401 L6.97328162,69.6941662 L7.23413491,70.0792695 L7.01230691,70.6012469 L6.75145363,70.1929446 L6.04694435,69.3763401 L5.94630017,69.0840327 L5.78609106,69.0608338 L5.60534233,69.7173652 L5.24384486,70.2834207 L4.7817032,70.6012469 L4.29902192,70.5107708 L4.07719393,70.0560705 L3.97654975,69.3299421 L3.99708938,67.7872091 L4.11827319,67.0170025 L4.70159865,64.8594962 L4.68105902,64.1774458 L4.53933558,63.6322695 L4.52084992,63.1566902 L4.86180776,62.6347128 L4.31956155,62.7715869 L4.01762901,63.8619395 L3.37473862,68.6942897 L3.0933457,69.9215164 L2.73184823,70.759 L2.79141315,71.1441033 L2.73184823,71.4410504 L2.49153457,71.9398287 L2.16906239,72.4641259 L1.94928836,72.7796322 L1.76648567,72.9629043 L1.92874874,73.1879345 L2.10949747,73.2575315 L2.53055987,73.1647355 L2.63120405,73.2111335 L2.69282293,73.3248086 L2.75238786,73.3944055 L2.93313659,73.2575315 L2.89205734,73.2111335 L2.87151771,73.0301814 L2.87151771,72.8028312 L2.91259696,72.6659572 L3.29463406,72.417728 L3.63559191,72.440927 L3.95806408,72.6659572 L4.21891737,72.9837834 L4.98299157,74.3687632 L5.3855683,74.6889093 L5.88673524,74.7793854 L6.30779764,74.5752343 L6.68983474,74.3014861 L7.15197639,74.120534 L7.37380438,74.166932 L7.95507589,74.5056373 L8.15841821,74.5056373 L8.4582968,74.3223652 L9.08064755,74.2550882 L9.30247555,74.0300579 L9.48322428,73.937262 L9.70505228,74.3455642 L9.7646172,74.6193123 L9.7646172,74.8698615 L9.80569646,75.0948917 L10.8901889,75.663267 L13.3426206,75.7746222 L13.8848668,76.0042922 L14.3059292,76.3893955 L14.3860337,77.0018489 L14.4065734,77.5470252 L14.646887,78.0226045 L15.8936425,79.6581335 L16.2161147,79.9527607 L16.7378212,80.1569118 L17.1999629,80.1569118 L18.1242462,79.9086826 L18.6069275,79.9991587 L19.8721686,80.0432368 L20.2131265,80.2473879 L20.4349545,80.5652141 L20.9977403,81.2681436 L21.238054,81.4954937 L21.8008398,81.7483627 L22.3636256,82.1775441 L22.8873862,82.6995214 L23.3084486,83.2191788 L23.5693019,83.7666751 L23.7911298,84.4232065 L23.9307993,85.1284559 L23.9307993,86.2860856 L24.1320877,86.6711889 L24.392941,87.0098942 L24.5942293,87.4437154 L24.614769,87.9424937 L24.5346644,89.2833955 L24.6948735,90.3691083 L24.5736897,90.8910856 L24.3724013,91.4571411 L24.2532715,92.1159924 L24.555204,93.0253929 L24.5736897,93.3200202 L24.4935852,93.6378463 L24.3128364,94.1830227 L24.2327319,94.5008489 L24.1115481,95.6352796 L24.1115481,96.31733 L24.2121922,96.8393073 L24.4730455,97.3148866 L24.8550826,97.813665 L25.278199,98.2219673 L26.7241889,98.8808186 L27.547828,98.8599395 L27.8292209,98.9272166 L28.3920067,99.4283149 L29.3368297,99.9247733 L29.8379966,100.402673 L31.4667892,100.808655 L32.9127791,101.785332 L33.2948162,101.764453 L33.6768533,101.60438 L35.2050017,101.469826 L38.9000809,100.855053 L39.7647993,100.516348 L41.2929477,99.6301461 L42.1761518,99.3355189 L42.7389376,99.356398 L44.1253626,99.9943703 L47.0604755,100.084846 L52.7068196,101.947725 L53.569484,102.490582 L53.8919562,102.922083 L54.011086,103.397662 L54.0911906,103.942839 L54.232914,104.60169 L54.5348465,104.942715 L54.9764486,104.986793 L56.8250152,104.534413 L56.9256594,104.534413 L57.3467218,104.645768 L57.5500641,104.759443 L57.6486543,104.782642 L58.2915447,104.896317 L58.4928331,104.963594 L58.7536863,105.167746 L59.5588398,105.441494 L60.4235582,105.371897 L60.6823575,105.418295 L60.8035413,105.395096 L61.7689039,104.852239 L61.929113,104.82904 L63.3566172,104.82904 L64.3199258,104.624889 L64.4411096,104.418418 L64.6013187,104.283864 L65.1641046,104.033315 L65.3838786,104.033315 L68.1978078,105.237343 L68.4196358,105.258222 L68.9228567,105.123668 L69.1036054,105.123668 L70.066914,105.508771 L70.288742,105.53197 L70.7714233,105.441494 L71.6135481,105.123668 L71.8148364,105.100469 L72.116769,105.167746 L72.6590152,105.418295 L72.9609477,105.441494 L73.5442732,105.30462 L74.107059,105.009992 L74.7889747,104.511214 L75.1915514,104.351141 L76.1158347,104.37434 L79.1495379,103.69229 L84.5555683,103.782766 L85.4798516,103.260788 L86.1412277,102.627456 L86.4842395,102.513781 L87.005946,102.53466 L88.3328061,102.875685 L91.0851164,102.875685 L95.8893356,103.736368 L96.8916695,103.46494 L97.857032,102.627456 L98.0377808,102.648335 L98.9230388,102.831607 L101.414496,103.307186 L103.905953,103.782766 L106.39741,104.260665 L108.868327,104.713045 L111.359784,105.190945 L116.342698,106.118904 L118.834155,106.573605 L121.327666,107.030625 L123.819123,107.483005 L126.31058,107.937705 L128.802037,108.366887 L131.293494,108.821587 L133.784951,109.253088 L136.276408,109.686909 L138.909589,110.13929 L138.628196,108.75199 L137.804556,107.186058 L137.724452,106.847353 L138.406368,106.278977 L138.687761,105.917073 L138.969153,105.348698 L139.049258,104.736244 L138.72884,103.875562 L138.7083,102.423305 L138.527551,101.764453 L138.04487,100.493149 L137.301336,99.0849698 L137.221231,98.6302695 L137.360901,98.1082922 L137.784017,97.2476096 L137.884661,96.407806 L138.507012,91.802806 L139.131417,87.2163652 L139.733228,82.6090453 L140.355578,78.0226045 L140.959444,73.4408035 L141.581794,68.8775617 L142.185659,64.2911209 L142.80801,59.730199 L144.013686,50.6083552 L144.636037,46.0427935 L145.841713,36.9673476 L146.466118,32.4273048 L147.067929,27.8895819 L147.66974,23.3704181 L145.420651,22.9621159 L145.420651,22.9621159 Z M36.3100337,0.33381864 L35.2851062,0.106468514 L35.2851062,0.243342569 L35.2050017,0.698042821 L36.0676661,0.540289673 L36.3100337,0.33381864 L36.3100337,0.33381864 Z M31.6865632,9.09607809 L31.807747,9.02880101 L31.7892614,8.86872796 L31.6269983,8.7573728 L31.6064587,8.68777582 L31.7481821,8.7341738 L31.9289309,8.89192695 L32.0501147,8.91512594 L32.1487049,8.80145088 L32.1302192,8.66457683 L32.0686003,8.57410076 L32.0090354,8.55090176 L31.807747,8.64137783 L31.6865632,8.61817884 L31.4873288,8.41402771 L31.4667892,8.32587154 L31.366145,8.16579849 L31.0847521,8.02660453 L30.9040034,8.09852141 L30.9430287,8.30267254 L31.6865632,9.09607809 L31.6865632,9.09607809 Z M41.1512243,15.176534 L41.4942361,15.26933 L41.9358381,15.176534 L42.0960472,15.199733 L42.2357167,15.3806851 L42.3569005,15.3806851 L42.3979798,15.176534 L42.3979798,14.9051058 L41.6729309,14.0885013 L41.4736965,13.5897229 L41.331973,13.4992469 L41.2313288,13.703398 L41.1717639,13.9539471 L41.2107892,14.0885013 L41.0115548,14.7473526 L41.1512243,15.176534 L41.1512243,15.176534 Z" id="Stroke-8" stroke="#F9F9F9" stroke-width="0.25" stroke-linecap="round" stroke-linejoin="round"></path>
            </g>
        </g>
    </g>
</svg>