<?xml version="1.0" encoding="UTF-8"?>
<svg width="135px" height="95px" viewBox="0 0 135 95" version="1.1" xmlns="http://www.w3.org/2000/svg" xmlns:xlink="http://www.w3.org/1999/xlink">
    <!-- Generator: Sketch 51 (57462) - http://www.bohemiancoding.com/sketch -->
    <title>Iowa</title>
    <desc>Created with Sketch.</desc>
    <defs></defs>
    <g id="Page-1" stroke="none" stroke-width="1" fill="none" fill-rule="evenodd">
        <g id="A5" transform="translate(-666.000000, -244.000000)">
            <g id="Iowa" transform="translate(666.000000, 244.000000)">
                <polygon id="Fill-77" fill="#D6D6D6" points="122.884675 29.1519471 122.662847 29.8316776 122.944239 30.2167809 123.605616 30.5346071 123.926034 30.8292343 124.271099 31.2398564 124.973555 31.7827128 126.824175 32.8498665 127.506091 33.483199 127.945639 34.4621965 127.927153 34.2603652 128.107902 35.9585315 128.348216 36.6405819 129.034239 37.004806 129.535406 37.6613375 129.816799 37.7982116 130.096138 37.8422897 131.946759 38.8189673 132.166533 39.0231184 132.729319 39.6378917 132.928553 39.7724458 133.253079 39.7956448 133.415342 39.999796 133.474907 40.3617003 133.495447 40.8164005 133.594037 41.2247028 134.216388 42.5192065 134.156823 42.8811108 134.156823 44.1524156 133.87543 45.2427683 133.85489 47.1056474 133.674142 48.4651083 133.474907 49.1239597 133.129841 49.4417859 132.809423 49.6250579 132.006324 50.4625416 131.74547 50.8035668 131.505157 51.2768262 131.264843 51.9147985 131.12312 52.5968489 131.084094 53.2533804 130.839673 53.8890327 130.878698 54.0027078 130.98345 54.1395819 131.022476 54.297335 131.084094 55.0257834 131.063555 55.3412897 130.98345 55.6591159 130.697949 56.0442191 129.835285 56.7030705 129.675076 56.9304207 129.535406 57.3619219 129.173909 57.7029471 128.348216 58.1553275 126.337386 58.7677809 125.916324 59.0206499 125.213868 60.1318816 124.833885 60.584262 123.967113 60.9925642 118.100995 62.0597179 117.316381 62.7417683 116.895319 63.7161259 116.554361 64.9433526 116.332533 66.2796146 116.252428 67.5764383 116.293508 68.2097708 116.453717 68.9358992 116.73511 69.5483526 117.174658 69.7780227 117.480698 69.8916977 118.583676 70.6851033 119.245052 71.5457859 119.690762 72.7498136 119.931076 74.1115945 119.951616 75.5406524 119.666115 76.654204 117.801116 79.4682418 117.480698 80.0806952 117.295841 80.5794736 117.236277 81.0550529 117.254762 82.3982746 117.174658 83.054806 116.854239 84.3029118 116.373612 85.2331914 115.710182 85.8665239 114.905029 86.256267 114.08139 86.4348992 113.440553 86.6831285 112.553241 87.2283048 111.752196 87.8662771 111.429723 88.4323325 111.390698 88.6364836 111.230489 88.9751889 111.18941 89.272136 111.290054 89.5226851 111.891865 90.0446625 112.113693 90.5202418 112.173258 91.0654181 112.093153 91.9956977 112.132179 92.519995 112.292388 93.2902015 112.354007 93.7425819 112.193798 94.0604081 110.990175 94.5823854 110.747808 94.3573552 110.123403 94.1508841 109.86255 93.946733 109.038911 93.1765264 108.839676 92.9050982 108.878702 92.7009471 108.858162 92.496796 108.778057 92.2903249 108.638388 92.0861738 108.457639 91.9539395 108.032469 91.7915466 107.833234 91.6546725 107.771616 91.4945995 107.712051 91.3391662 107.652486 91.1999723 107.510762 91.1558942 107.290988 91.1790932 107.190344 91.1558942 107.0897 91.0862972 106.989056 90.9053451 106.869926 90.4993627 106.808307 90.3856877 106.30714 90.0678615 105.842944 89.9773854 105.641656 89.8613904 105.460907 89.6572393 105.360263 89.434529 105.300698 89.1561411 105.261673 88.7501587 105.161029 88.5900856 104.758452 88.3186574 104.657808 88.1841033 104.458573 87.752602 103.612341 87.8198791 101.622051 88.0008312 96.559032 88.4555315 91.4960135 88.9079118 86.4329949 89.341733 81.3679224 89.7477154 76.3049039 90.1583375 71.2418853 90.5666398 66.1788668 90.9517431 61.1117403 91.3159673 56.0302361 91.6778715 50.9672175 92.0188967 45.904199 92.3367229 40.8185868 92.6545491 35.7555683 92.9723753 30.6925497 93.2670025 25.6089916 93.5384307 20.5233794 93.8098589 20.4021956 93.8098589 20.4617605 93.3134005 20.4617605 92.6545491 20.2419865 91.9956977 19.8414637 91.6987506 18.717946 91.2463703 18.4776324 90.7475919 18.4119056 90.4761637 18.2722361 90.2720126 18.1715919 90.0446625 18.1325666 89.6131612 18.1921315 89.295335 18.2722361 89.135262 18.5577369 88.7756776 18.9582597 88.0240302 18.9171804 87.775801 18.6974064 87.3906977 18.6378415 87.0264736 18.6974064 86.3212242 18.8370759 85.7551688 18.9377201 85.1659144 18.8370759 84.4165869 18.5577369 83.6904584 18.5166577 83.3030353 18.5762226 82.6697028 18.5577369 82.3750756 18.4119056 82.0549295 18.0319224 81.7371033 17.8511737 81.5097531 17.7299899 81.1710479 17.7710691 80.8972997 17.890199 80.7395466 17.9518179 80.5794736 17.8306341 80.3544433 17.7505295 80.1943703 17.7094503 80.0806952 17.6498853 79.9902191 17.5492411 79.9229421 17.5492411 79.73967 17.670425 79.5355189 17.9312782 78.6748363 17.7916088 78.2642141 17.7094503 77.2898564 17.5903204 76.8351562 18.0709477 76.5614081 17.7916088 76.3340579 16.8488398 76.0394307 16.5469073 75.6775264 16.5263676 75.1787481 16.6475514 73.8842443 16.8673255 73.7473703 17.2883879 73.1813149 17.5697808 72.5688615 17.3684924 72.3206322 17.0090489 72.2742343 16.062172 71.9540882 15.7212142 71.7522569 16.1422766 69.8244207 16.1422766 69.4810756 16.3065936 68.2329698 16.1628162 67.9383426 16.0210927 67.8710655 15.840344 67.8942645 14.9982192 67.7109924 14.7188803 67.5300403 14.5771568 67.191335 14.6182361 66.8943879 14.6983406 66.5069647 14.7989848 66.1450605 14.897575 66.0105063 14.9181147 65.9177103 14.7579056 65.7135592 14.4970523 65.5094081 14.236199 65.442131 14.0554503 65.5094081 13.6508196 65.8272343 13.4105059 65.8504332 12.9483642 65.5094081 12.909339 64.8992746 13.0099831 64.2845013 13.0099831 64.036272 12.7080506 63.806602 12.5478415 63.2846247 12.4677369 62.6048942 12.4266577 61.3312695 12.4882766 61.1062393 12.6074064 60.8556902 12.8086948 60.5401839 12.8682597 60.3801108 12.8292344 60.2223577 12.7881551 59.8140554 12.8682597 59.2456801 13.0284688 58.7005038 13.0880337 58.1112494 12.8682597 57.4315189 11.6009646 56.0674181 11.52086 55.8887859 11.1593626 55.1162594 11.079258 54.8448312 11.079258 54.503806 11.2805464 53.8890327 11.3401113 53.6152846 11.0587184 52.4158967 10.2966981 51.7779244 9.43403373 51.2559471 8.82811467 50.4161436 8.72747049 49.7364131 8.70898482 49.1239597 8.66790556 48.5555844 8.42759191 48.056806 8.04555481 47.6925819 7.34515346 47.2170025 7.03911298 46.7623023 6.81933895 46.0361738 6.87890388 45.4909975 7.03911298 44.9713401 7.11921754 44.4052846 7.05965261 43.7000353 6.9384688 43.198937 6.69815514 42.8138338 6.39827656 42.5656045 6.3571973 42.0900252 5.65474199 41.1806247 5.71636088 39.9093199 5.95667454 38.5916171 5.63625632 37.3667103 5.27475885 37.0720831 4.78796965 36.9120101 3.88627993 36.7774559 3.84520067 35.7103023 3.7055312 35.3460781 3.58640135 35.278801 3.48575717 35.118728 3.46521754 34.9377758 3.46521754 34.6895466 3.44467791 34.5085945 3.38511298 34.3485214 3.24544351 34.0747733 3.16533895 33.9402191 3.08318044 33.8497431 2.96405059 33.7801461 2.61898482 33.5551159 2.57790556 33.4623199 2.57790556 33.3927229 2.63952445 33.2813678 2.65801012 33.2349698 2.88394604 33.0308186 2.94351096 32.8962645 2.92297133 32.7593904 2.84286678 32.6457154 2.68265767 32.4415642 2.49780101 32.2606121 1.39482293 31.4208086 1.2140742 31.2398564 1.03332546 31.0101864 0.692367622 30.46733 0.573237774 30.1727028 0.532158516 29.9221537 0.573237774 29.5161713 0.653342327 29.2215441 0.813551433 28.7877229 1.11343002 28.2866247 1.15450927 28.1520705 1.2140742 27.9919975 1.23461383 27.8342443 1.29417875 27.6764912 1.35579764 27.5396171 1.43590219 27.4259421 1.49546712 27.335466 1.57557167 27.289068 1.87545025 27.1313149 1.95760877 27.0640378 2.01717369 26.9503627 2.03771332 26.7902897 2.03771332 26.4051864 2.07673862 26.2242343 2.11781788 26.0873602 2.19792243 25.9736851 2.27802698 25.9040882 2.31705228 25.746335 2.35813153 25.5189849 2.37867116 24.7023804 2.39715683 24.4982292 2.41769646 24.4309521 2.78330185 23.9530529 2.84286678 23.7721008 2.92297133 23.4078766 2.88394604 22.8418212 2.86340641 22.7281461 2.88394604 22.660869 2.88394604 22.614471 2.96405059 22.4567179 3.08318044 22.0484156 3.1242597 21.8442645 3.10372007 21.7050705 3.06469477 21.6169144 3.00307589 21.5009194 2.90448567 21.3431662 2.90448567 21.1854131 2.94351096 21.0253401 3.58640135 20.2992116 3.6665059 20.1391385 3.74661046 19.9141083 3.92735919 18.7100806 3.92735919 18.4618514 3.88627993 18.2785793 3.82671501 18.0512292 3.74661046 17.756602 3.54532209 16.466738 3.46521754 16.1465919 3.40565261 16.007398 3.32554806 15.8960428 3.20436425 15.8287657 3.08318044 15.8287657 2.88394604 15.8519647 2.72373693 15.8519647 2.27802698 15.7823678 1.95760877 15.8287657 1.77686003 15.8055668 1.63513659 15.7591688 1.49546712 15.6014156 1.45644182 15.4413426 1.47492749 15.2835894 1.53449241 15.1467154 1.71524115 14.9193652 1.77686003 14.8080101 1.73578078 14.694335 1.63513659 14.5806599 1.47492749 14.4669849 1.29417875 14.1491587 1.27569309 13.9473275 1.33525801 13.8081335 1.45644182 13.7617355 1.7563204 13.8081335 1.89598988 13.7617355 1.99663406 13.6944584 2.07673862 13.5807834 2.11781788 13.4671083 2.1773828 12.7409798 2.1383575 11.1982469 2.07673862 10.8804207 1.99663406 10.7690655 1.63513659 10.3584433 1.47492749 10.1078942 1.09494435 9.67871285 0.994300169 9.5186398 0.893655987 9.22401259 0.873116358 8.99666247 0.873116358 8.72523426 0.914195616 8.38188917 0.893655987 8.17773804 0.834091062 7.9735869 0.772472175 7.81583375 0.712907251 7.63488161 0.793011804 7.54440554 3.64596627 7.40753149 10.196054 7.15930227 16.7481956 6.88787406 23.2982833 6.59092695 29.8689106 6.29861965 36.4169444 5.95295466 42.967032 5.59105038 49.5191737 5.2059471 56.0692614 4.82084383 62.621403 4.39166247 69.1714907 3.93464232 75.7236324 3.48226196 82.2531804 2.98116373 88.8053221 2.48238539 95.3554098 1.93952897 101.887012 1.39435264 108.437099 0.802778338 108.437099 1.2365995 108.478179 1.59618388 108.558283 1.93952897 108.679467 2.25503526 108.999885 2.84428967 109.119015 3.11803778 109.201174 3.43354408 109.361383 4.25478841 109.540078 4.54941562 109.782445 4.73036776 111.571447 5.34282116 112.113693 5.97615365 112.232823 7.08970529 111.912405 8.01998489 110.969636 9.72279093 110.809427 10.7899446 111.07028 12.8778539 111.290054 13.8754106 111.370159 14.9657632 111.429723 15.3067884 111.550907 15.6454937 111.672091 17.0095945 111.8323 17.6661259 112.093153 18.1417053 112.71345 18.8701537 112.959926 19.276136 113.120135 19.8004332 113.259804 21.0694181 113.380988 21.6169144 114.161494 23.0436524 114.442887 23.4078766 114.944054 23.7489018 115.851906 24.0922469 119.386776 24.5214282 120.331599 24.8160554 120.81428 24.8392544 121.315447 24.9738086 121.656405 25.3821108 122.14114 26.5629395 122.342428 26.9062846 122.9237 27.6973703 123.124988 28.1288715 123.104449 28.4675768"></polygon>
                <polygon id="Stroke-78" stroke="#F9F9F9" stroke-width="0.25" stroke-linecap="round" stroke-linejoin="round" points="122.884675 29.1519471 122.662847 29.8316776 122.944239 30.2167809 123.605616 30.5346071 123.926034 30.8292343 124.271099 31.2398564 124.973555 31.7827128 126.824175 32.8498665 127.506091 33.483199 127.945639 34.4621965 127.927153 34.2603652 128.107902 35.9585315 128.348216 36.6405819 129.034239 37.004806 129.535406 37.6613375 129.816799 37.7982116 130.096138 37.8422897 131.946759 38.8189673 132.166533 39.0231184 132.729319 39.6378917 132.928553 39.7724458 133.253079 39.7956448 133.415342 39.999796 133.474907 40.3617003 133.495447 40.8164005 133.594037 41.2247028 134.216388 42.5192065 134.156823 42.8811108 134.156823 44.1524156 133.87543 45.2427683 133.85489 47.1056474 133.674142 48.4651083 133.474907 49.1239597 133.129841 49.4417859 132.809423 49.6250579 132.006324 50.4625416 131.74547 50.8035668 131.505157 51.2768262 131.264843 51.9147985 131.12312 52.5968489 131.084094 53.2533804 130.839673 53.8890327 130.878698 54.0027078 130.98345 54.1395819 131.022476 54.297335 131.084094 55.0257834 131.063555 55.3412897 130.98345 55.6591159 130.697949 56.0442191 129.835285 56.7030705 129.675076 56.9304207 129.535406 57.3619219 129.173909 57.7029471 128.348216 58.1553275 126.337386 58.7677809 125.916324 59.0206499 125.213868 60.1318816 124.833885 60.584262 123.967113 60.9925642 118.100995 62.0597179 117.316381 62.7417683 116.895319 63.7161259 116.554361 64.9433526 116.332533 66.2796146 116.252428 67.5764383 116.293508 68.2097708 116.453717 68.9358992 116.73511 69.5483526 117.174658 69.7780227 117.480698 69.8916977 118.583676 70.6851033 119.245052 71.5457859 119.690762 72.7498136 119.931076 74.1115945 119.951616 75.5406524 119.666115 76.654204 117.801116 79.4682418 117.480698 80.0806952 117.295841 80.5794736 117.236277 81.0550529 117.254762 82.3982746 117.174658 83.054806 116.854239 84.3029118 116.373612 85.2331914 115.710182 85.8665239 114.905029 86.256267 114.08139 86.4348992 113.440553 86.6831285 112.553241 87.2283048 111.752196 87.8662771 111.429723 88.4323325 111.390698 88.6364836 111.230489 88.9751889 111.18941 89.272136 111.290054 89.5226851 111.891865 90.0446625 112.113693 90.5202418 112.173258 91.0654181 112.093153 91.9956977 112.132179 92.519995 112.292388 93.2902015 112.354007 93.7425819 112.193798 94.0604081 110.990175 94.5823854 110.747808 94.3573552 110.123403 94.1508841 109.86255 93.946733 109.038911 93.1765264 108.839676 92.9050982 108.878702 92.7009471 108.858162 92.496796 108.778057 92.2903249 108.638388 92.0861738 108.457639 91.9539395 108.032469 91.7915466 107.833234 91.6546725 107.771616 91.4945995 107.712051 91.3391662 107.652486 91.1999723 107.510762 91.1558942 107.290988 91.1790932 107.190344 91.1558942 107.0897 91.0862972 106.989056 90.9053451 106.869926 90.4993627 106.808307 90.3856877 106.30714 90.0678615 105.842944 89.9773854 105.641656 89.8613904 105.460907 89.6572393 105.360263 89.434529 105.300698 89.1561411 105.261673 88.7501587 105.161029 88.5900856 104.758452 88.3186574 104.657808 88.1841033 104.458573 87.752602 103.612341 87.8198791 101.622051 88.0008312 96.559032 88.4555315 91.4960135 88.9079118 86.4329949 89.341733 81.3679224 89.7477154 76.3049039 90.1583375 71.2418853 90.5666398 66.1788668 90.9517431 61.1117403 91.3159673 56.0302361 91.6778715 50.9672175 92.0188967 45.904199 92.3367229 40.8185868 92.6545491 35.7555683 92.9723753 30.6925497 93.2670025 25.6089916 93.5384307 20.5233794 93.8098589 20.4021956 93.8098589 20.4617605 93.3134005 20.4617605 92.6545491 20.2419865 91.9956977 19.8414637 91.6987506 18.717946 91.2463703 18.4776324 90.7475919 18.4119056 90.4761637 18.2722361 90.2720126 18.1715919 90.0446625 18.1325666 89.6131612 18.1921315 89.295335 18.2722361 89.135262 18.5577369 88.7756776 18.9582597 88.0240302 18.9171804 87.775801 18.6974064 87.3906977 18.6378415 87.0264736 18.6974064 86.3212242 18.8370759 85.7551688 18.9377201 85.1659144 18.8370759 84.4165869 18.5577369 83.6904584 18.5166577 83.3030353 18.5762226 82.6697028 18.5577369 82.3750756 18.4119056 82.0549295 18.0319224 81.7371033 17.8511737 81.5097531 17.7299899 81.1710479 17.7710691 80.8972997 17.890199 80.7395466 17.9518179 80.5794736 17.8306341 80.3544433 17.7505295 80.1943703 17.7094503 80.0806952 17.6498853 79.9902191 17.5492411 79.9229421 17.5492411 79.73967 17.670425 79.5355189 17.9312782 78.6748363 17.7916088 78.2642141 17.7094503 77.2898564 17.5903204 76.8351562 18.0709477 76.5614081 17.7916088 76.3340579 16.8488398 76.0394307 16.5469073 75.6775264 16.5263676 75.1787481 16.6475514 73.8842443 16.8673255 73.7473703 17.2883879 73.1813149 17.5697808 72.5688615 17.3684924 72.3206322 17.0090489 72.2742343 16.062172 71.9540882 15.7212142 71.7522569 16.1422766 69.8244207 16.1422766 69.4810756 16.3065936 68.2329698 16.1628162 67.9383426 16.0210927 67.8710655 15.840344 67.8942645 14.9982192 67.7109924 14.7188803 67.5300403 14.5771568 67.191335 14.6182361 66.8943879 14.6983406 66.5069647 14.7989848 66.1450605 14.897575 66.0105063 14.9181147 65.9177103 14.7579056 65.7135592 14.4970523 65.5094081 14.236199 65.442131 14.0554503 65.5094081 13.6508196 65.8272343 13.4105059 65.8504332 12.9483642 65.5094081 12.909339 64.8992746 13.0099831 64.2845013 13.0099831 64.036272 12.7080506 63.806602 12.5478415 63.2846247 12.4677369 62.6048942 12.4266577 61.3312695 12.4882766 61.1062393 12.6074064 60.8556902 12.8086948 60.5401839 12.8682597 60.3801108 12.8292344 60.2223577 12.7881551 59.8140554 12.8682597 59.2456801 13.0284688 58.7005038 13.0880337 58.1112494 12.8682597 57.4315189 11.6009646 56.0674181 11.52086 55.8887859 11.1593626 55.1162594 11.079258 54.8448312 11.079258 54.503806 11.2805464 53.8890327 11.3401113 53.6152846 11.0587184 52.4158967 10.2966981 51.7779244 9.43403373 51.2559471 8.82811467 50.4161436 8.72747049 49.7364131 8.70898482 49.1239597 8.66790556 48.5555844 8.42759191 48.056806 8.04555481 47.6925819 7.34515346 47.2170025 7.03911298 46.7623023 6.81933895 46.0361738 6.87890388 45.4909975 7.03911298 44.9713401 7.11921754 44.4052846 7.05965261 43.7000353 6.9384688 43.198937 6.69815514 42.8138338 6.39827656 42.5656045 6.3571973 42.0900252 5.65474199 41.1806247 5.71636088 39.9093199 5.95667454 38.5916171 5.63625632 37.3667103 5.27475885 37.0720831 4.78796965 36.9120101 3.88627993 36.7774559 3.84520067 35.7103023 3.7055312 35.3460781 3.58640135 35.278801 3.48575717 35.118728 3.46521754 34.9377758 3.46521754 34.6895466 3.44467791 34.5085945 3.38511298 34.3485214 3.24544351 34.0747733 3.16533895 33.9402191 3.08318044 33.8497431 2.96405059 33.7801461 2.61898482 33.5551159 2.57790556 33.4623199 2.57790556 33.3927229 2.63952445 33.2813678 2.65801012 33.2349698 2.88394604 33.0308186 2.94351096 32.8962645 2.92297133 32.7593904 2.84286678 32.6457154 2.68265767 32.4415642 2.49780101 32.2606121 1.39482293 31.4208086 1.2140742 31.2398564 1.03332546 31.0101864 0.692367622 30.46733 0.573237774 30.1727028 0.532158516 29.9221537 0.573237774 29.5161713 0.653342327 29.2215441 0.813551433 28.7877229 1.11343002 28.2866247 1.15450927 28.1520705 1.2140742 27.9919975 1.23461383 27.8342443 1.29417875 27.6764912 1.35579764 27.5396171 1.43590219 27.4259421 1.49546712 27.335466 1.57557167 27.289068 1.87545025 27.1313149 1.95760877 27.0640378 2.01717369 26.9503627 2.03771332 26.7902897 2.03771332 26.4051864 2.07673862 26.2242343 2.11781788 26.0873602 2.19792243 25.9736851 2.27802698 25.9040882 2.31705228 25.746335 2.35813153 25.5189849 2.37867116 24.7023804 2.39715683 24.4982292 2.41769646 24.4309521 2.78330185 23.9530529 2.84286678 23.7721008 2.92297133 23.4078766 2.88394604 22.8418212 2.86340641 22.7281461 2.88394604 22.660869 2.88394604 22.614471 2.96405059 22.4567179 3.08318044 22.0484156 3.1242597 21.8442645 3.10372007 21.7050705 3.06469477 21.6169144 3.00307589 21.5009194 2.90448567 21.3431662 2.90448567 21.1854131 2.94351096 21.0253401 3.58640135 20.2992116 3.6665059 20.1391385 3.74661046 19.9141083 3.92735919 18.7100806 3.92735919 18.4618514 3.88627993 18.2785793 3.82671501 18.0512292 3.74661046 17.756602 3.54532209 16.466738 3.46521754 16.1465919 3.40565261 16.007398 3.32554806 15.8960428 3.20436425 15.8287657 3.08318044 15.8287657 2.88394604 15.8519647 2.72373693 15.8519647 2.27802698 15.7823678 1.95760877 15.8287657 1.77686003 15.8055668 1.63513659 15.7591688 1.49546712 15.6014156 1.45644182 15.4413426 1.47492749 15.2835894 1.53449241 15.1467154 1.71524115 14.9193652 1.77686003 14.8080101 1.73578078 14.694335 1.63513659 14.5806599 1.47492749 14.4669849 1.29417875 14.1491587 1.27569309 13.9473275 1.33525801 13.8081335 1.45644182 13.7617355 1.7563204 13.8081335 1.89598988 13.7617355 1.99663406 13.6944584 2.07673862 13.5807834 2.11781788 13.4671083 2.1773828 12.7409798 2.1383575 11.1982469 2.07673862 10.8804207 1.99663406 10.7690655 1.63513659 10.3584433 1.47492749 10.1078942 1.09494435 9.67871285 0.994300169 9.5186398 0.893655987 9.22401259 0.873116358 8.99666247 0.873116358 8.72523426 0.914195616 8.38188917 0.893655987 8.17773804 0.834091062 7.9735869 0.772472175 7.81583375 0.712907251 7.63488161 0.793011804 7.54440554 3.64596627 7.40753149 10.196054 7.15930227 16.7481956 6.88787406 23.2982833 6.59092695 29.8689106 6.29861965 36.4169444 5.95295466 42.967032 5.59105038 49.5191737 5.2059471 56.0692614 4.82084383 62.621403 4.39166247 69.1714907 3.93464232 75.7236324 3.48226196 82.2531804 2.98116373 88.8053221 2.48238539 95.3554098 1.93952897 101.887012 1.39435264 108.437099 0.802778338 108.437099 1.2365995 108.478179 1.59618388 108.558283 1.93952897 108.679467 2.25503526 108.999885 2.84428967 109.119015 3.11803778 109.201174 3.43354408 109.361383 4.25478841 109.540078 4.54941562 109.782445 4.73036776 111.571447 5.34282116 112.113693 5.97615365 112.232823 7.08970529 111.912405 8.01998489 110.969636 9.72279093 110.809427 10.7899446 111.07028 12.8778539 111.290054 13.8754106 111.370159 14.9657632 111.429723 15.3067884 111.550907 15.6454937 111.672091 17.0095945 111.8323 17.6661259 112.093153 18.1417053 112.71345 18.8701537 112.959926 19.276136 113.120135 19.8004332 113.259804 21.0694181 113.380988 21.6169144 114.161494 23.0436524 114.442887 23.4078766 114.944054 23.7489018 115.851906 24.0922469 119.386776 24.5214282 120.331599 24.8160554 120.81428 24.8392544 121.315447 24.9738086 121.656405 25.3821108 122.14114 26.5629395 122.342428 26.9062846 122.9237 27.6973703 123.124988 28.1288715 123.104449 28.4675768"></polygon>
            </g>
        </g>
    </g>
</svg>