<?xml version="1.0" encoding="UTF-8"?>
<svg width="162px" height="111px" viewBox="0 0 162 111" version="1.1" xmlns="http://www.w3.org/2000/svg" xmlns:xlink="http://www.w3.org/1999/xlink">
    <!-- Generator: Sketch 51 (57462) - http://www.bohemiancoding.com/sketch -->
    <title>Hawaii</title>
    <desc>Created with Sketch.</desc>
    <defs></defs>
    <g id="Page-1" stroke="none" stroke-width="1" fill="none" fill-rule="evenodd">
        <g id="A5" transform="translate(-507.000000, -846.000000)" fill="#D6D6D6">
            <g id="Hawaii" transform="translate(507.000000, 846.000000)">
                <path d="M126.001214,50.717665 L126.375035,49.4718791 L125.931379,48.2980101 L124.230698,47.2726146 L123.807582,47.1148615 L122.47456,46.9083904 L122.207545,46.5743249 L122.037066,45.8737154 L121.850155,45.53733 L120.796472,45.3401385 L120.13715,45.1336675 L119.843433,44.7346448 L119.670901,44.3797003 L119.260108,43.8994811 L118.785642,43.5770151 L118.407713,43.7092494 L118.335825,43.5723753 L118.247504,43.5050982 L118.148914,43.4749395 L118.023622,43.4563804 L117.627207,43.2847078 L117.142472,43.1988715 L116.637197,43.1942317 L116.185325,43.2522292 L115.717022,43.4331814 L114.766037,44.1616297 L114.437403,44.2451461 L113.574739,44.2915441 L113.131083,44.3704207 L112.660725,44.6047305 L112.28485,44.846 L111.929514,44.9132771 L111.51256,44.6209698 L110.666327,42.4797028 L110.450661,42.0876398 L110.206239,41.7558942 L109.037535,40.5054685 L108.659605,40.2595592 L108.203626,39.8628564 L107.959204,39.802539 L107.852398,40.1458841 L107.751754,40.3221965 L107.517602,40.3732343 L107.250587,40.3384358 L107.043137,40.2595592 L107.002057,40.493869 L106.874712,40.9114509 L106.85828,41.1735995 L106.714503,41.1063224 L106.357113,41.0135264 L106.213336,40.9439295 L106.08599,41.7280554 L105.001497,44.1616297 L106.97741,47.1844584 L107.154051,47.3630907 L107.379987,47.4164484 L108.080388,47.7365945 L108.612364,48.1124181 L109.468867,48.506801 L109.852958,48.5439194 L110.124081,48.4696826 L110.37261,48.3629673 L110.682759,48.2980101 L111.4037,48.2724912 L111.75082,48.3606474 L111.896651,48.6204761 L111.999349,49.3512443 L112.102047,49.7224282 L112.221177,49.8778615 L112.496408,50.14233 L112.660725,50.7803023 L112.742884,53.5989798 L113.079734,54.724131 L113.847916,55.3737028 L115.154236,55.3806625 L115.71086,55.0790756 L116.039494,54.9561209 L116.185325,55.0396373 L116.337319,55.2275491 L116.670061,55.2484282 L117.781255,54.9862796 L119.436749,53.7822519 L120.011858,53.6453778 L120.549997,53.7451335 L121.110728,53.9191259 L121.757727,54.009602 L122.306135,53.8425693 L124.314911,52.6385416 L125.189899,51.8381763 L126.001214,50.717665 L126.001214,50.717665 Z M109.544863,55.1741914 L109.084776,54.6962922 L108.505558,54.7728489 L107.94688,55.1277935 L107.043137,55.8400025 L105.944266,56.3109421 L105.514988,56.6496474 L105.219218,57.2087431 L106.139393,57.8629547 L106.533754,57.9371914 L107.244425,57.5358489 L107.548411,57.4616121 L108.830084,57.5056902 L109.509946,57.3780957 L109.875551,56.9813929 L109.489406,56.6774861 L109.544863,55.1741914 L109.544863,55.1741914 Z M159.445892,88.8892872 L157.91569,88.0100453 L156.724391,86.6877028 L156.529265,86.2376423 L156.288951,84.5394761 L156.145174,83.9734207 L155.791892,83.6764736 L155.064789,83.5952771 L153.879653,83.8133476 L153.548965,83.6555945 L153.33946,82.9317859 L153.33946,80.282461 L153.234708,79.5400932 L152.973855,78.9531587 L150.470074,75.9465693 L149.473902,75.099806 L145.604236,72.9794181 L142.381568,71.5642796 L141.064978,71.3044509 L139.966108,70.5620831 L139.323218,70.2999345 L139.015123,70.381131 L138.721406,70.5945617 L138.394826,70.6919975 L138.008681,70.4205693 L137.63486,70.0331461 L137.419194,69.8800327 L136.850246,69.7014005 L136.067686,68.9288741 L134.301278,68.170267 L134.114368,67.9800353 L134.044533,67.6714887 L134.009616,67.3443829 L133.906917,67.0938338 L133.746708,66.9291209 L132.914853,66.7504887 L131.212118,65.9385239 L130.250863,65.7622116 L129.525815,66.650733 L129.082159,67.9336373 L128.967137,68.9288741 L129.240314,70.2001788 L129.739427,71.2974912 L131.212118,73.2902846 L131.310708,73.4248388 L131.624965,74.0836902 L131.612641,74.663665 L131.339464,75.099806 L130.402857,75.9187305 L130.19746,76.1460806 L129.069835,77.9880806 L128.776118,78.3662242 L128.176361,79.4820957 L126.933713,79.9669547 L126.514705,80.3334987 L126.354496,80.9668312 L126.081319,81.2962569 L125.467184,81.7486373 L124.834563,82.3494912 L124.495659,83.1382569 L124.655868,84.5533955 L125.261788,85.6205491 L126.044347,86.5949068 L126.740641,87.7293375 L127.001494,88.409068 L127.190459,89.1027179 L127.305481,89.835806 L127.350668,90.6176121 L127.395855,90.9238388 L127.753245,92.0907481 L127.862105,92.116267 L128.258519,92.0652292 L128.361218,92.0907481 L128.379703,92.2531411 L128.340678,92.6173652 L128.361218,92.7774383 L129.053403,95.5125995 L129.458034,96.2712065 L129.57511,96.6841486 L129.562786,96.9578967 L128.800766,102.291345 L128.77201,105.084504 L128.924003,105.794393 L129.279339,106.09366 L129.630567,106.276932 L129.768182,106.689874 L129.842125,107.153854 L129.996172,107.46472 L130.246755,107.531997 L131.212118,107.46472 L132.32742,107.782547 L133.533096,108.350922 L134.588833,109.049212 L135.256371,109.752141 L135.7637,110.710259 L135.782185,110.893531 L136.143683,110.752018 L136.683875,110.121005 L136.996078,109.979491 L137.408924,109.694144 L138.713191,107.692071 L139.156847,105.794393 L139.432078,105.272416 L140.715804,103.952393 L141.163568,103.78768 L142.673231,102.87596 L143.092239,102.530295 L143.804965,101.739209 L144.228081,101.407463 L144.712816,101.275229 L145.080476,101.124436 L146.035568,100.11064 L146.754455,99.5329849 L147.115953,99.368272 L147.654091,99.2197985 L149.989447,99.3288338 L150.507046,99.0342065 L152.528145,98.5331083 L153.553073,97.9160151 L154.130236,97.6863451 L154.873771,97.5981889 L155.376992,97.4381159 L158.01428,94.8769471 L158.229946,94.5011234 L160.659784,93.0279874 L161.035659,92.5013703 L161.360185,91.8193199 L161.586121,91.079272 L161.670334,90.3763426 L159.445892,88.8892872 L159.445892,88.8892872 Z M104.66054,36.1278186 L103.787605,35.8981486 L103.196064,35.8842292 L103.181686,35.8981486 L102.943427,35.819272 L102.77911,35.7125567 L102.618901,35.6313602 L102.388857,35.6452796 L102.222486,35.751995 L101.89796,36.0582217 L101.66997,36.1231788 L99.6283305,36.1231788 L99.0244654,36.0257431 L98.6342125,35.7682343 L97.9194334,34.9609093 L97.3648634,34.4783703 L97.3032445,34.5943652 L97.3443238,35.014267 L97.0916863,35.4388086 L96.6541922,35.5014458 L95.6210489,35.0792242 L95.1589073,34.9609093 L91.2070826,34.7544383 L90.8599629,34.4830101 L90.5251669,34.1095063 L90.2026948,33.8566373 L89.8904924,33.954073 L89.5988297,34.1118262 L89.2517099,34.0955869 L88.9456695,33.9842317 L88.7587589,33.840398 L88.7135717,34.4806902 L88.7936762,34.9609093 L88.7094637,35.452728 L88.1713255,36.1231788 L87.8919865,36.396927 L87.5674604,36.8029093 L87.3333086,37.3248866 L87.3456324,37.9535793 L87.6783744,38.445398 L88.2596459,38.6959471 L88.9107521,38.6588287 L89.4776459,38.3085239 L89.9644351,38.1298917 L91.8130017,38.2041285 L94.343484,37.9535793 L95.0110219,38.0602947 L97.88657,39.343199 L99.0573288,39.7097431 L100.21371,39.8326977 L101.359821,39.5751889 L102.473069,39.0787305 L103.590425,38.4245189 L104.504438,37.478 L105.001497,36.1231788 L104.66054,36.1278186 L104.66054,36.1278186 Z M28.1524755,3.0924534 L27.963511,2.97181864 L27.8012479,2.67255164 L27.682118,2.29208816 L27.6389848,1.92786398 L27.4561821,1.46388413 L27.0433356,1.01846348 L26.5483305,0.689037783 L25.802742,0.438488665 L25.4884857,0.206498741 L25.1844992,0.0696246851 L24.8969444,0.227377834 L24.6874401,0.373531486 L24.3772917,0.466327456 L22.0686374,0.830551637 L21.8447555,0.921027708 L21.4421788,0.580002519 L20.9697673,0.329453401 L20.5055717,0.285375315 L20.1132648,0.556803526 L19.5771804,0.749355164 L17.938118,1.64251637 L15.6438415,3.24324685 L15.5719528,3.34068262 L15.3727184,3.43811839 L15.3234233,3.67242821 L15.3234233,3.96473552 L15.2576965,4.23384383 L14.0684519,5.82297481 L13.731602,6.08512343 L13.5200438,6.42846851 L13.7952749,7.16619647 L14.2163373,7.84824685 L14.4320034,8.02455919 L14.5778347,8.59293451 L14.949602,8.82260453 L15.4425531,8.99427708 L15.9580978,9.39793955 L16.4551568,9.548733 L17.1699359,9.50233501 L17.8128263,9.57657179 L18.2646981,10.4604534 L19.0677976,11.2492191 L19.3060573,11.5693652 L19.5073457,11.5693652 L20.1933693,11.3420151 L21.5695245,11.4208917 L22.9395177,11.8083149 L23.5926779,12.5019647 L25.2091467,11.3420151 L26.8482091,9.75984383 L26.7126476,9.40257935 L26.7393491,9.20074811 L26.9242057,9.16362972 L27.2528398,9.28426448 L27.2836492,8.66021159 L27.2548938,8.0152796 L27.1665734,7.42834509 L27.0310118,6.97828463 L28.0929106,5.00869018 L28.4133288,3.61211083 L28.4071669,3.24788665 L28.1524755,3.0924534 L28.1524755,3.0924534 Z M4.764,7.59537783 L4.43125801,7.74617128 L4.07797639,8.14055416 L3.42892411,9.09171285 L3.10234401,9.46289673 L2.67922766,9.75984383 L2.60528499,10.1519068 L1.69332546,10.4047758 L0.637588533,12.0263854 L0.257605396,12.9520252 L0.0973962901,13.9078237 L0.308954469,14.6641108 L1.04427319,15.0167355 L1.35852951,15.0190554 L1.61527487,14.9332191 L1.78780776,14.6849899 L1.93774705,13.6851134 L2.14930523,13.2188136 L3.14958516,11.9173501 L3.42687015,11.8361537 L3.9834941,11.8199144 L4.37169309,11.7247985 L4.95501855,11.2793778 L5.30830017,11.1332242 L5.09468803,10.2261436 L5.19944013,9.37242065 L5.55888364,8.65093199 L6.10112985,8.14055416 L5.71498482,7.6858539 L4.764,7.59537783 L4.764,7.59537783 Z M75.5702631,29.7063375 L75.4326476,29.0706851 L75.4470253,28.4721511 L75.3463811,28.0313703 L74.8636998,27.8573778 L74.4015582,27.57667 L74.4898786,26.9711763 L74.7897572,26.379602 L74.9622901,26.1545718 L73.5286239,26.1545718 L73.1239933,26.2775264 L73.9332546,26.9410176 L73.4177099,27.163728 L73.0767521,27.2147657 L72.9227049,27.0570126 L72.7953592,27.0732519 L72.1134435,26.2775264 L71.7190826,25.9086625 L71.421258,25.4748413 L70.8995514,24.2012166 L71.0987858,24.1733778 L71.19943,24.2244156 L71.3206138,24.4262469 L71.3267757,23.7813149 L71.2795346,23.2755768 L71.0946779,22.8904736 L70.3470354,22.3313778 L69.8088971,21.5379723 L69.3570253,20.6424912 L69.2810287,20.0648363 L68.9770422,19.4315038 L68.6258145,18.9072065 L68.1944823,18.505864 L67.6440202,18.2344358 L67.5762395,18.113801 L67.4981889,18.0256448 L67.4447858,17.9282091 L67.4406779,17.7588564 L65.6701619,18.7448136 L65.2162361,19.1531159 L64.9368971,19.7818086 L64.725339,20.1529924 L64.4891332,20.3153854 L64.2631973,20.4151411 L63.3758853,21.0020756 L63.2341619,21.3106222 L63.230054,21.6006096 L63.1211939,21.8094005 L62.6693221,21.8952368 L62.344796,21.8604383 L61.7758482,21.7166045 L60.1347319,21.6284484 L59.4671939,21.6841259 L58.9249477,21.8952368 L58.6415008,22.4775315 L59.7239393,23.4913275 L59.6335649,24.0968212 L59.3973592,24.7742317 L59.7054536,25.4423627 L60.2066206,25.9805793 L60.5434705,26.2775264 L60.8762125,26.7229471 L61.4451602,27.8620176 L61.8497909,28.4373526 L62.0921585,28.6391839 L62.5584081,28.843335 L62.7699663,29.0219673 L62.8911501,29.2307582 L63.4847454,31.5344181 L63.6511164,31.6016952 L63.7866779,31.7316096 L63.9201855,31.7896071 L64.2056863,31.559937 L64.5630759,31.3627456 L65.9741484,31.1214761 L66.6170388,31.0936373 L67.2578752,31.3256272 L67.3400337,30.316471 L66.9621046,29.8316121 L66.3685093,29.5137859 L65.8242091,29.0219673 L66.4054806,29.0196474 L67.0997201,29.2632368 L67.4591636,29.2098791 L67.0360472,28.3120781 L67.4879191,28.6299043 L67.6440202,28.7899773 L67.876118,28.6043854 L68.1246476,28.5881461 L68.3423676,28.7273401 L68.4697133,29.0219673 L68.4245261,29.4534685 L68.155457,29.6089018 L67.8370927,29.7016977 L67.6440202,29.9545668 L67.7960135,30.6644559 L68.3916627,30.8454081 L69.0653626,30.6273375 L69.4638314,30.1633577 L70.1026138,30.5299018 L70.371683,30.7502922 L70.6777234,31.077398 L70.5421619,31.4184232 L70.8235548,31.7060907 L71.7088128,32.2211083 L72.1237133,32.6456499 L72.3208938,32.6920479 L72.8220607,32.6966877 L73.5039764,32.4902166 L74.2824283,32.1515113 L74.964344,32.0842343 L75.3669207,32.6966877 L75.8208465,32.2605466 L77.3921282,31.077398 L76.9505261,30.6273375 L75.5702631,29.7063375 L75.5702631,29.7063375 Z M101.027079,45.8690756 L100.846331,45.743801 L100.449916,45.4816524 L98.9299831,43.9365995 L95.4998651,44.1801889 L94.6351467,44.7184055 L95.2492816,45.743801 L96.2865329,46.388733 L96.5823035,46.7622368 L96.6870556,47.4790856 L96.6952715,48.2655315 L96.77743,49.0171788 L97.0156897,49.657471 L97.496317,50.1052116 L98.7307487,50.3140025 L99.9959899,49.8871411 L101.07432,49.058937 L101.762398,48.0497809 L102.041737,47.4790856 L102.060223,47.1542997 L101.865096,46.7947154 L101.027079,45.8690756 L101.027079,45.8690756 Z" id="Fill-79"></path>
            </g>
        </g>
    </g>
</svg>