<?xml version="1.0" encoding="UTF-8"?>
<svg width="231px" height="145px" viewBox="0 0 231 145" version="1.1" xmlns="http://www.w3.org/2000/svg" xmlns:xlink="http://www.w3.org/1999/xlink">
    <!-- Generator: Sketch 51 (57462) - http://www.bohemiancoding.com/sketch -->
    <title>Montana</title>
    <desc>Created with Sketch.</desc>
    <defs></defs>
    <g id="Page-1" stroke="none" stroke-width="1" fill="none" fill-rule="evenodd">
        <g id="A5" transform="translate(-292.000000, -66.000000)">
            <g id="Montana" transform="translate(292.000000, 66.000000)">
                <polygon id="Fill-49" fill="#D6D6D6" points="227.542358 112.69029 227.441713 115.889431 227.361609 119.090892 227.263019 122.290033 227.100755 128.690635 227.002165 131.892096 226.922061 135.112116 226.821417 138.313577 226.778283 140.130058 226.757744 140.515161 226.114853 140.468763 223.966408 140.378287 221.815909 140.287811 219.66541 140.197335 217.514911 140.106859 215.345926 139.993184 213.195427 139.902708 211.044927 139.789033 208.896482 139.675358 206.745983 139.584882 204.595484 139.473526 202.426499 139.359851 200.276 139.243856 198.125501 139.106982 195.975002 138.993307 193.824503 138.881952 191.674003 138.747398 189.505019 138.605884 187.354519 138.494529 185.20402 138.357655 183.053521 138.223101 180.903022 138.088547 178.752523 137.949353 176.583538 137.791599 174.453578 137.654725 172.305133 137.496972 170.134094 137.360098 167.983595 137.202345 165.833096 137.044592 163.682597 136.884519 161.534152 136.724446 159.385707 136.564373 157.235207 136.40662 155.084708 136.251186 152.934209 136.065594 150.78371 135.905521 148.633211 135.724569 146.482712 135.545937 144.334266 135.385864 142.183767 135.204912 140.033268 135.02396 137.882769 134.819809 135.73227 134.638856 133.581771 134.455584 131.431272 134.253753 129.280772 134.068161 127.132327 133.86401 124.981828 133.662179 122.833383 133.455708 120.682884 133.251557 118.532384 133.049725 116.381885 132.843254 114.251926 132.615904 112.103481 132.414073 109.952981 132.186723 107.802482 131.982572 105.651983 131.755222 103.503538 131.527872 101.353039 131.300521 99.2230793 131.075491 97.0725801 130.845821 94.9220809 130.620791 92.7715818 130.370242 90.6210826 130.142892 88.4911231 129.892343 87.4887892 129.780987 87.4477099 130.256567 87.3676054 131.165967 87.2854469 132.049849 87.2053423 132.956929 87.1252378 133.843131 87.0451332 134.750212 86.9650287 135.636413 86.8849241 136.543494 86.8048196 137.429695 86.722661 138.334456 86.5624519 140.106859 86.4823474 141.01162 86.4022428 141.900141 86.2399798 143.716622 86.1598752 144.600504 85.3177504 144.23628 85.0158179 143.941652 84.512597 143.127368 84.231204 142.445317 83.9908904 142.083413 83.789602 141.879262 83.5082091 141.672791 83.3685396 141.535917 83.2678954 141.401363 83.2288702 141.266809 83.1877909 141.125295 83.1672513 140.967542 83.1672513 140.607957 83.1877909 140.401486 83.2083305 140.220534 83.1467116 139.993184 83.0481214 139.85863 82.906398 139.721756 82.7235953 139.608081 82.6434907 139.473526 82.5243609 139.083783 81.8403912 137.633846 81.6986678 137.08867 81.519973 136.907718 80.8360034 136.383421 80.5936358 136.292945 80.4334266 136.272065 80.3327825 136.362542 80.0719292 136.747645 79.9507454 136.86364 79.7905363 136.907718 79.2277504 136.907718 79.0880809 136.951796 78.8272277 137.08867 78.6259393 137.269622 78.5458347 137.406496 78.5068094 137.54105 78.5458347 137.677924 78.586914 137.814798 78.6670185 137.926154 78.7265835 138.065348 78.7471231 138.202222 78.7676627 138.380854 78.7471231 138.538607 78.6875582 138.724199 78.6074536 138.835554 78.4862698 138.902831 77.9419696 139.062904 77.8433794 139.15338 77.7817605 139.267055 77.7201417 139.584882 77.6790624 139.721756 77.5003676 140.039582 77.4387487 140.197335 77.3997234 140.378287 77.3997234 140.698433 77.4387487 141.01162 77.4592884 141.150814 77.5003676 141.220411 77.5393929 141.310887 77.6194975 141.422242 77.7406813 141.491839 78.1822833 141.716869 78.2829275 141.832864 78.3240067 141.946539 78.3240067 142.083413 78.1822833 142.15069 77.9830489 142.194768 77.6400371 142.194768 77.4592884 142.15069 77.3381046 142.104292 77.1183305 141.879262 76.537059 141.491839 76.2967454 141.401363 74.1462462 141.125295 73.8422597 141.150814 72.8974368 141.672791 72.7577673 141.740068 72.4168094 141.784146 72.0162867 141.763267 71.8355379 141.809665 71.4124216 141.969738 71.2316728 141.946539 71.0899494 141.879262 70.9893052 141.784146 70.9276863 141.649592 70.888661 141.512718 70.7469376 141.266809 70.6278078 141.125295 70.447059 140.967542 70.1061012 140.786589 69.2824621 140.652035 69.1017133 140.675234 68.9394503 140.698433 68.84086 140.786589 68.678597 140.853866 68.4773086 140.900264 68.0952715 140.923463 67.7748533 140.830668 65.8461821 140.967542 65.6654334 140.923463 65.2032917 140.652035 64.6610455 140.424685 64.2995481 140.355088 63.8353524 140.31101 63.6155784 140.264612 63.473855 140.174136 63.2130017 139.902708 62.9316088 139.721756 62.75086 139.698557 62.6111906 139.744955 62.4304418 139.925907 62.3297976 139.993184 62.1695885 140.039582 61.645828 140.106859 61.3254098 140.220534 61.0830422 140.331889 60.9639123 140.401486 60.8838078 140.515161 60.8016492 140.652035 60.5818752 141.334086 60.1382192 142.264365 60.0190894 142.398919 59.8383406 142.512594 59.5158685 142.579872 59.2960944 142.579872 59.1132917 142.512594 59.0147015 142.398919 58.932543 142.285244 58.8134132 142.15069 58.653204 141.990617 58.2896526 141.832864 57.9877201 141.784146 57.4454739 141.809665 57.326344 141.763267 57.1661349 141.559116 57.0654907 141.46864 56.9443069 141.378164 54.5534941 140.719312 53.8900641 140.445564 53.6887757 140.424685 53.5285666 140.445564 53.1465295 140.652035 53.0253457 140.698433 52.4420202 140.76339 52.3228904 140.830668 51.0555953 141.92334 50.9570051 142.037015 50.8769005 142.15069 50.796796 142.285244 50.7351771 142.422118 50.7146374 142.603071 50.7557167 142.739945 51.0371096 143.419675 50.9960304 143.577428 50.8953862 143.739821 50.5544283 143.876695 50.3736796 143.830297 50.2730354 143.739821 49.8704587 142.964975 49.7903541 142.85362 49.6897099 142.760824 48.8270455 142.331642 48.7058617 142.217967 48.6052175 142.104292 48.3443642 141.603194 48.2437201 141.445441 48.083511 141.310887 47.7610388 141.125295 47.6008297 140.990741 47.5412648 140.809788 47.5597504 140.468763 47.5412648 140.331889 47.3995413 139.925907 47.3790017 139.789033 47.3995413 139.721756 47.5001855 139.450327 47.7404992 139.016506 47.7815784 138.858753 47.7404992 138.701 47.6213693 138.515408 47.3194368 138.313577 47.1777133 138.155824 47.0791231 137.995751 47.1181484 137.654725 47.0976088 137.496972 47.0585835 137.360098 46.5964418 136.657169 46.5348229 136.520295 46.5348229 136.383421 46.5553626 136.227987 46.6354671 136.114312 46.7361113 136.019196 46.9579393 135.861443 47.0585835 135.747768 47.138688 135.636413 47.1571737 135.47634 47.1571737 135.316267 47.138688 135.181713 47.0380438 134.910285 46.8572951 134.501982 46.8162159 134.365108 46.7155717 133.910408 46.6765464 133.773534 46.6149275 133.6413 46.475258 133.386111 46.4156931 133.251557 46.3746138 133.117003 46.3540742 132.956929 46.3355885 132.799176 46.3150489 132.662302 46.2739696 132.525428 46.2144047 132.390874 45.9720371 132.049849 45.8919325 131.915295 45.6701046 131.390997 45.6105396 131.254123 45.2901214 130.799423 44.8670051 130.323844 44.3843238 129.96194 43.9427218 129.780987 43.6017639 129.71139 43.4600405 129.757788 43.320371 129.804186 43.2197268 129.871463 42.7781248 130.210169 42.6179157 130.279766 42.4166273 130.323844 42.0551298 130.300645 41.8743811 130.233368 41.7737369 130.096494 41.7737369 129.600035 41.7531973 129.439962 41.6114739 129.25901 41.3506206 129.03166 40.4859022 128.440086 40.2661282 128.212736 40.1264587 127.943627 40.0237605 127.669879 39.8450658 126.762798 39.7629073 126.48905 39.6437774 126.238501 39.4815143 125.987952 39.4219494 125.851078 39.4014098 125.716524 39.442489 125.57965 39.5431332 125.491494 39.6437774 125.424217 40.0443002 125.285023 40.1469983 125.194547 40.2455885 125.080872 40.3256931 124.946317 40.387312 124.786244 40.5865464 124.083315 40.6276256 123.923242 40.6276256 123.879164 40.5865464 123.401264 40.5680607 123.241191 40.3462327 122.380509 40.2661282 122.085882 39.7444216 121.044247 39.7033423 120.902733 39.6437774 120.359877 39.5225936 120.132526 39.3808702 120.021171 38.7379798 119.951574 38.5777707 119.861098 38.4771265 119.749743 38.4586408 119.58967 38.4976661 119.227766 38.4771265 119.070013 38.4175616 118.954018 38.2758381 118.682589 38.2573524 118.548035 38.2368128 118.385642 38.2368128 118.20469 38.1957336 117.912383 38.1567083 117.74999 38.0560641 117.501761 37.8136965 117.116657 37.5343575 116.798831 37.1913457 116.253655 36.8914671 115.91263 36.8093086 115.752557 36.7908229 115.594804 36.8093086 115.276977 36.7908229 115.096025 36.729204 114.935952 36.5874806 114.755 36.1869578 114.346698 36.0863137 114.188945 36.0267487 114.052071 35.9856695 113.915196 36.0062091 113.574171 36.0267487 113.393219 36.1068533 113.052194 36.2280371 112.326065 36.2670624 111.964161 36.2074975 111.76001 36.0863137 111.555859 35.5830927 110.987484 35.5235278 110.760134 35.5235278 110.419108 35.5029882 110.282234 35.4824486 110.124481 35.5029882 109.966728 35.5440675 109.785776 35.6036324 109.625703 35.7658954 109.354275 35.8254604 109.196521 35.846 109.036448 35.846 108.53535 35.8644857 108.354398 35.8850253 108.333519 35.846 108.103849 35.6652513 107.876499 35.0819258 107.514594 34.9402024 107.333642 34.8806374 107.15269 34.9217167 106.971738 35.0018212 106.607514 35.1414907 106.289688 35.2031096 106.152814 35.3838583 105.925463 35.4639629 105.790909 35.5029882 105.630836 35.4824486 105.470763 35.4228836 105.289811 35.2626745 105.062461 35.1414907 104.904708 34.9812816 104.814232 34.017973 104.292254 33.796145 104.111302 33.6749612 103.93035 33.6955008 103.610204 33.6749612 103.452451 33.6359359 103.320217 33.1717403 102.770401 32.5493895 102.137068 32.1878921 101.886519 31.9475784 101.751965 31.8263946 101.775164 31.7462901 101.842441 31.6867251 101.909718 31.6456459 102.046592 31.6251062 102.227544 31.6045666 102.385297 31.6251062 102.522171 31.6661855 102.728642 31.6661855 103.02095 31.6251062 103.132305 31.5655413 103.181023 31.4648971 103.225101 30.9431906 103.341096 30.8014671 103.385174 30.6823373 103.452451 30.5816931 103.542927 30.4789949 103.656602 30.3187858 103.93035 30.2592209 104.090423 30.1791164 104.224977 30.0784722 104.361851 29.977828 104.429128 29.6163305 104.610081 29.4951467 104.700557 29.4150422 104.837431 29.3349376 104.971985 29.2753727 105.108859 29.1932142 105.199335 29.0740843 105.268932 28.2504452 105.517161 27.7677639 105.76771 27.6465801 105.814108 27.486371 105.814108 27.1659528 105.723632 27.0036897 105.723632 26.8825059 105.76771 26.7633761 105.837307 26.6627319 105.925463 26.5620877 106.039139 26.4819831 106.176013 26.2005902 106.767587 26.099946 106.902141 26.0794064 106.92534 25.9787622 106.994937 25.4981349 107.175889 25.3769511 107.243166 25.1962024 107.287244 24.9743744 107.310443 24.5717976 107.219967 24.3725632 107.106292 24.2308398 106.971738 24.1712749 106.858063 24.0911703 106.630713 23.4667656 106.152814 23.2860169 105.971861 23.1853727 105.790909 23.1648331 105.630836 23.1463474 105.447564 23.0662428 105.268932 22.4623777 104.656479 22.281629 104.566003 21.396371 104.224977 21.0163879 104.180899 20.7349949 104.090423 20.67543 103.976748 20.6939157 103.863073 20.954769 103.519728 21.0369275 103.385174 21.0759528 103.225101 21.0759528 103.041829 21.0163879 102.860877 20.9342293 102.589448 20.9157437 102.408496 20.954769 102.250743 21.0574671 102.157947 21.4970152 101.842441 21.7989477 101.591892 21.8605666 101.524615 21.8995919 101.434139 21.9591568 101.297264 22.0207757 101.137191 22.0413153 100.979438 22.0002361 100.661612 22.0207757 100.522418 22.1214199 100.25099 22.1214199 100.046839 22.0207757 99.8218086 21.5791737 99.2093552 21.4785295 99.028403 21.4579899 98.86833 21.396371 98.4600277 21.2772411 98.1654005 21.2567015 97.9357305 21.2977808 97.8011763 21.396371 97.7107003 21.618199 97.5274282 21.7393828 97.4369521 21.8995919 97.1655239 22.059801 96.9172947 22.3227083 96.5762695 22.4418381 96.3280403 22.503457 96.2607632 22.5835616 96.1656474 22.8053895 96.0310932 22.9245194 95.9846952 23.0662428 95.9638161 23.7481585 96.0310932 23.889882 96.0310932 24.0295514 95.9846952 24.1507352 95.9174181 24.6724418 95.483597 24.773086 95.3722418 24.8141653 95.1912897 24.8141653 94.9871385 24.4916931 94.216932 24.4321282 94.0568589 24.4115885 93.9223048 24.4115885 93.7622317 24.4526678 93.5789597 24.5717976 93.2634534 24.8141653 92.8737103 24.8737302 92.7159572 24.8737302 92.511806 24.8326509 92.3308539 24.6929815 92.2171788 24.1897605 91.9921486 23.7686981 91.6975214 23.608489 91.4933703 23.5674098 91.3100982 23.6290287 91.1523451 23.668054 90.969073 23.668054 90.7649219 23.5468702 90.4470957 23.5078449 90.2197456 23.5283845 90.0387935 23.5879494 89.8810403 23.668054 89.7441662 24.1301956 89.1781108 24.2103002 89.0412368 24.2698651 88.9066826 24.3109444 88.7257305 24.331484 88.5633375 24.2904047 88.4055844 24.2308398 88.2687103 23.5674098 87.2711537 23.4873052 87.0878816 23.4873052 86.9301285 23.5283845 86.7723753 23.5879494 86.6587003 23.6290287 86.6123023 23.7276189 86.5450252 23.8488027 86.4986272 24.5122327 86.5218262 24.6539562 86.4986272 24.773086 86.4313501 24.8737302 86.3408741 24.9558887 86.227199 24.994914 86.0694458 25.0154536 85.8861738 24.994914 85.5683476 25.0154536 85.0440504 25.0154536 84.8862972 24.994914 84.7285441 24.9148094 84.4107179 24.8531906 84.2065668 24.8141653 84.0256146 24.8141653 83.8678615 24.8737302 83.7286675 24.9353491 83.6173123 25.1345835 83.3899622 25.214688 83.2530882 25.2763069 83.095335 25.3358718 82.7519899 25.3769511 82.5942368 25.4570556 82.4573627 25.9191973 81.8913073 25.9993019 81.7776322 26.0609207 81.6198791 26.0794064 81.438927 26.099946 81.0770227 26.1410253 80.7104786 26.2396155 80.3717733 26.3607993 80.0516272 26.9235852 79.1004685 26.9831501 78.9195164 27.042715 78.7594433 27.0837943 78.5784912 27.0837943 78.3952191 27.0632546 78.237466 27.0036897 78.0773929 26.9441248 77.8964408 26.7038111 77.5090176 26.6421922 77.3744635 26.6421922 77.3071864 26.7038111 77.1703123 26.7839157 77.1030353 26.9030455 77.0566373 27.4658314 76.9220831 27.706145 76.7852091 27.8088432 76.694733 27.8889477 76.6042569 27.9485126 76.4465038 27.927973 76.3096297 27.9074334 76.1704358 27.8684081 76.0382015 27.8478685 75.8758086 27.8684081 75.7180554 27.927973 75.5811814 28.1087218 75.3561511 28.1682867 75.1937582 28.2093659 75.059204 28.2093659 74.8782519 28.1888263 74.7413778 28.2093659 74.5836247 28.2504452 74.4235516 28.3100101 74.2657985 28.4702192 73.9943703 28.5708634 73.6510252 28.650968 72.9272166 28.6324823 72.7462645 28.5708634 72.5397935 28.4702192 72.4029194 28.3305497 72.3124433 28.1682867 72.2683652 28.0080776 72.2451662 26.6627319 72.4261184 26.5415481 72.4493174 26.2005902 72.6534685 25.9397369 72.7694635 25.7980135 72.7903426 25.6378044 72.7903426 25.4981349 72.7462645 25.1962024 72.5629924 25.0750185 72.5165945 24.9353491 72.5165945 24.4732074 72.6302695 24.2308398 72.6766675 23.9104216 72.6534685 23.668054 72.5397935 23.4072007 72.3820403 22.9861383 71.9946171 22.8053895 71.7695869 22.6842057 71.5654358 22.6636661 71.4285617 22.6451804 71.2708086 22.6842057 71.1107355 22.7643103 70.9761814 23.0662428 70.6560353 23.1052681 70.4959622 23.1052681 70.270932 22.9655987 69.9739849 22.8649545 69.7930327 22.4212985 69.3406524 22.281629 69.2501763 22.1419595 69.2037783 21.8605666 69.2037783 21.7188432 69.2733753 21.3778853 69.4984055 20.895204 69.9971839 20.7555346 70.0667809 20.5932715 70.0667809 20.4125228 69.9971839 20.3324182 69.8626297 20.291339 69.7257557 20.3118786 69.5680025 20.5337066 68.888272 20.5542462 68.705 20.5747858 68.5008489 20.5131669 68.2734987 20.4330624 68.1366247 20.3118786 68.0252695 19.7696324 67.7747204 19.4882395 67.5914484 19.3074907 67.3640982 19.0671771 66.978995 18.8864283 66.7539647 18.3441821 66.2551864 18.183973 66.0719144 18.0812749 65.9141612 17.962145 65.4803401 17.9210658 65.1648338 17.9005261 64.8470076 17.9210658 64.3482292 17.962145 64.1649572 18.0011703 63.984005 18.0812749 63.8262519 18.1223541 63.6893778 18.1223541 63.5293048 18.0217099 63.3970705 17.5801079 63.0073275 17.4383845 62.8472544 17.3192546 62.6918212 16.8755987 61.8496977 16.7749545 61.6919446 16.6558246 61.5782695 16.2943272 61.4205164 16.0334739 61.2627632 15.8917504 61.1258892 15.8116459 60.9866952 15.7911062 60.9194181 15.7911062 60.854461 15.7520809 60.3278438 15.7315413 60.1724106 14.2650118 57.9221083 14.0637234 57.1982997 13.6406071 56.3352972 13.4598583 56.087068 12.9771771 55.6346877 12.8375076 55.4050176 12.6772985 55.1103904 12.5766543 54.9503174 12.4349309 54.8134433 12.2541821 54.6788892 12.1535379 54.5420151 12.093973 54.384262 12.0754874 54.0664358 12.0344081 53.9295617 11.9727892 53.7718086 11.872145 53.5908564 11.8125801 53.4307834 11.6729106 52.9760831 11.5127015 52.5909798 11.3709781 52.4077078 11.2292546 52.2499547 9.60251602 51.252398 8.65769309 50.9322519 8.3968398 50.7536196 8.25717032 50.6190655 8.17706577 50.4566725 8.03534233 50.0506902 7.91415852 49.616869 7.67384486 49.0948917 7.15008432 48.2318892 6.98987521 48.0532569 5.68355481 46.8260302 4.98109949 46.4641259 4.67916695 46.2599748 4.55798314 46.0790227 4.53744351 45.9166297 4.57852277 45.7820756 4.66068128 45.6915995 4.72024621 45.6475214 4.82089039 45.5802443 4.94002024 45.5570453 5.76365936 45.6243224 5.9053828 45.6034433 6.04505228 45.5570453 6.16623609 45.5129673 6.26688027 45.3969723 6.32644519 45.2577783 6.26688027 45.0559471 6.10667116 44.898194 5.82527825 44.6917229 5.66301518 44.5339698 5.64452951 44.5107708 5.62398988 43.8983174 5.50280607 43.5596121 5.36313659 43.3531411 4.90099494 42.9216398 4.82089039 42.7615668 4.82089039 42.6038136 4.92153457 42.5156574 5.04066442 42.4460605 5.54388533 42.2395894 5.64452951 42.1491134 5.74311973 42.0586373 5.84581788 41.9449622 6.00602698 41.673534 6.06559191 41.5157809 6.04505228 41.2652317 5.96494772 40.9497254 5.54388533 40.0171259 5.48226644 39.7665768 5.62398988 39.0636474 5.64452951 38.8594962 5.60345025 38.6553451 5.5233457 38.381597 5.40216189 38.2238438 4.90099494 37.7459446 4.82089039 37.5881914 4.77981113 37.3863602 4.7592715 37.1798892 4.67916695 36.885262 4.51895784 36.7043098 4.05681619 36.3192065 3.93563238 36.1382544 3.87606745 35.9549824 3.69531872 34.5004055 3.65423946 34.3194534 3.55564924 34.0712242 3.4139258 33.913471 3.01134907 33.5492469 2.85113997 33.3427758 2.69093086 33.0272695 2.51018212 32.7767204 2.28835413 32.5261713 2.18770995 32.370738 2.12814503 32.210665 2.02750084 31.8696398 1.64546374 31.1435113 1.46471501 30.6656121 1.00257336 29.8490076 0.641075885 29.3734282 0.519892074 29.055602 0.478812816 28.8746499 0.659561551 27.4409521 1.10321754 24.0608589 1.52427993 20.7016448 1.96793592 17.3192317 2.40953794 13.9623375 2.85113997 10.5822443 3.29274199 7.22071033 3.71585835 3.86149622 4.15746037 0.504602015 8.03534233 1.13793451 12.1535379 1.81998489 16.2737875 2.48115617 20.3734975 3.11448866 24.4916931 3.74782116 28.591403 4.38579345 32.7095987 5.00056675 36.8298482 5.61070025 40.9500978 6.19995466 41.270516 6.24635264 45.0682934 6.78920907 49.188543 7.37846348 53.3067386 7.94683879 57.4269882 8.51521411 61.5451838 9.06039043 65.6654334 9.60556675 69.785683 10.1275441 73.9038786 10.6727204 78.0426138 11.1714987 82.1608094 11.6911562 86.281059 12.1899345 90.4218482 12.6701537 94.5400438 13.145733 98.6808331 13.6213123 102.799029 14.0760126 106.93571 14.5307128 111.076499 14.9807733 115.196749 15.4145945 117.567022 15.6442645 119.337538 15.8252166 123.476273 16.254398 127.594469 16.6627003 131.733204 17.0501234 135.871939 17.4329068 140.012728 17.82033 144.153518 18.1845542 148.292253 18.5487783 152.430988 18.8874836 156.571777 19.2261889 160.708459 19.569534 164.849248 19.8850403 168.990037 20.1843073 173.128772 20.4974937 177.267508 20.7944408 181.406243 21.065869 185.565518 21.3396171 189.704253 21.6110453 193.845042 21.8592746 197.985831 22.1121436 202.145106 22.3580529 206.283841 22.585403 210.420523 22.815073 214.581852 23.0169043 218.720587 23.2210554 222.861376 23.4043275 227.020651 23.5852796 229.97425 23.7221537 229.81404 29.2133552 229.672317 34.7300756 229.512108 40.2421562 229.372438 45.7820756 229.212229 51.3196751 229.070506 56.8572746 228.748034 67.9765516 228.608364 73.5419899 228.446101 79.1236675 228.304378 84.6821461 227.98396 95.8733401 227.84429 101.478217 227.684081 107.083093"></polygon>
                <polygon id="Stroke-50" stroke="#F9F9F9" stroke-width="0.25" stroke-linecap="round" stroke-linejoin="round" points="227.542358 112.69029 227.441713 115.889431 227.361609 119.090892 227.263019 122.290033 227.100755 128.690635 227.002165 131.892096 226.922061 135.112116 226.821417 138.313577 226.778283 140.130058 226.757744 140.515161 226.114853 140.468763 223.966408 140.378287 221.815909 140.287811 219.66541 140.197335 217.514911 140.106859 215.345926 139.993184 213.195427 139.902708 211.044927 139.789033 208.896482 139.675358 206.745983 139.584882 204.595484 139.473526 202.426499 139.359851 200.276 139.243856 198.125501 139.106982 195.975002 138.993307 193.824503 138.881952 191.674003 138.747398 189.505019 138.605884 187.354519 138.494529 185.20402 138.357655 183.053521 138.223101 180.903022 138.088547 178.752523 137.949353 176.583538 137.791599 174.453578 137.654725 172.305133 137.496972 170.134094 137.360098 167.983595 137.202345 165.833096 137.044592 163.682597 136.884519 161.534152 136.724446 159.385707 136.564373 157.235207 136.40662 155.084708 136.251186 152.934209 136.065594 150.78371 135.905521 148.633211 135.724569 146.482712 135.545937 144.334266 135.385864 142.183767 135.204912 140.033268 135.02396 137.882769 134.819809 135.73227 134.638856 133.581771 134.455584 131.431272 134.253753 129.280772 134.068161 127.132327 133.86401 124.981828 133.662179 122.833383 133.455708 120.682884 133.251557 118.532384 133.049725 116.381885 132.843254 114.251926 132.615904 112.103481 132.414073 109.952981 132.186723 107.802482 131.982572 105.651983 131.755222 103.503538 131.527872 101.353039 131.300521 99.2230793 131.075491 97.0725801 130.845821 94.9220809 130.620791 92.7715818 130.370242 90.6210826 130.142892 88.4911231 129.892343 87.4887892 129.780987 87.4477099 130.256567 87.3676054 131.165967 87.2854469 132.049849 87.2053423 132.956929 87.1252378 133.843131 87.0451332 134.750212 86.9650287 135.636413 86.8849241 136.543494 86.8048196 137.429695 86.722661 138.334456 86.5624519 140.106859 86.4823474 141.01162 86.4022428 141.900141 86.2399798 143.716622 86.1598752 144.600504 85.3177504 144.23628 85.0158179 143.941652 84.512597 143.127368 84.231204 142.445317 83.9908904 142.083413 83.789602 141.879262 83.5082091 141.672791 83.3685396 141.535917 83.2678954 141.401363 83.2288702 141.266809 83.1877909 141.125295 83.1672513 140.967542 83.1672513 140.607957 83.1877909 140.401486 83.2083305 140.220534 83.1467116 139.993184 83.0481214 139.85863 82.906398 139.721756 82.7235953 139.608081 82.6434907 139.473526 82.5243609 139.083783 81.8403912 137.633846 81.6986678 137.08867 81.519973 136.907718 80.8360034 136.383421 80.5936358 136.292945 80.4334266 136.272065 80.3327825 136.362542 80.0719292 136.747645 79.9507454 136.86364 79.7905363 136.907718 79.2277504 136.907718 79.0880809 136.951796 78.8272277 137.08867 78.6259393 137.269622 78.5458347 137.406496 78.5068094 137.54105 78.5458347 137.677924 78.586914 137.814798 78.6670185 137.926154 78.7265835 138.065348 78.7471231 138.202222 78.7676627 138.380854 78.7471231 138.538607 78.6875582 138.724199 78.6074536 138.835554 78.4862698 138.902831 77.9419696 139.062904 77.8433794 139.15338 77.7817605 139.267055 77.7201417 139.584882 77.6790624 139.721756 77.5003676 140.039582 77.4387487 140.197335 77.3997234 140.378287 77.3997234 140.698433 77.4387487 141.01162 77.4592884 141.150814 77.5003676 141.220411 77.5393929 141.310887 77.6194975 141.422242 77.7406813 141.491839 78.1822833 141.716869 78.2829275 141.832864 78.3240067 141.946539 78.3240067 142.083413 78.1822833 142.15069 77.9830489 142.194768 77.6400371 142.194768 77.4592884 142.15069 77.3381046 142.104292 77.1183305 141.879262 76.537059 141.491839 76.2967454 141.401363 74.1462462 141.125295 73.8422597 141.150814 72.8974368 141.672791 72.7577673 141.740068 72.4168094 141.784146 72.0162867 141.763267 71.8355379 141.809665 71.4124216 141.969738 71.2316728 141.946539 71.0899494 141.879262 70.9893052 141.784146 70.9276863 141.649592 70.888661 141.512718 70.7469376 141.266809 70.6278078 141.125295 70.447059 140.967542 70.1061012 140.786589 69.2824621 140.652035 69.1017133 140.675234 68.9394503 140.698433 68.84086 140.786589 68.678597 140.853866 68.4773086 140.900264 68.0952715 140.923463 67.7748533 140.830668 65.8461821 140.967542 65.6654334 140.923463 65.2032917 140.652035 64.6610455 140.424685 64.2995481 140.355088 63.8353524 140.31101 63.6155784 140.264612 63.473855 140.174136 63.2130017 139.902708 62.9316088 139.721756 62.75086 139.698557 62.6111906 139.744955 62.4304418 139.925907 62.3297976 139.993184 62.1695885 140.039582 61.645828 140.106859 61.3254098 140.220534 61.0830422 140.331889 60.9639123 140.401486 60.8838078 140.515161 60.8016492 140.652035 60.5818752 141.334086 60.1382192 142.264365 60.0190894 142.398919 59.8383406 142.512594 59.5158685 142.579872 59.2960944 142.579872 59.1132917 142.512594 59.0147015 142.398919 58.932543 142.285244 58.8134132 142.15069 58.653204 141.990617 58.2896526 141.832864 57.9877201 141.784146 57.4454739 141.809665 57.326344 141.763267 57.1661349 141.559116 57.0654907 141.46864 56.9443069 141.378164 54.5534941 140.719312 53.8900641 140.445564 53.6887757 140.424685 53.5285666 140.445564 53.1465295 140.652035 53.0253457 140.698433 52.4420202 140.76339 52.3228904 140.830668 51.0555953 141.92334 50.9570051 142.037015 50.8769005 142.15069 50.796796 142.285244 50.7351771 142.422118 50.7146374 142.603071 50.7557167 142.739945 51.0371096 143.419675 50.9960304 143.577428 50.8953862 143.739821 50.5544283 143.876695 50.3736796 143.830297 50.2730354 143.739821 49.8704587 142.964975 49.7903541 142.85362 49.6897099 142.760824 48.8270455 142.331642 48.7058617 142.217967 48.6052175 142.104292 48.3443642 141.603194 48.2437201 141.445441 48.083511 141.310887 47.7610388 141.125295 47.6008297 140.990741 47.5412648 140.809788 47.5597504 140.468763 47.5412648 140.331889 47.3995413 139.925907 47.3790017 139.789033 47.3995413 139.721756 47.5001855 139.450327 47.7404992 139.016506 47.7815784 138.858753 47.7404992 138.701 47.6213693 138.515408 47.3194368 138.313577 47.1777133 138.155824 47.0791231 137.995751 47.1181484 137.654725 47.0976088 137.496972 47.0585835 137.360098 46.5964418 136.657169 46.5348229 136.520295 46.5348229 136.383421 46.5553626 136.227987 46.6354671 136.114312 46.7361113 136.019196 46.9579393 135.861443 47.0585835 135.747768 47.138688 135.636413 47.1571737 135.47634 47.1571737 135.316267 47.138688 135.181713 47.0380438 134.910285 46.8572951 134.501982 46.8162159 134.365108 46.7155717 133.910408 46.6765464 133.773534 46.6149275 133.6413 46.475258 133.386111 46.4156931 133.251557 46.3746138 133.117003 46.3540742 132.956929 46.3355885 132.799176 46.3150489 132.662302 46.2739696 132.525428 46.2144047 132.390874 45.9720371 132.049849 45.8919325 131.915295 45.6701046 131.390997 45.6105396 131.254123 45.2901214 130.799423 44.8670051 130.323844 44.3843238 129.96194 43.9427218 129.780987 43.6017639 129.71139 43.4600405 129.757788 43.320371 129.804186 43.2197268 129.871463 42.7781248 130.210169 42.6179157 130.279766 42.4166273 130.323844 42.0551298 130.300645 41.8743811 130.233368 41.7737369 130.096494 41.7737369 129.600035 41.7531973 129.439962 41.6114739 129.25901 41.3506206 129.03166 40.4859022 128.440086 40.2661282 128.212736 40.1264587 127.943627 40.0237605 127.669879 39.8450658 126.762798 39.7629073 126.48905 39.6437774 126.238501 39.4815143 125.987952 39.4219494 125.851078 39.4014098 125.716524 39.442489 125.57965 39.5431332 125.491494 39.6437774 125.424217 40.0443002 125.285023 40.1469983 125.194547 40.2455885 125.080872 40.3256931 124.946317 40.387312 124.786244 40.5865464 124.083315 40.6276256 123.923242 40.6276256 123.879164 40.5865464 123.401264 40.5680607 123.241191 40.3462327 122.380509 40.2661282 122.085882 39.7444216 121.044247 39.7033423 120.902733 39.6437774 120.359877 39.5225936 120.132526 39.3808702 120.021171 38.7379798 119.951574 38.5777707 119.861098 38.4771265 119.749743 38.4586408 119.58967 38.4976661 119.227766 38.4771265 119.070013 38.4175616 118.954018 38.2758381 118.682589 38.2573524 118.548035 38.2368128 118.385642 38.2368128 118.20469 38.1957336 117.912383 38.1567083 117.74999 38.0560641 117.501761 37.8136965 117.116657 37.5343575 116.798831 37.1913457 116.253655 36.8914671 115.91263 36.8093086 115.752557 36.7908229 115.594804 36.8093086 115.276977 36.7908229 115.096025 36.729204 114.935952 36.5874806 114.755 36.1869578 114.346698 36.0863137 114.188945 36.0267487 114.052071 35.9856695 113.915196 36.0062091 113.574171 36.0267487 113.393219 36.1068533 113.052194 36.2280371 112.326065 36.2670624 111.964161 36.2074975 111.76001 36.0863137 111.555859 35.5830927 110.987484 35.5235278 110.760134 35.5235278 110.419108 35.5029882 110.282234 35.4824486 110.124481 35.5029882 109.966728 35.5440675 109.785776 35.6036324 109.625703 35.7658954 109.354275 35.8254604 109.196521 35.846 109.036448 35.846 108.53535 35.8644857 108.354398 35.8850253 108.333519 35.846 108.103849 35.6652513 107.876499 35.0819258 107.514594 34.9402024 107.333642 34.8806374 107.15269 34.9217167 106.971738 35.0018212 106.607514 35.1414907 106.289688 35.2031096 106.152814 35.3838583 105.925463 35.4639629 105.790909 35.5029882 105.630836 35.4824486 105.470763 35.4228836 105.289811 35.2626745 105.062461 35.1414907 104.904708 34.9812816 104.814232 34.017973 104.292254 33.796145 104.111302 33.6749612 103.93035 33.6955008 103.610204 33.6749612 103.452451 33.6359359 103.320217 33.1717403 102.770401 32.5493895 102.137068 32.1878921 101.886519 31.9475784 101.751965 31.8263946 101.775164 31.7462901 101.842441 31.6867251 101.909718 31.6456459 102.046592 31.6251062 102.227544 31.6045666 102.385297 31.6251062 102.522171 31.6661855 102.728642 31.6661855 103.02095 31.6251062 103.132305 31.5655413 103.181023 31.4648971 103.225101 30.9431906 103.341096 30.8014671 103.385174 30.6823373 103.452451 30.5816931 103.542927 30.4789949 103.656602 30.3187858 103.93035 30.2592209 104.090423 30.1791164 104.224977 30.0784722 104.361851 29.977828 104.429128 29.6163305 104.610081 29.4951467 104.700557 29.4150422 104.837431 29.3349376 104.971985 29.2753727 105.108859 29.1932142 105.199335 29.0740843 105.268932 28.2504452 105.517161 27.7677639 105.76771 27.6465801 105.814108 27.486371 105.814108 27.1659528 105.723632 27.0036897 105.723632 26.8825059 105.76771 26.7633761 105.837307 26.6627319 105.925463 26.5620877 106.039139 26.4819831 106.176013 26.2005902 106.767587 26.099946 106.902141 26.0794064 106.92534 25.9787622 106.994937 25.4981349 107.175889 25.3769511 107.243166 25.1962024 107.287244 24.9743744 107.310443 24.5717976 107.219967 24.3725632 107.106292 24.2308398 106.971738 24.1712749 106.858063 24.0911703 106.630713 23.4667656 106.152814 23.2860169 105.971861 23.1853727 105.790909 23.1648331 105.630836 23.1463474 105.447564 23.0662428 105.268932 22.4623777 104.656479 22.281629 104.566003 21.396371 104.224977 21.0163879 104.180899 20.7349949 104.090423 20.67543 103.976748 20.6939157 103.863073 20.954769 103.519728 21.0369275 103.385174 21.0759528 103.225101 21.0759528 103.041829 21.0163879 102.860877 20.9342293 102.589448 20.9157437 102.408496 20.954769 102.250743 21.0574671 102.157947 21.4970152 101.842441 21.7989477 101.591892 21.8605666 101.524615 21.8995919 101.434139 21.9591568 101.297264 22.0207757 101.137191 22.0413153 100.979438 22.0002361 100.661612 22.0207757 100.522418 22.1214199 100.25099 22.1214199 100.046839 22.0207757 99.8218086 21.5791737 99.2093552 21.4785295 99.028403 21.4579899 98.86833 21.396371 98.4600277 21.2772411 98.1654005 21.2567015 97.9357305 21.2977808 97.8011763 21.396371 97.7107003 21.618199 97.5274282 21.7393828 97.4369521 21.8995919 97.1655239 22.059801 96.9172947 22.3227083 96.5762695 22.4418381 96.3280403 22.503457 96.2607632 22.5835616 96.1656474 22.8053895 96.0310932 22.9245194 95.9846952 23.0662428 95.9638161 23.7481585 96.0310932 23.889882 96.0310932 24.0295514 95.9846952 24.1507352 95.9174181 24.6724418 95.483597 24.773086 95.3722418 24.8141653 95.1912897 24.8141653 94.9871385 24.4916931 94.216932 24.4321282 94.0568589 24.4115885 93.9223048 24.4115885 93.7622317 24.4526678 93.5789597 24.5717976 93.2634534 24.8141653 92.8737103 24.8737302 92.7159572 24.8737302 92.511806 24.8326509 92.3308539 24.6929815 92.2171788 24.1897605 91.9921486 23.7686981 91.6975214 23.608489 91.4933703 23.5674098 91.3100982 23.6290287 91.1523451 23.668054 90.969073 23.668054 90.7649219 23.5468702 90.4470957 23.5078449 90.2197456 23.5283845 90.0387935 23.5879494 89.8810403 23.668054 89.7441662 24.1301956 89.1781108 24.2103002 89.0412368 24.2698651 88.9066826 24.3109444 88.7257305 24.331484 88.5633375 24.2904047 88.4055844 24.2308398 88.2687103 23.5674098 87.2711537 23.4873052 87.0878816 23.4873052 86.9301285 23.5283845 86.7723753 23.5879494 86.6587003 23.6290287 86.6123023 23.7276189 86.5450252 23.8488027 86.4986272 24.5122327 86.5218262 24.6539562 86.4986272 24.773086 86.4313501 24.8737302 86.3408741 24.9558887 86.227199 24.994914 86.0694458 25.0154536 85.8861738 24.994914 85.5683476 25.0154536 85.0440504 25.0154536 84.8862972 24.994914 84.7285441 24.9148094 84.4107179 24.8531906 84.2065668 24.8141653 84.0256146 24.8141653 83.8678615 24.8737302 83.7286675 24.9353491 83.6173123 25.1345835 83.3899622 25.214688 83.2530882 25.2763069 83.095335 25.3358718 82.7519899 25.3769511 82.5942368 25.4570556 82.4573627 25.9191973 81.8913073 25.9993019 81.7776322 26.0609207 81.6198791 26.0794064 81.438927 26.099946 81.0770227 26.1410253 80.7104786 26.2396155 80.3717733 26.3607993 80.0516272 26.9235852 79.1004685 26.9831501 78.9195164 27.042715 78.7594433 27.0837943 78.5784912 27.0837943 78.3952191 27.0632546 78.237466 27.0036897 78.0773929 26.9441248 77.8964408 26.7038111 77.5090176 26.6421922 77.3744635 26.6421922 77.3071864 26.7038111 77.1703123 26.7839157 77.1030353 26.9030455 77.0566373 27.4658314 76.9220831 27.706145 76.7852091 27.8088432 76.694733 27.8889477 76.6042569 27.9485126 76.4465038 27.927973 76.3096297 27.9074334 76.1704358 27.8684081 76.0382015 27.8478685 75.8758086 27.8684081 75.7180554 27.927973 75.5811814 28.1087218 75.3561511 28.1682867 75.1937582 28.2093659 75.059204 28.2093659 74.8782519 28.1888263 74.7413778 28.2093659 74.5836247 28.2504452 74.4235516 28.3100101 74.2657985 28.4702192 73.9943703 28.5708634 73.6510252 28.650968 72.9272166 28.6324823 72.7462645 28.5708634 72.5397935 28.4702192 72.4029194 28.3305497 72.3124433 28.1682867 72.2683652 28.0080776 72.2451662 26.6627319 72.4261184 26.5415481 72.4493174 26.2005902 72.6534685 25.9397369 72.7694635 25.7980135 72.7903426 25.6378044 72.7903426 25.4981349 72.7462645 25.1962024 72.5629924 25.0750185 72.5165945 24.9353491 72.5165945 24.4732074 72.6302695 24.2308398 72.6766675 23.9104216 72.6534685 23.668054 72.5397935 23.4072007 72.3820403 22.9861383 71.9946171 22.8053895 71.7695869 22.6842057 71.5654358 22.6636661 71.4285617 22.6451804 71.2708086 22.6842057 71.1107355 22.7643103 70.9761814 23.0662428 70.6560353 23.1052681 70.4959622 23.1052681 70.270932 22.9655987 69.9739849 22.8649545 69.7930327 22.4212985 69.3406524 22.281629 69.2501763 22.1419595 69.2037783 21.8605666 69.2037783 21.7188432 69.2733753 21.3778853 69.4984055 20.895204 69.9971839 20.7555346 70.0667809 20.5932715 70.0667809 20.4125228 69.9971839 20.3324182 69.8626297 20.291339 69.7257557 20.3118786 69.5680025 20.5337066 68.888272 20.5542462 68.705 20.5747858 68.5008489 20.5131669 68.2734987 20.4330624 68.1366247 20.3118786 68.0252695 19.7696324 67.7747204 19.4882395 67.5914484 19.3074907 67.3640982 19.0671771 66.978995 18.8864283 66.7539647 18.3441821 66.2551864 18.183973 66.0719144 18.0812749 65.9141612 17.962145 65.4803401 17.9210658 65.1648338 17.9005261 64.8470076 17.9210658 64.3482292 17.962145 64.1649572 18.0011703 63.984005 18.0812749 63.8262519 18.1223541 63.6893778 18.1223541 63.5293048 18.0217099 63.3970705 17.5801079 63.0073275 17.4383845 62.8472544 17.3192546 62.6918212 16.8755987 61.8496977 16.7749545 61.6919446 16.6558246 61.5782695 16.2943272 61.4205164 16.0334739 61.2627632 15.8917504 61.1258892 15.8116459 60.9866952 15.7911062 60.9194181 15.7911062 60.854461 15.7520809 60.3278438 15.7315413 60.1724106 14.2650118 57.9221083 14.0637234 57.1982997 13.6406071 56.3352972 13.4598583 56.087068 12.9771771 55.6346877 12.8375076 55.4050176 12.6772985 55.1103904 12.5766543 54.9503174 12.4349309 54.8134433 12.2541821 54.6788892 12.1535379 54.5420151 12.093973 54.384262 12.0754874 54.0664358 12.0344081 53.9295617 11.9727892 53.7718086 11.872145 53.5908564 11.8125801 53.4307834 11.6729106 52.9760831 11.5127015 52.5909798 11.3709781 52.4077078 11.2292546 52.2499547 9.60251602 51.252398 8.65769309 50.9322519 8.3968398 50.7536196 8.25717032 50.6190655 8.17706577 50.4566725 8.03534233 50.0506902 7.91415852 49.616869 7.67384486 49.0948917 7.15008432 48.2318892 6.98987521 48.0532569 5.68355481 46.8260302 4.98109949 46.4641259 4.67916695 46.2599748 4.55798314 46.0790227 4.53744351 45.9166297 4.57852277 45.7820756 4.66068128 45.6915995 4.72024621 45.6475214 4.82089039 45.5802443 4.94002024 45.5570453 5.76365936 45.6243224 5.9053828 45.6034433 6.04505228 45.5570453 6.16623609 45.5129673 6.26688027 45.3969723 6.32644519 45.2577783 6.26688027 45.0559471 6.10667116 44.898194 5.82527825 44.6917229 5.66301518 44.5339698 5.64452951 44.5107708 5.62398988 43.8983174 5.50280607 43.5596121 5.36313659 43.3531411 4.90099494 42.9216398 4.82089039 42.7615668 4.82089039 42.6038136 4.92153457 42.5156574 5.04066442 42.4460605 5.54388533 42.2395894 5.64452951 42.1491134 5.74311973 42.0586373 5.84581788 41.9449622 6.00602698 41.673534 6.06559191 41.5157809 6.04505228 41.2652317 5.96494772 40.9497254 5.54388533 40.0171259 5.48226644 39.7665768 5.62398988 39.0636474 5.64452951 38.8594962 5.60345025 38.6553451 5.5233457 38.381597 5.40216189 38.2238438 4.90099494 37.7459446 4.82089039 37.5881914 4.77981113 37.3863602 4.7592715 37.1798892 4.67916695 36.885262 4.51895784 36.7043098 4.05681619 36.3192065 3.93563238 36.1382544 3.87606745 35.9549824 3.69531872 34.5004055 3.65423946 34.3194534 3.55564924 34.0712242 3.4139258 33.913471 3.01134907 33.5492469 2.85113997 33.3427758 2.69093086 33.0272695 2.51018212 32.7767204 2.28835413 32.5261713 2.18770995 32.370738 2.12814503 32.210665 2.02750084 31.8696398 1.64546374 31.1435113 1.46471501 30.6656121 1.00257336 29.8490076 0.641075885 29.3734282 0.519892074 29.055602 0.478812816 28.8746499 0.659561551 27.4409521 1.10321754 24.0608589 1.52427993 20.7016448 1.96793592 17.3192317 2.40953794 13.9623375 2.85113997 10.5822443 3.29274199 7.22071033 3.71585835 3.86149622 4.15746037 0.504602015 8.03534233 1.13793451 12.1535379 1.81998489 16.2737875 2.48115617 20.3734975 3.11448866 24.4916931 3.74782116 28.591403 4.38579345 32.7095987 5.00056675 36.8298482 5.61070025 40.9500978 6.19995466 41.270516 6.24635264 45.0682934 6.78920907 49.188543 7.37846348 53.3067386 7.94683879 57.4269882 8.51521411 61.5451838 9.06039043 65.6654334 9.60556675 69.785683 10.1275441 73.9038786 10.6727204 78.0426138 11.1714987 82.1608094 11.6911562 86.281059 12.1899345 90.4218482 12.6701537 94.5400438 13.145733 98.6808331 13.6213123 102.799029 14.0760126 106.93571 14.5307128 111.076499 14.9807733 115.196749 15.4145945 117.567022 15.6442645 119.337538 15.8252166 123.476273 16.254398 127.594469 16.6627003 131.733204 17.0501234 135.871939 17.4329068 140.012728 17.82033 144.153518 18.1845542 148.292253 18.5487783 152.430988 18.8874836 156.571777 19.2261889 160.708459 19.569534 164.849248 19.8850403 168.990037 20.1843073 173.128772 20.4974937 177.267508 20.7944408 181.406243 21.065869 185.565518 21.3396171 189.704253 21.6110453 193.845042 21.8592746 197.985831 22.1121436 202.145106 22.3580529 206.283841 22.585403 210.420523 22.815073 214.581852 23.0169043 218.720587 23.2210554 222.861376 23.4043275 227.020651 23.5852796 229.97425 23.7221537 229.81404 29.2133552 229.672317 34.7300756 229.512108 40.2421562 229.372438 45.7820756 229.212229 51.3196751 229.070506 56.8572746 228.748034 67.9765516 228.608364 73.5419899 228.446101 79.1236675 228.304378 84.6821461 227.98396 95.8733401 227.84429 101.478217 227.684081 107.083093"></polygon>
            </g>
        </g>
    </g>
</svg>