<?xml version="1.0" encoding="UTF-8"?>
<svg width="39px" height="77px" viewBox="0 0 39 77" version="1.1" xmlns="http://www.w3.org/2000/svg" xmlns:xlink="http://www.w3.org/1999/xlink">
    <!-- Generator: Sketch 51 (57462) - http://www.bohemiancoding.com/sketch -->
    <title>Vermont</title>
    <desc>Created with Sketch.</desc>
    <defs></defs>
    <g id="Page-1" stroke="none" stroke-width="1" fill="none" fill-rule="evenodd">
        <g id="A5" transform="translate(-1120.000000, -125.000000)">
            <g id="Vermont" transform="translate(1120.000000, 126.000000)">
                <polygon id="Fill-9" fill="#D6D6D6" points="4.93559865 9.40792947 3.97229005 9.67935768 3.6929511 9.77215365 2.04361889 10.2500529 1.32062395 10.4518841 1.32062395 10.431005 0.839996627 10.7929093 1.05977066 11.2012116 1.16041484 11.4749597 1.2014941 11.7463879 1.13987521 12.0642141 1.03923103 12.1778892 0.940640809 12.1987683 0.879021922 12.2683652 0.92010118 12.7207456 1.10084992 13.7670202 1.03923103 14.6045038 1.08031029 15.1496801 1.18095447 15.6739773 1.34116358 15.9918035 1.68212142 16.2168338 1.92243508 16.4673829 1.982 16.8316071 1.86287015 17.4185416 1.74168634 17.5786146 1.62255649 17.6018136 1.50137268 17.6690907 1.42126813 17.9660378 1.44180776 18.3279421 1.50137268 18.4184181 1.64104216 18.4880151 1.96351433 18.8058413 2.10318381 18.9195164 2.22436762 19.1004685 2.28393255 19.3950957 2.22436762 19.6224458 2.08264418 19.6224458 1.96351433 19.5087708 1.68212142 19.0772695 1.44180776 19.0772695 1.28159865 19.3718967 1.30008432 19.9843501 1.56093761 20.7336776 1.58147723 21.1674987 1.34116358 21.529403 1.52191231 21.7544332 1.64104216 21.9817834 1.70266105 22.2532116 1.70266105 22.4805617 1.82179089 22.4573627 1.88340978 22.842466 2.08264418 23.4340403 2.34349747 23.9351385 2.54478583 24.1392897 3.00692749 24.2065668 3.21026981 24.59167 3.16919056 25.0904484 2.90628331 25.5242695 3.39101855 26.1158438 3.57176728 26.4777481 3.57176728 26.8860504 3.51220236 27.2711537 3.53068803 27.677136 3.63133221 28.0645592 3.83262057 28.4055844 3.73197639 27.9044861 3.71143676 27.2479547 3.79154132 26.7259773 4.01336931 26.6587003 4.11195953 26.9742065 4.41389207 28.5633375 4.49399663 28.6561335 4.61518044 28.7906877 4.75484992 28.9971587 5.11634739 29.9483174 5.36076897 30.7649219 5.50043845 31.1523451 5.70172681 31.4469723 5.98311973 31.7879975 4.97667791 33.8086297 4.53507589 34.2842091 4.93559865 35.2353678 4.89451939 38.3463526 5.25601686 39.5271814 5.31763575 39.2093552 5.50043845 38.9124081 5.64216189 38.8474509 5.82291062 39.005204 5.84139629 39.051602 5.90301518 39.3903073 5.92150084 39.9795617 6.26245868 41.5014156 6.46374705 42.000194 6.74513997 42.4757733 7.08609781 42.8608766 7.26684654 43.1323048 7.38597639 43.4524509 7.40651602 43.8166751 7.3469511 44.4059295 7.36749073 44.7469547 7.52769983 45.0415819 8.072 45.4266851 8.27328836 45.6517154 8.35339292 45.9045844 8.53414165 46.811665 8.61424621 46.6539118 8.61424621 46.881262 8.21372344 50.034005 8.21372344 50.3077531 8.25274874 50.6464584 8.39447218 51.2821108 8.51360202 51.623136 8.67381113 51.9200831 8.87509949 52.1683123 8.93466442 52.2355894 8.99422934 52.2355894 9.05584823 52.1915113 9.25508263 52.0314383 9.43583137 51.7832091 9.55701518 51.5117809 9.57755481 51.3285088 9.55701518 50.7833325 9.57755481 50.6232594 9.63711973 50.4631864 9.71722428 50.3518312 9.81786847 50.2613552 9.94110624 50.1708791 10.0828297 50.1244811 10.2224992 50.080403 10.5429174 50.080403 10.7051804 50.1012821 10.8448499 50.2149572 10.9660337 50.3518312 11.4672007 51.3053098 11.6869747 51.5117809 11.8081585 51.5558589 12.0279325 51.715932 12.2333288 51.8968841 12.3524587 52.5302166 12.3935379 52.7575668 12.5126678 53.3491411 12.6934165 54.3026196 12.9357841 55.5252065 13.2356627 56.9565844 13.5560809 58.5689144 14.9445599 65.5796499 15.546371 68.6465567 15.7866847 69.8714635 15.9674334 70.8226222 16.0886172 71.4373955 16.1481821 71.6415466 16.1872074 71.9593728 16.2488263 72.4581511 16.2488263 73.5461839 16.7541012 74.4347053 17.1751636 75.1585139 20.1082226 74.4555844 21.0941248 74.2282343 22.077973 74.0008841 23.0597673 73.773534 24.0271838 73.5229849 25.0089781 73.2956348 25.9969342 73.0729244 26.9602428 72.8200554 27.946145 72.5950252 28.9299933 72.3676751 29.9117875 72.1194458 30.879204 71.8920957 31.8609983 71.6415466 32.8489545 71.4141965 32.8489545 71.3909975 32.5285363 70.5975919 32.0027218 70.0964937 30.938769 69.3958841 30.6984553 69.122136 30.5382462 68.8715869 30.3780371 68.5560806 30.2363137 68.1222594 30.1377234 67.6002821 30.1562091 67.2151788 30.217828 66.8764736 30.2773929 66.4217733 30.1377234 65.1272695 30.1562091 64.5844131 30.4581417 64.2665869 30.879204 63.9464408 30.9593086 63.4012645 30.7374806 62.0626826 30.7189949 60.3366776 30.6183508 59.6569471 30.3369578 58.9308186 30.2568533 58.5921134 30.0966442 57.3648866 30.1972884 57.1607355 30.2568533 57.0029824 30.2568533 56.8220302 30.217828 56.6410781 30.1377234 56.5714811 30.0719966 56.527403 30.0329713 56.457806 29.9918921 56.0727028 30.0124317 55.7525567 30.0966442 55.4347305 30.2363137 55.1169043 30.3574975 54.5067708 30.2568533 53.8479194 29.9323272 52.7575668 28.9690185 47.7883426 28.9094536 46.994937 29.0100978 46.5170378 29.5297504 45.6308363 29.6920135 45.0415819 29.7310388 44.4291285 29.6303946 43.1810227 29.4701855 42.1579471 29.5297504 41.8192418 29.9528668 41.2044685 30.1171838 40.7520882 30.8976897 39.4367053 31.0188735 38.9124081 31.0394132 38.2999547 31.0188735 37.6411033 30.9182293 37.0077708 30.8976897 36.3721184 31.0394132 35.690068 31.8609983 33.3539295 31.8609983 33.1265793 31.7007892 33.0105844 31.4810152 32.8737103 31.3392917 32.6486801 31.3598314 32.1731008 31.821973 30.3102217 31.8815379 29.312665 31.7418685 28.1759144 31.158543 25.6565038 30.9798482 24.1392897 31.158543 22.9816599 31.7418685 22.1627355 32.6682057 21.6662771 33.6315143 21.438927 34.0731164 21.2092569 34.3729949 20.8241537 34.8187049 19.757 35.0384789 19.3718967 36.4618752 17.7131688 36.9281248 17.3512645 37.028769 17.0334383 37.2300573 16.3328287 37.7497099 15.5347834 37.9920776 14.92233 37.8914334 14.4026725 37.7312243 13.9038942 37.7312243 13.3123199 37.8914334 13.1081688 38.131747 13.0385718 38.353575 12.9272166 38.4521653 12.5838715 38.3926003 12.3124433 38.191312 12.0410151 37.8503541 11.7231889 36.8890995 10.2500529 36.7042428 9.83943073 36.4433895 9.36385139 36.0818921 9.06922418 35.8004992 8.65860202 35.699855 7.90927456 35.9422226 6.75396474 36.5234941 5.09523678 37.0698482 3.52930479 37.0883339 2.78229723 36.8028331 2.37167506 36.4433895 2.03296977 36.1619966 1.39731738 36.0428668 0.624790932 36.1619966 0.286085642 36.4618752 0.0819345088 34.5537437 0.647989924 32.6476661 1.23956423 30.7374806 1.80561965 28.8293491 2.39487406 26.9191636 2.96092947 25.0089781 3.52930479 23.1008465 4.0976801 21.194769 4.66373552 19.2845835 5.23443073 17.3559123 5.80280605 15.4457268 6.36886146 13.5355413 6.91171788 9.71722428 8.04614861 7.79060708 8.59132494 6.02214503 9.09242317 5.88247555 9.13650126 5.25601686 9.3174534"></polygon>
                <polygon id="Stroke-10" stroke="#F9F9F9" stroke-width="0.25" stroke-linecap="round" stroke-linejoin="round" points="4.93559865 9.40792947 3.97229005 9.67935768 3.6929511 9.77215365 2.04361889 10.2500529 1.32062395 10.4518841 1.32062395 10.431005 0.839996627 10.7929093 1.05977066 11.2012116 1.16041484 11.4749597 1.2014941 11.7463879 1.13987521 12.0642141 1.03923103 12.1778892 0.940640809 12.1987683 0.879021922 12.2683652 0.92010118 12.7207456 1.10084992 13.7670202 1.03923103 14.6045038 1.08031029 15.1496801 1.18095447 15.6739773 1.34116358 15.9918035 1.68212142 16.2168338 1.92243508 16.4673829 1.982 16.8316071 1.86287015 17.4185416 1.74168634 17.5786146 1.62255649 17.6018136 1.50137268 17.6690907 1.42126813 17.9660378 1.44180776 18.3279421 1.50137268 18.4184181 1.64104216 18.4880151 1.96351433 18.8058413 2.10318381 18.9195164 2.22436762 19.1004685 2.28393255 19.3950957 2.22436762 19.6224458 2.08264418 19.6224458 1.96351433 19.5087708 1.68212142 19.0772695 1.44180776 19.0772695 1.28159865 19.3718967 1.30008432 19.9843501 1.56093761 20.7336776 1.58147723 21.1674987 1.34116358 21.529403 1.52191231 21.7544332 1.64104216 21.9817834 1.70266105 22.2532116 1.70266105 22.4805617 1.82179089 22.4573627 1.88340978 22.842466 2.08264418 23.4340403 2.34349747 23.9351385 2.54478583 24.1392897 3.00692749 24.2065668 3.21026981 24.59167 3.16919056 25.0904484 2.90628331 25.5242695 3.39101855 26.1158438 3.57176728 26.4777481 3.57176728 26.8860504 3.51220236 27.2711537 3.53068803 27.677136 3.63133221 28.0645592 3.83262057 28.4055844 3.73197639 27.9044861 3.71143676 27.2479547 3.79154132 26.7259773 4.01336931 26.6587003 4.11195953 26.9742065 4.41389207 28.5633375 4.49399663 28.6561335 4.61518044 28.7906877 4.75484992 28.9971587 5.11634739 29.9483174 5.36076897 30.7649219 5.50043845 31.1523451 5.70172681 31.4469723 5.98311973 31.7879975 4.97667791 33.8086297 4.53507589 34.2842091 4.93559865 35.2353678 4.89451939 38.3463526 5.25601686 39.5271814 5.31763575 39.2093552 5.50043845 38.9124081 5.64216189 38.8474509 5.82291062 39.005204 5.84139629 39.051602 5.90301518 39.3903073 5.92150084 39.9795617 6.26245868 41.5014156 6.46374705 42.000194 6.74513997 42.4757733 7.08609781 42.8608766 7.26684654 43.1323048 7.38597639 43.4524509 7.40651602 43.8166751 7.3469511 44.4059295 7.36749073 44.7469547 7.52769983 45.0415819 8.072 45.4266851 8.27328836 45.6517154 8.35339292 45.9045844 8.53414165 46.811665 8.61424621 46.6539118 8.61424621 46.881262 8.21372344 50.034005 8.21372344 50.3077531 8.25274874 50.6464584 8.39447218 51.2821108 8.51360202 51.623136 8.67381113 51.9200831 8.87509949 52.1683123 8.93466442 52.2355894 8.99422934 52.2355894 9.05584823 52.1915113 9.25508263 52.0314383 9.43583137 51.7832091 9.55701518 51.5117809 9.57755481 51.3285088 9.55701518 50.7833325 9.57755481 50.6232594 9.63711973 50.4631864 9.71722428 50.3518312 9.81786847 50.2613552 9.94110624 50.1708791 10.0828297 50.1244811 10.2224992 50.080403 10.5429174 50.080403 10.7051804 50.1012821 10.8448499 50.2149572 10.9660337 50.3518312 11.4672007 51.3053098 11.6869747 51.5117809 11.8081585 51.5558589 12.0279325 51.715932 12.2333288 51.8968841 12.3524587 52.5302166 12.3935379 52.7575668 12.5126678 53.3491411 12.6934165 54.3026196 12.9357841 55.5252065 13.2356627 56.9565844 13.5560809 58.5689144 14.9445599 65.5796499 15.546371 68.6465567 15.7866847 69.8714635 15.9674334 70.8226222 16.0886172 71.4373955 16.1481821 71.6415466 16.1872074 71.9593728 16.2488263 72.4581511 16.2488263 73.5461839 16.7541012 74.4347053 17.1751636 75.1585139 20.1082226 74.4555844 21.0941248 74.2282343 22.077973 74.0008841 23.0597673 73.773534 24.0271838 73.5229849 25.0089781 73.2956348 25.9969342 73.0729244 26.9602428 72.8200554 27.946145 72.5950252 28.9299933 72.3676751 29.9117875 72.1194458 30.879204 71.8920957 31.8609983 71.6415466 32.8489545 71.4141965 32.8489545 71.3909975 32.5285363 70.5975919 32.0027218 70.0964937 30.938769 69.3958841 30.6984553 69.122136 30.5382462 68.8715869 30.3780371 68.5560806 30.2363137 68.1222594 30.1377234 67.6002821 30.1562091 67.2151788 30.217828 66.8764736 30.2773929 66.4217733 30.1377234 65.1272695 30.1562091 64.5844131 30.4581417 64.2665869 30.879204 63.9464408 30.9593086 63.4012645 30.7374806 62.0626826 30.7189949 60.3366776 30.6183508 59.6569471 30.3369578 58.9308186 30.2568533 58.5921134 30.0966442 57.3648866 30.1972884 57.1607355 30.2568533 57.0029824 30.2568533 56.8220302 30.217828 56.6410781 30.1377234 56.5714811 30.0719966 56.527403 30.0329713 56.457806 29.9918921 56.0727028 30.0124317 55.7525567 30.0966442 55.4347305 30.2363137 55.1169043 30.3574975 54.5067708 30.2568533 53.8479194 29.9323272 52.7575668 28.9690185 47.7883426 28.9094536 46.994937 29.0100978 46.5170378 29.5297504 45.6308363 29.6920135 45.0415819 29.7310388 44.4291285 29.6303946 43.1810227 29.4701855 42.1579471 29.5297504 41.8192418 29.9528668 41.2044685 30.1171838 40.7520882 30.8976897 39.4367053 31.0188735 38.9124081 31.0394132 38.2999547 31.0188735 37.6411033 30.9182293 37.0077708 30.8976897 36.3721184 31.0394132 35.690068 31.8609983 33.3539295 31.8609983 33.1265793 31.7007892 33.0105844 31.4810152 32.8737103 31.3392917 32.6486801 31.3598314 32.1731008 31.821973 30.3102217 31.8815379 29.312665 31.7418685 28.1759144 31.158543 25.6565038 30.9798482 24.1392897 31.158543 22.9816599 31.7418685 22.1627355 32.6682057 21.6662771 33.6315143 21.438927 34.0731164 21.2092569 34.3729949 20.8241537 34.8187049 19.757 35.0384789 19.3718967 36.4618752 17.7131688 36.9281248 17.3512645 37.028769 17.0334383 37.2300573 16.3328287 37.7497099 15.5347834 37.9920776 14.92233 37.8914334 14.4026725 37.7312243 13.9038942 37.7312243 13.3123199 37.8914334 13.1081688 38.131747 13.0385718 38.353575 12.9272166 38.4521653 12.5838715 38.3926003 12.3124433 38.191312 12.0410151 37.8503541 11.7231889 36.8890995 10.2500529 36.7042428 9.83943073 36.4433895 9.36385139 36.0818921 9.06922418 35.8004992 8.65860202 35.699855 7.90927456 35.9422226 6.75396474 36.5234941 5.09523678 37.0698482 3.52930479 37.0883339 2.78229723 36.8028331 2.37167506 36.4433895 2.03296977 36.1619966 1.39731738 36.0428668 0.624790932 36.1619966 0.286085642 36.4618752 0.0819345088 34.5537437 0.647989924 32.6476661 1.23956423 30.7374806 1.80561965 28.8293491 2.39487406 26.9191636 2.96092947 25.0089781 3.52930479 23.1008465 4.0976801 21.194769 4.66373552 19.2845835 5.23443073 17.3559123 5.80280605 15.4457268 6.36886146 13.5355413 6.91171788 9.71722428 8.04614861 7.79060708 8.59132494 6.02214503 9.09242317 5.88247555 9.13650126 5.25601686 9.3174534"></polygon>
            </g>
        </g>
    </g>
</svg>