<?xml version="1.0" encoding="UTF-8"?>
<svg width="93px" height="116px" viewBox="0 0 93 116" version="1.1" xmlns="http://www.w3.org/2000/svg" xmlns:xlink="http://www.w3.org/1999/xlink">
    <!-- Generator: Sketch 51 (57462) - http://www.bohemiancoding.com/sketch -->
    <title>Ohio</title>
    <desc>Created with Sketch.</desc>
    <defs></defs>
    <g id="Page-1" stroke="none" stroke-width="1" fill="none" fill-rule="evenodd">
        <g id="A5" transform="translate(-910.000000, -258.000000)">
            <g id="Ohio" transform="translate(910.000000, 258.000000)">
                <polygon id="Fill-31" fill="#D6D6D6" points="89.8122867 41.3876877 90.3134536 41.0930605 90.8351602 40.9561864 91.2171973 41.1162594 92.0223508 40.2068589 92.3242833 40.0491058 91.841602 36.9381209 91.3363272 33.8294559 90.8556998 30.6999118 90.3545329 27.609806 89.3912243 21.3924761 88.8859494 18.2838111 88.4032681 15.1751461 87.4214739 8.97637531 86.4540573 2.75904534 86.0740742 0.422906801 81.1116998 3.39469773 80.548914 4.02803023 79.7827858 4.32265743 79.441828 4.50592947 79.2816189 4.68920151 79.1008702 5.09750378 79.000226 5.23205793 78.2977707 5.52900504 77.833575 6.00458438 76.4697437 6.54744081 70.4598482 11.2475567 64.7950185 18.6457154 64.0905093 19.0540176 63.4681585 19.6687909 62.9854772 19.8033451 62.2604283 19.5551159 62.0796796 19.5551159 61.8783912 19.712869 61.5374334 20.1907683 61.2765801 20.3253224 60.7569275 20.3925995 58.2038516 20.2139673 57.3370793 20.3925995 54.747032 21.7311814 53.2989882 22.9816071 52.4568634 23.4131083 51.0683845 23.7286146 50.7664519 24.0255617 50.5055987 24.387466 49.7045531 25.1808715 49.322516 25.4314207 48.3550995 25.5474156 47.4328702 25.2272695 45.8246172 24.2065139 45.6233288 24.1160378 45.2228061 23.9791637 45.0831366 23.9118866 44.840769 23.6613375 44.6805599 23.4363073 44.4998111 23.2762343 44.2759292 23.2321562 44.6209949 23.8214106 45.6048432 24.5011411 46.1060101 24.9558413 45.003032 24.364267 44.4197066 24.1601159 43.895946 24.1160378 43.6535784 24.1833149 43.3536998 24.387466 43.1524115 24.4547431 42.8710185 24.4779421 42.7108094 24.4083451 42.2507218 24.1833149 41.4229747 24.5011411 40.521285 25.3850227 39.6154874 25.976597 38.8329275 25.4314207 38.6727184 25.6819698 38.47143 25.8420428 38.2701417 25.7956448 38.1510118 25.4569395 37.9497234 25.4314207 36.7214536 25.5914937 37.0233862 25.3432645 37.7484351 25.1599924 38.0709073 24.9094433 38.3707858 25.0903955 38.4919696 24.9558413 38.5720742 24.6612141 38.691204 24.4083451 38.8719528 24.2737909 39.0732411 24.1833149 39.5949477 24.0696398 40.5007454 23.6613375 40.962887 23.5476625 41.464054 23.7286146 41.8645767 23.2530353 42.5300607 22.9584081 43.895946 22.6405819 43.6946577 22.1650025 43.5344486 21.9121335 43.3126206 21.7984584 42.5300607 21.8216574 42.3102867 21.8912544 42.0063002 22.1650025 41.8255514 22.0722065 41.683828 21.8912544 41.5646981 21.7984584 41.2627656 21.3460781 40.962887 21.0514509 40.6013895 20.9609748 40.6404148 21.118728 40.6404148 21.5061511 40.6219292 21.9353325 40.5418246 22.2090806 40.3199966 22.5269068 40.020118 22.7333778 39.3525801 23.028005 38.9520573 23.0720831 38.2105767 22.9120101 37.8490793 22.8888111 37.2226206 22.7078589 35.979973 21.4597531 35.374054 21.0305718 34.8318078 21.0978489 34.1314064 21.0305718 32.7634671 20.6663476 32.1801417 20.3485214 31.0771636 19.3927229 30.5513491 19.1444937 30.331575 19.1676927 29.8694334 19.4159219 29.5490152 19.529597 29.2080573 19.5551159 27.5587251 19.2581688 27.4190556 19.0540176 27.3800304 18.7825894 25.7101585 19.1444937 24.021801 19.506398 22.3354975 19.8497431 20.64714 20.2139673 18.9587825 20.5526725 17.270425 20.9168967 15.5841214 21.255602 13.8957639 21.5966272 12.2074064 21.9585315 10.5169949 22.2995567 8.83274536 22.6405819 7.14438786 22.9816071 5.45603035 23.3226322 3.76561889 23.6613375 2.08136931 24.0023627 0.393011804 24.341068 0.674404722 26.7700025 0.93525801 29.198937 1.49598988 34.0336071 1.78149073 36.4625416 2.90500843 46.1759597 3.18434739 48.6280932 3.4657403 51.0570277 3.72659359 53.4859622 4.01209444 55.9148967 4.57282631 60.7704458 4.85421922 63.2202594 5.4149511 68.0781285 5.69634401 70.5279421 5.97568297 72.9568766 6.26118381 75.41133 6.54257673 77.8379446 6.80343002 80.2668791 7.08482293 82.7143728 7.36416189 85.1433073 7.64555481 87.5954408 7.92694772 90.0243753 8.20628668 92.4741889 8.49178752 94.9263224 8.77318044 97.3552569 9.33391231 102.257204 10.4184047 101.259647 10.7018516 100.781748 10.8641147 100.577597 11.122914 100.487121 11.3242024 100.556718 11.6446206 100.96502 11.7658044 101.032297 12.1067622 101.19237 13.335032 102.234005 14.2367218 102.189927 15.9250793 100.985899 16.8082833 100.647194 17.2889106 100.851345 17.654516 101.373322 17.9564486 101.872101 18.2152479 102.076252 18.6383642 102.099451 19.1785565 102.234005 20.145973 102.619108 20.5074705 102.936935 20.7888634 103.414834 20.9880978 103.939131 21.088742 104.458788 21.2489511 104.867091 21.5508836 105.161718 21.8713019 105.412267 22.1157234 105.662816 22.3971164 106.115196 22.5963508 106.639494 22.7380742 107.228748 22.857204 107.952557 23.1180573 108.430456 23.6192243 108.750602 26.1106813 109.363055 26.5974705 109.339856 28.4213895 108.611408 28.9266644 108.611408 29.8304081 108.931554 30.7731771 109.068428 31.1572681 109.453531 31.498226 109.929111 31.9008027 110.358292 33.5295953 111.745592 34.4518246 112.24437 35.3987015 112.311647 35.7992243 112.086617 36.1401821 111.678315 36.3209309 111.130819 36.3414705 110.564763 36.5612445 110.337413 37.9887487 109.544008 38.4508904 109.49761 38.913032 109.634484 39.3525801 109.859514 39.7551568 110.200539 39.9605531 110.267816 40.7225734 110.133262 41.0224519 110.156461 41.6632884 110.358292 41.9652209 110.541564 42.1295379 110.724836 42.7724283 111.56464 43.0723069 111.836068 43.2530556 111.882466 43.9739966 111.56464 44.1958246 111.270013 44.4998111 110.996264 44.9824924 110.85939 45.9642867 110.908108 46.4058887 110.792113 46.7509545 110.471967 46.8721383 110.133262 47.0118078 109.47673 47.0919123 109.226181 47.2521214 109.045229 47.773828 108.706524 48.0346813 108.33998 48.2749949 107.862081 48.5563879 107.453778 48.9610185 107.228748 49.4827251 107.047796 50.6658078 106.094317 51.2121619 105.890166 51.4935548 106.047919 51.6126847 106.479421 51.6927892 107.068675 51.8345126 107.63473 52.6170725 109.544008 53.4016863 110.587962 54.4060742 110.996264 55.4289477 111.202736 56.3142057 111.631917 58.0847218 113.084174 58.3640607 113.469277 58.846742 114.378678 59.1075953 114.696504 59.1260809 114.717383 59.9291804 114.967932 60.8555177 114.696504 62.5459292 113.650229 64.0905093 113.221048 64.4499528 112.991378 64.6758887 112.402123 64.7559933 111.859267 64.8360978 109.135705 64.9963069 108.430456 65.2366206 108.11495 66.2800337 108.091751 66.7216358 107.908479 66.986597 107.363302 66.9660573 107.047796 66.8407656 106.662693 66.7010961 106.298469 66.4402428 105.79737 66.4197032 105.481864 66.4998078 105.024844 66.321113 104.301035 66.0787454 103.825456 65.8384317 103.461232 65.6186577 102.962453 65.5775784 102.257204 65.879511 101.828023 66.2389545 101.463798 66.3806779 100.714471 66.5799123 100.146096 66.6415312 99.8514685 66.6004519 98.6056826 66.8017403 97.6034861 67.2474503 96.3577003 67.7876425 95.1745516 68.368914 94.4971411 68.8721349 94.4043451 69.3157909 94.6316952 69.6772884 94.9031234 70.3797437 95.0840756 70.7207015 95.4042217 70.9815548 95.8357229 71.1417639 96.2904232 71.2424081 96.4272972 71.3225126 96.5850504 71.3861855 96.7892015 71.3430523 96.9469547 71.2629477 97.0606297 71.1623035 97.1279068 71.1212243 97.2183829 71.1212243 97.6266851 71.0411197 97.8308363 71.0226341 97.9677103 71.2218685 98.2855365 71.6470388 98.4224106 72.0681012 98.0813854 72.409059 97.5130101 72.5898078 97.0374307 72.6493727 96.2904232 72.7109916 95.926199 72.910226 95.7220479 73.1916189 95.7893249 73.6126813 96.1535491 73.8776425 96.2231461 74.2596796 95.9934761 74.1980607 95.6547708 73.9372074 95.2209496 73.7174334 94.7453703 73.6763541 93.6573375 73.5531164 93.1353602 73.2532378 92.9520882 73.1115143 92.9080101 72.9307656 92.7920151 72.7500169 92.611063 72.6493727 92.4301108 72.4891636 92.0682065 72.4891636 91.9545315 72.6103474 91.9313325 73.5941956 91.251602 73.7174334 90.9314559 73.6763541 90.2494055 73.4319325 89.1636927 73.4134469 88.7785894 73.5120371 88.2774912 74.3192445 86.7788363 74.4999933 85.7116826 74.900516 85.4866524 75.401683 85.3729773 75.843285 85.0992292 76.007602 85.2801814 76.1678111 85.0992292 76.2684553 85.0296322 76.4101788 85.0528312 76.6094132 85.1665063 76.7901619 84.758204 76.7511366 83.5796952 76.8497268 83.0136398 78.1786408 81.0394055 78.4785194 80.7865365 79.3617234 80.6287834 79.6020371 80.8329345 79.8628904 81.3108338 80.2243879 81.8096121 80.6885835 82.0810403 81.1712648 81.9000882 81.7936155 81.0162065 82.1941383 80.7424584 82.6193086 80.6055844 83.040371 80.3782343 83.4408938 80.0836071 83.7222867 79.7889798 84.202914 78.9491763 84.5253862 78.543194 85.2915143 78.0420957 85.531828 77.5177985 85.8727858 76.4297657 86.415032 75.4762872 88.4238078 72.9800756 89.7116425 71.7783678 89.6911029 71.4837406 89.8122867 70.6184181 89.8122867 70.460665 89.7321821 70.1405189 89.7321821 70.0059647 89.791747 69.8690907 90.0936796 69.4839874 90.1121653 68.894733 89.9724958 68.5096297 89.7116425 68.2126826 89.3070118 67.8739773 89.1468027 67.5306322 89.2659325 67.2383249 89.6726172 66.8300227 89.7321821 66.5121965 89.7321821 65.8997431 89.7527218 65.5819169 89.8328263 65.2176927 89.9314165 64.9207456 90.2333491 64.3106121 90.2538887 64.060063 90.1121653 63.7654358 89.9519562 63.4267305 89.851312 63.1297834 89.8718516 62.654204 90.0936796 62.654204 90.3935582 62.7678791 90.6544115 62.677403 90.734516 62.3572569 90.6749511 62.0881486 90.5537673 61.8584786 90.4942024 61.6543275 90.5537673 61.111471 90.6954907 60.7240479 90.7961349 60.2693476 90.7550556 59.591937 90.5352816 58.3647103 90.514742 57.773136 90.6338718 57.0029295 90.9152648 55.8684987 91.0159089 55.3001234 90.9953693 54.2097708 91.0754739 53.4859622 91.3363272 52.2355365 91.4965363 51.9641083 91.9627858 51.3516549 92.06343 51.1475038 92.1229949 50.1708262 92.1825599 49.9898741 92.0819157 49.6024509 91.841602 48.9459194 91.8231164 48.8090453 91.8025767 48.4912191 91.7614975 48.356665 91.6423676 48.2661889 91.4965363 48.2197909 91.2973019 48.2197909 91.2171973 47.5400605 91.457511 46.2896348 91.457511 45.5867053 91.3157875 45.178403 91.0549342 44.6773048 90.4346374 43.7702242 89.6109983 42.8840227 89.3706847 42.4084433 89.4918685 41.7727909"></polygon>
                <polygon id="Stroke-32" stroke="#F9F9F9" stroke-width="0.25" stroke-linecap="round" stroke-linejoin="round" points="89.8122867 41.3876877 90.3134536 41.0930605 90.8351602 40.9561864 91.2171973 41.1162594 92.0223508 40.2068589 92.3242833 40.0491058 91.841602 36.9381209 91.3363272 33.8294559 90.8556998 30.6999118 90.3545329 27.609806 89.3912243 21.3924761 88.8859494 18.2838111 88.4032681 15.1751461 87.4214739 8.97637531 86.4540573 2.75904534 86.0740742 0.422906801 81.1116998 3.39469773 80.548914 4.02803023 79.7827858 4.32265743 79.441828 4.50592947 79.2816189 4.68920151 79.1008702 5.09750378 79.000226 5.23205793 78.2977707 5.52900504 77.833575 6.00458438 76.4697437 6.54744081 70.4598482 11.2475567 64.7950185 18.6457154 64.0905093 19.0540176 63.4681585 19.6687909 62.9854772 19.8033451 62.2604283 19.5551159 62.0796796 19.5551159 61.8783912 19.712869 61.5374334 20.1907683 61.2765801 20.3253224 60.7569275 20.3925995 58.2038516 20.2139673 57.3370793 20.3925995 54.747032 21.7311814 53.2989882 22.9816071 52.4568634 23.4131083 51.0683845 23.7286146 50.7664519 24.0255617 50.5055987 24.387466 49.7045531 25.1808715 49.322516 25.4314207 48.3550995 25.5474156 47.4328702 25.2272695 45.8246172 24.2065139 45.6233288 24.1160378 45.2228061 23.9791637 45.0831366 23.9118866 44.840769 23.6613375 44.6805599 23.4363073 44.4998111 23.2762343 44.2759292 23.2321562 44.6209949 23.8214106 45.6048432 24.5011411 46.1060101 24.9558413 45.003032 24.364267 44.4197066 24.1601159 43.895946 24.1160378 43.6535784 24.1833149 43.3536998 24.387466 43.1524115 24.4547431 42.8710185 24.4779421 42.7108094 24.4083451 42.2507218 24.1833149 41.4229747 24.5011411 40.521285 25.3850227 39.6154874 25.976597 38.8329275 25.4314207 38.6727184 25.6819698 38.47143 25.8420428 38.2701417 25.7956448 38.1510118 25.4569395 37.9497234 25.4314207 36.7214536 25.5914937 37.0233862 25.3432645 37.7484351 25.1599924 38.0709073 24.9094433 38.3707858 25.0903955 38.4919696 24.9558413 38.5720742 24.6612141 38.691204 24.4083451 38.8719528 24.2737909 39.0732411 24.1833149 39.5949477 24.0696398 40.5007454 23.6613375 40.962887 23.5476625 41.464054 23.7286146 41.8645767 23.2530353 42.5300607 22.9584081 43.895946 22.6405819 43.6946577 22.1650025 43.5344486 21.9121335 43.3126206 21.7984584 42.5300607 21.8216574 42.3102867 21.8912544 42.0063002 22.1650025 41.8255514 22.0722065 41.683828 21.8912544 41.5646981 21.7984584 41.2627656 21.3460781 40.962887 21.0514509 40.6013895 20.9609748 40.6404148 21.118728 40.6404148 21.5061511 40.6219292 21.9353325 40.5418246 22.2090806 40.3199966 22.5269068 40.020118 22.7333778 39.3525801 23.028005 38.9520573 23.0720831 38.2105767 22.9120101 37.8490793 22.8888111 37.2226206 22.7078589 35.979973 21.4597531 35.374054 21.0305718 34.8318078 21.0978489 34.1314064 21.0305718 32.7634671 20.6663476 32.1801417 20.3485214 31.0771636 19.3927229 30.5513491 19.1444937 30.331575 19.1676927 29.8694334 19.4159219 29.5490152 19.529597 29.2080573 19.5551159 27.5587251 19.2581688 27.4190556 19.0540176 27.3800304 18.7825894 25.7101585 19.1444937 24.021801 19.506398 22.3354975 19.8497431 20.64714 20.2139673 18.9587825 20.5526725 17.270425 20.9168967 15.5841214 21.255602 13.8957639 21.5966272 12.2074064 21.9585315 10.5169949 22.2995567 8.83274536 22.6405819 7.14438786 22.9816071 5.45603035 23.3226322 3.76561889 23.6613375 2.08136931 24.0023627 0.393011804 24.341068 0.674404722 26.7700025 0.93525801 29.198937 1.49598988 34.0336071 1.78149073 36.4625416 2.90500843 46.1759597 3.18434739 48.6280932 3.4657403 51.0570277 3.72659359 53.4859622 4.01209444 55.9148967 4.57282631 60.7704458 4.85421922 63.2202594 5.4149511 68.0781285 5.69634401 70.5279421 5.97568297 72.9568766 6.26118381 75.41133 6.54257673 77.8379446 6.80343002 80.2668791 7.08482293 82.7143728 7.36416189 85.1433073 7.64555481 87.5954408 7.92694772 90.0243753 8.20628668 92.4741889 8.49178752 94.9263224 8.77318044 97.3552569 9.33391231 102.257204 10.4184047 101.259647 10.7018516 100.781748 10.8641147 100.577597 11.122914 100.487121 11.3242024 100.556718 11.6446206 100.96502 11.7658044 101.032297 12.1067622 101.19237 13.335032 102.234005 14.2367218 102.189927 15.9250793 100.985899 16.8082833 100.647194 17.2889106 100.851345 17.654516 101.373322 17.9564486 101.872101 18.2152479 102.076252 18.6383642 102.099451 19.1785565 102.234005 20.145973 102.619108 20.5074705 102.936935 20.7888634 103.414834 20.9880978 103.939131 21.088742 104.458788 21.2489511 104.867091 21.5508836 105.161718 21.8713019 105.412267 22.1157234 105.662816 22.3971164 106.115196 22.5963508 106.639494 22.7380742 107.228748 22.857204 107.952557 23.1180573 108.430456 23.6192243 108.750602 26.1106813 109.363055 26.5974705 109.339856 28.4213895 108.611408 28.9266644 108.611408 29.8304081 108.931554 30.7731771 109.068428 31.1572681 109.453531 31.498226 109.929111 31.9008027 110.358292 33.5295953 111.745592 34.4518246 112.24437 35.3987015 112.311647 35.7992243 112.086617 36.1401821 111.678315 36.3209309 111.130819 36.3414705 110.564763 36.5612445 110.337413 37.9887487 109.544008 38.4508904 109.49761 38.913032 109.634484 39.3525801 109.859514 39.7551568 110.200539 39.9605531 110.267816 40.7225734 110.133262 41.0224519 110.156461 41.6632884 110.358292 41.9652209 110.541564 42.1295379 110.724836 42.7724283 111.56464 43.0723069 111.836068 43.2530556 111.882466 43.9739966 111.56464 44.1958246 111.270013 44.4998111 110.996264 44.9824924 110.85939 45.9642867 110.908108 46.4058887 110.792113 46.7509545 110.471967 46.8721383 110.133262 47.0118078 109.47673 47.0919123 109.226181 47.2521214 109.045229 47.773828 108.706524 48.0346813 108.33998 48.2749949 107.862081 48.5563879 107.453778 48.9610185 107.228748 49.4827251 107.047796 50.6658078 106.094317 51.2121619 105.890166 51.4935548 106.047919 51.6126847 106.479421 51.6927892 107.068675 51.8345126 107.63473 52.6170725 109.544008 53.4016863 110.587962 54.4060742 110.996264 55.4289477 111.202736 56.3142057 111.631917 58.0847218 113.084174 58.3640607 113.469277 58.846742 114.378678 59.1075953 114.696504 59.1260809 114.717383 59.9291804 114.967932 60.8555177 114.696504 62.5459292 113.650229 64.0905093 113.221048 64.4499528 112.991378 64.6758887 112.402123 64.7559933 111.859267 64.8360978 109.135705 64.9963069 108.430456 65.2366206 108.11495 66.2800337 108.091751 66.7216358 107.908479 66.986597 107.363302 66.9660573 107.047796 66.8407656 106.662693 66.7010961 106.298469 66.4402428 105.79737 66.4197032 105.481864 66.4998078 105.024844 66.321113 104.301035 66.0787454 103.825456 65.8384317 103.461232 65.6186577 102.962453 65.5775784 102.257204 65.879511 101.828023 66.2389545 101.463798 66.3806779 100.714471 66.5799123 100.146096 66.6415312 99.8514685 66.6004519 98.6056826 66.8017403 97.6034861 67.2474503 96.3577003 67.7876425 95.1745516 68.368914 94.4971411 68.8721349 94.4043451 69.3157909 94.6316952 69.6772884 94.9031234 70.3797437 95.0840756 70.7207015 95.4042217 70.9815548 95.8357229 71.1417639 96.2904232 71.2424081 96.4272972 71.3225126 96.5850504 71.3861855 96.7892015 71.3430523 96.9469547 71.2629477 97.0606297 71.1623035 97.1279068 71.1212243 97.2183829 71.1212243 97.6266851 71.0411197 97.8308363 71.0226341 97.9677103 71.2218685 98.2855365 71.6470388 98.4224106 72.0681012 98.0813854 72.409059 97.5130101 72.5898078 97.0374307 72.6493727 96.2904232 72.7109916 95.926199 72.910226 95.7220479 73.1916189 95.7893249 73.6126813 96.1535491 73.8776425 96.2231461 74.2596796 95.9934761 74.1980607 95.6547708 73.9372074 95.2209496 73.7174334 94.7453703 73.6763541 93.6573375 73.5531164 93.1353602 73.2532378 92.9520882 73.1115143 92.9080101 72.9307656 92.7920151 72.7500169 92.611063 72.6493727 92.4301108 72.4891636 92.0682065 72.4891636 91.9545315 72.6103474 91.9313325 73.5941956 91.251602 73.7174334 90.9314559 73.6763541 90.2494055 73.4319325 89.1636927 73.4134469 88.7785894 73.5120371 88.2774912 74.3192445 86.7788363 74.4999933 85.7116826 74.900516 85.4866524 75.401683 85.3729773 75.843285 85.0992292 76.007602 85.2801814 76.1678111 85.0992292 76.2684553 85.0296322 76.4101788 85.0528312 76.6094132 85.1665063 76.7901619 84.758204 76.7511366 83.5796952 76.8497268 83.0136398 78.1786408 81.0394055 78.4785194 80.7865365 79.3617234 80.6287834 79.6020371 80.8329345 79.8628904 81.3108338 80.2243879 81.8096121 80.6885835 82.0810403 81.1712648 81.9000882 81.7936155 81.0162065 82.1941383 80.7424584 82.6193086 80.6055844 83.040371 80.3782343 83.4408938 80.0836071 83.7222867 79.7889798 84.202914 78.9491763 84.5253862 78.543194 85.2915143 78.0420957 85.531828 77.5177985 85.8727858 76.4297657 86.415032 75.4762872 88.4238078 72.9800756 89.7116425 71.7783678 89.6911029 71.4837406 89.8122867 70.6184181 89.8122867 70.460665 89.7321821 70.1405189 89.7321821 70.0059647 89.791747 69.8690907 90.0936796 69.4839874 90.1121653 68.894733 89.9724958 68.5096297 89.7116425 68.2126826 89.3070118 67.8739773 89.1468027 67.5306322 89.2659325 67.2383249 89.6726172 66.8300227 89.7321821 66.5121965 89.7321821 65.8997431 89.7527218 65.5819169 89.8328263 65.2176927 89.9314165 64.9207456 90.2333491 64.3106121 90.2538887 64.060063 90.1121653 63.7654358 89.9519562 63.4267305 89.851312 63.1297834 89.8718516 62.654204 90.0936796 62.654204 90.3935582 62.7678791 90.6544115 62.677403 90.734516 62.3572569 90.6749511 62.0881486 90.5537673 61.8584786 90.4942024 61.6543275 90.5537673 61.111471 90.6954907 60.7240479 90.7961349 60.2693476 90.7550556 59.591937 90.5352816 58.3647103 90.514742 57.773136 90.6338718 57.0029295 90.9152648 55.8684987 91.0159089 55.3001234 90.9953693 54.2097708 91.0754739 53.4859622 91.3363272 52.2355365 91.4965363 51.9641083 91.9627858 51.3516549 92.06343 51.1475038 92.1229949 50.1708262 92.1825599 49.9898741 92.0819157 49.6024509 91.841602 48.9459194 91.8231164 48.8090453 91.8025767 48.4912191 91.7614975 48.356665 91.6423676 48.2661889 91.4965363 48.2197909 91.2973019 48.2197909 91.2171973 47.5400605 91.457511 46.2896348 91.457511 45.5867053 91.3157875 45.178403 91.0549342 44.6773048 90.4346374 43.7702242 89.6109983 42.8840227 89.3706847 42.4084433 89.4918685 41.7727909"></polygon>
            </g>
        </g>
    </g>
</svg>